<svg version="1.1" xmlns="http://www.w3.org/2000/svg" viewBox="0 0 1065.580392706809 808.378691439806" width="1065.580392706809" height="808.378691439806" filter="invert(93%) hue-rotate(180deg)">
  <!-- svg-source:excalidraw -->
  
  <defs>
    <style class="style-fonts">
      @font-face {
        font-family: "Virgil";
        src: url("https://file%2B.vscode-resource.vscode-cdn.net/c%3A/Users/talor/.vscode/extensions/pomdtr.excalidraw-editor-3.7.4/public//dist/excalidraw-assets/Virgil.woff2");
      }
      @font-face {
        font-family: "Cascadia";
        src: url("https://file%2B.vscode-resource.vscode-cdn.net/c%3A/Users/talor/.vscode/extensions/pomdtr.excalidraw-editor-3.7.4/public//dist/excalidraw-assets/Cascadia.woff2");
      }
      @font-face {
        font-family: "Assistant";
        src: url("https://file%2B.vscode-resource.vscode-cdn.net/c%3A/Users/talor/.vscode/extensions/pomdtr.excalidraw-editor-3.7.4/public//dist/excalidraw-assets/Assistant-Regular.woff2");
      }
    </style>
    
  </defs>
  <rect x="0" y="0" width="1065.580392706809" height="808.378691439806" fill="#ffffff"></rect><g stroke-linecap="round" transform="translate(10 10) rotate(0 238.87743379019867 32.57933813781756)"><path d="M4.34 3.77 C4.34 3.77, 4.34 3.77, 4.34 3.77 M4.34 3.77 C4.34 3.77, 4.34 3.77, 4.34 3.77 M-0.12 21.09 C3.41 13.62, 9.78 10.41, 18.25 -0.04 M-0.12 21.09 C4.3 16.72, 9.4 11.36, 18.25 -0.04 M0.67 32.38 C5.73 25.77, 12.52 18.88, 28.88 -0.07 M0.67 32.38 C11.66 19.57, 23.37 7.36, 28.88 -0.07 M0.8 44.42 C14.22 30.29, 23.39 16.03, 38.85 0.65 M0.8 44.42 C12.51 31.49, 23.28 17.23, 38.85 0.65 M0.93 56.46 C11.65 45.65, 24.43 30.78, 49.48 0.61 M0.93 56.46 C16.44 37.5, 31.64 20.27, 49.48 0.61 M6.31 62.46 C23.97 40.88, 42.5 22.36, 60.11 0.58 M6.31 62.46 C23.37 42.8, 38.99 24.37, 60.11 0.58 M14.32 65.45 C28.28 51.11, 38.1 35.55, 70.74 0.54 M14.32 65.45 C33.81 44.32, 52.39 20.61, 70.74 0.54 M24.95 65.41 C39.49 49.67, 53.15 32.94, 81.37 0.51 M24.95 65.41 C39.7 47.34, 55.5 29.1, 81.37 0.51 M35.58 65.38 C55.71 45.61, 71.5 22.82, 92 0.47 M35.58 65.38 C49.41 50.48, 62.76 35.95, 92 0.47 M46.21 65.34 C63.5 44.51, 83.35 21, 102.63 0.44 M46.21 65.34 C59.64 49.5, 73.72 33.76, 102.63 0.44 M56.84 65.31 C70.34 50.78, 80.01 38.82, 113.26 0.41 M56.84 65.31 C74.11 46.41, 91.18 25.45, 113.26 0.41 M67.47 65.28 C79.89 51.42, 91.64 37.94, 123.89 0.37 M67.47 65.28 C84.98 45.78, 103.01 25.75, 123.89 0.37 M78.1 65.24 C95 47.87, 109.78 31.82, 134.52 0.34 M78.1 65.24 C94.85 45.47, 112.13 26.53, 134.52 0.34 M88.73 65.21 C106.29 48.27, 122.4 29.05, 145.15 0.3 M88.73 65.21 C107.34 44.52, 124.14 24.87, 145.15 0.3 M99.36 65.17 C120.24 41.12, 142.72 16.73, 155.78 0.27 M99.36 65.17 C115.92 48.18, 130.87 29.7, 155.78 0.27 M109.99 65.14 C125.4 45.76, 144.67 25.89, 166.41 0.23 M109.99 65.14 C130.34 39.7, 152.45 15.73, 166.41 0.23 M120.62 65.1 C135.68 46.52, 152.81 28.45, 177.04 0.2 M120.62 65.1 C137.58 45.61, 155.09 25.37, 177.04 0.2 M130.59 65.82 C148.79 44.08, 170.93 20.26, 187.67 0.16 M130.59 65.82 C153.17 38.62, 175.46 13.52, 187.67 0.16 M141.22 65.79 C161.37 42.6, 181.12 18.96, 198.3 0.13 M141.22 65.79 C162.34 42.15, 181.78 16.9, 198.3 0.13 M151.85 65.75 C170.35 46.55, 185.43 27.4, 208.93 0.09 M151.85 65.75 C170.87 43.88, 191.04 21.88, 208.93 0.09 M162.48 65.72 C183.12 45.89, 200.21 21.26, 219.56 0.06 M162.48 65.72 C177.3 49.51, 190.95 32.23, 219.56 0.06 M173.11 65.69 C191.84 41.38, 211.26 17.78, 229.54 0.78 M173.11 65.69 C190.5 46.15, 208.68 25.32, 229.54 0.78 M183.75 65.65 C204.81 41.06, 222.44 19.61, 240.17 0.75 M183.75 65.65 C200.87 46.46, 217.34 26.41, 240.17 0.75 M194.38 65.62 C212.32 45.26, 231.92 22.51, 250.8 0.71 M194.38 65.62 C211.39 45.81, 230.41 24.9, 250.8 0.71 M205.01 65.58 C220.5 48.86, 232.38 35.21, 261.43 0.68 M205.01 65.58 C220.29 48.66, 233.19 33.66, 261.43 0.68 M215.64 65.55 C234.29 43.4, 252.17 24.88, 272.06 0.64 M215.64 65.55 C233.58 44.88, 250.03 24.66, 272.06 0.64 M226.27 65.51 C245.12 46.05, 263.32 24.71, 282.69 0.61 M226.27 65.51 C245.01 41.97, 265.2 19.83, 282.69 0.61 M236.9 65.48 C253.49 47.65, 268.36 30.06, 293.32 0.57 M236.9 65.48 C254.04 44.68, 271.76 23.81, 293.32 0.57 M247.53 65.44 C257.76 50.63, 268.05 40.98, 303.95 0.54 M247.53 65.44 C261.94 48.91, 276.34 31.55, 303.95 0.54 M258.16 65.41 C277.53 39.95, 299.1 16.34, 314.58 0.5 M258.16 65.41 C276.99 42.09, 296.72 21.76, 314.58 0.5 M268.79 65.38 C286.09 46.85, 299.72 28.97, 325.21 0.47 M268.79 65.38 C290.65 40.71, 314.14 14.12, 325.21 0.47 M279.42 65.34 C293.93 47.71, 310.47 28.9, 335.84 0.44 M279.42 65.34 C291.46 50.13, 304.84 35.18, 335.84 0.44 M290.05 65.31 C309.25 43.55, 329.31 20.32, 346.47 0.4 M290.05 65.31 C309.51 43.03, 328.33 20.58, 346.47 0.4 M300.68 65.27 C317.96 42.47, 337.24 22.14, 357.1 0.37 M300.68 65.27 C312.28 52.07, 324.1 37.65, 357.1 0.37 M311.31 65.24 C334.39 38.69, 357.77 12.66, 367.73 0.33 M311.31 65.24 C323.43 50.6, 337.85 33.97, 367.73 0.33 M321.94 65.2 C336.75 45.73, 353.65 25.83, 378.36 0.3 M321.94 65.2 C344.42 40.17, 366.58 14.87, 378.36 0.3 M331.91 65.92 C347.41 46.03, 365.93 27.35, 388.99 0.26 M331.91 65.92 C344.09 51.3, 356.96 37.7, 388.99 0.26 M342.54 65.89 C364.24 38.94, 386.63 15.44, 399.62 0.23 M342.54 65.89 C355.71 50.94, 369.19 36.19, 399.62 0.23 M353.17 65.85 C375.8 37.34, 400.2 11.14, 410.25 0.19 M353.17 65.85 C371.57 44, 390.87 22.44, 410.25 0.19 M363.8 65.82 C383.34 45.32, 398.86 22.59, 420.88 0.16 M363.8 65.82 C377.35 48.86, 391.5 34.65, 420.88 0.16 M374.43 65.79 C397.11 40.71, 420.25 14.21, 430.85 0.88 M374.43 65.79 C388.63 47.21, 405.35 29.9, 430.85 0.88 M385.06 65.75 C397.55 52.39, 411.97 36.43, 441.48 0.85 M385.06 65.75 C404.3 44.05, 422.87 20.24, 441.48 0.85 M395.69 65.72 C411.09 47.86, 429.97 25.18, 452.11 0.81 M395.69 65.72 C406.71 52.06, 420.19 38.45, 452.11 0.81 M406.32 65.68 C423.63 44.56, 442.51 25.25, 462.74 0.78 M406.32 65.68 C423.19 47.32, 438.69 28.31, 462.74 0.78 M416.95 65.65 C436.72 43.57, 458.69 17.53, 472.06 2.25 M416.95 65.65 C439.24 40.48, 458.51 18.08, 472.06 2.25 M427.58 65.61 C442.61 48.87, 454.11 37.67, 476.79 9.01 M427.58 65.61 C436.7 53.15, 446.7 42.83, 476.79 9.01 M438.21 65.58 C448.52 53, 458.04 44.08, 477.57 20.3 M438.21 65.58 C448.69 53.32, 460.59 39.73, 477.57 20.3 M448.84 65.54 C459.31 53.6, 471.13 41.85, 477.71 32.34 M448.84 65.54 C458.33 56.34, 466.64 46.57, 477.71 32.34 M459.47 65.51 C462.87 62.42, 465.48 56.38, 477.84 44.38 M459.47 65.51 C465.08 59.71, 469.56 53.54, 477.84 44.38" stroke="#ffc9c9" stroke-width="1" fill="none"></path><path d="M16.29 0 C124.3 0.52, 230.6 1.85, 461.47 0 M16.29 0 C184.29 1.74, 352.2 1.92, 461.47 0 M461.47 0 C474.21 0.97, 477.36 5.2, 477.75 16.29 M461.47 0 C470.35 -2.12, 476.11 3.28, 477.75 16.29 M477.75 16.29 C476.7 25.71, 477.04 39.41, 477.75 48.87 M477.75 16.29 C477.75 27.47, 477.87 40.89, 477.75 48.87 M477.75 48.87 C478.87 57.86, 473.36 66.28, 461.47 65.16 M477.75 48.87 C476.78 60.65, 474.41 65.74, 461.47 65.16 M461.47 65.16 C292.66 63.13, 126.15 63.13, 16.29 65.16 M461.47 65.16 C325.33 64.69, 189.01 64.87, 16.29 65.16 M16.29 65.16 C7.18 64.31, -0.16 61.57, 0 48.87 M16.29 65.16 C5.28 63.06, -1.57 60.94, 0 48.87 M0 48.87 C1.97 40.91, 0.76 32.33, 0 16.29 M0 48.87 C0.65 36.91, -1.04 25.49, 0 16.29 M0 16.29 C1.73 3.79, 5.33 -0.88, 16.29 0 M0 16.29 C1.29 3.62, 4.89 1.04, 16.29 0" stroke="#e03131" stroke-width="2" fill="none"></path></g><g transform="translate(226.31148530387054 23.084927185001902) rotate(0 22.565948486328125 19.4944109528156)"><text x="22.565948486328125" y="0" font-family="Virgil, Segoe UI Emoji" font-size="31.191057524504977px" fill="#e03131" text-anchor="middle" style="white-space: pre;" direction="ltr" dominant-baseline="text-before-edge">s-p</text></g><g stroke-linecap="round" transform="translate(46.29417558511341 84.74144932402385) rotate(0 202.5832582050857 32.8613841469778)"><path d="M4.37 3.8 C4.37 3.8, 4.37 3.8, 4.37 3.8 M4.37 3.8 C4.37 3.8, 4.37 3.8, 4.37 3.8 M-0.09 21.13 C7.79 13.26, 13.24 5.2, 18.28 -0.01 M-0.09 21.13 C6.36 14.86, 10.04 7.62, 18.28 -0.01 M0.7 32.41 C9.85 22.02, 21.68 11.95, 28.91 -0.04 M0.7 32.41 C8.55 24.61, 14.78 15.8, 28.91 -0.04 M0.84 44.45 C7.91 33.14, 17.65 26.48, 39.54 -0.08 M0.84 44.45 C10.26 32.18, 20.48 20.88, 39.54 -0.08 M0.97 56.49 C15.62 40.59, 27.61 27.81, 49.52 0.65 M0.97 56.49 C14.88 40.45, 30.92 22.58, 49.52 0.65 M6.35 62.5 C26.27 41.61, 44.18 18.63, 60.15 0.61 M6.35 62.5 C21.8 44.08, 37.43 24.98, 60.15 0.61 M14.36 65.48 C28.39 45.67, 46.12 28.9, 70.78 0.58 M14.36 65.48 C25.08 51.03, 36.96 37.74, 70.78 0.58 M24.99 65.45 C45.98 40.85, 67.84 15.71, 81.41 0.54 M24.99 65.45 C45.5 41.6, 67.13 17.01, 81.41 0.54 M35.62 65.41 C47.38 48.96, 58.88 34.45, 92.04 0.51 M35.62 65.41 C57.82 41.02, 78.73 16.5, 92.04 0.51 M46.25 65.38 C67.58 40.24, 86.84 18.1, 102.67 0.47 M46.25 65.38 C60.22 49.61, 73.98 33.14, 102.67 0.47 M56.22 66.1 C70.13 49.97, 87.33 31.55, 113.3 0.44 M56.22 66.1 C70.19 49.16, 82.47 34.5, 113.3 0.44 M66.85 66.06 C83.86 47.02, 102.3 25.72, 123.93 0.4 M66.85 66.06 C81.79 49.79, 94.64 32.94, 123.93 0.4 M77.48 66.03 C89.76 53.64, 100.7 40.25, 134.56 0.37 M77.48 66.03 C92.02 50.11, 106 33.87, 134.56 0.37 M88.11 65.99 C105.11 48.25, 119.52 27.36, 145.19 0.33 M88.11 65.99 C103.49 47.91, 119.88 30.81, 145.19 0.33 M98.74 65.96 C117.33 46.31, 132.54 27.22, 155.82 0.3 M98.74 65.96 C112.47 49.66, 126.69 32.89, 155.82 0.3 M109.37 65.93 C127.85 46.02, 145.33 27.81, 166.45 0.27 M109.37 65.93 C131.11 41.88, 151.57 17.65, 166.45 0.27 M120 65.89 C133.23 51.04, 148.75 33.88, 177.08 0.23 M120 65.89 C139.82 43.16, 159.55 20.67, 177.08 0.23 M130.63 65.86 C146.85 48.13, 161.48 34.15, 187.71 0.2 M130.63 65.86 C151.56 42.14, 173.61 17.56, 187.71 0.2 M141.26 65.82 C154.7 49.36, 170.14 33.77, 198.34 0.16 M141.26 65.82 C162.98 38.39, 186.45 12.5, 198.34 0.16 M151.89 65.79 C172.48 41.7, 194.72 16.32, 208.97 0.13 M151.89 65.79 C167.74 48.63, 182.06 30.97, 208.97 0.13 M162.52 65.75 C178.56 44.67, 195.05 25.95, 219.6 0.09 M162.52 65.75 C182.18 42, 203.9 18.68, 219.6 0.09 M173.15 65.72 C192.72 40.56, 215.47 17.53, 230.23 0.06 M173.15 65.72 C186 50.98, 198.38 38.21, 230.23 0.06 M183.78 65.68 C200.06 45.94, 219.83 24.31, 240.2 0.78 M183.78 65.68 C201.52 44.48, 221.09 23.1, 240.2 0.78 M194.41 65.65 C211.06 46.66, 226.92 28.88, 250.83 0.74 M194.41 65.65 C214.42 43.73, 232.25 20.73, 250.83 0.74 M205.04 65.61 C218.16 50.63, 230.66 32.96, 261.46 0.71 M205.04 65.61 C219.74 48.42, 236.46 30.15, 261.46 0.71 M215.67 65.58 C228.75 51.99, 242.86 34.01, 272.09 0.68 M215.67 65.58 C234.3 42.83, 254.91 20.27, 272.09 0.68 M226.3 65.55 C243.11 47.09, 258.73 30.61, 282.72 0.64 M226.3 65.55 C246.81 42.64, 265.94 20.94, 282.72 0.64 M236.93 65.51 C255.17 45.29, 271.15 27.85, 293.35 0.61 M236.93 65.51 C252.37 47.1, 268.02 29.8, 293.35 0.61 M246.91 66.23 C261.33 50.08, 278.71 30.39, 303.98 0.57 M246.91 66.23 C266.65 43.03, 288.6 19.18, 303.98 0.57 M257.54 66.2 C268.64 52.28, 282.64 39.13, 314.61 0.54 M257.54 66.2 C280.48 41.71, 302.54 14.59, 314.61 0.54 M268.17 66.16 C290.02 39.95, 313.87 14.64, 325.24 0.5 M268.17 66.16 C284.32 48.12, 298.81 31.76, 325.24 0.5 M278.8 66.13 C291.85 50.98, 304.67 36.1, 335.87 0.47 M278.8 66.13 C293.7 48.98, 308.71 32.87, 335.87 0.47 M289.43 66.09 C310.42 42.23, 330.75 18.93, 346.5 0.43 M289.43 66.09 C307.09 45.02, 326.66 24.24, 346.5 0.43 M300.06 66.06 C317.79 45.9, 336.93 22.24, 357.13 0.4 M300.06 66.06 C313.98 49.19, 330.35 33.07, 357.13 0.4 M310.69 66.02 C325.8 49.51, 336.29 36.91, 367.76 0.36 M310.69 66.02 C330.49 43.34, 349.04 21.87, 367.76 0.36 M321.32 65.99 C332 51.22, 346.69 41.82, 378.39 0.33 M321.32 65.99 C338.25 47.26, 353.99 26.71, 378.39 0.33 M331.95 65.96 C351.09 44.87, 365.98 26.05, 389.02 0.3 M331.95 65.96 C354.16 41.6, 375.73 15.75, 389.02 0.3 M342.58 65.92 C352.39 54.6, 363.71 40.85, 397.69 2.53 M342.58 65.92 C359.46 47.31, 376.1 28.52, 397.69 2.53 M353.21 65.89 C371.96 44.59, 388.41 27.23, 403.07 8.53 M353.21 65.89 C368.13 49.15, 382.96 32.08, 403.07 8.53 M363.84 65.85 C372.7 52.03, 383.01 40.42, 405.17 18.31 M363.84 65.85 C376.03 52.8, 390.34 38.2, 405.17 18.31 M374.47 65.82 C385.84 54.36, 394.14 42.6, 405.3 30.35 M374.47 65.82 C387.91 51.26, 398.65 37.04, 405.3 30.35 M385.1 65.78 C392.51 58.5, 399.2 50.15, 405.44 42.39 M385.1 65.78 C391.7 56.31, 400.19 47.63, 405.44 42.39 M396.38 64.99 C399.14 61.16, 400.67 59.87, 403.6 56.69 M396.38 64.99 C399.58 62.37, 401.81 58.38, 403.6 56.69" stroke="#a5d8ff" stroke-width="1" fill="none"></path><path d="M16.43 0 C111.58 2.11, 208.97 0.27, 388.74 0 M16.43 0 C100.86 -0.3, 186.52 -0.43, 388.74 0 M388.74 0 C399.29 -0.23, 403.45 3.64, 405.17 16.43 M388.74 0 C398.04 -2.15, 406.21 4.33, 405.17 16.43 M405.17 16.43 C404.47 28.23, 406.47 39.6, 405.17 49.29 M405.17 16.43 C405.1 24.3, 405.68 30.56, 405.17 49.29 M405.17 49.29 C406.2 61.37, 398.85 66.52, 388.74 65.72 M405.17 49.29 C407.25 60.83, 401.47 67.43, 388.74 65.72 M388.74 65.72 C307.3 64.59, 223.8 65.57, 16.43 65.72 M388.74 65.72 C289.71 67.76, 192.4 66.89, 16.43 65.72 M16.43 65.72 C5.32 67.56, -0.13 58.42, 0 49.29 M16.43 65.72 C3.91 66.93, -0.44 60.03, 0 49.29 M0 49.29 C0.41 40.8, 0.68 29.91, 0 16.43 M0 49.29 C-1.13 40.91, 0.59 32.88, 0 16.43 M0 16.43 C-0.1 4.6, 6.6 -1.57, 16.43 0 M0 16.43 C-0.54 6.52, 3.55 0.22, 16.43 0" stroke="#1971c2" stroke-width="2" fill="none"></path></g><g transform="translate(208.2212906017221 98.10842251818599) rotate(0 40.65614318847656 19.4944109528156)"><text x="40.65614318847656" y="0" font-family="Virgil, Segoe UI Emoji" font-size="31.191057524504977px" fill="#1971c2" text-anchor="middle" style="white-space: pre;" direction="ltr" dominant-baseline="text-before-edge">s-app</text></g><g stroke-linecap="round" transform="translate(92.00026226678165 163.0585927092718) rotate(0 156.8771715234161 32.57933813781756)"><path d="M4.34 3.77 C4.34 3.77, 4.34 3.77, 4.34 3.77 M4.34 3.77 C4.34 3.77, 4.34 3.77, 4.34 3.77 M2.5 18.07 C4.25 15.08, 8.66 11.28, 17.59 0.72 M2.5 18.07 C6.88 11.11, 13.47 5.02, 17.59 0.72 M2.63 30.12 C12.82 21.91, 18.27 11.37, 28.22 0.68 M2.63 30.12 C9.45 21.5, 15.56 14.71, 28.22 0.68 M2.77 42.16 C12.26 33.36, 20.48 22.08, 38.85 0.65 M2.77 42.16 C14.75 28.14, 27.59 13.58, 38.85 0.65 M0.93 56.46 C19.72 36.77, 37.84 13.54, 49.48 0.61 M0.93 56.46 C14.06 41.85, 26.64 27.76, 49.48 0.61 M6.31 62.46 C19.02 46.69, 31.84 33.39, 59.45 1.33 M6.31 62.46 C17.44 48.22, 29.79 36.23, 59.45 1.33 M13.66 66.2 C30.65 47.94, 43.6 30.39, 70.08 1.3 M13.66 66.2 C33.97 42.5, 55.53 20.02, 70.08 1.3 M24.29 66.17 C43.81 43.58, 65.33 18.88, 80.71 1.26 M24.29 66.17 C43.91 43.67, 61.93 23.38, 80.71 1.26 M34.92 66.13 C51.66 44.09, 72.83 25.85, 91.34 1.23 M34.92 66.13 C53.45 44.98, 72.64 22.08, 91.34 1.23 M45.55 66.1 C64.12 44.3, 83.85 20.15, 101.97 1.19 M45.55 66.1 C62.34 46.19, 80.21 26.65, 101.97 1.19 M56.18 66.07 C72.43 48.99, 86.92 30.71, 112.61 1.16 M56.18 66.07 C74.24 44.65, 94.4 22.26, 112.61 1.16 M66.81 66.03 C85.66 44.81, 102.96 23.69, 123.24 1.13 M66.81 66.03 C83.77 44.9, 101.03 25.48, 123.24 1.13 M77.44 66 C93.05 48.73, 107.85 29.37, 133.87 1.09 M77.44 66 C91.99 49.35, 106.74 32.54, 133.87 1.09 M88.07 65.96 C109.08 39.49, 129.81 17.87, 144.5 1.06 M88.07 65.96 C101.09 52.58, 112.69 37.89, 144.5 1.06 M98.7 65.93 C115.38 46.4, 132.34 27.41, 155.13 1.02 M98.7 65.93 C120.92 40.28, 143.16 13.67, 155.13 1.02 M109.33 65.89 C127.67 47.28, 144.68 25.53, 165.76 0.99 M109.33 65.89 C121.94 50.73, 134.4 35.33, 165.76 0.99 M119.96 65.86 C138.2 45.46, 156.63 24.55, 176.39 0.95 M119.96 65.86 C140.05 43.05, 158.98 19.64, 176.39 0.95 M130.59 65.82 C149.71 47, 166.87 25.99, 187.02 0.92 M130.59 65.82 C144.56 50.63, 156.73 35.09, 187.02 0.92 M140.57 66.54 C158.35 47.55, 175.52 29.73, 197.65 0.88 M140.57 66.54 C161.84 42.51, 183.47 19.82, 197.65 0.88 M151.2 66.51 C170.39 44.83, 187.3 23.58, 208.28 0.85 M151.2 66.51 C167.46 46.9, 183.63 29.25, 208.28 0.85 M161.83 66.47 C183.51 40.66, 208.03 15.53, 218.91 0.82 M161.83 66.47 C184.76 41.6, 206.79 15.37, 218.91 0.82 M172.46 66.44 C187.9 49.57, 200.68 32.57, 229.54 0.78 M172.46 66.44 C190.5 47.08, 207.85 26.57, 229.54 0.78 M183.09 66.41 C197.53 50.35, 211.84 34.22, 239.51 1.5 M183.09 66.41 C205.06 42.15, 225.76 17.21, 239.51 1.5 M193.72 66.37 C213.65 44.07, 233.86 19.61, 250.14 1.47 M193.72 66.37 C214.59 40.3, 236.46 16.66, 250.14 1.47 M204.35 66.34 C215.7 50.16, 228.64 38.91, 260.77 1.43 M204.35 66.34 C217.56 52.03, 229.15 37.53, 260.77 1.43 M214.98 66.3 C228.98 49.35, 243.41 34.75, 271.4 1.4 M214.98 66.3 C231.1 48.41, 246.18 31.44, 271.4 1.4 M225.61 66.27 C245.68 45.64, 265.35 20.92, 282.03 1.36 M225.61 66.27 C237.55 52.83, 250.48 38.59, 282.03 1.36 M236.24 66.23 C252 49.94, 267.12 29.15, 292.66 1.33 M236.24 66.23 C252.1 48.35, 269.25 28.31, 292.66 1.33 M246.87 66.2 C258.84 52.59, 272.75 37.4, 302.63 2.05 M246.87 66.2 C270.31 40.66, 290.78 13.97, 302.63 2.05 M257.5 66.16 C270.61 52.5, 283.61 38.18, 310.64 5.03 M257.5 66.16 C269.14 51.57, 282.37 38.89, 310.64 5.03 M268.13 66.13 C283.04 50.72, 293.52 34.99, 315.37 11.79 M268.13 66.13 C285.65 46.51, 303.08 24.36, 315.37 11.79 M278.76 66.1 C289.76 53.04, 302.57 36.81, 315.5 23.83 M278.76 66.1 C287.94 56.23, 296.84 46.15, 315.5 23.83 M289.39 66.06 C298.92 55.56, 307.2 45.68, 315.63 35.87 M289.39 66.06 C298.53 56.76, 306.89 45.66, 315.63 35.87 M299.36 66.78 C302.67 60.89, 308.26 54.35, 316.42 47.16 M299.36 66.78 C306.5 60.47, 310.85 53.53, 316.42 47.16" stroke="#a5d8ff" stroke-width="1" fill="none"></path><path d="M16.29 0 C89.97 -2.87, 160.18 -2.27, 297.46 0 M16.29 0 C110.37 -1.13, 202.87 -1.59, 297.46 0 M297.46 0 C306.6 -1.84, 312.32 3.56, 313.75 16.29 M297.46 0 C309.37 -1.14, 314.68 4.4, 313.75 16.29 M313.75 16.29 C315.11 23.9, 312.25 29.6, 313.75 48.87 M313.75 16.29 C314.31 22.03, 314.27 30.2, 313.75 48.87 M313.75 48.87 C312.91 60.53, 310.14 65.66, 297.46 65.16 M313.75 48.87 C315.54 61.43, 306.52 63.48, 297.46 65.16 M297.46 65.16 C222.29 65.2, 146.4 64.02, 16.29 65.16 M297.46 65.16 C196.19 66.97, 93.53 67.99, 16.29 65.16 M16.29 65.16 C5.3 63.33, -1.36 60.78, 0 48.87 M16.29 65.16 C4.99 64.94, 0.27 61.96, 0 48.87 M0 48.87 C0.88 38.27, -1.37 27.1, 0 16.29 M0 48.87 C1.15 40.12, 0.23 32.56, 0 16.29 M0 16.29 C1.12 3.86, 4.96 0.9, 16.29 0 M0 16.29 C-1.93 5.65, 4.39 -1.59, 16.29 0" stroke="#1971c2" stroke-width="2" fill="none"></path></g><g transform="translate(208.86067963980713 176.1435198942737) rotate(0 40.016754150390625 19.4944109528156)"><text x="40.016754150390625" y="0" font-family="Virgil, Segoe UI Emoji" font-size="31.191057524504977px" fill="#1971c2" text-anchor="middle" style="white-space: pre;" direction="ltr" dominant-baseline="text-before-edge">c-app</text></g><g stroke-linecap="round" transform="translate(122.21857098582586 235.38409127114642) rotate(0 126.6588628043728 29.89194001479933)"><path d="M3.98 3.46 C3.98 3.46, 3.98 3.46, 3.98 3.46 M3.98 3.46 C3.98 3.46, 3.98 3.46, 3.98 3.46 M0.18 20.03 C5.68 14.16, 12.21 9.56, 17.23 0.4 M0.18 20.03 C6.1 13.31, 11.38 7.46, 17.23 0.4 M0.96 31.31 C8.52 21.34, 17.85 12.52, 27.86 0.37 M0.96 31.31 C8.77 22.25, 17.74 11.04, 27.86 0.37 M1.1 43.35 C8.32 34.48, 17.89 23.35, 38.49 0.34 M1.1 43.35 C11.15 31.63, 22.38 20.95, 38.49 0.34 M2.54 53.89 C14.97 38.95, 26.44 22.85, 48.47 1.06 M2.54 53.89 C20.27 33.99, 36.55 14.52, 48.47 1.06 M9.24 58.38 C25.45 40.69, 40.15 20.38, 59.1 1.02 M9.24 58.38 C22.76 44.15, 36.05 27.68, 59.1 1.02 M18.55 59.85 C26.77 47.91, 40.25 34.44, 69.73 0.99 M18.55 59.85 C30.59 47.67, 41.17 34.87, 69.73 0.99 M29.18 59.82 C47.39 38.77, 63.51 19.73, 80.36 0.95 M29.18 59.82 C44.59 42.33, 61.82 22.56, 80.36 0.95 M39.81 59.79 C52.68 48.64, 62.52 37.24, 90.99 0.92 M39.81 59.79 C58.63 37.87, 76.79 17.39, 90.99 0.92 M50.44 59.75 C62.35 44.19, 76.09 29.71, 101.62 0.88 M50.44 59.75 C68.64 39.59, 86.63 17.58, 101.62 0.88 M61.07 59.72 C79.99 37.55, 102.13 14.38, 112.25 0.85 M61.07 59.72 C72.42 47.22, 83.39 34.45, 112.25 0.85 M71.7 59.68 C89.65 38.28, 110.08 17.75, 122.88 0.81 M71.7 59.68 C86.8 42.37, 103.39 23.92, 122.88 0.81 M82.33 59.65 C99.44 38.62, 117.77 18.16, 133.51 0.78 M82.33 59.65 C99.42 40.4, 117.64 20.55, 133.51 0.78 M92.31 60.37 C109.92 41.28, 126.93 19.21, 144.14 0.75 M92.31 60.37 C105.12 44.9, 118.49 30.34, 144.14 0.75 M102.94 60.33 C117.88 43.87, 136.58 23.91, 154.77 0.71 M102.94 60.33 C121.98 37.58, 141.09 16.83, 154.77 0.71 M113.57 60.3 C129.22 42.11, 141.22 27.01, 165.4 0.68 M113.57 60.3 C126.91 43.65, 141.45 27.94, 165.4 0.68 M124.2 60.26 C144.08 38.01, 163.32 16.72, 176.03 0.64 M124.2 60.26 C139.22 41.54, 155.61 24.79, 176.03 0.64 M134.83 60.23 C148 46.25, 157.54 31.23, 186.66 0.61 M134.83 60.23 C151.58 39.82, 169.68 19.28, 186.66 0.61 M145.46 60.2 C161.05 45, 174.35 26.54, 197.29 0.57 M145.46 60.2 C157.25 48.52, 167.76 35.03, 197.29 0.57 M156.09 60.16 C172.04 40.32, 189.57 22.93, 207.92 0.54 M156.09 60.16 C170.81 43.99, 186.7 25.93, 207.92 0.54 M166.72 60.13 C180.95 45.88, 194.24 29.41, 218.55 0.5 M166.72 60.13 C184 39.86, 199.87 20.03, 218.55 0.5 M177.35 60.09 C187.44 46.09, 201.22 33.82, 228.52 1.22 M177.35 60.09 C189.51 46.18, 201.04 30.69, 228.52 1.22 M187.98 60.06 C206.03 39.79, 224.5 18.17, 239.15 1.19 M187.98 60.06 C205.5 39.09, 224.03 19.01, 239.15 1.19 M198.61 60.02 C213.34 42.4, 228.43 28.66, 247.81 3.42 M198.61 60.02 C215.31 41.68, 232.05 21.41, 247.81 3.42 M209.24 59.99 C222.42 46.11, 234.62 28.29, 252.54 10.18 M209.24 59.99 C223.51 42.74, 238.56 25.13, 252.54 10.18 M219.87 59.95 C233.35 46.01, 244.44 29.45, 252.67 22.22 M219.87 59.95 C228.32 50.47, 237.66 40.66, 252.67 22.22 M230.5 59.92 C238.22 51.53, 242.39 45.05, 252.81 34.26 M230.5 59.92 C236.34 54.15, 241.82 47.44, 252.81 34.26 M241.79 59.13 C244.51 54.94, 247.7 50.81, 252.94 46.3 M241.79 59.13 C244.93 55.09, 247.53 50.93, 252.94 46.3" stroke="#ffc9c9" stroke-width="1" fill="none"></path><path d="M14.95 0 C101.58 0.79, 191.26 0.16, 238.37 0 M14.95 0 C97.39 -1.03, 179.43 -1.72, 238.37 0 M238.37 0 C246.91 -1.87, 254.22 3.99, 253.32 14.95 M238.37 0 C249.26 -1.03, 251.21 4.35, 253.32 14.95 M253.32 14.95 C252.12 24.58, 251.63 34.73, 253.32 44.84 M253.32 14.95 C254 25.48, 253.06 35.29, 253.32 44.84 M253.32 44.84 C255.13 55.31, 249.89 61.27, 238.37 59.78 M253.32 44.84 C251.51 53.12, 247.59 61.79, 238.37 59.78 M238.37 59.78 C177.89 60.19, 119.71 59.06, 14.95 59.78 M238.37 59.78 C149.15 59.77, 60.01 58.19, 14.95 59.78 M14.95 59.78 C3.62 60.83, -0.38 54.61, 0 44.84 M14.95 59.78 C5.26 62.01, 1.37 55.64, 0 44.84 M0 44.84 C-1.4 34.9, -1.28 19.92, 0 14.95 M0 44.84 C-0.31 37.18, 0.3 29.6, 0 14.95 M0 14.95 C-0.47 5.89, 3.3 0.19, 14.95 0 M0 14.95 C-1.04 3.39, 6.31 1.05, 14.95 0" stroke="#e03131" stroke-width="2" fill="none"></path></g><g transform="translate(226.95087434195648 245.78162033313015) rotate(0 21.926559448242188 19.4944109528156)"><text x="21.926559448242188" y="0" font-family="Virgil, Segoe UI Emoji" font-size="31.191057524504977px" fill="#e03131" text-anchor="middle" style="white-space: pre;" direction="ltr" dominant-baseline="text-before-edge">c-p</text></g><g stroke-linecap="round" transform="translate(10 513.2107201390609) rotate(0 238.87743379019867 32.57933813781753)"><path d="M4.34 3.77 C4.34 3.77, 4.34 3.77, 4.34 3.77 M4.34 3.77 C4.34 3.77, 4.34 3.77, 4.34 3.77 M-0.12 21.09 C4.01 15.45, 13.94 5.88, 18.25 -0.04 M-0.12 21.09 C4.84 14.75, 9.81 10.08, 18.25 -0.04 M0.67 32.38 C12.76 19.57, 23.22 9.21, 28.88 -0.07 M0.67 32.38 C8.89 22.45, 17.03 12.15, 28.88 -0.07 M0.8 44.42 C15.34 28.36, 30.51 12.07, 38.85 0.65 M0.8 44.42 C12.7 30.28, 23.74 16.58, 38.85 0.65 M0.93 56.46 C10.67 45.06, 23.62 32, 49.48 0.61 M0.93 56.46 C20.35 35.91, 37.45 14.62, 49.48 0.61 M6.31 62.46 C28.41 39.17, 46.89 15.83, 60.11 0.58 M6.31 62.46 C19.74 45.82, 34.56 29.51, 60.11 0.58 M14.32 65.45 C34.27 40.94, 55.1 16.4, 70.74 0.54 M14.32 65.45 C33.56 43.56, 53.54 20.67, 70.74 0.54 M24.95 65.41 C43.74 42.83, 67.6 18, 81.37 0.51 M24.95 65.41 C38.99 47.96, 52.78 30.85, 81.37 0.51 M35.58 65.38 C49.61 48.34, 65.2 31.05, 92 0.47 M35.58 65.38 C50.36 47.54, 64.78 29.74, 92 0.47 M46.21 65.34 C67.02 41.32, 84.91 18.39, 102.63 0.44 M46.21 65.34 C63.18 44.23, 81.67 24.27, 102.63 0.44 M56.84 65.31 C69.59 47.98, 86.14 31.67, 113.26 0.41 M56.84 65.31 C68.77 51.58, 80.41 38.75, 113.26 0.41 M67.47 65.28 C83.73 49.87, 99.75 30.5, 123.89 0.37 M67.47 65.28 C80.69 49.09, 93.55 33.35, 123.89 0.37 M78.1 65.24 C97.25 41.84, 117.83 15.96, 134.52 0.34 M78.1 65.24 C98.37 41.98, 118.36 17.46, 134.52 0.34 M88.73 65.21 C105.74 46.83, 119.12 29.56, 145.15 0.3 M88.73 65.21 C103.73 47.97, 117.78 31.61, 145.15 0.3 M99.36 65.17 C120.91 41.21, 143.2 16.18, 155.78 0.27 M99.36 65.17 C116.88 44.2, 135.32 25.11, 155.78 0.27 M109.99 65.14 C131.78 41.44, 152.66 14.76, 166.41 0.23 M109.99 65.14 C120.6 50.48, 132.85 37.34, 166.41 0.23 M120.62 65.1 C140.36 42.1, 161.8 21.04, 177.04 0.2 M120.62 65.1 C141.81 38.96, 163.76 14.16, 177.04 0.2 M130.59 65.82 C145.73 46.24, 162.26 28.76, 187.67 0.16 M130.59 65.82 C151.75 40.75, 173.53 15.24, 187.67 0.16 M141.22 65.79 C156.78 51.79, 167.7 34.58, 198.3 0.13 M141.22 65.79 C159.04 44.67, 177.33 24.82, 198.3 0.13 M151.85 65.75 C171.5 45.99, 190.22 24.16, 208.93 0.09 M151.85 65.75 C163.65 50.27, 178.25 34.91, 208.93 0.09 M162.48 65.72 C184.24 42.71, 204.68 18.26, 219.56 0.06 M162.48 65.72 C182.37 42.66, 203.68 19.9, 219.56 0.06 M173.11 65.69 C189.76 47.09, 203.45 28.29, 229.54 0.78 M173.11 65.69 C190.05 48.62, 205.37 30.25, 229.54 0.78 M183.75 65.65 C197.61 50.58, 212.42 31.94, 240.17 0.75 M183.75 65.65 C204.73 41.83, 225.82 18.69, 240.17 0.75 M194.38 65.62 C206.25 51, 220.85 37.99, 250.8 0.71 M194.38 65.62 C206.23 51.97, 217.16 38.37, 250.8 0.71 M205.01 65.58 C219.19 49.95, 234.59 31.26, 261.43 0.68 M205.01 65.58 C224.16 42.4, 244.52 20.11, 261.43 0.68 M215.64 65.55 C229.09 48.13, 244.45 30.27, 272.06 0.64 M215.64 65.55 C237.5 41.14, 258.73 14.69, 272.06 0.64 M226.27 65.51 C246.4 41.62, 266.89 20.19, 282.69 0.61 M226.27 65.51 C243.44 46.24, 259.05 26.9, 282.69 0.61 M236.9 65.48 C257.35 41.86, 279.26 15.88, 293.32 0.57 M236.9 65.48 C255.6 45.39, 274.28 23.4, 293.32 0.57 M247.53 65.44 C262.4 47.47, 278.32 30.29, 303.95 0.54 M247.53 65.44 C265.44 43.71, 285.14 22.94, 303.95 0.54 M258.16 65.41 C280.4 41.33, 298.76 14.78, 314.58 0.5 M258.16 65.41 C270.76 51.44, 283.62 35.37, 314.58 0.5 M268.79 65.38 C278.16 50.82, 292.54 39.77, 325.21 0.47 M268.79 65.38 C290.42 39.81, 313.04 15.1, 325.21 0.47 M279.42 65.34 C300.96 41.77, 320.09 20.05, 335.84 0.44 M279.42 65.34 C293.22 48.96, 308.25 31.06, 335.84 0.44 M290.05 65.31 C305.47 44, 324.6 25.63, 346.47 0.4 M290.05 65.31 C308.72 44.17, 327.98 20.76, 346.47 0.4 M300.68 65.27 C313.34 49.89, 330.21 31.73, 357.1 0.37 M300.68 65.27 C314.56 50.24, 327.72 35.64, 357.1 0.37 M311.31 65.24 C332.08 42.29, 355.26 17.05, 367.73 0.33 M311.31 65.24 C323.94 50.21, 338.14 33.52, 367.73 0.33 M321.94 65.2 C338.59 46.52, 353.12 26.99, 378.36 0.3 M321.94 65.2 C343.09 43.44, 362.52 20.81, 378.36 0.3 M331.91 65.92 C343.31 52.39, 353.59 40.15, 388.99 0.26 M331.91 65.92 C347.77 47.82, 364.11 30.08, 388.99 0.26 M342.54 65.89 C360.32 48.87, 374.51 27.64, 399.62 0.23 M342.54 65.89 C356.66 47.74, 372.31 30.17, 399.62 0.23 M353.17 65.85 C363.78 53.82, 377.65 38.7, 410.25 0.19 M353.17 65.85 C368.2 47.45, 384.15 29.74, 410.25 0.19 M363.8 65.82 C374.8 52.31, 387.13 38.33, 420.88 0.16 M363.8 65.82 C375.04 52.71, 387.6 38.06, 420.88 0.16 M374.43 65.79 C393.38 41.31, 413.11 19.05, 430.85 0.88 M374.43 65.79 C394.14 44.86, 411.16 22.52, 430.85 0.88 M385.06 65.75 C407.85 41.69, 429.91 13.09, 441.48 0.85 M385.06 65.75 C401.95 46.99, 417.34 30.43, 441.48 0.85 M395.69 65.72 C411.48 47.03, 431.06 25.86, 452.11 0.81 M395.69 65.72 C408.92 52.61, 420.78 38.27, 452.11 0.81 M406.32 65.68 C423.57 45.09, 438.77 25.96, 462.74 0.78 M406.32 65.68 C424.64 43.4, 444.52 22.87, 462.74 0.78 M416.95 65.65 C431.39 48.28, 444.29 32.63, 472.06 2.25 M416.95 65.65 C436.74 43.63, 458.39 20.26, 472.06 2.25 M427.58 65.61 C444.97 44.87, 467.3 22.49, 476.79 9.01 M427.58 65.61 C441.75 49.13, 456.3 32.39, 476.79 9.01 M438.21 65.58 C448.06 53.2, 457.15 39.36, 477.57 20.3 M438.21 65.58 C448.63 53.34, 459.81 41.46, 477.57 20.3 M448.84 65.54 C457.29 56.77, 462.72 49.02, 477.71 32.34 M448.84 65.54 C456.22 57.02, 464.09 46.07, 477.71 32.34 M459.47 65.51 C464.24 60.24, 471.68 50.4, 477.84 44.38 M459.47 65.51 C465.29 59.58, 471.31 52.1, 477.84 44.38" stroke="#ffc9c9" stroke-width="1" fill="none"></path><path d="M16.29 0 C178.01 -2.29, 339.16 -1.56, 461.47 0 M16.29 0 C140.69 1.48, 264.89 1.16, 461.47 0 M461.47 0 C472.76 -1.01, 479.33 4.57, 477.75 16.29 M461.47 0 C471.2 -2.02, 479.18 4.93, 477.75 16.29 M477.75 16.29 C479.43 23.35, 477.94 32.28, 477.75 48.87 M477.75 16.29 C477.15 27.69, 478.98 41.29, 477.75 48.87 M477.75 48.87 C477.04 61.48, 470.44 66.07, 461.47 65.16 M477.75 48.87 C475.78 57.48, 474.06 65.33, 461.47 65.16 M461.47 65.16 C358.46 64.49, 256.21 63.65, 16.29 65.16 M461.47 65.16 C303.15 64.95, 144.11 64.57, 16.29 65.16 M16.29 65.16 C4.47 66.37, 0.31 58.43, 0 48.87 M16.29 65.16 C3.44 64.21, 0.87 61.51, 0 48.87 M0 48.87 C-0.79 35.91, -0.99 23.55, 0 16.29 M0 48.87 C-0.06 39.77, -0.37 32.67, 0 16.29 M0 16.29 C-0.9 3.89, 5.5 -0.15, 16.29 0 M0 16.29 C-1.88 4.61, 4.02 2.07, 16.29 0" stroke="#e03131" stroke-width="2" fill="none"></path></g><g transform="translate(226.95087434195648 526.2956473240628) rotate(0 21.926559448242188 19.494410952815613)"><text x="21.926559448242188" y="0" font-family="Virgil, Segoe UI Emoji" font-size="31.191057524504977px" fill="#e03131" text-anchor="middle" style="white-space: pre;" direction="ltr" dominant-baseline="text-before-edge">c-p</text></g><g stroke-linecap="round" transform="translate(46.2941755851125 587.9521694630847) rotate(0 202.5832582050857 32.8613841469778)"><path d="M4.37 3.8 C4.37 3.8, 4.37 3.8, 4.37 3.8 M4.37 3.8 C4.37 3.8, 4.37 3.8, 4.37 3.8 M-0.09 21.13 C7.86 13.21, 11.21 6.47, 18.28 -0.01 M-0.09 21.13 C6.54 14.01, 12.82 6.42, 18.28 -0.01 M0.7 32.41 C9.02 25.08, 15.71 16.35, 28.91 -0.04 M0.7 32.41 C8.48 22.37, 18.65 12.88, 28.91 -0.04 M0.84 44.45 C13.97 31.15, 26.12 16.33, 39.54 -0.08 M0.84 44.45 C14.16 28.11, 27.75 12.01, 39.54 -0.08 M0.97 56.49 C16.14 40.48, 31.18 22.36, 49.52 0.65 M0.97 56.49 C16.93 37.25, 34.39 17.93, 49.52 0.65 M6.35 62.5 C24.36 41.3, 44.51 18.93, 60.15 0.61 M6.35 62.5 C28.49 37.75, 49.71 14.08, 60.15 0.61 M14.36 65.48 C27.13 49.2, 41.67 36.1, 70.78 0.58 M14.36 65.48 C29.13 48.65, 43.2 33.62, 70.78 0.58 M24.99 65.45 C42.17 47.9, 55.13 31.93, 81.41 0.54 M24.99 65.45 C44.43 41.69, 64.89 18.7, 81.41 0.54 M35.62 65.41 C47.31 51.38, 61.03 37.22, 92.04 0.51 M35.62 65.41 C55.56 41.24, 77.15 17.51, 92.04 0.51 M46.25 65.38 C56.75 50.13, 70.92 38.28, 102.67 0.47 M46.25 65.38 C61.56 48.47, 76.83 31.1, 102.67 0.47 M56.22 66.1 C70.19 50.82, 79.21 38.41, 113.3 0.44 M56.22 66.1 C72.14 48.29, 88.33 29.04, 113.3 0.44 M66.85 66.06 C81.94 49.9, 92.51 33.83, 123.93 0.4 M66.85 66.06 C88.16 40.36, 111.58 16.84, 123.93 0.4 M77.48 66.03 C90.23 48.57, 107.53 32.74, 134.56 0.37 M77.48 66.03 C98.74 40.2, 120.33 15.17, 134.56 0.37 M88.11 65.99 C106.41 43.45, 124.62 24.17, 145.19 0.33 M88.11 65.99 C102.63 49.16, 118.4 32.01, 145.19 0.33 M98.74 65.96 C122.1 40.75, 143.39 14.3, 155.82 0.3 M98.74 65.96 C115.72 48.14, 131.75 29.31, 155.82 0.3 M109.37 65.93 C128.32 42.51, 146.74 22.18, 166.45 0.27 M109.37 65.93 C125.56 47.53, 143.38 27.88, 166.45 0.27 M120 65.89 C132.73 53.9, 145.23 39.09, 177.08 0.23 M120 65.89 C142.85 39.57, 165.6 13.57, 177.08 0.23 M130.63 65.86 C146.63 47.21, 165.01 29.99, 187.71 0.2 M130.63 65.86 C150.56 42.51, 171.39 18.45, 187.71 0.2 M141.26 65.82 C154.54 48.49, 171.47 29.89, 198.34 0.16 M141.26 65.82 C164.27 40.49, 186.97 13.24, 198.34 0.16 M151.89 65.79 C165.48 51.29, 175.07 38.54, 208.97 0.13 M151.89 65.79 C175.17 40.21, 197.7 14.21, 208.97 0.13 M162.52 65.75 C178.18 47.96, 192.87 30.02, 219.6 0.09 M162.52 65.75 C181.59 45.37, 198.88 24.43, 219.6 0.09 M173.15 65.72 C193.21 40.4, 214.74 15.29, 230.23 0.06 M173.15 65.72 C185.63 51.11, 197.04 35.93, 230.23 0.06 M183.78 65.68 C198.66 47.03, 216.62 30.51, 240.2 0.78 M183.78 65.68 C198.98 49.47, 212.03 32.36, 240.2 0.78 M194.41 65.65 C208.23 52.75, 218.44 36.2, 250.83 0.74 M194.41 65.65 C210.16 46.47, 226.69 27.36, 250.83 0.74 M205.04 65.61 C222.17 45.12, 241.36 23.52, 261.46 0.71 M205.04 65.61 C222.33 46.21, 239.01 26.49, 261.46 0.71 M215.67 65.58 C227.34 49.99, 243.05 36.23, 272.09 0.68 M215.67 65.58 C236.61 39.87, 258.59 17.32, 272.09 0.68 M226.3 65.55 C248.03 42.96, 267.8 17.65, 282.72 0.64 M226.3 65.55 C246.47 41.32, 268.74 16.35, 282.72 0.64 M236.93 65.51 C251.11 47.88, 266.84 31.64, 293.35 0.61 M236.93 65.51 C251.83 48.31, 265.82 31.8, 293.35 0.61 M246.91 66.23 C268.66 42.26, 289.94 18.97, 303.98 0.57 M246.91 66.23 C269.88 41.68, 291.93 14.75, 303.98 0.57 M257.54 66.2 C277.42 38.94, 299.76 15.58, 314.61 0.54 M257.54 66.2 C270.85 49.75, 284.63 34.3, 314.61 0.54 M268.17 66.16 C283.33 51.57, 297.27 35.78, 325.24 0.5 M268.17 66.16 C286.29 46.4, 305.02 25.77, 325.24 0.5 M278.8 66.13 C297.22 46.53, 313.74 26.23, 335.87 0.47 M278.8 66.13 C292.97 49.2, 306.98 33.31, 335.87 0.47 M289.43 66.09 C312.33 41.02, 335.05 14.79, 346.5 0.43 M289.43 66.09 C306.3 45.51, 323.11 27.06, 346.5 0.43 M300.06 66.06 C320.42 43.59, 337.03 21.07, 357.13 0.4 M300.06 66.06 C317.31 46.95, 335.26 26.88, 357.13 0.4 M310.69 66.02 C327.61 48.94, 340.33 31.32, 367.76 0.36 M310.69 66.02 C330.83 42.59, 349.35 21.31, 367.76 0.36 M321.32 65.99 C339.87 42.36, 362.1 18.56, 378.39 0.33 M321.32 65.99 C336.76 48.65, 350.52 31.14, 378.39 0.33 M331.95 65.96 C343.49 52.18, 357.32 34.58, 389.02 0.3 M331.95 65.96 C344.74 51.94, 356.99 37.71, 389.02 0.3 M342.58 65.92 C355.28 48.7, 370.42 33.15, 397.69 2.53 M342.58 65.92 C360.31 45.37, 376.91 25.98, 397.69 2.53 M353.21 65.89 C364.9 52.95, 373.96 41.67, 403.07 8.53 M353.21 65.89 C372.42 44.13, 389.74 23.52, 403.07 8.53 M363.84 65.85 C372.31 55.48, 379.76 45.85, 405.17 18.31 M363.84 65.85 C373.71 54.03, 383.81 44.15, 405.17 18.31 M374.47 65.82 C381.54 56.01, 392.78 45.68, 405.3 30.35 M374.47 65.82 C379.92 57.58, 388.55 50.34, 405.3 30.35 M385.1 65.78 C391.77 56.87, 396.86 49.66, 405.44 42.39 M385.1 65.78 C391.94 59.11, 398.01 51.5, 405.44 42.39 M396.38 64.99 C398.85 62.86, 400 59.18, 403.6 56.69 M396.38 64.99 C398.26 63.05, 399.54 61.49, 403.6 56.69" stroke="#b2f2bb" stroke-width="1" fill="none"></path><path d="M16.43 0 C164.21 1.04, 313.42 0.64, 388.74 0 M16.43 0 C105.45 -0.85, 194.3 -0.94, 388.74 0 M388.74 0 C401.26 -0.86, 404.19 3.72, 405.17 16.43 M388.74 0 C401.11 -0.5, 404.36 4.12, 405.17 16.43 M405.17 16.43 C405.85 22.16, 407.01 32.39, 405.17 49.29 M405.17 16.43 C405.76 26.3, 404.5 36.16, 405.17 49.29 M405.17 49.29 C403.29 61.16, 397.97 63.77, 388.74 65.72 M405.17 49.29 C406.9 60.42, 398.11 64.84, 388.74 65.72 M388.74 65.72 C299.08 66.71, 208.17 65.85, 16.43 65.72 M388.74 65.72 C285.27 67.01, 182.23 67.48, 16.43 65.72 M16.43 65.72 C5.79 64.42, -1.73 59.42, 0 49.29 M16.43 65.72 C6.35 67.51, 1.34 60.63, 0 49.29 M0 49.29 C-0.82 34.67, -0.82 24.22, 0 16.43 M0 49.29 C-0.33 38.22, -0.44 25.83, 0 16.43 M0 16.43 C0.07 5.32, 3.84 -0.72, 16.43 0 M0 16.43 C-1.41 7.55, 3.21 0.66, 16.43 0" stroke="#2f9e44" stroke-width="2" fill="none"></path></g><g transform="translate(241.04874421500244 601.3191426572469) rotate(0 7.8286895751953125 19.494410952815613)"><text x="7.8286895751953125" y="0" font-family="Virgil, Segoe UI Emoji" font-size="31.191057524504977px" fill="#2f9e44" text-anchor="middle" style="white-space: pre;" direction="ltr" dominant-baseline="text-before-edge">c</text></g><g stroke-linecap="round" transform="translate(92.00026226678256 666.2693128483328) rotate(0 156.8771715234161 32.57933813781756)"><path d="M4.34 3.77 C4.34 3.77, 4.34 3.77, 4.34 3.77 M4.34 3.77 C4.34 3.77, 4.34 3.77, 4.34 3.77 M2.5 18.07 C7.12 10.9, 14.41 5.51, 17.59 0.72 M2.5 18.07 C6.27 13.69, 8.26 11.57, 17.59 0.72 M2.63 30.12 C9.49 23.24, 16.19 13.66, 28.22 0.68 M2.63 30.12 C11.57 21.21, 18.84 12.09, 28.22 0.68 M2.77 42.16 C15.12 28.69, 28.38 14.29, 38.85 0.65 M2.77 42.16 C11.76 30.74, 22 19.58, 38.85 0.65 M0.93 56.46 C19.4 35.29, 35.94 18.72, 49.48 0.61 M0.93 56.46 C18.67 36.79, 35.29 18.24, 49.48 0.61 M6.31 62.46 C24.61 42.41, 46.03 19.01, 59.45 1.33 M6.31 62.46 C22.43 44.93, 36.97 25.71, 59.45 1.33 M13.66 66.2 C29.17 50.57, 41.79 33.5, 70.08 1.3 M13.66 66.2 C31.26 47.16, 47.66 25.71, 70.08 1.3 M24.29 66.17 C43.28 44.6, 65.57 19.64, 80.71 1.26 M24.29 66.17 C38.88 49.33, 52.87 32.46, 80.71 1.26 M34.92 66.13 C52.47 46.8, 72.09 25.48, 91.34 1.23 M34.92 66.13 C51.86 47.26, 66.57 29.73, 91.34 1.23 M45.55 66.1 C58.83 52.87, 70.18 36.26, 101.97 1.19 M45.55 66.1 C59.56 50.11, 73.37 32.8, 101.97 1.19 M56.18 66.07 C66.38 52.21, 80.26 37.94, 112.61 1.16 M56.18 66.07 C72.35 47.05, 88.32 28.71, 112.61 1.16 M66.81 66.03 C87.08 40.25, 112.12 14.63, 123.24 1.13 M66.81 66.03 C83.08 50.12, 96.84 31.19, 123.24 1.13 M77.44 66 C97.93 44.35, 117 23.04, 133.87 1.09 M77.44 66 C96.96 42.87, 117.25 21.99, 133.87 1.09 M88.07 65.96 C101.36 51.46, 115.4 35.39, 144.5 1.06 M88.07 65.96 C103.05 49.78, 117.34 33.41, 144.5 1.06 M98.7 65.93 C118.72 42.39, 138.33 19.2, 155.13 1.02 M98.7 65.93 C110.71 52.13, 122.08 38.84, 155.13 1.02 M109.33 65.89 C128.53 43.84, 150.69 16.4, 165.76 0.99 M109.33 65.89 C123.05 50.64, 134.16 36.53, 165.76 0.99 M119.96 65.86 C136.57 47.88, 152.06 29.49, 176.39 0.95 M119.96 65.86 C133.07 50.63, 146.26 35.35, 176.39 0.95 M130.59 65.82 C145.66 51.7, 158.26 34.38, 187.02 0.92 M130.59 65.82 C151.33 41.75, 172.23 18.75, 187.02 0.92 M140.57 66.54 C163.77 40.15, 187.9 14.26, 197.65 0.88 M140.57 66.54 C157.92 45.86, 174.17 26.91, 197.65 0.88 M151.2 66.51 C168.83 45.7, 191.45 19.76, 208.28 0.85 M151.2 66.51 C170.49 44.48, 188.44 23.42, 208.28 0.85 M161.83 66.47 C180.45 44.51, 197.72 23.94, 218.91 0.82 M161.83 66.47 C179.14 45.93, 197.99 25.6, 218.91 0.82 M172.46 66.44 C188.89 45.92, 204.38 30.07, 229.54 0.78 M172.46 66.44 C190.92 43.35, 210.36 21.5, 229.54 0.78 M183.09 66.41 C206.05 43.03, 225.15 18.72, 239.51 1.5 M183.09 66.41 C197.66 48.15, 213.49 29.16, 239.51 1.5 M193.72 66.37 C208.23 46.72, 226.53 28.02, 250.14 1.47 M193.72 66.37 C208.91 48.38, 224.59 31.02, 250.14 1.47 M204.35 66.34 C226.97 40.26, 247.41 15.22, 260.77 1.43 M204.35 66.34 C217.45 50.5, 230.37 34.87, 260.77 1.43 M214.98 66.3 C232.16 48.72, 247.09 32.26, 271.4 1.4 M214.98 66.3 C237.17 43.05, 258.81 17.66, 271.4 1.4 M225.61 66.27 C241.09 47.68, 258.55 30.4, 282.03 1.36 M225.61 66.27 C245.26 44.17, 262.6 22.86, 282.03 1.36 M236.24 66.23 C255.81 44.44, 273.26 23.45, 292.66 1.33 M236.24 66.23 C257.8 41.21, 280.88 15.3, 292.66 1.33 M246.87 66.2 C264.07 48.3, 281.93 26.97, 302.63 2.05 M246.87 66.2 C265.21 44.26, 283.41 24.5, 302.63 2.05 M257.5 66.16 C274.07 46.67, 291.6 25.54, 310.64 5.03 M257.5 66.16 C277.69 42.92, 298.62 17.89, 310.64 5.03 M268.13 66.13 C279.52 54.51, 287.79 42.1, 315.37 11.79 M268.13 66.13 C283.28 49.97, 297.34 33.43, 315.37 11.79 M278.76 66.1 C288.36 55.57, 298.61 40.91, 315.5 23.83 M278.76 66.1 C290.73 52.1, 303.53 37.9, 315.5 23.83 M289.39 66.06 C296.39 58.07, 301.83 50.38, 315.63 35.87 M289.39 66.06 C298.88 55.16, 309.47 42.88, 315.63 35.87 M299.36 66.78 C304.19 58.48, 311.76 52.99, 316.42 47.16 M299.36 66.78 C305.68 60.97, 310.11 53.76, 316.42 47.16" stroke="#b2f2bb" stroke-width="1" fill="none"></path><path d="M16.29 0 C96.84 -0.89, 177.09 -0.82, 297.46 0 M16.29 0 C108.56 0.4, 201.11 0.45, 297.46 0 M297.46 0 C307.35 -1.76, 314.99 4.99, 313.75 16.29 M297.46 0 C307.51 -1.36, 311.75 7.57, 313.75 16.29 M313.75 16.29 C315.36 25.49, 313.55 28.89, 313.75 48.87 M313.75 16.29 C313.69 24.06, 313.11 30.55, 313.75 48.87 M313.75 48.87 C312.03 57.78, 309.83 65.31, 297.46 65.16 M313.75 48.87 C312.18 58.85, 307.02 65.18, 297.46 65.16 M297.46 65.16 C197.66 63.08, 95.79 65.24, 16.29 65.16 M297.46 65.16 C195.66 65.26, 94.7 64.3, 16.29 65.16 M16.29 65.16 C3.7 64.33, 0.76 61.28, 0 48.87 M16.29 65.16 C6.77 65.54, 1.95 58.89, 0 48.87 M0 48.87 C-0.79 41.41, 1.06 33.5, 0 16.29 M0 48.87 C-0.34 41.13, 0.14 34.85, 0 16.29 M0 16.29 C-1.63 4.71, 4.21 1.8, 16.29 0 M0 16.29 C-2.26 6.09, 3.3 0.66, 16.29 0" stroke="#2f9e44" stroke-width="2" fill="none"></path></g><g transform="translate(240.40935517691742 679.3542400333347) rotate(0 8.46807861328125 19.494410952815613)"><text x="8.46807861328125" y="0" font-family="Virgil, Segoe UI Emoji" font-size="31.191057524504977px" fill="#2f9e44" text-anchor="middle" style="white-space: pre;" direction="ltr" dominant-baseline="text-before-edge">s</text></g><g stroke-linecap="round" transform="translate(122.21857098582586 738.5948114102073) rotate(0 126.6588628043728 29.891940014799346)"><path d="M3.98 3.46 C3.98 3.46, 3.98 3.46, 3.98 3.46 M3.98 3.46 C3.98 3.46, 3.98 3.46, 3.98 3.46 M2.8 17.01 C7.06 13.48, 8.08 10.05, 16.58 1.16 M2.8 17.01 C6.09 13.4, 9.85 8.99, 16.58 1.16 M2.93 29.05 C11.72 18.25, 20.6 7.06, 27.21 1.13 M2.93 29.05 C9.68 21.28, 16.57 13.83, 27.21 1.13 M3.07 41.09 C16.88 26.98, 27.66 10.92, 37.84 1.09 M3.07 41.09 C12.01 30.52, 21.36 21.51, 37.84 1.09 M3.2 53.13 C18.45 38.29, 33.4 19.24, 48.47 1.06 M3.2 53.13 C17 38.14, 30.48 21.3, 48.47 1.06 M7.92 59.89 C29.73 36.81, 47.43 15.83, 59.1 1.02 M7.92 59.89 C21.14 42.86, 35.67 26.39, 59.1 1.02 M15.93 62.87 C27.04 48.67, 40.58 35.7, 69.73 0.99 M15.93 62.87 C28.34 46.62, 42.36 33.03, 69.73 0.99 M26.56 62.84 C44.74 43.3, 59.51 22.54, 79.7 1.71 M26.56 62.84 C37.43 49.12, 49.76 36.03, 79.7 1.71 M36.53 63.56 C56.05 42.71, 72.49 20.7, 90.33 1.67 M36.53 63.56 C48.13 49.5, 60.91 33.83, 90.33 1.67 M47.16 63.52 C58.11 48.09, 69.41 35.47, 100.96 1.64 M47.16 63.52 C64.63 42.02, 82.71 22.52, 100.96 1.64 M57.79 63.49 C69.63 50.14, 81.34 36.23, 111.59 1.6 M57.79 63.49 C77.61 40.66, 99.38 17.73, 111.59 1.6 M68.42 63.46 C86.75 44.33, 100.65 24.61, 122.22 1.57 M68.42 63.46 C79.83 48.01, 93.04 33.49, 122.22 1.57 M79.05 63.42 C93.88 47.63, 106.91 31.41, 132.85 1.53 M79.05 63.42 C91.71 50.72, 103.02 35.99, 132.85 1.53 M89.68 63.39 C102.3 49.3, 115.21 32.81, 143.48 1.5 M89.68 63.39 C106.83 44.17, 123.25 25.36, 143.48 1.5 M100.31 63.35 C118 42.46, 134.66 23.44, 154.11 1.47 M100.31 63.35 C117.2 43.99, 134.41 24.13, 154.11 1.47 M110.94 63.32 C125.9 43.99, 139.31 27.33, 164.74 1.43 M110.94 63.32 C126.06 44.51, 143.12 26.39, 164.74 1.43 M121.58 63.28 C142.54 39.83, 158.77 17.96, 175.37 1.4 M121.58 63.28 C134.67 47.84, 147.32 33.01, 175.37 1.4 M132.21 63.25 C147.74 44.59, 162.8 26.83, 186 1.36 M132.21 63.25 C151.35 42.03, 171.75 18.51, 186 1.36 M142.84 63.21 C162.79 42.09, 178.98 22.07, 196.63 1.33 M142.84 63.21 C162.2 40.6, 183.74 17.44, 196.63 1.33 M153.47 63.18 C171.96 42.1, 187.05 26.02, 207.26 1.29 M153.47 63.18 C170.18 43.76, 188.19 23.65, 207.26 1.29 M164.1 63.15 C178.59 45.52, 193.02 31.33, 217.89 1.26 M164.1 63.15 C183.65 42.06, 201.54 19.57, 217.89 1.26 M174.73 63.11 C186.83 49.58, 202.83 33.45, 228.52 1.22 M174.73 63.11 C190.38 44.98, 207.04 27.1, 228.52 1.22 M185.36 63.08 C199.31 46.47, 214.92 29.7, 239.15 1.19 M185.36 63.08 C204.1 40.56, 223.81 19.48, 239.15 1.19 M195.99 63.04 C216.3 40.49, 235.84 16.12, 247.16 4.17 M195.99 63.04 C209.06 48.12, 222.53 33.67, 247.16 4.17 M205.96 63.76 C220 45.81, 233.07 30.83, 253.2 9.42 M205.96 63.76 C217.83 48.8, 230.72 34.68, 253.2 9.42 M216.59 63.73 C226.33 54.19, 235.01 43.71, 253.33 21.46 M216.59 63.73 C224.92 54.65, 231.9 45.79, 253.33 21.46 M227.22 63.69 C238.34 53.7, 247.12 40.51, 253.46 33.5 M227.22 63.69 C234.7 53.84, 243.62 44.76, 253.46 33.5 M239.82 61.39 C242.71 57.35, 249.11 53.49, 254.25 44.79 M239.82 61.39 C245.12 56.05, 248.95 51.15, 254.25 44.79" stroke="#ffc9c9" stroke-width="1" fill="none"></path><path d="M14.95 0 C94.8 0.02, 177.24 -0.13, 238.37 0 M14.95 0 C74.52 0.6, 132.31 0.22, 238.37 0 M238.37 0 C249.57 -0.44, 252.61 3.8, 253.32 14.95 M238.37 0 C246.33 2.14, 251.52 5.42, 253.32 14.95 M253.32 14.95 C253.29 20.18, 251.78 30.91, 253.32 44.84 M253.32 14.95 C252.27 25.68, 252.35 34.52, 253.32 44.84 M253.32 44.84 C254.82 54.95, 246.96 59.02, 238.37 59.78 M253.32 44.84 C252.02 54.82, 249.67 61.61, 238.37 59.78 M238.37 59.78 C177.01 58.66, 117.49 56.89, 14.95 59.78 M238.37 59.78 C175.25 60.39, 111.11 60.59, 14.95 59.78 M14.95 59.78 C5.74 61.34, 1.16 55.13, 0 44.84 M14.95 59.78 C6.93 58.94, -1.49 53.73, 0 44.84 M0 44.84 C1.05 38.8, -1.58 32.17, 0 14.95 M0 44.84 C0.17 34.97, -0.68 24.9, 0 14.95 M0 14.95 C-1.22 6.78, 3.01 0.57, 14.95 0 M0 14.95 C-2.13 5.65, 6.94 0.37, 14.95 0" stroke="#e03131" stroke-width="2" fill="none"></path></g><g transform="translate(226.31148530387054 748.992340472191) rotate(0 22.565948486328125 19.49441095281561)"><text x="22.565948486328125" y="0" font-family="Virgil, Segoe UI Emoji" font-size="31.191057524504977px" fill="#e03131" text-anchor="middle" style="white-space: pre;" direction="ltr" dominant-baseline="text-before-edge">s-p</text></g><g stroke-linecap="round" transform="translate(650.4138762966377 95.30841309056984) rotate(0 202.5832582050857 32.8613841469778)"><path d="M4.37 3.8 C4.37 3.8, 4.37 3.8, 4.37 3.8 M4.37 3.8 C4.37 3.8, 4.37 3.8, 4.37 3.8 M-0.09 21.13 C7.32 13, 14.47 6.47, 18.28 -0.01 M-0.09 21.13 C4.76 13.56, 11.9 7.01, 18.28 -0.01 M0.7 32.41 C8.95 24.09, 13.25 17, 28.91 -0.04 M0.7 32.41 C12.35 20.48, 22.83 7.02, 28.91 -0.04 M0.84 44.45 C17.22 25.11, 30.85 8.74, 39.54 -0.08 M0.84 44.45 C10.54 32.3, 21.8 21.52, 39.54 -0.08 M0.97 56.49 C18.84 34.31, 39.37 15.09, 49.52 0.65 M0.97 56.49 C15.76 38.8, 30.51 21.47, 49.52 0.65 M6.35 62.5 C16.22 48.74, 27.62 36.8, 60.15 0.61 M6.35 62.5 C20.59 46.15, 34.37 28.36, 60.15 0.61 M14.36 65.48 C29.32 48.81, 41.27 33.87, 70.78 0.58 M14.36 65.48 C32.04 44.23, 49.98 24.21, 70.78 0.58 M24.99 65.45 C46.32 41.02, 64.22 17.23, 81.41 0.54 M24.99 65.45 C42.04 46.35, 60.96 25.36, 81.41 0.54 M35.62 65.41 C46.05 49.29, 59.1 36.17, 92.04 0.51 M35.62 65.41 C57.55 41, 78.18 15.2, 92.04 0.51 M46.25 65.38 C67.98 38.49, 92.9 12.42, 102.67 0.47 M46.25 65.38 C61.19 48.12, 76.11 30.74, 102.67 0.47 M56.22 66.1 C73.46 45.7, 88.2 27.42, 113.3 0.44 M56.22 66.1 C69.84 51.51, 81.24 36.83, 113.3 0.44 M66.85 66.06 C79.24 50.58, 91.7 39.5, 123.93 0.4 M66.85 66.06 C79.58 50.27, 94.09 36.26, 123.93 0.4 M77.48 66.03 C95.18 45.16, 114.99 24.04, 134.56 0.37 M77.48 66.03 C91.9 49.13, 105.4 34.64, 134.56 0.37 M88.11 65.99 C107.09 44.46, 124.47 27.31, 145.19 0.33 M88.11 65.99 C99.65 51.42, 112.21 38.32, 145.19 0.33 M98.74 65.96 C117.97 42.88, 133.95 24.07, 155.82 0.3 M98.74 65.96 C119.39 41.93, 139.7 18.38, 155.82 0.3 M109.37 65.93 C124.03 45.93, 142.02 29.37, 166.45 0.27 M109.37 65.93 C120.3 53.56, 131.7 39.13, 166.45 0.27 M120 65.89 C141.34 43.18, 163.03 15.39, 177.08 0.23 M120 65.89 C141.6 40.04, 164.88 13.08, 177.08 0.23 M130.63 65.86 C153.94 40.07, 176.51 15.26, 187.71 0.2 M130.63 65.86 C150.28 44.78, 170.08 21.6, 187.71 0.2 M141.26 65.82 C161.27 42.31, 182.36 22.15, 198.34 0.16 M141.26 65.82 C157.25 46.39, 174.65 27.63, 198.34 0.16 M151.89 65.79 C171.65 44.22, 190.49 19.48, 208.97 0.13 M151.89 65.79 C169.58 43.38, 190.25 22.15, 208.97 0.13 M162.52 65.75 C182.78 45.11, 203.36 20.48, 219.6 0.09 M162.52 65.75 C177.82 48.46, 194.7 30.11, 219.6 0.09 M173.15 65.72 C194.15 41.1, 211.46 19.58, 230.23 0.06 M173.15 65.72 C184.92 50.08, 197.88 36.83, 230.23 0.06 M183.78 65.68 C197.91 49.13, 214 31.77, 240.2 0.78 M183.78 65.68 C201.16 45.02, 219.52 23.48, 240.2 0.78 M194.41 65.65 C209.97 48.78, 225.17 32.16, 250.83 0.74 M194.41 65.65 C208.95 48.59, 222.8 32.79, 250.83 0.74 M205.04 65.61 C217.48 49.59, 231.8 33.88, 261.46 0.71 M205.04 65.61 C218.39 48.91, 233.99 32.88, 261.46 0.71 M215.67 65.58 C228.33 53.48, 238.01 40.13, 272.09 0.68 M215.67 65.58 C235.35 41.04, 258.1 17.79, 272.09 0.68 M226.3 65.55 C239.01 48.59, 254.19 36.48, 282.72 0.64 M226.3 65.55 C241.99 48.35, 258.44 29.66, 282.72 0.64 M236.93 65.51 C258.79 42.02, 277.63 17.14, 293.35 0.61 M236.93 65.51 C254.7 44.7, 273.06 23.09, 293.35 0.61 M246.91 66.23 C268.69 42.28, 293.81 14.36, 303.98 0.57 M246.91 66.23 C258.92 51.66, 271.23 38.67, 303.98 0.57 M257.54 66.2 C267.63 51.43, 279.63 38.45, 314.61 0.54 M257.54 66.2 C280.63 39.86, 301.56 15.1, 314.61 0.54 M268.17 66.16 C287.84 47.32, 304.89 25.88, 325.24 0.5 M268.17 66.16 C284.91 46.35, 301.81 26.62, 325.24 0.5 M278.8 66.13 C292.1 50.12, 308.21 31.6, 335.87 0.47 M278.8 66.13 C291.97 50.76, 304.9 37.08, 335.87 0.47 M289.43 66.09 C308.96 44.39, 329.79 16.97, 346.5 0.43 M289.43 66.09 C310.18 42.43, 331.6 18.08, 346.5 0.43 M300.06 66.06 C316.82 45.68, 338.09 22.76, 357.13 0.4 M300.06 66.06 C311.86 51.89, 324.2 36.89, 357.13 0.4 M310.69 66.02 C331.94 42.1, 352.95 16.22, 367.76 0.36 M310.69 66.02 C324.69 48.98, 339.71 33.14, 367.76 0.36 M321.32 65.99 C337.24 49.51, 352.3 31.51, 378.39 0.33 M321.32 65.99 C342.31 43.74, 363.35 19.84, 378.39 0.33 M331.95 65.96 C342.35 52.49, 355.37 40.22, 389.02 0.3 M331.95 65.96 C345.29 49.93, 358.76 34.2, 389.02 0.3 M342.58 65.92 C365.03 43.32, 384.13 18.17, 397.69 2.53 M342.58 65.92 C360.63 45.06, 378.72 22.98, 397.69 2.53 M353.21 65.89 C365.87 52.04, 379.64 35.92, 403.07 8.53 M353.21 65.89 C371.49 44.9, 388.09 25.74, 403.07 8.53 M363.84 65.85 C377.54 52.21, 386.85 38.31, 405.17 18.31 M363.84 65.85 C373.77 53.19, 384.77 42.17, 405.17 18.31 M374.47 65.82 C381.81 56.31, 388.28 49.21, 405.3 30.35 M374.47 65.82 C383.7 55.67, 393.25 43.7, 405.3 30.35 M385.1 65.78 C389.53 61.75, 394.27 54.8, 405.44 42.39 M385.1 65.78 C391.32 58.57, 397.31 50.75, 405.44 42.39 M396.38 64.99 C397.38 62.74, 399.17 60.65, 403.6 56.69 M396.38 64.99 C398.86 61.73, 400.94 59.87, 403.6 56.69" stroke="#a5d8ff" stroke-width="1" fill="none"></path><path d="M16.43 0 C158.83 -3.14, 304.04 -3.03, 388.74 0 M16.43 0 C140.49 1.81, 263.95 1.72, 388.74 0 M388.74 0 C399.52 -1.33, 405.15 5.23, 405.17 16.43 M388.74 0 C400.68 0.27, 407.11 3.37, 405.17 16.43 M405.17 16.43 C403.05 25.12, 406.63 35.59, 405.17 49.29 M405.17 16.43 C405.88 22.97, 405.8 31.01, 405.17 49.29 M405.17 49.29 C406.79 59.52, 399.69 65.63, 388.74 65.72 M405.17 49.29 C404.71 59.17, 399.44 65.93, 388.74 65.72 M388.74 65.72 C315.05 68.36, 239.63 67.08, 16.43 65.72 M388.74 65.72 C302.07 67.64, 214.18 67.28, 16.43 65.72 M16.43 65.72 C4.65 65.96, 0.08 62.19, 0 49.29 M16.43 65.72 C6.45 63.83, 1.28 61.46, 0 49.29 M0 49.29 C1.69 39.3, -1.48 25.35, 0 16.43 M0 49.29 C-0.08 39.03, -1.18 29.16, 0 16.43 M0 16.43 C-0.6 4.93, 4.26 -0.14, 16.43 0 M0 16.43 C-1.35 6.75, 7.38 -0.25, 16.43 0" stroke="#1971c2" stroke-width="2" fill="none"></path></g><g transform="translate(812.3409913132464 108.67538628473199) rotate(0 40.65614318847656 19.4944109528156)"><text x="40.65614318847656" y="0" font-family="Virgil, Segoe UI Emoji" font-size="31.191057524504977px" fill="#1971c2" text-anchor="middle" style="white-space: pre;" direction="ltr" dominant-baseline="text-before-edge">s-app</text></g><g stroke-linecap="round" transform="translate(696.1199629783086 173.62555647581803) rotate(0 156.8771715234161 32.57933813781756)"><path d="M4.34 3.77 C4.34 3.77, 4.34 3.77, 4.34 3.77 M4.34 3.77 C4.34 3.77, 4.34 3.77, 4.34 3.77 M-0.12 21.09 C5.15 14.57, 10.99 7.34, 18.25 -0.04 M-0.12 21.09 C2.94 17.74, 7.21 13.41, 18.25 -0.04 M0.67 32.38 C9.46 22.98, 14.62 17.41, 28.22 0.68 M0.67 32.38 C10.94 21.39, 18.87 11.31, 28.22 0.68 M0.8 44.42 C8.3 35.37, 15.04 25.02, 38.85 0.65 M0.8 44.42 C10.19 34.37, 17.74 23.82, 38.85 0.65 M0.93 56.46 C13.61 40.31, 24.77 25.71, 49.48 0.61 M0.93 56.46 C11.13 43.96, 22.81 31.38, 49.48 0.61 M6.31 62.46 C20.93 47.51, 35.78 29.16, 60.11 0.58 M6.31 62.46 C24.61 41.5, 44.44 20.93, 60.11 0.58 M14.32 65.45 C30.26 47.8, 47.04 29.27, 70.74 0.54 M14.32 65.45 C32.17 45.55, 49.05 26.53, 70.74 0.54 M24.95 65.41 C39.86 49.3, 52.49 31.94, 81.37 0.51 M24.95 65.41 C43.69 42.23, 65.11 18.14, 81.37 0.51 M35.58 65.38 C48.94 53.2, 57.78 40.3, 92 0.47 M35.58 65.38 C55.9 44.07, 74.3 21.86, 92 0.47 M46.21 65.34 C60.08 49.29, 76.06 31.6, 102.63 0.44 M46.21 65.34 C62.27 46.99, 78.57 28.15, 102.63 0.44 M56.84 65.31 C68.61 52.45, 81.7 37.94, 113.26 0.41 M56.84 65.31 C74.99 43.03, 94.2 22.21, 113.26 0.41 M67.47 65.28 C79.56 48.15, 95.99 32.53, 123.89 0.37 M67.47 65.28 C82.07 47.61, 96.49 30.26, 123.89 0.37 M78.1 65.24 C93.44 44.39, 112.49 26.69, 134.52 0.34 M78.1 65.24 C92.19 49.21, 104.87 33.92, 134.52 0.34 M88.73 65.21 C97.96 50.41, 112.41 37.19, 145.15 0.3 M88.73 65.21 C100.48 51.93, 112.98 38.81, 145.15 0.3 M99.36 65.17 C113.77 51.16, 125.54 35.98, 155.78 0.27 M99.36 65.17 C116.81 45.88, 134.02 24.59, 155.78 0.27 M109.99 65.14 C120.93 51.17, 135.37 34.53, 166.41 0.23 M109.99 65.14 C131.5 42.21, 150.64 18.06, 166.41 0.23 M119.96 65.86 C144.12 40.92, 163.67 13.16, 177.04 0.2 M119.96 65.86 C137.87 46.68, 154.83 28.16, 177.04 0.2 M130.59 65.82 C147.48 45.14, 162.85 27.18, 187.67 0.16 M130.59 65.82 C152.23 41.17, 172.49 16.41, 187.67 0.16 M141.22 65.79 C154.5 49.51, 166.67 31.79, 198.3 0.13 M141.22 65.79 C156.29 50.19, 170.81 32.99, 198.3 0.13 M151.85 65.75 C174.75 42.17, 194.37 13.49, 208.93 0.09 M151.85 65.75 C163.42 52.04, 174.2 39.25, 208.93 0.09 M162.48 65.72 C184.15 40.04, 205.35 12.92, 218.91 0.82 M162.48 65.72 C183.53 40.98, 203.93 18.08, 218.91 0.82 M173.11 65.69 C184.59 53.11, 197.36 35.93, 229.54 0.78 M173.11 65.69 C184.72 52.93, 196.81 38.8, 229.54 0.78 M183.75 65.65 C202.76 43.75, 219.97 20.31, 240.17 0.75 M183.75 65.65 C200.69 46.15, 217.89 27.46, 240.17 0.75 M194.38 65.62 C211.49 44.12, 229.76 23.41, 250.8 0.71 M194.38 65.62 C208.41 49.37, 222.55 32.36, 250.8 0.71 M205.01 65.58 C222.02 46.01, 238.68 23.53, 261.43 0.68 M205.01 65.58 C218.32 48.89, 233.38 33.01, 261.43 0.68 M215.64 65.55 C236.3 45.25, 252.22 19.97, 272.06 0.64 M215.64 65.55 C226.47 51.77, 239.98 37.42, 272.06 0.64 M226.27 65.51 C238.19 48.31, 250.62 34.67, 282.69 0.61 M226.27 65.51 C243.78 45.44, 260.53 26.26, 282.69 0.61 M236.9 65.48 C256.87 44.04, 273.18 20.76, 293.32 0.57 M236.9 65.48 C254.82 47.29, 269.6 27.61, 293.32 0.57 M247.53 65.44 C266.96 38.98, 291.77 14.11, 303.29 1.29 M247.53 65.44 C262.93 47.47, 280.62 27.57, 303.29 1.29 M258.16 65.41 C275.41 47.46, 290.48 32.25, 309.98 5.79 M258.16 65.41 C272.41 48.17, 286.09 34.01, 309.98 5.79 M268.79 65.38 C283.04 46.77, 299.9 30.58, 313.4 14.06 M268.79 65.38 C280.61 52.87, 292.51 37.11, 313.4 14.06 M279.42 65.34 C291.87 47.73, 307.29 33.25, 313.53 26.1 M279.42 65.34 C288.71 55.51, 295.84 44.84, 313.53 26.1 M290.05 65.31 C300.5 55.03, 308.09 44.74, 313.66 38.14 M290.05 65.31 C297.41 57.99, 304.51 47.92, 313.66 38.14 M301.33 64.52 C304.48 59.05, 311.7 52.32, 313.8 50.18 M301.33 64.52 C306.52 59.1, 309.38 54.27, 313.8 50.18" stroke="#a5d8ff" stroke-width="1" fill="none"></path><path d="M16.29 0 C74.09 1.49, 129.42 2.25, 297.46 0 M16.29 0 C82.48 1.18, 148.78 1.59, 297.46 0 M297.46 0 C309.18 0.23, 315.44 3.6, 313.75 16.29 M297.46 0 C307.5 -1.78, 315.73 3.29, 313.75 16.29 M313.75 16.29 C312.52 25.1, 315.81 37.59, 313.75 48.87 M313.75 16.29 C314.83 23.03, 314.01 30.45, 313.75 48.87 M313.75 48.87 C313.36 58.8, 308.11 65.34, 297.46 65.16 M313.75 48.87 C311.47 61.95, 310.16 67.02, 297.46 65.16 M297.46 65.16 C193.28 63.01, 92.15 65.69, 16.29 65.16 M297.46 65.16 C196.26 65.27, 95.72 65.92, 16.29 65.16 M16.29 65.16 C6.28 63.51, 1.11 60.78, 0 48.87 M16.29 65.16 C6.81 64.41, -0.17 61.55, 0 48.87 M0 48.87 C0.41 37.61, 0.31 23.65, 0 16.29 M0 48.87 C0 39.35, -0.31 30.31, 0 16.29 M0 16.29 C-1.18 6.54, 7.09 -0.22, 16.29 0 M0 16.29 C-1.54 3.83, 3.31 2.06, 16.29 0" stroke="#1971c2" stroke-width="2" fill="none"></path></g><g transform="translate(812.9803803513341 186.71048366081993) rotate(0 40.016754150390625 19.4944109528156)"><text x="40.016754150390625" y="0" font-family="Virgil, Segoe UI Emoji" font-size="31.191057524504977px" fill="#1971c2" text-anchor="middle" style="white-space: pre;" direction="ltr" dominant-baseline="text-before-edge">c-app</text></g><g stroke-linecap="round" transform="translate(650.4138762966377 435.3606597024011) rotate(0 202.5832582050857 32.8613841469778)"><path d="M4.37 3.8 C4.37 3.8, 4.37 3.8, 4.37 3.8 M4.37 3.8 C4.37 3.8, 4.37 3.8, 4.37 3.8 M-0.09 21.13 C4.48 15, 11.47 8.27, 18.28 -0.01 M-0.09 21.13 C5.38 14.38, 11.21 8.68, 18.28 -0.01 M0.7 32.41 C6.66 24.12, 13.97 16.5, 28.91 -0.04 M0.7 32.41 C7.05 26.34, 13.22 19.53, 28.91 -0.04 M0.84 44.45 C12.35 34.24, 22.03 19.55, 39.54 -0.08 M0.84 44.45 C9.18 33.69, 17.89 23.73, 39.54 -0.08 M0.97 56.49 C14.76 39.76, 31.31 23.68, 49.52 0.65 M0.97 56.49 C14.07 39.8, 28.05 24.33, 49.52 0.65 M6.35 62.5 C25.98 39.38, 47.17 15.83, 60.15 0.61 M6.35 62.5 C26.96 39.26, 48.82 14.6, 60.15 0.61 M14.36 65.48 C32.46 41.71, 53.4 20.58, 70.78 0.58 M14.36 65.48 C28.31 50.28, 39.14 35.93, 70.78 0.58 M24.99 65.45 C43.56 43.21, 64.93 23.26, 81.41 0.54 M24.99 65.45 C38.57 48.06, 54.8 31.94, 81.41 0.54 M35.62 65.41 C57.39 41.93, 74.95 20.92, 92.04 0.51 M35.62 65.41 C53.11 45.2, 69.91 25.97, 92.04 0.51 M46.25 65.38 C60.6 47.2, 75.78 31.62, 102.67 0.47 M46.25 65.38 C58.54 50.19, 72.28 32.97, 102.67 0.47 M56.22 66.1 C72.76 49.12, 88.43 26.75, 113.3 0.44 M56.22 66.1 C79.14 42, 100.2 16.31, 113.3 0.44 M66.85 66.06 C83.32 48.25, 96.61 29.17, 123.93 0.4 M66.85 66.06 C86.89 43.8, 107.85 19.63, 123.93 0.4 M77.48 66.03 C89.92 54.47, 98.13 38.89, 134.56 0.37 M77.48 66.03 C97.98 43.23, 117.5 21.1, 134.56 0.37 M88.11 65.99 C108.62 41.6, 133.54 16.07, 145.19 0.33 M88.11 65.99 C105.95 45.34, 124.64 24.59, 145.19 0.33 M98.74 65.96 C115.59 48.91, 128.94 31.11, 155.82 0.3 M98.74 65.96 C113.92 47.42, 130.17 30.86, 155.82 0.3 M109.37 65.93 C122.75 48.98, 137.97 35.08, 166.45 0.27 M109.37 65.93 C124.64 47.8, 140.66 31.3, 166.45 0.27 M120 65.89 C143.78 40.57, 164.8 13.46, 177.08 0.23 M120 65.89 C135.74 47.75, 150.65 30.7, 177.08 0.23 M130.63 65.86 C144.24 53.59, 155.04 38, 187.71 0.2 M130.63 65.86 C143.05 52.27, 156.14 39.01, 187.71 0.2 M141.26 65.82 C161.61 40.96, 183.94 18.55, 198.34 0.16 M141.26 65.82 C154.77 52.08, 166.63 37.83, 198.34 0.16 M151.89 65.79 C167.79 48.02, 181.53 30.7, 208.97 0.13 M151.89 65.79 C165.26 51.48, 178.27 35.6, 208.97 0.13 M162.52 65.75 C178.65 45.01, 197.22 25.88, 219.6 0.09 M162.52 65.75 C176.49 50.64, 191.15 34.36, 219.6 0.09 M173.15 65.72 C192.88 44.53, 210.94 22.6, 230.23 0.06 M173.15 65.72 C186.64 49.43, 200.73 33.78, 230.23 0.06 M183.78 65.68 C201.44 46.72, 217.46 25.39, 240.2 0.78 M183.78 65.68 C198.06 49.11, 213.43 31.49, 240.2 0.78 M194.41 65.65 C208.48 48.99, 224.39 31.38, 250.83 0.74 M194.41 65.65 C207.76 51.62, 219.23 36.91, 250.83 0.74 M205.04 65.61 C219.39 48.46, 236.35 32.38, 261.46 0.71 M205.04 65.61 C218.56 52.31, 228.96 38.6, 261.46 0.71 M215.67 65.58 C238.36 43.58, 257.06 16.1, 272.09 0.68 M215.67 65.58 C230.34 48.9, 243.71 33.64, 272.09 0.68 M226.3 65.55 C241.79 45.4, 261.32 25.79, 282.72 0.64 M226.3 65.55 C237.23 52.19, 250.31 40.08, 282.72 0.64 M236.93 65.51 C252.07 49.88, 261.7 33.3, 293.35 0.61 M236.93 65.51 C257.56 42.62, 278.02 18.66, 293.35 0.61 M246.91 66.23 C268.06 41.37, 293.92 14.31, 303.98 0.57 M246.91 66.23 C268.35 41.05, 291.25 13.88, 303.98 0.57 M257.54 66.2 C274.21 47.17, 287.61 28.78, 314.61 0.54 M257.54 66.2 C279.85 39.98, 301.67 16.51, 314.61 0.54 M268.17 66.16 C282.04 50.14, 297.1 29.66, 325.24 0.5 M268.17 66.16 C286.14 46.38, 304.93 25.32, 325.24 0.5 M278.8 66.13 C290.6 49.5, 305.22 37.03, 335.87 0.47 M278.8 66.13 C295.97 46.7, 311.95 29.19, 335.87 0.47 M289.43 66.09 C308.74 45.29, 324.69 23.85, 346.5 0.43 M289.43 66.09 C308.99 42.7, 330.53 19.46, 346.5 0.43 M300.06 66.06 C311.79 50.68, 324.87 37.53, 357.13 0.4 M300.06 66.06 C321.72 42.52, 342 17.11, 357.13 0.4 M310.69 66.02 C329.93 44.42, 349.97 19.66, 367.76 0.36 M310.69 66.02 C324.88 50.33, 336.52 34.98, 367.76 0.36 M321.32 65.99 C342.5 43.67, 361.18 19.49, 378.39 0.33 M321.32 65.99 C340.36 43.74, 360.93 21.88, 378.39 0.33 M331.95 65.96 C351.07 43.37, 372.17 17.62, 389.02 0.3 M331.95 65.96 C352.66 40.8, 374.3 16.07, 389.02 0.3 M342.58 65.92 C359.45 46.35, 377.34 27.86, 397.69 2.53 M342.58 65.92 C352.9 53.83, 365.24 40.04, 397.69 2.53 M353.21 65.89 C369.56 45.68, 388.87 24.14, 403.07 8.53 M353.21 65.89 C369.32 48.55, 383.6 31.21, 403.07 8.53 M363.84 65.85 C373.61 54.17, 385.58 42.22, 405.17 18.31 M363.84 65.85 C372.17 55.52, 380.08 47, 405.17 18.31 M374.47 65.82 C381.65 57.03, 391.62 45.33, 405.3 30.35 M374.47 65.82 C381.94 56.14, 390.21 47.1, 405.3 30.35 M385.1 65.78 C389.93 58.37, 396.22 54.83, 405.44 42.39 M385.1 65.78 C389.59 60.96, 394.19 54.96, 405.44 42.39 M396.38 64.99 C398.96 63.11, 401.14 59.51, 403.6 56.69 M396.38 64.99 C398.19 62.9, 399.44 61.61, 403.6 56.69" stroke="#b2f2bb" stroke-width="1" fill="none"></path><path d="M16.43 0 C127.95 0.06, 238.07 -1.41, 388.74 0 M16.43 0 C99.33 2.65, 182.77 1.66, 388.74 0 M388.74 0 C398.73 1.78, 406.91 3.84, 405.17 16.43 M388.74 0 C401.51 -0.35, 407.04 4.64, 405.17 16.43 M405.17 16.43 C404.22 26.07, 405.33 34.16, 405.17 49.29 M405.17 16.43 C406.1 29.67, 405.06 41.85, 405.17 49.29 M405.17 49.29 C403.4 61.61, 401.43 66.9, 388.74 65.72 M405.17 49.29 C404.58 60.27, 398.74 65.99, 388.74 65.72 M388.74 65.72 C274.53 67.37, 162.99 67.43, 16.43 65.72 M388.74 65.72 C289.65 67.05, 189.35 67.58, 16.43 65.72 M16.43 65.72 C6.99 65.78, 0.33 59.92, 0 49.29 M16.43 65.72 C3.34 65.88, -0.69 59.62, 0 49.29 M0 49.29 C1.13 43.1, -0.2 32.25, 0 16.43 M0 49.29 C-0.14 41.86, -0.29 33.7, 0 16.43 M0 16.43 C-1.45 4.24, 4.8 -1.64, 16.43 0 M0 16.43 C-0.58 6.72, 3.79 1.64, 16.43 0" stroke="#2f9e44" stroke-width="2" fill="none"></path></g><g transform="translate(845.1684449265276 448.7276328965633) rotate(0 7.8286895751953125 19.4944109528156)"><text x="7.8286895751953125" y="0" font-family="Virgil, Segoe UI Emoji" font-size="31.191057524504977px" fill="#2f9e44" text-anchor="middle" style="white-space: pre;" direction="ltr" dominant-baseline="text-before-edge">c</text></g><g stroke-linecap="round" transform="translate(696.1199629783086 513.6778030876492) rotate(0 156.8771715234161 32.57933813781756)"><path d="M4.34 3.77 C4.34 3.77, 4.34 3.77, 4.34 3.77 M4.34 3.77 C4.34 3.77, 4.34 3.77, 4.34 3.77 M-0.12 21.09 C4.56 16.6, 10.87 10.07, 18.25 -0.04 M-0.12 21.09 C3.48 16.6, 7.39 10.75, 18.25 -0.04 M0.67 32.38 C6.5 22.44, 14.67 15.62, 28.22 0.68 M0.67 32.38 C9.23 21.41, 18.31 11.76, 28.22 0.68 M0.8 44.42 C13.85 26.93, 28.18 9.77, 38.85 0.65 M0.8 44.42 C9.36 34.45, 16.99 25.19, 38.85 0.65 M0.93 56.46 C16.81 37.97, 33.95 17.83, 49.48 0.61 M0.93 56.46 C14.12 43.24, 25.13 28.5, 49.48 0.61 M6.31 62.46 C24.7 42.52, 39.72 23.01, 60.11 0.58 M6.31 62.46 C26.62 39.78, 45.88 15.4, 60.11 0.58 M14.32 65.45 C25.52 49.87, 40.98 38.06, 70.74 0.54 M14.32 65.45 C30.5 47.02, 44.47 29.89, 70.74 0.54 M24.95 65.41 C37.31 50.22, 52.6 32.2, 81.37 0.51 M24.95 65.41 C39.1 48.56, 52.51 33.33, 81.37 0.51 M35.58 65.38 C50.74 48.88, 65.21 31.92, 92 0.47 M35.58 65.38 C50.46 48.29, 65.03 30.05, 92 0.47 M46.21 65.34 C60.66 49.44, 77.45 28.43, 102.63 0.44 M46.21 65.34 C68.02 40.93, 88.8 16.41, 102.63 0.44 M56.84 65.31 C81.3 38.52, 101.39 15.71, 113.26 0.41 M56.84 65.31 C76.82 41.58, 97.53 18.86, 113.26 0.41 M67.47 65.28 C85.42 46.81, 99.54 27.12, 123.89 0.37 M67.47 65.28 C88.65 40.36, 110.9 14.72, 123.89 0.37 M78.1 65.24 C99.9 41.28, 117.43 19.82, 134.52 0.34 M78.1 65.24 C92.39 50.14, 104.28 33.41, 134.52 0.34 M88.73 65.21 C107.71 43.29, 126.38 20.39, 145.15 0.3 M88.73 65.21 C108.3 41.52, 127.53 19.7, 145.15 0.3 M99.36 65.17 C118.72 42.31, 140.03 19.89, 155.78 0.27 M99.36 65.17 C111.83 49.22, 127.04 33.55, 155.78 0.27 M109.99 65.14 C122.43 47.31, 136.95 32.7, 166.41 0.23 M109.99 65.14 C121.75 52.81, 132.2 40.04, 166.41 0.23 M119.96 65.86 C136.81 45.84, 156.87 26.63, 177.04 0.2 M119.96 65.86 C134.05 48.39, 149.57 31.47, 177.04 0.2 M130.59 65.82 C150.35 39.35, 172.54 15.68, 187.67 0.16 M130.59 65.82 C149.15 44.6, 167.49 23.16, 187.67 0.16 M141.22 65.79 C156.04 44.39, 172.6 28.31, 198.3 0.13 M141.22 65.79 C156.11 48.24, 173 30.73, 198.3 0.13 M151.85 65.75 C167.78 44.44, 188 26.25, 208.93 0.09 M151.85 65.75 C172.93 42.05, 193.12 16.37, 208.93 0.09 M162.48 65.72 C178.09 45.26, 193.3 26.61, 218.91 0.82 M162.48 65.72 C184.03 40.94, 205.16 17.33, 218.91 0.82 M173.11 65.69 C189.91 43.05, 209.23 22.41, 229.54 0.78 M173.11 65.69 C187.07 50.37, 200.87 34.75, 229.54 0.78 M183.75 65.65 C203.23 42.62, 222.74 18.35, 240.17 0.75 M183.75 65.65 C202.98 42.61, 222.61 20.53, 240.17 0.75 M194.38 65.62 C212.27 41.49, 232.07 21.64, 250.8 0.71 M194.38 65.62 C212.74 45.53, 231.48 23.94, 250.8 0.71 M205.01 65.58 C221.07 42.56, 239.36 25.02, 261.43 0.68 M205.01 65.58 C223.46 45.36, 239.39 26.43, 261.43 0.68 M215.64 65.55 C236.31 40.73, 259.33 18.07, 272.06 0.64 M215.64 65.55 C226.57 53.09, 238.18 38.98, 272.06 0.64 M226.27 65.51 C240.9 44.78, 259.52 25.16, 282.69 0.61 M226.27 65.51 C239.58 48.12, 255.77 32.51, 282.69 0.61 M236.9 65.48 C255.72 45.1, 270.98 25.86, 293.32 0.57 M236.9 65.48 C260.39 38.91, 281.37 13.5, 293.32 0.57 M247.53 65.44 C267.8 45.25, 284.33 20.94, 303.29 1.29 M247.53 65.44 C266.38 44.9, 286.18 22.84, 303.29 1.29 M258.16 65.41 C272.79 50.4, 283.3 36.34, 309.98 5.79 M258.16 65.41 C268.27 52.04, 280.03 40.24, 309.98 5.79 M268.79 65.38 C286.6 45.58, 302.46 26, 313.4 14.06 M268.79 65.38 C283.86 46.07, 301.76 27.44, 313.4 14.06 M279.42 65.34 C285.98 57.33, 293.41 50.68, 313.53 26.1 M279.42 65.34 C288.03 54.35, 297.21 45.63, 313.53 26.1 M290.05 65.31 C299 55.06, 306.7 45.87, 313.66 38.14 M290.05 65.31 C295.72 57.44, 303.39 49.48, 313.66 38.14 M301.33 64.52 C306.12 60.35, 308.1 57.57, 313.8 50.18 M301.33 64.52 C306.34 59.45, 311.22 54.05, 313.8 50.18" stroke="#b2f2bb" stroke-width="1" fill="none"></path><path d="M16.29 0 C123.2 2.08, 231.05 0.77, 297.46 0 M16.29 0 C124.48 2.31, 234.07 1, 297.46 0 M297.46 0 C309.91 -0.3, 315.38 4.7, 313.75 16.29 M297.46 0 C308.32 -0.11, 313.3 4.36, 313.75 16.29 M313.75 16.29 C315.72 27.3, 315.4 36.46, 313.75 48.87 M313.75 16.29 C312.75 27.4, 314.5 37.75, 313.75 48.87 M313.75 48.87 C313.25 59.75, 307.5 65.4, 297.46 65.16 M313.75 48.87 C313.85 61.97, 309.3 63.26, 297.46 65.16 M297.46 65.16 C197.02 66.34, 98.78 67.86, 16.29 65.16 M297.46 65.16 C235.98 65.34, 173.46 65.19, 16.29 65.16 M16.29 65.16 C3.57 65.29, -0.6 59.18, 0 48.87 M16.29 65.16 C4.03 65, -1.35 61, 0 48.87 M0 48.87 C-1.35 34.55, 1.82 23.03, 0 16.29 M0 48.87 C-0.53 38.03, -0.15 27.6, 0 16.29 M0 16.29 C-0.5 6.51, 3.96 1.43, 16.29 0 M0 16.29 C-1.58 3.78, 5.94 -0.47, 16.29 0" stroke="#2f9e44" stroke-width="2" fill="none"></path></g><g transform="translate(844.5290558884435 526.7627302726512) rotate(0 8.46807861328125 19.494410952815613)"><text x="8.46807861328125" y="0" font-family="Virgil, Segoe UI Emoji" font-size="31.191057524504977px" fill="#2f9e44" text-anchor="middle" style="white-space: pre;" direction="ltr" dominant-baseline="text-before-edge">s</text></g><g mask="url(#mask-nbBsqlJiElIdwJk0d_DHa)" stroke-linecap="round"><g transform="translate(852.9971345017238 406.1866810750695) rotate(0 0 -70.42673006976855)"><path d="M-0.71 -0.68 C-0.6 -24.27, 1.02 -117.93, 1.16 -141.41 M1.12 1.57 C1.13 -21.86, 1.1 -116.47, 0.82 -140.17" stroke="#2f9e44" stroke-width="2" fill="none"></path></g><g transform="translate(852.9971345017238 406.1866810750695) rotate(0 0 -70.42673006976855)"><path d="M11.23 -112.03 C6.51 -119.78, 3.16 -131.13, 0.82 -140.17 M11.23 -112.03 C9.32 -119.38, 5.52 -125.58, 0.82 -140.17" stroke="#2f9e44" stroke-width="2" fill="none"></path></g><g transform="translate(852.9971345017238 406.1866810750695) rotate(0 0 -70.42673006976855)"><path d="M-9.29 -111.92 C-7 -119.59, -3.33 -130.98, 0.82 -140.17 M-9.29 -111.92 C-6.23 -119.24, -5.07 -125.46, 0.82 -140.17" stroke="#2f9e44" stroke-width="2" fill="none"></path></g></g><mask id="mask-nbBsqlJiElIdwJk0d_DHa"><rect x="0" y="0" fill="#fff" width="952.9971345017238" height="647.0401412146066"></rect><rect x="793.9856827805324" y="316.26554005248533" fill="#000" width="118.02290344238281" height="38.98882190563122" opacity="1"></rect></mask><g transform="translate(793.9856827805324 316.26554005248533) rotate(0 59.23748762048763 20.000884977031347)"><text x="59.011451721191406" y="0" font-family="Virgil, Segoe UI Emoji" font-size="31.191057524504977px" fill="#2f9e44" text-anchor="middle" style="white-space: pre;" direction="ltr" dominant-baseline="text-before-edge">span_id</text></g><g mask="url(#mask-J9HUZEWxZatNMU5j6W9ki)" stroke-linecap="round"><g transform="translate(250.32142897649828 472.6716656058842) rotate(0 -1.4439951863000715 -75.08960055668845)"><path d="M0.95 0.2 C0.36 -24.95, -2.47 -125.93, -3.24 -150.94 M-0.01 -0.75 C-0.82 -25.75, -4.17 -124.59, -4.37 -149.8" stroke="#e03131" stroke-width="2" fill="none"></path></g><g transform="translate(250.32142897649828 472.6716656058842) rotate(0 -1.4439951863000715 -75.08960055668845)"><path d="M6.53 -121.85 C3.31 -131.46, -1.84 -141.3, -4.37 -149.8 M6.53 -121.85 C2.46 -132.09, -0.6 -139.69, -4.37 -149.8" stroke="#e03131" stroke-width="2" fill="none"></path></g><g transform="translate(250.32142897649828 472.6716656058842) rotate(0 -1.4439951863000715 -75.08960055668845)"><path d="M-13.99 -121.38 C-10.51 -131.31, -8.96 -141.3, -4.37 -149.8 M-13.99 -121.38 C-11.29 -131.64, -7.57 -139.39, -4.37 -149.8" stroke="#e03131" stroke-width="2" fill="none"></path></g></g><mask id="mask-J9HUZEWxZatNMU5j6W9ki"><rect x="0" y="0" fill="#fff" width="353.209419349098" height="722.8508667192611"></rect><rect x="169.9667740001596" y="378.08765409638016" fill="#000" width="157.82131958007812" height="38.98882190563122" opacity="1"></rect></mask><g transform="translate(169.9667740001596 378.08765409638016) rotate(0 78.6453431224727 19.213783642167016)"><text x="78.91065979003906" y="0" font-family="Virgil, Segoe UI Emoji" font-size="31.191057524504977px" fill="#e03131" text-anchor="middle" style="white-space: pre;" direction="ltr" dominant-baseline="text-before-edge">same span</text></g></svg>