<svg version="1.1" xmlns="http://www.w3.org/2000/svg" viewBox="0 0 1193.9198883777462 824.3021956106453" width="1193.9198883777462" height="824.3021956106453" filter="invert(93%) hue-rotate(180deg)">
  <!-- svg-source:excalidraw -->
  
  <defs>
    <style class="style-fonts">
      @font-face {
        font-family: "Virgil";
        src: url("https://file%2B.vscode-resource.vscode-cdn.net/c%3A/Users/talor/.vscode/extensions/pomdtr.excalidraw-editor-3.7.4/public//dist/excalidraw-assets/Virgil.woff2");
      }
      @font-face {
        font-family: "Cascadia";
        src: url("https://file%2B.vscode-resource.vscode-cdn.net/c%3A/Users/talor/.vscode/extensions/pomdtr.excalidraw-editor-3.7.4/public//dist/excalidraw-assets/Cascadia.woff2");
      }
      @font-face {
        font-family: "Assistant";
        src: url("https://file%2B.vscode-resource.vscode-cdn.net/c%3A/Users/talor/.vscode/extensions/pomdtr.excalidraw-editor-3.7.4/public//dist/excalidraw-assets/Assistant-Regular.woff2");
      }
    </style>
    
  </defs>
  <rect x="0" y="0" width="1193.9198883777462" height="824.3021956106453" fill="#ffffff"></rect><g stroke-linecap="round" transform="translate(10.000000070311216 529.1342243099002) rotate(0 238.87743379019867 32.57933813781753)"><path d="M4.34 3.77 C4.34 3.77, 4.34 3.77, 4.34 3.77 M4.34 3.77 C4.34 3.77, 4.34 3.77, 4.34 3.77 M2.5 18.07 C9.58 10.35, 12.9 6.15, 17.59 0.72 M2.5 18.07 C7.51 12.09, 13.96 4.06, 17.59 0.72 M2.63 30.12 C7.1 23.78, 13.4 15.82, 28.22 0.68 M2.63 30.12 C11.73 19.48, 19.13 10.29, 28.22 0.68 M2.77 42.16 C11.11 33.45, 16.81 24.4, 38.85 0.65 M2.77 42.16 C10.88 32.54, 20.55 20.18, 38.85 0.65 M0.93 56.46 C16.43 40.34, 29.95 26.76, 49.48 0.61 M0.93 56.46 C14.46 39.96, 28.53 24.64, 49.48 0.61 M6.31 62.46 C24.41 39.51, 46.07 16.14, 59.45 1.33 M6.31 62.46 C26.01 39.31, 45.78 17.22, 59.45 1.33 M13.66 66.2 C35.73 42.79, 57.13 13.87, 70.08 1.3 M13.66 66.2 C35.42 41.4, 57.75 16.94, 70.08 1.3 M24.29 66.17 C38.89 51.09, 54.01 35.01, 80.71 1.26 M24.29 66.17 C38.74 50.16, 53.83 32.77, 80.71 1.26 M34.92 66.13 C49.03 51.05, 62.4 35.13, 91.34 1.23 M34.92 66.13 C54.75 45.69, 72.94 23.56, 91.34 1.23 M45.55 66.1 C59.81 51.15, 73.43 31.49, 101.97 1.19 M45.55 66.1 C62.1 47.24, 81.24 26.27, 101.97 1.19 M56.18 66.07 C69.06 48.3, 82.43 32.37, 112.61 1.16 M56.18 66.07 C78.16 40.64, 100.39 13.81, 112.61 1.16 M66.81 66.03 C84.39 43.17, 105.56 20.09, 123.24 1.13 M66.81 66.03 C88.7 40.32, 110.91 15.05, 123.24 1.13 M77.44 66 C97.17 43.61, 117.26 19.48, 133.87 1.09 M77.44 66 C93.7 45.56, 112.35 25.77, 133.87 1.09 M88.07 65.96 C105.39 49.42, 118.67 28.38, 144.5 1.06 M88.07 65.96 C100.68 51.9, 115.38 36.1, 144.5 1.06 M98.7 65.93 C111.43 52.68, 125.49 37.07, 155.13 1.02 M98.7 65.93 C117.42 44.66, 137.03 21.72, 155.13 1.02 M109.33 65.89 C125.87 43.16, 143.48 22.34, 165.76 0.99 M109.33 65.89 C130.7 42.28, 151.72 17.24, 165.76 0.99 M119.96 65.86 C133.26 52.32, 141.75 40.55, 176.39 0.95 M119.96 65.86 C133.46 50.61, 146.66 35.11, 176.39 0.95 M130.59 65.82 C149.67 40.44, 172.94 16.59, 187.02 0.92 M130.59 65.82 C145.52 48.37, 162.04 31.3, 187.02 0.92 M141.22 65.79 C153.43 50.95, 164.56 38.06, 197.65 0.88 M141.22 65.79 C156.46 46.1, 171.93 28.69, 197.65 0.88 M151.85 65.75 C165.1 48.96, 178.74 35.76, 208.28 0.85 M151.85 65.75 C173.2 40.12, 195.1 14.26, 208.28 0.85 M161.83 66.47 C178.49 47.85, 191.2 33.01, 218.91 0.82 M161.83 66.47 C174.68 50.25, 189.22 34.13, 218.91 0.82 M172.46 66.44 C192.06 41.06, 214.24 17.83, 229.54 0.78 M172.46 66.44 C189.35 46.56, 207.55 28.31, 229.54 0.78 M183.09 66.41 C197.68 48.04, 210.29 34.28, 240.17 0.75 M183.09 66.41 C195.16 52.1, 207.89 37.9, 240.17 0.75 M193.72 66.37 C209.44 46.68, 224.24 29.51, 250.8 0.71 M193.72 66.37 C214.98 41.92, 235 18.58, 250.8 0.71 M204.35 66.34 C217.51 53.79, 230.83 36.24, 260.77 1.43 M204.35 66.34 C226 42.3, 248.51 15.36, 260.77 1.43 M214.98 66.3 C232.88 42.72, 256.05 19.68, 271.4 1.4 M214.98 66.3 C231.38 47.18, 248.96 27.13, 271.4 1.4 M225.61 66.27 C246.04 42.45, 268.16 18.12, 282.03 1.36 M225.61 66.27 C242.29 49.26, 257.09 30.57, 282.03 1.36 M236.24 66.23 C253.29 46.57, 268.91 30.8, 292.66 1.33 M236.24 66.23 C257.74 40.77, 280.33 16.73, 292.66 1.33 M246.87 66.2 C263.8 45.68, 282.49 25.61, 303.29 1.29 M246.87 66.2 C261.19 47.74, 278.26 30.22, 303.29 1.29 M257.5 66.16 C277.13 46.67, 294.91 25.95, 313.92 1.26 M257.5 66.16 C268.7 53.55, 280.12 39.91, 313.92 1.26 M268.13 66.13 C285.32 46.25, 303.25 27.51, 324.55 1.22 M268.13 66.13 C284.78 46.11, 303.21 24.68, 324.55 1.22 M278.76 66.1 C295.51 44.26, 314.74 25.11, 335.18 1.19 M278.76 66.1 C300.8 40.02, 322.86 14.66, 335.18 1.19 M289.39 66.06 C302.78 52.98, 313.69 37.26, 345.81 1.16 M289.39 66.06 C301.82 51.52, 312.31 39.8, 345.81 1.16 M300.02 66.03 C318.17 45.57, 334.99 28.15, 356.44 1.12 M300.02 66.03 C314.94 50.56, 329.01 34.18, 356.44 1.12 M310.65 65.99 C329.53 47.49, 345.97 26.27, 367.07 1.09 M310.65 65.99 C327.65 46.87, 344.48 26.48, 367.07 1.09 M321.28 65.96 C335.42 52.48, 345.12 36.97, 377.7 1.05 M321.28 65.96 C338.38 45.07, 356.06 26.34, 377.7 1.05 M331.91 65.92 C349.24 47.5, 363.53 29.65, 388.33 1.02 M331.91 65.92 C343.76 52.79, 355.42 39.03, 388.33 1.02 M342.54 65.89 C353.5 49, 365.79 38.51, 398.96 0.98 M342.54 65.89 C353.3 53.39, 364.57 38.34, 398.96 0.98 M352.51 66.61 C364.98 52.16, 381.04 36.9, 409.59 0.95 M352.51 66.61 C370.33 45.19, 388.98 23.1, 409.59 0.95 M363.14 66.57 C376.6 50.61, 386.79 38.35, 420.22 0.91 M363.14 66.57 C384.55 42.7, 406.08 17.5, 420.22 0.91 M373.77 66.54 C390.86 43.44, 410.63 21.48, 430.85 0.88 M373.77 66.54 C390.34 48.44, 405.75 31.27, 430.85 0.88 M384.4 66.51 C401.26 45.7, 417.15 30.36, 441.48 0.85 M384.4 66.51 C404.44 43.3, 425.04 18.54, 441.48 0.85 M395.03 66.47 C409.85 49.67, 427.91 28.2, 451.46 1.57 M395.03 66.47 C408.64 52.05, 420.78 35.85, 451.46 1.57 M405.66 66.44 C420.61 48.83, 433.62 33.76, 462.09 1.53 M405.66 66.44 C423.73 46.16, 443.62 24.28, 462.09 1.53 M416.29 66.4 C432.8 46.78, 446.26 31.57, 472.06 2.25 M416.29 66.4 C431.38 50.87, 444.87 33.22, 472.06 2.25 M426.93 66.37 C443.32 45.6, 461.29 26.78, 476.79 9.01 M426.93 66.37 C442.74 46.22, 461.1 27.09, 476.79 9.01 M437.56 66.33 C450.88 52.58, 462.31 39.47, 482.82 14.26 M437.56 66.33 C452.61 48.53, 469.22 29.01, 482.82 14.26 M448.19 66.3 C461.16 53.99, 469.47 38.82, 482.96 26.3 M448.19 66.3 C456.78 55.54, 465.85 45.56, 482.96 26.3 M458.82 66.26 C467.38 58.94, 473.48 52.26, 483.09 38.34 M458.82 66.26 C467.65 56.14, 477.28 46.12, 483.09 38.34" stroke="#ffc9c9" stroke-width="1" fill="none"></path><path d="M16.29 0 C155.28 0.9, 294.06 0.24, 461.47 0 M16.29 0 C162.34 0.5, 308.23 0.86, 461.47 0 M461.47 0 C472.38 0.04, 478.1 5.26, 477.75 16.29 M461.47 0 C474.51 -1.58, 478.19 6.12, 477.75 16.29 M477.75 16.29 C477.21 24.45, 476.54 37.5, 477.75 48.87 M477.75 16.29 C477.4 24.76, 477.17 33.09, 477.75 48.87 M477.75 48.87 C476.38 60.77, 472.85 65.53, 461.47 65.16 M477.75 48.87 C479.69 59.6, 470.98 65.27, 461.47 65.16 M461.47 65.16 C287.11 66.25, 111.45 67.55, 16.29 65.16 M461.47 65.16 C342.11 63.43, 223.44 63.38, 16.29 65.16 M16.29 65.16 C5.47 66.27, -0.97 60.59, 0 48.87 M16.29 65.16 C5.84 65.15, -2.21 57.66, 0 48.87 M0 48.87 C1.15 37.56, -1.62 23.63, 0 16.29 M0 48.87 C0.55 39.86, -1 30.14, 0 16.29 M0 16.29 C-1.06 7.35, 4.53 -1.95, 16.29 0 M0 16.29 C2.17 5.14, 6.37 -1.52, 16.29 0" stroke="#e03131" stroke-width="2" fill="none"></path></g><g transform="translate(226.31148537418176 542.2191514949021) rotate(0 22.565948486328125 19.4944109528156)"><text x="22.565948486328125" y="0" font-family="Virgil, Segoe UI Emoji" font-size="31.191057524504977px" fill="#e03131" text-anchor="middle" style="white-space: pre;" direction="ltr" dominant-baseline="text-before-edge">s-p</text></g><g stroke-linecap="round" transform="translate(46.294175655423714 603.8756736339241) rotate(0 202.5832582050857 32.8613841469778)"><path d="M4.37 3.8 C4.37 3.8, 4.37 3.8, 4.37 3.8 M4.37 3.8 C4.37 3.8, 4.37 3.8, 4.37 3.8 M2.54 18.11 C7.39 16.18, 8.03 9.53, 17.63 0.75 M2.54 18.11 C7.16 11.56, 14.05 5.05, 17.63 0.75 M2.67 30.15 C11.34 21.34, 19.85 13.12, 28.26 0.71 M2.67 30.15 C8.67 22.89, 16.75 15.28, 28.26 0.71 M2.8 42.19 C12.47 31.09, 24.19 16.37, 38.89 0.68 M2.8 42.19 C17.17 25.32, 30.97 10.13, 38.89 0.68 M2.94 54.23 C14.17 41.28, 25.59 26.26, 49.52 0.65 M2.94 54.23 C14.93 40.65, 24.76 27.34, 49.52 0.65 M7.01 61.74 C21.99 47.64, 35.66 31.5, 60.15 0.61 M7.01 61.74 C22.84 43.08, 36.75 26.21, 60.15 0.61 M13.7 66.24 C38.38 40.22, 57.51 14.87, 70.78 0.58 M13.7 66.24 C26.93 49.16, 42.55 33.6, 70.78 0.58 M24.33 66.2 C43.07 41.16, 66.33 19.09, 80.75 1.3 M24.33 66.2 C43.8 41.88, 65.08 18.93, 80.75 1.3 M34.96 66.17 C52.22 45.84, 67.5 29.19, 91.38 1.26 M34.96 66.17 C55.44 41.51, 76.6 17.3, 91.38 1.26 M45.59 66.13 C67.17 44.01, 86.15 17.16, 102.01 1.23 M45.59 66.13 C67.09 39.95, 89.96 13.48, 102.01 1.23 M56.22 66.1 C70.52 54.85, 80.88 39.65, 112.64 1.19 M56.22 66.1 C77 43, 96.72 18.8, 112.64 1.19 M66.85 66.06 C84.51 48.84, 96.56 29.88, 123.27 1.16 M66.85 66.06 C81.12 49.56, 95.01 34.61, 123.27 1.16 M77.48 66.03 C96.54 45.1, 116.97 21.03, 133.9 1.12 M77.48 66.03 C94.16 45.99, 112.44 27.29, 133.9 1.12 M87.46 66.75 C108.23 40.5, 130.22 14.71, 144.53 1.09 M87.46 66.75 C106.8 42.52, 128.41 19.43, 144.53 1.09 M98.09 66.71 C118.29 42.17, 137.33 18.85, 155.16 1.05 M98.09 66.71 C119.84 43.17, 141.78 17.54, 155.16 1.05 M108.72 66.68 C122.89 54.22, 133.17 40.29, 165.79 1.02 M108.72 66.68 C126.41 45.11, 147.17 23.83, 165.79 1.02 M119.35 66.65 C135.55 46.47, 154.21 27.5, 176.42 0.99 M119.35 66.65 C135.62 49.4, 150.25 29.65, 176.42 0.99 M129.98 66.61 C141.04 51.25, 155.26 37.5, 187.05 0.95 M129.98 66.61 C148.93 42.59, 170.53 19.8, 187.05 0.95 M140.61 66.58 C157.87 48.4, 177.25 27.04, 197.68 0.92 M140.61 66.58 C151.83 52.64, 163.22 39.56, 197.68 0.92 M151.24 66.54 C166.13 52.49, 178.82 36.36, 208.31 0.88 M151.24 66.54 C167.72 47.16, 185.8 29.14, 208.31 0.88 M161.87 66.51 C173 53.22, 187.78 36.96, 218.94 0.85 M161.87 66.51 C177.94 49.33, 193.15 30.24, 218.94 0.85 M172.5 66.47 C185.5 50.01, 199.76 35.36, 229.57 0.81 M172.5 66.47 C186.9 47.82, 203.4 30.31, 229.57 0.81 M183.13 66.44 C193.7 51.32, 206.37 37.35, 240.2 0.78 M183.13 66.44 C199.89 47.63, 215.92 28.32, 240.2 0.78 M193.76 66.4 C208.49 53.25, 219.95 38.21, 250.83 0.74 M193.76 66.4 C209.82 46.23, 226.24 28.01, 250.83 0.74 M204.39 66.37 C227.34 42.8, 245.36 17.13, 261.46 0.71 M204.39 66.37 C227.18 41.6, 249.91 14.34, 261.46 0.71 M215.02 66.34 C232.14 47.02, 250.44 25.56, 271.44 1.43 M215.02 66.34 C235.7 43.72, 255.79 19.81, 271.44 1.43 M225.65 66.3 C241.75 47.34, 257.89 29.04, 282.07 1.4 M225.65 66.3 C247.52 40.18, 270.36 15.97, 282.07 1.4 M236.28 66.27 C249.28 50.43, 259.93 37.72, 292.7 1.36 M236.28 66.27 C247.7 53.6, 260.08 39.06, 292.7 1.36 M246.91 66.23 C265.53 45.13, 285.3 20.28, 303.33 1.33 M246.91 66.23 C260.9 49.45, 275.26 34.2, 303.33 1.33 M257.54 66.2 C276.63 39.97, 299.98 15.3, 313.96 1.29 M257.54 66.2 C278.86 42.75, 298.54 18.42, 313.96 1.29 M268.17 66.16 C284.91 47.72, 302.57 25.98, 324.59 1.26 M268.17 66.16 C290.99 40.9, 313.68 14.15, 324.59 1.26 M278.14 66.88 C294.86 48.51, 310.04 31.74, 335.22 1.22 M278.14 66.88 C292.99 49.28, 308.6 31.73, 335.22 1.22 M288.77 66.85 C306.98 43.14, 329.81 22.37, 345.85 1.19 M288.77 66.85 C300.85 52.17, 312.24 39.8, 345.85 1.19 M299.4 66.81 C312.3 50.01, 327.39 35.66, 356.48 1.15 M299.4 66.81 C320.34 42.09, 341.04 18.23, 356.48 1.15 M310.03 66.78 C329.87 42.25, 349.65 19.88, 367.11 1.12 M310.03 66.78 C327.51 46.07, 346.6 26.53, 367.11 1.12 M320.66 66.74 C339.37 45.09, 357.4 23.45, 377.74 1.09 M320.66 66.74 C333.69 51.13, 347.56 37.36, 377.74 1.09 M331.29 66.71 C348.17 44.91, 366.32 23.36, 388.37 1.05 M331.29 66.71 C349.77 45.65, 370.13 22.9, 388.37 1.05 M341.92 66.68 C351.34 54.19, 364.42 39.83, 396.37 4.03 M341.92 66.68 C363 43.01, 383.79 18.03, 396.37 4.03 M352.55 66.64 C370.24 47.97, 386.63 25.47, 404.38 7.02 M352.55 66.64 C366.88 50.38, 383.47 33.35, 404.38 7.02 M363.18 66.61 C374.33 57.09, 381.56 45.59, 409.11 13.78 M363.18 66.61 C378.31 49.19, 394 30.73, 409.11 13.78 M373.81 66.57 C382.24 54.58, 390.61 47.58, 409.24 25.82 M373.81 66.57 C380.99 58.35, 389.69 49.65, 409.24 25.82 M384.44 66.54 C390.54 60.63, 393.33 53.5, 409.37 37.86 M384.44 66.54 C392.89 57.12, 402.13 46.9, 409.37 37.86 M396.38 64.99 C398.9 61.18, 405 58.01, 406.23 53.67 M396.38 64.99 C399.66 61.24, 404.03 57.05, 406.23 53.67" stroke="#a5d8ff" stroke-width="1" fill="none"></path><path d="M16.43 0 C159 -0.62, 300.34 -0.67, 388.74 0 M16.43 0 C94.1 0.43, 171.85 0.37, 388.74 0 M388.74 0 C401.59 -1.37, 405.54 6.08, 405.17 16.43 M388.74 0 C399.67 2, 404.23 4.52, 405.17 16.43 M405.17 16.43 C404.03 24.19, 406.35 30.06, 405.17 49.29 M405.17 16.43 C404.26 27.32, 405.21 37.36, 405.17 49.29 M405.17 49.29 C406.85 60.13, 398.52 65.82, 388.74 65.72 M405.17 49.29 C407.31 62.31, 401.4 67.28, 388.74 65.72 M388.74 65.72 C296.85 67.95, 204.7 67.07, 16.43 65.72 M388.74 65.72 C265.14 66.56, 141.21 66.49, 16.43 65.72 M16.43 65.72 C5.83 65.72, -1.92 58.45, 0 49.29 M16.43 65.72 C7.69 67.88, -1.11 61.92, 0 49.29 M0 49.29 C0.19 38.19, -0.1 25.86, 0 16.43 M0 49.29 C-0.27 38, -0.19 23.83, 0 16.43 M0 16.43 C1.89 5.22, 6.29 -1.33, 16.43 0 M0 16.43 C1.94 7.39, 3.44 2.3, 16.43 0" stroke="#1971c2" stroke-width="2" fill="none"></path></g><g transform="translate(208.2212906720324 617.2426468280862) rotate(0 40.65614318847656 19.494410952815613)"><text x="40.65614318847656" y="0" font-family="Virgil, Segoe UI Emoji" font-size="31.191057524504977px" fill="#1971c2" text-anchor="middle" style="white-space: pre;" direction="ltr" dominant-baseline="text-before-edge">s-app</text></g><g stroke-linecap="round" transform="translate(92.00026233709286 682.1928170191721) rotate(0 156.8771715234161 32.57933813781756)"><path d="M4.34 3.77 C4.34 3.77, 4.34 3.77, 4.34 3.77 M4.34 3.77 C4.34 3.77, 4.34 3.77, 4.34 3.77 M-0.12 21.09 C8.3 13.06, 12.69 3.23, 18.25 -0.04 M-0.12 21.09 C4.69 15.44, 8.74 10.37, 18.25 -0.04 M0.67 32.38 C7.87 20.87, 17.81 11.41, 28.22 0.68 M0.67 32.38 C10.27 20.75, 19.76 9.14, 28.22 0.68 M0.8 44.42 C15.76 28.98, 25.17 14.36, 38.85 0.65 M0.8 44.42 C9.86 34.35, 20.04 22.93, 38.85 0.65 M0.93 56.46 C16.93 36.85, 35.43 18.88, 49.48 0.61 M0.93 56.46 C12.89 43.29, 24.42 30.07, 49.48 0.61 M6.31 62.46 C24.85 41.03, 45.21 19.82, 60.11 0.58 M6.31 62.46 C18.38 49.36, 27.58 38.4, 60.11 0.58 M14.32 65.45 C29.37 49.23, 45.51 28.73, 70.74 0.54 M14.32 65.45 C27.34 51.34, 40.14 35.11, 70.74 0.54 M24.95 65.41 C38.66 52.52, 49.16 34.28, 81.37 0.51 M24.95 65.41 C37.85 50.88, 50.27 36.14, 81.37 0.51 M35.58 65.38 C51.07 49.86, 63.4 32.57, 92 0.47 M35.58 65.38 C51.82 47.34, 65.54 30.52, 92 0.47 M46.21 65.34 C69.87 43.07, 89.69 16.08, 102.63 0.44 M46.21 65.34 C62.14 45.59, 78.91 28.2, 102.63 0.44 M56.84 65.31 C79.93 39.54, 100.06 15.34, 113.26 0.41 M56.84 65.31 C73.28 46.58, 89.59 28.55, 113.26 0.41 M67.47 65.28 C85.16 43.8, 104.15 24.25, 123.89 0.37 M67.47 65.28 C78.64 52.32, 89.22 39.45, 123.89 0.37 M78.1 65.24 C96 45.3, 114.76 22.95, 134.52 0.34 M78.1 65.24 C94.43 46.1, 108.83 27.19, 134.52 0.34 M88.73 65.21 C103.43 52.09, 114.97 34.11, 145.15 0.3 M88.73 65.21 C102.62 50.55, 115.4 34.51, 145.15 0.3 M99.36 65.17 C113.09 50.6, 123.53 37.92, 155.78 0.27 M99.36 65.17 C119.29 40.31, 140.5 17.04, 155.78 0.27 M109.99 65.14 C131.31 42.81, 149.94 15.86, 166.41 0.23 M109.99 65.14 C127.55 43.4, 146.23 22.62, 166.41 0.23 M119.96 65.86 C136.85 46.86, 153.23 27.16, 177.04 0.2 M119.96 65.86 C140.88 42.2, 162.32 16.73, 177.04 0.2 M130.59 65.82 C142.53 53.91, 154.88 38.43, 187.67 0.16 M130.59 65.82 C144.36 48.56, 159.4 32.85, 187.67 0.16 M141.22 65.79 C160.97 39.49, 184.83 13.26, 198.3 0.13 M141.22 65.79 C154.04 50.56, 168.37 36.88, 198.3 0.13 M151.85 65.75 C171.26 42.59, 189.81 18.85, 208.93 0.09 M151.85 65.75 C165.37 48.3, 181.05 30.51, 208.93 0.09 M162.48 65.72 C181.59 44, 200.65 21.38, 218.91 0.82 M162.48 65.72 C181.69 43.24, 202.02 19.99, 218.91 0.82 M173.11 65.69 C185.3 52.9, 200.53 34.91, 229.54 0.78 M173.11 65.69 C187.34 47.23, 204.02 29.3, 229.54 0.78 M183.75 65.65 C196.77 49.82, 210.18 35.88, 240.17 0.75 M183.75 65.65 C201.5 44.11, 220.29 24.78, 240.17 0.75 M194.38 65.62 C215.42 39.77, 238.67 14.78, 250.8 0.71 M194.38 65.62 C208.66 51.04, 220.14 36.6, 250.8 0.71 M205.01 65.58 C225.97 44.7, 241.5 24.02, 261.43 0.68 M205.01 65.58 C224.72 43.37, 245.05 19.57, 261.43 0.68 M215.64 65.55 C235.94 44.17, 254.2 22.36, 272.06 0.64 M215.64 65.55 C236.57 42.05, 257.4 16.53, 272.06 0.64 M226.27 65.51 C246.94 43.5, 264.55 22.03, 282.69 0.61 M226.27 65.51 C239.39 49.49, 254.65 32.93, 282.69 0.61 M236.9 65.48 C246.34 54.39, 258.6 40.06, 293.32 0.57 M236.9 65.48 C257.15 42.14, 277.92 18.51, 293.32 0.57 M247.53 65.44 C266.67 44.01, 287.64 19.91, 303.29 1.29 M247.53 65.44 C262.06 49.44, 276.12 31.94, 303.29 1.29 M258.16 65.41 C271.72 50.04, 283.21 37.77, 309.98 5.79 M258.16 65.41 C276.75 44.7, 295.62 23.87, 309.98 5.79 M268.79 65.38 C285.72 47.33, 299.39 30.78, 313.4 14.06 M268.79 65.38 C283.86 47.6, 300.4 30.32, 313.4 14.06 M279.42 65.34 C287.24 55.18, 295.77 43.71, 313.53 26.1 M279.42 65.34 C290.72 52.68, 300.62 39.99, 313.53 26.1 M290.05 65.31 C293.98 57.29, 303.1 51.48, 313.66 38.14 M290.05 65.31 C294.74 59.52, 300.96 52.89, 313.66 38.14 M301.33 64.52 C306.26 61.74, 309.44 56.44, 313.8 50.18 M301.33 64.52 C305.85 60.29, 309.14 55.36, 313.8 50.18" stroke="#a5d8ff" stroke-width="1" fill="none"></path><path d="M16.29 0 C92.79 -0.73, 171.81 0.62, 297.46 0 M16.29 0 C101.94 -0.34, 186.27 0.42, 297.46 0 M297.46 0 C308.3 1.74, 312.94 4.6, 313.75 16.29 M297.46 0 C306.5 -1.72, 315.74 4.4, 313.75 16.29 M313.75 16.29 C314.3 25.55, 314.31 36.09, 313.75 48.87 M313.75 16.29 C314.68 27.7, 313.26 39.27, 313.75 48.87 M313.75 48.87 C315.62 61.53, 309.81 66.52, 297.46 65.16 M313.75 48.87 C312.51 59.79, 310.12 64.42, 297.46 65.16 M297.46 65.16 C203.32 65.44, 108.53 64.42, 16.29 65.16 M297.46 65.16 C197.67 66.08, 96.87 65.4, 16.29 65.16 M16.29 65.16 C7.36 67.04, -0.96 61.19, 0 48.87 M16.29 65.16 C7.27 63.65, 0.67 59.7, 0 48.87 M0 48.87 C1.5 35.28, 1.54 23.73, 0 16.29 M0 48.87 C1.09 35.85, 0.56 22.41, 0 16.29 M0 16.29 C1.69 7.09, 3.66 2, 16.29 0 M0 16.29 C2.08 6.27, 6.72 -2.29, 16.29 0" stroke="#1971c2" stroke-width="2" fill="none"></path></g><g transform="translate(208.86067971011835 695.277744204174) rotate(0 40.016754150390625 19.494410952815613)"><text x="40.016754150390625" y="0" font-family="Virgil, Segoe UI Emoji" font-size="31.191057524504977px" fill="#1971c2" text-anchor="middle" style="white-space: pre;" direction="ltr" dominant-baseline="text-before-edge">c-app</text></g><g stroke-linecap="round" transform="translate(122.21857105613708 754.5183155810466) rotate(0 126.6588628043728 29.891940014799346)"><path d="M3.98 3.46 C3.98 3.46, 3.98 3.46, 3.98 3.46 M3.98 3.46 C3.98 3.46, 3.98 3.46, 3.98 3.46 M2.8 17.01 C6.35 13.48, 10.05 7.75, 16.58 1.16 M2.8 17.01 C6.86 13.18, 11.18 7.48, 16.58 1.16 M2.93 29.05 C8.83 24.47, 13.9 17.84, 27.21 1.13 M2.93 29.05 C10.4 21.34, 16.02 14.22, 27.21 1.13 M3.07 41.09 C11.27 29.11, 23.12 19.4, 37.84 1.09 M3.07 41.09 C16.44 25.7, 28.88 10.39, 37.84 1.09 M3.2 53.13 C15.19 36.17, 27.64 21.68, 48.47 1.06 M3.2 53.13 C18.52 37.08, 32.6 19.79, 48.47 1.06 M7.92 59.89 C23.46 38.33, 42.39 20.54, 59.1 1.02 M7.92 59.89 C19.58 45.39, 31.34 32.58, 59.1 1.02 M15.93 62.87 C35.02 41.22, 57.22 17.41, 69.73 0.99 M15.93 62.87 C35.67 40.26, 57.05 16.12, 69.73 0.99 M26.56 62.84 C46.68 38.42, 69.84 14.3, 79.7 1.71 M26.56 62.84 C43.91 41.85, 62.96 22.74, 79.7 1.71 M36.53 63.56 C53.83 42.32, 71.98 23.96, 90.33 1.67 M36.53 63.56 C50.72 47.76, 62.27 34.72, 90.33 1.67 M47.16 63.52 C67.44 39.72, 86.99 14.65, 100.96 1.64 M47.16 63.52 C60.17 49.96, 70.91 36.97, 100.96 1.64 M57.79 63.49 C73.26 45.52, 86.72 27.54, 111.59 1.6 M57.79 63.49 C73.69 44.5, 88.54 27.15, 111.59 1.6 M68.42 63.46 C81.28 47.84, 97.37 30.07, 122.22 1.57 M68.42 63.46 C84.6 46.27, 99.07 27.41, 122.22 1.57 M79.05 63.42 C96.55 44.59, 116.59 23.95, 132.85 1.53 M79.05 63.42 C93.89 45.79, 108.7 29.78, 132.85 1.53 M89.68 63.39 C108.32 41.47, 129.33 19.36, 143.48 1.5 M89.68 63.39 C109.95 38.98, 130.75 15.68, 143.48 1.5 M100.31 63.35 C115.28 49.73, 126.17 31.02, 154.11 1.47 M100.31 63.35 C114.7 47.48, 128.03 33.01, 154.11 1.47 M110.94 63.32 C131.99 41.66, 153.9 17.04, 164.74 1.43 M110.94 63.32 C123.73 48.51, 137.37 33.07, 164.74 1.43 M121.58 63.28 C142.77 39.42, 159.29 16.75, 175.37 1.4 M121.58 63.28 C140.34 42.09, 159.64 19.67, 175.37 1.4 M132.21 63.25 C148.72 44.52, 167.19 22.04, 186 1.36 M132.21 63.25 C143.62 51.74, 153.68 37.2, 186 1.36 M142.84 63.21 C156.04 45.27, 171.08 28.65, 196.63 1.33 M142.84 63.21 C156.63 47.89, 169.57 31.38, 196.63 1.33 M153.47 63.18 C168.62 47.05, 186.91 26.16, 207.26 1.29 M153.47 63.18 C170.88 44.6, 186.83 24.36, 207.26 1.29 M164.1 63.15 C184.35 41.46, 201.16 18.28, 217.89 1.26 M164.1 63.15 C181.02 43.58, 198.75 22.81, 217.89 1.26 M174.73 63.11 C195.11 39.56, 217.36 12.2, 228.52 1.22 M174.73 63.11 C186.62 48.48, 199.19 34.03, 228.52 1.22 M185.36 63.08 C198.17 47.59, 209.94 33.02, 239.15 1.19 M185.36 63.08 C198.06 49.05, 209.79 35.23, 239.15 1.19 M195.99 63.04 C206.84 47.09, 221.08 35.58, 247.16 4.17 M195.99 63.04 C214.16 41.76, 231.04 23.43, 247.16 4.17 M205.96 63.76 C222.62 47.97, 234.67 28.84, 253.2 9.42 M205.96 63.76 C222.96 45.01, 238.94 26.02, 253.2 9.42 M216.59 63.73 C230.56 50.01, 241.9 34.86, 253.33 21.46 M216.59 63.73 C231.59 46.34, 246.88 31.11, 253.33 21.46 M227.22 63.69 C233.65 56.14, 243.51 44.75, 253.46 33.5 M227.22 63.69 C236.33 51.94, 247 39.29, 253.46 33.5 M239.82 61.39 C246.68 56.61, 250.24 49.33, 254.25 44.79 M239.82 61.39 C244.52 56.7, 247.27 51.26, 254.25 44.79" stroke="#ffc9c9" stroke-width="1" fill="none"></path><path d="M14.95 0 C62.78 0.24, 110.39 1.59, 238.37 0 M14.95 0 C66.65 0.17, 118.01 -0.93, 238.37 0 M238.37 0 C246.75 -1.49, 255.05 4.09, 253.32 14.95 M238.37 0 C248.91 1.64, 252.3 5.34, 253.32 14.95 M253.32 14.95 C254.41 22.45, 253.74 30.59, 253.32 44.84 M253.32 14.95 C254.07 24.65, 253.89 33.23, 253.32 44.84 M253.32 44.84 C252.23 54.85, 249.9 59.14, 238.37 59.78 M253.32 44.84 C254.16 52.82, 247.52 60.52, 238.37 59.78 M238.37 59.78 C157.04 58.98, 74.55 60.13, 14.95 59.78 M238.37 59.78 C172.24 58.86, 104.03 58.68, 14.95 59.78 M14.95 59.78 C6.59 58.47, 0.59 54.78, 0 44.84 M14.95 59.78 C6.58 59.43, 1.79 56.47, 0 44.84 M0 44.84 C1.69 37.29, -2.17 33.42, 0 14.95 M0 44.84 C0.72 37.08, -1.01 28.66, 0 14.95 M0 14.95 C1.81 5.71, 6.1 -1.99, 14.95 0 M0 14.95 C-0.16 3.1, 5.48 -2.26, 14.95 0" stroke="#e03131" stroke-width="2" fill="none"></path></g><g transform="translate(226.9508744122677 764.9158446430304) rotate(0 21.926559448242188 19.49441095281561)"><text x="21.926559448242188" y="0" font-family="Virgil, Segoe UI Emoji" font-size="31.191057524504977px" fill="#e03131" text-anchor="middle" style="white-space: pre;" direction="ltr" dominant-baseline="text-before-edge">c-p</text></g><g stroke-linecap="round" transform="translate(10 10) rotate(0 238.87743379019867 32.57933813781756)"><path d="M4.34 3.77 C4.34 3.77, 4.34 3.77, 4.34 3.77 M4.34 3.77 C4.34 3.77, 4.34 3.77, 4.34 3.77 M-0.12 21.09 C6.24 12.02, 13.84 6.07, 18.25 -0.04 M-0.12 21.09 C5.75 13.67, 12.68 5.79, 18.25 -0.04 M0.67 32.38 C9.78 20.49, 18.79 11.12, 28.88 -0.07 M0.67 32.38 C9.43 21.08, 18.48 11.1, 28.88 -0.07 M0.8 44.42 C10.32 36.15, 16.86 26.42, 38.85 0.65 M0.8 44.42 C10.87 33.23, 21.72 20.91, 38.85 0.65 M0.93 56.46 C12.65 42.4, 24.65 32.74, 49.48 0.61 M0.93 56.46 C19.19 36.23, 37.66 14.14, 49.48 0.61 M6.31 62.46 C19.29 44.04, 36.72 28.62, 60.11 0.58 M6.31 62.46 C18.48 49.47, 28.51 35.82, 60.11 0.58 M14.32 65.45 C37.15 41.64, 55.66 14.84, 70.74 0.54 M14.32 65.45 C37.7 38.8, 58.38 12.92, 70.74 0.54 M24.95 65.41 C41.42 46.26, 57.35 27.53, 81.37 0.51 M24.95 65.41 C38.96 48.73, 52.39 32.03, 81.37 0.51 M35.58 65.38 C49.03 46.63, 65.01 33.06, 92 0.47 M35.58 65.38 C49.01 51.15, 59.84 36.75, 92 0.47 M46.21 65.34 C60.62 46.05, 80.04 31.45, 102.63 0.44 M46.21 65.34 C64.45 43.4, 83.5 22.52, 102.63 0.44 M56.84 65.31 C73.82 45.2, 92.67 27.62, 113.26 0.41 M56.84 65.31 C68.78 51.52, 81.61 36.89, 113.26 0.41 M67.47 65.28 C88.79 39.76, 110.42 16.6, 123.89 0.37 M67.47 65.28 C90.29 40.33, 111.55 14.78, 123.89 0.37 M78.1 65.24 C98.82 38.24, 119.56 13.46, 134.52 0.34 M78.1 65.24 C92.42 49.75, 103.98 34.28, 134.52 0.34 M88.73 65.21 C108.51 43.76, 125.52 21.84, 145.15 0.3 M88.73 65.21 C105.27 45.72, 122.39 27.79, 145.15 0.3 M99.36 65.17 C120.43 38.54, 144.87 16.5, 155.78 0.27 M99.36 65.17 C114.72 47.1, 128.05 30.47, 155.78 0.27 M109.99 65.14 C128.71 43.12, 148.86 18.18, 166.41 0.23 M109.99 65.14 C127.4 44.9, 144.62 26.62, 166.41 0.23 M120.62 65.1 C135.44 48.69, 146.94 33.13, 177.04 0.2 M120.62 65.1 C142.95 41.19, 163.16 15.18, 177.04 0.2 M130.59 65.82 C150.67 42.16, 174.02 17.46, 187.67 0.16 M130.59 65.82 C152.96 40.08, 175.37 13.47, 187.67 0.16 M141.22 65.79 C153.23 52.7, 168.57 38.12, 198.3 0.13 M141.22 65.79 C162.93 40.07, 184.28 15.46, 198.3 0.13 M151.85 65.75 C172.72 41.9, 192.43 18.45, 208.93 0.09 M151.85 65.75 C172.86 41.93, 193.27 19.86, 208.93 0.09 M162.48 65.72 C181.06 44.99, 198.29 23.74, 219.56 0.06 M162.48 65.72 C183.42 44.06, 201.6 20.31, 219.56 0.06 M173.11 65.69 C191.02 44.7, 209.9 20.55, 229.54 0.78 M173.11 65.69 C187.91 48.71, 203.31 31.7, 229.54 0.78 M183.75 65.65 C195.63 50.55, 211.99 36.84, 240.17 0.75 M183.75 65.65 C199.92 46.94, 216.75 25.71, 240.17 0.75 M194.38 65.62 C207.38 49.58, 220.63 37.65, 250.8 0.71 M194.38 65.62 C207.26 50.05, 220.17 36.85, 250.8 0.71 M205.01 65.58 C228.96 40.28, 250.18 15.15, 261.43 0.68 M205.01 65.58 C224.87 43.07, 244.42 21.58, 261.43 0.68 M215.64 65.55 C236.83 42.62, 253.88 21.51, 272.06 0.64 M215.64 65.55 C228.07 50.36, 241.12 34.22, 272.06 0.64 M226.27 65.51 C247.3 43.37, 266.91 18.51, 282.69 0.61 M226.27 65.51 C244.84 45.52, 261.63 26.53, 282.69 0.61 M236.9 65.48 C258.52 41.99, 279.74 16.95, 293.32 0.57 M236.9 65.48 C255.67 45.45, 272.8 24.83, 293.32 0.57 M247.53 65.44 C267.01 44.81, 283.22 20.02, 303.95 0.54 M247.53 65.44 C264.52 45.4, 282.78 25.69, 303.95 0.54 M258.16 65.41 C270.35 53.09, 282.32 38.97, 314.58 0.5 M258.16 65.41 C279.56 40.61, 301.31 16.67, 314.58 0.5 M268.79 65.38 C289.22 43.55, 310.75 18.86, 325.21 0.47 M268.79 65.38 C291.31 39.28, 313.09 13.91, 325.21 0.47 M279.42 65.34 C291.15 50.04, 302.81 34.69, 335.84 0.44 M279.42 65.34 C298.48 43.58, 318.94 19.18, 335.84 0.44 M290.05 65.31 C305.32 49.36, 318.95 30.63, 346.47 0.4 M290.05 65.31 C307.33 45.84, 323.71 25.84, 346.47 0.4 M300.68 65.27 C314.62 49, 327.4 32.13, 357.1 0.37 M300.68 65.27 C316.41 46.09, 331.79 28.29, 357.1 0.37 M311.31 65.24 C327.82 43.66, 346.06 23.78, 367.73 0.33 M311.31 65.24 C327.87 47.18, 344.92 26.86, 367.73 0.33 M321.94 65.2 C342.78 40.94, 363.52 14.51, 378.36 0.3 M321.94 65.2 C332.8 52.31, 344.37 39.35, 378.36 0.3 M331.91 65.92 C353.13 42.89, 374.72 16.05, 388.99 0.26 M331.91 65.92 C349.29 43.97, 367.48 24.42, 388.99 0.26 M342.54 65.89 C356.06 53.23, 367.24 40.11, 399.62 0.23 M342.54 65.89 C357.85 47.48, 372.71 31.09, 399.62 0.23 M353.17 65.85 C373.54 42.09, 395.83 19.85, 410.25 0.19 M353.17 65.85 C367.85 48.93, 381.5 32.94, 410.25 0.19 M363.8 65.82 C384.7 40.48, 406.16 15.32, 420.88 0.16 M363.8 65.82 C377.96 49.97, 390.85 34.95, 420.88 0.16 M374.43 65.79 C396.67 42.66, 418.25 16.9, 430.85 0.88 M374.43 65.79 C388.33 48.61, 403.25 32.84, 430.85 0.88 M385.06 65.75 C407.15 40.18, 424.22 19.34, 441.48 0.85 M385.06 65.75 C406.52 39.56, 427.42 15.83, 441.48 0.85 M395.69 65.72 C414.58 43.97, 433.58 22.58, 452.11 0.81 M395.69 65.72 C409.83 50.56, 422.3 34.57, 452.11 0.81 M406.32 65.68 C426.36 42.55, 446.23 17.49, 462.74 0.78 M406.32 65.68 C427.28 40.17, 448.73 16.44, 462.74 0.78 M416.95 65.65 C438.91 41.3, 461.82 17.18, 472.06 2.25 M416.95 65.65 C437.69 43.36, 456.59 19.39, 472.06 2.25 M427.58 65.61 C438.39 53.66, 449.16 43.55, 476.79 9.01 M427.58 65.61 C447.91 42.09, 466.85 20.19, 476.79 9.01 M438.21 65.58 C447.99 50.65, 461.37 38.2, 477.57 20.3 M438.21 65.58 C451.42 50.53, 465.85 34.25, 477.57 20.3 M448.84 65.54 C456.51 59.16, 463.36 50.23, 477.71 32.34 M448.84 65.54 C455.93 58.37, 463.18 50.35, 477.71 32.34 M459.47 65.51 C465.65 60.6, 469.1 53.56, 477.84 44.38 M459.47 65.51 C465.96 56.81, 473.77 48, 477.84 44.38" stroke="#ffc9c9" stroke-width="1" fill="none"></path><path d="M16.29 0 C156.78 -1.9, 298.9 -2.09, 461.47 0 M16.29 0 C188.1 0.54, 361.11 0.69, 461.47 0 M461.47 0 C472.82 1.42, 476.87 5.74, 477.75 16.29 M461.47 0 C470.8 0.37, 476.17 6.63, 477.75 16.29 M477.75 16.29 C477.7 25.75, 477.92 39.42, 477.75 48.87 M477.75 16.29 C477.45 29.02, 478.78 41.37, 477.75 48.87 M477.75 48.87 C478.49 58, 471.61 65.8, 461.47 65.16 M477.75 48.87 C479.33 60.23, 472.37 66.43, 461.47 65.16 M461.47 65.16 C349.61 64.6, 236.88 66.49, 16.29 65.16 M461.47 65.16 C286.47 66.43, 110.84 66.75, 16.29 65.16 M16.29 65.16 C6.82 64.85, 1.56 61.18, 0 48.87 M16.29 65.16 C3.65 66.87, -1.22 61.93, 0 48.87 M0 48.87 C0.06 41.37, -1.01 33.93, 0 16.29 M0 48.87 C1.19 36.75, 0.85 22.91, 0 16.29 M0 16.29 C-0.14 3.79, 5.87 -1.96, 16.29 0 M0 16.29 C1.86 3.48, 3.45 0.87, 16.29 0" stroke="#e03131" stroke-width="2" fill="none"></path></g><g transform="translate(226.95087434195648 23.084927185001902) rotate(0 21.926559448242188 19.4944109528156)"><text x="21.926559448242188" y="0" font-family="Virgil, Segoe UI Emoji" font-size="31.191057524504977px" fill="#e03131" text-anchor="middle" style="white-space: pre;" direction="ltr" dominant-baseline="text-before-edge">c-p</text></g><g stroke-linecap="round" transform="translate(46.2941755851125 84.74144932402396) rotate(0 202.5832582050857 32.8613841469778)"><path d="M4.37 3.8 C4.37 3.8, 4.37 3.8, 4.37 3.8 M4.37 3.8 C4.37 3.8, 4.37 3.8, 4.37 3.8 M-0.09 21.13 C5.43 17.17, 7.18 9.82, 18.28 -0.01 M-0.09 21.13 C6.91 14.33, 12.8 6.19, 18.28 -0.01 M0.7 32.41 C8.41 22.16, 17.39 14.77, 28.91 -0.04 M0.7 32.41 C6.12 26.29, 12.64 19.18, 28.91 -0.04 M0.84 44.45 C14 28.01, 27.34 12.31, 39.54 -0.08 M0.84 44.45 C12.12 29.57, 24.78 16.43, 39.54 -0.08 M0.97 56.49 C12.36 45.03, 21.03 33.29, 49.52 0.65 M0.97 56.49 C16.65 37.56, 34.5 18.13, 49.52 0.65 M6.35 62.5 C16.18 48.78, 29.06 36.38, 60.15 0.61 M6.35 62.5 C22.75 45.48, 37.86 28.57, 60.15 0.61 M14.36 65.48 C36.26 43.17, 55.35 22.67, 70.78 0.58 M14.36 65.48 C28.43 50.24, 42.39 34.45, 70.78 0.58 M24.99 65.45 C38.52 50.46, 55.68 32.62, 81.41 0.54 M24.99 65.45 C42.19 45.48, 60.67 25.12, 81.41 0.54 M35.62 65.41 C46.15 49.56, 62.12 38.35, 92.04 0.51 M35.62 65.41 C54.66 43.13, 72.87 21.07, 92.04 0.51 M46.25 65.38 C58.3 51.06, 71.09 36.59, 102.67 0.47 M46.25 65.38 C60.6 47.52, 75.12 31.44, 102.67 0.47 M56.22 66.1 C67.9 49.38, 82.47 33.15, 113.3 0.44 M56.22 66.1 C72.4 48.28, 87.69 30.4, 113.3 0.44 M66.85 66.06 C83.33 47.03, 96.45 32.58, 123.93 0.4 M66.85 66.06 C86.3 45.83, 104.74 23.55, 123.93 0.4 M77.48 66.03 C89.22 49.99, 104.48 38.62, 134.56 0.37 M77.48 66.03 C94.57 47.57, 111.24 29.63, 134.56 0.37 M88.11 65.99 C103.52 46.28, 120.97 28.96, 145.19 0.33 M88.11 65.99 C104.98 46.6, 119.37 27.95, 145.19 0.33 M98.74 65.96 C109.26 53.74, 122.28 40.38, 155.82 0.3 M98.74 65.96 C114.12 50.57, 127.63 32.82, 155.82 0.3 M109.37 65.93 C131.27 42.2, 152.19 17.87, 166.45 0.27 M109.37 65.93 C121.59 49.54, 134.67 35.43, 166.45 0.27 M120 65.89 C134.15 50.34, 145.95 38.71, 177.08 0.23 M120 65.89 C143.86 39.97, 165.55 13.39, 177.08 0.23 M130.63 65.86 C153.9 41.01, 171.21 15.98, 187.71 0.2 M130.63 65.86 C146.19 47.45, 162.19 29.06, 187.71 0.2 M141.26 65.82 C162.38 42.07, 180.78 19.07, 198.34 0.16 M141.26 65.82 C155 52.44, 166.16 36.97, 198.34 0.16 M151.89 65.79 C170.8 44.59, 186.64 26.39, 208.97 0.13 M151.89 65.79 C164.83 49.81, 177.28 35.25, 208.97 0.13 M162.52 65.75 C178.79 47.72, 192.68 32.84, 219.6 0.09 M162.52 65.75 C185.17 40.86, 205.71 14.91, 219.6 0.09 M173.15 65.72 C191.88 42.54, 211.3 21.21, 230.23 0.06 M173.15 65.72 C190.28 45.18, 207.79 24.23, 230.23 0.06 M183.78 65.68 C199.92 47.47, 216.18 26.19, 240.2 0.78 M183.78 65.68 C205.32 40.96, 228.78 16.15, 240.2 0.78 M194.41 65.65 C204.83 50.57, 220.78 36.98, 250.83 0.74 M194.41 65.65 C208.36 48.97, 220.88 35.07, 250.83 0.74 M205.04 65.61 C223.87 44.18, 242.2 24.79, 261.46 0.71 M205.04 65.61 C222.15 45.72, 238.84 26.84, 261.46 0.71 M215.67 65.58 C229.6 49.92, 247.88 30.33, 272.09 0.68 M215.67 65.58 C236.14 43.8, 254.54 21.19, 272.09 0.68 M226.3 65.55 C243.26 45.35, 258.52 28.06, 282.72 0.64 M226.3 65.55 C241.37 48.27, 255.31 32.03, 282.72 0.64 M236.93 65.51 C258.47 39.14, 278.42 17.81, 293.35 0.61 M236.93 65.51 C253.61 47.47, 270.47 28.38, 293.35 0.61 M246.91 66.23 C269.56 39.99, 292.62 14.65, 303.98 0.57 M246.91 66.23 C264.61 44.43, 284.1 23.13, 303.98 0.57 M257.54 66.2 C279.85 40.01, 301.19 17.06, 314.61 0.54 M257.54 66.2 C275.63 45.05, 292.42 25.28, 314.61 0.54 M268.17 66.16 C289.24 43.38, 306.42 20.96, 325.24 0.5 M268.17 66.16 C282.84 49.42, 298.95 31.46, 325.24 0.5 M278.8 66.13 C296.7 48.87, 309.96 28.07, 335.87 0.47 M278.8 66.13 C299.21 43.02, 319.77 19.05, 335.87 0.47 M289.43 66.09 C309.97 44.44, 331.59 21.22, 346.5 0.43 M289.43 66.09 C309.1 43.51, 330.5 19.74, 346.5 0.43 M300.06 66.06 C316.02 47.03, 333.07 28.18, 357.13 0.4 M300.06 66.06 C313.19 52.88, 325.74 37.39, 357.13 0.4 M310.69 66.02 C324.11 49.21, 336.3 33.89, 367.76 0.36 M310.69 66.02 C332.66 42.67, 353.01 17.67, 367.76 0.36 M321.32 65.99 C339.8 42.45, 362.14 18.67, 378.39 0.33 M321.32 65.99 C342.5 42.28, 360.41 19.4, 378.39 0.33 M331.95 65.96 C355.41 38.59, 379.47 12.03, 389.02 0.3 M331.95 65.96 C343.56 51.35, 357 38.58, 389.02 0.3 M342.58 65.92 C361.77 41.93, 382.12 18.9, 397.69 2.53 M342.58 65.92 C356.51 51.88, 367.67 36.36, 397.69 2.53 M353.21 65.89 C366.2 50.16, 382.3 34.04, 403.07 8.53 M353.21 65.89 C366.83 49.94, 378.71 35.34, 403.07 8.53 M363.84 65.85 C372.7 56.14, 382.06 45.03, 405.17 18.31 M363.84 65.85 C375.43 53.97, 384.32 41.64, 405.17 18.31 M374.47 65.82 C384.12 51.96, 396.63 39.24, 405.3 30.35 M374.47 65.82 C382.77 56.61, 390.6 49.02, 405.3 30.35 M385.1 65.78 C391.14 62.9, 395.13 56.81, 405.44 42.39 M385.1 65.78 C390.2 61.04, 393.79 55.25, 405.44 42.39 M396.38 64.99 C397.64 61.91, 401.35 60.88, 403.6 56.69 M396.38 64.99 C399.35 62.42, 401.01 59.03, 403.6 56.69" stroke="#b2f2bb" stroke-width="1" fill="none"></path><path d="M16.43 0 C136.2 -0.48, 253.34 -0.95, 388.74 0 M16.43 0 C100.46 1.46, 183.92 1.12, 388.74 0 M388.74 0 C398.36 0.32, 403.79 6.52, 405.17 16.43 M388.74 0 C400.3 0.43, 407.1 5.35, 405.17 16.43 M405.17 16.43 C406.98 25.85, 406.54 31.22, 405.17 49.29 M405.17 16.43 C405.79 25.51, 405.07 36.63, 405.17 49.29 M405.17 49.29 C406.53 60.68, 399.73 66.83, 388.74 65.72 M405.17 49.29 C404.05 61.24, 400.1 65.72, 388.74 65.72 M388.74 65.72 C314.03 67.33, 237.91 68.9, 16.43 65.72 M388.74 65.72 C301.89 65.6, 214.67 66.14, 16.43 65.72 M16.43 65.72 C3.93 67.21, -1.06 62.16, 0 49.29 M16.43 65.72 C4.45 63.49, 2.17 59.95, 0 49.29 M0 49.29 C1.88 36.32, 2.21 28.7, 0 16.43 M0 49.29 C-0.25 37.41, 0.03 26.19, 0 16.43 M0 16.43 C1.62 3.78, 3.75 0.76, 16.43 0 M0 16.43 C-1.14 6.23, 7.65 -2.08, 16.43 0" stroke="#2f9e44" stroke-width="2" fill="none"></path></g><g transform="translate(241.04874421500244 98.1084225181861) rotate(0 7.8286895751953125 19.4944109528156)"><text x="7.8286895751953125" y="0" font-family="Virgil, Segoe UI Emoji" font-size="31.191057524504977px" fill="#2f9e44" text-anchor="middle" style="white-space: pre;" direction="ltr" dominant-baseline="text-before-edge">c</text></g><g stroke-linecap="round" transform="translate(92.00026226678165 163.05859270927192) rotate(0 156.8771715234161 32.57933813781756)"><path d="M4.34 3.77 C4.34 3.77, 4.34 3.77, 4.34 3.77 M4.34 3.77 C4.34 3.77, 4.34 3.77, 4.34 3.77 M-0.12 21.09 C7.07 12.22, 13.42 7.91, 18.25 -0.04 M-0.12 21.09 C6.17 12.96, 13.72 5.85, 18.25 -0.04 M0.67 32.38 C4.55 25.37, 10.84 17.44, 28.22 0.68 M0.67 32.38 C11.83 20.02, 22.22 7.75, 28.22 0.68 M0.8 44.42 C12.15 33.48, 21.42 18.29, 38.85 0.65 M0.8 44.42 C8.13 35.85, 17.59 26.64, 38.85 0.65 M0.93 56.46 C18.21 39.26, 31.82 17.86, 49.48 0.61 M0.93 56.46 C12.43 42.96, 25.69 26.56, 49.48 0.61 M6.31 62.46 C22.6 42.17, 37.8 26.06, 60.11 0.58 M6.31 62.46 C23.55 41.8, 39.48 23.57, 60.11 0.58 M14.32 65.45 C29.4 44.42, 45.68 26.28, 70.74 0.54 M14.32 65.45 C32.16 44.6, 50.21 22.84, 70.74 0.54 M24.95 65.41 C46.04 39.7, 66.72 15.08, 81.37 0.51 M24.95 65.41 C39.55 47.61, 56.99 28.37, 81.37 0.51 M35.58 65.38 C48.92 48.58, 61.42 33.94, 92 0.47 M35.58 65.38 C49.13 50.97, 64.69 34.38, 92 0.47 M46.21 65.34 C62.48 46.28, 80.61 25.2, 102.63 0.44 M46.21 65.34 C57.19 53.29, 69.36 38.39, 102.63 0.44 M56.84 65.31 C72.39 48.42, 86.57 30.98, 113.26 0.41 M56.84 65.31 C71.47 47.88, 87.4 31.12, 113.26 0.41 M67.47 65.28 C79.52 51.2, 90.35 40.05, 123.89 0.37 M67.47 65.28 C88.03 39.52, 110.02 14.32, 123.89 0.37 M78.1 65.24 C89.12 49.79, 99.85 38.37, 134.52 0.34 M78.1 65.24 C94.56 45.56, 110.96 25.51, 134.52 0.34 M88.73 65.21 C99.27 52.76, 112.56 41.11, 145.15 0.3 M88.73 65.21 C102.87 49.49, 119 31.7, 145.15 0.3 M99.36 65.17 C119.31 38.37, 141.97 17.11, 155.78 0.27 M99.36 65.17 C122.45 39.08, 144.08 14.09, 155.78 0.27 M109.99 65.14 C128.26 43.8, 150.55 18.72, 166.41 0.23 M109.99 65.14 C123.06 49.18, 136.23 34.94, 166.41 0.23 M119.96 65.86 C133.28 50.56, 142.15 40.26, 177.04 0.2 M119.96 65.86 C136.14 48.43, 151.79 31.83, 177.04 0.2 M130.59 65.82 C148.09 44.99, 164.33 24.71, 187.67 0.16 M130.59 65.82 C146.19 50.19, 160.75 33.35, 187.67 0.16 M141.22 65.79 C155.83 46.36, 172.69 30.2, 198.3 0.13 M141.22 65.79 C164.61 38.87, 187.9 13.8, 198.3 0.13 M151.85 65.75 C165.33 49.89, 182.45 31.95, 208.93 0.09 M151.85 65.75 C166.61 48.74, 180.86 32.41, 208.93 0.09 M162.48 65.72 C179.04 47.2, 191.54 32.15, 218.91 0.82 M162.48 65.72 C181.14 44.87, 197.86 24.92, 218.91 0.82 M173.11 65.69 C185.19 52.12, 197.25 37.62, 229.54 0.78 M173.11 65.69 C189.74 48.2, 206.78 28.89, 229.54 0.78 M183.75 65.65 C205.99 40.92, 223.27 17.29, 240.17 0.75 M183.75 65.65 C199.69 46.55, 217.96 25.07, 240.17 0.75 M194.38 65.62 C208.16 48.67, 226.24 31.41, 250.8 0.71 M194.38 65.62 C206.02 52.07, 217.78 39.24, 250.8 0.71 M205.01 65.58 C220.2 48.79, 237.17 30.51, 261.43 0.68 M205.01 65.58 C222.66 44.15, 241.24 22.97, 261.43 0.68 M215.64 65.55 C238.35 39.41, 258.71 15.35, 272.06 0.64 M215.64 65.55 C237.21 41.74, 257.1 16.96, 272.06 0.64 M226.27 65.51 C240.4 48.83, 256.99 33.43, 282.69 0.61 M226.27 65.51 C241.54 48.33, 256.18 31.7, 282.69 0.61 M236.9 65.48 C249.18 51.56, 260.52 37.91, 293.32 0.57 M236.9 65.48 C257.56 40.89, 276.42 18.53, 293.32 0.57 M247.53 65.44 C260.35 51.51, 273.52 34.87, 303.29 1.29 M247.53 65.44 C264.78 46.51, 281.11 28.06, 303.29 1.29 M258.16 65.41 C268.5 53.68, 280.06 42.02, 309.98 5.79 M258.16 65.41 C271.83 51.29, 283.96 36.42, 309.98 5.79 M268.79 65.38 C280.68 49.44, 294.18 35.1, 313.4 14.06 M268.79 65.38 C283.75 46.91, 298.81 30.71, 313.4 14.06 M279.42 65.34 C293.21 51.57, 302.44 36.9, 313.53 26.1 M279.42 65.34 C291.44 51.79, 302.01 39.34, 313.53 26.1 M290.05 65.31 C299.76 55.13, 307.76 43.71, 313.66 38.14 M290.05 65.31 C298.84 54.75, 307.33 44.14, 313.66 38.14 M301.33 64.52 C303.08 59.09, 307.31 57.13, 313.8 50.18 M301.33 64.52 C305.63 58.99, 310.7 53.19, 313.8 50.18" stroke="#b2f2bb" stroke-width="1" fill="none"></path><path d="M16.29 0 C88.06 3.02, 161.43 2.08, 297.46 0 M16.29 0 C120.16 -0.21, 224.53 0.06, 297.46 0 M297.46 0 C308.85 0.38, 315.43 5.32, 313.75 16.29 M297.46 0 C306.98 0.11, 315.9 7.5, 313.75 16.29 M313.75 16.29 C314.03 30.05, 313.33 41.41, 313.75 48.87 M313.75 16.29 C314.32 23.47, 313.66 30.76, 313.75 48.87 M313.75 48.87 C312.78 60.59, 308.68 65.15, 297.46 65.16 M313.75 48.87 C311.54 57.66, 310.54 67.32, 297.46 65.16 M297.46 65.16 C225.65 67.33, 155.83 67.95, 16.29 65.16 M297.46 65.16 C216.9 67.29, 137.12 67.45, 16.29 65.16 M16.29 65.16 C4.53 63.21, 1.89 59.48, 0 48.87 M16.29 65.16 C6.37 63.63, 1.94 61.64, 0 48.87 M0 48.87 C0.41 43.1, -2.32 34.96, 0 16.29 M0 48.87 C0.74 40.92, -0.93 35.04, 0 16.29 M0 16.29 C-0.99 6.08, 7.32 -1.81, 16.29 0 M0 16.29 C0.13 5.26, 7.39 1.95, 16.29 0" stroke="#2f9e44" stroke-width="2" fill="none"></path></g><g transform="translate(240.4093551769165 176.14351989427382) rotate(0 8.46807861328125 19.4944109528156)"><text x="8.46807861328125" y="0" font-family="Virgil, Segoe UI Emoji" font-size="31.191057524504977px" fill="#2f9e44" text-anchor="middle" style="white-space: pre;" direction="ltr" dominant-baseline="text-before-edge">s</text></g><g stroke-linecap="round" transform="translate(122.21857098582586 235.38409127114653) rotate(0 126.6588628043728 29.89194001479933)"><path d="M3.98 3.46 C3.98 3.46, 3.98 3.46, 3.98 3.46 M3.98 3.46 C3.98 3.46, 3.98 3.46, 3.98 3.46 M0.18 20.03 C4.8 15.82, 6.66 11.19, 17.23 0.4 M0.18 20.03 C3.55 16.01, 8.37 9.21, 17.23 0.4 M0.96 31.31 C10.26 21.98, 17.73 15.37, 27.86 0.37 M0.96 31.31 C8.38 21.91, 16.22 13.77, 27.86 0.37 M1.1 43.35 C13.3 26.95, 29.16 10.24, 38.49 0.34 M1.1 43.35 C15.07 27.02, 29.01 11.64, 38.49 0.34 M2.54 53.89 C20.37 35.18, 37.64 11.01, 48.47 1.06 M2.54 53.89 C20.26 33.61, 38.57 13.76, 48.47 1.06 M9.24 58.38 C22.18 45.2, 35.7 30.96, 59.1 1.02 M9.24 58.38 C21.99 44.31, 35.45 28.8, 59.1 1.02 M18.55 59.85 C31.4 46.17, 43.54 31.66, 69.73 0.99 M18.55 59.85 C36.61 41.38, 53.07 21.25, 69.73 0.99 M29.18 59.82 C42.08 46.4, 54.35 28.28, 80.36 0.95 M29.18 59.82 C44.13 42.81, 61.63 23.72, 80.36 0.95 M39.81 59.79 C51.39 43.5, 63.46 29.07, 90.99 0.92 M39.81 59.79 C59.75 36.78, 79.9 12.35, 90.99 0.92 M50.44 59.75 C66.2 38.97, 85.56 17.98, 101.62 0.88 M50.44 59.75 C70.27 36.37, 90.42 13.49, 101.62 0.88 M61.07 59.72 C78.91 39.47, 97.17 17.45, 112.25 0.85 M61.07 59.72 C75.74 41.19, 92.77 23.25, 112.25 0.85 M71.7 59.68 C87.57 44.84, 99.41 25.45, 122.88 0.81 M71.7 59.68 C83.05 46.99, 96.53 32.59, 122.88 0.81 M82.33 59.65 C93.88 47.72, 106.8 33.43, 133.51 0.78 M82.33 59.65 C99.21 40.43, 117.04 19.54, 133.51 0.78 M92.31 60.37 C107.43 39.35, 123.59 20.21, 144.14 0.75 M92.31 60.37 C112 38.71, 131.31 15.63, 144.14 0.75 M102.94 60.33 C115.31 47.9, 122.86 37.21, 154.77 0.71 M102.94 60.33 C115.37 46.31, 127.51 32.04, 154.77 0.71 M113.57 60.3 C130.99 36.84, 152.56 14.93, 165.4 0.68 M113.57 60.3 C127.2 44.31, 142.49 28.67, 165.4 0.68 M124.2 60.26 C135.36 46.63, 145.48 34.9, 176.03 0.64 M124.2 60.26 C138.19 42.09, 152.38 26.16, 176.03 0.64 M134.83 60.23 C146.93 44.68, 159.45 32.76, 186.66 0.61 M134.83 60.23 C154.42 36.68, 174.55 12.86, 186.66 0.61 M145.46 60.2 C160.78 43.14, 172.16 29.82, 197.29 0.57 M145.46 60.2 C157.09 45.44, 170.37 30.77, 197.29 0.57 M156.09 60.16 C173.81 36.99, 194.07 15.96, 207.92 0.54 M156.09 60.16 C171.39 42.08, 188.04 25.61, 207.92 0.54 M166.72 60.13 C180 43.27, 191.3 31.01, 218.55 0.5 M166.72 60.13 C177.6 47.13, 189.18 34.25, 218.55 0.5 M177.35 60.09 C191.42 42.28, 204.55 27.03, 228.52 1.22 M177.35 60.09 C196.47 38.16, 214.3 17.34, 228.52 1.22 M187.98 60.06 C199.93 48.82, 212.07 32.62, 239.15 1.19 M187.98 60.06 C207.6 38.34, 228.05 13.76, 239.15 1.19 M198.61 60.02 C213.97 39.48, 234.56 19.41, 247.81 3.42 M198.61 60.02 C212.88 43.42, 228.29 25.87, 247.81 3.42 M209.24 59.99 C225.01 41.73, 242.35 22.89, 252.54 10.18 M209.24 59.99 C222.26 47.15, 233.37 32.71, 252.54 10.18 M219.87 59.95 C230.38 47.79, 239.58 39.41, 252.67 22.22 M219.87 59.95 C232.19 44.77, 245.86 30.98, 252.67 22.22 M230.5 59.92 C236.73 52.26, 244.48 44.78, 252.81 34.26 M230.5 59.92 C235.65 52.33, 243.31 45.65, 252.81 34.26 M241.79 59.13 C246.45 56.29, 249.75 52.27, 252.94 46.3 M241.79 59.13 C243.53 57.07, 245.73 54.12, 252.94 46.3" stroke="#ffc9c9" stroke-width="1" fill="none"></path><path d="M14.95 0 C102.51 -1.24, 187.89 -1.63, 238.37 0 M14.95 0 C85.81 -0.84, 156.94 -1.05, 238.37 0 M238.37 0 C247.17 0.1, 255.18 6.78, 253.32 14.95 M238.37 0 C250.04 1.56, 252.07 5.04, 253.32 14.95 M253.32 14.95 C251.49 25.54, 253.86 38.92, 253.32 44.84 M253.32 14.95 C252.84 25, 253.5 34.19, 253.32 44.84 M253.32 44.84 C251.39 53, 250.26 61.66, 238.37 59.78 M253.32 44.84 C252.21 56.48, 250.18 58.28, 238.37 59.78 M238.37 59.78 C164.52 62.46, 92.46 59.79, 14.95 59.78 M238.37 59.78 C154.29 60.79, 71.8 61.52, 14.95 59.78 M14.95 59.78 C5.8 58.46, 1.69 56.47, 0 44.84 M14.95 59.78 C2.94 62.08, 2.08 55.64, 0 44.84 M0 44.84 C-1.34 34.63, -1.67 25.18, 0 14.95 M0 44.84 C-0.24 38.74, 1.2 31.08, 0 14.95 M0 14.95 C0.12 4.83, 6.68 1.69, 14.95 0 M0 14.95 C-0.95 3.47, 6.44 -0.03, 14.95 0" stroke="#e03131" stroke-width="2" fill="none"></path></g><g transform="translate(226.31148530387054 245.78162033313026) rotate(0 22.565948486328125 19.4944109528156)"><text x="22.565948486328125" y="0" font-family="Virgil, Segoe UI Emoji" font-size="31.191057524504977px" fill="#e03131" text-anchor="middle" style="white-space: pre;" direction="ltr" dominant-baseline="text-before-edge">s-p</text></g><g stroke-linecap="round" transform="translate(778.7533719675748 503.684910295912) rotate(0 202.5832582050857 32.8613841469778)"><path d="M4.37 3.8 C4.37 3.8, 4.37 3.8, 4.37 3.8 M4.37 3.8 C4.37 3.8, 4.37 3.8, 4.37 3.8 M-0.09 21.13 C4.39 15.89, 10.94 7.12, 18.28 -0.01 M-0.09 21.13 C7.13 12.24, 13.86 5.2, 18.28 -0.01 M0.7 32.41 C7.41 24.96, 14.15 15.33, 28.91 -0.04 M0.7 32.41 C8.23 23.98, 13.62 15.77, 28.91 -0.04 M0.84 44.45 C12.13 34.49, 22.09 22.63, 39.54 -0.08 M0.84 44.45 C12.62 30.59, 22.41 18.47, 39.54 -0.08 M0.97 56.49 C22.21 34.29, 37.97 12.81, 49.52 0.65 M0.97 56.49 C12.13 41.86, 25.63 28.76, 49.52 0.65 M6.35 62.5 C24.17 38.55, 46.48 17.57, 60.15 0.61 M6.35 62.5 C24.88 39.27, 45.19 17.44, 60.15 0.61 M14.36 65.48 C31.62 45.16, 46.9 28.51, 70.78 0.58 M14.36 65.48 C34.84 40.82, 56 16.61, 70.78 0.58 M24.99 65.45 C46.56 43.32, 65.54 16.47, 81.41 0.54 M24.99 65.45 C46.48 39.26, 69.36 12.8, 81.41 0.54 M35.62 65.41 C49.92 54.17, 60.27 38.96, 92.04 0.51 M35.62 65.41 C56.4 42.32, 76.12 18.12, 92.04 0.51 M46.25 65.38 C63.9 48.15, 75.96 29.19, 102.67 0.47 M46.25 65.38 C60.51 48.87, 74.41 33.92, 102.67 0.47 M56.22 66.1 C75.5 44.92, 96.15 20.59, 113.3 0.44 M56.22 66.1 C73.1 45.83, 91.57 26.9, 113.3 0.44 M66.85 66.06 C87.63 39.82, 109.62 14.03, 123.93 0.4 M66.85 66.06 C86.19 41.83, 107.81 18.75, 123.93 0.4 M77.48 66.03 C97.69 41.48, 116.72 18.17, 134.56 0.37 M77.48 66.03 C99.23 42.49, 121.18 16.86, 134.56 0.37 M88.11 65.99 C102.29 53.54, 112.56 39.6, 145.19 0.33 M88.11 65.99 C105.81 44.42, 126.56 23.15, 145.19 0.33 M98.74 65.96 C114.95 45.79, 133.61 26.81, 155.82 0.3 M98.74 65.96 C115.02 48.72, 129.64 28.96, 155.82 0.3 M109.37 65.93 C120.43 50.56, 134.65 36.81, 166.45 0.27 M109.37 65.93 C128.33 41.91, 149.92 19.12, 166.45 0.27 M120 65.89 C137.27 47.72, 156.64 26.35, 177.08 0.23 M120 65.89 C131.22 51.95, 142.61 38.88, 177.08 0.23 M130.63 65.86 C145.52 51.81, 158.22 35.68, 187.71 0.2 M130.63 65.86 C147.12 46.47, 165.19 28.45, 187.71 0.2 M141.26 65.82 C152.4 52.53, 167.18 36.27, 198.34 0.16 M141.26 65.82 C157.33 48.64, 172.54 29.56, 198.34 0.16 M151.89 65.79 C164.89 49.33, 179.16 34.67, 208.97 0.13 M151.89 65.79 C166.29 47.13, 182.8 29.63, 208.97 0.13 M162.52 65.75 C173.1 50.64, 185.77 36.66, 219.6 0.09 M162.52 65.75 C179.28 46.94, 195.32 27.64, 219.6 0.09 M173.15 65.72 C187.89 52.56, 199.35 37.52, 230.23 0.06 M173.15 65.72 C189.21 45.55, 205.64 27.32, 230.23 0.06 M183.78 65.68 C206.5 42.39, 224.26 17.01, 240.2 0.78 M183.78 65.68 C206.32 41.21, 228.79 14.24, 240.2 0.78 M194.41 65.65 C211.53 46.33, 229.84 24.87, 250.83 0.74 M194.41 65.65 C215.1 43.04, 235.18 19.12, 250.83 0.74 M205.04 65.61 C221.15 46.65, 237.29 28.35, 261.46 0.71 M205.04 65.61 C226.91 39.49, 249.76 15.29, 261.46 0.71 M215.67 65.58 C228.68 49.74, 239.32 37.03, 272.09 0.68 M215.67 65.58 C227.1 52.91, 239.47 38.38, 272.09 0.68 M226.3 65.55 C244.93 44.44, 264.69 19.59, 282.72 0.64 M226.3 65.55 C240.29 48.76, 254.66 33.52, 282.72 0.64 M236.93 65.51 C256.02 39.29, 279.38 14.61, 293.35 0.61 M236.93 65.51 C258.26 42.06, 277.93 17.74, 293.35 0.61 M246.91 66.23 C263.84 47.56, 281.69 25.6, 303.98 0.57 M246.91 66.23 C269.99 40.67, 292.95 13.62, 303.98 0.57 M257.54 66.2 C274.25 47.82, 289.44 31.06, 314.61 0.54 M257.54 66.2 C272.38 48.6, 288 31.04, 314.61 0.54 M268.17 66.16 C286.38 42.46, 309.21 21.68, 325.24 0.5 M268.17 66.16 C280.25 51.48, 291.64 39.11, 325.24 0.5 M278.8 66.13 C291.69 49.33, 306.78 34.97, 335.87 0.47 M278.8 66.13 C299.73 41.41, 320.43 17.54, 335.87 0.47 M289.43 66.09 C309.26 41.56, 329.05 19.19, 346.5 0.43 M289.43 66.09 C306.9 45.39, 325.99 25.85, 346.5 0.43 M300.06 66.06 C318.76 44.4, 336.8 22.77, 357.13 0.4 M300.06 66.06 C313.09 50.44, 326.95 36.68, 357.13 0.4 M310.69 66.02 C327.57 44.23, 345.71 22.67, 367.76 0.36 M310.69 66.02 C329.17 44.97, 349.53 22.21, 367.76 0.36 M321.32 65.99 C331.28 52.87, 344.88 37.91, 378.39 0.33 M321.32 65.99 C343.44 41.18, 365.25 15.02, 378.39 0.33 M331.95 65.96 C351.37 45.21, 369.53 20.67, 389.02 0.3 M331.95 65.96 C347.81 47.98, 365.93 29.2, 389.02 0.3 M342.58 65.92 C355.66 54.18, 364.83 40.45, 397.69 2.53 M342.58 65.92 C360.67 45.02, 379.42 23.04, 397.69 2.53 M353.21 65.89 C365.33 49.82, 377.32 38.65, 403.07 8.53 M353.21 65.89 C363.4 54.13, 375.22 41.82, 403.07 8.53 M363.84 65.85 C373.11 56.08, 379.19 45.17, 405.17 18.31 M363.84 65.85 C378 50.14, 392.78 33.53, 405.17 18.31 M374.47 65.82 C384.33 53.22, 399.14 41.32, 405.3 30.35 M374.47 65.82 C385.45 53.25, 397.95 39.99, 405.3 30.35 M385.1 65.78 C390.36 60.29, 393.09 53.63, 405.44 42.39 M385.1 65.78 C392.61 56.33, 401.51 48.1, 405.44 42.39 M396.38 64.99 C397.3 62.66, 400.12 62.44, 403.6 56.69 M396.38 64.99 C399.5 61.78, 402.65 58.19, 403.6 56.69" stroke="#a5d8ff" stroke-width="1" fill="none"></path><path d="M16.43 0 C111.9 0.67, 207.62 1.84, 388.74 0 M16.43 0 C134.75 0.16, 254.35 0.68, 388.74 0 M388.74 0 C401.18 1.36, 404.08 5.53, 405.17 16.43 M388.74 0 C401.49 -0.74, 406.01 3.49, 405.17 16.43 M405.17 16.43 C405.71 25.16, 406.38 32.83, 405.17 49.29 M405.17 16.43 C404.26 26.8, 406.19 39.92, 405.17 49.29 M405.17 49.29 C404.2 61.7, 401.29 64.41, 388.74 65.72 M405.17 49.29 C405.84 60.22, 401.29 65.36, 388.74 65.72 M388.74 65.72 C248.94 63.31, 108.48 63.41, 16.43 65.72 M388.74 65.72 C313.52 65.03, 238.31 65.94, 16.43 65.72 M16.43 65.72 C3.71 67.72, 1.81 60.98, 0 49.29 M16.43 65.72 C6.76 63.43, -0.16 58.36, 0 49.29 M0 49.29 C-1.38 36.99, 1.08 27.16, 0 16.43 M0 49.29 C-0.25 38.29, 0.54 28.28, 0 16.43 M0 16.43 C-0.82 4.16, 6.75 -0.02, 16.43 0 M0 16.43 C-1.62 3.49, 4.69 1.25, 16.43 0" stroke="#1971c2" stroke-width="2" fill="none"></path></g><g transform="translate(940.6804869841835 517.0518834900743) rotate(0 40.65614318847656 19.4944109528156)"><text x="40.65614318847656" y="0" font-family="Virgil, Segoe UI Emoji" font-size="31.191057524504977px" fill="#1971c2" text-anchor="middle" style="white-space: pre;" direction="ltr" dominant-baseline="text-before-edge">s-app</text></g><g stroke-linecap="round" transform="translate(824.459458649244 582.0020536811602) rotate(0 156.8771715234161 32.57933813781756)"><path d="M4.34 3.77 C4.34 3.77, 4.34 3.77, 4.34 3.77 M4.34 3.77 C4.34 3.77, 4.34 3.77, 4.34 3.77 M2.5 18.07 C9.63 11.48, 11.18 5.91, 17.59 0.72 M2.5 18.07 C5.82 14.55, 10.47 9.48, 17.59 0.72 M2.63 30.12 C10.51 19.69, 20.99 10.95, 28.22 0.68 M2.63 30.12 C8.73 23.25, 14.6 16.54, 28.22 0.68 M2.77 42.16 C15.11 28.09, 29.13 14.16, 38.85 0.65 M2.77 42.16 C11.17 33.12, 16.79 26.29, 38.85 0.65 M0.93 56.46 C13.75 42.72, 27.73 24.71, 49.48 0.61 M0.93 56.46 C12.22 44.44, 23.22 30.29, 49.48 0.61 M6.31 62.46 C19.31 50.44, 29.05 33.06, 59.45 1.33 M6.31 62.46 C18.46 48.8, 30.14 34.91, 59.45 1.33 M13.66 66.2 C29.15 50.68, 41.49 33.39, 70.08 1.3 M13.66 66.2 C29.9 48.17, 43.63 31.35, 70.08 1.3 M24.29 66.17 C47.95 43.89, 67.77 16.9, 80.71 1.26 M24.29 66.17 C40.22 46.41, 57 29.03, 80.71 1.26 M34.92 66.13 C58.01 40.36, 78.15 16.17, 91.34 1.23 M34.92 66.13 C51.36 47.41, 67.67 29.38, 91.34 1.23 M45.55 66.1 C63.24 44.63, 82.24 25.08, 101.97 1.19 M45.55 66.1 C56.72 53.14, 67.3 40.27, 101.97 1.19 M56.18 66.07 C74.09 46.12, 92.84 23.77, 112.61 1.16 M56.18 66.07 C72.52 46.93, 86.91 28.01, 112.61 1.16 M66.81 66.03 C81.51 52.91, 93.06 34.93, 123.24 1.13 M66.81 66.03 C80.7 51.38, 93.49 35.33, 123.24 1.13 M77.44 66 C91.18 51.42, 101.61 38.74, 133.87 1.09 M77.44 66 C97.38 41.14, 118.59 17.86, 133.87 1.09 M88.07 65.96 C109.4 43.64, 128.02 16.69, 144.5 1.06 M88.07 65.96 C105.64 44.23, 124.32 23.44, 144.5 1.06 M98.7 65.93 C115.39 47.16, 131.57 27.69, 155.13 1.02 M98.7 65.93 C119.37 42.55, 140.56 17.36, 155.13 1.02 M109.33 65.89 C121.15 54.12, 133.36 38.8, 165.76 0.99 M109.33 65.89 C122.94 48.81, 137.82 33.3, 165.76 0.99 M119.96 65.86 C139.46 39.85, 163.06 13.92, 176.39 0.95 M119.96 65.86 C132.63 50.79, 146.8 37.29, 176.39 0.95 M130.59 65.82 C149.77 42.92, 168.1 19.45, 187.02 0.92 M130.59 65.82 C143.95 48.57, 159.45 30.98, 187.02 0.92 M140.57 66.54 C159.9 44.56, 179.2 21.67, 197.65 0.88 M140.57 66.54 C160.01 43.8, 180.57 20.28, 197.65 0.88 M151.2 66.51 C163.53 53.55, 178.91 35.39, 208.28 0.85 M151.2 66.51 C165.6 47.85, 182.46 29.71, 208.28 0.85 M161.83 66.47 C175 50.48, 188.57 36.36, 218.91 0.82 M161.83 66.47 C179.8 44.69, 198.8 25.12, 218.91 0.82 M172.46 66.44 C193.75 40.31, 217.25 15.03, 229.54 0.78 M172.46 66.44 C186.9 51.69, 198.53 37.07, 229.54 0.78 M183.09 66.41 C204.05 45.52, 219.58 24.85, 239.51 1.5 M183.09 66.41 C202.8 44.2, 223.13 20.39, 239.51 1.5 M193.72 66.37 C214.03 45, 232.28 23.19, 250.14 1.47 M193.72 66.37 C214.65 42.87, 235.48 17.35, 250.14 1.47 M204.35 66.34 C225.02 44.33, 242.63 22.85, 260.77 1.43 M204.35 66.34 C217.48 50.31, 232.73 33.75, 260.77 1.43 M214.98 66.3 C224.43 55.21, 236.69 40.89, 271.4 1.4 M214.98 66.3 C235.23 42.96, 256.01 19.33, 271.4 1.4 M225.61 66.27 C244.99 44.56, 266.2 20.19, 282.03 1.36 M225.61 66.27 C240.31 50.07, 254.53 32.38, 282.03 1.36 M236.24 66.23 C250.89 49.65, 263.46 36.13, 292.66 1.33 M236.24 66.23 C256.48 43.68, 276.97 20.99, 292.66 1.33 M246.87 66.2 C267.56 43.83, 285.08 22.85, 302.63 2.05 M246.87 66.2 C265.8 43.96, 286.27 22.16, 302.63 2.05 M257.5 66.16 C270 50.42, 283.41 33.33, 310.64 5.03 M257.5 66.16 C274.85 46.66, 290.62 27.2, 310.64 5.03 M268.13 66.13 C277.88 51.12, 292.97 38.45, 315.37 11.79 M268.13 66.13 C278.06 54.36, 289.43 41.8, 315.37 11.79 M278.76 66.1 C290.62 55.32, 300.65 42.05, 315.5 23.83 M278.76 66.1 C291.11 52.89, 302.02 39.13, 315.5 23.83 M289.39 66.06 C295.76 58.55, 299.75 50.67, 315.63 35.87 M289.39 66.06 C296.54 57.57, 302.67 49.89, 315.63 35.87 M299.36 66.78 C302.21 60.78, 309.42 56.57, 316.42 47.16 M299.36 66.78 C303.73 61.41, 308.3 55.92, 316.42 47.16" stroke="#a5d8ff" stroke-width="1" fill="none"></path><path d="M16.29 0 C81.61 0.72, 146.28 -1.46, 297.46 0 M16.29 0 C102.61 -1.41, 187.37 -1.91, 297.46 0 M297.46 0 C309.89 -0.65, 314.49 3.7, 313.75 16.29 M297.46 0 C307.51 0.74, 315.32 5.93, 313.75 16.29 M313.75 16.29 C314.8 26.48, 313.93 34.04, 313.75 48.87 M313.75 16.29 C313.59 23.86, 314.87 29.32, 313.75 48.87 M313.75 48.87 C314.34 59.71, 309.72 64.85, 297.46 65.16 M313.75 48.87 C315.55 61.4, 306.54 66.87, 297.46 65.16 M297.46 65.16 C226.48 65.64, 158.28 64.82, 16.29 65.16 M297.46 65.16 C231.06 67.71, 166.71 67.23, 16.29 65.16 M16.29 65.16 C6.55 63.17, -0.14 58.09, 0 48.87 M16.29 65.16 C5.93 62.9, 1.86 57.77, 0 48.87 M0 48.87 C0.53 43.8, -1.93 35.06, 0 16.29 M0 48.87 C-0.69 38.68, 0.36 29.8, 0 16.29 M0 16.29 C-1.41 3.7, 4.75 1.09, 16.29 0 M0 16.29 C-1.26 5.54, 5.12 -1.81, 16.29 0" stroke="#1971c2" stroke-width="2" fill="none"></path></g><g transform="translate(941.3198760222695 595.0869808661621) rotate(0 40.016754150390625 19.494410952815613)"><text x="40.016754150390625" y="0" font-family="Virgil, Segoe UI Emoji" font-size="31.191057524504977px" fill="#1971c2" text-anchor="middle" style="white-space: pre;" direction="ltr" dominant-baseline="text-before-edge">c-app</text></g><g stroke-linecap="round" transform="translate(778.7533719675748 111.2865161313565) rotate(0 202.5832582050857 32.8613841469778)"><path d="M4.37 3.8 C4.37 3.8, 4.37 3.8, 4.37 3.8 M4.37 3.8 C4.37 3.8, 4.37 3.8, 4.37 3.8 M2.54 18.11 C7.24 15.51, 8.77 11.57, 17.63 0.75 M2.54 18.11 C6.48 13.78, 11.25 8.46, 17.63 0.75 M2.67 30.15 C9 21.92, 15.83 18.2, 28.26 0.71 M2.67 30.15 C12.51 19.68, 22.47 7.38, 28.26 0.71 M2.8 42.19 C11.01 29.34, 23.74 19.32, 38.89 0.68 M2.8 42.19 C11.22 33.42, 17.51 24.08, 38.89 0.68 M2.94 54.23 C22.09 34.74, 36.89 12.2, 49.52 0.65 M2.94 54.23 C22.41 32.13, 39.2 10.73, 49.52 0.65 M7.01 61.74 C22.56 43.65, 37.56 25.99, 60.15 0.61 M7.01 61.74 C20.23 46.04, 32.82 30.28, 60.15 0.61 M13.7 66.24 C27.32 47.29, 43.47 33.52, 70.78 0.58 M13.7 66.24 C27.27 51.84, 38.25 37.27, 70.78 0.58 M24.33 66.2 C38.74 46.9, 58.16 32.3, 80.75 1.3 M24.33 66.2 C42.57 44.25, 61.62 23.38, 80.75 1.3 M34.96 66.17 C51.94 46.06, 70.79 28.48, 91.38 1.26 M34.96 66.17 C46.9 52.37, 59.73 37.74, 91.38 1.26 M45.59 66.13 C66.91 40.62, 88.54 17.45, 102.01 1.23 M45.59 66.13 C68.41 41.18, 89.67 15.64, 102.01 1.23 M56.22 66.1 C76.94 39.09, 97.69 14.31, 112.64 1.19 M56.22 66.1 C70.55 50.61, 82.1 35.13, 112.64 1.19 M66.85 66.06 C86.63 44.62, 103.64 22.7, 123.27 1.16 M66.85 66.06 C83.39 46.58, 100.51 28.64, 123.27 1.16 M77.48 66.03 C98.55 39.39, 122.99 17.35, 133.9 1.12 M77.48 66.03 C92.84 47.96, 106.17 31.33, 133.9 1.12 M87.46 66.75 C106.41 44.45, 126.8 19.25, 144.53 1.09 M87.46 66.75 C105.06 46.28, 122.48 27.78, 144.53 1.09 M98.09 66.71 C113.07 50.13, 124.72 34.39, 155.16 1.05 M98.09 66.71 C120.67 42.52, 141.13 16.22, 155.16 1.05 M108.72 66.68 C128.79 43.02, 152.14 18.32, 165.79 1.02 M108.72 66.68 C131.08 40.94, 153.49 14.33, 165.79 1.02 M119.35 66.65 C131.35 53.56, 146.69 38.98, 176.42 0.99 M119.35 66.65 C141.05 40.92, 162.4 16.32, 176.42 0.99 M129.98 66.61 C150.84 42.76, 170.55 19.31, 187.05 0.95 M129.98 66.61 C150.99 42.79, 171.39 20.72, 187.05 0.95 M140.61 66.58 C159.19 45.84, 176.42 24.59, 197.68 0.92 M140.61 66.58 C161.54 44.92, 179.72 21.17, 197.68 0.92 M151.24 66.54 C169.36 45.31, 188.47 20.89, 208.31 0.88 M151.24 66.54 C166.21 49.37, 181.78 32.16, 208.31 0.88 M161.87 66.51 C173.9 51.23, 190.43 37.35, 218.94 0.85 M161.87 66.51 C178.24 47.56, 195.26 26.11, 218.94 0.85 M172.5 66.47 C185.64 50.26, 199.04 38.18, 229.57 0.81 M172.5 66.47 C185.53 50.74, 198.58 37.37, 229.57 0.81 M183.13 66.44 C207.35 40.83, 228.83 15.41, 240.2 0.78 M183.13 66.44 C203.22 43.66, 222.99 21.92, 240.2 0.78 M193.76 66.4 C215.17 43.22, 232.45 21.85, 250.83 0.74 M193.76 66.4 C206.34 51.04, 219.54 34.72, 250.83 0.74 M204.39 66.37 C225.64 43.97, 245.49 18.85, 261.46 0.71 M204.39 66.37 C223.16 46.15, 240.16 26.93, 261.46 0.71 M215.02 66.34 C236.64 42.84, 257.86 17.81, 271.44 1.43 M215.02 66.34 C233.79 46.31, 250.92 25.69, 271.44 1.43 M225.65 66.3 C245.13 45.67, 261.35 20.87, 282.07 1.4 M225.65 66.3 C242.64 46.26, 260.9 26.55, 282.07 1.4 M236.28 66.27 C248.48 53.95, 260.44 39.83, 292.7 1.36 M236.28 66.27 C257.68 41.46, 279.43 17.53, 292.7 1.36 M246.91 66.23 C267.34 44.41, 288.87 19.71, 303.33 1.33 M246.91 66.23 C269.43 40.14, 291.21 14.76, 303.33 1.33 M257.54 66.2 C269.27 50.9, 280.93 35.55, 313.96 1.29 M257.54 66.2 C276.6 44.43, 297.06 20.04, 313.96 1.29 M268.17 66.16 C283.44 50.22, 297.07 31.49, 324.59 1.26 M268.17 66.16 C285.46 46.7, 301.83 26.7, 324.59 1.26 M278.14 66.88 C292.23 50.42, 305.17 33.37, 335.22 1.22 M278.14 66.88 C294.06 47.48, 309.62 29.47, 335.22 1.22 M288.77 66.85 C305.48 45.04, 323.92 24.91, 345.85 1.19 M288.77 66.85 C305.54 48.57, 322.78 28.03, 345.85 1.19 M299.4 66.81 C320.5 42.26, 341.49 15.53, 356.48 1.15 M299.4 66.81 C310.4 53.77, 322.1 40.66, 356.48 1.15 M310.03 66.78 C331.25 43.75, 352.84 16.91, 367.11 1.12 M310.03 66.78 C327.41 44.83, 345.6 25.27, 367.11 1.12 M320.66 66.74 C334.18 54.09, 345.36 40.97, 377.74 1.09 M320.66 66.74 C335.98 48.34, 350.83 31.95, 377.74 1.09 M331.29 66.71 C351.66 42.95, 373.95 20.7, 388.37 1.05 M331.29 66.71 C345.97 49.79, 359.62 33.8, 388.37 1.05 M341.92 66.68 C361.82 42.45, 382.3 18.41, 396.37 4.03 M341.92 66.68 C355.47 51.54, 367.72 37.25, 396.37 4.03 M352.55 66.64 C373.07 45.48, 392.91 21.73, 404.38 7.02 M352.55 66.64 C365.25 50.82, 379.01 36.39, 404.38 7.02 M363.18 66.61 C381.47 45.44, 394.78 28.92, 409.11 13.78 M363.18 66.61 C380.71 45.15, 397.56 26.09, 409.11 13.78 M373.81 66.57 C385.85 52.75, 397.84 39.43, 409.24 25.82 M373.81 66.57 C382.85 57.27, 390.4 46.93, 409.24 25.82 M384.44 66.54 C393.19 56.36, 401.53 44.57, 409.37 37.86 M384.44 66.54 C393.82 54.94, 403.44 44.83, 409.37 37.86 M396.38 64.99 C400.2 61.05, 404.89 57.34, 406.23 53.67 M396.38 64.99 C400.36 61.22, 403.24 56.23, 406.23 53.67" stroke="#b2f2bb" stroke-width="1" fill="none"></path><path d="M16.43 0 C163.63 -2.36, 309.2 -0.74, 388.74 0 M16.43 0 C115.89 2.17, 216.2 2.1, 388.74 0 M388.74 0 C399.73 1.11, 404.19 6.34, 405.17 16.43 M388.74 0 C400.1 -0.01, 402.95 3.41, 405.17 16.43 M405.17 16.43 C406.93 31.06, 404.16 43.07, 405.17 49.29 M405.17 16.43 C406.17 26.98, 404.62 36.82, 405.17 49.29 M405.17 49.29 C404.11 62.16, 398.79 63.78, 388.74 65.72 M405.17 49.29 C407.33 59.95, 400.63 64.2, 388.74 65.72 M388.74 65.72 C246.85 64.81, 102.97 64.39, 16.43 65.72 M388.74 65.72 C314.29 63.25, 240.07 63.33, 16.43 65.72 M16.43 65.72 C3.75 66.48, -0.99 60.9, 0 49.29 M16.43 65.72 C7.65 63.64, 0.13 60.07, 0 49.29 M0 49.29 C-1.6 37.91, -0.3 22.57, 0 16.43 M0 49.29 C-0.44 42.32, -0.02 34.46, 0 16.43 M0 16.43 C0.83 5.44, 7.02 0.71, 16.43 0 M0 16.43 C-0.88 3.22, 6.57 -2.25, 16.43 0" stroke="#2f9e44" stroke-width="2" fill="none"></path></g><g transform="translate(973.5079405974648 124.65348932551865) rotate(0 7.8286895751953125 19.4944109528156)"><text x="7.8286895751953125" y="0" font-family="Virgil, Segoe UI Emoji" font-size="31.191057524504977px" fill="#2f9e44" text-anchor="middle" style="white-space: pre;" direction="ltr" dominant-baseline="text-before-edge">c</text></g><g stroke-linecap="round" transform="translate(824.459458649244 189.60365951660458) rotate(0 156.8771715234161 32.57933813781756)"><path d="M4.34 3.77 C4.34 3.77, 4.34 3.77, 4.34 3.77 M4.34 3.77 C4.34 3.77, 4.34 3.77, 4.34 3.77 M-0.12 21.09 C5.75 13.1, 11.84 5.74, 18.25 -0.04 M-0.12 21.09 C4.83 13.56, 11.02 7.88, 18.25 -0.04 M0.67 32.38 C7.74 26.2, 11.93 19.61, 28.22 0.68 M0.67 32.38 C9.42 21.47, 20.11 10.28, 28.22 0.68 M0.8 44.42 C7.23 34.73, 16.57 26.42, 38.85 0.65 M0.8 44.42 C12.62 32.44, 23.26 20.67, 38.85 0.65 M0.93 56.46 C20.05 37.25, 36.4 19.9, 49.48 0.61 M0.93 56.46 C13.02 43.38, 25.06 29.81, 49.48 0.61 M6.31 62.46 C19.17 48.25, 35.64 31.2, 60.11 0.58 M6.31 62.46 C22.7 43.41, 40.37 23.98, 60.11 0.58 M14.32 65.45 C24.85 49.59, 40.82 38.39, 70.74 0.54 M14.32 65.45 C33.36 43.16, 51.57 21.11, 70.74 0.54 M24.95 65.41 C37 51.1, 49.79 36.63, 81.37 0.51 M24.95 65.41 C39.3 47.56, 53.82 31.48, 81.37 0.51 M35.58 65.38 C47.11 48.84, 61.52 32.8, 92 0.47 M35.58 65.38 C51.58 47.77, 66.69 30.09, 92 0.47 M46.21 65.34 C62.52 46.51, 75.47 32.26, 102.63 0.44 M46.21 65.34 C65.44 45.36, 83.67 23.32, 102.63 0.44 M56.84 65.31 C68.43 49.43, 83.55 38.24, 113.26 0.41 M56.84 65.31 C73.73 47.07, 90.22 29.34, 113.26 0.41 M67.47 65.28 C82.7 45.76, 99.97 28.66, 123.89 0.37 M67.47 65.28 C84.16 46.1, 98.36 27.66, 123.89 0.37 M78.1 65.24 C88.49 53.18, 101.38 39.97, 134.52 0.34 M78.1 65.24 C93.31 50.04, 106.66 32.48, 134.52 0.34 M88.73 65.21 C110.38 41.77, 131.05 17.72, 145.15 0.3 M88.73 65.21 C100.8 49, 113.73 35.07, 145.15 0.3 M99.36 65.17 C113.36 49.78, 125.02 38.31, 155.78 0.27 M99.36 65.17 C122.96 39.55, 144.38 13.26, 155.78 0.27 M109.99 65.14 C133.01 40.58, 150.07 15.83, 166.41 0.23 M109.99 65.14 C125.36 46.94, 141.18 28.76, 166.41 0.23 M119.96 65.86 C141.09 42.11, 159.48 19.11, 177.04 0.2 M119.96 65.86 C133.7 52.47, 144.86 37.01, 177.04 0.2 M130.59 65.82 C149.5 44.63, 165.34 26.43, 187.67 0.16 M130.59 65.82 C143.53 49.84, 155.98 35.28, 187.67 0.16 M141.22 65.79 C157.49 47.76, 171.38 32.88, 198.3 0.13 M141.22 65.79 C163.87 40.9, 184.42 14.95, 198.3 0.13 M151.85 65.75 C170.58 42.58, 190 21.25, 208.93 0.09 M151.85 65.75 C168.98 45.22, 186.49 24.27, 208.93 0.09 M162.48 65.72 C178.62 47.5, 194.88 26.23, 218.91 0.82 M162.48 65.72 C184.02 41, 207.48 16.19, 218.91 0.82 M173.11 65.69 C183.53 50.61, 199.48 37.02, 229.54 0.78 M173.11 65.69 C187.06 49.01, 199.58 35.11, 229.54 0.78 M183.75 65.65 C202.57 44.22, 220.9 24.82, 240.17 0.75 M183.75 65.65 C200.85 45.75, 217.54 26.88, 240.17 0.75 M194.38 65.62 C208.3 49.96, 226.58 30.37, 250.8 0.71 M194.38 65.62 C214.84 43.84, 233.24 21.23, 250.8 0.71 M205.01 65.58 C221.96 45.39, 237.22 28.1, 261.43 0.68 M205.01 65.58 C220.07 48.31, 234.01 32.06, 261.43 0.68 M215.64 65.55 C237.17 39.17, 257.13 17.84, 272.06 0.64 M215.64 65.55 C232.32 47.5, 249.17 28.42, 272.06 0.64 M226.27 65.51 C248.66 39.55, 271.47 14.5, 282.69 0.61 M226.27 65.51 C243.76 43.97, 263.03 22.9, 282.69 0.61 M236.9 65.48 C258.97 39.58, 280.07 16.9, 293.32 0.57 M236.9 65.48 C254.79 44.57, 271.37 25.03, 293.32 0.57 M247.53 65.44 C268.16 43.18, 284.88 21.28, 303.29 1.29 M247.53 65.44 C261.84 49.1, 277.61 31.53, 303.29 1.29 M258.16 65.41 C274.51 49.84, 286.28 30.76, 309.98 5.79 M258.16 65.41 C276.67 44.46, 295.31 22.68, 309.98 5.79 M268.79 65.38 C284.85 48.77, 302.06 30.62, 313.4 14.06 M268.79 65.38 C284.03 47.9, 301 29.23, 313.4 14.06 M279.42 65.34 C288.81 53.7, 299.28 42.41, 313.53 26.1 M279.42 65.34 C287.31 57.84, 294.85 48.11, 313.53 26.1 M290.05 65.31 C295.55 57.51, 299.76 51.35, 313.66 38.14 M290.05 65.31 C299.65 55.95, 307.69 45.11, 313.66 38.14 M301.33 64.52 C303.96 58.79, 310.65 52.91, 313.8 50.18 M301.33 64.52 C306.61 58.94, 309.14 53.86, 313.8 50.18" stroke="#b2f2bb" stroke-width="1" fill="none"></path><path d="M16.29 0 C84.89 -1.12, 153.16 -2.23, 297.46 0 M16.29 0 C109.66 -0.05, 202.63 -0.14, 297.46 0 M297.46 0 C308.68 -0.01, 311.83 3.63, 313.75 16.29 M297.46 0 C310.54 2.16, 312.65 7.1, 313.75 16.29 M313.75 16.29 C313.52 30.07, 313.23 42.62, 313.75 48.87 M313.75 16.29 C312.97 29.39, 313.05 39.6, 313.75 48.87 M313.75 48.87 C315.64 59.48, 309.14 63.83, 297.46 65.16 M313.75 48.87 C315.7 61.64, 306.29 67.45, 297.46 65.16 M297.46 65.16 C186.16 66.26, 76.66 66.7, 16.29 65.16 M297.46 65.16 C240.08 63.62, 183.63 63.58, 16.29 65.16 M16.29 65.16 C7.32 63.35, 0.12 59.58, 0 48.87 M16.29 65.16 C7.39 67.11, -0.95 58.21, 0 48.87 M0 48.87 C-1.72 36.35, 1.09 24.09, 0 16.29 M0 48.87 C0.46 38.92, 0.82 29.36, 0 16.29 M0 16.29 C-0.77 3.47, 6.38 -1.96, 16.29 0 M0 16.29 C1.3 6.37, 6.92 -0.19, 16.29 0" stroke="#2f9e44" stroke-width="2" fill="none"></path></g><g transform="translate(972.8685515593788 202.68858670160648) rotate(0 8.46807861328125 19.4944109528156)"><text x="8.46807861328125" y="0" font-family="Virgil, Segoe UI Emoji" font-size="31.191057524504977px" fill="#2f9e44" text-anchor="middle" style="white-space: pre;" direction="ltr" dominant-baseline="text-before-edge">s</text></g><g mask="url(#mask-yGagzinsBxEdyTBs5qC5j)" stroke-linecap="round"><g transform="translate(982.7072251788322 444.8100841935791) rotate(0 -1.3705950061712429 -81.29719736470139)"><path d="M-0.63 -0.49 C-1.11 -27.76, -2.09 -135.85, -2.38 -163.03 M1.24 -1.79 C0.59 -28.94, -2.45 -134.9, -3.14 -161.72" stroke="#1971c2" stroke-width="2" fill="none"></path></g><g transform="translate(982.7072251788322 444.8100841935791) rotate(0 -1.3705950061712429 -81.29719736470139)"><path d="M7.88 -133.82 C3.14 -142.89, -0.57 -152.46, -3.14 -161.72 M7.88 -133.82 C6.09 -140.03, 2.93 -146.75, -3.14 -161.72" stroke="#1971c2" stroke-width="2" fill="none"></path></g><g transform="translate(982.7072251788322 444.8100841935791) rotate(0 -1.3705950061712429 -81.29719736470139)"><path d="M-12.63 -133.26 C-10.32 -142.41, -6.96 -152.17, -3.14 -161.72 M-12.63 -133.26 C-9.91 -139.72, -8.54 -146.57, -3.14 -161.72" stroke="#1971c2" stroke-width="2" fill="none"></path></g></g><mask id="mask-yGagzinsBxEdyTBs5qC5j"><rect x="0" y="0" fill="#fff" width="1085.4484151911754" height="707.4044789229819"></rect><rect x="836.6306975554726" y="324.52406492324644" fill="#000" width="289.411865234375" height="77.97764381126244" opacity="1"></rect></mask><g transform="translate(836.6306975554726 324.52406492324644) rotate(0 145.12665893754092 38.52606720269068)"><text x="144.7059326171875" y="0" font-family="Virgil, Segoe UI Emoji" font-size="31.191057524504977px" fill="#1971c2" text-anchor="middle" style="white-space: pre;" direction="ltr" dominant-baseline="text-before-edge">parent_span_id / </text><text x="144.7059326171875" y="38.98882190563122" font-family="Virgil, Segoe UI Emoji" font-size="31.191057524504977px" fill="#1971c2" text-anchor="middle" style="white-space: pre;" direction="ltr" dominant-baseline="text-before-edge">span_id</text></g><g mask="url(#mask-SAn-LwKCZ8-0gLXU2XSbo)" stroke-linecap="round"><g transform="translate(250.32142899993505 493.7692780830989) rotate(0 -1.4439951863000715 -75.08960055668845)"><path d="M-0.08 0.76 C-0.36 -24.22, -1.79 -124.25, -2.45 -149.58 M-1.58 0.11 C-1.91 -25.24, -3.15 -126.29, -3.17 -151.39" stroke="#e03131" stroke-width="2" fill="none"></path></g><g transform="translate(250.32142899993505 493.7692780830989) rotate(0 -1.4439951863000715 -75.08960055668845)"><path d="M7.3 -123.28 C6.03 -129.19, 3.29 -138.44, -3.17 -151.39 M7.3 -123.28 C5.04 -129.65, 3.41 -135.12, -3.17 -151.39" stroke="#e03131" stroke-width="2" fill="none"></path></g><g transform="translate(250.32142899993505 493.7692780830989) rotate(0 -1.4439951863000715 -75.08960055668845)"><path d="M-13.22 -123.13 C-9.65 -129.06, -7.55 -138.35, -3.17 -151.39 M-13.22 -123.13 C-11.16 -129.32, -8.48 -134.82, -3.17 -151.39" stroke="#e03131" stroke-width="2" fill="none"></path></g></g><mask id="mask-SAn-LwKCZ8-0gLXU2XSbo"><rect x="0" y="0" fill="#fff" width="353.2094193725348" height="743.9484791964758"></rect><rect x="169.96677402359637" y="399.1852665735949" fill="#000" width="157.82131958007812" height="38.98882190563122" opacity="1"></rect></mask><g transform="translate(169.96677402359637 399.1852665735949) rotate(0 78.7293207375892 19.267010143121496)"><text x="78.91065979003906" y="0" font-family="Virgil, Segoe UI Emoji" font-size="31.191057524504977px" fill="#e03131" text-anchor="middle" style="white-space: pre;" direction="ltr" dominant-baseline="text-before-edge">same span</text></g></svg>