<svg version="1.1" xmlns="http://www.w3.org/2000/svg" viewBox="0 0 1065.580392706809 805.017656199315" width="1065.580392706809" height="805.017656199315" filter="invert(93%) hue-rotate(180deg)">
  <!-- svg-source:excalidraw -->
  
  <defs>
    <style class="style-fonts">
      @font-face {
        font-family: "Virgil";
        src: url("https://file%2B.vscode-resource.vscode-cdn.net/c%3A/Users/talor/.vscode/extensions/pomdtr.excalidraw-editor-3.7.4/public//dist/excalidraw-assets/Virgil.woff2");
      }
      @font-face {
        font-family: "Cascadia";
        src: url("https://file%2B.vscode-resource.vscode-cdn.net/c%3A/Users/talor/.vscode/extensions/pomdtr.excalidraw-editor-3.7.4/public//dist/excalidraw-assets/Cascadia.woff2");
      }
      @font-face {
        font-family: "Assistant";
        src: url("https://file%2B.vscode-resource.vscode-cdn.net/c%3A/Users/talor/.vscode/extensions/pomdtr.excalidraw-editor-3.7.4/public//dist/excalidraw-assets/Assistant-Regular.woff2");
      }
    </style>
    
  </defs>
  <rect x="0" y="0" width="1065.580392706809" height="805.017656199315" fill="#ffffff"></rect><g stroke-linecap="round" transform="translate(10 10) rotate(0 238.87743379019867 32.57933813781753)"><path d="M4.34 3.77 C4.34 3.77, 4.34 3.77, 4.34 3.77 M4.34 3.77 C4.34 3.77, 4.34 3.77, 4.34 3.77 M2.5 18.07 C7.04 12.88, 8.21 12.13, 17.59 0.72 M2.5 18.07 C6.96 13.17, 9.35 10, 17.59 0.72 M2.63 30.12 C11.31 19.58, 19.94 11.67, 28.22 0.68 M2.63 30.12 C9.19 22.9, 15.61 13.84, 28.22 0.68 M2.77 42.16 C13.42 25.73, 28.01 14.95, 38.85 0.65 M2.77 42.16 C10.72 31.03, 20.86 21.17, 38.85 0.65 M0.93 56.46 C12.6 43.16, 21.51 33.51, 49.48 0.61 M0.93 56.46 C13.8 40.53, 28.96 23.91, 49.48 0.61 M6.31 62.46 C23.36 42.24, 43.91 21.25, 59.45 1.33 M6.31 62.46 C17.08 50.13, 29 37.52, 59.45 1.33 M13.66 66.2 C35.7 40.42, 59.83 13.87, 70.08 1.3 M13.66 66.2 C34.22 41.31, 57.11 15.85, 70.08 1.3 M24.29 66.17 C46.61 38.89, 67.44 16.39, 80.71 1.26 M24.29 66.17 C39.04 50.78, 51.83 34.35, 80.71 1.26 M34.92 66.13 C54.75 44.03, 75.34 17.48, 91.34 1.23 M34.92 66.13 C46.7 51.54, 59.21 38.33, 91.34 1.23 M45.55 66.1 C65.95 41.76, 86.78 20.2, 101.97 1.19 M45.55 66.1 C62.54 47.2, 78.3 29.57, 101.97 1.19 M56.18 66.07 C72.17 49.35, 86.65 32.66, 112.61 1.16 M56.18 66.07 C74.88 45.94, 91.72 25.09, 112.61 1.16 M66.81 66.03 C88.31 39.76, 107.08 17.02, 123.24 1.13 M66.81 66.03 C87.63 41.95, 109.63 16.76, 123.24 1.13 M77.44 66 C91.82 52.93, 101.41 37.85, 133.87 1.09 M77.44 66 C96.27 42.91, 115.64 20.32, 133.87 1.09 M88.07 65.96 C103.82 50.2, 114.59 32.31, 144.5 1.06 M88.07 65.96 C109.76 42.71, 131.41 17.33, 144.5 1.06 M98.7 65.93 C113.31 49.99, 126.46 31.82, 155.13 1.02 M98.7 65.93 C113.55 47.65, 130.21 29.81, 155.13 1.02 M109.33 65.89 C119.36 52.19, 134.82 39.21, 165.76 0.99 M109.33 65.89 C121.71 50.73, 135.12 36.82, 165.76 0.99 M119.96 65.86 C136.12 46.02, 153.72 26.7, 176.39 0.95 M119.96 65.86 C141.4 41.22, 163.32 15.48, 176.39 0.95 M130.59 65.82 C146.84 49.94, 157.4 35.36, 187.02 0.92 M130.59 65.82 C148.07 45.03, 165.59 23.54, 187.02 0.92 M141.22 65.79 C152.66 53.79, 163.52 39.55, 197.65 0.88 M141.22 65.79 C153.34 50.14, 168.35 34.38, 197.65 0.88 M151.85 65.75 C171.05 46.27, 188.77 24.88, 208.28 0.85 M151.85 65.75 C168.34 47.79, 185.99 27.39, 208.28 0.85 M161.83 66.47 C183.36 41.27, 203.43 18.52, 218.91 0.82 M161.83 66.47 C180.18 42.6, 200.74 20.3, 218.91 0.82 M172.46 66.44 C191.28 47.57, 208.41 25.59, 229.54 0.78 M172.46 66.44 C186.06 49.82, 201.22 31.75, 229.54 0.78 M183.09 66.41 C193.64 53.16, 207.6 38.98, 240.17 0.75 M183.09 66.41 C199.59 46.95, 215.4 28.67, 240.17 0.75 M193.72 66.37 C212.34 42.47, 231.99 21.13, 250.8 0.71 M193.72 66.37 C216.97 39.72, 238.51 14.76, 250.8 0.71 M204.35 66.34 C218.77 53.93, 230.45 37.3, 260.77 1.43 M204.35 66.34 C227.67 39.85, 249.53 14.83, 260.77 1.43 M214.98 66.3 C229.15 53.54, 240.66 36.07, 271.4 1.4 M214.98 66.3 C231.69 47.57, 247.1 27.99, 271.4 1.4 M225.61 66.27 C241.04 49.8, 254.25 35.3, 282.03 1.36 M225.61 66.27 C238.31 49.77, 252.98 35.4, 282.03 1.36 M236.24 66.23 C249.15 51.74, 263.15 36.7, 292.66 1.33 M236.24 66.23 C251.41 49.75, 266.03 31.89, 292.66 1.33 M246.87 66.2 C256.92 50.75, 268.28 38.08, 303.29 1.29 M246.87 66.2 C269.16 41.64, 289.38 15.32, 303.29 1.29 M257.5 66.16 C274.86 46.57, 289.63 27.98, 313.92 1.26 M257.5 66.16 C268.69 51.32, 281.31 37.52, 313.92 1.26 M268.13 66.13 C289.79 41.2, 314.23 15.67, 324.55 1.22 M268.13 66.13 C280.48 51.8, 295.19 36.42, 324.55 1.22 M278.76 66.1 C289.19 53.63, 303.55 37.57, 335.18 1.19 M278.76 66.1 C298.82 41.91, 319.72 17.73, 335.18 1.19 M289.39 66.06 C307.3 45.5, 322.06 25.09, 345.81 1.16 M289.39 66.06 C308.22 44.56, 326.41 22.83, 345.81 1.16 M300.02 66.03 C314.65 45.82, 332.18 29.89, 356.44 1.12 M300.02 66.03 C318.66 43.78, 338.76 19.97, 356.44 1.12 M310.65 65.99 C328.91 42.89, 349.49 23, 367.07 1.09 M310.65 65.99 C327.81 44.9, 345.85 26, 367.07 1.09 M321.28 65.96 C332.66 52.35, 343.77 40.48, 377.7 1.05 M321.28 65.96 C338.18 45.13, 356.16 26.11, 377.7 1.05 M331.91 65.92 C344.36 52.7, 355.78 40.17, 388.33 1.02 M331.91 65.92 C350.64 42.47, 372.25 19.33, 388.33 1.02 M342.54 65.89 C353.55 52.29, 367.69 38.18, 398.96 0.98 M342.54 65.89 C362.83 41.83, 384.07 16.73, 398.96 0.98 M352.51 66.61 C368.88 46.14, 386.57 24.72, 409.59 0.95 M352.51 66.61 C367.65 47.4, 385.3 28.24, 409.59 0.95 M363.14 66.57 C382.09 41.86, 404.67 17.56, 420.22 0.91 M363.14 66.57 C384.91 41.16, 407.77 13.99, 420.22 0.91 M373.77 66.54 C387.16 50.48, 400.27 36.71, 430.85 0.88 M373.77 66.54 C391.81 46.15, 408.82 27.34, 430.85 0.88 M384.4 66.51 C395.31 52.97, 406.63 38.16, 441.48 0.85 M384.4 66.51 C398.56 50.59, 412.47 34.22, 441.48 0.85 M395.03 66.47 C417.26 40.96, 441.24 16.1, 451.46 1.57 M395.03 66.47 C409.92 49.33, 424 32.76, 451.46 1.57 M405.66 66.44 C422.39 45.56, 442.94 21.52, 462.09 1.53 M405.66 66.44 C422.71 47.84, 438.18 29.48, 462.09 1.53 M416.29 66.4 C426.69 52.36, 439.95 42.5, 472.06 2.25 M416.29 66.4 C434.77 43.88, 454.95 20.96, 472.06 2.25 M426.93 66.37 C440.74 51.04, 451.39 37.86, 476.79 9.01 M426.93 66.37 C440.6 50.95, 454.43 34.35, 476.79 9.01 M437.56 66.33 C451.2 50.85, 466.08 33.73, 482.82 14.26 M437.56 66.33 C449.95 53.06, 461.86 38.41, 482.82 14.26 M448.19 66.3 C454.65 58.25, 462.55 45.9, 482.96 26.3 M448.19 66.3 C459.6 52.79, 470.58 39.87, 482.96 26.3 M458.82 66.26 C465.46 62.62, 468.99 56.23, 483.09 38.34 M458.82 66.26 C463.67 60.87, 467.47 55.07, 483.09 38.34" stroke="#ffc9c9" stroke-width="1" fill="none"></path><path d="M16.29 0 C130.53 0.2, 245.39 -0.94, 461.47 0 M16.29 0 C129.63 -0.08, 243.21 -0.3, 461.47 0 M461.47 0 C470.92 -1.33, 477.87 4.55, 477.75 16.29 M461.47 0 C473.22 0.93, 479.45 4.53, 477.75 16.29 M477.75 16.29 C476.85 25, 478.34 34.16, 477.75 48.87 M477.75 16.29 C478.44 24.55, 476.59 34.54, 477.75 48.87 M477.75 48.87 C477.17 60.6, 471.83 63.18, 461.47 65.16 M477.75 48.87 C477.34 58.4, 472.83 63.5, 461.47 65.16 M461.47 65.16 C337.23 64.62, 214.64 65.24, 16.29 65.16 M461.47 65.16 C289.16 67.03, 117.38 67.09, 16.29 65.16 M16.29 65.16 C4.71 66.7, 1.89 59.59, 0 48.87 M16.29 65.16 C4.78 64.52, 0.52 57.5, 0 48.87 M0 48.87 C1.14 36.93, 0.25 26.59, 0 16.29 M0 48.87 C0.3 39.08, -0.98 26.5, 0 16.29 M0 16.29 C-1.83 5.17, 6.92 -0.86, 16.29 0 M0 16.29 C0.79 7.18, 3.61 -0.02, 16.29 0" stroke="#e03131" stroke-width="2" fill="none"></path></g><g transform="translate(226.31148530387054 23.08492718500193) rotate(0 22.565948486328125 19.494410952815613)"><text x="22.565948486328125" y="0" font-family="Virgil, Segoe UI Emoji" font-size="31.191057524504977px" fill="#e03131" text-anchor="middle" style="white-space: pre;" direction="ltr" dominant-baseline="text-before-edge">s-p</text></g><g stroke-linecap="round" transform="translate(46.2941755851125 84.74144932402396) rotate(0 202.5832582050857 32.8613841469778)"><path d="M4.37 3.8 C4.37 3.8, 4.37 3.8, 4.37 3.8 M4.37 3.8 C4.37 3.8, 4.37 3.8, 4.37 3.8 M-0.09 21.13 C2.96 14.57, 8.06 12.87, 18.28 -0.01 M-0.09 21.13 C4.53 15.06, 9.46 11.15, 18.28 -0.01 M0.7 32.41 C5.77 26.52, 11.55 18.39, 28.91 -0.04 M0.7 32.41 C11.17 21.49, 20.53 9.08, 28.91 -0.04 M0.84 44.45 C7.63 36.89, 17.68 24.49, 39.54 -0.08 M0.84 44.45 C10.43 32.42, 22.21 20.95, 39.54 -0.08 M0.97 56.49 C10.64 46.57, 19.28 31.51, 49.52 0.65 M0.97 56.49 C16.24 39.75, 30.18 21.82, 49.52 0.65 M6.35 62.5 C23.57 40.66, 44.54 17.59, 60.15 0.61 M6.35 62.5 C26.21 39.27, 44.99 17.55, 60.15 0.61 M14.36 65.48 C32.56 47.82, 48.81 25.19, 70.78 0.58 M14.36 65.48 C35.6 42.14, 54.33 18.5, 70.78 0.58 M24.99 65.45 C35.57 50.23, 48.69 40.01, 81.41 0.54 M24.99 65.45 C45.75 41.82, 65.74 19.28, 81.41 0.54 M35.62 65.41 C55.52 41.46, 78.54 15.7, 92.04 0.51 M35.62 65.41 C51.61 47.59, 65.61 30.21, 92.04 0.51 M46.25 65.38 C61.4 47.23, 75.89 31.52, 102.67 0.47 M46.25 65.38 C58.04 51.57, 70.57 37.2, 102.67 0.47 M56.22 66.1 C73.07 44.92, 90.27 27.94, 113.3 0.44 M56.22 66.1 C75.68 45.64, 93.63 23.9, 113.3 0.44 M66.85 66.06 C81.58 51.63, 92.14 36.13, 123.93 0.4 M66.85 66.06 C85.55 43.82, 105.65 22.15, 123.93 0.4 M77.48 66.03 C101.14 41.4, 123.38 13.72, 134.56 0.37 M77.48 66.03 C94.78 46.44, 112.4 27.39, 134.56 0.37 M88.11 65.99 C107.92 44.41, 123.27 25.32, 145.19 0.33 M88.11 65.99 C109.35 39.95, 131.68 15.32, 145.19 0.33 M98.74 65.96 C117.59 46.28, 138.86 22.67, 155.82 0.3 M98.74 65.96 C115.26 45.73, 134.7 23.54, 155.82 0.3 M109.37 65.93 C127.05 43.23, 145.93 19.26, 166.45 0.27 M109.37 65.93 C123.59 48.89, 137.11 32.88, 166.45 0.27 M120 65.89 C138.42 48.19, 153.22 28.27, 177.08 0.23 M120 65.89 C139.1 42.48, 159.15 21.48, 177.08 0.23 M130.63 65.86 C148.85 45.46, 167.27 24.79, 187.71 0.2 M130.63 65.86 C147.84 45.66, 167.2 25.42, 187.71 0.2 M141.26 65.82 C162.17 42.55, 186.67 13.98, 198.34 0.16 M141.26 65.82 C159.72 44.34, 177.92 23.3, 198.34 0.16 M151.89 65.79 C169.78 45.9, 186.66 23.49, 208.97 0.13 M151.89 65.79 C174.09 40.93, 196.3 15.57, 208.97 0.13 M162.52 65.75 C174.77 54.47, 187.4 36.89, 219.6 0.09 M162.52 65.75 C177.82 47.86, 192.23 31.69, 219.6 0.09 M173.15 65.72 C191.49 45.28, 213.29 19.86, 230.23 0.06 M173.15 65.72 C194.99 40.58, 218.05 13.6, 230.23 0.06 M183.78 65.68 C201.54 44.76, 220.98 23.56, 240.2 0.78 M183.78 65.68 C201.34 45.44, 217.88 26.53, 240.2 0.78 M194.41 65.65 C207.98 51.62, 218.79 40.3, 250.83 0.74 M194.41 65.65 C207.13 49.22, 220.86 35.64, 250.83 0.74 M205.04 65.61 C226.33 41.98, 245.87 21.84, 261.46 0.71 M205.04 65.61 C217.39 49.85, 231.42 35.38, 261.46 0.71 M215.67 65.58 C237.84 42.06, 261.89 16.46, 272.09 0.68 M215.67 65.58 C234.97 42.54, 254.86 20.62, 272.09 0.68 M226.3 65.55 C241.8 47.93, 260.77 26.3, 282.72 0.64 M226.3 65.55 C239.78 48.94, 254.28 31.62, 282.72 0.64 M236.93 65.51 C252.32 45.31, 271.23 27.65, 293.35 0.61 M236.93 65.51 C256.4 42.7, 278.67 17.79, 293.35 0.61 M246.91 66.23 C260.51 53.96, 271.33 41.4, 303.98 0.57 M246.91 66.23 C269.47 42.06, 292.02 16.46, 303.98 0.57 M257.54 66.2 C274.2 46.3, 295.81 23.84, 314.61 0.54 M257.54 66.2 C270.98 51.11, 282.82 36.64, 314.61 0.54 M268.17 66.16 C283.83 45.12, 304.14 23.85, 325.24 0.5 M268.17 66.16 C289.47 40.37, 312.27 12.91, 325.24 0.5 M278.8 66.13 C301.67 41.35, 323.17 15.44, 335.87 0.47 M278.8 66.13 C295.08 49.03, 311.76 30.05, 335.87 0.47 M289.43 66.09 C308.34 47.46, 326.11 26.69, 346.5 0.43 M289.43 66.09 C308.64 43.79, 328.26 20.79, 346.5 0.43 M300.06 66.06 C313.98 52.16, 327.04 34.61, 357.13 0.4 M300.06 66.06 C322.95 40.39, 344.97 14.55, 357.13 0.4 M310.69 66.02 C325.93 49.34, 339.21 30.42, 367.76 0.36 M310.69 66.02 C321.73 52.17, 335.06 38.26, 367.76 0.36 M321.32 65.99 C339.64 43.59, 358.14 22.85, 378.39 0.33 M321.32 65.99 C332.53 52.58, 344.91 38.49, 378.39 0.33 M331.95 65.96 C349.99 47.69, 365.78 24.66, 389.02 0.3 M331.95 65.96 C345.6 48.23, 361.03 30.95, 389.02 0.3 M342.58 65.92 C361.6 46.61, 379.29 24.86, 397.69 2.53 M342.58 65.92 C360.8 45.84, 378.72 23.76, 397.69 2.53 M353.21 65.89 C369.39 49.43, 387.02 27.99, 403.07 8.53 M353.21 65.89 C369.29 48.02, 383.74 28.95, 403.07 8.53 M363.84 65.85 C375.48 55.97, 381.93 42.68, 405.17 18.31 M363.84 65.85 C376.5 50.46, 390.77 35.69, 405.17 18.31 M374.47 65.82 C383.34 53.87, 391.16 45.82, 405.3 30.35 M374.47 65.82 C381.09 56.62, 388.54 47.93, 405.3 30.35 M385.1 65.78 C389.74 61.15, 394.77 54.57, 405.44 42.39 M385.1 65.78 C391.39 59.32, 396.23 53.14, 405.44 42.39 M396.38 64.99 C398.15 63.2, 401.22 60.66, 403.6 56.69 M396.38 64.99 C398.46 63.02, 400.78 60.07, 403.6 56.69" stroke="#a5d8ff" stroke-width="1" fill="none"></path><path d="M16.43 0 C156.35 0.41, 297.35 0.58, 388.74 0 M16.43 0 C119.82 1.13, 224.1 1.26, 388.74 0 M388.74 0 C400.46 0.81, 406.64 4.69, 405.17 16.43 M388.74 0 C399.19 -0.28, 403.47 4.48, 405.17 16.43 M405.17 16.43 C404.67 24.51, 407.13 36.74, 405.17 49.29 M405.17 16.43 C404.55 24.93, 404.6 31.57, 405.17 49.29 M405.17 49.29 C404.8 59.09, 400.13 64.28, 388.74 65.72 M405.17 49.29 C404.65 58.81, 398.9 64.27, 388.74 65.72 M388.74 65.72 C270.07 68.71, 150.34 66.69, 16.43 65.72 M388.74 65.72 C276.1 66.51, 164.49 66, 16.43 65.72 M16.43 65.72 C4.91 65.17, 0.45 58.31, 0 49.29 M16.43 65.72 C6.71 63.76, -1.52 61.24, 0 49.29 M0 49.29 C0.59 41.62, 1.74 32.03, 0 16.43 M0 49.29 C-0.67 36.23, 0.99 22.99, 0 16.43 M0 16.43 C0.69 7, 3.89 -0.02, 16.43 0 M0 16.43 C1.69 6.53, 6 -0.82, 16.43 0" stroke="#1971c2" stroke-width="2" fill="none"></path></g><g transform="translate(208.2212906017212 98.10842251818616) rotate(0 40.65614318847656 19.4944109528156)"><text x="40.65614318847656" y="0" font-family="Virgil, Segoe UI Emoji" font-size="31.191057524504977px" fill="#1971c2" text-anchor="middle" style="white-space: pre;" direction="ltr" dominant-baseline="text-before-edge">s-app</text></g><g stroke-linecap="round" transform="translate(92.00026226678256 163.0585927092718) rotate(0 156.8771715234161 32.57933813781756)"><path d="M4.34 3.77 C4.34 3.77, 4.34 3.77, 4.34 3.77 M4.34 3.77 C4.34 3.77, 4.34 3.77, 4.34 3.77 M2.5 18.07 C4.5 12.7, 9.96 10.7, 17.59 0.72 M2.5 18.07 C4.87 15.17, 8.57 10.08, 17.59 0.72 M2.63 30.12 C12.64 18.94, 19.07 10.64, 28.22 0.68 M2.63 30.12 C9.79 21.08, 19.78 11.13, 28.22 0.68 M2.77 42.16 C15.76 26.6, 31.06 8.74, 38.85 0.65 M2.77 42.16 C13.64 28.62, 26.39 14.35, 38.85 0.65 M0.93 56.46 C20.06 35.6, 38.11 15.16, 49.48 0.61 M0.93 56.46 C16.98 39.38, 32.55 20.71, 49.48 0.61 M6.31 62.46 C24.89 43.44, 42.89 24.31, 59.45 1.33 M6.31 62.46 C18.44 49.02, 30.34 34.89, 59.45 1.33 M13.66 66.2 C35.63 42.67, 56.19 20.05, 70.08 1.3 M13.66 66.2 C31.64 44.19, 51.76 22.95, 70.08 1.3 M24.29 66.17 C36.8 51.66, 47.05 40.25, 80.71 1.26 M24.29 66.17 C36.88 52.04, 47.5 37.44, 80.71 1.26 M34.92 66.13 C51.42 45.8, 70.69 28.26, 91.34 1.23 M34.92 66.13 C50.92 47.54, 68.18 29.14, 91.34 1.23 M45.55 66.1 C61.21 47.52, 79.69 26.1, 101.97 1.19 M45.55 66.1 C66.89 42.13, 88.07 17.32, 101.97 1.19 M56.18 66.07 C69.35 50.65, 80.98 37.87, 112.61 1.16 M56.18 66.07 C76.14 40.89, 97.93 18.64, 112.61 1.16 M66.81 66.03 C84.69 47, 100.41 25.95, 123.24 1.13 M66.81 66.03 C84.83 45.03, 101.81 26.78, 123.24 1.13 M77.44 66 C97.26 41.13, 117.79 18.83, 133.87 1.09 M77.44 66 C96.08 43.6, 113.61 23.76, 133.87 1.09 M88.07 65.96 C102.93 52.11, 113.78 35.57, 144.5 1.06 M88.07 65.96 C100.65 51.2, 112.08 37.71, 144.5 1.06 M98.7 65.93 C120.03 43.03, 141.79 14.52, 155.13 1.02 M98.7 65.93 C118.78 43.98, 139.46 19.57, 155.13 1.02 M109.33 65.89 C126.36 45.22, 146.35 25.99, 165.76 0.99 M109.33 65.89 C122.42 50.82, 135.64 37.23, 165.76 0.99 M119.96 65.86 C141.03 42.95, 159.88 18.31, 176.39 0.95 M119.96 65.86 C132.32 50.5, 145.26 37.49, 176.39 0.95 M130.59 65.82 C147.32 45.19, 162.32 25.08, 187.02 0.92 M130.59 65.82 C146.22 47.89, 160.97 30.22, 187.02 0.92 M140.57 66.54 C163.51 42.24, 185.9 14.69, 197.65 0.88 M140.57 66.54 C159.6 45.75, 177.48 23.6, 197.65 0.88 M151.2 66.51 C174.21 44.52, 192.77 19.98, 208.28 0.85 M151.2 66.51 C170.99 42.74, 192.17 18.14, 208.28 0.85 M161.83 66.47 C183.14 40.15, 207.17 15.02, 218.91 0.82 M161.83 66.47 C176.93 50.09, 190.28 32.72, 218.91 0.82 M172.46 66.44 C195.39 41.12, 215.03 15.42, 229.54 0.78 M172.46 66.44 C193.67 43.23, 214.32 18.77, 229.54 0.78 M183.09 66.41 C199.74 45.01, 218.48 27.79, 239.51 1.5 M183.09 66.41 C195.16 51.39, 208.59 37.3, 239.51 1.5 M193.72 66.37 C206.26 49.26, 221.93 31.85, 250.14 1.47 M193.72 66.37 C206.38 53.09, 216.71 39.72, 250.14 1.47 M204.35 66.34 C216.19 51.35, 230.64 33.25, 260.77 1.43 M204.35 66.34 C219.93 49.19, 233.12 32.46, 260.77 1.43 M214.98 66.3 C237.78 40.18, 258.53 13.55, 271.4 1.4 M214.98 66.3 C229.55 49.31, 244.98 32.33, 271.4 1.4 M225.61 66.27 C246.77 42.02, 271.88 13.51, 282.03 1.36 M225.61 66.27 C247.15 42.68, 268.12 17.28, 282.03 1.36 M236.24 66.23 C251.11 50.63, 262.9 31.93, 292.66 1.33 M236.24 66.23 C255.73 41.99, 276.83 19.32, 292.66 1.33 M246.87 66.2 C266.6 42.78, 282.56 23.59, 302.63 2.05 M246.87 66.2 C268.06 40.63, 289.97 15.72, 302.63 2.05 M257.5 66.16 C274.67 45.31, 293.48 23.92, 310.64 5.03 M257.5 66.16 C269.59 53.57, 281.32 38.32, 310.64 5.03 M268.13 66.13 C282.03 54.07, 293.45 36.66, 315.37 11.79 M268.13 66.13 C286.02 47.31, 301.96 28.61, 315.37 11.79 M278.76 66.1 C289.28 53.14, 299.4 40.9, 315.5 23.83 M278.76 66.1 C293.07 48.2, 307.56 32.79, 315.5 23.83 M289.39 66.06 C300.02 54.26, 309.83 42.66, 315.63 35.87 M289.39 66.06 C296.6 56.95, 305.96 48.31, 315.63 35.87 M299.36 66.78 C307.17 58.89, 311.25 53.58, 316.42 47.16 M299.36 66.78 C303.61 61.55, 309.44 56.27, 316.42 47.16" stroke="#a5d8ff" stroke-width="1" fill="none"></path><path d="M16.29 0 C89.72 0.57, 162.78 -0.57, 297.46 0 M16.29 0 C82.29 1.26, 148.25 0.65, 297.46 0 M297.46 0 C307.89 -0.24, 312.28 4.56, 313.75 16.29 M297.46 0 C307.91 0.72, 313.45 4.74, 313.75 16.29 M313.75 16.29 C312.97 22.19, 315.34 31.39, 313.75 48.87 M313.75 16.29 C313.49 26.9, 313.89 37.95, 313.75 48.87 M313.75 48.87 C313.31 58.48, 307.63 63.89, 297.46 65.16 M313.75 48.87 C314.25 60.69, 310.29 67.14, 297.46 65.16 M297.46 65.16 C189.26 62.62, 81.22 62.89, 16.29 65.16 M297.46 65.16 C191.18 64.79, 85.51 64.26, 16.29 65.16 M16.29 65.16 C6.5 63.45, -1.33 60.59, 0 48.87 M16.29 65.16 C4.95 65.13, 0.88 60.4, 0 48.87 M0 48.87 C1.59 35.17, -2.13 22.59, 0 16.29 M0 48.87 C0.1 40.29, -1.04 30.17, 0 16.29 M0 16.29 C1.47 6.35, 5.88 -0.72, 16.29 0 M0 16.29 C-0.57 5.38, 5.35 1.15, 16.29 0" stroke="#1971c2" stroke-width="2" fill="none"></path></g><g transform="translate(208.86067963980804 176.14351989427377) rotate(0 40.016754150390625 19.4944109528156)"><text x="40.016754150390625" y="0" font-family="Virgil, Segoe UI Emoji" font-size="31.191057524504977px" fill="#1971c2" text-anchor="middle" style="white-space: pre;" direction="ltr" dominant-baseline="text-before-edge">c-app</text></g><g stroke-linecap="round" transform="translate(122.21857098582586 235.38409127114642) rotate(0 126.6588628043728 29.89194001479933)"><path d="M3.98 3.46 C3.98 3.46, 3.98 3.46, 3.98 3.46 M3.98 3.46 C3.98 3.46, 3.98 3.46, 3.98 3.46 M0.18 20.03 C2.11 16.64, 8.28 9.86, 17.23 0.4 M0.18 20.03 C7.49 11.85, 13.65 5.05, 17.23 0.4 M0.96 31.31 C8.33 23.4, 12.9 13.64, 27.86 0.37 M0.96 31.31 C9.93 22.49, 16.57 11.87, 27.86 0.37 M1.1 43.35 C12.75 31.26, 25.38 15.98, 38.49 0.34 M1.1 43.35 C15.09 27.48, 26.5 13.22, 38.49 0.34 M2.54 53.89 C16.95 36.89, 29.08 22.58, 48.47 1.06 M2.54 53.89 C16.91 37.65, 30.87 21.5, 48.47 1.06 M9.24 58.38 C24.67 39.06, 42.68 18.24, 59.1 1.02 M9.24 58.38 C28.77 37.23, 45.66 16.02, 59.1 1.02 M18.55 59.85 C34.95 39.55, 50.59 20.5, 69.73 0.99 M18.55 59.85 C29.28 46.66, 42.68 33.06, 69.73 0.99 M29.18 59.82 C40.86 45.66, 54.81 30.63, 80.36 0.95 M29.18 59.82 C43.56 44.37, 56.77 28.09, 80.36 0.95 M39.81 59.79 C52.24 43.68, 65.16 28.63, 90.99 0.92 M39.81 59.79 C53.34 43.12, 68.35 26.72, 90.99 0.92 M50.44 59.75 C70.53 37.54, 89.45 16.99, 101.62 0.88 M50.44 59.75 C68.7 37.95, 89.09 16.09, 101.62 0.88 M61.07 59.72 C77.08 43.11, 90.69 24.55, 112.25 0.85 M61.07 59.72 C71.34 47.26, 81.11 35.97, 112.25 0.85 M71.7 59.68 C87.59 41.81, 104.73 25.63, 122.88 0.81 M71.7 59.68 C82.54 47.73, 92.07 34.83, 122.88 0.81 M82.33 59.65 C93.08 47.9, 104.8 36.47, 133.51 0.78 M82.33 59.65 C94.22 44.77, 107.11 32.15, 133.51 0.78 M92.31 60.37 C108.6 39.81, 127.8 20.04, 144.14 0.75 M92.31 60.37 C104.78 48.44, 115.13 34.56, 144.14 0.75 M102.94 60.33 C124.54 38.37, 142.09 14.19, 154.77 0.71 M102.94 60.33 C121.25 38.12, 139.23 16.88, 154.77 0.71 M113.57 60.3 C125.07 44.38, 138.26 29.48, 165.4 0.68 M113.57 60.3 C126.98 45.12, 139.3 30.69, 165.4 0.68 M124.2 60.26 C139.09 41.22, 158.94 22.78, 176.03 0.64 M124.2 60.26 C134.89 48.04, 145.69 34.62, 176.03 0.64 M134.83 60.23 C146.89 48.12, 159.34 34.44, 186.66 0.61 M134.83 60.23 C148.73 46.22, 160.09 30.71, 186.66 0.61 M145.46 60.2 C165.4 36.64, 186.19 15.7, 197.29 0.57 M145.46 60.2 C166.56 36.02, 186.3 14.42, 197.29 0.57 M156.09 60.16 C177.8 37.49, 198.59 11.44, 207.92 0.54 M156.09 60.16 C177.93 37.29, 196.39 12.53, 207.92 0.54 M166.72 60.13 C178.94 43.68, 194.42 30.14, 218.55 0.5 M166.72 60.13 C185.75 40.54, 202.11 20.1, 218.55 0.5 M177.35 60.09 C191.7 45.03, 202.37 31.03, 228.52 1.22 M177.35 60.09 C194.88 40.49, 212.3 19.74, 228.52 1.22 M187.98 60.06 C196.99 47.93, 208.27 33.17, 239.15 1.19 M187.98 60.06 C202.6 43.13, 218.39 25.06, 239.15 1.19 M198.61 60.02 C210.04 43.99, 227.06 30.81, 247.81 3.42 M198.61 60.02 C217.05 38.97, 236.98 16.31, 247.81 3.42 M209.24 59.99 C223.74 42.49, 240.93 27.1, 252.54 10.18 M209.24 59.99 C222.92 46.39, 235.48 31.72, 252.54 10.18 M219.87 59.95 C229.05 47.96, 240.68 37.04, 252.67 22.22 M219.87 59.95 C229.73 50.15, 237.67 38.47, 252.67 22.22 M230.5 59.92 C239.89 49.05, 247.06 41.2, 252.81 34.26 M230.5 59.92 C238.41 51.04, 247.58 41.36, 252.81 34.26 M241.79 59.13 C246.74 56.06, 248.48 49.05, 252.94 46.3 M241.79 59.13 C244.94 56.23, 248.06 53.29, 252.94 46.3" stroke="#ffc9c9" stroke-width="1" fill="none"></path><path d="M14.95 0 C81.89 1.44, 150.37 2.01, 238.37 0 M14.95 0 C90.84 0.65, 166.47 0.38, 238.37 0 M238.37 0 C247.98 0.62, 253.05 4.39, 253.32 14.95 M238.37 0 C246.97 2.14, 255.35 3.73, 253.32 14.95 M253.32 14.95 C254.38 20.52, 251.53 26.71, 253.32 44.84 M253.32 14.95 C253.16 21.57, 253.04 28.8, 253.32 44.84 M253.32 44.84 C253.75 55.64, 250.05 61.51, 238.37 59.78 M253.32 44.84 C255.27 56.76, 246.49 59.83, 238.37 59.78 M238.37 59.78 C184.53 60.72, 127.91 58.6, 14.95 59.78 M238.37 59.78 C178 57.18, 116.14 58.29, 14.95 59.78 M14.95 59.78 C4.57 59.76, 0.77 55.38, 0 44.84 M14.95 59.78 C6.71 61.78, 1.26 56.95, 0 44.84 M0 44.84 C0.01 39.57, -0.58 32, 0 14.95 M0 44.84 C0.97 34.06, 0.46 22, 0 14.95 M0 14.95 C-0.5 4.94, 4.91 1, 14.95 0 M0 14.95 C2.23 3.85, 5.34 0.5, 14.95 0" stroke="#e03131" stroke-width="2" fill="none"></path></g><g transform="translate(226.95087434195648 245.78162033313015) rotate(0 21.926559448242188 19.4944109528156)"><text x="21.926559448242188" y="0" font-family="Virgil, Segoe UI Emoji" font-size="31.191057524504977px" fill="#e03131" text-anchor="middle" style="white-space: pre;" direction="ltr" dominant-baseline="text-before-edge">c-p</text></g><g stroke-linecap="round" transform="translate(10 509.8496848985699) rotate(0 238.87743379019867 32.57933813781756)"><path d="M4.34 3.77 C4.34 3.77, 4.34 3.77, 4.34 3.77 M4.34 3.77 C4.34 3.77, 4.34 3.77, 4.34 3.77 M-0.12 21.09 C6.59 12.38, 10.97 5.08, 18.25 -0.04 M-0.12 21.09 C6.3 13.61, 11.01 7.91, 18.25 -0.04 M0.67 32.38 C7.47 24.55, 15.99 14.41, 28.88 -0.07 M0.67 32.38 C7.01 23.43, 15.42 14.63, 28.88 -0.07 M0.8 44.42 C9.72 31.29, 19.55 21.02, 38.85 0.65 M0.8 44.42 C10.34 34.2, 18.61 25.09, 38.85 0.65 M0.93 56.46 C18.29 36.39, 36.14 15.9, 49.48 0.61 M0.93 56.46 C19.25 36.42, 37.18 15.33, 49.48 0.61 M6.31 62.46 C26.06 42.72, 42.23 20.37, 60.11 0.58 M6.31 62.46 C22.69 43.3, 40.9 23.67, 60.11 0.58 M14.32 65.45 C33.11 44.44, 48.52 24.76, 70.74 0.54 M14.32 65.45 C35.34 40.92, 54.43 17.5, 70.74 0.54 M24.95 65.41 C40.29 49.3, 58.97 27.65, 81.37 0.51 M24.95 65.41 C44.77 42.83, 63.17 22.14, 81.37 0.51 M35.58 65.38 C48.22 49.18, 61.29 35.37, 92 0.47 M35.58 65.38 C46.83 51.41, 60.54 36.92, 92 0.47 M46.21 65.34 C65.34 43.46, 81.84 24.46, 102.63 0.44 M46.21 65.34 C57.86 52.64, 69.29 38.96, 102.63 0.44 M56.84 65.31 C70.69 50.04, 83.29 39.23, 113.26 0.41 M56.84 65.31 C74.66 46.29, 91.94 25.52, 113.26 0.41 M67.47 65.28 C76.72 53.33, 89.15 37.04, 123.89 0.37 M67.47 65.28 C81.53 47.3, 96.97 29.95, 123.89 0.37 M78.1 65.24 C97.25 43.98, 114.26 24.51, 134.52 0.34 M78.1 65.24 C95.62 45.96, 113.43 25.05, 134.52 0.34 M88.73 65.21 C109.95 38.77, 132.66 11.62, 145.15 0.3 M88.73 65.21 C103.17 48.92, 117.22 32.61, 145.15 0.3 M99.36 65.17 C115.15 44.49, 131.41 27.25, 155.78 0.27 M99.36 65.17 C117.82 44.84, 134.66 24.25, 155.78 0.27 M109.99 65.14 C127.76 48.46, 142.39 29.8, 166.41 0.23 M109.99 65.14 C129.53 42.32, 148.75 20.92, 166.41 0.23 M120.62 65.1 C142.93 38.29, 165.83 14.66, 177.04 0.2 M120.62 65.1 C137.9 45.92, 155.12 25.98, 177.04 0.2 M130.59 65.82 C152.17 40.44, 172.74 19.5, 187.67 0.16 M130.59 65.82 C146.24 48.94, 160.84 31.47, 187.67 0.16 M141.22 65.79 C157.87 46.13, 175.29 28.09, 198.3 0.13 M141.22 65.79 C157.53 46.7, 174.43 26.3, 198.3 0.13 M151.85 65.75 C163.44 49.49, 177.94 35.82, 208.93 0.09 M151.85 65.75 C164.9 50.97, 178.53 36.07, 208.93 0.09 M162.48 65.72 C185.28 40.52, 206.85 14.24, 219.56 0.06 M162.48 65.72 C184.36 40.59, 208.26 14.35, 219.56 0.06 M173.11 65.69 C187.04 48.34, 204.51 30.09, 229.54 0.78 M173.11 65.69 C192.98 41.64, 215.32 17.23, 229.54 0.78 M183.75 65.65 C197.91 48.26, 215.72 31.14, 240.17 0.75 M183.75 65.65 C202.36 45.06, 219.14 26.08, 240.17 0.75 M194.38 65.62 C210.17 46.21, 225.62 29.79, 250.8 0.71 M194.38 65.62 C210.88 45.35, 229.74 25.11, 250.8 0.71 M205.01 65.58 C217.84 50.23, 232.95 35.07, 261.43 0.68 M205.01 65.58 C220.78 46.43, 236.77 27.99, 261.43 0.68 M215.64 65.55 C232.17 47.2, 246.64 31.79, 272.06 0.64 M215.64 65.55 C226.51 52.42, 239.38 37.6, 272.06 0.64 M226.27 65.51 C244.76 45.34, 261.4 28.63, 282.69 0.61 M226.27 65.51 C246.06 43.18, 264.88 19.65, 282.69 0.61 M236.9 65.48 C252.72 46.64, 268.2 28.71, 293.32 0.57 M236.9 65.48 C253.85 46.27, 269.78 25.23, 293.32 0.57 M247.53 65.44 C262.85 51.83, 273.42 34.28, 303.95 0.54 M247.53 65.44 C261.01 49.09, 275.82 34.09, 303.95 0.54 M258.16 65.41 C279.51 39.26, 300.11 15.67, 314.58 0.5 M258.16 65.41 C277.68 41.5, 298.88 17.91, 314.58 0.5 M268.79 65.38 C289.12 41.14, 314.34 15.16, 325.21 0.47 M268.79 65.38 C285.62 45.53, 303.93 23.99, 325.21 0.47 M279.42 65.34 C291.14 53.2, 303.33 35.81, 335.84 0.44 M279.42 65.34 C292.11 51.08, 305.7 35.71, 335.84 0.44 M290.05 65.31 C305.58 47.21, 321.31 28.69, 346.47 0.4 M290.05 65.31 C302.7 51.95, 313.79 36.55, 346.47 0.4 M300.68 65.27 C315.28 46.92, 330.13 29.8, 357.1 0.37 M300.68 65.27 C319.1 44.05, 337.04 24.01, 357.1 0.37 M311.31 65.24 C332.42 40.4, 356.44 14.19, 367.73 0.33 M311.31 65.24 C323.53 50.26, 337.31 35.47, 367.73 0.33 M321.94 65.2 C340.04 46.26, 354.9 26.24, 378.36 0.3 M321.94 65.2 C338.17 47.12, 353.93 29.58, 378.36 0.3 M331.91 65.92 C355.65 42.01, 374.72 13.44, 388.99 0.26 M331.91 65.92 C350.47 44.14, 367.61 24.42, 388.99 0.26 M342.54 65.89 C360.98 44.09, 383.42 21.68, 399.62 0.23 M342.54 65.89 C360.83 46.41, 379.57 23.64, 399.62 0.23 M353.17 65.85 C369.51 48.02, 383.42 32.28, 410.25 0.19 M353.17 65.85 C369.12 48.16, 384.11 30.74, 410.25 0.19 M363.8 65.82 C376.38 51.05, 387.67 37.91, 420.88 0.16 M363.8 65.82 C382.09 45.14, 399.19 24.9, 420.88 0.16 M374.43 65.79 C384.39 51.54, 398.1 39.61, 430.85 0.88 M374.43 65.79 C394.27 43.3, 413.14 20.04, 430.85 0.88 M385.06 65.75 C399.91 49.84, 410.77 36.08, 441.48 0.85 M385.06 65.75 C401.99 47.12, 418.93 27.49, 441.48 0.85 M395.69 65.72 C415.75 42.26, 437.66 19.28, 452.11 0.81 M395.69 65.72 C411.71 47.56, 427.25 28.67, 452.11 0.81 M406.32 65.68 C427.48 40.46, 450.28 17.27, 462.74 0.78 M406.32 65.68 C427.03 42.76, 447.51 19.39, 462.74 0.78 M416.95 65.65 C431.86 48.89, 451.17 29.93, 472.06 2.25 M416.95 65.65 C431.59 48.43, 445.75 31.95, 472.06 2.25 M427.58 65.61 C438.24 51.12, 451.54 38.21, 476.79 9.01 M427.58 65.61 C443.91 46.8, 461.65 27.66, 476.79 9.01 M438.21 65.58 C445.73 54.21, 457.65 45.25, 477.57 20.3 M438.21 65.58 C450.61 51.42, 460.63 39.24, 477.57 20.3 M448.84 65.54 C456.34 59.15, 461.53 48.65, 477.71 32.34 M448.84 65.54 C458.03 54.04, 468.34 43.58, 477.71 32.34 M459.47 65.51 C465.36 59.32, 471.09 54.39, 477.84 44.38 M459.47 65.51 C465.44 58.41, 471.35 52.57, 477.84 44.38" stroke="#ffc9c9" stroke-width="1" fill="none"></path><path d="M16.29 0 C178.13 -1.47, 340.78 -1.98, 461.47 0 M16.29 0 C155.73 -1.63, 294.24 -1.65, 461.47 0 M461.47 0 C472.99 1.62, 478.6 6.51, 477.75 16.29 M461.47 0 C473.2 -0.19, 478.42 5.12, 477.75 16.29 M477.75 16.29 C476.32 26.09, 479 37.23, 477.75 48.87 M477.75 16.29 C478.84 27.59, 477.8 40.24, 477.75 48.87 M477.75 48.87 C477.25 60.28, 471.13 64.4, 461.47 65.16 M477.75 48.87 C477.87 61.49, 472.7 66.25, 461.47 65.16 M461.47 65.16 C357.53 63.82, 253.08 63.28, 16.29 65.16 M461.47 65.16 C301.65 65.94, 142.32 65.16, 16.29 65.16 M16.29 65.16 C6.1 63.79, -1.73 59.95, 0 48.87 M16.29 65.16 C5.15 63.08, 1.25 58.08, 0 48.87 M0 48.87 C1.08 38.65, 1.71 25.98, 0 16.29 M0 48.87 C-0.28 40.95, -0.66 34.37, 0 16.29 M0 16.29 C-1.82 5.83, 5.43 0.46, 16.29 0 M0 16.29 C1.59 6.7, 7.08 -0.41, 16.29 0" stroke="#e03131" stroke-width="2" fill="none"></path></g><g transform="translate(226.31148530387054 522.9346120835718) rotate(0 22.565948486328125 19.4944109528156)"><text x="22.565948486328125" y="0" font-family="Virgil, Segoe UI Emoji" font-size="31.191057524504977px" fill="#e03131" text-anchor="middle" style="white-space: pre;" direction="ltr" dominant-baseline="text-before-edge">s-p</text></g><g stroke-linecap="round" transform="translate(46.2941755851125 584.5911342225938) rotate(0 202.5832582050857 32.8613841469778)"><path d="M4.37 3.8 C4.37 3.8, 4.37 3.8, 4.37 3.8 M4.37 3.8 C4.37 3.8, 4.37 3.8, 4.37 3.8 M-0.09 21.13 C4.66 14.5, 10.67 12.28, 18.28 -0.01 M-0.09 21.13 C3.98 15.28, 7.8 10.78, 18.28 -0.01 M0.7 32.41 C9.74 22.59, 20.24 8.38, 28.91 -0.04 M0.7 32.41 C7.77 24.64, 14.62 15.02, 28.91 -0.04 M0.84 44.45 C7.47 33.56, 15.96 27.76, 39.54 -0.08 M0.84 44.45 C9.6 34.26, 18.39 24.85, 39.54 -0.08 M0.97 56.49 C18.49 39.11, 32.37 21.02, 49.52 0.65 M0.97 56.49 C16.83 38.18, 32.54 20.54, 49.52 0.65 M6.35 62.5 C28.52 36.13, 49.33 11.17, 60.15 0.61 M6.35 62.5 C22.66 43.32, 38.2 25.15, 60.15 0.61 M14.36 65.48 C28.17 53.54, 40.22 39.46, 70.78 0.58 M14.36 65.48 C28.95 48.69, 42.81 32.09, 70.78 0.58 M24.99 65.45 C47.44 39.14, 68.65 15.36, 81.41 0.54 M24.99 65.45 C37.3 50.71, 50.9 35.43, 81.41 0.54 M35.62 65.41 C50.59 48.17, 67.31 26.36, 92.04 0.51 M35.62 65.41 C54.89 42.55, 73.07 21.36, 92.04 0.51 M46.25 65.38 C58.86 47.16, 75.5 32.17, 102.67 0.47 M46.25 65.38 C65.71 42.59, 85.7 19.95, 102.67 0.47 M56.22 66.1 C68.77 52.17, 79.39 37.07, 113.3 0.44 M56.22 66.1 C76.92 41.09, 100.3 14.81, 113.3 0.44 M66.85 66.06 C88.05 42.55, 110.6 15.5, 123.93 0.4 M66.85 66.06 C81.05 50.84, 95.28 35.44, 123.93 0.4 M77.48 66.03 C92.04 47.64, 105.65 30.79, 134.56 0.37 M77.48 66.03 C101.26 40.81, 122.37 13.94, 134.56 0.37 M88.11 65.99 C102.64 47.19, 117.53 30.49, 145.19 0.33 M88.11 65.99 C104.97 47.34, 120.47 27.88, 145.19 0.33 M98.74 65.96 C111.67 52.2, 123 39.66, 155.82 0.3 M98.74 65.96 C114.87 46.57, 131.82 29.33, 155.82 0.3 M109.37 65.93 C131.07 40.81, 151.29 17.15, 166.45 0.27 M109.37 65.93 C124.36 49.77, 137.95 33.78, 166.45 0.27 M120 65.89 C133.32 48.89, 147.66 33.67, 177.08 0.23 M120 65.89 C143.25 39, 165.29 14.28, 177.08 0.23 M130.63 65.86 C141.43 52.78, 152.12 39.57, 187.71 0.2 M130.63 65.86 C150.01 43.62, 168.73 21.23, 187.71 0.2 M141.26 65.82 C158.58 45.6, 176.3 24.62, 198.34 0.16 M141.26 65.82 C160.31 44.5, 180.86 20.85, 198.34 0.16 M151.89 65.79 C165.47 47.91, 182.13 30.77, 208.97 0.13 M151.89 65.79 C171.26 44.54, 189.59 22.97, 208.97 0.13 M162.52 65.75 C180.13 46.44, 195.02 27, 219.6 0.09 M162.52 65.75 C182.91 41.16, 204.69 16.33, 219.6 0.09 M173.15 65.72 C190.9 48.1, 204.55 25.99, 230.23 0.06 M173.15 65.72 C187.49 48.79, 202.59 30.94, 230.23 0.06 M183.78 65.68 C199.94 46.91, 214.35 29.63, 240.2 0.78 M183.78 65.68 C196.81 49.88, 210.13 34.88, 240.2 0.78 M194.41 65.65 C207.22 51.4, 220.81 34.79, 250.83 0.74 M194.41 65.65 C211.96 45.31, 230.97 23.13, 250.83 0.74 M205.04 65.61 C223.56 44.39, 243.26 21.04, 261.46 0.71 M205.04 65.61 C221.18 47.34, 237.58 29.46, 261.46 0.71 M215.67 65.58 C226.78 51.92, 241.85 33.77, 272.09 0.68 M215.67 65.58 C235.76 41.77, 255.36 19.54, 272.09 0.68 M226.3 65.55 C241.47 49.59, 255.77 32.56, 282.72 0.64 M226.3 65.55 C248.54 39.63, 270.72 14.83, 282.72 0.64 M236.93 65.51 C253.86 47.66, 271.82 28.24, 293.35 0.61 M236.93 65.51 C258.07 41.84, 279.45 17.95, 293.35 0.61 M246.91 66.23 C268.87 40.41, 291.25 13.67, 303.98 0.57 M246.91 66.23 C259.22 52.11, 271.11 38.48, 303.98 0.57 M257.54 66.2 C270.84 53.47, 280.82 37.52, 314.61 0.54 M257.54 66.2 C271.88 51.46, 283.49 34.79, 314.61 0.54 M268.17 66.16 C287.09 45.1, 305.2 20.9, 325.24 0.5 M268.17 66.16 C286.85 45.05, 306.99 21.84, 325.24 0.5 M278.8 66.13 C299.41 41.53, 320.93 14.9, 335.87 0.47 M278.8 66.13 C299.52 42.5, 320.69 18.11, 335.87 0.47 M289.43 66.09 C308.54 44.2, 328.61 20.5, 346.5 0.43 M289.43 66.09 C310.3 43.4, 330.54 18.65, 346.5 0.43 M300.06 66.06 C316.48 46.68, 329.84 29.79, 357.13 0.4 M300.06 66.06 C314.45 51.89, 326.87 35.59, 357.13 0.4 M310.69 66.02 C329.51 41.93, 353.3 16.75, 367.76 0.36 M310.69 66.02 C331.68 41.14, 352.4 18.19, 367.76 0.36 M321.32 65.99 C337.75 47.22, 354.04 28.83, 378.39 0.33 M321.32 65.99 C337.58 46.93, 352.22 30.1, 378.39 0.33 M331.95 65.96 C353.95 42.23, 376.46 18.91, 389.02 0.3 M331.95 65.96 C347.65 49.38, 361.3 30.94, 389.02 0.3 M342.58 65.92 C361.58 44.5, 378.58 22.44, 397.69 2.53 M342.58 65.92 C363.49 41.19, 385.34 16.82, 397.69 2.53 M353.21 65.89 C363.06 51.65, 375.48 41.72, 403.07 8.53 M353.21 65.89 C364.62 51.65, 377.97 37.21, 403.07 8.53 M363.84 65.85 C376.27 53.9, 385.82 40.28, 405.17 18.31 M363.84 65.85 C373.13 54.75, 385.17 41.74, 405.17 18.31 M374.47 65.82 C383.7 54.73, 393.14 45.85, 405.3 30.35 M374.47 65.82 C385.38 51.96, 396.76 40.53, 405.3 30.35 M385.1 65.78 C390.04 59.5, 393.38 54.29, 405.44 42.39 M385.1 65.78 C392.6 57.89, 397.83 49.76, 405.44 42.39 M396.38 64.99 C398.28 62.29, 401.22 60.21, 403.6 56.69 M396.38 64.99 C399.15 61.87, 401.54 59.45, 403.6 56.69" stroke="#a5d8ff" stroke-width="1" fill="none"></path><path d="M16.43 0 C121.25 2.77, 226.69 2.14, 388.74 0 M16.43 0 C131.36 0.43, 246.14 0.26, 388.74 0 M388.74 0 C400.45 -0.16, 405.75 5.21, 405.17 16.43 M388.74 0 C399.82 0.45, 403.43 3.76, 405.17 16.43 M405.17 16.43 C406.58 27.27, 403.82 37.41, 405.17 49.29 M405.17 16.43 C404.86 25.03, 404.52 32.69, 405.17 49.29 M405.17 49.29 C405.27 61.78, 400.02 66.67, 388.74 65.72 M405.17 49.29 C403.63 59.35, 397.56 65.27, 388.74 65.72 M388.74 65.72 C251.69 65.89, 113.37 65.48, 16.43 65.72 M388.74 65.72 C240.77 63.9, 91.86 64.38, 16.43 65.72 M16.43 65.72 C5.24 63.92, 1.09 58.82, 0 49.29 M16.43 65.72 C6.59 65.71, 0.63 61.49, 0 49.29 M0 49.29 C-1.92 36.81, 1.1 25.07, 0 16.43 M0 49.29 C-0.65 42.32, 0.26 35.17, 0 16.43 M0 16.43 C1.38 6.58, 6.91 -0.35, 16.43 0 M0 16.43 C0.69 6.02, 3.56 0.42, 16.43 0" stroke="#1971c2" stroke-width="2" fill="none"></path></g><g transform="translate(208.2212906017212 597.958107416756) rotate(0 40.65614318847656 19.4944109528156)"><text x="40.65614318847656" y="0" font-family="Virgil, Segoe UI Emoji" font-size="31.191057524504977px" fill="#1971c2" text-anchor="middle" style="white-space: pre;" direction="ltr" dominant-baseline="text-before-edge">s-app</text></g><g stroke-linecap="round" transform="translate(92.00026226678256 662.9082776078417) rotate(0 156.8771715234161 32.57933813781756)"><path d="M4.34 3.77 C4.34 3.77, 4.34 3.77, 4.34 3.77 M4.34 3.77 C4.34 3.77, 4.34 3.77, 4.34 3.77 M-0.12 21.09 C2.16 15.48, 7.84 11.52, 18.25 -0.04 M-0.12 21.09 C4.19 16.68, 7.31 12.23, 18.25 -0.04 M0.67 32.38 C9.93 21.21, 19.49 8.91, 28.22 0.68 M0.67 32.38 C9.99 20.46, 20.63 8.77, 28.22 0.68 M0.8 44.42 C7.38 36.33, 16.38 27.01, 38.85 0.65 M0.8 44.42 C9.86 33.83, 18.9 24.11, 38.85 0.65 M0.93 56.46 C19.21 37.76, 35.55 16.79, 49.48 0.61 M0.93 56.46 C15.41 39.7, 28.66 24.92, 49.48 0.61 M6.31 62.46 C18.87 49.87, 30.56 34.81, 60.11 0.58 M6.31 62.46 C20.99 44.68, 36.01 28.48, 60.11 0.58 M14.32 65.45 C35.11 38.28, 57.87 13.84, 70.74 0.54 M14.32 65.45 C30.66 49.39, 44 31.63, 70.74 0.54 M24.95 65.41 C37.53 48.62, 53.98 31.9, 81.37 0.51 M24.95 65.41 C42.6 44.21, 61.56 23.49, 81.37 0.51 M35.58 65.38 C58.07 41.48, 79.69 17.04, 92 0.47 M35.58 65.38 C48.83 49.11, 63.29 33.61, 92 0.47 M46.21 65.34 C59.18 51.17, 70.04 36.19, 102.63 0.44 M46.21 65.34 C64.79 44.24, 85.26 21.93, 102.63 0.44 M56.84 65.31 C80.07 41.1, 100.29 14.78, 113.26 0.41 M56.84 65.31 C75.6 44.21, 92.43 23.17, 113.26 0.41 M67.47 65.28 C85.42 42.92, 104.55 21.72, 123.89 0.37 M67.47 65.28 C85.83 43.48, 105.24 20.99, 123.89 0.37 M78.1 65.24 C92.86 49.75, 104.55 38.49, 134.52 0.34 M78.1 65.24 C99.02 40.89, 119.49 16.5, 134.52 0.34 M88.73 65.21 C100.64 50.35, 112.8 38.38, 145.15 0.3 M88.73 65.21 C106.36 44.04, 125.39 24.32, 145.15 0.3 M99.36 65.17 C117.09 44.23, 134.45 23.2, 155.78 0.27 M99.36 65.17 C112.57 50.45, 124.92 35.85, 155.78 0.27 M109.99 65.14 C123.95 47.5, 140.72 32.31, 166.41 0.23 M109.99 65.14 C126.53 45.56, 144.86 24.85, 166.41 0.23 M119.96 65.86 C135.23 49.46, 148.77 35.69, 177.04 0.2 M119.96 65.86 C132.37 50.65, 147.08 34.3, 177.04 0.2 M130.59 65.82 C150.67 43.19, 170.01 22.29, 187.67 0.16 M130.59 65.82 C148.54 45.4, 167.17 25.26, 187.67 0.16 M141.22 65.79 C159.49 44.94, 175.06 24.25, 198.3 0.13 M141.22 65.79 C161.59 41.95, 183.41 17.06, 198.3 0.13 M151.85 65.75 C168.41 48.26, 184.68 30.52, 208.93 0.09 M151.85 65.75 C172.77 41.74, 193.23 17.4, 208.93 0.09 M162.48 65.72 C177.85 51.42, 190.88 33.13, 218.91 0.82 M162.48 65.72 C178.78 47.83, 194.7 28.81, 218.91 0.82 M173.11 65.69 C193.75 43.41, 214.08 17.57, 229.54 0.78 M173.11 65.69 C190.51 46.94, 207.94 26.29, 229.54 0.78 M183.75 65.65 C200.41 44.97, 220.74 24.6, 240.17 0.75 M183.75 65.65 C199.17 47.07, 216.04 28.66, 240.17 0.75 M194.38 65.62 C212.01 46.72, 229.42 24.74, 250.8 0.71 M194.38 65.62 C216.33 41.15, 238.44 15.74, 250.8 0.71 M205.01 65.58 C224.24 41.71, 244.78 19.64, 261.43 0.68 M205.01 65.58 C223.27 44.08, 243 20.73, 261.43 0.68 M215.64 65.55 C238.92 41.31, 258.83 15.11, 272.06 0.64 M215.64 65.55 C228.76 50.44, 243.35 35.58, 272.06 0.64 M226.27 65.51 C247.53 40.81, 266.14 19.39, 282.69 0.61 M226.27 65.51 C239.18 49.91, 252.63 35.5, 282.69 0.61 M236.9 65.48 C258.28 40.48, 275.61 17.33, 293.32 0.57 M236.9 65.48 C257.12 42.48, 275.2 20.77, 293.32 0.57 M247.53 65.44 C263.71 47.04, 282.94 26.74, 303.29 1.29 M247.53 65.44 C262.05 47.25, 278.02 29.82, 303.29 1.29 M258.16 65.41 C274.65 45.81, 292.01 27.29, 309.98 5.79 M258.16 65.41 C276.58 46.43, 293.84 25.69, 309.98 5.79 M268.79 65.38 C285.35 47.55, 298.74 28.15, 313.4 14.06 M268.79 65.38 C287.17 45.4, 302.89 24.57, 313.4 14.06 M279.42 65.34 C291.51 52.72, 302 41.11, 313.53 26.1 M279.42 65.34 C291.3 51.5, 303.03 38.13, 313.53 26.1 M290.05 65.31 C300.67 53.01, 307.96 43.58, 313.66 38.14 M290.05 65.31 C298.81 54.39, 308.2 45.12, 313.66 38.14 M301.33 64.52 C302.91 60.22, 307.5 59.92, 313.8 50.18 M301.33 64.52 C306.77 59.3, 311.52 52.56, 313.8 50.18" stroke="#a5d8ff" stroke-width="1" fill="none"></path><path d="M16.29 0 C127.76 -2.48, 239.03 -0.44, 297.46 0 M16.29 0 C123.66 -1.22, 230.67 -1.26, 297.46 0 M297.46 0 C308.44 0.39, 312.24 3.93, 313.75 16.29 M297.46 0 C308.15 1.36, 314.93 6.84, 313.75 16.29 M313.75 16.29 C312.57 27.75, 314.34 39.33, 313.75 48.87 M313.75 16.29 C313.61 27.72, 313.72 38.1, 313.75 48.87 M313.75 48.87 C312.42 58.95, 306.47 64.76, 297.46 65.16 M313.75 48.87 C315.37 57.63, 308.68 66.5, 297.46 65.16 M297.46 65.16 C218.85 64.19, 136.29 64.63, 16.29 65.16 M297.46 65.16 C232.21 64.71, 167.56 64.85, 16.29 65.16 M16.29 65.16 C6.4 65.15, 0.55 60.81, 0 48.87 M16.29 65.16 C6.72 67.13, -0.22 57.84, 0 48.87 M0 48.87 C-1.86 38.77, -0.83 30.01, 0 16.29 M0 48.87 C0.69 38.99, 0.72 27.84, 0 16.29 M0 16.29 C0.6 5.9, 3.76 0.36, 16.29 0 M0 16.29 C0.89 5.22, 3.67 0.41, 16.29 0" stroke="#1971c2" stroke-width="2" fill="none"></path></g><g transform="translate(208.86067963980804 675.9932047928436) rotate(0 40.016754150390625 19.4944109528156)"><text x="40.016754150390625" y="0" font-family="Virgil, Segoe UI Emoji" font-size="31.191057524504977px" fill="#1971c2" text-anchor="middle" style="white-space: pre;" direction="ltr" dominant-baseline="text-before-edge">c-app</text></g><g stroke-linecap="round" transform="translate(122.21857098582586 735.2337761697163) rotate(0 126.6588628043728 29.89194001479933)"><path d="M3.98 3.46 C3.98 3.46, 3.98 3.46, 3.98 3.46 M3.98 3.46 C3.98 3.46, 3.98 3.46, 3.98 3.46 M2.8 17.01 C4.26 11.81, 8.37 10.05, 16.58 1.16 M2.8 17.01 C7.3 12.69, 9.6 7.86, 16.58 1.16 M2.93 29.05 C11.73 18.75, 16.99 10.24, 27.21 1.13 M2.93 29.05 C7.97 21.94, 15.54 14.92, 27.21 1.13 M3.07 41.09 C14.84 28.03, 28.31 11.97, 37.84 1.09 M3.07 41.09 C13.51 29.02, 23.64 18.31, 37.84 1.09 M3.2 53.13 C20.66 33.19, 39.62 14.21, 48.47 1.06 M3.2 53.13 C12.06 41.54, 21.77 30.44, 48.47 1.06 M7.92 59.89 C25.67 37.14, 45.54 16.63, 59.1 1.02 M7.92 59.89 C23.17 44.07, 37.13 27.07, 59.1 1.02 M15.93 62.87 C28.04 47.01, 40.61 35.55, 69.73 0.99 M15.93 62.87 C36.9 38.26, 58.91 13.43, 69.73 0.99 M26.56 62.84 C41.25 46.92, 54.59 29.2, 79.7 1.71 M26.56 62.84 C38.87 49.05, 49.16 36.04, 79.7 1.71 M36.53 63.56 C51.91 42.65, 70.38 23.44, 90.33 1.67 M36.53 63.56 C46.92 51.04, 59.12 37.91, 90.33 1.67 M47.16 63.52 C62.68 45.03, 78.53 28.28, 100.96 1.64 M47.16 63.52 C68.27 38.3, 89.13 15.93, 100.96 1.64 M57.79 63.49 C74.83 46.02, 89.09 26.97, 111.59 1.6 M57.79 63.49 C72.24 48.26, 84.65 31.94, 111.59 1.6 M68.42 63.46 C83.87 47.87, 99.29 29.64, 122.22 1.57 M68.42 63.46 C87.57 40.14, 107.44 18.64, 122.22 1.57 M79.05 63.42 C92.83 47.93, 103.08 33.32, 132.85 1.53 M79.05 63.42 C93.12 46.48, 107.92 30.41, 132.85 1.53 M89.68 63.39 C101.87 48.04, 112.4 34.36, 143.48 1.5 M89.68 63.39 C101.6 49.38, 114.19 35.85, 143.48 1.5 M100.31 63.35 C115.3 45.42, 134.77 27.48, 154.11 1.47 M100.31 63.35 C118.07 42.08, 136.67 20.49, 154.11 1.47 M110.94 63.32 C126.19 46.34, 141.6 26.56, 164.74 1.43 M110.94 63.32 C129.81 41.15, 149.64 19.11, 164.74 1.43 M121.58 63.28 C133.6 47.49, 149.53 29.28, 175.37 1.4 M121.58 63.28 C140.7 40.76, 159.85 20.08, 175.37 1.4 M132.21 63.25 C146.28 46.11, 159.73 30.5, 186 1.36 M132.21 63.25 C146.49 46.44, 160.72 29.62, 186 1.36 M142.84 63.21 C158.3 48.67, 169.42 31.26, 196.63 1.33 M142.84 63.21 C158.49 45.19, 174.66 26.84, 196.63 1.33 M153.47 63.18 C173.08 41.99, 191.82 20.03, 207.26 1.29 M153.47 63.18 C174.3 38.95, 194.78 15.55, 207.26 1.29 M164.1 63.15 C183.72 40.84, 202.78 17.42, 217.89 1.26 M164.1 63.15 C185.53 38.46, 204.52 15.52, 217.89 1.26 M174.73 63.11 C194.75 40.25, 213.25 18.19, 228.52 1.22 M174.73 63.11 C195.77 38.01, 217.59 14.08, 228.52 1.22 M185.36 63.08 C200.35 44.8, 216.52 25.37, 239.15 1.19 M185.36 63.08 C201.53 45.15, 216.53 26.31, 239.15 1.19 M195.99 63.04 C214.8 43.79, 229.83 24.39, 247.16 4.17 M195.99 63.04 C213.17 43.66, 229.52 23.5, 247.16 4.17 M205.96 63.76 C217.51 51.23, 229.7 37.37, 253.2 9.42 M205.96 63.76 C224.45 43.79, 240.76 24.07, 253.2 9.42 M216.59 63.73 C228.07 47.78, 243.03 33.74, 253.33 21.46 M216.59 63.73 C228.74 50.21, 240.49 36.69, 253.33 21.46 M227.22 63.69 C231.42 57.69, 237.64 50.64, 253.46 33.5 M227.22 63.69 C233.8 57.5, 239.6 50.55, 253.46 33.5 M239.82 61.39 C243.99 56.77, 248.43 55.76, 254.25 44.79 M239.82 61.39 C243.32 56.91, 246.34 52.84, 254.25 44.79" stroke="#ffc9c9" stroke-width="1" fill="none"></path><path d="M14.95 0 C61.06 0.09, 105.32 0.01, 238.37 0 M14.95 0 C80.2 0.42, 144.7 -0.39, 238.37 0 M238.37 0 C248.18 1.18, 254.34 6.21, 253.32 14.95 M238.37 0 C249.75 -1.77, 255.35 3.91, 253.32 14.95 M253.32 14.95 C253.99 22.26, 252.68 32.05, 253.32 44.84 M253.32 14.95 C252.7 25.82, 252.44 37.26, 253.32 44.84 M253.32 44.84 C254.72 52.98, 248.65 60.95, 238.37 59.78 M253.32 44.84 C252.97 55.12, 247.22 62.04, 238.37 59.78 M238.37 59.78 C169.15 58.94, 102.46 60.23, 14.95 59.78 M238.37 59.78 C191.9 58.4, 144.84 58.87, 14.95 59.78 M14.95 59.78 C6.11 61.49, -0.19 53.16, 0 44.84 M14.95 59.78 C4.09 61.38, -0.92 52.92, 0 44.84 M0 44.84 C0.49 38.23, 0.55 33.01, 0 14.95 M0 44.84 C0.09 34.45, -1.05 23.77, 0 14.95 M0 14.95 C0.78 4.8, 3.45 0.36, 14.95 0 M0 14.95 C-2.29 4.79, 4.71 1.99, 14.95 0" stroke="#e03131" stroke-width="2" fill="none"></path></g><g transform="translate(226.95087434195648 745.6313052317) rotate(0 21.926559448242188 19.4944109528156)"><text x="21.926559448242188" y="0" font-family="Virgil, Segoe UI Emoji" font-size="31.191057524504977px" fill="#e03131" text-anchor="middle" style="white-space: pre;" direction="ltr" dominant-baseline="text-before-edge">c-p</text></g><g stroke-linecap="round" transform="translate(650.4138762966377 83.39522850110666) rotate(0 202.5832582050857 32.8613841469778)"><path d="M4.37 3.8 C4.37 3.8, 4.37 3.8, 4.37 3.8 M4.37 3.8 C4.37 3.8, 4.37 3.8, 4.37 3.8 M-0.09 21.13 C3.74 13.79, 11.18 8.33, 18.28 -0.01 M-0.09 21.13 C6.78 14.06, 12.81 6.61, 18.28 -0.01 M0.7 32.41 C9.13 23.9, 14.13 17.36, 28.91 -0.04 M0.7 32.41 C10.99 20.63, 21.89 8.78, 28.91 -0.04 M0.84 44.45 C13.05 29.44, 26.57 18.96, 39.54 -0.08 M0.84 44.45 C15.55 29.28, 27.75 13.68, 39.54 -0.08 M0.97 56.49 C12.23 42.28, 23.09 30.74, 49.52 0.65 M0.97 56.49 C12.97 42.46, 25.01 29.9, 49.52 0.65 M6.35 62.5 C23.61 39.68, 42.51 21.28, 60.15 0.61 M6.35 62.5 C22.59 44.59, 38.08 24.3, 60.15 0.61 M14.36 65.48 C33.59 45.02, 53.19 22.31, 70.78 0.58 M14.36 65.48 C25.15 51.78, 36.53 39.17, 70.78 0.58 M24.99 65.45 C47.28 42.32, 66.93 18.9, 81.41 0.54 M24.99 65.45 C42.01 45.39, 59.16 25.54, 81.41 0.54 M35.62 65.41 C54.78 44.07, 70.75 26, 92.04 0.51 M35.62 65.41 C50.54 49.89, 63.56 32.4, 92.04 0.51 M46.25 65.38 C66.19 43.64, 88.18 16.97, 102.67 0.47 M46.25 65.38 C66.16 42.83, 85.58 21.28, 102.67 0.47 M56.22 66.1 C70.49 47.32, 87.61 32.98, 113.3 0.44 M56.22 66.1 C67.02 51.71, 78.54 38.54, 113.3 0.44 M66.85 66.06 C78.62 53.35, 88.82 39.07, 123.93 0.4 M66.85 66.06 C86.44 43.42, 107.88 18.62, 123.93 0.4 M77.48 66.03 C100.4 40.25, 124.19 15.47, 134.56 0.37 M77.48 66.03 C89.16 52.13, 101.66 37.05, 134.56 0.37 M88.11 65.99 C109.9 43.62, 128.54 20.16, 145.19 0.33 M88.11 65.99 C107.26 43, 127.37 19.86, 145.19 0.33 M98.74 65.96 C119.13 44.05, 138.5 19.23, 155.82 0.3 M98.74 65.96 C112.73 50.77, 125.92 36.07, 155.82 0.3 M109.37 65.93 C124.23 51, 137.29 33.5, 166.45 0.27 M109.37 65.93 C125.79 45.62, 144.44 25.34, 166.45 0.27 M120 65.89 C133.34 53.01, 145.81 34.9, 177.08 0.23 M120 65.89 C139.36 43.05, 158.18 22.54, 177.08 0.23 M130.63 65.86 C146.31 50.12, 159.79 35.48, 187.71 0.2 M130.63 65.86 C146.98 48.26, 162.38 28.7, 187.71 0.2 M141.26 65.82 C154.37 49.87, 169.8 31.66, 198.34 0.16 M141.26 65.82 C151.9 51.48, 164.18 38.07, 198.34 0.16 M151.89 65.79 C167.36 48.86, 180.22 31.1, 208.97 0.13 M151.89 65.79 C166.46 48.07, 180.81 32.38, 208.97 0.13 M162.52 65.75 C180.81 42.98, 201.17 24.3, 219.6 0.09 M162.52 65.75 C176.73 47.82, 193.63 30.98, 219.6 0.09 M173.15 65.72 C185.57 49.58, 199.13 38.29, 230.23 0.06 M173.15 65.72 C193.19 42.5, 211.97 21.22, 230.23 0.06 M183.78 65.68 C200.32 44.23, 219.74 22.58, 240.2 0.78 M183.78 65.68 C202.51 44.28, 222.54 23.04, 240.2 0.78 M194.41 65.65 C215.07 44.19, 231.39 19.63, 250.83 0.74 M194.41 65.65 C214.49 41.43, 234.47 18.55, 250.83 0.74 M205.04 65.61 C224 45.21, 239.44 23.94, 261.46 0.71 M205.04 65.61 C223.3 42.73, 243.15 19.75, 261.46 0.71 M215.67 65.58 C231.42 50.24, 245.21 32.34, 272.09 0.68 M215.67 65.58 C229.1 50.13, 244.45 32.28, 272.09 0.68 M226.3 65.55 C238.93 51.27, 250.47 36.53, 282.72 0.64 M226.3 65.55 C240.47 47.63, 256.9 29.22, 282.72 0.64 M236.93 65.51 C256.34 45.3, 271.49 23.2, 293.35 0.61 M236.93 65.51 C251.72 46.85, 267.51 28.77, 293.35 0.61 M246.91 66.23 C267.29 45.85, 283.77 21.87, 303.98 0.57 M246.91 66.23 C268.52 41.44, 290.19 15.01, 303.98 0.57 M257.54 66.2 C270.96 49.9, 284.46 35.04, 314.61 0.54 M257.54 66.2 C280.21 40.39, 301.62 14.5, 314.61 0.54 M268.17 66.16 C290.58 41.75, 311.34 13.78, 325.24 0.5 M268.17 66.16 C289.25 40.77, 310.61 16.01, 325.24 0.5 M278.8 66.13 C297.23 44.57, 316.34 25.21, 335.87 0.47 M278.8 66.13 C297.65 45.32, 315.49 24.27, 335.87 0.47 M289.43 66.09 C306.31 50.05, 319.62 28.54, 346.5 0.43 M289.43 66.09 C303.16 48.58, 318.48 32.55, 346.5 0.43 M300.06 66.06 C321.18 41.73, 346.73 15.01, 357.13 0.4 M300.06 66.06 C313.25 51.88, 324.71 37.74, 357.13 0.4 M310.69 66.02 C328.55 43.43, 350.59 21.16, 367.76 0.36 M310.69 66.02 C325.91 48.65, 341.06 30.29, 367.76 0.36 M321.32 65.99 C336.05 51.22, 345.95 36.37, 378.39 0.33 M321.32 65.99 C336.03 48.78, 350.12 31.89, 378.39 0.33 M331.95 65.96 C351.23 47.01, 366.39 24.21, 389.02 0.3 M331.95 65.96 C351.09 44.85, 370.84 21.99, 389.02 0.3 M342.58 65.92 C353.16 54.37, 365.69 40.36, 397.69 2.53 M342.58 65.92 C356.97 49.87, 370.51 33.74, 397.69 2.53 M353.21 65.89 C372.27 44.23, 389.75 24.58, 403.07 8.53 M353.21 65.89 C365.72 51.82, 379.06 37.76, 403.07 8.53 M363.84 65.85 C372.65 56.45, 381.5 43.37, 405.17 18.31 M363.84 65.85 C380.56 47.4, 394.65 29.8, 405.17 18.31 M374.47 65.82 C382.48 58.42, 385.13 51.11, 405.3 30.35 M374.47 65.82 C382.78 55.57, 390.23 47.29, 405.3 30.35 M385.1 65.78 C394.39 56.34, 399.76 46.87, 405.44 42.39 M385.1 65.78 C390.66 58.49, 397.81 51.28, 405.44 42.39 M396.38 64.99 C397.13 62.98, 398.55 61.07, 403.6 56.69 M396.38 64.99 C398.72 62.68, 400.66 59.85, 403.6 56.69" stroke="#a5d8ff" stroke-width="1" fill="none"></path><path d="M16.43 0 C122.76 1.86, 228.63 2.15, 388.74 0 M16.43 0 C115.17 -1.67, 213.62 -1.74, 388.74 0 M388.74 0 C399.88 -0.91, 406.27 5, 405.17 16.43 M388.74 0 C401.01 0.77, 407.18 3.81, 405.17 16.43 M405.17 16.43 C403.47 23.66, 405.71 34.38, 405.17 49.29 M405.17 16.43 C404.73 30.03, 405.82 43.04, 405.17 49.29 M405.17 49.29 C403.88 59.2, 400.6 67.07, 388.74 65.72 M405.17 49.29 C406.98 60.68, 400.76 63.8, 388.74 65.72 M388.74 65.72 C261.34 67.27, 136.13 67.12, 16.43 65.72 M388.74 65.72 C240.47 67.1, 92.11 67.52, 16.43 65.72 M16.43 65.72 C6.6 64.78, 1.44 58.6, 0 49.29 M16.43 65.72 C3.66 65.42, -0.13 60.11, 0 49.29 M0 49.29 C0.54 41.74, -1.7 32.32, 0 16.43 M0 49.29 C-0.95 41.81, 0.84 32.44, 0 16.43 M0 16.43 C-0.52 6.53, 6.29 0.96, 16.43 0 M0 16.43 C-1.42 7.71, 5.02 1.5, 16.43 0" stroke="#1971c2" stroke-width="2" fill="none"></path></g><g transform="translate(812.3409913132464 96.76220169526886) rotate(0 40.65614318847656 19.4944109528156)"><text x="40.65614318847656" y="0" font-family="Virgil, Segoe UI Emoji" font-size="31.191057524504977px" fill="#1971c2" text-anchor="middle" style="white-space: pre;" direction="ltr" dominant-baseline="text-before-edge">s-app</text></g><g stroke-linecap="round" transform="translate(696.1199629783086 161.71237188635496) rotate(0 156.8771715234161 32.57933813781756)"><path d="M4.34 3.77 C4.34 3.77, 4.34 3.77, 4.34 3.77 M4.34 3.77 C4.34 3.77, 4.34 3.77, 4.34 3.77 M-0.12 21.09 C5.58 15.09, 9.16 10.98, 18.25 -0.04 M-0.12 21.09 C5.08 15.2, 10.59 8.61, 18.25 -0.04 M0.67 32.38 C9.2 25.36, 13.91 15.94, 28.22 0.68 M0.67 32.38 C9.64 21.83, 17.89 11.71, 28.22 0.68 M0.8 44.42 C10.19 33.13, 17.56 25.83, 38.85 0.65 M0.8 44.42 C13.18 28.88, 26.17 14.45, 38.85 0.65 M0.93 56.46 C12.15 43.33, 23.64 29.5, 49.48 0.61 M0.93 56.46 C12.16 42.86, 22.85 30.01, 49.48 0.61 M6.31 62.46 C19.03 47.86, 31.04 33.75, 60.11 0.58 M6.31 62.46 C27.37 38.87, 47.48 16.41, 60.11 0.58 M14.32 65.45 C31.97 43.37, 53.69 19.01, 70.74 0.54 M14.32 65.45 C27.87 50.69, 39.46 36.92, 70.74 0.54 M24.95 65.41 C44.88 42.61, 65.83 19.22, 81.37 0.51 M24.95 65.41 C44.67 43.56, 63.39 21.74, 81.37 0.51 M35.58 65.38 C49.6 46.39, 66.32 31.77, 92 0.47 M35.58 65.38 C57.19 42.91, 76.51 17.99, 92 0.47 M46.21 65.34 C68.6 39.3, 90.05 15.54, 102.63 0.44 M46.21 65.34 C62.74 45.28, 79.09 25.51, 102.63 0.44 M56.84 65.31 C66.78 51.64, 81.44 35.75, 113.26 0.41 M56.84 65.31 C69.02 50.37, 83.33 36.41, 113.26 0.41 M67.47 65.28 C88.99 42.54, 108.63 18.27, 123.89 0.37 M67.47 65.28 C90.2 39.57, 111.78 14.73, 123.89 0.37 M78.1 65.24 C92.91 45.61, 113.68 24.69, 134.52 0.34 M78.1 65.24 C100.19 40.86, 120.25 16.89, 134.52 0.34 M88.73 65.21 C110.24 42.85, 130.42 17.56, 145.15 0.3 M88.73 65.21 C108.02 44.45, 125.14 22.61, 145.15 0.3 M99.36 65.17 C120.29 40.22, 143.86 16.41, 155.78 0.27 M99.36 65.17 C117.07 43.68, 135.59 22.39, 155.78 0.27 M109.99 65.14 C128.2 45.61, 146.04 21.92, 166.41 0.23 M109.99 65.14 C124.49 47.17, 139.98 29.76, 166.41 0.23 M119.96 65.86 C142.09 40.32, 162.21 16.69, 177.04 0.2 M119.96 65.86 C131.34 51.73, 143.41 39.76, 177.04 0.2 M130.59 65.82 C145.55 46.18, 164.24 29.63, 187.67 0.16 M130.59 65.82 C151.41 41.87, 172.53 16.04, 187.67 0.16 M141.22 65.79 C159.32 45.42, 179.94 19.55, 198.3 0.13 M141.22 65.79 C154.34 50.58, 167.15 35.89, 198.3 0.13 M151.85 65.75 C166.72 48.72, 184.38 30.9, 208.93 0.09 M151.85 65.75 C165.86 48.98, 178.93 33.62, 208.93 0.09 M162.48 65.72 C173.61 52.39, 186.42 35.94, 218.91 0.82 M162.48 65.72 C176.31 47.47, 193.27 30.41, 218.91 0.82 M173.11 65.69 C186.66 48.47, 200.55 35.55, 229.54 0.78 M173.11 65.69 C186.99 50.41, 201.01 33.88, 229.54 0.78 M183.75 65.65 C200.24 46.21, 214.25 28.31, 240.17 0.75 M183.75 65.65 C199.83 47.46, 215.04 29.27, 240.17 0.75 M194.38 65.62 C214.16 46.13, 229.71 23.97, 250.8 0.71 M194.38 65.62 C207.31 50.67, 219.35 37.94, 250.8 0.71 M205.01 65.58 C222.56 48.68, 237.84 26.85, 261.43 0.68 M205.01 65.58 C220.35 48.71, 236.6 31.44, 261.43 0.68 M215.64 65.55 C236.99 38.99, 259.84 11.75, 272.06 0.64 M215.64 65.55 C236.27 40.58, 259.31 16.34, 272.06 0.64 M226.27 65.51 C244.89 44.92, 265.98 20.58, 282.69 0.61 M226.27 65.51 C244.84 44.83, 263.89 24.05, 282.69 0.61 M236.9 65.48 C255.35 44.81, 272.9 21.23, 293.32 0.57 M236.9 65.48 C249.52 53.38, 260.78 39.9, 293.32 0.57 M247.53 65.44 C270.49 41.8, 291.12 16.79, 303.29 1.29 M247.53 65.44 C268.6 40.62, 290.09 16.09, 303.29 1.29 M258.16 65.41 C276 49.15, 290.47 31.11, 309.98 5.79 M258.16 65.41 C276.99 44.92, 293.68 24.63, 309.98 5.79 M268.79 65.38 C285.72 47.71, 300.41 29.53, 313.4 14.06 M268.79 65.38 C281.44 51.98, 293.55 38.02, 313.4 14.06 M279.42 65.34 C289.02 53.91, 298.77 44.85, 313.53 26.1 M279.42 65.34 C288.82 53.1, 299.48 42.91, 313.53 26.1 M290.05 65.31 C298.87 55.81, 308.08 42.07, 313.66 38.14 M290.05 65.31 C296.98 57.37, 302.51 50.76, 313.66 38.14 M301.33 64.52 C304.32 58.05, 311.25 54.41, 313.8 50.18 M301.33 64.52 C306.09 60.06, 309.25 54.01, 313.8 50.18" stroke="#a5d8ff" stroke-width="1" fill="none"></path><path d="M16.29 0 C91.28 -0.17, 168.4 0.08, 297.46 0 M16.29 0 C97.8 0.1, 179.59 0.27, 297.46 0 M297.46 0 C309.47 0.67, 315.5 3.98, 313.75 16.29 M297.46 0 C307.72 1.33, 315.33 3.26, 313.75 16.29 M313.75 16.29 C315.64 24.02, 313 28.94, 313.75 48.87 M313.75 16.29 C313.28 27.93, 314.38 41.29, 313.75 48.87 M313.75 48.87 C315.33 60.11, 309.25 63.49, 297.46 65.16 M313.75 48.87 C314.66 62, 310.46 63.19, 297.46 65.16 M297.46 65.16 C227.84 62.71, 156.32 63.37, 16.29 65.16 M297.46 65.16 C224.81 65.38, 151.85 65.12, 16.29 65.16 M16.29 65.16 C3.85 64.89, -0.12 59.61, 0 48.87 M16.29 65.16 C5.09 63.51, 1.23 60.08, 0 48.87 M0 48.87 C-0.73 36.09, 0.21 21.47, 0 16.29 M0 48.87 C-0.53 37.47, 0.13 25.49, 0 16.29 M0 16.29 C-1.24 7.37, 5.03 1.3, 16.29 0 M0 16.29 C-2.23 5.39, 3.85 -2.09, 16.29 0" stroke="#1971c2" stroke-width="2" fill="none"></path></g><g transform="translate(812.9803803513341 174.79729907135692) rotate(0 40.016754150390625 19.4944109528156)"><text x="40.016754150390625" y="0" font-family="Virgil, Segoe UI Emoji" font-size="31.191057524504977px" fill="#1971c2" text-anchor="middle" style="white-space: pre;" direction="ltr" dominant-baseline="text-before-edge">c-app</text></g><g stroke-linecap="round" transform="translate(650.4138762966377 454.4942177299713) rotate(0 202.5832582050857 32.8613841469778)"><path d="M4.37 3.8 C4.37 3.8, 4.37 3.8, 4.37 3.8 M4.37 3.8 C4.37 3.8, 4.37 3.8, 4.37 3.8 M2.54 18.11 C5.55 14.97, 10.23 12, 17.63 0.75 M2.54 18.11 C6.68 14.14, 10.43 9.03, 17.63 0.75 M2.67 30.15 C10.45 25.19, 15.99 15.28, 28.26 0.71 M2.67 30.15 C9.18 22.14, 16.2 12.81, 28.26 0.71 M2.8 42.19 C10.79 32.42, 20.39 21.81, 38.89 0.68 M2.8 42.19 C11.2 33.57, 19.25 23.18, 38.89 0.68 M2.94 54.23 C16.47 39.46, 32.28 21.29, 49.52 0.65 M2.94 54.23 C15.64 37.52, 30.31 22.02, 49.52 0.65 M7.01 61.74 C24.97 41.79, 38.84 23.37, 60.15 0.61 M7.01 61.74 C22.22 44.26, 38.4 26.71, 60.15 0.61 M13.7 66.24 C27.95 50.45, 43.67 31.57, 70.78 0.58 M13.7 66.24 C34.82 41.87, 57.06 17.1, 70.78 0.58 M24.33 66.2 C38.78 50.48, 53.87 29.34, 80.75 1.3 M24.33 66.2 C42.72 43.08, 62.74 22.91, 80.75 1.3 M34.96 66.17 C48.72 50.04, 61.31 35.24, 91.38 1.26 M34.96 66.17 C53.37 45.8, 71.45 23.59, 91.38 1.26 M45.59 66.13 C58.85 54.15, 68.32 39.34, 102.01 1.23 M45.59 66.13 C64.02 44.41, 82.7 22.55, 102.01 1.23 M56.22 66.1 C75.59 41.78, 99.36 17.7, 112.64 1.19 M56.22 66.1 C76.61 42.67, 96.41 20.34, 112.64 1.19 M66.85 66.06 C87.31 45.37, 102.61 23.13, 123.27 1.16 M66.85 66.06 C89.43 39.53, 112.84 13.82, 123.27 1.16 M77.48 66.03 C89.66 51.64, 105.3 35.75, 133.9 1.12 M77.48 66.03 C97.27 43.22, 117.99 20.88, 133.9 1.12 M87.46 66.75 C99.09 51.95, 112.6 36.15, 144.53 1.09 M87.46 66.75 C106.16 46.14, 123.6 24.29, 144.53 1.09 M98.09 66.71 C111.27 50.53, 123.6 38.05, 155.16 1.05 M98.09 66.71 C115.16 47.87, 130.17 29.3, 155.16 1.05 M108.72 66.68 C121.15 49.87, 134.69 35.61, 165.79 1.02 M108.72 66.68 C123.9 49.81, 139.49 30.85, 165.79 1.02 M119.35 66.65 C136.68 48.8, 150.24 28.91, 176.42 0.99 M119.35 66.65 C142.17 39.11, 164.01 14.2, 176.42 0.99 M129.98 66.61 C142.04 51.55, 154.23 39.06, 187.05 0.95 M129.98 66.61 C145.26 49.15, 160.62 31.67, 187.05 0.95 M140.61 66.58 C151.62 51.09, 164 38.8, 197.68 0.92 M140.61 66.58 C161.33 43.34, 182.55 18.1, 197.68 0.92 M151.24 66.54 C167.52 50.77, 180.67 33.58, 208.31 0.88 M151.24 66.54 C169.83 47.3, 185.49 26.43, 208.31 0.88 M161.87 66.51 C185.44 42.49, 207.9 13.21, 218.94 0.85 M161.87 66.51 C183 42.34, 205.02 17.68, 218.94 0.85 M172.5 66.47 C194.3 40.92, 215.89 16.36, 229.57 0.81 M172.5 66.47 C187.16 51.14, 200.46 35.77, 229.57 0.81 M183.13 66.44 C195.57 47.96, 212.33 34.33, 240.2 0.78 M183.13 66.44 C196.04 51.21, 210.75 34.6, 240.2 0.78 M193.76 66.4 C209 45.83, 227.99 29.22, 250.83 0.74 M193.76 66.4 C210.92 46.02, 228.5 27.17, 250.83 0.74 M204.39 66.37 C224.76 43.23, 244.02 18.16, 261.46 0.71 M204.39 66.37 C220.84 47.2, 235.67 29.16, 261.46 0.71 M215.02 66.34 C235.22 41.82, 257.5 17.84, 271.44 1.43 M215.02 66.34 C237.78 40.42, 259.77 15.91, 271.44 1.43 M225.65 66.3 C244.98 41.3, 265.96 19.05, 282.07 1.4 M225.65 66.3 C238.1 51.32, 252.04 38.41, 282.07 1.4 M236.28 66.27 C251.15 46.7, 269.85 28.88, 292.7 1.36 M236.28 66.27 C256.48 41.81, 276.98 18, 292.7 1.36 M246.91 66.23 C260.61 50.17, 279.68 32.98, 303.33 1.33 M246.91 66.23 C265.77 43.74, 286.82 20.68, 303.33 1.33 M257.54 66.2 C272.54 45.81, 290.77 28.74, 313.96 1.29 M257.54 66.2 C277.04 43.17, 298 20.86, 313.96 1.29 M268.17 66.16 C287.76 46.26, 305.31 23.51, 324.59 1.26 M268.17 66.16 C286.63 44.72, 303.81 23.32, 324.59 1.26 M278.14 66.88 C295.76 42.46, 315.54 23.23, 335.22 1.22 M278.14 66.88 C292.62 51.24, 308.6 32.85, 335.22 1.22 M288.77 66.85 C311.22 43.44, 328.09 18.82, 345.85 1.19 M288.77 66.85 C307.15 45.05, 327.59 22.75, 345.85 1.19 M299.4 66.81 C314.04 51.66, 325.76 38.22, 356.48 1.15 M299.4 66.81 C312.42 51.03, 324.65 36.34, 356.48 1.15 M310.03 66.78 C320.85 51.86, 333.85 39.5, 367.11 1.12 M310.03 66.78 C321.12 53.19, 333.21 41.21, 367.11 1.12 M320.66 66.74 C333.5 49.12, 350.41 33.26, 377.74 1.09 M320.66 66.74 C332.89 52.87, 344.16 38.04, 377.74 1.09 M331.29 66.71 C352.22 43.65, 371.66 17.73, 388.37 1.05 M331.29 66.71 C345.15 50.12, 360.2 33.32, 388.37 1.05 M341.92 66.68 C358.65 47.64, 374.52 26.91, 396.37 4.03 M341.92 66.68 C353.8 54.07, 363.04 42.6, 396.37 4.03 M352.55 66.64 C365.54 49.54, 380.84 34.94, 404.38 7.02 M352.55 66.64 C362.33 54.04, 373.44 41.24, 404.38 7.02 M363.18 66.61 C379.1 45.57, 398.2 24.53, 409.11 13.78 M363.18 66.61 C379.11 48.25, 396.54 28.65, 409.11 13.78 M373.81 66.57 C385.99 50.22, 399 37.39, 409.24 25.82 M373.81 66.57 C387.55 51.33, 399.21 37.74, 409.24 25.82 M384.44 66.54 C390.95 56.91, 400.41 48.05, 409.37 37.86 M384.44 66.54 C392.58 56.61, 399.41 48.91, 409.37 37.86 M396.38 64.99 C400.93 62.22, 402.66 56.99, 406.23 53.67 M396.38 64.99 C399.45 61.46, 404.39 55.86, 406.23 53.67" stroke="#a5d8ff" stroke-width="1" fill="none"></path><path d="M16.43 0 C149.14 -0.24, 280.15 -1.63, 388.74 0 M16.43 0 C149.18 2.26, 283 2.71, 388.74 0 M388.74 0 C400.52 -0.81, 404.02 6.94, 405.17 16.43 M388.74 0 C400.87 2.03, 403.69 4.28, 405.17 16.43 M405.17 16.43 C405.76 28.72, 403.72 39.94, 405.17 49.29 M405.17 16.43 C405 29.6, 404.89 43.61, 405.17 49.29 M405.17 49.29 C403.61 61.67, 399 64.92, 388.74 65.72 M405.17 49.29 C403.24 60.87, 400.98 64.64, 388.74 65.72 M388.74 65.72 C250.02 63.85, 111.55 63.74, 16.43 65.72 M388.74 65.72 C304.22 65.48, 219.13 65.76, 16.43 65.72 M16.43 65.72 C5.44 65.62, -1.92 61.57, 0 49.29 M16.43 65.72 C7.4 64.42, -0.59 61.46, 0 49.29 M0 49.29 C1.79 37.71, 1.14 24.98, 0 16.43 M0 49.29 C-0.34 40.11, -0.39 29.22, 0 16.43 M0 16.43 C0.02 5.46, 4.78 -1.53, 16.43 0 M0 16.43 C-0.37 6.26, 5.26 0.27, 16.43 0" stroke="#1971c2" stroke-width="2" fill="none"></path></g><g transform="translate(812.3409913132464 467.86119092413344) rotate(0 40.65614318847656 19.4944109528156)"><text x="40.65614318847656" y="0" font-family="Virgil, Segoe UI Emoji" font-size="31.191057524504977px" fill="#1971c2" text-anchor="middle" style="white-space: pre;" direction="ltr" dominant-baseline="text-before-edge">s-app</text></g><g stroke-linecap="round" transform="translate(696.1199629783086 532.8113611152191) rotate(0 156.8771715234161 32.57933813781756)"><path d="M4.34 3.77 C4.34 3.77, 4.34 3.77, 4.34 3.77 M4.34 3.77 C4.34 3.77, 4.34 3.77, 4.34 3.77 M-0.12 21.09 C4.79 14, 12.07 7.85, 18.25 -0.04 M-0.12 21.09 C5.77 13.7, 12.16 6.96, 18.25 -0.04 M0.67 32.38 C11.1 21.78, 23.15 6.45, 28.22 0.68 M0.67 32.38 C9.74 21.5, 18.94 10.43, 28.22 0.68 M0.8 44.42 C12.26 30.25, 25.09 15.86, 38.85 0.65 M0.8 44.42 C13.62 28.97, 25.73 14.28, 38.85 0.65 M0.93 56.46 C18.87 35.48, 38.73 13.04, 49.48 0.61 M0.93 56.46 C11.59 44.64, 22.6 32.87, 49.48 0.61 M6.31 62.46 C22.29 43.76, 36.68 25.92, 60.11 0.58 M6.31 62.46 C19.8 46.68, 34.93 29.5, 60.11 0.58 M14.32 65.45 C37.81 39.45, 59.1 13.59, 70.74 0.54 M14.32 65.45 C34.09 42.72, 54.12 18.51, 70.74 0.54 M24.95 65.41 C48.51 41.15, 71.56 13.57, 81.37 0.51 M24.95 65.41 C36.07 50.6, 50.01 37.04, 81.37 0.51 M35.58 65.38 C49.8 49.74, 63.24 33.58, 92 0.47 M35.58 65.38 C56.54 40.09, 78.13 16.18, 92 0.47 M46.21 65.34 C68.65 39.51, 87.6 14.86, 102.63 0.44 M46.21 65.34 C61.65 49.38, 75.56 32.46, 102.63 0.44 M56.84 65.31 C74.58 44.19, 92.75 26.75, 113.26 0.41 M56.84 65.31 C70.43 49.82, 83.97 34.63, 113.26 0.41 M67.47 65.28 C89.52 41.76, 108.61 19.77, 123.89 0.37 M67.47 65.28 C82.29 47.59, 99.28 28.33, 123.89 0.37 M78.1 65.24 C100.12 39.53, 120.97 15.28, 134.52 0.34 M78.1 65.24 C94.54 44.68, 113.63 23.74, 134.52 0.34 M88.73 65.21 C109.1 44.27, 128.61 21.61, 145.15 0.3 M88.73 65.21 C110.8 39.84, 134.2 13.69, 145.15 0.3 M99.36 65.17 C112.59 47.77, 126.02 34.38, 155.78 0.27 M99.36 65.17 C113.91 48.41, 130.27 31.13, 155.78 0.27 M109.99 65.14 C121.07 51.4, 131.5 37.11, 166.41 0.23 M109.99 65.14 C130.24 43.31, 150.28 20.28, 166.41 0.23 M119.96 65.86 C140.72 45.83, 158.92 24.27, 177.04 0.2 M119.96 65.86 C130.96 51.62, 143.66 38.61, 177.04 0.2 M130.59 65.82 C147.17 44.64, 163.08 26, 187.67 0.16 M130.59 65.82 C145.7 48.25, 161.93 29.35, 187.67 0.16 M141.22 65.79 C155.57 51.29, 165.77 36.24, 198.3 0.13 M141.22 65.79 C160.37 43.21, 179.59 21.49, 198.3 0.13 M151.85 65.75 C171.81 41.22, 190.83 21.76, 208.93 0.09 M151.85 65.75 C173.06 43.25, 191.12 21.18, 208.93 0.09 M162.48 65.72 C185.19 42, 203.81 16.42, 218.91 0.82 M162.48 65.72 C181.54 43.65, 199.12 23.12, 218.91 0.82 M173.11 65.69 C184.91 49.77, 199.12 37.04, 229.54 0.78 M173.11 65.69 C190.54 45.33, 209.46 22.92, 229.54 0.78 M183.75 65.65 C193.4 51.84, 204.23 37.56, 240.17 0.75 M183.75 65.65 C200.59 47.04, 217.5 26.46, 240.17 0.75 M194.38 65.62 C207.23 48.29, 219.71 33.65, 250.8 0.71 M194.38 65.62 C208.2 51.12, 221.56 35.72, 250.8 0.71 M205.01 65.58 C224.51 41.09, 246.31 20.62, 261.43 0.68 M205.01 65.58 C219.57 50.5, 232.35 34.74, 261.43 0.68 M215.64 65.55 C235.54 42.89, 252.22 24.37, 272.06 0.64 M215.64 65.55 C230.75 49.54, 244.93 31.5, 272.06 0.64 M226.27 65.51 C238.85 47.66, 252.42 31.64, 282.69 0.61 M226.27 65.51 C238.11 51.91, 251.19 36.56, 282.69 0.61 M236.9 65.48 C253.29 46.95, 269.31 28.39, 293.32 0.57 M236.9 65.48 C251.78 48.1, 266.9 30.64, 293.32 0.57 M247.53 65.44 C268.7 42.47, 289.32 16.27, 303.29 1.29 M247.53 65.44 C266.18 43.31, 286.15 20.39, 303.29 1.29 M258.16 65.41 C269.53 51.86, 278.63 39.09, 309.98 5.79 M258.16 65.41 C272.37 49.26, 285.96 33.51, 309.98 5.79 M268.79 65.38 C285.37 48.53, 300.95 29.74, 313.4 14.06 M268.79 65.38 C280.47 53.34, 292.24 39.43, 313.4 14.06 M279.42 65.34 C285.85 55.01, 292.96 47.34, 313.53 26.1 M279.42 65.34 C292.35 50.17, 305.3 37.21, 313.53 26.1 M290.05 65.31 C298.39 57.63, 305.79 47.1, 313.66 38.14 M290.05 65.31 C297.8 54.61, 306.86 45.96, 313.66 38.14 M301.33 64.52 C303.77 60.89, 308.71 56.12, 313.8 50.18 M301.33 64.52 C303.55 62.08, 306.93 57.4, 313.8 50.18" stroke="#a5d8ff" stroke-width="1" fill="none"></path><path d="M16.29 0 C126.09 1.61, 232.67 -0.79, 297.46 0 M16.29 0 C105.93 -2.28, 194.49 -1.41, 297.46 0 M297.46 0 C309.35 1.77, 312.47 4.39, 313.75 16.29 M297.46 0 C309.38 1.54, 315.57 5.86, 313.75 16.29 M313.75 16.29 C315.46 29.43, 311.77 37.92, 313.75 48.87 M313.75 16.29 C312.78 27, 313.22 35.89, 313.75 48.87 M313.75 48.87 C312.08 60.27, 309.45 64.22, 297.46 65.16 M313.75 48.87 C315.41 57.84, 306.5 64.85, 297.46 65.16 M297.46 65.16 C213.65 65.66, 132.26 66.23, 16.29 65.16 M297.46 65.16 C240.23 64, 182.3 64.54, 16.29 65.16 M16.29 65.16 C7.1 64.03, -0.52 60.78, 0 48.87 M16.29 65.16 C6.36 66.26, -1.42 61.97, 0 48.87 M0 48.87 C-0.25 38.36, -2.03 29.48, 0 16.29 M0 48.87 C0.21 37.1, -0.15 24.59, 0 16.29 M0 16.29 C-0.32 6.11, 5.24 0.24, 16.29 0 M0 16.29 C1.57 5.31, 3.41 -0.86, 16.29 0" stroke="#1971c2" stroke-width="2" fill="none"></path></g><g transform="translate(812.9803803513341 545.896288300221) rotate(0 40.016754150390625 19.4944109528156)"><text x="40.016754150390625" y="0" font-family="Virgil, Segoe UI Emoji" font-size="31.191057524504977px" fill="#1971c2" text-anchor="middle" style="white-space: pre;" direction="ltr" dominant-baseline="text-before-edge">c-app</text></g><g mask="url(#mask-3acry7DA3ePH4Ih6Sb63g)" stroke-linecap="round"><g transform="translate(854.7344659986666 403.98996330892965) rotate(0 -1.7373314969422609 -64.69929739257134)"><path d="M-0.56 1.16 C-1.13 -20.35, -3.46 -107.85, -3.86 -129.52 M1.35 0.72 C0.63 -20.55, -4.21 -106.11, -5.01 -128.05" stroke="#1971c2" stroke-width="2" fill="none"></path></g><g transform="translate(854.7344659986666 403.98996330892965) rotate(0 -1.7373314969422609 -64.69929739257134)"><path d="M6.58 -100.38 C5.56 -108.39, 0.36 -114.22, -5.01 -128.05 M6.58 -100.38 C3.57 -110.77, -0.49 -119.79, -5.01 -128.05" stroke="#1971c2" stroke-width="2" fill="none"></path></g><g transform="translate(854.7344659986666 403.98996330892965) rotate(0 -1.7373314969422609 -64.69929739257134)"><path d="M-13.92 -99.4 C-9.51 -107.58, -9.29 -113.67, -5.01 -128.05 M-13.92 -99.4 C-9.86 -109.94, -6.85 -119.29, -5.01 -128.05" stroke="#1971c2" stroke-width="2" fill="none"></path></g></g><mask id="mask-3acry7DA3ePH4Ih6Sb63g"><rect x="0" y="0" fill="#fff" width="958.2091289925514" height="633.3885580940723"></rect><rect x="731.6836731980138" y="319.79625496354265" fill="#000" width="242.62692260742188" height="38.98882190563122" opacity="1"></rect></mask><g transform="translate(731.6836731980138 319.79625496354265) rotate(0 121.22310297539389 20.01062287938015)"><text x="121.31346130371094" y="0" font-family="Virgil, Segoe UI Emoji" font-size="31.191057524504977px" fill="#1971c2" text-anchor="middle" style="white-space: pre;" direction="ltr" dominant-baseline="text-before-edge">parent_span_id</text></g><g mask="url(#mask-87Fln5vwLJx4bQPp3Rr-s)" stroke-linecap="round"><g transform="translate(250.32142897649828 482.5916618437518) rotate(0 -1.4439951863000715 -75.08960055668845)"><path d="M0.71 0.7 C0.1 -24.48, -3.33 -125.32, -4.04 -150.35 M-0.37 0.03 C-0.61 -25.03, -1.22 -123.66, -1.93 -148.91" stroke="#e03131" stroke-width="2" fill="none"></path></g><g transform="translate(250.32142897649828 482.5916618437518) rotate(0 -1.4439951863000715 -75.08960055668845)"><path d="M8.77 -120.88 C6.87 -130.32, 2.51 -137.08, -1.93 -148.91 M8.77 -120.88 C5.05 -130.54, 1.94 -141.02, -1.93 -148.91" stroke="#e03131" stroke-width="2" fill="none"></path></g><g transform="translate(250.32142897649828 482.5916618437518) rotate(0 -1.4439951863000715 -75.08960055668845)"><path d="M-11.75 -120.56 C-8.1 -130.21, -6.91 -137.05, -1.93 -148.91 M-11.75 -120.56 C-8.12 -130.47, -3.88 -141.06, -1.93 -148.91" stroke="#e03131" stroke-width="2" fill="none"></path></g></g><mask id="mask-87Fln5vwLJx4bQPp3Rr-s"><rect x="0" y="0" fill="#fff" width="353.209419349098" height="732.7708629571287"></rect><rect x="189.86598206900726" y="388.0076503342477" fill="#000" width="118.02290344238281" height="38.98882190563122" opacity="1"></rect></mask><g transform="translate(189.86598206900726 388.0076503342476) rotate(0 58.79100187979611 19.760116973781805)"><text x="59.011451721191406" y="0" font-family="Virgil, Segoe UI Emoji" font-size="31.191057524504977px" fill="#e03131" text-anchor="middle" style="white-space: pre;" direction="ltr" dominant-baseline="text-before-edge">span_id</text></g></svg>