<svg version="1.1" xmlns="http://www.w3.org/2000/svg" viewBox="0 0 1076.4388734396362 621.7039347851758" width="1076.4388734396362" height="621.7039347851758" filter="invert(93%) hue-rotate(180deg)">
  <!-- svg-source:excalidraw -->
  
  <defs>
    <style class="style-fonts">
      @font-face {
        font-family: "Virgil";
        src: url("https://file%2B.vscode-resource.vscode-cdn.net/c%3A/Users/talor/.vscode/extensions/pomdtr.excalidraw-editor-3.7.4/public//dist/excalidraw-assets/Virgil.woff2");
      }
      @font-face {
        font-family: "Cascadia";
        src: url("https://file%2B.vscode-resource.vscode-cdn.net/c%3A/Users/talor/.vscode/extensions/pomdtr.excalidraw-editor-3.7.4/public//dist/excalidraw-assets/Cascadia.woff2");
      }
      @font-face {
        font-family: "Assistant";
        src: url("https://file%2B.vscode-resource.vscode-cdn.net/c%3A/Users/talor/.vscode/extensions/pomdtr.excalidraw-editor-3.7.4/public//dist/excalidraw-assets/Assistant-Regular.woff2");
      }
    </style>
    
  </defs>
  <rect x="0" y="0" width="1076.4388734396362" height="621.7039347851758" fill="#ffffff"></rect><g stroke-linecap="round" transform="translate(10 10) rotate(0 528.2194367198181 32.57933821466918)"><path d="M6.07 2.63 C6.07 2.63, 6.07 2.63, 6.07 2.63 M6.07 2.63 C6.07 2.63, 6.07 2.63, 6.07 2.63 M0.96 20.71 C7.15 11.97, 15.84 4.71, 18.67 0.33 M0.96 20.71 C5.76 16.44, 7.81 11, 18.67 0.33 M1.09 32.75 C9.18 24.21, 16.05 18.3, 29.3 0.29 M1.09 32.75 C7.07 26.23, 13.08 19.12, 29.3 0.29 M0.57 45.54 C15.27 26.73, 31.07 11.67, 39.93 0.26 M0.57 45.54 C15.14 28.81, 28.68 13.05, 39.93 0.26 M1.35 56.83 C20.2 36.21, 33.67 17.32, 50.56 0.23 M1.35 56.83 C16.08 39.91, 31.13 23.84, 50.56 0.23 M6.74 62.83 C17.83 50.24, 30.88 37.89, 61.19 0.19 M6.74 62.83 C19.62 45.91, 34.73 30.44, 61.19 0.19 M15.4 65.06 C32.6 44.51, 54.73 19.86, 71.82 0.16 M15.4 65.06 C33.62 43.49, 52.75 21.42, 71.82 0.16 M26.03 65.03 C46.14 43.43, 63.44 22.55, 82.45 0.12 M26.03 65.03 C48.86 40.28, 71.15 13.75, 82.45 0.12 M36.66 64.99 C52.62 49.93, 62.68 32.4, 93.08 0.09 M36.66 64.99 C48.37 51.17, 59.56 38.9, 93.08 0.09 M47.29 64.96 C66.49 42.98, 87.78 19.15, 103.71 0.05 M47.29 64.96 C67.89 41.94, 87.06 18.51, 103.71 0.05 M57.26 65.68 C71.57 47.99, 84.68 35.14, 114.34 0.02 M57.26 65.68 C72.68 47.16, 88.96 28.46, 114.34 0.02 M67.89 65.64 C90.63 40.25, 110.59 17.63, 124.97 -0.02 M67.89 65.64 C82.73 48.53, 98.51 29.82, 124.97 -0.02 M78.52 65.61 C96.01 45.89, 111.28 26.64, 135.6 -0.05 M78.52 65.61 C98.33 41.86, 118.17 19.5, 135.6 -0.05 M89.15 65.57 C101.21 50.22, 116.43 35.52, 146.23 -0.09 M89.15 65.57 C106.38 46.38, 125.27 26.34, 146.23 -0.09 M99.78 65.54 C118.35 44.31, 139.28 22.36, 156.86 -0.12 M99.78 65.54 C118.82 45.4, 137.15 23.18, 156.86 -0.12 M110.41 65.51 C127.22 45.84, 140.28 27.32, 167.49 -0.15 M110.41 65.51 C123.06 52, 134.32 38.67, 167.49 -0.15 M121.04 65.47 C133.25 47.6, 149.83 32.05, 178.12 -0.19 M121.04 65.47 C136.27 45.82, 152.67 26.6, 178.12 -0.19 M131.67 65.44 C152 44.09, 171.83 19.81, 188.75 -0.22 M131.67 65.44 C153.65 40.94, 175.07 17.03, 188.75 -0.22 M142.3 65.4 C160.29 44.43, 175.8 27.36, 199.38 -0.26 M142.3 65.4 C158.7 46.12, 172.67 29.36, 199.38 -0.26 M152.93 65.37 C166.86 49.37, 185.85 30.33, 210.01 -0.29 M152.93 65.37 C174.69 41.11, 195.04 16.8, 210.01 -0.29 M163.56 65.33 C181.92 45.93, 196.38 27.14, 220.64 -0.33 M163.56 65.33 C180.89 44.97, 198.74 25.72, 220.64 -0.33 M174.19 65.3 C191.49 43.2, 211.17 23.68, 231.27 -0.36 M174.19 65.3 C197.03 40.78, 218.09 14.02, 231.27 -0.36 M184.82 65.26 C200.57 50.04, 214.02 31.95, 241.24 0.36 M184.82 65.26 C202 46.19, 217.96 26.87, 241.24 0.36 M195.45 65.23 C209.21 45.01, 226.35 28.19, 251.87 0.32 M195.45 65.23 C207.12 50.25, 220.83 37.46, 251.87 0.32 M206.08 65.19 C222.91 45.82, 241.47 22.29, 262.5 0.29 M206.08 65.19 C228.49 39.54, 249.56 13.21, 262.5 0.29 M216.71 65.16 C236.78 44.98, 254.18 21.77, 273.14 0.26 M216.71 65.16 C231.48 47.12, 248.33 29.06, 273.14 0.26 M227.34 65.13 C239.96 49.24, 256.72 32.02, 283.77 0.22 M227.34 65.13 C240.92 48.32, 254.95 32.8, 283.77 0.22 M237.97 65.09 C253.73 45.86, 273.47 23.75, 294.4 0.19 M237.97 65.09 C257.29 42.38, 277.84 18.22, 294.4 0.19 M248.6 65.06 C265.08 43.6, 284.45 25.57, 305.03 0.15 M248.6 65.06 C264 46.49, 282.05 27.23, 305.03 0.15 M259.23 65.02 C279.28 42.27, 301 16.74, 315.66 0.12 M259.23 65.02 C277.29 46.29, 294.17 25.07, 315.66 0.12 M269.86 64.99 C291.29 41.26, 314.41 14.29, 326.29 0.08 M269.86 64.99 C287.78 44.43, 305.49 24.92, 326.29 0.08 M279.84 65.71 C300.88 40.01, 323.89 14.35, 336.92 0.05 M279.84 65.71 C297.75 45.72, 316.57 24.39, 336.92 0.05 M290.47 65.67 C304.79 49.06, 324.04 30.14, 347.55 0.01 M290.47 65.67 C304.53 49.42, 320.56 31, 347.55 0.01 M301.1 65.64 C313.33 51.48, 323.2 39.45, 358.18 -0.02 M301.1 65.64 C316.27 49.8, 330.14 31.69, 358.18 -0.02 M311.73 65.6 C324.51 49.97, 337.44 35.84, 368.81 -0.06 M311.73 65.6 C325.22 51.32, 337.27 36.33, 368.81 -0.06 M322.36 65.57 C341.07 45.38, 357.18 25, 379.44 -0.09 M322.36 65.57 C341.23 43.75, 360.24 21.93, 379.44 -0.09 M332.99 65.54 C353.91 43.42, 370.34 20.08, 390.07 -0.12 M332.99 65.54 C348.2 47.75, 364.59 29.78, 390.07 -0.12 M343.62 65.5 C361.51 43.56, 382.56 23.62, 400.7 -0.16 M343.62 65.5 C357.2 48.28, 371.8 32.86, 400.7 -0.16 M354.25 65.47 C376.13 39.47, 399.06 12.59, 411.33 -0.19 M354.25 65.47 C366.78 50.48, 378.07 37.28, 411.33 -0.19 M364.88 65.43 C377.46 51.31, 393.43 32.24, 421.96 -0.23 M364.88 65.43 C386.45 39.68, 409.16 13.62, 421.96 -0.23 M375.51 65.4 C391.42 49.03, 406.66 29.26, 432.59 -0.26 M375.51 65.4 C389.06 48.94, 403.81 33.17, 432.59 -0.26 M386.14 65.36 C403.41 48.15, 417.82 25.53, 443.22 -0.3 M386.14 65.36 C402.14 45.4, 420.32 25.79, 443.22 -0.3 M396.77 65.33 C412.95 49.56, 424.01 34.13, 453.85 -0.33 M396.77 65.33 C413.1 48.66, 427.72 30.56, 453.85 -0.33 M407.4 65.29 C422.9 46.18, 439.08 28.09, 464.48 -0.37 M407.4 65.29 C429.86 39.09, 452.84 13.83, 464.48 -0.37 M418.03 65.26 C437.29 40.74, 455.95 21.33, 474.45 0.35 M418.03 65.26 C440.08 40.83, 462.91 14.36, 474.45 0.35 M428.66 65.23 C449.61 42.82, 464.74 21.62, 485.08 0.32 M428.66 65.23 C450.62 38.94, 473.61 13.24, 485.08 0.32 M439.29 65.19 C461.69 38.89, 481.26 17.82, 495.71 0.29 M439.29 65.19 C453.82 48.87, 468.42 32.57, 495.71 0.29 M449.92 65.16 C462.46 50.68, 478.04 34.4, 506.34 0.25 M449.92 65.16 C469.73 41.86, 491.53 19.32, 506.34 0.25 M460.55 65.12 C477.28 46.37, 493.7 26.59, 516.97 0.22 M460.55 65.12 C475.5 47.7, 492.17 28.33, 516.97 0.22 M471.18 65.09 C489.2 43.94, 511.76 19.71, 527.6 0.18 M471.18 65.09 C483.69 52.48, 494.32 38.8, 527.6 0.18 M481.81 65.05 C496.68 47.53, 507.97 31.3, 538.23 0.15 M481.81 65.05 C495.17 50.72, 506.6 37.49, 538.23 0.15 M492.44 65.02 C509.18 45.19, 525.8 25.02, 548.86 0.11 M492.44 65.02 C505.12 50.74, 518.77 33.7, 548.86 0.11 M503.07 64.98 C522.37 43.44, 538.94 22.74, 559.49 0.08 M503.07 64.98 C524.88 40.3, 546.92 14.98, 559.49 0.08 M513.04 65.7 C529.41 47, 549.27 26.28, 570.12 0.04 M513.04 65.7 C533.05 42.22, 555.51 19.09, 570.12 0.04 M523.67 65.67 C534.39 51.75, 544.57 37.96, 580.75 0.01 M523.67 65.67 C539.63 46.8, 555.65 28.82, 580.75 0.01 M534.3 65.63 C549.59 51.66, 561.19 34, 591.38 -0.02 M534.3 65.63 C551.06 46.48, 567.8 26.17, 591.38 -0.02 M544.93 65.6 C564.02 45.07, 581.21 23.78, 602.01 -0.06 M544.93 65.6 C564.37 45.03, 582.1 22.25, 602.01 -0.06 M555.56 65.57 C570.33 48.17, 588.34 28.14, 612.64 -0.09 M555.56 65.57 C576.87 40.34, 599.57 15.09, 612.64 -0.09 M566.19 65.53 C583.03 47.97, 596.68 30.64, 623.27 -0.13 M566.19 65.53 C584.68 45.13, 602.09 23.69, 623.27 -0.13 M576.82 65.5 C601.17 40.95, 619.94 16.64, 633.9 -0.16 M576.82 65.5 C596.39 42.13, 616.62 19.39, 633.9 -0.16 M587.46 65.46 C600.88 49.95, 612.82 33.16, 644.53 -0.2 M587.46 65.46 C599.26 50.44, 612.67 36.97, 644.53 -0.2 M598.09 65.43 C617.93 42.4, 642.89 17.15, 655.16 -0.23 M598.09 65.43 C616.45 43.93, 636.31 21.83, 655.16 -0.23 M608.72 65.39 C629.13 40.79, 649.53 18.11, 665.79 -0.27 M608.72 65.39 C626.99 44.98, 643.13 23.86, 665.79 -0.27 M619.35 65.36 C634.29 49.48, 646.53 33.84, 676.42 -0.3 M619.35 65.36 C635.07 44.29, 653.85 24.97, 676.42 -0.3 M629.98 65.32 C648.9 45.89, 667.71 24.62, 687.05 -0.34 M629.98 65.32 C648.42 43.85, 665.16 23.58, 687.05 -0.34 M640.61 65.29 C651.73 49.41, 666.21 36.67, 697.68 -0.37 M640.61 65.29 C652.31 52.05, 664.29 37.41, 697.68 -0.37 M651.24 65.26 C663.43 51.71, 677.08 38.6, 707.66 0.35 M651.24 65.26 C663.53 51.81, 673.77 38.48, 707.66 0.35 M661.87 65.22 C679.91 45.07, 698.96 19.75, 718.29 0.32 M661.87 65.22 C675.46 50.39, 687.31 37.4, 718.29 0.32 M672.5 65.19 C688.09 46.21, 701.55 28.36, 728.92 0.28 M672.5 65.19 C684.71 51.98, 695.19 38.67, 728.92 0.28 M683.13 65.15 C699.99 47.05, 714.05 26.96, 739.55 0.25 M683.13 65.15 C700.19 44.35, 719.67 23.45, 739.55 0.25 M693.76 65.12 C710.55 43.71, 726.11 23.07, 750.18 0.21 M693.76 65.12 C706.52 49.79, 719.18 35.68, 750.18 0.21 M704.39 65.08 C719.87 46.27, 738.02 27.18, 760.81 0.18 M704.39 65.08 C718.44 46.83, 734.91 29.55, 760.81 0.18 M715.02 65.05 C729 48.34, 748.15 30.91, 771.44 0.14 M715.02 65.05 C737.64 39.35, 760.08 13.56, 771.44 0.14 M725.65 65.01 C743.82 43.47, 762.19 25.56, 782.07 0.11 M725.65 65.01 C742.86 45.48, 759.74 26.1, 782.07 0.11 M736.28 64.98 C755.1 41.86, 777.71 20.52, 792.7 0.07 M736.28 64.98 C754.26 43.36, 774.45 20.38, 792.7 0.07 M746.25 65.7 C756.9 50.27, 771.95 37.07, 803.33 0.04 M746.25 65.7 C766.5 42.41, 788.33 18.89, 803.33 0.04 M756.88 65.67 C768.44 52.74, 780.72 39.51, 813.96 0.01 M756.88 65.67 C775.2 44.05, 792.5 25.51, 813.96 0.01 M767.51 65.63 C788.66 42.41, 806.17 19.88, 824.59 -0.03 M767.51 65.63 C784.23 45.96, 802.41 25.52, 824.59 -0.03 M778.14 65.6 C798.78 43.33, 818.03 21.63, 835.22 -0.06 M778.14 65.6 C791.47 48.82, 805.98 32.78, 835.22 -0.06 M788.77 65.56 C802.76 48.55, 817.98 36.03, 845.85 -0.1 M788.77 65.56 C807.07 45.38, 823.37 25.84, 845.85 -0.1 M799.4 65.53 C822.77 38.18, 842.76 12.99, 856.48 -0.13 M799.4 65.53 C816.06 44.03, 835.6 24.03, 856.48 -0.13 M810.03 65.49 C826.69 48.85, 840.6 27.36, 867.11 -0.17 M810.03 65.49 C821.68 51.67, 835.05 35.62, 867.11 -0.17 M820.66 65.46 C839.7 41.63, 861.21 17.34, 877.74 -0.2 M820.66 65.46 C841.63 41.02, 863.39 17.07, 877.74 -0.2 M831.29 65.42 C844.19 50.28, 858.37 37.05, 888.37 -0.24 M831.29 65.42 C844.87 48.27, 860.31 31.09, 888.37 -0.24 M841.92 65.39 C853.25 49.15, 866.39 36, 899 -0.27 M841.92 65.39 C858.22 47.35, 873.65 28.9, 899 -0.27 M852.55 65.35 C870.13 44.93, 888.48 27.76, 909.63 -0.3 M852.55 65.35 C868.63 47.53, 884.19 29.36, 909.63 -0.3 M863.18 65.32 C883.99 42.75, 902.99 18.45, 920.26 -0.34 M863.18 65.32 C877.29 49.59, 890.2 34.82, 920.26 -0.34 M873.81 65.29 C890.92 45.64, 905.68 28.53, 930.23 0.38 M873.81 65.29 C889.55 46.13, 907.64 27.23, 930.23 0.38 M884.44 65.25 C896.41 49.97, 908.07 38.82, 940.86 0.35 M884.44 65.25 C896.09 52.1, 908.04 38.19, 940.86 0.35 M895.07 65.22 C909.24 49.12, 923.92 31.01, 951.49 0.31 M895.07 65.22 C916.66 39.12, 940.36 12.96, 951.49 0.31 M905.7 65.18 C922.56 43.42, 943.71 22.1, 962.12 0.28 M905.7 65.18 C924.27 44.62, 941.56 23.8, 962.12 0.28 M916.33 65.15 C927.09 52.79, 940.92 39.46, 972.75 0.24 M916.33 65.15 C928 50.77, 940.05 36.9, 972.75 0.24 M926.96 65.11 C946.27 45.24, 960.12 26.03, 983.38 0.21 M926.96 65.11 C941.81 48.21, 955.44 33.16, 983.38 0.21 M937.59 65.08 C952.13 46.4, 967.09 30.87, 994.01 0.17 M937.59 65.08 C950.09 50.46, 964 34.11, 994.01 0.17 M948.22 65.04 C971.58 39.26, 993.85 14.68, 1004.64 0.14 M948.22 65.04 C960.05 50.5, 973.02 36.74, 1004.64 0.14 M958.85 65.01 C975.45 49.22, 990.1 27.86, 1015.27 0.1 M958.85 65.01 C976.43 43.51, 996.72 22.77, 1015.27 0.1 M969.48 64.98 C991.03 41.14, 1009.66 20.32, 1025.9 0.07 M969.48 64.98 C983.72 48.92, 996.68 32.79, 1025.9 0.07 M979.46 65.7 C1000.52 41.2, 1020.33 21.12, 1036.53 0.04 M979.46 65.7 C990.6 52.33, 1001.4 38.72, 1036.53 0.04 M990.09 65.66 C1010.31 43.58, 1027.8 22.4, 1045.85 1.51 M990.09 65.66 C1004.05 49.6, 1018.45 33.91, 1045.85 1.51 M1000.72 65.63 C1012.2 52.62, 1022.24 42.92, 1052.55 6 M1000.72 65.63 C1016.03 47.75, 1032.41 28.8, 1052.55 6 M1011.35 65.59 C1023.11 54.08, 1029.67 40.72, 1055.96 14.27 M1011.35 65.59 C1029.02 46.5, 1045.47 26.98, 1055.96 14.27 M1021.98 65.56 C1033.8 50.45, 1047.2 34.93, 1056.09 26.31 M1021.98 65.56 C1035.82 49.58, 1048.22 35.01, 1056.09 26.31 M1032.61 65.52 C1043.3 54.45, 1049.28 45.73, 1056.88 37.6 M1032.61 65.52 C1038.13 57.9, 1045.7 50.83, 1056.88 37.6 M1043.89 64.73 C1046.05 61.64, 1051.59 58.96, 1057.01 49.64 M1043.89 64.73 C1048.44 60.47, 1051.91 55.82, 1057.01 49.64" stroke="#ffc9c9" stroke-width="1" fill="none"></path><path d="M16.29 0 C276.66 -3.63, 538.9 -3.92, 1040.15 0 M16.29 0 C246.34 -4.09, 475.5 -3.73, 1040.15 0 M1040.15 0 C1049.67 -1.97, 1056.93 5.93, 1056.44 16.29 M1040.15 0 C1051.05 -0.49, 1055.69 7.49, 1056.44 16.29 M1056.44 16.29 C1057.25 27.21, 1057.6 37.35, 1056.44 48.87 M1056.44 16.29 C1056.5 26.55, 1055.77 37.14, 1056.44 48.87 M1056.44 48.87 C1057.78 60.11, 1049.82 65.92, 1040.15 65.16 M1056.44 48.87 C1054.17 57.95, 1051.53 64.06, 1040.15 65.16 M1040.15 65.16 C648.77 67.38, 256.78 67.68, 16.29 65.16 M1040.15 65.16 C673.8 68.11, 307.88 68.6, 16.29 65.16 M16.29 65.16 C5.04 67.14, -0.05 61.63, 0 48.87 M16.29 65.16 C3.85 66.82, -1.48 57.48, 0 48.87 M0 48.87 C1.37 37.82, 0.07 21.42, 0 16.29 M0 48.87 C1.08 37.99, 0.12 28.8, 0 16.29 M0 16.29 C0.62 4.26, 4.94 0.21, 16.29 0 M0 16.29 C-0.07 5.5, 4.02 -1.75, 16.29 0" stroke="#e03131" stroke-width="2" fill="none"></path></g><g transform="translate(515.65348823349 23.084927261853636) rotate(0 22.565948486328125 19.494410952815656)"><text x="22.565948486328125" y="0" font-family="Virgil, Segoe UI Emoji" font-size="31.191057524504977px" fill="#e03131" text-anchor="middle" style="white-space: pre;" direction="ltr" dominant-baseline="text-before-edge">s-p</text></g><g stroke-linecap="round" transform="translate(49.74625797603221 84.74144932402396) rotate(0 202.5832582050857 32.8613841469778)"><path d="M4.37 3.8 C4.37 3.8, 4.37 3.8, 4.37 3.8 M4.37 3.8 C4.37 3.8, 4.37 3.8, 4.37 3.8 M-0.09 21.13 C2.86 15.52, 7.35 12.09, 18.28 -0.01 M-0.09 21.13 C5.11 14.33, 11.76 8.95, 18.28 -0.01 M0.7 32.41 C5.84 23.15, 15.25 15.58, 28.91 -0.04 M0.7 32.41 C10.9 21.56, 18.72 10.62, 28.91 -0.04 M0.84 44.45 C11.29 34.74, 18.85 24.32, 39.54 -0.08 M0.84 44.45 C11.38 31.98, 20.95 22.02, 39.54 -0.08 M0.97 56.49 C12.57 45.85, 22.47 32.11, 49.52 0.65 M0.97 56.49 C12.94 41.48, 28.05 25.54, 49.52 0.65 M6.35 62.5 C23.93 40.6, 45.95 16.99, 60.15 0.61 M6.35 62.5 C18.34 49.31, 29.42 33.93, 60.15 0.61 M14.36 65.48 C35.39 43.26, 54.5 17.2, 70.78 0.58 M14.36 65.48 C34.34 42.92, 52.49 21.66, 70.78 0.58 M24.99 65.45 C44.8 43.07, 61.17 24.86, 81.41 0.54 M24.99 65.45 C46.43 39.07, 68.72 15.39, 81.41 0.54 M35.62 65.41 C51.38 46.66, 69.19 26.85, 92.04 0.51 M35.62 65.41 C49.07 49.73, 62.26 35.3, 92.04 0.51 M46.25 65.38 C68.18 40.42, 87.7 17.6, 102.67 0.47 M46.25 65.38 C63.63 44.7, 81.42 25.32, 102.67 0.47 M56.22 66.1 C68.16 51.93, 79.27 36.91, 113.3 0.44 M56.22 66.1 C71.45 50.92, 84.27 34.52, 113.3 0.44 M66.85 66.06 C81.39 48.26, 98.41 30.1, 123.93 0.4 M66.85 66.06 C88.13 42.49, 109.19 17.59, 123.93 0.4 M77.48 66.03 C93.58 47.49, 107.46 30.21, 134.56 0.37 M77.48 66.03 C90.57 50.69, 104.21 35.12, 134.56 0.37 M88.11 65.99 C104.79 45.26, 120.8 26.18, 145.19 0.33 M88.11 65.99 C108.16 42.59, 128.64 18.69, 145.19 0.33 M98.74 65.96 C119.05 40.78, 139.49 19.5, 155.82 0.3 M98.74 65.96 C120.77 41.06, 143.18 14.99, 155.82 0.3 M109.37 65.93 C120.85 52.02, 133.81 38.64, 166.45 0.27 M109.37 65.93 C124 47.69, 140.22 29.57, 166.45 0.27 M120 65.89 C131.12 54.41, 144.54 37.93, 177.08 0.23 M120 65.89 C137.2 48.37, 151.95 29.48, 177.08 0.23 M130.63 65.86 C154.65 39.49, 174.14 14.74, 187.71 0.2 M130.63 65.86 C147.13 45.26, 164.89 27.34, 187.71 0.2 M141.26 65.82 C154.37 50.69, 169.82 36.28, 198.34 0.16 M141.26 65.82 C154.78 51.23, 167.65 34.65, 198.34 0.16 M151.89 65.79 C175.18 38.03, 195.57 14.19, 208.97 0.13 M151.89 65.79 C166.88 48.2, 182.39 32.5, 208.97 0.13 M162.52 65.75 C179.91 45.88, 198.75 26.53, 219.6 0.09 M162.52 65.75 C178.93 45.49, 195.74 26.48, 219.6 0.09 M173.15 65.72 C186.14 52.8, 194.54 40.45, 230.23 0.06 M173.15 65.72 C194.05 42.47, 214.92 18.6, 230.23 0.06 M183.78 65.68 C203.73 41.92, 225.13 19.95, 240.2 0.78 M183.78 65.68 C202.72 44.89, 222.65 21.24, 240.2 0.78 M194.41 65.65 C207.52 48.06, 225.28 30.55, 250.83 0.74 M194.41 65.65 C209.08 47.62, 223.64 30.12, 250.83 0.74 M205.04 65.61 C229.87 41.96, 251.42 16.03, 261.46 0.71 M205.04 65.61 C223.36 46.2, 240.26 25.87, 261.46 0.71 M215.67 65.58 C234.79 42.87, 256.83 18.41, 272.09 0.68 M215.67 65.58 C235.11 43.18, 254.65 18.7, 272.09 0.68 M226.3 65.55 C242.29 43.74, 261.76 24.05, 282.72 0.64 M226.3 65.55 C238.71 52.61, 251.42 37.41, 282.72 0.64 M236.93 65.51 C257.93 43.55, 275.25 18.13, 293.35 0.61 M236.93 65.51 C254.72 44.99, 271.31 24.9, 293.35 0.61 M246.91 66.23 C259.17 53.27, 270.05 35.99, 303.98 0.57 M246.91 66.23 C264.99 46.49, 281.62 25.19, 303.98 0.57 M257.54 66.2 C275.21 45.44, 291.67 26.6, 314.61 0.54 M257.54 66.2 C278.19 42.92, 297.13 20.03, 314.61 0.54 M268.17 66.16 C288.17 44.72, 308.95 21.83, 325.24 0.5 M268.17 66.16 C285.88 46.41, 302.25 25.36, 325.24 0.5 M278.8 66.13 C298.47 43.48, 316.94 21.67, 335.87 0.47 M278.8 66.13 C299.11 42.18, 319.44 17.27, 335.87 0.47 M289.43 66.09 C308.62 43.85, 329.12 17.75, 346.5 0.43 M289.43 66.09 C309.69 42.37, 333.19 17.25, 346.5 0.43 M300.06 66.06 C314.81 46.04, 331.61 30.07, 357.13 0.4 M300.06 66.06 C321.76 41.49, 344.34 15.77, 357.13 0.4 M310.69 66.02 C320.89 51.04, 335.1 38.94, 367.76 0.36 M310.69 66.02 C331.04 43.41, 350.62 20.66, 367.76 0.36 M321.32 65.99 C338.03 47.84, 352.96 28.6, 378.39 0.33 M321.32 65.99 C340.19 44.51, 357.89 24.67, 378.39 0.33 M331.95 65.96 C348.9 45.78, 365.83 25.34, 389.02 0.3 M331.95 65.96 C351.42 43.53, 369.6 21.61, 389.02 0.3 M342.58 65.92 C355.3 48.72, 372.83 32.09, 397.69 2.53 M342.58 65.92 C354.75 53.49, 365.54 39.36, 397.69 2.53 M353.21 65.89 C367.16 49.8, 384.63 31.52, 403.07 8.53 M353.21 65.89 C365.04 51.57, 377.75 37.14, 403.07 8.53 M363.84 65.85 C381.47 49.55, 396.97 28.45, 405.17 18.31 M363.84 65.85 C379.42 47.86, 395.3 29.88, 405.17 18.31 M374.47 65.82 C384.91 52.42, 399.46 38.29, 405.3 30.35 M374.47 65.82 C383.98 55.31, 393.36 43.9, 405.3 30.35 M385.1 65.78 C393.28 58.04, 401.98 46.13, 405.44 42.39 M385.1 65.78 C390.46 59.27, 396.45 53.13, 405.44 42.39 M396.38 64.99 C398.42 61.85, 401.35 60.58, 403.6 56.69 M396.38 64.99 C399.1 62.35, 401.39 58.39, 403.6 56.69" stroke="#a5d8ff" stroke-width="1" fill="none"></path><path d="M16.43 0 C137.49 -0.94, 261.54 1.02, 388.74 0 M16.43 0 C97.86 -0.85, 180.25 -0.1, 388.74 0 M388.74 0 C399.73 -0.42, 404.52 7.27, 405.17 16.43 M388.74 0 C399.68 1.81, 403.68 6.12, 405.17 16.43 M405.17 16.43 C405.91 28.55, 404.09 39.96, 405.17 49.29 M405.17 16.43 C405.6 24.9, 404.33 33.37, 405.17 49.29 M405.17 49.29 C403.19 58.7, 400.15 64.76, 388.74 65.72 M405.17 49.29 C407.06 58.44, 400.72 65.94, 388.74 65.72 M388.74 65.72 C259.89 67.61, 130.56 66.86, 16.43 65.72 M388.74 65.72 C291.74 68.26, 194.97 68.23, 16.43 65.72 M16.43 65.72 C4.11 67.17, -1.28 58.29, 0 49.29 M16.43 65.72 C7.69 65.63, 0.34 61.81, 0 49.29 M0 49.29 C0.41 35.33, -1.14 25.27, 0 16.43 M0 49.29 C0.32 40.24, -0.23 32.46, 0 16.43 M0 16.43 C-0.06 5.54, 4.25 -1.52, 16.43 0 M0 16.43 C-2.19 6.39, 4.16 -1.31, 16.43 0" stroke="#1971c2" stroke-width="2" fill="none"></path></g><g transform="translate(211.6733729926409 98.10842251818622) rotate(0 40.65614318847656 19.494410952815656)"><text x="40.65614318847656" y="0" font-family="Virgil, Segoe UI Emoji" font-size="31.191057524504977px" fill="#1971c2" text-anchor="middle" style="white-space: pre;" direction="ltr" dominant-baseline="text-before-edge">s-app</text></g><g stroke-linecap="round" transform="translate(88.88653637383504 163.05859270927203) rotate(0 156.8771715234161 32.57933813781756)"><path d="M4.34 3.77 C4.34 3.77, 4.34 3.77, 4.34 3.77 M4.34 3.77 C4.34 3.77, 4.34 3.77, 4.34 3.77 M2.5 18.07 C7.17 10.95, 9.64 6.6, 17.59 0.72 M2.5 18.07 C5.86 14.37, 10.54 8.19, 17.59 0.72 M2.63 30.12 C9.78 22.7, 15.71 16.76, 28.22 0.68 M2.63 30.12 C9.4 21.67, 18 14.15, 28.22 0.68 M2.77 42.16 C14.74 27.02, 28.74 13.53, 38.85 0.65 M2.77 42.16 C10.08 31.87, 18.25 23.5, 38.85 0.65 M0.93 56.46 C20.02 35.68, 41.09 10.13, 49.48 0.61 M0.93 56.46 C18.59 36.99, 36.63 15.43, 49.48 0.61 M6.31 62.46 C21.69 44.58, 39.52 23.45, 59.45 1.33 M6.31 62.46 C25.98 42.04, 43.38 20.5, 59.45 1.33 M13.66 66.2 C34.63 42.03, 54.76 21.38, 70.08 1.3 M13.66 66.2 C28.99 48.27, 44.48 32.72, 70.08 1.3 M24.29 66.17 C37.83 52.9, 47.64 37.54, 80.71 1.26 M24.29 66.17 C36.59 51.21, 47.46 37.29, 80.71 1.26 M34.92 66.13 C51.96 44.58, 72.4 25.35, 91.34 1.23 M34.92 66.13 C47.41 52.31, 59.34 38.44, 91.34 1.23 M45.55 66.1 C60.43 47.61, 74.55 31.22, 101.97 1.19 M45.55 66.1 C57.7 50.82, 72.19 36.23, 101.97 1.19 M56.18 66.07 C72.76 46.12, 89.31 28.53, 112.61 1.16 M56.18 66.07 C77.36 41.17, 99.7 16.68, 112.61 1.16 M66.81 66.03 C84.98 46.99, 99.64 26.88, 123.24 1.13 M66.81 66.03 C88.59 40.46, 110.43 15.93, 123.24 1.13 M77.44 66 C88.85 49.8, 103.05 35.69, 133.87 1.09 M77.44 66 C93.1 48.68, 109.02 30.49, 133.87 1.09 M88.07 65.96 C102.65 53.04, 115.71 36.56, 144.5 1.06 M88.07 65.96 C106.78 45.49, 125.31 23.8, 144.5 1.06 M98.7 65.93 C113.39 51.77, 123.81 35.53, 155.13 1.02 M98.7 65.93 C119.86 39.83, 141.47 14.69, 155.13 1.02 M109.33 65.89 C127.23 45.23, 145.89 22.9, 165.76 0.99 M109.33 65.89 C122.24 50.77, 136.39 34.05, 165.76 0.99 M119.96 65.86 C140.02 40.32, 160.55 19.27, 176.39 0.95 M119.96 65.86 C141.8 42.02, 161.94 19.4, 176.39 0.95 M130.59 65.82 C146.83 47.64, 164.57 28.76, 187.02 0.92 M130.59 65.82 C141.05 51.93, 153.81 38.4, 187.02 0.92 M140.57 66.54 C157.39 42.55, 178.87 22.52, 197.65 0.88 M140.57 66.54 C163.89 42.48, 185.52 16.83, 197.65 0.88 M151.2 66.51 C163.53 50.97, 175.96 36.61, 208.28 0.85 M151.2 66.51 C163.39 51.28, 176.09 37.29, 208.28 0.85 M161.83 66.47 C177.78 48.7, 195.53 28.25, 218.91 0.82 M161.83 66.47 C174.26 51.97, 188.01 36.66, 218.91 0.82 M172.46 66.44 C191.87 44.7, 207.16 24.77, 229.54 0.78 M172.46 66.44 C193.78 42.79, 213.48 18.99, 229.54 0.78 M183.09 66.41 C198.81 47.94, 213.8 30.6, 239.51 1.5 M183.09 66.41 C204.51 40.51, 227.99 14.37, 239.51 1.5 M193.72 66.37 C207.26 50.94, 224.78 33.21, 250.14 1.47 M193.72 66.37 C208.78 49.71, 221.79 35.33, 250.14 1.47 M204.35 66.34 C226.74 39.55, 247.52 14.91, 260.77 1.43 M204.35 66.34 C226.32 41.84, 246.55 17.11, 260.77 1.43 M214.98 66.3 C231.75 48.42, 248.03 28.48, 271.4 1.4 M214.98 66.3 C237.54 42.03, 259.1 15.73, 271.4 1.4 M225.61 66.27 C235.5 52.39, 247.77 39.53, 282.03 1.36 M225.61 66.27 C246.31 43.53, 265.81 19.91, 282.03 1.36 M236.24 66.23 C256.73 43.27, 274.72 21.39, 292.66 1.33 M236.24 66.23 C248.04 52.8, 261.28 38.74, 292.66 1.33 M246.87 66.2 C268.44 43.96, 289.01 20.04, 302.63 2.05 M246.87 66.2 C268.84 42.3, 289.19 16.97, 302.63 2.05 M257.5 66.16 C273.87 49.75, 285.69 33.33, 310.64 5.03 M257.5 66.16 C270.78 52.29, 282.31 37.61, 310.64 5.03 M268.13 66.13 C285.06 47.6, 303.76 28.29, 315.37 11.79 M268.13 66.13 C284.98 46.74, 301.88 28.42, 315.37 11.79 M278.76 66.1 C290.25 55.68, 299.14 42.45, 315.5 23.83 M278.76 66.1 C291.18 54.1, 302.34 39.58, 315.5 23.83 M289.39 66.06 C301.02 55.9, 308.66 41.34, 315.63 35.87 M289.39 66.06 C299.26 53.86, 310.21 41.49, 315.63 35.87 M299.36 66.78 C304.65 61.63, 305.28 56.96, 316.42 47.16 M299.36 66.78 C304.8 60.31, 311.04 51.65, 316.42 47.16" stroke="#a5d8ff" stroke-width="1" fill="none"></path><path d="M16.29 0 C73.81 -2.76, 133.95 -2.5, 297.46 0 M16.29 0 C72.95 -0.7, 129.34 0.15, 297.46 0 M297.46 0 C308.31 1.58, 312.47 5.99, 313.75 16.29 M297.46 0 C309.66 1.04, 315.54 6.11, 313.75 16.29 M313.75 16.29 C312.59 25.18, 312.31 38.34, 313.75 48.87 M313.75 16.29 C312.57 25.91, 313.79 36.6, 313.75 48.87 M313.75 48.87 C315.4 58.16, 309.22 65.35, 297.46 65.16 M313.75 48.87 C314.86 58.39, 310.3 66.48, 297.46 65.16 M297.46 65.16 C214.23 63.31, 133.51 63.41, 16.29 65.16 M297.46 65.16 C184.78 67.76, 72.65 66.46, 16.29 65.16 M16.29 65.16 C7.36 65.08, 0.29 61.09, 0 48.87 M16.29 65.16 C7.57 65.22, -1.87 60.21, 0 48.87 M0 48.87 C-0.66 40.69, 1.87 33.32, 0 16.29 M0 48.87 C0.05 41.03, -0.53 32.37, 0 16.29 M0 16.29 C-1.9 6.23, 4.29 -1.14, 16.29 0 M0 16.29 C0.66 3.52, 4.33 0.09, 16.29 0" stroke="#1971c2" stroke-width="2" fill="none"></path></g><g transform="translate(205.74695374686053 176.14351989427405) rotate(0 40.016754150390625 19.494410952815656)"><text x="40.016754150390625" y="0" font-family="Virgil, Segoe UI Emoji" font-size="31.191057524504977px" fill="#1971c2" text-anchor="middle" style="white-space: pre;" direction="ltr" dominant-baseline="text-before-edge">c-app</text></g><g stroke-linecap="round" transform="translate(119.10484509287744 235.38409127114664) rotate(0 126.6588628043728 29.89194001479939)"><path d="M3.98 3.46 C3.98 3.46, 3.98 3.46, 3.98 3.46 M3.98 3.46 C3.98 3.46, 3.98 3.46, 3.98 3.46 M0.18 20.03 C2.87 16.85, 8.55 11.39, 17.23 0.4 M0.18 20.03 C6.21 12.85, 13.11 5.46, 17.23 0.4 M0.96 31.31 C8.95 20.41, 16.79 10.68, 27.86 0.37 M0.96 31.31 C8.78 22.35, 16.32 13.47, 27.86 0.37 M1.1 43.35 C10.03 30.8, 23.88 17.37, 38.49 0.34 M1.1 43.35 C10.49 33.29, 18.25 24.22, 38.49 0.34 M2.54 53.89 C20.94 35.97, 37.19 15.15, 48.47 1.06 M2.54 53.89 C19.75 35.03, 36.36 13.26, 48.47 1.06 M9.24 58.38 C30.25 34.2, 47.15 14.16, 59.1 1.02 M9.24 58.38 C27.68 37.65, 44.05 18.13, 59.1 1.02 M18.55 59.85 C28.98 45.47, 41.76 33.61, 69.73 0.99 M18.55 59.85 C29.35 45.79, 42.45 32.45, 69.73 0.99 M29.18 59.82 C43.96 40.09, 64.19 22.27, 80.36 0.95 M29.18 59.82 C41.71 46.21, 53.4 32.59, 80.36 0.95 M39.81 59.79 C51.8 45.59, 66.05 29.13, 90.99 0.92 M39.81 59.79 C55.36 40.89, 72.03 22.61, 90.99 0.92 M50.44 59.75 C60.49 46.55, 73.21 32.08, 101.62 0.88 M50.44 59.75 C63.12 44.19, 75.58 29.34, 101.62 0.88 M61.07 59.72 C77.07 41.95, 91.07 26.33, 112.25 0.85 M61.07 59.72 C75.12 43.81, 89.24 27.24, 112.25 0.85 M71.7 59.68 C89.97 40.05, 105.82 21.55, 122.88 0.81 M71.7 59.68 C86.18 42.12, 101.17 24.22, 122.88 0.81 M82.33 59.65 C92.31 47.67, 101.81 35.83, 133.51 0.78 M82.33 59.65 C98.18 40.14, 114.93 21.9, 133.51 0.78 M92.31 60.37 C113.27 37.36, 132.98 13.68, 144.14 0.75 M92.31 60.37 C110.12 38.78, 130.07 17.76, 144.14 0.75 M102.94 60.33 C122.79 39.11, 140.47 17.59, 154.77 0.71 M102.94 60.33 C115.34 46.48, 127.75 33.54, 154.77 0.71 M113.57 60.3 C129.32 41.76, 145.29 20.01, 165.4 0.68 M113.57 60.3 C132.83 40.38, 149.32 18.64, 165.4 0.68 M124.2 60.26 C136.36 46.41, 146.01 37.3, 176.03 0.64 M124.2 60.26 C138.29 42.43, 153.35 26.22, 176.03 0.64 M134.83 60.23 C148.94 43.29, 167.98 21.15, 186.66 0.61 M134.83 60.23 C149.42 44.38, 164.5 26.18, 186.66 0.61 M145.46 60.2 C157.2 47.4, 164.58 38.26, 197.29 0.57 M145.46 60.2 C164.84 35.91, 186.34 12.42, 197.29 0.57 M156.09 60.16 C168.85 45.16, 185.7 27.97, 207.92 0.54 M156.09 60.16 C169.22 45.77, 182.66 29.52, 207.92 0.54 M166.72 60.13 C184.38 38.09, 204.27 13.91, 218.55 0.5 M166.72 60.13 C186.66 36.51, 206.68 15.51, 218.55 0.5 M177.35 60.09 C191.17 45.04, 204.03 32.97, 228.52 1.22 M177.35 60.09 C193.92 41.35, 211.34 21.87, 228.52 1.22 M187.98 60.06 C203.77 46.04, 213.78 27.22, 239.15 1.19 M187.98 60.06 C199.81 46.95, 211.84 31.33, 239.15 1.19 M198.61 60.02 C214.77 39.66, 231.46 21.12, 247.81 3.42 M198.61 60.02 C209.76 48.51, 219.73 36.54, 247.81 3.42 M209.24 59.99 C222.92 44.94, 235.17 33.5, 252.54 10.18 M209.24 59.99 C223.44 44.76, 236.7 28.09, 252.54 10.18 M219.87 59.95 C231.77 46.44, 239.13 36.51, 252.67 22.22 M219.87 59.95 C230.71 47.14, 242.59 32.47, 252.67 22.22 M230.5 59.92 C237.95 54.34, 241.45 47.25, 252.81 34.26 M230.5 59.92 C239.08 49.79, 245.93 41.58, 252.81 34.26 M241.79 59.13 C243.46 54.34, 246.5 50.77, 252.94 46.3 M241.79 59.13 C245.77 54.53, 247.9 51.42, 252.94 46.3" stroke="#ffc9c9" stroke-width="1" fill="none"></path><path d="M14.95 0 C61.55 1.71, 111.98 1.32, 238.37 0 M14.95 0 C77.26 -1.05, 139.02 -1.49, 238.37 0 M238.37 0 C249.5 0.9, 254.87 5.57, 253.32 14.95 M238.37 0 C248.75 -1.41, 253.32 3.87, 253.32 14.95 M253.32 14.95 C253.51 20.54, 253.89 26.53, 253.32 44.84 M253.32 14.95 C254.21 20.82, 253.83 28.36, 253.32 44.84 M253.32 44.84 C254.28 53.64, 250.05 60.93, 238.37 59.78 M253.32 44.84 C253.18 56.55, 246.79 58.87, 238.37 59.78 M238.37 59.78 C179 59.37, 117.86 58.23, 14.95 59.78 M238.37 59.78 C156.04 57.87, 72.17 58.49, 14.95 59.78 M14.95 59.78 C6.85 59.84, -1.62 55.22, 0 44.84 M14.95 59.78 C3.79 58.48, 2.09 53.83, 0 44.84 M0 44.84 C-1.42 35.53, -0.04 27.14, 0 14.95 M0 44.84 C-0.77 36.18, -0.39 26.16, 0 14.95 M0 14.95 C0.58 3.32, 4.03 0.08, 14.95 0 M0 14.95 C2.3 4.22, 3.61 -0.93, 14.95 0" stroke="#e03131" stroke-width="2" fill="none"></path></g><g transform="translate(223.83714844900805 245.78162033313038) rotate(0 21.926559448242188 19.494410952815656)"><text x="21.926559448242188" y="0" font-family="Virgil, Segoe UI Emoji" font-size="31.191057524504977px" fill="#e03131" text-anchor="middle" style="white-space: pre;" direction="ltr" dominant-baseline="text-before-edge">c-p</text></g><g stroke-linecap="round" transform="translate(529.8993835305519 326.5359634844308) rotate(0 238.87743379019867 32.57933813781756)"><path d="M4.34 3.77 C4.34 3.77, 4.34 3.77, 4.34 3.77 M4.34 3.77 C4.34 3.77, 4.34 3.77, 4.34 3.77 M-0.12 21.09 C4.05 17.72, 9.24 9.72, 18.25 -0.04 M-0.12 21.09 C4.94 14.67, 9.21 8.51, 18.25 -0.04 M0.67 32.38 C11.01 19.85, 19.07 10.56, 28.88 -0.07 M0.67 32.38 C11.65 19.65, 24.23 6.46, 28.88 -0.07 M0.8 44.42 C14.51 26.66, 30.95 10.49, 38.85 0.65 M0.8 44.42 C10.12 35.17, 16.66 24.57, 38.85 0.65 M0.93 56.46 C13.87 42.4, 25.49 31.03, 49.48 0.61 M0.93 56.46 C11.25 45.02, 21.5 33.04, 49.48 0.61 M6.31 62.46 C26.7 37.23, 48.15 15.67, 60.11 0.58 M6.31 62.46 C26.03 39.74, 44.79 17.97, 60.11 0.58 M14.32 65.45 C35.69 42.01, 51.61 20.3, 70.74 0.54 M14.32 65.45 C31.12 46.08, 48.34 27.53, 70.74 0.54 M24.95 65.41 C36.45 52.33, 49.91 39.51, 81.37 0.51 M24.95 65.41 C38.32 47.9, 53.92 31.87, 81.37 0.51 M35.58 65.38 C52.78 44.83, 74.91 20.18, 92 0.47 M35.58 65.38 C53.8 43.8, 72.93 21.74, 92 0.47 M46.21 65.34 C66.32 43.75, 83.62 22.87, 102.63 0.44 M46.21 65.34 C69.05 40.6, 91.34 14.07, 102.63 0.44 M56.84 65.31 C72.8 50.25, 82.86 32.71, 113.26 0.41 M56.84 65.31 C68.55 51.49, 79.74 39.22, 113.26 0.41 M67.47 65.28 C86.67 43.29, 107.96 19.47, 123.89 0.37 M67.47 65.28 C88.07 42.26, 107.24 18.83, 123.89 0.37 M78.1 65.24 C92.24 47.74, 105.19 35.07, 134.52 0.34 M78.1 65.24 C93.34 46.93, 109.43 28.44, 134.52 0.34 M88.73 65.21 C111.22 40.1, 130.93 17.76, 145.15 0.3 M88.73 65.21 C103.39 48.3, 118.99 29.79, 145.15 0.3 M99.36 65.17 C116.66 45.67, 131.74 26.64, 155.78 0.27 M99.36 65.17 C118.93 41.69, 138.54 19.59, 155.78 0.27 M109.99 65.14 C121.89 49.96, 136.96 35.43, 166.41 0.23 M109.99 65.14 C127.01 46.17, 145.71 26.36, 166.41 0.23 M120.62 65.1 C138.97 44.13, 159.68 22.43, 177.04 0.2 M120.62 65.1 C139.44 45.2, 157.56 23.22, 177.04 0.2 M130.59 65.82 C147.4 46.16, 160.46 27.64, 187.67 0.16 M130.59 65.82 C143.24 52.32, 154.51 38.99, 187.67 0.16 M141.22 65.79 C153.44 47.92, 170.01 32.37, 198.3 0.13 M141.22 65.79 C156.45 46.14, 172.85 26.91, 198.3 0.13 M151.85 65.75 C172.18 44.41, 192.01 20.13, 208.93 0.09 M151.85 65.75 C173.83 41.26, 195.25 17.35, 208.93 0.09 M162.48 65.72 C180.48 44.74, 195.98 27.67, 219.56 0.06 M162.48 65.72 C178.88 46.44, 192.85 29.68, 219.56 0.06 M173.11 65.69 C186.86 49.89, 205.67 31.07, 229.54 0.78 M173.11 65.69 C194.63 41.7, 214.74 17.67, 229.54 0.78 M183.75 65.65 C201.9 46.47, 216.18 27.9, 240.17 0.75 M183.75 65.65 C200.87 45.52, 218.53 26.5, 240.17 0.75 M194.38 65.62 C211.46 43.75, 230.94 24.47, 250.8 0.71 M194.38 65.62 C216.96 41.39, 237.76 14.92, 250.8 0.71 M205.01 65.58 C220.76 50.35, 234.2 32.27, 261.43 0.68 M205.01 65.58 C222.18 46.51, 238.14 27.19, 261.43 0.68 M215.64 65.55 C229.39 45.33, 246.53 28.51, 272.06 0.64 M215.64 65.55 C227.3 50.57, 241.01 37.78, 272.06 0.64 M226.27 65.51 C243.09 46.14, 261.65 22.61, 282.69 0.61 M226.27 65.51 C248.68 39.86, 269.74 13.53, 282.69 0.61 M236.9 65.48 C256.96 45.3, 274.36 22.09, 293.32 0.57 M236.9 65.48 C251.66 47.44, 268.51 29.37, 293.32 0.57 M247.53 65.44 C260.14 49.56, 276.9 32.33, 303.95 0.54 M247.53 65.44 C261.1 48.64, 275.14 33.12, 303.95 0.54 M258.16 65.41 C273.91 46.18, 293.66 24.07, 314.58 0.5 M258.16 65.41 C277.47 42.7, 298.02 18.54, 314.58 0.5 M268.79 65.38 C285.26 43.92, 304.63 25.88, 325.21 0.47 M268.79 65.38 C284.18 46.81, 302.23 27.55, 325.21 0.47 M279.42 65.34 C299.46 42.59, 321.19 17.06, 335.84 0.44 M279.42 65.34 C297.47 46.6, 314.35 25.39, 335.84 0.44 M290.05 65.31 C311.47 41.58, 334.59 14.6, 346.47 0.4 M290.05 65.31 C307.96 44.75, 325.67 25.24, 346.47 0.4 M300.68 65.27 C321.46 39.88, 344.2 14.52, 357.1 0.37 M300.68 65.27 C318.38 45.52, 336.99 24.43, 357.1 0.37 M311.31 65.24 C325.45 48.83, 344.51 30.12, 367.73 0.33 M311.31 65.24 C325.2 49.18, 341.06 30.96, 367.73 0.33 M321.94 65.2 C334.04 51.2, 343.78 39.32, 378.36 0.3 M321.94 65.2 C336.93 49.55, 350.63 31.64, 378.36 0.3 M331.91 65.92 C344.7 50.28, 357.62 36.16, 388.99 0.26 M331.91 65.92 C345.4 51.63, 357.45 36.65, 388.99 0.26 M342.54 65.89 C361.25 45.7, 377.36 25.32, 399.62 0.23 M342.54 65.89 C361.41 44.07, 380.42 22.25, 399.62 0.23 M353.17 65.85 C374.09 43.74, 390.52 20.4, 410.25 0.19 M353.17 65.85 C368.38 48.07, 384.78 30.09, 410.25 0.19 M363.8 65.82 C381.69 43.88, 402.74 23.94, 420.88 0.16 M363.8 65.82 C377.39 48.6, 391.98 33.18, 420.88 0.16 M374.43 65.79 C396.06 40.09, 418.72 13.51, 430.85 0.88 M374.43 65.79 C386.82 50.96, 397.97 37.93, 430.85 0.88 M385.06 65.75 C397.49 51.81, 413.3 32.92, 441.48 0.85 M385.06 65.75 C406.38 40.31, 428.83 14.54, 441.48 0.85 M395.69 65.72 C411.42 49.56, 426.49 29.99, 452.11 0.81 M395.69 65.72 C409.08 49.45, 423.67 33.87, 452.11 0.81 M406.32 65.68 C423.41 48.69, 437.62 26.29, 462.74 0.78 M406.32 65.68 C422.13 45.95, 440.11 26.57, 462.74 0.78 M416.95 65.65 C432.64 50.44, 443.2 35.59, 472.06 2.25 M416.95 65.65 C432.75 49.58, 446.85 32.08, 472.06 2.25 M427.58 65.61 C440.83 49.12, 454.66 33.73, 476.79 9.01 M427.58 65.61 C446.94 42.99, 466.8 21.33, 476.79 9.01 M438.21 65.58 C451.53 47.98, 464.3 35.34, 477.57 20.3 M438.21 65.58 C453.52 48.82, 469.62 30.1, 477.57 20.3 M448.84 65.54 C460.43 53.75, 466.43 43.05, 477.71 32.34 M448.84 65.54 C459.7 51.77, 471.82 38.58, 477.71 32.34 M459.47 65.51 C467.62 55.89, 472.85 51.31, 477.84 44.38 M459.47 65.51 C463.81 60.21, 468.63 55.16, 477.84 44.38" stroke="#ffc9c9" stroke-width="1" fill="none"></path><path d="M16.29 0 C160.63 -0.36, 306.27 -0.05, 461.47 0 M461.47 0 C473.9 -1.29, 478.31 6.59, 477.75 16.29 M477.75 16.29 C478.36 26.3, 478.01 37.81, 477.75 48.87 M477.75 48.87 C476.29 58.49, 473.67 65.54, 461.47 65.16 M461.47 65.16 C353.59 63.23, 246.76 63.81, 16.29 65.16 M16.29 65.16 C3.86 66.06, 0.19 60.69, 0 48.87 M0 48.87 C-0.4 42.51, -1.62 32.32, 0 16.29 M0 16.29 C-0.53 7.12, 5.04 1.98, 16.29 0" stroke="#e03131" stroke-width="2.5" fill="none" stroke-dasharray="8 10"></path></g><g transform="translate(603.6414566029771 339.6208906694328) rotate(0 165.13536071777344 19.494410952815656)"><text x="165.13536071777344" y="0" font-family="Virgil, Segoe UI Emoji" font-size="31.191057524504977px" fill="#e03131" text-anchor="middle" style="white-space: pre;" direction="ltr" dominant-baseline="text-before-edge">s-p(maybe not exists)</text></g><g stroke-linecap="round" transform="translate(566.1935591156653 401.2774128084543) rotate(0 202.5832582050857 32.8613841469778)"><path d="M4.37 3.8 C4.37 3.8, 4.37 3.8, 4.37 3.8 M4.37 3.8 C4.37 3.8, 4.37 3.8, 4.37 3.8 M2.54 18.11 C8.18 12.19, 13.54 6.55, 17.63 0.75 M2.54 18.11 C6.29 12.6, 10.66 7.65, 17.63 0.75 M2.67 30.15 C11.64 20.24, 20.6 7.94, 28.26 0.71 M2.67 30.15 C10.77 21.62, 18.47 10.42, 28.26 0.71 M2.8 42.19 C10.51 32.56, 20.21 22.85, 38.89 0.68 M2.8 42.19 C17.25 26.81, 30.09 12.43, 38.89 0.68 M2.94 54.23 C23.65 31.72, 38.72 13.44, 49.52 0.65 M2.94 54.23 C13.46 39.98, 26.18 28.27, 49.52 0.65 M7.01 61.74 C19 45.34, 33.24 30.32, 60.15 0.61 M7.01 61.74 C24.55 41.18, 43.51 19.15, 60.15 0.61 M13.7 66.24 C35.02 42.49, 57.46 18.31, 70.78 0.58 M13.7 66.24 C30.13 48.67, 47.27 27.94, 70.78 0.58 M24.33 66.2 C35.02 53.45, 46.04 39.49, 80.75 1.3 M24.33 66.2 C44.22 43.93, 63.19 22.51, 80.75 1.3 M34.96 66.17 C52.45 45.98, 70.94 23.24, 91.38 1.26 M34.96 66.17 C51.12 48.12, 66.43 29.31, 91.38 1.26 M45.59 66.13 C65.24 41.05, 86.4 17.63, 102.01 1.23 M45.59 66.13 C56.82 52.22, 69.45 37.09, 102.01 1.23 M56.22 66.1 C79.39 40.38, 101.34 16.54, 112.64 1.19 M56.22 66.1 C70.26 49.62, 84.85 32.23, 112.64 1.19 M66.85 66.06 C81.28 47.91, 94.84 30.37, 123.27 1.16 M66.85 66.06 C84.15 45.92, 101.25 27.3, 123.27 1.16 M77.48 66.03 C95.06 44.26, 115.14 26.33, 133.9 1.12 M77.48 66.03 C97.38 43.06, 117.09 21.34, 133.9 1.12 M87.46 66.75 C108.53 44.02, 130.67 20.41, 144.53 1.09 M87.46 66.75 C102.59 49.34, 117.5 30.26, 144.53 1.09 M98.09 66.71 C109.32 54.17, 122.75 38.72, 155.16 1.05 M98.09 66.71 C116.12 46.06, 132.31 27.46, 155.16 1.05 M108.72 66.68 C122.72 50.39, 133.11 35.94, 165.79 1.02 M108.72 66.68 C122.43 49.48, 138.75 32.19, 165.79 1.02 M119.35 66.65 C137.8 44.04, 159.22 20.46, 176.42 0.99 M119.35 66.65 C142.14 42.49, 162.32 16.87, 176.42 0.99 M129.98 66.61 C151.01 45.81, 167.43 19.94, 187.05 0.95 M129.98 66.61 C150.63 41.35, 173.01 18.83, 187.05 0.95 M140.61 66.58 C159.43 44.5, 179.59 20.16, 197.68 0.92 M140.61 66.58 C154.93 51.86, 168.13 35, 197.68 0.92 M151.24 66.54 C170.91 46.15, 186.88 26.87, 208.31 0.88 M151.24 66.54 C171.17 43.68, 190.06 21.86, 208.31 0.88 M161.87 66.51 C173.27 52.2, 189.58 34.29, 218.94 0.85 M161.87 66.51 C176.04 50.43, 191.53 33.33, 218.94 0.85 M172.5 66.47 C190.07 48.42, 206.19 28.14, 229.57 0.81 M172.5 66.47 C191.49 44.28, 208.05 24.02, 229.57 0.81 M183.13 66.44 C205.51 41.81, 223.17 21.52, 240.2 0.78 M183.13 66.44 C205.52 39.83, 228.94 13.96, 240.2 0.78 M193.76 66.4 C210.34 49.03, 225.71 28.25, 250.83 0.74 M193.76 66.4 C206.31 51.5, 220.82 35.45, 250.83 0.74 M204.39 66.37 C221.53 47.05, 235.84 31.97, 261.46 0.71 M204.39 66.37 C223.96 42.06, 245.11 20.03, 261.46 0.71 M215.02 66.34 C231.91 47.42, 245.09 30.09, 271.44 1.43 M215.02 66.34 C228.92 50.08, 242.11 35.98, 271.44 1.43 M225.65 66.3 C237.82 48.43, 253.96 32.64, 282.07 1.4 M225.65 66.3 C237.34 51.52, 249.82 37.98, 282.07 1.4 M236.28 66.27 C253.17 43.03, 273.54 24.57, 292.7 1.36 M236.28 66.27 C252.31 46.26, 270.18 27.3, 292.7 1.36 M246.91 66.23 C257.34 54.07, 272.02 39.71, 303.33 1.33 M246.91 66.23 C257.43 53.09, 269.75 40.64, 303.33 1.33 M257.54 66.2 C272.53 51.08, 285.58 35.09, 313.96 1.29 M257.54 66.2 C278.4 40.61, 299.94 16.12, 313.96 1.29 M268.17 66.16 C288.29 42.33, 310.21 20.49, 324.59 1.26 M268.17 66.16 C284.7 45.6, 303.26 27.52, 324.59 1.26 M278.14 66.88 C296.28 44.04, 317.36 24.55, 335.22 1.22 M278.14 66.88 C294.78 49.68, 308.74 31.53, 335.22 1.22 M288.77 66.85 C308.12 45.91, 328.45 23.05, 345.85 1.19 M288.77 66.85 C302.81 50.9, 316.33 35.17, 345.85 1.19 M299.4 66.81 C312.72 53.55, 325.66 37.92, 356.48 1.15 M299.4 66.81 C317.17 46.39, 335.59 24.79, 356.48 1.15 M310.03 66.78 C324.53 48.72, 340.43 30.89, 367.11 1.12 M310.03 66.78 C329.49 44.94, 349.35 20.77, 367.11 1.12 M320.66 66.74 C333.81 49.59, 348.39 35.16, 377.74 1.09 M320.66 66.74 C340.43 42.96, 360.95 20.67, 377.74 1.09 M331.29 66.71 C352.78 44.28, 368.16 24.04, 388.37 1.05 M331.29 66.71 C344.84 50.06, 358.76 34.07, 388.37 1.05 M341.92 66.68 C357.61 50.36, 371.02 30.92, 396.37 4.03 M341.92 66.68 C361.67 43.84, 381.87 22.68, 396.37 4.03 M352.55 66.64 C365.05 51.82, 376.63 38.58, 404.38 7.02 M352.55 66.64 C372.4 44.11, 392.86 21.31, 404.38 7.02 M363.18 66.61 C378.26 50.84, 389.63 37.52, 409.11 13.78 M363.18 66.61 C378.66 48.58, 395.76 29.21, 409.11 13.78 M373.81 66.57 C382.58 55.68, 389.84 48.5, 409.24 25.82 M373.81 66.57 C384.19 55.26, 395.49 41.39, 409.24 25.82 M384.44 66.54 C394.46 57.58, 405.34 45.55, 409.37 37.86 M384.44 66.54 C391.37 56.89, 400.02 47.5, 409.37 37.86 M396.38 64.99 C399.87 60.77, 403.28 57.11, 406.23 53.67 M396.38 64.99 C400.53 60.8, 402.8 56.43, 406.23 53.67" stroke="#a5d8ff" stroke-width="1" fill="none"></path><path d="M16.43 0 C117 -0.78, 215.98 0.72, 388.74 0 M16.43 0 C144.99 -1.05, 273.32 -0.97, 388.74 0 M388.74 0 C398.23 -1.24, 406.51 5.86, 405.17 16.43 M388.74 0 C398.32 0.88, 402.9 3.7, 405.17 16.43 M405.17 16.43 C403.44 27.94, 405.2 38.61, 405.17 49.29 M405.17 16.43 C405.39 25.13, 404.78 31.92, 405.17 49.29 M405.17 49.29 C404.63 61.94, 399.3 67.7, 388.74 65.72 M405.17 49.29 C405.11 62.43, 398.11 67.38, 388.74 65.72 M388.74 65.72 C300.88 68.1, 213.96 69.06, 16.43 65.72 M388.74 65.72 C275.66 65.85, 163.78 65.94, 16.43 65.72 M16.43 65.72 C5.38 67.41, 0.62 59.08, 0 49.29 M16.43 65.72 C4.91 65.97, -0.07 60.31, 0 49.29 M0 49.29 C1.05 40.3, -0.89 34.17, 0 16.43 M0 49.29 C1.16 41.83, -0.44 34.62, 0 16.43 M0 16.43 C0.15 7.25, 5.22 1.62, 16.43 0 M0 16.43 C2.28 6.6, 5.06 -1.02, 16.43 0" stroke="#1971c2" stroke-width="2" fill="none"></path></g><g transform="translate(728.120674132274 414.64438600261656) rotate(0 40.65614318847656 19.494410952815656)"><text x="40.65614318847656" y="0" font-family="Virgil, Segoe UI Emoji" font-size="31.191057524504977px" fill="#1971c2" text-anchor="middle" style="white-space: pre;" direction="ltr" dominant-baseline="text-before-edge">s-app</text></g><g stroke-linecap="round" transform="translate(611.8996457973335 479.5945561937024) rotate(0 156.8771715234161 32.57933813781756)"><path d="M4.34 3.77 C4.34 3.77, 4.34 3.77, 4.34 3.77 M4.34 3.77 C4.34 3.77, 4.34 3.77, 4.34 3.77 M-0.12 21.09 C5.16 16.66, 10.35 7.47, 18.25 -0.04 M-0.12 21.09 C5.49 16.25, 10.1 9.98, 18.25 -0.04 M0.67 32.38 C11.08 21.96, 18.8 9.7, 28.22 0.68 M0.67 32.38 C10.92 20.46, 22.96 7.7, 28.22 0.68 M0.8 44.42 C15.59 26.95, 28.9 15.15, 38.85 0.65 M0.8 44.42 C12.98 30.44, 23.74 18.74, 38.85 0.65 M0.93 56.46 C12.14 43.16, 26.15 27.3, 49.48 0.61 M0.93 56.46 C10.24 44.83, 21.61 32.32, 49.48 0.61 M6.31 62.46 C19.55 49.22, 30.51 32.88, 60.11 0.58 M6.31 62.46 C24.86 43.15, 41.14 21.98, 60.11 0.58 M14.32 65.45 C30.98 44, 46.86 24.08, 70.74 0.54 M14.32 65.45 C35.73 39.11, 59.38 13.62, 70.74 0.54 M24.95 65.41 C44.2 45.97, 59.73 26.26, 81.37 0.51 M24.95 65.41 C38.35 50.2, 51.4 33.81, 81.37 0.51 M35.58 65.38 C53.21 43.97, 70.13 23.96, 92 0.47 M35.58 65.38 C53.54 46.24, 69.57 26.58, 92 0.47 M46.21 65.34 C58.79 51.16, 75.77 32.36, 102.63 0.44 M46.21 65.34 C68.37 40.85, 88.63 17.56, 102.63 0.44 M56.84 65.31 C70.3 48.03, 87.72 30.17, 113.26 0.41 M56.84 65.31 C77.37 42.1, 97.66 17.77, 113.26 0.41 M67.47 65.28 C80.72 49.8, 92.99 36.14, 123.89 0.37 M67.47 65.28 C80.71 50.26, 92.78 34.97, 123.89 0.37 M78.1 65.24 C92.49 49.54, 105.87 33.93, 134.52 0.34 M78.1 65.24 C94.03 47.05, 108.36 29.07, 134.52 0.34 M88.73 65.21 C106.42 42.76, 127.67 20.73, 145.15 0.3 M88.73 65.21 C109.28 40.67, 131.2 16.69, 145.15 0.3 M99.36 65.17 C121.51 38.71, 142.23 15.25, 155.78 0.27 M99.36 65.17 C110.81 51.38, 124.02 38.86, 155.78 0.27 M109.99 65.14 C121.53 52.76, 135.88 36.19, 166.41 0.23 M109.99 65.14 C127.64 45.67, 144.6 23.89, 166.41 0.23 M119.96 65.86 C140.51 43.89, 155.9 24.28, 177.04 0.2 M119.96 65.86 C140.04 43.57, 159.19 22.42, 177.04 0.2 M130.59 65.82 C154.18 40.88, 176.34 15.36, 187.67 0.16 M130.59 65.82 C143.89 50.54, 156.02 34.04, 187.67 0.16 M141.22 65.79 C159.18 44.04, 177.66 23.57, 198.3 0.13 M141.22 65.79 C162.04 42.27, 182.5 19.37, 198.3 0.13 M151.85 65.75 C170.37 45.35, 185.6 25.22, 208.93 0.09 M151.85 65.75 C167.12 48.64, 183.12 29.42, 208.93 0.09 M162.48 65.72 C181.54 41.67, 204.09 17.99, 218.91 0.82 M162.48 65.72 C183.48 40.79, 204.81 16.65, 218.91 0.82 M173.11 65.69 C192.23 43.72, 212.95 23.95, 229.54 0.78 M173.11 65.69 C185.42 51.96, 196.02 40.42, 229.54 0.78 M183.75 65.65 C198.07 51.85, 207.38 37.39, 240.17 0.75 M183.75 65.65 C194.29 54.07, 206.79 40.62, 240.17 0.75 M194.38 65.62 C214.76 41.32, 239.33 14.37, 250.8 0.71 M194.38 65.62 C215.81 39.82, 238.15 15.55, 250.8 0.71 M205.01 65.58 C217.01 51.62, 228.99 37.75, 261.43 0.68 M205.01 65.58 C218.18 49.21, 230.95 34.72, 261.43 0.68 M215.64 65.55 C228 50.81, 243.69 36.91, 272.06 0.64 M215.64 65.55 C228.27 50.3, 242.73 33.36, 272.06 0.64 M226.27 65.51 C238.19 50.33, 251.59 32.98, 282.69 0.61 M226.27 65.51 C239.29 51.39, 251.95 36.58, 282.69 0.61 M236.9 65.48 C249.39 51.94, 263.55 35.02, 293.32 0.57 M236.9 65.48 C253.41 44.96, 271.56 24, 293.32 0.57 M247.53 65.44 C266.35 42.55, 288.13 15.83, 303.29 1.29 M247.53 65.44 C261.53 48.29, 277.51 31.62, 303.29 1.29 M258.16 65.41 C278.87 44.97, 297.49 21.22, 309.98 5.79 M258.16 65.41 C270.38 52.32, 281.32 38.5, 309.98 5.79 M268.79 65.38 C280.82 50.55, 293.27 35.27, 313.4 14.06 M268.79 65.38 C278.85 52.97, 289.46 41.32, 313.4 14.06 M279.42 65.34 C287.11 53.12, 298.46 46.85, 313.53 26.1 M279.42 65.34 C292.51 50.29, 303.98 36.27, 313.53 26.1 M290.05 65.31 C295.96 55.39, 305.62 47.82, 313.66 38.14 M290.05 65.31 C297.57 55.01, 305.84 46.66, 313.66 38.14 M301.33 64.52 C305.71 59.97, 310.45 54.4, 313.8 50.18 M301.33 64.52 C305.78 59.37, 310.94 53.36, 313.8 50.18" stroke="#a5d8ff" stroke-width="1" fill="none"></path><path d="M16.29 0 C83.22 -0.06, 149.22 -0.97, 297.46 0 M16.29 0 C82.82 0.56, 150.98 1.18, 297.46 0 M297.46 0 C307.14 0.76, 311.78 3.89, 313.75 16.29 M297.46 0 C308.85 -1.1, 315.65 3.63, 313.75 16.29 M313.75 16.29 C312.62 29.24, 314.94 38.64, 313.75 48.87 M313.75 16.29 C313.27 29.38, 313.34 41.77, 313.75 48.87 M313.75 48.87 C313.71 61.63, 306.95 66.6, 297.46 65.16 M313.75 48.87 C312.28 57.48, 310.54 65.06, 297.46 65.16 M297.46 65.16 C209.03 65.92, 120.83 66.37, 16.29 65.16 M297.46 65.16 C229.03 64.89, 160.91 63.8, 16.29 65.16 M16.29 65.16 C4.94 65.37, -0.06 59.79, 0 48.87 M16.29 65.16 C4.02 63.41, -2.19 60.64, 0 48.87 M0 48.87 C-1.47 40, 0.26 35.04, 0 16.29 M0 48.87 C0.27 41.06, 0.07 32.28, 0 16.29 M0 16.29 C1.98 6.41, 5.07 -0.88, 16.29 0 M0 16.29 C1.82 5, 3.61 -0.27, 16.29 0" stroke="#1971c2" stroke-width="2" fill="none"></path></g><g transform="translate(728.760063170359 492.6794833787044) rotate(0 40.016754150390625 19.494410952815656)"><text x="40.016754150390625" y="0" font-family="Virgil, Segoe UI Emoji" font-size="31.191057524504977px" fill="#1971c2" text-anchor="middle" style="white-space: pre;" direction="ltr" dominant-baseline="text-before-edge">c-app</text></g><g stroke-linecap="round" transform="translate(642.1179545163777 551.920054755577) rotate(0 126.6588628043728 29.89194001479939)"><path d="M3.98 3.46 C3.98 3.46, 3.98 3.46, 3.98 3.46 M3.98 3.46 C3.98 3.46, 3.98 3.46, 3.98 3.46 M0.18 20.03 C6.1 11.15, 13.16 6.14, 17.23 0.4 M0.18 20.03 C6.8 12.55, 12.27 6.09, 17.23 0.4 M0.96 31.31 C12.02 19.41, 17.9 9.25, 27.86 0.37 M0.96 31.31 C9.24 21.95, 17.61 13.58, 27.86 0.37 M1.1 43.35 C8.72 35.05, 18.18 26.84, 38.49 0.34 M1.1 43.35 C9.77 31.5, 20.62 20.94, 38.49 0.34 M2.54 53.89 C16.21 37.4, 34.75 16.88, 48.47 1.06 M2.54 53.89 C17.25 36.4, 32.8 18.45, 48.47 1.06 M9.24 58.38 C27.08 39.32, 42.15 21.01, 59.1 1.02 M9.24 58.38 C29.43 36.62, 49.14 13.05, 59.1 1.02 M18.55 59.85 C33.21 46.2, 42.02 30.11, 69.73 0.99 M18.55 59.85 C29.19 47.25, 39.3 36.23, 69.73 0.99 M29.18 59.82 C46.49 40.01, 65.94 18.31, 80.36 0.95 M29.18 59.82 C47.89 38.95, 65.18 17.68, 80.36 0.95 M39.81 59.79 C52.63 43.75, 64.3 32.55, 90.99 0.92 M39.81 59.79 C53.59 43.13, 68.2 26.34, 90.99 0.92 M50.44 59.75 C70.98 36.92, 88.69 16.88, 101.62 0.88 M50.44 59.75 C63.71 44.49, 77.91 27.59, 101.62 0.88 M61.07 59.72 C76.89 41.96, 90.43 24.7, 112.25 0.85 M61.07 59.72 C78.76 38.35, 96.52 18.38, 112.25 0.85 M71.7 59.68 C82.37 45.91, 96.21 32.79, 122.88 0.81 M71.7 59.68 C87.09 42.53, 104.19 24.55, 122.88 0.81 M82.33 59.65 C98.93 40.73, 117.88 21.06, 133.51 0.78 M82.33 59.65 C99.44 41.69, 115.88 21.63, 133.51 0.78 M92.31 60.37 C107.7 42.37, 119.29 25.54, 144.14 0.75 M92.31 60.37 C103.87 48.08, 114.04 36.01, 144.14 0.75 M102.94 60.33 C113.86 43.93, 129.16 29.83, 154.77 0.71 M102.94 60.33 C116.68 42.47, 131.57 24.99, 154.77 0.71 M113.57 60.3 C132.05 41.08, 150 18.97, 165.4 0.68 M113.57 60.3 C133.55 38.05, 152.99 16.42, 165.4 0.68 M124.2 60.26 C140.61 41.1, 154.58 25.79, 176.03 0.64 M124.2 60.26 C139.17 42.69, 151.68 27.6, 176.03 0.64 M134.83 60.23 C147.35 45.88, 164.89 28.51, 186.66 0.61 M134.83 60.23 C154.62 38.16, 173.04 16.07, 186.66 0.61 M145.46 60.2 C162.24 42.58, 175.18 25.54, 197.29 0.57 M145.46 60.2 C161.2 41.7, 177.47 24.27, 197.29 0.57 M156.09 60.16 C171.73 39.92, 189.8 22.26, 207.92 0.54 M156.09 60.16 C176.88 37.96, 195.9 13.55, 207.92 0.54 M166.72 60.13 C181.32 46.23, 193.58 29.51, 218.55 0.5 M166.72 60.13 C182.53 42.63, 197.14 24.87, 218.55 0.5 M177.35 60.09 C189.65 41.67, 205.26 26.59, 228.52 1.22 M177.35 60.09 C187.85 46.47, 200.42 34.99, 228.52 1.22 M187.98 60.06 C203.06 42.66, 219.89 21.11, 239.15 1.19 M187.98 60.06 C208.39 36.8, 227.38 12.85, 239.15 1.19 M198.61 60.02 C216.34 42.55, 231.35 22.09, 247.81 3.42 M198.61 60.02 C211.36 44.36, 226.2 28.61, 247.81 3.42 M209.24 59.99 C218.64 47.84, 232.04 34.48, 252.54 10.18 M209.24 59.99 C219.5 46.89, 230.36 35.03, 252.54 10.18 M219.87 59.95 C228.52 49.26, 240.98 35.52, 252.67 22.22 M219.87 59.95 C230.85 46.79, 242.92 32.38, 252.67 22.22 M230.5 59.92 C236 50.43, 244.73 44.64, 252.81 34.26 M230.5 59.92 C236.12 52.66, 244.1 44.98, 252.81 34.26 M241.79 59.13 C245.88 54.86, 251.04 48.46, 252.94 46.3 M241.79 59.13 C245.87 55.77, 249.04 50.6, 252.94 46.3" stroke="#ffc9c9" stroke-width="1" fill="none"></path><path d="M14.95 0 C98.25 -0.34, 182.83 -1.6, 238.37 0 M14.95 0 C67.57 -0.04, 120.37 -1.03, 238.37 0 M238.37 0 C248.79 -0.96, 254.96 3.42, 253.32 14.95 M238.37 0 C249.37 0.22, 254.42 3.64, 253.32 14.95 M253.32 14.95 C255.01 25.14, 252.69 37.48, 253.32 44.84 M253.32 14.95 C253.24 27.39, 252.57 38.66, 253.32 44.84 M253.32 44.84 C252.03 52.85, 250.26 59.7, 238.37 59.78 M253.32 44.84 C253.66 56.36, 250.48 59.85, 238.37 59.78 M238.37 59.78 C188.5 60.35, 139.85 58.7, 14.95 59.78 M238.37 59.78 C152.29 58.75, 66.6 58.68, 14.95 59.78 M14.95 59.78 C3.76 58.26, -1.9 55.6, 0 44.84 M14.95 59.78 C3.67 58.47, 0.66 52.9, 0 44.84 M0 44.84 C-0.67 36.1, -0.82 29.91, 0 14.95 M0 44.84 C1.03 33.71, -0.14 21.15, 0 14.95 M0 14.95 C1.58 4.61, 3.4 -0.23, 14.95 0 M0 14.95 C-2.06 6.98, 5.16 -2.28, 14.95 0" stroke="#e03131" stroke-width="2" fill="none"></path></g><g transform="translate(746.8502578725083 562.3175838175607) rotate(0 21.926559448242188 19.494410952815656)"><text x="21.926559448242188" y="0" font-family="Virgil, Segoe UI Emoji" font-size="31.191057524504977px" fill="#e03131" text-anchor="middle" style="white-space: pre;" direction="ltr" dominant-baseline="text-before-edge">c-p</text></g><g stroke-linecap="round" transform="translate(504.9955432363977 85.44649833422773) rotate(0 263.7812740843524 32.84945441721993)"><path d="M4.37 3.8 C4.37 3.8, 4.37 3.8, 4.37 3.8 M4.37 3.8 C4.37 3.8, 4.37 3.8, 4.37 3.8 M-0.09 21.12 C4.75 16.15, 11.56 5.54, 18.28 -0.01 M-0.09 21.12 C6.27 12.93, 13.28 6.47, 18.28 -0.01 M0.7 32.41 C7.78 25.9, 11.99 17.72, 28.91 -0.04 M0.7 32.41 C12.67 20.41, 21.95 7.35, 28.91 -0.04 M0.84 44.45 C16.26 26.99, 29.49 9.55, 39.54 -0.08 M0.84 44.45 C10.78 34.74, 18.05 23.11, 39.54 -0.08 M0.97 56.49 C12.94 41.15, 25.64 28.28, 49.52 0.64 M0.97 56.49 C15.17 39.96, 30.02 22, 49.52 0.64 M6.35 62.5 C17.72 50.33, 27.12 37.53, 60.15 0.61 M6.35 62.5 C24.62 40.65, 42.31 20.08, 60.15 0.61 M14.36 65.48 C29.25 46.46, 42.08 30.13, 70.78 0.57 M14.36 65.48 C28.29 48.27, 43.69 31.09, 70.78 0.57 M24.99 65.45 C42.95 42.9, 61.87 24.27, 81.41 0.54 M24.99 65.45 C43.15 44.13, 62.16 21.81, 81.41 0.54 M35.62 65.41 C52.99 46.07, 71.91 25.19, 92.04 0.51 M35.62 65.41 C48.51 50.94, 60.44 36.35, 92.04 0.51 M46.25 65.38 C62.53 50.29, 74.02 34.38, 102.67 0.47 M46.25 65.38 C68.97 40.78, 88.59 17.36, 102.67 0.47 M56.88 65.34 C68.86 51.36, 79.98 35.64, 113.3 0.44 M56.88 65.34 C69.93 48.61, 83.17 34.39, 113.3 0.44 M66.85 66.06 C87.91 43.61, 105.64 22.45, 123.93 0.4 M66.85 66.06 C80.9 48.61, 94.31 33.96, 123.93 0.4 M77.48 66.03 C90.04 51.09, 103.2 37.35, 134.56 0.37 M77.48 66.03 C94.32 47.62, 109.92 30.65, 134.56 0.37 M88.11 65.99 C102.21 48.33, 118 31.56, 145.19 0.33 M88.11 65.99 C100.71 51.29, 114.29 37.01, 145.19 0.33 M98.74 65.96 C110.27 49.81, 125.57 35, 155.82 0.3 M98.74 65.96 C112.28 51.52, 124.96 35.6, 155.82 0.3 M109.37 65.92 C121.69 48.74, 137.07 32, 166.45 0.26 M109.37 65.92 C122.92 50.36, 136.69 34.55, 166.45 0.26 M120 65.89 C131.84 50.7, 143.06 39.37, 177.08 0.23 M120 65.89 C136.33 46.9, 153.42 26.58, 177.08 0.23 M130.63 65.85 C143.23 52.99, 156.46 37.05, 187.71 0.2 M130.63 65.85 C147.82 47.83, 163.34 28.17, 187.71 0.2 M141.26 65.82 C162.56 41.09, 185.92 18.89, 198.34 0.16 M141.26 65.82 C163.32 40.32, 187.12 15.45, 198.34 0.16 M151.89 65.79 C170.92 44.56, 192.71 21.38, 208.97 0.13 M151.89 65.79 C166.26 50.24, 179.75 34.48, 208.97 0.13 M162.52 65.75 C176 50.71, 187.66 36.89, 219.6 0.09 M162.52 65.75 C185.51 40.82, 206.89 15.19, 219.6 0.09 M173.15 65.72 C196.26 40.51, 213.52 17.28, 230.23 0.06 M173.15 65.72 C187.93 49.93, 201.84 31.58, 230.23 0.06 M183.78 65.68 C196.47 49.54, 211.04 33.75, 240.86 0.02 M183.78 65.68 C195.81 53.7, 207.57 39.15, 240.86 0.02 M194.41 65.65 C211.08 45.44, 230.45 26.86, 250.83 0.74 M194.41 65.65 C210.24 46.27, 228.1 27.32, 250.83 0.74 M205.04 65.61 C223.11 46.77, 242.93 25.73, 261.46 0.71 M205.04 65.61 C225.09 43.33, 245.59 21.23, 261.46 0.71 M215.67 65.58 C234.79 47.2, 249.23 23.47, 272.09 0.67 M215.67 65.58 C231.75 48.58, 247.61 30.74, 272.09 0.67 M226.3 65.54 C240.13 51, 249.4 38.22, 282.72 0.64 M226.3 65.54 C248.62 40.97, 268.72 15.25, 282.72 0.64 M236.93 65.51 C248.53 51.2, 262.27 36.04, 293.35 0.6 M236.93 65.51 C254.65 45.47, 270.26 27.17, 293.35 0.6 M247.56 65.48 C263.73 46.26, 281.64 26.7, 303.98 0.57 M247.56 65.48 C261.81 50.07, 274.78 34.19, 303.98 0.57 M258.19 65.44 C279.13 40.64, 304.39 13.85, 314.61 0.54 M258.19 65.44 C269.85 52.32, 280.41 39.36, 314.61 0.54 M268.17 66.16 C286.96 45.79, 303.65 28.88, 325.24 0.5 M268.17 66.16 C287.76 43.73, 307.48 22.45, 325.24 0.5 M278.8 66.13 C296.37 46.96, 309.39 30.34, 335.87 0.47 M278.8 66.13 C290.39 52.56, 303.72 37.38, 335.87 0.47 M289.43 66.09 C306.84 46.8, 321.13 30.12, 346.5 0.43 M289.43 66.09 C301.65 51.66, 316.44 36.46, 346.5 0.43 M300.06 66.06 C312.67 52.05, 328.18 34.87, 357.13 0.4 M300.06 66.06 C319.63 45.62, 337.37 22.56, 357.13 0.4 M310.69 66.02 C328.72 46.51, 342.22 29.59, 367.76 0.36 M310.69 66.02 C330.76 42.29, 350.73 20.46, 367.76 0.36 M321.32 65.99 C341.73 41.78, 363.31 17.24, 378.39 0.33 M321.32 65.99 C337.94 45.61, 356.9 27.05, 378.39 0.33 M331.95 65.95 C350.41 46.9, 367.07 24.45, 389.02 0.29 M331.95 65.95 C349.87 47.05, 366.73 27.05, 389.02 0.29 M342.58 65.92 C354.36 51.12, 369.96 32.66, 399.65 0.26 M342.58 65.92 C356.26 49.57, 369.95 33.73, 399.65 0.26 M353.21 65.89 C370.02 46.12, 385.55 26.57, 410.28 0.23 M353.21 65.89 C372.69 43.4, 393.33 19.56, 410.28 0.23 M363.84 65.85 C381.47 42.99, 401.35 18.98, 420.91 0.19 M363.84 65.85 C378.26 48.2, 395.31 30.55, 420.91 0.19 M374.47 65.82 C394.42 44.22, 415.44 21.6, 431.54 0.16 M374.47 65.82 C395.41 41.8, 414.71 19.26, 431.54 0.16 M385.1 65.78 C402.53 44.13, 420.21 28.17, 442.17 0.12 M385.1 65.78 C398.77 51.13, 410.34 37.42, 442.17 0.12 M395.73 65.75 C415.15 45.08, 433.04 22.92, 452.15 0.84 M395.73 65.75 C406.82 52.59, 418.83 39.52, 452.15 0.84 M406.36 65.71 C428.2 41.49, 450.75 16.49, 462.78 0.81 M406.36 65.71 C425.34 43.9, 444.16 23.55, 462.78 0.81 M416.99 65.68 C431.85 47.97, 450.58 26.38, 473.41 0.77 M416.99 65.68 C436.89 42.27, 459.01 18.78, 473.41 0.77 M427.62 65.64 C439.23 52.89, 452.44 39.29, 484.04 0.74 M427.62 65.64 C449.83 40.88, 470.84 16.44, 484.04 0.74 M438.25 65.61 C460.39 40.7, 484.52 14.73, 494.67 0.7 M438.25 65.61 C459.74 41.65, 480.9 15.68, 494.67 0.7 M448.88 65.57 C467.39 41.98, 484.64 21.69, 505.3 0.67 M448.88 65.57 C469.08 44.09, 488.69 22.13, 505.3 0.67 M459.51 65.54 C478.39 41.49, 498.56 19.8, 515.93 0.64 M459.51 65.54 C478.94 40.81, 501.3 17.52, 515.93 0.64 M469.48 66.26 C490.73 41.76, 509.71 20.7, 523.28 4.37 M469.48 66.26 C486.49 45.61, 504.09 26.4, 523.28 4.37 M480.11 66.23 C494.39 47.15, 512.14 32.18, 526.69 12.64 M480.11 66.23 C493.35 49.98, 505.55 36.08, 526.69 12.64 M490.74 66.19 C499.44 55.14, 508.65 46.72, 526.82 24.68 M490.74 66.19 C499.88 56.14, 509.17 44.06, 526.82 24.68 M501.37 66.16 C510.89 56.85, 517.89 49.89, 526.96 36.72 M501.37 66.16 C508.77 57.54, 515.47 49.92, 526.96 36.72 M512 66.12 C514.25 61.56, 519.1 56.74, 527.75 48.01 M512 66.12 C517.19 59.32, 522.58 53.68, 527.75 48.01" stroke="#ffc9c9" stroke-width="1" fill="none"></path><path d="M16.42 0 C131.03 -2.63, 246.03 -1.86, 511.14 0 M511.14 0 C523.08 0.07, 528.52 3.71, 527.56 16.42 M527.56 16.42 C528.91 23.02, 527.44 28.68, 527.56 49.27 M527.56 49.27 C527.59 61.13, 522.93 66.55, 511.14 65.7 M511.14 65.7 C383.55 68.27, 257.4 66.9, 16.42 65.7 M16.42 65.7 C6.71 67.6, 0.77 62.21, 0 49.27 M0 49.27 C-1.23 38.79, 0.76 26.02, 0 16.42 M0 16.42 C-1.36 3.52, 3.72 -1.88, 16.42 0" stroke="#e03131" stroke-width="2.5" fill="none" stroke-dasharray="8 10"></path></g><g transform="translate(596.4833602895005 98.80154179863212) rotate(0 172.29345703125 19.494410952815656)"><text x="172.29345703125" y="0" font-family="Virgil, Segoe UI Emoji" font-size="31.191057524504977px" fill="#e03131" text-anchor="middle" style="white-space: pre;" direction="ltr" dominant-baseline="text-before-edge">c-p (maybe not exists)</text></g><g mask="url(#mask-Gzfwwzc1_GGYYFTpxehpx)" stroke-linecap="round"><g transform="translate(769.0757591206539 381.91095143082384) rotate(0 -0.2989417999028774 -147.37847921862806)"><path d="M-0.85 0.3 C-1.27 -48.69, -1.62 -245.2, -1.55 -294.53 M0.9 -0.59 C0.77 -49.91, 0.99 -247.49, 0.65 -296.53" stroke="#e03131" stroke-width="2" fill="none"></path></g><g transform="translate(769.0757591206539 381.91095143082384) rotate(0 -0.2989417999028774 -147.37847921862806)"><path d="M10.98 -268.36 C7.72 -280.68, 3.7 -289.47, 0.65 -296.53 M10.98 -268.36 C7.99 -273.84, 6.91 -280.36, 0.65 -296.53" stroke="#e03131" stroke-width="2" fill="none"></path></g><g transform="translate(769.0757591206539 381.91095143082384) rotate(0 -0.2989417999028774 -147.37847921862806)"><path d="M-9.54 -268.31 C-5.04 -280.51, -1.3 -289.31, 0.65 -296.53 M-9.54 -268.31 C-7.95 -273.9, -4.44 -280.43, 0.65 -296.53" stroke="#e03131" stroke-width="2" fill="none"></path></g></g><mask id="mask-Gzfwwzc1_GGYYFTpxehpx"><rect x="0" y="0" fill="#fff" width="869.67364272046" height="776.66790986808"></rect><rect x="647.4633560170396" y="215.03806125938013" fill="#000" width="242.62692260742188" height="38.98882190563122" opacity="1"></rect></mask><g transform="translate(647.4633560170396 215.0380612593799) rotate(0 121.27940818506931 18.757979608347455)"><text x="121.31346130371094" y="0" font-family="Virgil, Segoe UI Emoji" font-size="31.191057524504977px" fill="#e03131" text-anchor="middle" style="white-space: pre;" direction="ltr" dominant-baseline="text-before-edge">parent_span_id</text></g></svg>