<svg version="1.1" xmlns="http://www.w3.org/2000/svg" viewBox="0 0 1193.9198883543113 811.3457668047557" width="1193.9198883543113" height="811.3457668047557" filter="invert(93%) hue-rotate(180deg)">
  <!-- svg-source:excalidraw -->
  
  <defs>
    <style class="style-fonts">
      @font-face {
        font-family: "Virgil";
        src: url("https://file%2B.vscode-resource.vscode-cdn.net/c%3A/Users/talor/.vscode/extensions/pomdtr.excalidraw-editor-3.7.4/public//dist/excalidraw-assets/Virgil.woff2");
      }
      @font-face {
        font-family: "Cascadia";
        src: url("https://file%2B.vscode-resource.vscode-cdn.net/c%3A/Users/talor/.vscode/extensions/pomdtr.excalidraw-editor-3.7.4/public//dist/excalidraw-assets/Cascadia.woff2");
      }
      @font-face {
        font-family: "Assistant";
        src: url("https://file%2B.vscode-resource.vscode-cdn.net/c%3A/Users/talor/.vscode/extensions/pomdtr.excalidraw-editor-3.7.4/public//dist/excalidraw-assets/Assistant-Regular.woff2");
      }
    </style>
    
  </defs>
  <rect x="0" y="0" width="1193.9198883543113" height="811.3457668047557" fill="#ffffff"></rect><g stroke-linecap="round" transform="translate(122.21857098582677 741.5618867751571) rotate(0 126.6588628043728 29.89194001479933)"><path d="M3.98 3.46 C3.98 3.46, 3.98 3.46, 3.98 3.46 M3.98 3.46 C3.98 3.46, 3.98 3.46, 3.98 3.46 M2.8 17.01 C7.35 9.14, 12.01 6.76, 16.58 1.16 M2.8 17.01 C6.14 11.79, 11.45 6.92, 16.58 1.16 M2.93 29.05 C9.93 20.57, 18.61 11.52, 27.21 1.13 M2.93 29.05 C9.62 20.09, 17.16 12.45, 27.21 1.13 M3.07 41.09 C12.82 28.47, 22.36 18.05, 37.84 1.09 M3.07 41.09 C11.02 31.16, 18.4 22.88, 37.84 1.09 M3.2 53.13 C13.6 41.67, 24.47 30.74, 48.47 1.06 M3.2 53.13 C19.52 34.78, 36.9 15.47, 48.47 1.06 M7.92 59.89 C20.32 44.21, 34.65 29.65, 59.1 1.02 M7.92 59.89 C27.01 38.23, 45.54 16.88, 59.1 1.02 M15.93 62.87 C36.06 39.15, 54.98 16.33, 69.73 0.99 M15.93 62.87 C33 43.39, 50.45 22.33, 69.73 0.99 M26.56 62.84 C46.62 39.61, 63.83 21.13, 79.7 1.71 M26.56 62.84 C38.89 49.69, 50.6 34.94, 79.7 1.71 M36.53 63.56 C53.94 44.61, 70.78 25.92, 90.33 1.67 M36.53 63.56 C46.88 50.78, 60.05 36.71, 90.33 1.67 M47.16 63.52 C59.79 47.91, 72.01 36.52, 100.96 1.64 M47.16 63.52 C66.86 38.62, 87.58 16.2, 100.96 1.64 M57.79 63.49 C76.8 39.41, 97.68 20.48, 111.59 1.6 M57.79 63.49 C70.53 49.46, 82.77 34.16, 111.59 1.6 M68.42 63.46 C86.78 43.43, 100.52 26.87, 122.22 1.57 M68.42 63.46 C87.55 43.5, 104.01 22.68, 122.22 1.57 M79.05 63.42 C97.82 43.78, 116.27 20.92, 132.85 1.53 M79.05 63.42 C98.17 42.02, 117.57 19.25, 132.85 1.53 M89.68 63.39 C107.39 41.62, 123.4 22.5, 143.48 1.5 M89.68 63.39 C104.76 46.92, 120.15 29.68, 143.48 1.5 M100.31 63.35 C121.09 40.7, 136.73 18.37, 154.11 1.47 M100.31 63.35 C116.01 46.31, 130.22 27.41, 154.11 1.47 M110.94 63.32 C131.06 42.95, 146.79 21.24, 164.74 1.43 M110.94 63.32 C128.15 42.67, 146.19 22.01, 164.74 1.43 M121.58 63.28 C139.41 41.98, 156.52 22.99, 175.37 1.4 M121.58 63.28 C137.9 43.85, 153.29 25.62, 175.37 1.4 M132.21 63.25 C151.44 41.71, 164.95 24.01, 186 1.36 M132.21 63.25 C148.99 45.44, 164.02 26.06, 186 1.36 M142.84 63.21 C156.8 46.25, 172.2 27.63, 196.63 1.33 M142.84 63.21 C154.55 49.33, 166.24 36, 196.63 1.33 M153.47 63.18 C174.16 39.4, 192.09 17.56, 207.26 1.29 M153.47 63.18 C169.66 43.59, 186.41 25.22, 207.26 1.29 M164.1 63.15 C181.97 45.35, 194.38 28.18, 217.89 1.26 M164.1 63.15 C179.25 45.49, 193.59 28.96, 217.89 1.26 M174.73 63.11 C186.06 46.7, 200.72 35.43, 228.52 1.22 M174.73 63.11 C196.15 38.78, 216.56 14.49, 228.52 1.22 M185.36 63.08 C201.9 42.62, 221.07 24.25, 239.15 1.19 M185.36 63.08 C204.44 41.08, 223.73 20.53, 239.15 1.19 M195.99 63.04 C213.38 45.36, 227.45 25.07, 247.16 4.17 M195.99 63.04 C211.77 44.84, 225.69 26.46, 247.16 4.17 M205.96 63.76 C222.09 43.15, 243.54 21.96, 253.2 9.42 M205.96 63.76 C214.84 53.13, 226.12 40.03, 253.2 9.42 M216.59 63.73 C231.38 46.66, 244.87 29.31, 253.33 21.46 M216.59 63.73 C226.43 52.84, 235.5 41.52, 253.33 21.46 M227.22 63.69 C237.63 54.79, 247.97 42.33, 253.46 33.5 M227.22 63.69 C234.96 54.68, 242.2 45.17, 253.46 33.5 M239.82 61.39 C242.58 55.92, 245.79 54.6, 254.25 44.79 M239.82 61.39 C242.65 56.82, 247.02 53.82, 254.25 44.79" stroke="#ffc9c9" stroke-width="1" fill="none"></path><path d="M14.95 0 C99.51 0.65, 185.17 0.53, 238.37 0 M14.95 0 C61.47 -1.85, 109.55 -1.11, 238.37 0 M238.37 0 C246.37 -0.21, 251.65 5.74, 253.32 14.95 M238.37 0 C246.33 -1.38, 253.3 5.62, 253.32 14.95 M253.32 14.95 C252.54 24.21, 251.8 36.65, 253.32 44.84 M253.32 14.95 C253.02 22.44, 253.62 30, 253.32 44.84 M253.32 44.84 C252.05 53.07, 249.17 58.56, 238.37 59.78 M253.32 44.84 C254.04 56.84, 246.29 57.99, 238.37 59.78 M238.37 59.78 C179.9 59.44, 118.59 61.76, 14.95 59.78 M238.37 59.78 C189.47 57.52, 142.01 57.98, 14.95 59.78 M14.95 59.78 C4.79 59.91, -1.05 54.86, 0 44.84 M14.95 59.78 C7.2 62.05, 1.09 52.99, 0 44.84 M0 44.84 C0.64 38.93, -0.71 31.8, 0 14.95 M0 44.84 C0.89 37.24, -0.41 31.11, 0 14.95 M0 14.95 C1.08 6.46, 4.44 -1.53, 14.95 0 M0 14.95 C2.2 7.27, 6.09 0.89, 14.95 0" stroke="#e03131" stroke-width="2" fill="none"></path></g><g transform="translate(226.31148530387145 751.9594158371408) rotate(0 22.565948486328125 19.4944109528156)"><text x="22.565948486328125" y="0" font-family="Virgil, Segoe UI Emoji" font-size="31.191057524504977px" fill="#e03131" text-anchor="middle" style="white-space: pre;" direction="ltr" dominant-baseline="text-before-edge">s-p</text></g><g stroke-linecap="round" transform="translate(10.000000000001819 10) rotate(0 238.87743379019867 32.57933813781753)"><path d="M4.34 3.77 C4.34 3.77, 4.34 3.77, 4.34 3.77 M4.34 3.77 C4.34 3.77, 4.34 3.77, 4.34 3.77 M2.5 18.07 C4.93 13.38, 10.37 8.6, 17.59 0.72 M2.5 18.07 C7.78 12.09, 11.79 6.61, 17.59 0.72 M2.63 30.12 C11.15 19.43, 17.46 13.59, 28.22 0.68 M2.63 30.12 C9.05 21.17, 16.47 14.53, 28.22 0.68 M2.77 42.16 C14.28 28.85, 27.83 16.66, 38.85 0.65 M2.77 42.16 C17.54 26.08, 31.08 9.49, 38.85 0.65 M0.93 56.46 C15.15 41.67, 27.36 25.36, 49.48 0.61 M0.93 56.46 C18.84 36.05, 35.54 16.67, 49.48 0.61 M6.31 62.46 C24.85 43.15, 41.51 21.25, 59.45 1.33 M6.31 62.46 C24.97 42.72, 44 20.98, 59.45 1.33 M13.66 66.2 C29.29 49.05, 42.88 33.11, 70.08 1.3 M13.66 66.2 C31.78 43.25, 51.25 22.35, 70.08 1.3 M24.29 66.17 C39.38 51.27, 49.97 33.39, 80.71 1.26 M24.29 66.17 C38.51 49.59, 54.52 32.12, 80.71 1.26 M34.92 66.13 C49.64 49.76, 63.71 31.71, 91.34 1.23 M34.92 66.13 C55.1 43.06, 76.92 19.37, 91.34 1.23 M45.55 66.1 C64.66 43.82, 85.84 17.56, 101.97 1.19 M45.55 66.1 C60.74 50.03, 74.88 33.88, 101.97 1.19 M56.18 66.07 C78.82 41.83, 97.71 15.84, 112.61 1.16 M56.18 66.07 C76.6 41.34, 99.44 16.97, 112.61 1.16 M66.81 66.03 C77.73 53.09, 88.66 38.39, 123.24 1.13 M66.81 66.03 C82.33 47.05, 97.32 30.23, 123.24 1.13 M77.44 66 C88.77 54.36, 98.55 38.73, 133.87 1.09 M77.44 66 C96.29 44.12, 115.22 21.96, 133.87 1.09 M88.07 65.96 C111.41 40.92, 130.63 15.69, 144.5 1.06 M88.07 65.96 C107.29 43.97, 125.31 23.71, 144.5 1.06 M98.7 65.93 C111.34 50.84, 127.73 36.76, 155.13 1.02 M98.7 65.93 C110.26 51.43, 122.56 38.91, 155.13 1.02 M109.33 65.89 C127.51 42.7, 149.27 20.64, 165.76 0.99 M109.33 65.89 C127.73 43.6, 147.64 21.85, 165.76 0.99 M119.96 65.86 C140.55 43.96, 160.22 17.56, 176.39 0.95 M119.96 65.86 C139.19 41.83, 159 21.18, 176.39 0.95 M130.59 65.82 C146.77 46.7, 160.47 31.75, 187.02 0.92 M130.59 65.82 C151.67 40.82, 175.3 14.25, 187.02 0.92 M141.22 65.79 C156.62 45.08, 176.68 25.06, 197.65 0.88 M141.22 65.79 C162.5 41.8, 181.47 19.76, 197.65 0.88 M151.85 65.75 C169.25 46.57, 187.41 24.76, 208.28 0.85 M151.85 65.75 C171.21 45.24, 189.34 23.71, 208.28 0.85 M161.83 66.47 C185.11 44.24, 206.41 17.76, 218.91 0.82 M161.83 66.47 C172.47 54.08, 184.56 39.99, 218.91 0.82 M172.46 66.44 C195.9 41.64, 213.46 20.2, 229.54 0.78 M172.46 66.44 C192.67 42.67, 214.78 19.99, 229.54 0.78 M183.09 66.41 C201.94 44.44, 221.15 23.61, 240.17 0.75 M183.09 66.41 C199.48 46.45, 216.98 28.43, 240.17 0.75 M193.72 66.37 C213.54 42.06, 235.08 18.13, 250.8 0.71 M193.72 66.37 C208.19 51.23, 222.42 35.54, 250.8 0.71 M204.35 66.34 C218.75 49.95, 236.79 32.26, 260.77 1.43 M204.35 66.34 C216.84 53.56, 229.34 38.66, 260.77 1.43 M214.98 66.3 C235.26 45.77, 253.11 23.23, 271.4 1.4 M214.98 66.3 C231.37 46.57, 248.09 27.41, 271.4 1.4 M225.61 66.27 C241.04 48.99, 254.81 34.59, 282.03 1.36 M225.61 66.27 C236.37 53.46, 249.02 39.72, 282.03 1.36 M236.24 66.23 C254.64 43.95, 273.33 24.75, 292.66 1.33 M236.24 66.23 C257.88 39.87, 280.4 15.7, 292.66 1.33 M246.87 66.2 C260.41 50.95, 271.38 38.5, 303.29 1.29 M246.87 66.2 C261.88 50.85, 275.61 33.27, 303.29 1.29 M257.5 66.16 C273.08 47.65, 286.96 31.05, 313.92 1.26 M257.5 66.16 C278.29 40.95, 301.44 16.55, 313.92 1.26 M268.13 66.13 C279.46 53.58, 288.66 40.64, 324.55 1.22 M268.13 66.13 C291.49 39.73, 312.92 13.79, 324.55 1.22 M278.76 66.1 C301.48 39.53, 322.18 16.67, 335.18 1.19 M278.76 66.1 C292.71 51.08, 303.57 37.91, 335.18 1.19 M289.39 66.06 C299.42 50.6, 312.57 36.74, 345.81 1.16 M289.39 66.06 C305.33 49.03, 320.36 32.91, 345.81 1.16 M300.02 66.03 C319.3 42.12, 339.51 20.39, 356.44 1.12 M300.02 66.03 C317.77 47.27, 335.15 26.46, 356.44 1.12 M310.65 65.99 C328.38 46.6, 346.71 26.04, 367.07 1.09 M310.65 65.99 C328.67 46.43, 347.37 24.79, 367.07 1.09 M321.28 65.96 C337.35 44.8, 353.37 25.77, 377.7 1.05 M321.28 65.96 C338.27 45.19, 356.22 25.98, 377.7 1.05 M331.91 65.92 C352.48 43.09, 374.57 16.84, 388.33 1.02 M331.91 65.92 C351.66 42.36, 372.49 17.57, 388.33 1.02 M342.54 65.89 C358.76 48.02, 372.8 33.81, 398.96 0.98 M342.54 65.89 C361.58 45.6, 378.83 24.4, 398.96 0.98 M352.51 66.61 C365.55 51.91, 378.28 36.2, 409.59 0.95 M352.51 66.61 C370.54 45.57, 388.4 25.19, 409.59 0.95 M363.14 66.57 C379.07 47.37, 391.42 32.29, 420.22 0.91 M363.14 66.57 C381.34 44.41, 400.86 21.99, 420.22 0.91 M373.77 66.54 C387.97 52.6, 397.8 36.61, 430.85 0.88 M373.77 66.54 C394.98 41.07, 417.26 16.78, 430.85 0.88 M384.4 66.51 C400.93 44.88, 419.77 26.47, 441.48 0.85 M384.4 66.51 C405.13 43.63, 426.43 18.86, 441.48 0.85 M395.03 66.47 C409.64 48.53, 423.11 32.58, 451.46 1.57 M395.03 66.47 C409.63 47.47, 426.38 29.52, 451.46 1.57 M405.66 66.44 C426.1 45.45, 443.72 19.97, 462.09 1.53 M405.66 66.44 C423.72 45.14, 442.47 24.09, 462.09 1.53 M416.29 66.4 C430.42 51.9, 443.46 34.49, 472.06 2.25 M416.29 66.4 C430.85 50.05, 445.25 31.96, 472.06 2.25 M426.93 66.37 C441.15 46.64, 458.76 29.31, 476.79 9.01 M426.93 66.37 C442.16 47.46, 458.86 29.22, 476.79 9.01 M437.56 66.33 C455.14 46.68, 471.4 28.39, 482.82 14.26 M437.56 66.33 C448.33 53.89, 459.19 41.27, 482.82 14.26 M448.19 66.3 C459.27 52.27, 467.22 42.98, 482.96 26.3 M448.19 66.3 C455.33 57.48, 462.52 48.92, 482.96 26.3 M458.82 66.26 C465.79 57.94, 475.54 49.57, 483.09 38.34 M458.82 66.26 C466.64 58.9, 472.66 51.71, 483.09 38.34" stroke="#ffc9c9" stroke-width="1" fill="none"></path><path d="M16.29 0 C140.48 -1.06, 265.81 -0.21, 461.47 0 M16.29 0 C131.22 -1.42, 246.33 -1.11, 461.47 0 M461.47 0 C470.94 -1.07, 477.77 6.8, 477.75 16.29 M461.47 0 C470.46 1.87, 476.93 3.8, 477.75 16.29 M477.75 16.29 C478.22 21.89, 477.32 29.5, 477.75 48.87 M477.75 16.29 C478.44 27.06, 478.68 36.26, 477.75 48.87 M477.75 48.87 C479.56 58.27, 472.97 64.94, 461.47 65.16 M477.75 48.87 C479.18 58.29, 472.49 63.79, 461.47 65.16 M461.47 65.16 C311.22 64.99, 162.13 65.2, 16.29 65.16 M461.47 65.16 C328.9 65.72, 196.54 66.25, 16.29 65.16 M16.29 65.16 C3.62 65.8, 0.05 58.36, 0 48.87 M16.29 65.16 C3.35 67.07, 0.42 60.22, 0 48.87 M0 48.87 C0.46 40.14, 1.89 30.45, 0 16.29 M0 48.87 C-0.85 39.01, 0.59 29.68, 0 16.29 M0 16.29 C-0.03 3.84, 7.35 1.33, 16.29 0 M0 16.29 C0.56 6.53, 6.34 0.11, 16.29 0" stroke="#e03131" stroke-width="2" fill="none"></path></g><g transform="translate(226.9508743419583 23.08492718500193) rotate(0 21.926559448242188 19.494410952815613)"><text x="21.926559448242188" y="0" font-family="Virgil, Segoe UI Emoji" font-size="31.191057524504977px" fill="#e03131" text-anchor="middle" style="white-space: pre;" direction="ltr" dominant-baseline="text-before-edge">c-p</text></g><g stroke-linecap="round" transform="translate(46.29417558511432 84.74144932402396) rotate(0 202.5832582050857 32.8613841469778)"><path d="M4.37 3.8 C4.37 3.8, 4.37 3.8, 4.37 3.8 M4.37 3.8 C4.37 3.8, 4.37 3.8, 4.37 3.8 M-0.09 21.13 C5.71 15.13, 11.06 9.68, 18.28 -0.01 M-0.09 21.13 C5.06 15.05, 10.39 10.03, 18.28 -0.01 M0.7 32.41 C7.01 25.82, 12.3 16.03, 28.91 -0.04 M0.7 32.41 C6.75 25.14, 13.05 18.86, 28.91 -0.04 M0.84 44.45 C14.16 29.93, 24.22 18.14, 39.54 -0.08 M0.84 44.45 C11.26 32.98, 21.64 20.37, 39.54 -0.08 M0.97 56.49 C16.22 39.05, 30.35 24.61, 49.52 0.65 M0.97 56.49 C13.49 43.29, 26.36 29.28, 49.52 0.65 M6.35 62.5 C25.38 40.16, 41.65 20.21, 60.15 0.61 M6.35 62.5 C25.7 38.13, 46.21 15.92, 60.15 0.61 M14.36 65.48 C31 48.68, 45.65 27.9, 70.78 0.58 M14.36 65.48 C26.93 50.83, 39.57 36.7, 70.78 0.58 M24.99 65.45 C42.62 46.4, 59.42 23.44, 81.41 0.54 M24.99 65.45 C44.94 42.36, 65.32 18.46, 81.41 0.54 M35.62 65.41 C57.99 39.8, 76.78 16.27, 92.04 0.51 M35.62 65.41 C53.78 44.49, 70.98 23.26, 92.04 0.51 M46.25 65.38 C65.8 42.21, 87.08 20.95, 102.67 0.47 M46.25 65.38 C65.25 43.25, 83.62 22.56, 102.67 0.47 M56.22 66.1 C76.6 46.55, 92.63 22.76, 113.3 0.44 M56.22 66.1 C71.07 46.72, 89.2 28.22, 113.3 0.44 M66.85 66.06 C85.59 45.84, 106.3 23.79, 123.93 0.4 M66.85 66.06 C78.49 51.62, 92.13 37.05, 123.93 0.4 M77.48 66.03 C99.88 42.27, 122.18 17.69, 134.56 0.37 M77.48 66.03 C97.14 43.57, 115.92 23.19, 134.56 0.37 M88.11 65.99 C106.4 47.91, 122.16 28.12, 145.19 0.33 M88.11 65.99 C101.74 48.41, 115.53 31.99, 145.19 0.33 M98.74 65.96 C114.2 44.47, 134.78 24.05, 155.82 0.3 M98.74 65.96 C112.19 50.45, 124.66 34.83, 155.82 0.3 M109.37 65.93 C125.13 50.44, 139.25 31.06, 166.45 0.27 M109.37 65.93 C123.88 49.43, 137.08 32.84, 166.45 0.27 M120 65.89 C144.01 41.59, 167.32 14.4, 177.08 0.23 M120 65.89 C131.04 52.85, 143.96 39.61, 177.08 0.23 M130.63 65.86 C145.16 51.79, 156.38 34.25, 187.71 0.2 M130.63 65.86 C151.69 42.1, 171.76 16.22, 187.71 0.2 M141.26 65.82 C156.86 48.34, 170.64 34.06, 198.34 0.16 M141.26 65.82 C155.07 49.29, 167.62 34.39, 198.34 0.16 M151.89 65.79 C169.7 44.29, 185.87 26.59, 208.97 0.13 M151.89 65.79 C173.14 41.2, 191.85 19.34, 208.97 0.13 M162.52 65.75 C182.13 40.56, 205.94 13.58, 219.6 0.09 M162.52 65.75 C184.37 40.87, 203.95 18.32, 219.6 0.09 M173.15 65.72 C189.16 47.96, 200.42 30.78, 230.23 0.06 M173.15 65.72 C188.31 47.02, 203.87 30.25, 230.23 0.06 M183.78 65.68 C197.25 51.32, 210.32 33.75, 240.2 0.78 M183.78 65.68 C195.37 51.85, 206.71 38.42, 240.2 0.78 M194.41 65.65 C211.12 43.33, 230.17 25.35, 250.83 0.74 M194.41 65.65 C214.48 41.86, 235.57 17.07, 250.83 0.74 M205.04 65.61 C224.05 40.75, 245.61 16.84, 261.46 0.71 M205.04 65.61 C227.19 40.52, 249.5 15.46, 261.46 0.71 M215.67 65.58 C236.27 40.77, 256.12 16.13, 272.09 0.68 M215.67 65.58 C228.72 50.19, 242.38 36.2, 272.09 0.68 M226.3 65.55 C239.01 49.58, 256.2 30.76, 282.72 0.64 M226.3 65.55 C245.83 41.57, 266.42 19.64, 282.72 0.64 M236.93 65.51 C250.58 51.41, 262.45 36.57, 293.35 0.61 M236.93 65.51 C249.58 49.73, 264.76 34.82, 293.35 0.61 M246.91 66.23 C261.13 46.95, 277.32 32.04, 303.98 0.57 M246.91 66.23 C266.82 42.87, 288.47 19.68, 303.98 0.57 M257.54 66.2 C274.33 47.46, 289.76 29.82, 314.61 0.54 M257.54 66.2 C271.96 48.72, 288.64 29.67, 314.61 0.54 M268.17 66.16 C289.51 42.77, 306.41 23.65, 325.24 0.5 M268.17 66.16 C283.05 50.49, 296.77 35.53, 325.24 0.5 M278.8 66.13 C290.51 49.51, 305.33 37.28, 335.87 0.47 M278.8 66.13 C292.84 50.07, 308.4 31.86, 335.87 0.47 M289.43 66.09 C302.64 49.25, 316.15 36.04, 346.5 0.43 M289.43 66.09 C305.63 46.57, 321.97 27.93, 346.5 0.43 M300.06 66.06 C316 46.58, 329.46 30.06, 357.13 0.4 M300.06 66.06 C320.6 42.51, 340.35 19, 357.13 0.4 M310.69 66.02 C332.23 39.75, 351.67 16.8, 367.76 0.36 M310.69 66.02 C329.2 45.2, 349.26 22.35, 367.76 0.36 M321.32 65.99 C335.85 50.21, 349.32 33.49, 378.39 0.33 M321.32 65.99 C333.78 51.81, 345.5 38.35, 378.39 0.33 M331.95 65.96 C352.67 44.15, 369.91 19.13, 389.02 0.3 M331.95 65.96 C349.1 46.5, 366.35 28, 389.02 0.3 M342.58 65.92 C354.85 51.02, 366.82 39.25, 397.69 2.53 M342.58 65.92 C360 46.09, 379.64 24.14, 397.69 2.53 M353.21 65.89 C372.36 44.62, 390.52 23.42, 403.07 8.53 M353.21 65.89 C364.47 52.68, 376.52 39.29, 403.07 8.53 M363.84 65.85 C373.67 57.66, 380.45 45.23, 405.17 18.31 M363.84 65.85 C373.22 54.11, 383.42 43.35, 405.17 18.31 M374.47 65.82 C386.24 56.66, 394.17 43.34, 405.3 30.35 M374.47 65.82 C382.73 55.15, 390.95 45.78, 405.3 30.35 M385.1 65.78 C390.73 59.15, 393.15 54.47, 405.44 42.39 M385.1 65.78 C392.73 55.54, 400.38 47.07, 405.44 42.39 M396.38 64.99 C397.75 63.97, 400.33 60.56, 403.6 56.69 M396.38 64.99 C398.64 62.72, 399.84 60.62, 403.6 56.69" stroke="#b2f2bb" stroke-width="1" fill="none"></path><path d="M16.43 0 C115.89 -0.2, 217.03 -1.77, 388.74 0 M16.43 0 C110.34 -0.67, 205.11 0.08, 388.74 0 M388.74 0 C398.07 1.63, 404.45 4.06, 405.17 16.43 M388.74 0 C397.98 -0.74, 404.89 6.13, 405.17 16.43 M405.17 16.43 C405.4 25.38, 404.58 31.13, 405.17 49.29 M405.17 16.43 C406.26 27.3, 405.69 39.52, 405.17 49.29 M405.17 49.29 C406.4 58.99, 399.84 64.54, 388.74 65.72 M405.17 49.29 C405.99 60.26, 400.51 63.8, 388.74 65.72 M388.74 65.72 C313.03 64.8, 237.89 63.31, 16.43 65.72 M388.74 65.72 C302.3 66.81, 216.98 66.2, 16.43 65.72 M16.43 65.72 C3.67 67.39, 0.36 60.67, 0 49.29 M16.43 65.72 C5.05 66.5, 0.07 60.91, 0 49.29 M0 49.29 C-0.49 40.44, 0.98 26.99, 0 16.43 M0 49.29 C-0.3 39.79, 0.67 32.53, 0 16.43 M0 16.43 C0.49 6.43, 6.27 0.09, 16.43 0 M0 16.43 C2.08 6.69, 5.6 1.13, 16.43 0" stroke="#2f9e44" stroke-width="2" fill="none"></path></g><g transform="translate(241.04874421500426 98.10842251818616) rotate(0 7.8286895751953125 19.4944109528156)"><text x="7.8286895751953125" y="0" font-family="Virgil, Segoe UI Emoji" font-size="31.191057524504977px" fill="#2f9e44" text-anchor="middle" style="white-space: pre;" direction="ltr" dominant-baseline="text-before-edge">c</text></g><g stroke-linecap="round" transform="translate(92.00026226678256 163.0585927092718) rotate(0 156.8771715234161 32.57933813781756)"><path d="M4.34 3.77 C4.34 3.77, 4.34 3.77, 4.34 3.77 M4.34 3.77 C4.34 3.77, 4.34 3.77, 4.34 3.77 M2.5 18.07 C6.43 11.75, 11.32 7.65, 17.59 0.72 M2.5 18.07 C5.59 12.96, 11.12 8.93, 17.59 0.72 M2.63 30.12 C10.17 19.16, 22.49 9.47, 28.22 0.68 M2.63 30.12 C9.03 23.57, 16.07 16.03, 28.22 0.68 M2.77 42.16 C12.54 31.27, 21.33 18.12, 38.85 0.65 M2.77 42.16 C16.77 26.41, 29.88 10.9, 38.85 0.65 M0.93 56.46 C11.28 42.9, 23.53 30.19, 49.48 0.61 M0.93 56.46 C19.57 35.22, 37.16 13.52, 49.48 0.61 M6.31 62.46 C20.89 49.81, 31.82 32.69, 59.45 1.33 M6.31 62.46 C16.87 49.79, 27.95 38.29, 59.45 1.33 M13.66 66.2 C32.61 41.87, 55.66 18.53, 70.08 1.3 M13.66 66.2 C33.09 43.45, 50.76 22.14, 70.08 1.3 M24.29 66.17 C45.36 44.14, 65.02 21.44, 80.71 1.26 M24.29 66.17 C44.81 42.62, 64.47 21.27, 80.71 1.26 M34.92 66.13 C47.83 53.8, 59.67 39.42, 91.34 1.23 M34.92 66.13 C51.19 48.25, 65.4 30.28, 91.34 1.23 M45.55 66.1 C62.22 48.69, 78.72 30.22, 101.97 1.19 M45.55 66.1 C60.91 47.46, 75.54 31.15, 101.97 1.19 M56.18 66.07 C76.59 44.1, 97.88 17.33, 112.61 1.16 M56.18 66.07 C69.63 49.89, 82.53 34.43, 112.61 1.16 M66.81 66.03 C85.03 42.37, 107.25 17.25, 123.24 1.13 M66.81 66.03 C85.18 44.92, 101.58 25.65, 123.24 1.13 M77.44 66 C95.39 45.69, 112.35 26.44, 133.87 1.09 M77.44 66 C89.8 50.49, 102.29 36.65, 133.87 1.09 M88.07 65.96 C109 40.58, 133.59 14.46, 144.5 1.06 M88.07 65.96 C101.74 52.05, 115.56 35.71, 144.5 1.06 M98.7 65.93 C112.08 49.14, 129.13 32.28, 155.13 1.02 M98.7 65.93 C113.74 49.05, 129.29 31.62, 155.13 1.02 M109.33 65.89 C130.8 41.94, 153.41 15.92, 165.76 0.99 M109.33 65.89 C126.63 46.72, 141.51 29.57, 165.76 0.99 M119.96 65.86 C138.52 42.14, 163.43 16.61, 176.39 0.95 M119.96 65.86 C140.24 40.79, 162.94 16.49, 176.39 0.95 M130.59 65.82 C151.44 44.75, 169.07 21.75, 187.02 0.92 M130.59 65.82 C150.57 43.82, 170.52 21.47, 187.02 0.92 M140.57 66.54 C153.73 48.44, 170.7 32.66, 197.65 0.88 M140.57 66.54 C154.18 52.03, 166.15 37.04, 197.65 0.88 M151.2 66.51 C164.16 52.75, 175.26 41.22, 208.28 0.85 M151.2 66.51 C164.51 53.2, 175.35 37.92, 208.28 0.85 M161.83 66.47 C180.67 46.7, 196.18 28.3, 218.91 0.82 M161.83 66.47 C174.6 50.45, 188.75 37.24, 218.91 0.82 M172.46 66.44 C186.83 51.15, 203.81 33.96, 229.54 0.78 M172.46 66.44 C185.49 51.25, 199.24 34.49, 229.54 0.78 M183.09 66.41 C202.87 43.42, 226.81 18.6, 239.51 1.5 M183.09 66.41 C196.95 50.07, 211.21 33.74, 239.51 1.5 M193.72 66.37 C206.38 54.57, 217.87 39.59, 250.14 1.47 M193.72 66.37 C214.17 44.75, 233.99 20.35, 250.14 1.47 M204.35 66.34 C223.65 47.67, 239 27.72, 260.77 1.43 M204.35 66.34 C224.19 43.84, 243.21 21.05, 260.77 1.43 M214.98 66.3 C229.09 47.79, 244.59 30.9, 271.4 1.4 M214.98 66.3 C227.71 51.01, 241.94 34.72, 271.4 1.4 M225.61 66.27 C247.17 44.48, 266.72 19.16, 282.03 1.36 M225.61 66.27 C235.68 53.79, 247.57 40.97, 282.03 1.36 M236.24 66.23 C250.96 47.66, 269.72 27.11, 292.66 1.33 M236.24 66.23 C252.61 46.03, 270.69 25.64, 292.66 1.33 M246.87 66.2 C260.98 51.99, 270.68 35.6, 302.63 2.05 M246.87 66.2 C261.18 48.21, 276.73 31.93, 302.63 2.05 M257.5 66.16 C268.42 54.81, 280.47 37.33, 310.64 5.03 M257.5 66.16 C278.3 41.65, 298.83 20.19, 310.64 5.03 M268.13 66.13 C277.38 52.81, 287.55 43.46, 315.37 11.79 M268.13 66.13 C279.65 51.44, 293.24 36.05, 315.37 11.79 M278.76 66.1 C286.66 53.89, 298.25 43.65, 315.5 23.83 M278.76 66.1 C292.44 49.46, 306.97 32.8, 315.5 23.83 M289.39 66.06 C295.3 60.4, 303.42 52.92, 315.63 35.87 M289.39 66.06 C295.6 58.12, 302.92 50.84, 315.63 35.87 M299.36 66.78 C304.66 62.46, 306.76 58.14, 316.42 47.16 M299.36 66.78 C304.73 61.23, 309.55 56.4, 316.42 47.16" stroke="#b2f2bb" stroke-width="1" fill="none"></path><path d="M16.29 0 C124.2 0.2, 233.77 -0.16, 297.46 0 M16.29 0 C85 -0.85, 154.68 -2.02, 297.46 0 M297.46 0 C306.84 -0.64, 313.51 6, 313.75 16.29 M297.46 0 C306.31 -0.38, 312.03 5.76, 313.75 16.29 M313.75 16.29 C314.73 30.47, 312.65 44.05, 313.75 48.87 M313.75 16.29 C314.48 23.07, 313.93 30.51, 313.75 48.87 M313.75 48.87 C314.47 59.74, 309.04 63.49, 297.46 65.16 M313.75 48.87 C311.53 58.61, 306.61 65.09, 297.46 65.16 M297.46 65.16 C194.03 62.77, 93.31 62.53, 16.29 65.16 M297.46 65.16 C203.43 64.32, 110.91 63.85, 16.29 65.16 M16.29 65.16 C5.06 65.83, 0.06 60.3, 0 48.87 M16.29 65.16 C5.94 67.46, -0.09 59.54, 0 48.87 M0 48.87 C-0.91 38.03, -0.58 23.65, 0 16.29 M0 48.87 C-0.07 42.16, 0.08 34.53, 0 16.29 M0 16.29 C1.81 6.49, 5.54 0.99, 16.29 0 M0 16.29 C-0.59 6.79, 3.97 -1.84, 16.29 0" stroke="#2f9e44" stroke-width="2" fill="none"></path></g><g transform="translate(240.40935517691742 176.14351989427377) rotate(0 8.46807861328125 19.4944109528156)"><text x="8.46807861328125" y="0" font-family="Virgil, Segoe UI Emoji" font-size="31.191057524504977px" fill="#2f9e44" text-anchor="middle" style="white-space: pre;" direction="ltr" dominant-baseline="text-before-edge">s</text></g><g stroke-linecap="round" transform="translate(122.21857098582677 235.38409127114642) rotate(0 126.6588628043728 29.89194001479933)"><path d="M3.98 3.46 C3.98 3.46, 3.98 3.46, 3.98 3.46 M3.98 3.46 C3.98 3.46, 3.98 3.46, 3.98 3.46 M2.8 17.01 C5.42 14.06, 10.17 7.65, 16.58 1.16 M2.8 17.01 C6.51 12.45, 8.63 8.57, 16.58 1.16 M2.93 29.05 C8.51 22.77, 15.9 13.87, 27.21 1.13 M2.93 29.05 C12.02 17.79, 22.53 6.85, 27.21 1.13 M3.07 41.09 C17.13 25.52, 29.2 13.16, 37.84 1.09 M3.07 41.09 C14.14 28.16, 26.62 14.1, 37.84 1.09 M3.2 53.13 C18.33 39.33, 31.89 23.15, 48.47 1.06 M3.2 53.13 C19.48 33.1, 36.8 15.53, 48.47 1.06 M7.92 59.89 C26.03 36.54, 48.46 13.44, 59.1 1.02 M7.92 59.89 C22.13 43.87, 34.41 27.4, 59.1 1.02 M15.93 62.87 C28.83 47.3, 42.49 34.54, 69.73 0.99 M15.93 62.87 C29.8 47.5, 41.37 34.12, 69.73 0.99 M26.56 62.84 C42.67 45, 56.8 28.6, 79.7 1.71 M26.56 62.84 C36.89 49.05, 48.42 36.37, 79.7 1.71 M36.53 63.56 C56.12 39.83, 75.11 18.3, 90.33 1.67 M36.53 63.56 C50.79 47.83, 65.74 32.07, 90.33 1.67 M47.16 63.52 C66.56 40.59, 88.58 16.91, 100.96 1.64 M47.16 63.52 C61.16 47.75, 72.85 32.97, 100.96 1.64 M57.79 63.49 C75.91 43.52, 95.67 20, 111.59 1.6 M57.79 63.49 C71.66 49.39, 84.44 33.02, 111.59 1.6 M68.42 63.46 C84.33 46.01, 99.88 29.19, 122.22 1.57 M68.42 63.46 C81.1 50.16, 93.18 35.62, 122.22 1.57 M79.05 63.42 C94.62 44.76, 114.42 24.01, 132.85 1.53 M79.05 63.42 C93.64 47.16, 107.3 31.41, 132.85 1.53 M89.68 63.39 C103.97 43.01, 120.09 26.41, 143.48 1.5 M89.68 63.39 C107.76 42.58, 126.69 19.5, 143.48 1.5 M100.31 63.35 C116.83 42.93, 133.01 22.7, 154.11 1.47 M100.31 63.35 C118.69 43.03, 135.08 22.71, 154.11 1.47 M110.94 63.32 C131.65 38.07, 152.34 16.96, 164.74 1.43 M110.94 63.32 C123.47 50.53, 134.48 35.28, 164.74 1.43 M121.58 63.28 C140.31 45.1, 158.15 21.38, 175.37 1.4 M121.58 63.28 C139.88 42.14, 156.55 21.96, 175.37 1.4 M132.21 63.25 C151.76 40, 167.17 19.92, 186 1.36 M132.21 63.25 C149.07 43.42, 167.43 22.87, 186 1.36 M142.84 63.21 C154.8 45.64, 169.72 31.66, 196.63 1.33 M142.84 63.21 C160.4 42.05, 179.55 22.33, 196.63 1.33 M153.47 63.18 C166.66 43.32, 185.15 29.39, 207.26 1.29 M153.47 63.18 C173.38 40.83, 192.37 18.86, 207.26 1.29 M164.1 63.15 C178.28 43.24, 197.25 25.93, 217.89 1.26 M164.1 63.15 C174.83 48.46, 186.15 35.45, 217.89 1.26 M174.73 63.11 C191.44 42.65, 211.5 19.58, 228.52 1.22 M174.73 63.11 C196.41 38.91, 216.29 14.87, 228.52 1.22 M185.36 63.08 C204.7 40.26, 224.68 15.69, 239.15 1.19 M185.36 63.08 C197.55 48.19, 212.01 33.4, 239.15 1.19 M195.99 63.04 C215.43 41.63, 232.5 21.28, 247.16 4.17 M195.99 63.04 C215.25 40.09, 235.24 18.97, 247.16 4.17 M205.96 63.76 C223.47 45.41, 240.98 26.66, 253.2 9.42 M205.96 63.76 C221.49 44.84, 237.18 26.29, 253.2 9.42 M216.59 63.73 C223.84 54.57, 234.23 43.91, 253.33 21.46 M216.59 63.73 C228.44 51.17, 238.95 38.27, 253.33 21.46 M227.22 63.69 C235.48 53.33, 247.86 38.47, 253.46 33.5 M227.22 63.69 C236.79 53.16, 245.99 40.83, 253.46 33.5 M239.82 61.39 C244.19 58.25, 249.74 50.85, 254.25 44.79 M239.82 61.39 C243.38 56.39, 249.06 52.09, 254.25 44.79" stroke="#ffc9c9" stroke-width="1" fill="none"></path><path d="M14.95 0 C70.8 1.35, 129.67 -0.07, 238.37 0 M14.95 0 C99.5 1.08, 185.23 1.6, 238.37 0 M238.37 0 C246.59 -0.33, 251.82 5.27, 253.32 14.95 M238.37 0 C250.6 -0.61, 254.16 6.2, 253.32 14.95 M253.32 14.95 C251.71 26.36, 252.95 37.71, 253.32 44.84 M253.32 14.95 C253.7 22.05, 253.7 28.3, 253.32 44.84 M253.32 44.84 C251.38 53.83, 246.84 59.73, 238.37 59.78 M253.32 44.84 C254.79 55.75, 247 58.19, 238.37 59.78 M238.37 59.78 C188.54 58.09, 136.43 56.49, 14.95 59.78 M238.37 59.78 C152.59 60.48, 67.16 60.44, 14.95 59.78 M14.95 59.78 C5.42 61.78, -0.08 54.64, 0 44.84 M14.95 59.78 C6.97 61.29, -1.31 54, 0 44.84 M0 44.84 C-1.53 35.17, 1.38 22.15, 0 14.95 M0 44.84 C0.79 34.97, -0.07 24.54, 0 14.95 M0 14.95 C-0.51 6.16, 3.72 -1.6, 14.95 0 M0 14.95 C1.42 2.86, 3.5 -2.23, 14.95 0" stroke="#e03131" stroke-width="2" fill="none"></path></g><g transform="translate(226.31148530387145 245.78162033313015) rotate(0 22.565948486328125 19.4944109528156)"><text x="22.565948486328125" y="0" font-family="Virgil, Segoe UI Emoji" font-size="31.191057524504977px" fill="#e03131" text-anchor="middle" style="white-space: pre;" direction="ltr" dominant-baseline="text-before-edge">s-p</text></g><g stroke-linecap="round" transform="translate(10 516.1777955040106) rotate(0 238.87743379019867 32.57933813781756)"><path d="M4.34 3.77 C4.34 3.77, 4.34 3.77, 4.34 3.77 M4.34 3.77 C4.34 3.77, 4.34 3.77, 4.34 3.77 M2.5 18.07 C6.78 12.51, 11.15 4.23, 17.59 0.72 M2.5 18.07 C8.82 10.93, 13.89 6.58, 17.59 0.72 M2.63 30.12 C11.04 21.34, 21.69 8.73, 28.22 0.68 M2.63 30.12 C11.18 20.56, 19.43 10.84, 28.22 0.68 M2.77 42.16 C14.56 29.12, 28.17 11.03, 38.85 0.65 M2.77 42.16 C14.46 28.81, 25.43 16.25, 38.85 0.65 M0.93 56.46 C12.71 42.2, 23.09 30.22, 49.48 0.61 M0.93 56.46 C18.24 36.5, 34.55 16.8, 49.48 0.61 M6.31 62.46 C27.85 39.79, 47.76 16.86, 59.45 1.33 M6.31 62.46 C19.57 48.06, 30.62 33.27, 59.45 1.33 M13.66 66.2 C25.82 52.6, 40.77 36.04, 70.08 1.3 M13.66 66.2 C36.31 40.25, 58.72 14.88, 70.08 1.3 M24.29 66.17 C37.47 49.34, 52.76 35.29, 80.71 1.26 M24.29 66.17 C45.33 41.37, 65.87 17.87, 80.71 1.26 M34.92 66.13 C49.33 50.36, 64.57 31.31, 91.34 1.23 M34.92 66.13 C46.66 51.67, 58.16 38.31, 91.34 1.23 M45.55 66.1 C65.82 44.08, 83.56 21.55, 101.97 1.19 M45.55 66.1 C65.62 44.11, 83.14 22.55, 101.97 1.19 M56.18 66.07 C73.45 48.2, 90.26 30.6, 112.61 1.16 M56.18 66.07 C78.09 41.79, 100.22 16.79, 112.61 1.16 M66.81 66.03 C87.87 45.52, 104.6 21.17, 123.24 1.13 M66.81 66.03 C78.68 51.17, 91.75 37, 123.24 1.13 M77.44 66 C96.43 44.14, 119.01 18.91, 133.87 1.09 M77.44 66 C88.22 52.35, 101.87 37.32, 133.87 1.09 M88.07 65.96 C101.79 49.7, 117.99 32.78, 144.5 1.06 M88.07 65.96 C102.48 49.15, 117.35 32.72, 144.5 1.06 M98.7 65.93 C116.31 44.25, 134.77 24.64, 155.13 1.02 M98.7 65.93 C110.94 52.55, 122.96 37.48, 155.13 1.02 M109.33 65.89 C127.95 40.82, 150.11 18.84, 165.76 0.99 M109.33 65.89 C127.8 42.65, 147.62 20.93, 165.76 0.99 M119.96 65.86 C129.86 52.16, 143.49 40.68, 176.39 0.95 M119.96 65.86 C140.99 41.87, 162.98 16.56, 176.39 0.95 M130.59 65.82 C150.05 43.71, 169.98 20.53, 187.02 0.92 M130.59 65.82 C148.03 44.97, 166.97 23.79, 187.02 0.92 M141.22 65.79 C159.46 42.88, 181.67 19.68, 197.65 0.88 M141.22 65.79 C159.24 43.72, 177.85 22.75, 197.65 0.88 M151.85 65.75 C170.67 42.97, 186.83 25.44, 208.28 0.85 M151.85 65.75 C169.24 45.95, 187.54 24.8, 208.28 0.85 M161.83 66.47 C182.71 41.27, 204.04 19.66, 218.91 0.82 M161.83 66.47 C173.11 54.02, 185.38 39.12, 218.91 0.82 M172.46 66.44 C191.86 43.04, 214.8 15.87, 229.54 0.78 M172.46 66.44 C194.39 41.15, 214.72 17.06, 229.54 0.78 M183.09 66.41 C202.03 47.98, 221.6 26.8, 240.17 0.75 M183.09 66.41 C201.12 45.23, 220.37 23.67, 240.17 0.75 M193.72 66.37 C211.81 48.46, 227.55 29.74, 250.8 0.71 M193.72 66.37 C208.34 51.14, 222.15 33.41, 250.8 0.71 M204.35 66.34 C220.6 44.98, 238.73 27.69, 260.77 1.43 M204.35 66.34 C222.48 43.34, 243.69 22.43, 260.77 1.43 M214.98 66.3 C237.29 43.31, 255.07 19.84, 271.4 1.4 M214.98 66.3 C227.33 51.83, 239.68 38.34, 271.4 1.4 M225.61 66.27 C245.56 41.3, 266.31 18.11, 282.03 1.36 M225.61 66.27 C242.42 46.17, 260.5 27.42, 282.03 1.36 M236.24 66.23 C249.63 52.43, 259.73 36.14, 292.66 1.33 M236.24 66.23 C257.69 40.31, 279.71 16.24, 292.66 1.33 M246.87 66.2 C264.98 46.23, 284.3 23.58, 303.29 1.29 M246.87 66.2 C268.08 43.4, 287.72 19.84, 303.29 1.29 M257.5 66.16 C281.91 39.69, 300.64 14.46, 313.92 1.26 M257.5 66.16 C275.37 47.48, 292.12 27, 313.92 1.26 M268.13 66.13 C287.47 40.76, 310.3 17.52, 324.55 1.22 M268.13 66.13 C285.6 46.96, 301.89 27.87, 324.55 1.22 M278.76 66.1 C296.05 46.72, 317.12 22.65, 335.18 1.19 M278.76 66.1 C295.74 46.2, 311.28 28.08, 335.18 1.19 M289.39 66.06 C303.74 48.07, 317.37 33.41, 345.81 1.16 M289.39 66.06 C309.66 42.99, 329.17 20.42, 345.81 1.16 M300.02 66.03 C313.54 52.84, 326.26 37.48, 356.44 1.12 M300.02 66.03 C315.5 49.12, 332.41 30.93, 356.44 1.12 M310.65 65.99 C326.9 49.81, 341.19 30.57, 367.07 1.09 M310.65 65.99 C324.99 49.95, 338.95 34.67, 367.07 1.09 M321.28 65.96 C340.24 44.82, 360.37 19.8, 377.7 1.05 M321.28 65.96 C334.75 51.28, 347.93 35.15, 377.7 1.05 M331.91 65.92 C353.43 41.78, 370.22 20.4, 388.33 1.02 M331.91 65.92 C351.65 43.27, 370.31 20.34, 388.33 1.02 M342.54 65.89 C358.7 46.62, 379.71 25.75, 398.96 0.98 M342.54 65.89 C360.16 44.85, 378.21 26.72, 398.96 0.98 M352.51 66.61 C367.92 49.16, 387.5 29.75, 409.59 0.95 M352.51 66.61 C367.21 49.94, 381.85 33.41, 409.59 0.95 M363.14 66.57 C377.69 49.41, 388.3 37.13, 420.22 0.91 M363.14 66.57 C378.06 49.41, 392.67 32.53, 420.22 0.91 M373.77 66.54 C391.6 42.28, 414.76 21.23, 430.85 0.88 M373.77 66.54 C387.42 49.65, 404.28 30.69, 430.85 0.88 M384.4 66.51 C406.89 42.65, 427.1 16.65, 441.48 0.85 M384.4 66.51 C399.41 51.37, 413.49 35.2, 441.48 0.85 M395.03 66.47 C411.18 46.55, 427.17 28.55, 451.46 1.57 M395.03 66.47 C410.96 47.05, 427.91 26.58, 451.46 1.57 M405.66 66.44 C418.31 50.62, 433.04 34.44, 462.09 1.53 M405.66 66.44 C421.66 48.86, 436.24 31.36, 462.09 1.53 M416.29 66.4 C431.13 47.85, 448.63 31.35, 472.06 2.25 M416.29 66.4 C439.29 42.66, 460.56 17.67, 472.06 2.25 M426.93 66.37 C445.97 45.29, 464.95 20.43, 476.79 9.01 M426.93 66.37 C441.88 49.07, 456.51 32.83, 476.79 9.01 M437.56 66.33 C446.38 55.02, 457.97 42.57, 482.82 14.26 M437.56 66.33 C452.18 48.33, 468.68 31.73, 482.82 14.26 M448.19 66.3 C459.5 52.22, 469.82 41.26, 482.96 26.3 M448.19 66.3 C460.66 53.07, 471.09 39.23, 482.96 26.3 M458.82 66.26 C463.93 58.01, 470.82 53.43, 483.09 38.34 M458.82 66.26 C465.78 58.3, 473.03 49.68, 483.09 38.34" stroke="#ffc9c9" stroke-width="1" fill="none"></path><path d="M16.29 0 C191.38 -1.35, 366.53 -0.61, 461.47 0 M16.29 0 C109.39 1.57, 203.06 0.83, 461.47 0 M461.47 0 C471.79 -0.12, 477.91 6.45, 477.75 16.29 M461.47 0 C472.34 -2.04, 478.47 6.94, 477.75 16.29 M477.75 16.29 C477.87 21.55, 477.32 29.07, 477.75 48.87 M477.75 16.29 C477.46 27.58, 477.83 38.85, 477.75 48.87 M477.75 48.87 C478.13 58.79, 471.54 63.48, 461.47 65.16 M477.75 48.87 C479.6 58.51, 474.22 63.63, 461.47 65.16 M461.47 65.16 C352.3 64.65, 241.73 65.69, 16.29 65.16 M461.47 65.16 C354.68 66.71, 248.6 66.8, 16.29 65.16 M16.29 65.16 C6.26 66.17, -1.33 58.45, 0 48.87 M16.29 65.16 C7 63.23, 2.01 57.78, 0 48.87 M0 48.87 C-0.16 41.05, 0.37 32.57, 0 16.29 M0 48.87 C0.16 38.22, -1.13 29.76, 0 16.29 M0 16.29 C-1.64 6.25, 6.04 -0.52, 16.29 0 M0 16.29 C0.01 3.95, 5.79 0.64, 16.29 0" stroke="#e03131" stroke-width="2" fill="none"></path></g><g transform="translate(226.95087434195648 529.2627226890125) rotate(0 21.926559448242188 19.4944109528156)"><text x="21.926559448242188" y="0" font-family="Virgil, Segoe UI Emoji" font-size="31.191057524504977px" fill="#e03131" text-anchor="middle" style="white-space: pre;" direction="ltr" dominant-baseline="text-before-edge">c-p</text></g><g stroke-linecap="round" transform="translate(46.29417558511432 590.9192448280346) rotate(0 202.5832582050857 32.8613841469778)"><path d="M4.37 3.8 C4.37 3.8, 4.37 3.8, 4.37 3.8 M4.37 3.8 C4.37 3.8, 4.37 3.8, 4.37 3.8 M2.54 18.11 C8.45 11.9, 14.02 9.19, 17.63 0.75 M2.54 18.11 C6.17 14.17, 7.69 10.34, 17.63 0.75 M2.67 30.15 C12.99 16.86, 22.01 7.52, 28.26 0.71 M2.67 30.15 C9.76 21.86, 16.57 14.33, 28.26 0.71 M2.8 42.19 C17.2 25.41, 29.02 10.5, 38.89 0.68 M2.8 42.19 C10.84 32.48, 19.05 22.64, 38.89 0.68 M2.94 54.23 C16.18 41.59, 24.78 27.67, 49.52 0.65 M2.94 54.23 C16.01 40.95, 27.14 27.87, 49.52 0.65 M7.01 61.74 C22.7 41.58, 42.1 23.31, 60.15 0.61 M7.01 61.74 C22.05 43.3, 38.26 25.66, 60.15 0.61 M13.7 66.24 C34.95 44.71, 52.63 22.38, 70.78 0.58 M13.7 66.24 C28.06 48.7, 43.36 30.56, 70.78 0.58 M24.33 66.2 C39.82 50.03, 53.95 34.23, 80.75 1.3 M24.33 66.2 C36.25 52.51, 48.21 37.24, 80.75 1.3 M34.96 66.17 C55.76 41.71, 79.99 15.73, 91.38 1.26 M34.96 66.17 C47.55 52.75, 59.42 38.88, 91.38 1.26 M45.59 66.13 C66.58 41.19, 87.32 21.46, 102.01 1.23 M45.59 66.13 C64.08 45.57, 81.3 24.9, 102.01 1.23 M56.22 66.1 C75.58 44.29, 90.17 23.97, 112.64 1.19 M56.22 66.1 C73.83 45.83, 90.02 26.52, 112.64 1.19 M66.85 66.06 C86.61 41.83, 109.49 16.78, 123.27 1.16 M66.85 66.06 C81.49 50.97, 94.5 33.47, 123.27 1.16 M77.48 66.03 C97.29 42.83, 121.89 14.25, 133.9 1.12 M77.48 66.03 C98.12 41.33, 120.95 16.45, 133.9 1.12 M87.46 66.75 C105.41 44.16, 126.87 22.05, 144.53 1.09 M87.46 66.75 C105.96 45.71, 123.21 23.94, 144.53 1.09 M98.09 66.71 C110.45 50.66, 127.11 35.11, 155.16 1.05 M98.09 66.71 C118.77 44.52, 138.09 19.56, 155.16 1.05 M108.72 66.68 C122.98 52.6, 136.77 35.32, 165.79 1.02 M108.72 66.68 C119.81 53.51, 133.21 38.02, 165.79 1.02 M119.35 66.65 C137.07 46.47, 153.19 27.4, 176.42 0.99 M119.35 66.65 C141.33 41.9, 162.06 16.77, 176.42 0.99 M129.98 66.61 C148.5 46.11, 164.68 23.78, 187.05 0.95 M129.98 66.61 C145.39 50.78, 158.82 31.91, 187.05 0.95 M140.61 66.58 C159.09 47.69, 177.99 25.08, 197.68 0.92 M140.61 66.58 C158.05 46.51, 174.84 27.32, 197.68 0.92 M151.24 66.54 C163.83 52.86, 175.41 38.62, 208.31 0.88 M151.24 66.54 C171.41 44.64, 189.82 21.24, 208.31 0.88 M161.87 66.51 C173.35 49.82, 187.71 33.74, 218.94 0.85 M161.87 66.51 C183.79 43.49, 204.47 17.55, 218.94 0.85 M172.5 66.47 C196.81 42.15, 216.24 16.26, 229.57 0.81 M172.5 66.47 C185.79 51.07, 197.56 37.35, 229.57 0.81 M183.13 66.44 C205.61 41.22, 228.26 13.48, 240.2 0.78 M183.13 66.44 C203.16 42.62, 223.22 20.25, 240.2 0.78 M193.76 66.4 C211.41 44.91, 230.63 23.58, 250.83 0.74 M193.76 66.4 C216.18 41.42, 238.9 14.67, 250.83 0.74 M204.39 66.37 C218.99 51.62, 231.52 32.68, 261.46 0.71 M204.39 66.37 C217.55 49.9, 230.48 36.31, 261.46 0.71 M215.02 66.34 C233.27 41.53, 255.99 21.2, 271.44 1.43 M215.02 66.34 C227.56 52.58, 239.17 37.83, 271.44 1.43 M225.65 66.3 C239.63 51.21, 253.31 34.63, 282.07 1.4 M225.65 66.3 C239.63 48.8, 256.77 31.57, 282.07 1.4 M236.28 66.27 C256.56 45.21, 273.24 23.2, 292.7 1.36 M236.28 66.27 C249.78 50.88, 261.6 35.92, 292.7 1.36 M246.91 66.23 C270.27 39.73, 289.87 16.41, 303.33 1.33 M246.91 66.23 C269.01 41.33, 288.18 19.1, 303.33 1.33 M257.54 66.2 C270.94 49.95, 284.96 37.77, 313.96 1.29 M257.54 66.2 C280.05 41.82, 301.8 14.86, 313.96 1.29 M268.17 66.16 C283.45 47.54, 300.25 31.99, 324.59 1.26 M268.17 66.16 C285.73 46.77, 302.16 25.18, 324.59 1.26 M278.14 66.88 C299.16 42.76, 323.04 18.78, 335.22 1.22 M278.14 66.88 C292 50.43, 305.77 33.85, 335.22 1.22 M288.77 66.85 C303.57 53.13, 315.14 37.56, 345.85 1.19 M288.77 66.85 C305.93 45.34, 324.11 25.64, 345.85 1.19 M299.4 66.81 C320.14 42.35, 340.4 17.22, 356.48 1.15 M299.4 66.81 C321.33 41.05, 343.37 14.68, 356.48 1.15 M310.03 66.78 C331.48 40.08, 354.05 15.69, 367.11 1.12 M310.03 66.78 C325.96 47.86, 341.02 30.11, 367.11 1.12 M320.66 66.74 C340.16 43.56, 361.08 19.5, 377.74 1.09 M320.66 66.74 C343.48 40.83, 364.1 16.9, 377.74 1.09 M331.29 66.71 C344.62 55.06, 357.53 41.31, 388.37 1.05 M331.29 66.71 C349.46 46.13, 368.1 24.37, 388.37 1.05 M341.92 66.68 C361.83 41.75, 383.78 19.59, 396.37 4.03 M341.92 66.68 C353.35 52.36, 364.7 37.84, 396.37 4.03 M352.55 66.64 C369.71 43.3, 389.82 23.39, 404.38 7.02 M352.55 66.64 C365.7 49.99, 380.39 34.83, 404.38 7.02 M363.18 66.61 C372.31 55.51, 383.04 45.13, 409.11 13.78 M363.18 66.61 C376.35 52.88, 388.57 36.46, 409.11 13.78 M373.81 66.57 C381.07 58.16, 391.07 45.38, 409.24 25.82 M373.81 66.57 C387.23 51.48, 399.73 37.43, 409.24 25.82 M384.44 66.54 C391.17 56.69, 400.04 50.09, 409.37 37.86 M384.44 66.54 C393.54 55.57, 403 44.51, 409.37 37.86 M396.38 64.99 C398.77 63.44, 401.77 58.64, 406.23 53.67 M396.38 64.99 C399.56 60.83, 403.81 56.45, 406.23 53.67" stroke="#b2f2bb" stroke-width="1" fill="none"></path><path d="M16.43 0 C90.35 -0.34, 165.77 0.3, 388.74 0 M16.43 0 C150.54 2.04, 285.02 2.39, 388.74 0 M388.74 0 C399.7 -1.78, 405.79 6.79, 405.17 16.43 M388.74 0 C397.89 -1.59, 405.71 5.87, 405.17 16.43 M405.17 16.43 C405.89 21.31, 403.94 29.66, 405.17 49.29 M405.17 16.43 C405.47 26.74, 404.89 37.14, 405.17 49.29 M405.17 49.29 C406.77 59.19, 401.34 64.4, 388.74 65.72 M405.17 49.29 C403.92 60.5, 399.81 66.37, 388.74 65.72 M388.74 65.72 C299.82 67.06, 213.49 65.59, 16.43 65.72 M388.74 65.72 C306.39 64.66, 223.13 63.96, 16.43 65.72 M16.43 65.72 C6.84 64.05, 1.75 58.55, 0 49.29 M16.43 65.72 C3.96 64.03, 0.83 59.79, 0 49.29 M0 49.29 C0.03 41.67, 1.95 31.14, 0 16.43 M0 49.29 C-0.55 42.43, 0.57 34.49, 0 16.43 M0 16.43 C0.01 4.19, 5.79 0.55, 16.43 0 M0 16.43 C2.15 4.19, 4.64 0.8, 16.43 0" stroke="#2f9e44" stroke-width="2" fill="none"></path></g><g transform="translate(241.04874421500426 604.2862180221967) rotate(0 7.8286895751953125 19.4944109528156)"><text x="7.8286895751953125" y="0" font-family="Virgil, Segoe UI Emoji" font-size="31.191057524504977px" fill="#2f9e44" text-anchor="middle" style="white-space: pre;" direction="ltr" dominant-baseline="text-before-edge">c</text></g><g stroke-linecap="round" transform="translate(92.00026226678256 669.2363882132827) rotate(0 156.8771715234161 32.57933813781756)"><path d="M4.34 3.77 C4.34 3.77, 4.34 3.77, 4.34 3.77 M4.34 3.77 C4.34 3.77, 4.34 3.77, 4.34 3.77 M2.5 18.07 C4.33 15.02, 11.64 10.35, 17.59 0.72 M2.5 18.07 C7.69 13.48, 10.92 8.84, 17.59 0.72 M2.63 30.12 C7.43 24.65, 11.98 18.54, 28.22 0.68 M2.63 30.12 C9 23.61, 12.92 17.39, 28.22 0.68 M2.77 42.16 C11.01 31.16, 21.13 19.99, 38.85 0.65 M2.77 42.16 C13.5 28.86, 25.22 17.73, 38.85 0.65 M0.93 56.46 C17.39 35.32, 34.75 19.19, 49.48 0.61 M0.93 56.46 C16.88 38.65, 32.73 19.25, 49.48 0.61 M6.31 62.46 C22.28 42.59, 37.35 23.01, 59.45 1.33 M6.31 62.46 C18.29 50.19, 28.73 37.41, 59.45 1.33 M13.66 66.2 C32.44 44.99, 52.41 20.29, 70.08 1.3 M13.66 66.2 C30.97 46.58, 49.46 27, 70.08 1.3 M24.29 66.17 C41.03 45.47, 60.11 22.4, 80.71 1.26 M24.29 66.17 C44.67 43.9, 63.13 21.92, 80.71 1.26 M34.92 66.13 C53.57 42.63, 74.35 19.97, 91.34 1.23 M34.92 66.13 C53.07 44.68, 71.05 25.37, 91.34 1.23 M45.55 66.1 C57.18 50.69, 69.27 38.53, 101.97 1.19 M45.55 66.1 C65.86 44.18, 85.95 21.83, 101.97 1.19 M56.18 66.07 C72.84 48.95, 88.51 30.53, 112.61 1.16 M56.18 66.07 C73.87 46.13, 89.32 27.08, 112.61 1.16 M66.81 66.03 C81.84 47.92, 98.16 30.52, 123.24 1.13 M66.81 66.03 C89.33 42.09, 110.01 16.22, 123.24 1.13 M77.44 66 C100.78 42.06, 121.06 14.65, 133.87 1.09 M77.44 66 C93.52 48.03, 109.61 28.22, 133.87 1.09 M88.07 65.96 C103.9 48.28, 120.14 30.17, 144.5 1.06 M88.07 65.96 C107.11 44.05, 126.86 21.5, 144.5 1.06 M98.7 65.93 C117 46.63, 131.71 26.94, 155.13 1.02 M98.7 65.93 C119.29 42.03, 141.3 18.42, 155.13 1.02 M109.33 65.89 C128.29 42.66, 149.98 15.73, 165.76 0.99 M109.33 65.89 C129.97 42.64, 151.76 19.05, 165.76 0.99 M119.96 65.86 C135.83 49.77, 148.76 33.37, 176.39 0.95 M119.96 65.86 C138.03 45.65, 155.4 25.6, 176.39 0.95 M130.59 65.82 C147.98 46.15, 165.09 26.75, 187.02 0.92 M130.59 65.82 C153.24 40.99, 175.43 16.03, 187.02 0.92 M140.57 66.54 C162.24 40.44, 185.69 15.85, 197.65 0.88 M140.57 66.54 C155.95 46.89, 173.94 29.04, 197.65 0.88 M151.2 66.51 C170.37 46.72, 186.85 26.06, 208.28 0.85 M151.2 66.51 C171.98 42.53, 194.29 17.31, 208.28 0.85 M161.83 66.47 C178.55 49.48, 190.61 33.97, 218.91 0.82 M161.83 66.47 C184.08 41.83, 204.59 18.13, 218.91 0.82 M172.46 66.44 C192.75 40.22, 215.81 17.22, 229.54 0.78 M172.46 66.44 C186.97 52.28, 199.81 36.6, 229.54 0.78 M183.09 66.41 C204.18 43.75, 224.35 19.85, 239.51 1.5 M183.09 66.41 C199.7 48.02, 215.77 28.53, 239.51 1.5 M193.72 66.37 C214.41 44.93, 230.32 23.47, 250.14 1.47 M193.72 66.37 C213.16 43.28, 234.77 20.38, 250.14 1.47 M204.35 66.34 C224.08 44.42, 248.07 19.7, 260.77 1.43 M204.35 66.34 C216.1 51.86, 227.79 38.44, 260.77 1.43 M214.98 66.3 C224.45 54.85, 235.58 41.22, 271.4 1.4 M214.98 66.3 C231.56 46.5, 248.96 27.33, 271.4 1.4 M225.61 66.27 C243.17 46.8, 263.4 22.79, 282.03 1.36 M225.61 66.27 C245.01 42.96, 263.53 21.2, 282.03 1.36 M236.24 66.23 C250.66 47.37, 268.81 30.8, 292.66 1.33 M236.24 66.23 C252.05 49.29, 266.29 33.72, 292.66 1.33 M246.87 66.2 C261.74 49.31, 275.29 37.37, 302.63 2.05 M246.87 66.2 C259.75 49.77, 273.02 35.31, 302.63 2.05 M257.5 66.16 C270.54 53.63, 279.74 40.92, 310.64 5.03 M257.5 66.16 C277.44 42.98, 298.6 19.32, 310.64 5.03 M268.13 66.13 C280.75 52.35, 293.17 37.17, 315.37 11.79 M268.13 66.13 C287.78 45.98, 304.86 23.98, 315.37 11.79 M278.76 66.1 C289.44 51.8, 302.97 37.18, 315.5 23.83 M278.76 66.1 C289.45 52.65, 301.68 41.34, 315.5 23.83 M289.39 66.06 C299.65 54.08, 311.07 41.49, 315.63 35.87 M289.39 66.06 C296.49 58.86, 302.5 51.35, 315.63 35.87 M299.36 66.78 C306.64 62.3, 311.95 54.46, 316.42 47.16 M299.36 66.78 C306.84 58.85, 312.86 51.35, 316.42 47.16" stroke="#b2f2bb" stroke-width="1" fill="none"></path><path d="M16.29 0 C81.79 1.6, 144.05 -0.02, 297.46 0 M16.29 0 C98.98 -1.78, 181.89 -0.6, 297.46 0 M297.46 0 C306.76 -1.38, 314.23 5.77, 313.75 16.29 M297.46 0 C306.06 -0.24, 311.84 6.31, 313.75 16.29 M313.75 16.29 C314.12 23.95, 314.62 30.53, 313.75 48.87 M313.75 16.29 C314.43 24, 314.45 32.11, 313.75 48.87 M313.75 48.87 C312.67 59.95, 308.43 65.72, 297.46 65.16 M313.75 48.87 C312.3 57.73, 309.28 63.75, 297.46 65.16 M297.46 65.16 C203.11 62.72, 110.22 63.89, 16.29 65.16 M297.46 65.16 C199.36 63.15, 100.88 63.14, 16.29 65.16 M16.29 65.16 C4.11 63.69, 0.72 59.33, 0 48.87 M16.29 65.16 C5.21 65.31, -1.2 59.79, 0 48.87 M0 48.87 C-1.9 34.32, 0.92 21.4, 0 16.29 M0 48.87 C-0.1 37.11, 0.06 26.91, 0 16.29 M0 16.29 C1.87 4.31, 4.71 0.7, 16.29 0 M0 16.29 C1.24 7.13, 4.8 -1.76, 16.29 0" stroke="#2f9e44" stroke-width="2" fill="none"></path></g><g transform="translate(240.40935517691742 682.3213153982846) rotate(0 8.46807861328125 19.4944109528156)"><text x="8.46807861328125" y="0" font-family="Virgil, Segoe UI Emoji" font-size="31.191057524504977px" fill="#2f9e44" text-anchor="middle" style="white-space: pre;" direction="ltr" dominant-baseline="text-before-edge">s</text></g><g stroke-linecap="round" transform="translate(778.7533719441399 82.59801070655158) rotate(0 202.5832582050857 32.8613841469778)"><path d="M4.37 3.8 C4.37 3.8, 4.37 3.8, 4.37 3.8 M4.37 3.8 C4.37 3.8, 4.37 3.8, 4.37 3.8 M2.54 18.11 C5.14 13.32, 12.6 8.55, 17.63 0.75 M2.54 18.11 C8.2 12.13, 12.39 6.25, 17.63 0.75 M2.67 30.15 C8.47 22.42, 16.94 15.39, 28.26 0.71 M2.67 30.15 C10.93 19.13, 20.36 10.1, 28.26 0.71 M2.8 42.19 C17.67 24.23, 28.37 10.3, 38.89 0.68 M2.8 42.19 C11.78 31.88, 21.3 21.84, 38.89 0.68 M2.94 54.23 C17.16 36.11, 31.7 20.14, 49.52 0.65 M2.94 54.23 C14.85 39.05, 27.91 25.63, 49.52 0.65 M7.01 61.74 C26.32 41.68, 45.38 19.54, 60.15 0.61 M7.01 61.74 C19.36 48.35, 32.87 32.38, 60.15 0.61 M13.7 66.24 C34.44 38.82, 60.37 15.43, 70.78 0.58 M13.7 66.24 C33.78 42.55, 56.18 17.45, 70.78 0.58 M24.33 66.2 C45.55 39.21, 67.38 14.92, 80.75 1.3 M24.33 66.2 C37.55 51.14, 50.07 36.01, 80.75 1.3 M34.96 66.17 C53.28 45.67, 67.2 29.81, 91.38 1.26 M34.96 66.17 C48.33 51.41, 60.74 36.03, 91.38 1.26 M45.59 66.13 C65.17 43.92, 84.78 17.93, 102.01 1.23 M45.59 66.13 C56.94 52.72, 69.58 39.47, 102.01 1.23 M56.22 66.1 C73.27 46.78, 86.5 30.6, 112.64 1.19 M56.22 66.1 C74.61 45.43, 93.32 23.72, 112.64 1.19 M66.85 66.06 C79.21 54.52, 89.08 37.06, 123.27 1.16 M66.85 66.06 C81.05 49.57, 95.49 32.52, 123.27 1.16 M77.48 66.03 C90.9 54.25, 99.83 40.94, 133.9 1.12 M77.48 66.03 C93.24 48.31, 109.45 29.17, 133.9 1.12 M87.46 66.75 C106.38 42.56, 127.71 18.21, 144.53 1.09 M87.46 66.75 C102.17 48.62, 117.68 32, 144.53 1.09 M98.09 66.71 C117.33 43.59, 141.33 21.54, 155.16 1.05 M98.09 66.71 C119.78 41.65, 141.7 15.15, 155.16 1.05 M108.72 66.68 C125.5 48.51, 143 29.82, 165.79 1.02 M108.72 66.68 C123.96 50.16, 137.46 33.26, 165.79 1.02 M119.35 66.65 C132.97 53.39, 145.57 40.13, 176.42 0.99 M119.35 66.65 C134.42 49.93, 148.72 31.47, 176.42 0.99 M129.98 66.61 C147.31 44.79, 164.86 24.73, 187.05 0.95 M129.98 66.61 C152.79 42.08, 173.71 16.48, 187.05 0.95 M140.61 66.58 C156.62 45.84, 177.79 22.58, 197.68 0.92 M140.61 66.58 C152.89 51.93, 167.24 35.93, 197.68 0.92 M151.24 66.54 C164.1 47.46, 182.34 30.8, 208.31 0.88 M151.24 66.54 C162.48 52.36, 173.64 39.09, 208.31 0.88 M161.87 66.51 C181.86 43.62, 205.32 19.07, 218.94 0.85 M161.87 66.51 C180.63 45.45, 198.22 24.97, 218.94 0.85 M172.5 66.47 C184.81 54.53, 198.25 38.07, 229.57 0.81 M172.5 66.47 C185.3 52.68, 198.9 37.52, 229.57 0.81 M183.13 66.44 C203.28 44.24, 222.77 22.09, 240.2 0.78 M183.13 66.44 C197.59 48.9, 212.09 31.59, 240.2 0.78 M193.76 66.4 C212.39 45.46, 225.42 29.87, 250.83 0.74 M193.76 66.4 C209.96 46.22, 226.56 28.65, 250.83 0.74 M204.39 66.37 C226.8 41.77, 248.6 14.7, 261.46 0.71 M204.39 66.37 C222.56 45.41, 240.47 24.42, 261.46 0.71 M215.02 66.34 C234.61 46.45, 252.06 24.09, 271.44 1.43 M215.02 66.34 C227.59 51.96, 238.95 38.35, 271.44 1.43 M225.65 66.3 C242.23 47.03, 257.01 27.77, 282.07 1.4 M225.65 66.3 C238.05 52.02, 252.1 37.22, 282.07 1.4 M236.28 66.27 C257.3 40.44, 280.54 13.41, 292.7 1.36 M236.28 66.27 C257.28 44.36, 276.14 21.68, 292.7 1.36 M246.91 66.23 C261.41 52.4, 272.77 33.95, 303.33 1.33 M246.91 66.23 C261.83 49.16, 277.71 31.6, 303.33 1.33 M257.54 66.2 C272.17 51.09, 285.47 35.28, 313.96 1.29 M257.54 66.2 C271.04 49.31, 286.36 32.81, 313.96 1.29 M268.17 66.16 C284.33 48.21, 299.51 30.35, 324.59 1.26 M268.17 66.16 C291.12 41.53, 312.05 15.84, 324.59 1.26 M278.14 66.88 C293.22 48.31, 310 29.93, 335.22 1.22 M278.14 66.88 C300.36 41.16, 323.43 14.4, 335.22 1.22 M288.77 66.85 C302.02 52.83, 314.18 37.75, 345.85 1.19 M288.77 66.85 C304.9 48.91, 320.83 30.12, 345.85 1.19 M299.4 66.81 C323.16 40.14, 345.21 16.58, 356.48 1.15 M299.4 66.81 C312.83 52.49, 324.96 36.24, 356.48 1.15 M310.03 66.78 C329.89 47.16, 347.13 22.59, 367.11 1.12 M310.03 66.78 C329.44 44.02, 348.15 22.97, 367.11 1.12 M320.66 66.74 C336.46 47.53, 354.95 27.95, 377.74 1.09 M320.66 66.74 C340.23 45.47, 358.9 21.99, 377.74 1.09 M331.29 66.71 C347.68 50.19, 360.45 31.25, 388.37 1.05 M331.29 66.71 C344.3 51.84, 358.05 37.86, 388.37 1.05 M341.92 66.68 C355.32 48, 370.44 33.31, 396.37 4.03 M341.92 66.68 C358.36 47.39, 374.13 28.18, 396.37 4.03 M352.55 66.64 C371.05 48.58, 387.44 29.13, 404.38 7.02 M352.55 66.64 C371.15 45.44, 390.63 23.16, 404.38 7.02 M363.18 66.61 C378.4 48.33, 395.06 33.24, 409.11 13.78 M363.18 66.61 C374.49 55.07, 383.24 44.13, 409.11 13.78 M373.81 66.57 C388.47 51.32, 399 35.01, 409.24 25.82 M373.81 66.57 C383.08 55.92, 391.67 43.89, 409.24 25.82 M384.44 66.54 C392.5 59.9, 397.16 50.18, 409.37 37.86 M384.44 66.54 C394.06 56.11, 403.98 44.31, 409.37 37.86 M396.38 64.99 C400.78 60.23, 402.4 56.02, 406.23 53.67 M396.38 64.99 C399.91 61.86, 403.24 58.18, 406.23 53.67" stroke="#b2f2bb" stroke-width="1" fill="none"></path><path d="M16.43 0 C133.66 -0.8, 249.72 1.23, 388.74 0 M16.43 0 C103.82 -1.36, 191.5 -2.16, 388.74 0 M388.74 0 C401.31 1.83, 407.07 4.58, 405.17 16.43 M388.74 0 C400.57 -0.52, 405.95 7.12, 405.17 16.43 M405.17 16.43 C404.46 30.57, 403.81 43.73, 405.17 49.29 M405.17 16.43 C405.26 24.03, 405.29 31.75, 405.17 49.29 M405.17 49.29 C405.11 59.12, 397.74 66.94, 388.74 65.72 M405.17 49.29 C407.28 59.2, 398.84 66.58, 388.74 65.72 M388.74 65.72 C267.69 67.25, 146.08 67.32, 16.43 65.72 M388.74 65.72 C246.21 66.07, 102.71 66.24, 16.43 65.72 M16.43 65.72 C4.13 65.48, -1.05 60.84, 0 49.29 M16.43 65.72 C6.91 67.16, -0.94 58.81, 0 49.29 M0 49.29 C-0.56 40.36, -1.84 30.39, 0 16.43 M0 49.29 C-0.61 38.04, 0.84 25.84, 0 16.43 M0 16.43 C0.87 4.99, 7.16 0.01, 16.43 0 M0 16.43 C-2.14 7.13, 5.17 -1.76, 16.43 0" stroke="#2f9e44" stroke-width="2" fill="none"></path></g><g transform="translate(973.5079405740298 95.96498390071378) rotate(0 7.8286895751953125 19.4944109528156)"><text x="7.8286895751953125" y="0" font-family="Virgil, Segoe UI Emoji" font-size="31.191057524504977px" fill="#2f9e44" text-anchor="middle" style="white-space: pre;" direction="ltr" dominant-baseline="text-before-edge">c</text></g><g stroke-linecap="round" transform="translate(824.459458625809 160.91515409179988) rotate(0 156.8771715234161 32.57933813781756)"><path d="M4.34 3.77 C4.34 3.77, 4.34 3.77, 4.34 3.77 M4.34 3.77 C4.34 3.77, 4.34 3.77, 4.34 3.77 M-0.12 21.09 C5.93 13.43, 9.29 9.24, 18.25 -0.04 M-0.12 21.09 C4.23 15.38, 9.39 9.86, 18.25 -0.04 M0.67 32.38 C9.68 24.42, 18.21 12.67, 28.22 0.68 M0.67 32.38 C7.64 25.15, 13.94 18.44, 28.22 0.68 M0.8 44.42 C8.09 34.38, 15.88 25.48, 38.85 0.65 M0.8 44.42 C13.46 29.01, 24.72 15.17, 38.85 0.65 M0.93 56.46 C11.89 45.76, 22.33 30.17, 49.48 0.61 M0.93 56.46 C13.53 42.49, 25.83 29.06, 49.48 0.61 M6.31 62.46 C25.79 36.81, 47.52 12.61, 60.11 0.58 M6.31 62.46 C27.24 39.76, 45.9 15.31, 60.11 0.58 M14.32 65.45 C26.73 52.59, 37.69 36.91, 70.74 0.54 M14.32 65.45 C36.85 40.05, 59.03 14.73, 70.74 0.54 M24.95 65.41 C34.89 51.31, 49.81 39.43, 81.37 0.51 M24.95 65.41 C42.8 45.34, 60.82 25.63, 81.37 0.51 M35.58 65.38 C47.52 49.55, 62.33 35.07, 92 0.47 M35.58 65.38 C56.35 42.74, 76.37 19.48, 92 0.47 M46.21 65.34 C66.32 40.64, 91.35 15.32, 102.63 0.44 M46.21 65.34 C64.81 43.35, 84.77 21.52, 102.63 0.44 M56.84 65.31 C73.24 45.55, 87.61 27.97, 113.26 0.41 M56.84 65.31 C77.52 41.05, 98.46 16.89, 113.26 0.41 M67.47 65.28 C89.06 41.11, 109.8 15.1, 123.89 0.37 M67.47 65.28 C81.67 47.6, 97.18 31.87, 123.89 0.37 M78.1 65.24 C98.39 40.79, 117.39 16.89, 134.52 0.34 M78.1 65.24 C99.75 42.46, 119.13 17.42, 134.52 0.34 M88.73 65.21 C105.58 46.91, 121.14 25.55, 145.15 0.3 M88.73 65.21 C101.46 50.4, 111.99 36.71, 145.15 0.3 M99.36 65.17 C116.79 47.84, 132.75 27.62, 155.78 0.27 M99.36 65.17 C120.44 40.14, 141.62 16.56, 155.78 0.27 M109.99 65.14 C126.11 43.39, 146.67 26.01, 166.41 0.23 M109.99 65.14 C126.21 45.38, 144.07 26.38, 166.41 0.23 M119.96 65.86 C137.88 45.25, 155.95 22.32, 177.04 0.2 M119.96 65.86 C139.87 44.57, 158.74 21.5, 177.04 0.2 M130.59 65.82 C146.47 50.16, 158.86 35.74, 187.67 0.16 M130.59 65.82 C152.92 40.85, 175.51 14.06, 187.67 0.16 M141.22 65.79 C157.86 44.55, 177.93 22.02, 198.3 0.13 M141.22 65.79 C158.98 45.56, 178.67 22.83, 198.3 0.13 M151.85 65.75 C161.75 53.05, 177.88 37.25, 208.93 0.09 M151.85 65.75 C169.79 47.11, 185.73 26.88, 208.93 0.09 M162.48 65.72 C182.88 40.92, 202.13 18.52, 218.91 0.82 M162.48 65.72 C177.17 48.27, 193.04 30.69, 218.91 0.82 M173.11 65.69 C192.76 40.6, 213.92 15.12, 229.54 0.78 M173.11 65.69 C195 41.27, 216.02 16.46, 229.54 0.78 M183.75 65.65 C200.79 46.38, 219.92 24.08, 240.17 0.75 M183.75 65.65 C198.95 47.79, 214.37 31.91, 240.17 0.75 M194.38 65.62 C206.44 53.17, 220.04 38.89, 250.8 0.71 M194.38 65.62 C206.37 52.52, 217.26 39.23, 250.8 0.71 M205.01 65.58 C223.68 44.72, 240.38 23.14, 261.43 0.68 M205.01 65.58 C220.82 47.29, 235 30.9, 261.43 0.68 M215.64 65.55 C235.2 40.81, 258.01 18.21, 272.06 0.64 M215.64 65.55 C228.97 50.32, 242.77 35.09, 272.06 0.64 M226.27 65.51 C241.75 46.73, 260.8 27.01, 282.69 0.61 M226.27 65.51 C248.19 39.69, 267.83 14.8, 282.69 0.61 M236.9 65.48 C253.53 46.94, 266.47 32.23, 293.32 0.57 M236.9 65.48 C256.24 42.57, 275.57 20.07, 293.32 0.57 M247.53 65.44 C268.57 40.21, 291.61 15.93, 303.29 1.29 M247.53 65.44 C267.53 41.07, 287.76 17.9, 303.29 1.29 M258.16 65.41 C274.3 47.56, 293.3 25.36, 309.98 5.79 M258.16 65.41 C274.82 46.01, 291.63 26.28, 309.98 5.79 M268.79 65.38 C285.4 47.44, 298.66 33.06, 313.4 14.06 M268.79 65.38 C284.7 46.9, 300.46 27.96, 313.4 14.06 M279.42 65.34 C290.37 55.79, 298.9 44.42, 313.53 26.1 M279.42 65.34 C290.67 52.1, 303.77 37.8, 313.53 26.1 M290.05 65.31 C297.91 55.09, 304.3 45.47, 313.66 38.14 M290.05 65.31 C299.13 56.27, 306.25 47.81, 313.66 38.14 M301.33 64.52 C302.92 62.35, 306.51 59.11, 313.8 50.18 M301.33 64.52 C305.92 59.2, 309.01 54.99, 313.8 50.18" stroke="#b2f2bb" stroke-width="1" fill="none"></path><path d="M16.29 0 C75.24 -0.58, 137.37 -2.28, 297.46 0 M16.29 0 C121.85 1.91, 226.9 0.86, 297.46 0 M297.46 0 C309.09 -0.45, 314.44 6.86, 313.75 16.29 M297.46 0 C310.45 -0.35, 313.55 4.68, 313.75 16.29 M313.75 16.29 C312.25 28.53, 311.86 39.92, 313.75 48.87 M313.75 16.29 C313.74 25.03, 312.8 35.5, 313.75 48.87 M313.75 48.87 C315.6 58.82, 307.59 65.9, 297.46 65.16 M313.75 48.87 C314.39 59.23, 310.47 66.77, 297.46 65.16 M297.46 65.16 C228.18 62.99, 156.26 65.41, 16.29 65.16 M297.46 65.16 C192.8 67.18, 88.75 67.5, 16.29 65.16 M16.29 65.16 C6.67 66.41, -0.82 58.48, 0 48.87 M16.29 65.16 C4.53 67.16, -1.93 59.41, 0 48.87 M0 48.87 C1.39 40.42, 0.15 29.5, 0 16.29 M0 48.87 C0.12 37.29, 0.53 26.2, 0 16.29 M0 16.29 C-1.86 6.87, 5.16 -1.53, 16.29 0 M0 16.29 C1.54 7.46, 4.18 1.52, 16.29 0" stroke="#2f9e44" stroke-width="2" fill="none"></path></g><g transform="translate(972.8685515359439 174.00008127680184) rotate(0 8.46807861328125 19.4944109528156)"><text x="8.46807861328125" y="0" font-family="Virgil, Segoe UI Emoji" font-size="31.191057524504977px" fill="#2f9e44" text-anchor="middle" style="white-space: pre;" direction="ltr" dominant-baseline="text-before-edge">s</text></g><g stroke-linecap="round" transform="translate(778.7533719441399 432.3974627947907) rotate(0 202.5832582050857 32.8613841469778)"><path d="M4.37 3.8 C4.37 3.8, 4.37 3.8, 4.37 3.8 M4.37 3.8 C4.37 3.8, 4.37 3.8, 4.37 3.8 M2.54 18.11 C8.02 13.44, 12.77 9.09, 17.63 0.75 M2.54 18.11 C8.29 12.39, 14.22 5.86, 17.63 0.75 M2.67 30.15 C10.46 19.08, 21.13 6.83, 28.26 0.71 M2.67 30.15 C9.14 23.35, 16.3 13.93, 28.26 0.71 M2.8 42.19 C9.28 33.31, 17.85 26.78, 38.89 0.68 M2.8 42.19 C11.61 32.97, 21.45 21.9, 38.89 0.68 M2.94 54.23 C22.17 33.97, 37.9 10.81, 49.52 0.65 M2.94 54.23 C16.08 38.87, 28.77 25.76, 49.52 0.65 M7.01 61.74 C21.34 48.98, 33.09 35.07, 60.15 0.61 M7.01 61.74 C26 40.57, 44.53 19.57, 60.15 0.61 M13.7 66.24 C36.86 38.95, 57.76 13.15, 70.78 0.58 M13.7 66.24 C36.03 39.9, 58.71 14.48, 70.78 0.58 M24.33 66.2 C40.88 47.83, 58.12 25.16, 80.75 1.3 M24.33 66.2 C41.75 45.32, 61.11 24.44, 80.75 1.3 M34.96 66.17 C55.62 39.68, 76.81 15.45, 91.38 1.26 M34.96 66.17 C57.23 41.89, 77.76 17.16, 91.38 1.26 M45.59 66.13 C64.02 44.57, 86.42 17.86, 102.01 1.23 M45.59 66.13 C61.35 47.8, 77.3 29.07, 102.01 1.23 M56.22 66.1 C65.92 50.46, 78.32 39.52, 112.64 1.19 M56.22 66.1 C67.39 52.6, 77.99 39.45, 112.64 1.19 M66.85 66.06 C79.65 50.24, 94.88 31.74, 123.27 1.16 M66.85 66.06 C79.48 50.97, 94.07 36.59, 123.27 1.16 M77.48 66.03 C91.91 48.26, 108.35 31.67, 133.9 1.12 M77.48 66.03 C88.86 53.63, 101.21 39.25, 133.9 1.12 M87.46 66.75 C102.24 53.85, 114.26 40.39, 144.53 1.09 M87.46 66.75 C108.4 41.77, 129.32 17.06, 144.53 1.09 M98.09 66.71 C115.41 48.53, 128.7 28.77, 155.16 1.05 M98.09 66.71 C120 40.48, 140.93 15.5, 155.16 1.05 M108.72 66.68 C125.39 50.13, 138.76 32.49, 165.79 1.02 M108.72 66.68 C120.32 51.63, 133.55 38.48, 165.79 1.02 M119.35 66.65 C134.03 48.79, 152.14 31.53, 176.42 0.99 M119.35 66.65 C136.36 46.25, 154.58 25.84, 176.42 0.99 M129.98 66.61 C153.42 39.83, 171.98 16.65, 187.05 0.95 M129.98 66.61 C148.34 45.78, 164.57 27.43, 187.05 0.95 M140.61 66.58 C164.32 41.27, 181.79 19.29, 197.68 0.92 M140.61 66.58 C162.34 41.04, 186.29 15.7, 197.68 0.92 M151.24 66.54 C169.91 47.96, 185.2 26.94, 208.31 0.88 M151.24 66.54 C165.09 50.31, 179.14 33.67, 208.31 0.88 M161.87 66.51 C179.05 47.33, 191.12 30.16, 218.94 0.85 M161.87 66.51 C173.83 53.37, 186.02 39.8, 218.94 0.85 M172.5 66.47 C190.35 47.23, 206.13 28.19, 229.57 0.81 M172.5 66.47 C190.02 45.61, 208.05 24.8, 229.57 0.81 M183.13 66.44 C198.81 47.73, 218.49 26.84, 240.2 0.78 M183.13 66.44 C205.17 42.35, 227.01 17.56, 240.2 0.78 M193.76 66.4 C212.13 44.34, 229.53 25.31, 250.83 0.74 M193.76 66.4 C206.43 51.26, 220.35 35.46, 250.83 0.74 M204.39 66.37 C216.52 51.22, 229.47 34.56, 261.46 0.71 M204.39 66.37 C221.47 46.1, 238.91 26.4, 261.46 0.71 M215.02 66.34 C232.25 44.18, 251.23 23, 271.44 1.43 M215.02 66.34 C236.3 43.39, 256.7 18.67, 271.44 1.43 M225.65 66.3 C237.4 50.67, 251.46 37.16, 282.07 1.4 M225.65 66.3 C238.1 51.52, 250.91 35.95, 282.07 1.4 M236.28 66.27 C245.8 51.63, 258.46 38.1, 292.7 1.36 M236.28 66.27 C257.36 42.78, 277.22 18.27, 292.7 1.36 M246.91 66.23 C258.29 53.31, 269.62 40.64, 303.33 1.33 M246.91 66.23 C268.04 42.95, 288.29 19.07, 303.33 1.33 M257.54 66.2 C272.16 49.52, 290.31 29.5, 313.96 1.29 M257.54 66.2 C274.85 45.27, 292.66 24.63, 313.96 1.29 M268.17 66.16 C282.39 49.68, 297.86 35.43, 324.59 1.26 M268.17 66.16 C289.32 41.83, 308.72 19.06, 324.59 1.26 M278.14 66.88 C296.05 46.47, 313.73 24.3, 335.22 1.22 M278.14 66.88 C288.93 53.96, 302.25 40.55, 335.22 1.22 M288.77 66.85 C307.35 47.81, 322 28.14, 345.85 1.19 M288.77 66.85 C302.8 48.95, 317.77 32.43, 345.85 1.19 M299.4 66.81 C309.83 51.71, 324.24 36.32, 356.48 1.15 M299.4 66.81 C322.13 40.88, 344.86 15.1, 356.48 1.15 M310.03 66.78 C324.92 50.61, 340.89 30.65, 367.11 1.12 M310.03 66.78 C327.46 45.02, 345.71 24.92, 367.11 1.12 M320.66 66.74 C334.77 47.73, 349.65 29.65, 377.74 1.09 M320.66 66.74 C333.08 53.93, 344.21 39.72, 377.74 1.09 M331.29 66.71 C349.62 46.08, 368.56 24.23, 388.37 1.05 M331.29 66.71 C352.25 41.47, 374.76 16.66, 388.37 1.05 M341.92 66.68 C359.99 47.4, 376.12 28.54, 396.37 4.03 M341.92 66.68 C360.62 45.55, 377.99 24.71, 396.37 4.03 M352.55 66.64 C374.4 45.12, 391.3 18.42, 404.38 7.02 M352.55 66.64 C369.46 46.77, 388.23 24.91, 404.38 7.02 M363.18 66.61 C377.94 46.48, 395.65 27.84, 409.11 13.78 M363.18 66.61 C379.69 45.6, 397.43 25.86, 409.11 13.78 M373.81 66.57 C384.25 52.15, 397.84 42.01, 409.24 25.82 M373.81 66.57 C383.53 55.5, 392.72 46.29, 409.24 25.82 M384.44 66.54 C392.26 54.96, 404.45 44.56, 409.37 37.86 M384.44 66.54 C394.13 56.61, 402.24 44.54, 409.37 37.86 M396.38 64.99 C399.85 62.27, 399.75 60.74, 406.23 53.67 M396.38 64.99 C398.39 61.94, 400.58 60.07, 406.23 53.67" stroke="#b2f2bb" stroke-width="1" fill="none"></path><path d="M16.43 0 C163.24 -0.45, 311.48 0.27, 388.74 0 M16.43 0 C122.86 0.35, 229 0.35, 388.74 0 M388.74 0 C400.13 -1.68, 405.21 5.19, 405.17 16.43 M388.74 0 C399.81 -0.38, 405.1 4.18, 405.17 16.43 M405.17 16.43 C404.45 22.36, 406.11 30.3, 405.17 49.29 M405.17 16.43 C404.98 26.51, 405.04 35.56, 405.17 49.29 M405.17 49.29 C403.54 60.17, 401.23 67.13, 388.74 65.72 M405.17 49.29 C405.02 62.51, 398.14 65.44, 388.74 65.72 M388.74 65.72 C297.42 66.64, 203.82 66.66, 16.43 65.72 M388.74 65.72 C244.53 64.93, 100 65.76, 16.43 65.72 M16.43 65.72 C6.23 65.62, -0.96 61.21, 0 49.29 M16.43 65.72 C7.69 65.73, 1.01 59.68, 0 49.29 M0 49.29 C1.44 36.4, -1.53 25.39, 0 16.43 M0 49.29 C-0.24 36.45, -0.2 23.71, 0 16.43 M0 16.43 C0.44 6.77, 5.35 0.63, 16.43 0 M0 16.43 C0.18 5.73, 6.77 -0.41, 16.43 0" stroke="#2f9e44" stroke-width="2" fill="none"></path></g><g transform="translate(973.5079405740298 445.76443598895287) rotate(0 7.8286895751953125 19.4944109528156)"><text x="7.8286895751953125" y="0" font-family="Virgil, Segoe UI Emoji" font-size="31.191057524504977px" fill="#2f9e44" text-anchor="middle" style="white-space: pre;" direction="ltr" dominant-baseline="text-before-edge">c</text></g><g stroke-linecap="round" transform="translate(824.459458625809 510.7146061800386) rotate(0 156.8771715234161 32.57933813781756)"><path d="M4.34 3.77 C4.34 3.77, 4.34 3.77, 4.34 3.77 M4.34 3.77 C4.34 3.77, 4.34 3.77, 4.34 3.77 M2.5 18.07 C8.61 11.53, 11.01 6.98, 17.59 0.72 M2.5 18.07 C8.3 12.76, 11.67 5.36, 17.59 0.72 M2.63 30.12 C9.49 20.46, 18.32 12.24, 28.22 0.68 M2.63 30.12 C11.67 18.32, 21.8 6.7, 28.22 0.68 M2.77 42.16 C12 29.09, 22.1 17.67, 38.85 0.65 M2.77 42.16 C17.55 26.3, 31.63 10.33, 38.85 0.65 M0.93 56.46 C17.95 35.83, 37.59 17.9, 49.48 0.61 M0.93 56.46 C10.25 43.36, 20.61 32.88, 49.48 0.61 M6.31 62.46 C24.32 40.27, 42.92 22.46, 59.45 1.33 M6.31 62.46 C23.47 43.26, 38.18 24.36, 59.45 1.33 M13.66 66.2 C28.27 52.59, 38.9 38.04, 70.08 1.3 M13.66 66.2 C29.11 49.51, 43.49 30.68, 70.08 1.3 M24.29 66.17 C47.16 41.17, 69.73 14.36, 80.71 1.26 M24.29 66.17 C43.14 44.61, 61.48 23.11, 80.71 1.26 M34.92 66.13 C51.28 49.21, 64.68 34.95, 91.34 1.23 M34.92 66.13 C55.55 43.65, 74.59 19.34, 91.34 1.23 M45.55 66.1 C66.6 40.1, 89.95 15.35, 101.97 1.19 M45.55 66.1 C64.94 43.47, 86.54 19.64, 101.97 1.19 M56.18 66.07 C66.17 52.12, 79.18 38.48, 112.61 1.16 M56.18 66.07 C69.45 52.18, 83.56 35.86, 112.61 1.16 M66.81 66.03 C85.31 41.84, 107.75 18.91, 123.24 1.13 M66.81 66.03 C84.08 44.05, 102.32 23.45, 123.24 1.13 M77.44 66 C92.59 45.49, 109.65 26.14, 133.87 1.09 M77.44 66 C94.8 44.3, 114.12 24.76, 133.87 1.09 M88.07 65.96 C109.02 42.63, 129.3 19.1, 144.5 1.06 M88.07 65.96 C103.18 48.96, 118.75 32.14, 144.5 1.06 M98.7 65.93 C118.19 47.96, 133.95 26.99, 155.13 1.02 M98.7 65.93 C111.68 52.07, 125 37.63, 155.13 1.02 M109.33 65.89 C129.12 41.75, 152.74 15.39, 165.76 0.99 M109.33 65.89 C123.03 49.12, 136.85 32.62, 165.76 0.99 M119.96 65.86 C135.53 49.26, 152.87 28.82, 176.39 0.95 M119.96 65.86 C140.82 41.43, 160.51 19.73, 176.39 0.95 M130.59 65.82 C142.55 51.19, 154.45 40.84, 187.02 0.92 M130.59 65.82 C143.67 50.82, 154.2 38.64, 187.02 0.92 M140.57 66.54 C156.45 50.44, 167.84 33.73, 197.65 0.88 M140.57 66.54 C158.53 44.57, 177.74 24.5, 197.65 0.88 M151.2 66.51 C170.04 44.28, 190.28 20, 208.28 0.85 M151.2 66.51 C170.02 45.28, 189.7 24.68, 208.28 0.85 M161.83 66.47 C174.7 49.15, 192.5 33.57, 218.91 0.82 M161.83 66.47 C183.07 41.85, 204.73 17.05, 218.91 0.82 M172.46 66.44 C192.52 43.73, 211.16 20.44, 229.54 0.78 M172.46 66.44 C187.08 51.12, 200.38 32.82, 229.54 0.78 M183.09 66.41 C206.15 42.11, 224.05 18.05, 239.51 1.5 M183.09 66.41 C201.16 45.34, 219.81 24.07, 239.51 1.5 M193.72 66.37 C205.13 51.25, 218.87 35.57, 250.14 1.47 M193.72 66.37 C208.32 49.2, 225.13 30.72, 250.14 1.47 M204.35 66.34 C224.02 45.65, 241.61 22.7, 260.77 1.43 M204.35 66.34 C218.66 50.43, 232.15 33.6, 260.77 1.43 M214.98 66.3 C232.04 47.71, 247.9 32.4, 271.4 1.4 M214.98 66.3 C234.75 41.35, 256.56 17.34, 271.4 1.4 M225.61 66.27 C235.6 54.71, 249.6 39.41, 282.03 1.36 M225.61 66.27 C245.37 43.13, 267.47 18.46, 282.03 1.36 M236.24 66.23 C252.04 48.93, 266.46 33.97, 292.66 1.33 M236.24 66.23 C255.61 43.69, 276.71 20.4, 292.66 1.33 M246.87 66.2 C267.48 42.78, 285.76 22.32, 302.63 2.05 M246.87 66.2 C266.52 43.29, 286.86 19.98, 302.63 2.05 M257.5 66.16 C276.88 45.57, 297.28 21.22, 310.64 5.03 M257.5 66.16 C273.33 47.07, 289.82 28.84, 310.64 5.03 M268.13 66.13 C281.17 51.75, 293.25 38.74, 315.37 11.79 M268.13 66.13 C281.59 51.38, 294.76 36.2, 315.37 11.79 M278.76 66.1 C288.97 51.21, 303.83 36.3, 315.5 23.83 M278.76 66.1 C291.09 52.35, 303.08 37.76, 315.5 23.83 M289.39 66.06 C297.79 57.23, 308.55 45.01, 315.63 35.87 M289.39 66.06 C294.04 59.88, 301.51 52.43, 315.63 35.87 M299.36 66.78 C305.94 61.7, 307.33 56.29, 316.42 47.16 M299.36 66.78 C303.78 60.44, 309.31 55.42, 316.42 47.16" stroke="#b2f2bb" stroke-width="1" fill="none"></path><path d="M16.29 0 C110.04 -2.12, 203.75 -1.04, 297.46 0 M16.29 0 C82.48 0.74, 148.36 1.27, 297.46 0 M297.46 0 C308.43 -0.33, 313.69 4.31, 313.75 16.29 M297.46 0 C306.09 1.39, 315.87 4.38, 313.75 16.29 M313.75 16.29 C313.44 26.73, 315.28 32.46, 313.75 48.87 M313.75 16.29 C312.8 29.08, 314.38 42.65, 313.75 48.87 M313.75 48.87 C313.62 61.69, 306.98 64.92, 297.46 65.16 M313.75 48.87 C312.54 60.41, 309.76 66.59, 297.46 65.16 M297.46 65.16 C225.92 63.04, 151.51 64.05, 16.29 65.16 M297.46 65.16 C235.31 66.34, 172.2 66.75, 16.29 65.16 M16.29 65.16 C7.35 65.17, 0.87 59.24, 0 48.87 M16.29 65.16 C7.36 65.16, -2.14 61.39, 0 48.87 M0 48.87 C2.01 38.45, 1.57 29.37, 0 16.29 M0 48.87 C0.34 40.04, 0.06 30.24, 0 16.29 M0 16.29 C0.16 5.65, 6.55 -0.35, 16.29 0 M0 16.29 C1.69 6.57, 3.67 0.22, 16.29 0" stroke="#2f9e44" stroke-width="2" fill="none"></path></g><g transform="translate(972.8685515359439 523.7995333650405) rotate(0 8.46807861328125 19.4944109528156)"><text x="8.46807861328125" y="0" font-family="Virgil, Segoe UI Emoji" font-size="31.191057524504977px" fill="#2f9e44" text-anchor="middle" style="white-space: pre;" direction="ltr" dominant-baseline="text-before-edge">s</text></g><g mask="url(#mask-aJPHEKQ8zz28qvvzWY3AZ)" stroke-linecap="round"><g transform="translate(250.3214289764992 478.31081298139634) rotate(0 -1.4439951863000715 -75.08960055668845)"><path d="M0.74 -0.46 C0.47 -25.64, -1.82 -125.49, -2.3 -150.33 M-0.33 -1.75 C-0.64 -26.8, -2.58 -123.92, -2.94 -148.87" stroke="#e03131" stroke-width="2" fill="none"></path></g><g transform="translate(250.3214289764992 478.31081298139634) rotate(0 -1.4439951863000715 -75.08960055668845)"><path d="M7.81 -120.87 C4.26 -126.62, 2.16 -133.14, -2.94 -148.87 M7.81 -120.87 C3.55 -130.84, 0.37 -141.07, -2.94 -148.87" stroke="#e03131" stroke-width="2" fill="none"></path></g><g transform="translate(250.3214289764992 478.31081298139634) rotate(0 -1.4439951863000715 -75.08960055668845)"><path d="M-12.7 -120.51 C-11.28 -126.48, -8.39 -133.08, -2.94 -148.87 M-12.7 -120.51 C-9.67 -130.62, -5.55 -140.99, -2.94 -148.87" stroke="#e03131" stroke-width="2" fill="none"></path></g></g><mask id="mask-aJPHEKQ8zz28qvvzWY3AZ"><rect x="0" y="0" fill="#fff" width="353.20941934909894" height="728.4900140947732"></rect><rect x="143.64240266226898" y="364.2323905190767" fill="#000" width="210.47006225585938" height="77.97764381126244" opacity="1"></rect></mask><g transform="translate(143.6424026622699 364.2323905190766) rotate(0 105.58115947081797 38.68134693444108)"><text x="105.23503112792969" y="0" font-family="Virgil, Segoe UI Emoji" font-size="31.191057524504977px" fill="#e03131" text-anchor="middle" style="white-space: pre;" direction="ltr" dominant-baseline="text-before-edge">span_id / </text><text x="105.23503112792969" y="38.98882190563122" font-family="Virgil, Segoe UI Emoji" font-size="31.191057524504977px" fill="#e03131" text-anchor="middle" style="white-space: pre;" direction="ltr" dominant-baseline="text-before-edge">x_request_id</text></g><g mask="url(#mask-uY3149hDQHDt-KvnYT5mv)" stroke-linecap="round"><g transform="translate(982.7806253355257 410.11668710792674) rotate(0 -1.4439951862996168 -75.08960055668845)"><path d="M-0.31 -0.77 C-0.76 -25.88, -3.01 -124.8, -3.44 -149.52 M1.73 1.44 C1.14 -23.51, -3.77 -125.91, -4.67 -151.3" stroke="#2f9e44" stroke-width="2" fill="none"></path></g><g transform="translate(982.7806253355257 410.11668710792674) rotate(0 -1.4439951862996168 -75.08960055668845)"><path d="M6.77 -123.56 C2.49 -131.13, 2.14 -136.84, -4.67 -151.3 M6.77 -123.56 C2.74 -133.79, -1.69 -145.85, -4.67 -151.3" stroke="#2f9e44" stroke-width="2" fill="none"></path></g><g transform="translate(982.7806253355257 410.11668710792674) rotate(0 -1.4439951862996168 -75.08960055668845)"><path d="M-13.73 -122.7 C-13.12 -130.42, -8.58 -136.34, -4.67 -151.3 M-13.73 -122.7 C-9.75 -133.11, -6.18 -145.51, -4.67 -151.3" stroke="#2f9e44" stroke-width="2" fill="none"></path></g></g><mask id="mask-uY3149hDQHDt-KvnYT5mv"><rect x="0" y="0" fill="#fff" width="1085.6686157081253" height="660.2958882213036"></rect><rect x="876.1015990212982" y="296.0382646456071" fill="#000" width="210.47006225585938" height="77.97764381126244" opacity="1"></rect></mask><g transform="translate(876.1015990212982 296.0382646456071) rotate(0 105.20955831905758 39.15086487340142)"><text x="105.23503112792969" y="0" font-family="Virgil, Segoe UI Emoji" font-size="31.191057524504977px" fill="#2f9e44" text-anchor="middle" style="white-space: pre;" direction="ltr" dominant-baseline="text-before-edge">span_id / </text><text x="105.23503112792969" y="38.98882190563122" font-family="Virgil, Segoe UI Emoji" font-size="31.191057524504977px" fill="#2f9e44" text-anchor="middle" style="white-space: pre;" direction="ltr" dominant-baseline="text-before-edge">x_request_id</text></g></svg>