<svg version="1.1" xmlns="http://www.w3.org/2000/svg" viewBox="0 0 1573.0167680318712 1382.086009402754" width="1573.0167680318712" height="1382.086009402754" filter="invert(93%) hue-rotate(180deg)">
  <!-- svg-source:excalidraw -->
  
  <defs>
    <style class="style-fonts">
      @font-face {
        font-family: "Virgil";
        src: url("https://file%2B.vscode-resource.vscode-cdn.net/c%3A/Users/talor/.vscode/extensions/pomdtr.excalidraw-editor-3.7.4/public//dist/excalidraw-assets/Virgil.woff2");
      }
      @font-face {
        font-family: "Cascadia";
        src: url("https://file%2B.vscode-resource.vscode-cdn.net/c%3A/Users/talor/.vscode/extensions/pomdtr.excalidraw-editor-3.7.4/public//dist/excalidraw-assets/Cascadia.woff2");
      }
      @font-face {
        font-family: "Assistant";
        src: url("https://file%2B.vscode-resource.vscode-cdn.net/c%3A/Users/talor/.vscode/extensions/pomdtr.excalidraw-editor-3.7.4/public//dist/excalidraw-assets/Assistant-Regular.woff2");
      }
    </style>
    
  </defs>
  <rect x="0" y="0" width="1573.0167680318712" height="1382.086009402754" fill="#ffffff"></rect><g stroke-linecap="round" transform="translate(10 10) rotate(0 629.445497239469 126.17747061593195)"><path d="M32 0 C294.11 0.44, 556.67 1.04, 1226.89 0 M1226.89 0 C1246.73 -0.72, 1260.85 9.12, 1258.89 32 M1258.89 32 C1260.82 93.99, 1261.04 157.5, 1258.89 220.35 M1258.89 220.35 C1258.31 240.53, 1248.39 252.67, 1226.89 252.35 M1226.89 252.35 C843.19 252.67, 460.13 252.17, 32 252.35 M32 252.35 C12.23 254.27, -1.52 239.9, 0 220.35 M0 220.35 C0.63 182.02, 0.32 145.73, 0 32 M0 32 C0.67 9.55, 9.12 1.96, 32 0" stroke="#9c36b5" stroke-width="2.5" fill="none" stroke-dasharray="8 10"></path></g><g stroke-linecap="round" transform="translate(48.7427446520112 71.20917403173326) rotate(0 41.268169574857836 34.82519922349144)"><path d="M2.14 7.16 C2.14 7.16, 2.14 7.16, 2.14 7.16 M2.14 7.16 C2.14 7.16, 2.14 7.16, 2.14 7.16 M0.3 21.46 C7.11 15.83, 11.66 10.75, 18.67 0.33 M0.3 21.46 C4.11 16.92, 6.97 12.89, 18.67 0.33 M0.44 33.5 C12.02 23.59, 22.24 9.97, 29.3 0.3 M0.44 33.5 C9.29 24.51, 15.96 15.15, 29.3 0.3 M0.57 45.55 C9.69 34.57, 17.38 23.38, 39.93 0.26 M0.57 45.55 C14.56 29.81, 29.82 13.25, 39.93 0.26 M0.7 57.59 C13.19 46.5, 24.49 33.86, 50.56 0.23 M0.7 57.59 C18.08 36.88, 37.65 14.86, 50.56 0.23 M4.77 65.1 C28.38 38.07, 48.91 15.68, 61.19 0.19 M4.77 65.1 C19.79 46.93, 36.06 29.37, 61.19 0.19 M12.12 68.84 C32.97 44.82, 55.78 19.12, 70.51 1.67 M12.12 68.84 C27.86 50.1, 43.8 31.71, 70.51 1.67 M22.1 69.56 C36.12 53.15, 52.85 33.13, 78.52 4.65 M22.1 69.56 C33.68 57.26, 44.75 44.59, 78.52 4.65 M32.07 70.28 C44.89 55.11, 59.86 36.22, 81.93 12.92 M32.07 70.28 C45.59 55.16, 57.91 40.31, 81.93 12.92 M42.7 70.24 C52.69 57.79, 62.98 47.96, 82.72 24.21 M42.7 70.24 C53.88 57.89, 64.63 45.62, 82.72 24.21 M53.33 70.21 C61.21 60.36, 72.55 49.15, 82.85 36.25 M53.33 70.21 C64.93 57.79, 73.77 46.37, 82.85 36.25 M63.96 70.17 C66.92 64.07, 74.04 58.68, 82.99 48.29 M63.96 70.17 C68.85 66.29, 71.68 60.13, 82.99 48.29" stroke="#ffc9c9" stroke-width="1" fill="none"></path><path d="M17.41 0 C32.94 -1.51, 45.36 -0.43, 65.12 0 M17.41 0 C33.97 -0.2, 50.34 -0.68, 65.12 0 M65.12 0 C75.09 1.47, 82.56 4.97, 82.54 17.41 M65.12 0 C76.55 1.7, 81.1 5.61, 82.54 17.41 M82.54 17.41 C81.2 29.4, 82.46 41, 82.54 52.24 M82.54 17.41 C81.54 30.86, 82.83 42.44, 82.54 52.24 M82.54 52.24 C83.32 62.21, 74.8 68.81, 65.12 69.65 M82.54 52.24 C84.31 64.28, 74.78 68.33, 65.12 69.65 M65.12 69.65 C47.86 68.8, 34.62 69.8, 17.41 69.65 M65.12 69.65 C47.89 69.86, 30.02 69.9, 17.41 69.65 M17.41 69.65 C4.58 68.69, 1.27 61.93, 0 52.24 M17.41 69.65 C4.79 68.21, 1.18 62.51, 0 52.24 M0 52.24 C1.55 38.98, -1.16 28.22, 0 17.41 M0 52.24 C-0.94 44.25, 0.62 34.44, 0 17.41 M0 17.41 C-0.28 4.19, 6.44 0.05, 17.41 0 M0 17.41 C-1.14 4.77, 4.23 -0.13, 17.41 0" stroke="#e03131" stroke-width="2" fill="none"></path></g><g transform="translate(70.32692374835341 88.53437325522464) rotate(0 19.683990478515625 17.5)"><text x="19.683990478515625" y="0" font-family="Virgil, Segoe UI Emoji" font-size="28px" fill="#e03131" text-anchor="middle" style="white-space: pre;" direction="ltr" dominant-baseline="text-before-edge">c-p</text></g><g stroke-linecap="round" transform="translate(284.45827733647025 71.20917403173326) rotate(0 41.268169574857836 34.82519922349144)"><path d="M2.14 7.16 C2.14 7.16, 2.14 7.16, 2.14 7.16 M2.14 7.16 C2.14 7.16, 2.14 7.16, 2.14 7.16 M0.3 21.46 C4.93 18.14, 8.12 12.6, 18.67 0.33 M0.3 21.46 C4.23 15.55, 9.17 11.14, 18.67 0.33 M0.44 33.5 C9.3 23.55, 18.84 10.04, 29.3 0.3 M0.44 33.5 C7.8 25.16, 12.89 19.07, 29.3 0.3 M0.57 45.55 C15.66 26.57, 29.33 12.98, 39.93 0.26 M0.57 45.55 C14.78 29.5, 30.94 10.68, 39.93 0.26 M0.7 57.59 C13.69 42.23, 23.71 26.8, 50.56 0.23 M0.7 57.59 C16.05 40.72, 31.79 22.67, 50.56 0.23 M4.77 65.1 C21.4 43.5, 44.19 22.23, 61.19 0.19 M4.77 65.1 C26.33 39.77, 48.93 14.62, 61.19 0.19 M12.12 68.84 C27.03 55.2, 38.42 37.47, 70.51 1.67 M12.12 68.84 C26.66 51.16, 41.5 34.86, 70.51 1.67 M22.1 69.56 C44.85 44.62, 65.49 21.34, 78.52 4.65 M22.1 69.56 C35.03 54.27, 47.92 37.92, 78.52 4.65 M32.07 70.28 C43.61 57.36, 56.2 41.94, 81.93 12.92 M32.07 70.28 C47.35 53.48, 60.36 38.39, 81.93 12.92 M42.7 70.24 C55.2 58.77, 64.37 43.19, 82.72 24.21 M42.7 70.24 C58.91 52.01, 73.05 34.32, 82.72 24.21 M53.33 70.21 C62.74 61.21, 71.26 50.51, 82.85 36.25 M53.33 70.21 C61.32 59.97, 70.33 49.39, 82.85 36.25 M63.96 70.17 C73.27 62.56, 78.7 52.74, 82.99 48.29 M63.96 70.17 C69.77 62.47, 77 55.7, 82.99 48.29" stroke="#b2f2bb" stroke-width="1" fill="none"></path><path d="M17.41 0 C35.99 -1.34, 54.68 -1.16, 65.12 0 M17.41 0 C31.17 0.93, 46.91 -0.4, 65.12 0 M65.12 0 C75.86 1.29, 83.24 7.26, 82.54 17.41 M65.12 0 C74.83 -1.84, 81.89 7.16, 82.54 17.41 M82.54 17.41 C84.16 30.31, 83.32 40.97, 82.54 52.24 M82.54 17.41 C83.61 29.7, 82.41 42.34, 82.54 52.24 M82.54 52.24 C80.8 63.88, 78.07 69.19, 65.12 69.65 M82.54 52.24 C82.76 65.25, 75.48 70, 65.12 69.65 M65.12 69.65 C48.42 70.81, 34.03 71.23, 17.41 69.65 M65.12 69.65 C51.72 70.41, 38.74 69.27, 17.41 69.65 M17.41 69.65 C6.31 68.41, -0.71 62.15, 0 52.24 M17.41 69.65 C7.38 67.99, 1.31 64.29, 0 52.24 M0 52.24 C-1.55 45.12, 0.84 37.09, 0 17.41 M0 52.24 C0.63 39.19, 0.66 26.96, 0 17.41 M0 17.41 C-1.65 5.02, 6.87 -0.87, 17.41 0 M0 17.41 C1.87 4.95, 6.11 -0.58, 17.41 0" stroke="#2f9e44" stroke-width="2" fill="none"></path></g><g transform="translate(318.69844703339845 88.53437325522464) rotate(0 7.0279998779296875 17.5)"><text x="7.0279998779296875" y="0" font-family="Virgil, Segoe UI Emoji" font-size="28px" fill="#2f9e44" text-anchor="middle" style="white-space: pre;" direction="ltr" dominant-baseline="text-before-edge">c</text></g><g stroke-linecap="round" transform="translate(506.42785484139586 71.20917403173326) rotate(0 41.268169574857836 34.82519922349144)"><path d="M2.14 7.16 C2.14 7.16, 2.14 7.16, 2.14 7.16 M2.14 7.16 C2.14 7.16, 2.14 7.16, 2.14 7.16 M0.3 21.46 C7.52 16.4, 11.35 9.29, 18.67 0.33 M0.3 21.46 C8.35 13.02, 15.23 4.35, 18.67 0.33 M0.44 33.5 C7.44 25.2, 14.66 18.2, 29.3 0.3 M0.44 33.5 C8.36 24.64, 16.72 13.67, 29.3 0.3 M0.57 45.55 C13.31 30.86, 29.39 12.9, 39.93 0.26 M0.57 45.55 C10.23 34.47, 20.18 21.31, 39.93 0.26 M0.7 57.59 C15.69 42.13, 30.22 25.87, 50.56 0.23 M0.7 57.59 C13.93 42.71, 25.54 28.75, 50.56 0.23 M4.77 65.1 C18.2 50.89, 33.34 32.64, 61.19 0.19 M4.77 65.1 C21.26 46.33, 36.43 28.74, 61.19 0.19 M12.12 68.84 C31.55 49.84, 47.4 27.1, 70.51 1.67 M12.12 68.84 C33.61 43.28, 55.83 17.82, 70.51 1.67 M22.1 69.56 C36.97 55.02, 49.68 37.99, 78.52 4.65 M22.1 69.56 C41.72 47.86, 61.72 25.42, 78.52 4.65 M32.07 70.28 C48.75 52.9, 63.46 34.79, 81.93 12.92 M32.07 70.28 C49.98 49.33, 67.57 29.6, 81.93 12.92 M42.7 70.24 C59.02 51.27, 72.98 35.25, 82.72 24.21 M42.7 70.24 C56.89 55.35, 69.84 38.28, 82.72 24.21 M53.33 70.21 C62.63 59.16, 73.65 48.4, 82.85 36.25 M53.33 70.21 C63.1 59.51, 72.86 47.24, 82.85 36.25 M63.96 70.17 C69.94 64, 72.49 59.12, 82.99 48.29 M63.96 70.17 C69.37 63.21, 74.65 57.5, 82.99 48.29" stroke="#b2f2bb" stroke-width="1" fill="none"></path><path d="M17.41 0 C29.92 -0.33, 41.1 -0.36, 65.12 0 M17.41 0 C28.37 0.87, 39.74 0.16, 65.12 0 M65.12 0 C76.66 0.16, 83.33 5.28, 82.54 17.41 M65.12 0 C78.78 -0.13, 81.15 7.94, 82.54 17.41 M82.54 17.41 C81.82 27.25, 81.17 34.74, 82.54 52.24 M82.54 17.41 C82.94 30.01, 82.76 43.57, 82.54 52.24 M82.54 52.24 C80.9 63.08, 77.56 68.85, 65.12 69.65 M82.54 52.24 C80.62 62.12, 76.51 71.03, 65.12 69.65 M65.12 69.65 C48.17 71.06, 29.94 68.18, 17.41 69.65 M65.12 69.65 C51.08 70.18, 34.82 68.71, 17.41 69.65 M17.41 69.65 C4.04 71.5, 0.6 62.52, 0 52.24 M17.41 69.65 C4.67 70.26, 0.96 64.57, 0 52.24 M0 52.24 C0.58 42.49, -1.5 33.13, 0 17.41 M0 52.24 C0.45 40.25, 0.56 26.03, 0 17.41 M0 17.41 C0.43 7.8, 6.73 1.81, 17.41 0 M0 17.41 C-1.85 4.61, 3.53 -0.66, 17.41 0" stroke="#2f9e44" stroke-width="2" fill="none"></path></g><g transform="translate(520.4100365622498 88.53437325522464) rotate(0 27.285987854003906 17.5)"><text x="27.285987854003906" y="0" font-family="Virgil, Segoe UI Emoji" font-size="28px" fill="#2f9e44" text-anchor="middle" style="white-space: pre;" direction="ltr" dominant-baseline="text-before-edge">c-nd</text></g><g stroke-linecap="round" transform="translate(704.7373210097553 71.20917403173326) rotate(0 41.26816957485789 34.82519922349144)"><path d="M2.14 7.16 C2.14 7.16, 2.14 7.16, 2.14 7.16 M2.14 7.16 C2.14 7.16, 2.14 7.16, 2.14 7.16 M0.3 21.46 C4.62 18.02, 10.24 10.71, 18.67 0.33 M0.3 21.46 C6.05 14.94, 10.35 9.86, 18.67 0.33 M0.44 33.5 C10.74 24.92, 17.58 12.56, 29.3 0.3 M0.44 33.5 C10.84 20.5, 21.91 7.88, 29.3 0.3 M0.57 45.55 C11.17 35.92, 19.56 23.84, 39.93 0.26 M0.57 45.55 C14.13 30.49, 28.22 14.86, 39.93 0.26 M0.7 57.59 C17.38 40.21, 32.1 22.09, 50.56 0.23 M0.7 57.59 C18.62 36.64, 36.2 16.91, 50.56 0.23 M4.77 65.1 C27.7 38.5, 48.18 14.99, 61.19 0.19 M4.77 65.1 C24.61 43.7, 43.12 20.24, 61.19 0.19 M12.12 68.84 C31.11 46.49, 52.04 24.33, 70.51 1.67 M12.12 68.84 C31.4 46.96, 50.68 23.74, 70.51 1.67 M22.1 69.56 C36.62 53.94, 47.56 39.42, 78.52 4.65 M22.1 69.56 C38.35 50.26, 54.38 32.18, 78.52 4.65 M32.07 70.28 C43.05 58.15, 56.72 42.7, 81.93 12.92 M32.07 70.28 C42.23 56.78, 54.34 44.47, 81.93 12.92 M42.7 70.24 C52.94 57.11, 64.37 43.55, 82.72 24.21 M42.7 70.24 C51.52 59.25, 61.43 47.91, 82.72 24.21 M53.33 70.21 C62.44 56.27, 73.57 44.63, 82.85 36.25 M53.33 70.21 C61.59 62.51, 67.86 53.43, 82.85 36.25 M63.96 70.17 C69.63 62.06, 77.87 52.4, 82.99 48.29 M63.96 70.17 C71.13 61.66, 77.85 52.81, 82.99 48.29" stroke="#b2f2bb" stroke-width="1" fill="none"></path><path d="M17.41 0 C32.41 1.02, 42.4 -0.56, 65.12 0 M17.41 0 C32.61 -1.07, 47.65 -0.02, 65.12 0 M65.12 0 C76.11 -1.82, 81.68 7.06, 82.54 17.41 M65.12 0 C76.08 1.19, 83.35 7.29, 82.54 17.41 M82.54 17.41 C84.2 30.39, 84.01 39.92, 82.54 52.24 M82.54 17.41 C81.79 25.95, 81.37 34.35, 82.54 52.24 M82.54 52.24 C84.52 65.82, 78.29 70.32, 65.12 69.65 M82.54 52.24 C80.73 62.77, 75.38 69.42, 65.12 69.65 M65.12 69.65 C53.73 71.01, 42.31 71.35, 17.41 69.65 M65.12 69.65 C49.01 69.06, 31.42 70.4, 17.41 69.65 M17.41 69.65 C5.71 70.31, -0.81 62.28, 0 52.24 M17.41 69.65 C4.54 67.49, 0.49 62.44, 0 52.24 M0 52.24 C-0.16 38.46, -1.11 28.5, 0 17.41 M0 52.24 C0.02 43.63, -0.31 37.08, 0 17.41 M0 17.41 C1.55 4.11, 4.97 1.79, 17.41 0 M0 17.41 C0.54 5.56, 7.47 -0.77, 17.41 0" stroke="#2f9e44" stroke-width="2" fill="none"></path></g><g transform="translate(718.1455052330507 88.53437325522464) rotate(0 27.8599853515625 17.5)"><text x="27.8599853515625" y="0" font-family="Virgil, Segoe UI Emoji" font-size="28px" fill="#2f9e44" text-anchor="middle" style="white-space: pre;" direction="ltr" dominant-baseline="text-before-edge">s-nd</text></g><g stroke-linecap="round" transform="translate(922.5561943293162 71.20917403173326) rotate(0 41.26816957485789 34.82519922349144)"><path d="M2.14 7.16 C2.14 7.16, 2.14 7.16, 2.14 7.16 M2.14 7.16 C2.14 7.16, 2.14 7.16, 2.14 7.16 M0.3 21.46 C6.79 13.09, 13.12 4.58, 18.67 0.33 M0.3 21.46 C6.38 15.35, 10.87 8.09, 18.67 0.33 M0.44 33.5 C12.9 21.36, 24.98 7.04, 29.3 0.3 M0.44 33.5 C7.17 24.68, 15.02 16.79, 29.3 0.3 M0.57 45.55 C16.52 28.84, 31.08 12.08, 39.93 0.26 M0.57 45.55 C10.85 34.43, 21.22 21.5, 39.93 0.26 M0.7 57.59 C12.18 44.1, 22.63 30.35, 50.56 0.23 M0.7 57.59 C16.06 41.04, 30.45 25.7, 50.56 0.23 M4.77 65.1 C19.58 48.71, 30.44 35.76, 61.19 0.19 M4.77 65.1 C25.69 41.97, 44.93 19.12, 61.19 0.19 M12.12 68.84 C27.96 50.86, 41.9 34.8, 70.51 1.67 M12.12 68.84 C30.27 45.53, 49.16 23.63, 70.51 1.67 M22.1 69.56 C39.03 54.47, 53.97 35.39, 78.52 4.65 M22.1 69.56 C38.76 48.38, 57.74 28.05, 78.52 4.65 M32.07 70.28 C42.39 55.71, 55.94 40.24, 81.93 12.92 M32.07 70.28 C43.09 57.77, 54.34 43.97, 81.93 12.92 M42.7 70.24 C56.37 50.44, 75.29 35.75, 82.72 24.21 M42.7 70.24 C55.9 54.41, 69.11 38.11, 82.72 24.21 M53.33 70.21 C59.47 64.13, 65.9 54.69, 82.85 36.25 M53.33 70.21 C61.47 59.56, 72.29 48.5, 82.85 36.25 M63.96 70.17 C68.45 65.75, 72.43 62.19, 82.99 48.29 M63.96 70.17 C69.91 62.48, 76.09 55.74, 82.99 48.29" stroke="#b2f2bb" stroke-width="1" fill="none"></path><path d="M17.41 0 C36.77 -0.08, 54.09 1.4, 65.12 0 M17.41 0 C28.56 0, 39.4 -1.11, 65.12 0 M65.12 0 C75.64 -1.88, 82.96 4.58, 82.54 17.41 M65.12 0 C78.17 -0.99, 82.41 5.45, 82.54 17.41 M82.54 17.41 C80.76 24.99, 83.23 34.03, 82.54 52.24 M82.54 17.41 C83.15 23.97, 81.96 33.11, 82.54 52.24 M82.54 52.24 C83 63.64, 78.18 68.98, 65.12 69.65 M82.54 52.24 C80.85 63.64, 76.14 70.91, 65.12 69.65 M65.12 69.65 C51.95 68.7, 34.82 68.43, 17.41 69.65 M65.12 69.65 C46.21 69.17, 29.57 69.18, 17.41 69.65 M17.41 69.65 C5.72 71.4, 0.95 63.57, 0 52.24 M17.41 69.65 C5.48 70.33, -1.55 65.12, 0 52.24 M0 52.24 C0.25 43.32, 0.41 36.96, 0 17.41 M0 52.24 C0.88 39.22, -0.84 25.33, 0 17.41 M0 17.41 C-1.44 5.24, 4.23 -0.95, 17.41 0 M0 17.41 C0.33 5.11, 6.62 1.95, 17.41 0" stroke="#2f9e44" stroke-width="2" fill="none"></path></g><g transform="translate(956.2223665286858 88.53437325522464) rotate(0 7.601997375488281 17.5)"><text x="7.601997375488281" y="0" font-family="Virgil, Segoe UI Emoji" font-size="28px" fill="#2f9e44" text-anchor="middle" style="white-space: pre;" direction="ltr" dominant-baseline="text-before-edge">s</text></g><g stroke-linecap="round" transform="translate(1116.966119035019 71.20917403173326) rotate(0 41.26816957485789 34.82519922349144)"><path d="M2.14 7.16 C2.14 7.16, 2.14 7.16, 2.14 7.16 M2.14 7.16 C2.14 7.16, 2.14 7.16, 2.14 7.16 M4.24 16.94 C8.89 13.06, 13.47 5.71, 18.02 1.09 M4.24 16.94 C8.2 12.77, 10.44 9.23, 18.02 1.09 M4.37 28.98 C11.19 19.58, 17.8 12.72, 28.65 1.05 M4.37 28.98 C9.71 23.08, 16.4 15.53, 28.65 1.05 M4.51 41.02 C10.74 31.46, 20.27 23.74, 39.28 1.02 M4.51 41.02 C13.84 29.68, 23.61 18.24, 39.28 1.02 M1.36 56.83 C11.61 43.82, 23.78 29.96, 49.91 0.98 M1.36 56.83 C17.97 35.74, 35.97 15.62, 49.91 0.98 M4.77 65.1 C20.49 50.67, 32.21 33.43, 60.54 0.95 M4.77 65.1 C26 40.84, 48.01 15.44, 60.54 0.95 M12.12 68.84 C34.26 43.01, 55.49 16.37, 70.51 1.67 M12.12 68.84 C25.54 53.69, 37.62 40.26, 70.51 1.67 M18.16 74.09 C38.56 50.49, 64.19 24.34, 78.52 4.65 M18.16 74.09 C41.92 45.96, 65.39 18.18, 78.52 4.65 M28.79 74.05 C47.42 54.22, 62.43 35.33, 83.24 11.41 M28.79 74.05 C49.96 51.08, 70.55 25.24, 83.24 11.41 M39.42 74.02 C51.28 60.64, 64.1 48.16, 86 20.43 M39.42 74.02 C50.48 60.65, 62.28 49.13, 86 20.43 M50.05 73.98 C64.16 58.45, 74.91 44.26, 86.13 32.47 M50.05 73.98 C61.46 61.4, 72.96 48.63, 86.13 32.47 M60.68 73.95 C66.95 65.11, 74.86 54.56, 85.61 45.27 M60.68 73.95 C67.61 66.81, 72.21 58.99, 85.61 45.27" stroke="#ffc9c9" stroke-width="1" fill="none"></path><path d="M17.41 0 C29.1 -1.84, 36.86 1.65, 65.12 0 M17.41 0 C32.51 -1.08, 48.18 -0.61, 65.12 0 M65.12 0 C77.83 0.33, 84.04 6.16, 82.54 17.41 M65.12 0 C78.96 -1.19, 82.44 4.3, 82.54 17.41 M82.54 17.41 C80.85 29.72, 84.04 43.06, 82.54 52.24 M82.54 17.41 C82.7 27.58, 83.14 37.35, 82.54 52.24 M82.54 52.24 C83.65 62.63, 75.95 70.35, 65.12 69.65 M82.54 52.24 C82.66 63.17, 77.05 71.25, 65.12 69.65 M65.12 69.65 C48.55 69.94, 26.98 68.63, 17.41 69.65 M65.12 69.65 C53.77 69.42, 43.06 69.63, 17.41 69.65 M17.41 69.65 C7.5 68.81, 1.07 64.78, 0 52.24 M17.41 69.65 C4.13 67.5, -0.94 64.48, 0 52.24 M0 52.24 C0.45 43.36, 0.71 32.6, 0 17.41 M0 52.24 C-0.83 42.36, -0.43 32.35, 0 17.41 M0 17.41 C-0.52 5.77, 7.74 -1.04, 17.41 0 M0 17.41 C1.85 6.03, 5.37 -1.99, 17.41 0" stroke="#e03131" stroke-width="2" fill="none"></path></g><g transform="translate(1137.9763006338026 88.53437325522464) rotate(0 20.25798797607422 17.5)"><text x="20.25798797607422" y="0" font-family="Virgil, Segoe UI Emoji" font-size="28px" fill="#e03131" text-anchor="middle" style="white-space: pre;" direction="ltr" dominant-baseline="text-before-edge">s-p</text></g><g stroke-linecap="round"><g transform="translate(137.71438940616702 103.81342941913567) rotate(0 66.5990990589483 -0.12557475777737181)"><path d="M0.42 -1.04 C22.74 -1.17, 110.79 -0.74, 132.93 -0.8 M-0.82 1.03 C21.41 1.06, 109.62 0.74, 131.84 0.46" stroke="#1e1e1e" stroke-width="2" fill="none"></path></g><g transform="translate(137.71438940616702 103.81342941913567) rotate(0 66.5990990589483 -0.12557475777737181)"><path d="M103.73 10.93 C108.06 8.13, 114.95 6.38, 131.84 0.46 M103.73 10.93 C110.04 9.35, 114.48 6.66, 131.84 0.46" stroke="#1e1e1e" stroke-width="2" fill="none"></path></g><g transform="translate(137.71438940616702 103.81342941913567) rotate(0 66.5990990589483 -0.12557475777737181)"><path d="M103.58 -9.59 C107.93 -7.97, 114.85 -5.29, 131.84 0.46 M103.58 -9.59 C109.87 -6.97, 114.33 -5.46, 131.84 0.46" stroke="#1e1e1e" stroke-width="2" fill="none"></path></g></g><mask></mask><g stroke-linecap="round"><g transform="translate(373.5199816243711 106.18258438974465) rotate(0 63.374250663890734 -0.44545526818723147)"><path d="M-0.93 -1.02 C20.29 -1.33, 105.86 -1.33, 127.25 -1.24 M0.78 1.06 C21.9 0.87, 105.53 0.73, 126.56 0.12" stroke="#1e1e1e" stroke-width="2" fill="none"></path></g><g transform="translate(373.5199816243711 106.18258438974465) rotate(0 63.374250663890734 -0.44545526818723147)"><path d="M98.51 10.76 C104.98 8.69, 114.33 5.8, 126.56 0.12 M98.51 10.76 C108.07 7.09, 117.97 4.42, 126.56 0.12" stroke="#1e1e1e" stroke-width="2" fill="none"></path></g><g transform="translate(373.5199816243711 106.18258438974465) rotate(0 63.374250663890734 -0.44545526818723147)"><path d="M98.24 -9.76 C104.9 -5.81, 114.32 -2.69, 126.56 0.12 M98.24 -9.76 C107.93 -6.52, 117.92 -2.28, 126.56 0.12" stroke="#1e1e1e" stroke-width="2" fill="none"></path></g></g><mask></mask><g stroke-linecap="round"><g transform="translate(595.0105434456854 104.70585099491745) rotate(0 52.139419935222406 0.8244282382913184)"><path d="M-0.37 0.38 C17.09 0.96, 86.56 2.26, 103.94 2.45" stroke="#1e1e1e" stroke-width="2.5" fill="none" stroke-dasharray="1.5 8"></path></g><g transform="translate(595.0105434456854 104.70585099491745) rotate(0 52.139419935222406 0.8244282382913184)"><path d="M75.59 12.27 C82.97 9.49, 90.34 7.17, 103.94 2.45" stroke="#1e1e1e" stroke-width="2.5" fill="none" stroke-dasharray="1.5 6"></path></g><g transform="translate(595.0105434456854 104.70585099491745) rotate(0 52.139419935222406 0.8244282382913184)"><path d="M75.92 -8.25 C83.04 -6.21, 90.34 -3.7, 103.94 2.45" stroke="#1e1e1e" stroke-width="2.5" fill="none" stroke-dasharray="1.5 6"></path></g></g><mask></mask><g stroke-linecap="round"><g transform="translate(794.4504794989773 104.82546884398312) rotate(0 60.443887565712885 1.3713968277248796)"><path d="M-0.16 -0.07 C19.95 0.54, 100.23 2.98, 120.25 3.52 M-1.7 -1.16 C18.84 -0.87, 101.95 1.43, 122.63 1.8" stroke="#1e1e1e" stroke-width="2" fill="none"></path></g><g transform="translate(794.4504794989773 104.82546884398312) rotate(0 60.443887565712885 1.3713968277248796)"><path d="M94.21 11.4 C101.66 7.83, 110.63 4.85, 122.63 1.8 M94.21 11.4 C104.46 7.34, 112.98 4.48, 122.63 1.8" stroke="#1e1e1e" stroke-width="2" fill="none"></path></g><g transform="translate(794.4504794989773 104.82546884398312) rotate(0 60.443887565712885 1.3713968277248796)"><path d="M94.69 -9.11 C101.99 -7.23, 110.83 -4.75, 122.63 1.8 M94.69 -9.11 C104.98 -6.28, 113.34 -2.27, 122.63 1.8" stroke="#1e1e1e" stroke-width="2" fill="none"></path></g></g><mask></mask><g stroke-linecap="round"><g transform="translate(1011.4793847447763 106.05292546228111) rotate(0 49.106105895069504 -0.09909221475254526)"><path d="M-0.77 0.36 C15.35 0.22, 80.95 -0.53, 97.62 -0.64 M1.03 -0.5 C17.47 -0.49, 83.69 0.43, 100.03 0.67" stroke="#1e1e1e" stroke-width="2" fill="none"></path></g><g transform="translate(1011.4793847447763 106.05292546228111) rotate(0 49.106105895069504 -0.09909221475254526)"><path d="M71.69 10.53 C82.95 6.01, 92.3 5.01, 100.03 0.67 M71.69 10.53 C80.74 8.4, 87.14 4.99, 100.03 0.67" stroke="#1e1e1e" stroke-width="2" fill="none"></path></g><g transform="translate(1011.4793847447763 106.05292546228111) rotate(0 49.106105895069504 -0.09909221475254526)"><path d="M71.98 -9.99 C83.16 -6.78, 92.4 -0.04, 100.03 0.67 M71.98 -9.99 C81.13 -6.16, 87.44 -3.62, 100.03 0.67" stroke="#1e1e1e" stroke-width="2" fill="none"></path></g></g><mask></mask><g stroke-linecap="round" transform="translate(514.3867857919084 155.06158724047327) rotate(0 134.69061914333662 40)"><path d="M2.85 7.77 C2.85 7.77, 2.85 7.77, 2.85 7.77 M2.85 7.77 C2.85 7.77, 2.85 7.77, 2.85 7.77 M1.01 22.08 C9.06 15.83, 13.98 4.15, 20.04 0.19 M1.01 22.08 C5.63 16.61, 11.91 9.72, 20.04 0.19 M1.14 34.12 C10.32 24.74, 16.18 14.8, 30.67 0.16 M1.14 34.12 C9.63 24.9, 17.04 15.79, 30.67 0.16 M1.28 46.16 C10.74 32.65, 22.36 19.78, 41.3 0.12 M1.28 46.16 C13.61 32.46, 25.95 17.46, 41.3 0.12 M0.75 58.96 C21.55 36.2, 38.72 15.33, 51.93 0.09 M0.75 58.96 C16.6 40.38, 34.93 19.73, 51.93 0.09 M2.86 68.73 C16.54 53.77, 28.44 39.31, 62.56 0.05 M2.86 68.73 C23.67 44.12, 44.56 19.77, 62.56 0.05 M6.93 76.25 C28.89 52.58, 50.18 25.98, 73.19 0.02 M6.93 76.25 C29.29 49.49, 52.67 24.09, 73.19 0.02 M14.93 79.23 C33.97 58.44, 51.19 41.55, 83.82 -0.01 M14.93 79.23 C40.88 50.02, 65.88 20.85, 83.82 -0.01 M24.25 80.7 C48.48 55.73, 72.41 25.5, 94.45 -0.05 M24.25 80.7 C50.21 50.56, 75.46 22.53, 94.45 -0.05 M34.88 80.67 C56.6 56.83, 74.22 34.99, 105.08 -0.08 M34.88 80.67 C57.07 54.11, 79.7 27.12, 105.08 -0.08 M45.51 80.64 C73.36 47.43, 98.79 18.63, 115.71 -0.12 M45.51 80.64 C65.82 56.55, 87.08 31.6, 115.71 -0.12 M56.14 80.6 C83.37 49.21, 110.67 16.62, 126.34 -0.15 M56.14 80.6 C75.44 56.68, 97.33 34.07, 126.34 -0.15 M66.77 80.57 C93.77 51.37, 117.83 19.49, 136.97 -0.19 M66.77 80.57 C92.27 52.54, 117.51 22.14, 136.97 -0.19 M77.4 80.53 C95.79 61.37, 113.64 39.47, 147.6 -0.22 M77.4 80.53 C96.43 58.37, 116.43 34.95, 147.6 -0.22 M88.03 80.5 C114.43 48.45, 144.15 17.81, 158.23 -0.26 M88.03 80.5 C102.2 64.18, 116.11 46.91, 158.23 -0.26 M98.66 80.46 C124.76 54.99, 148.57 25.62, 168.2 0.46 M98.66 80.46 C124.79 48.76, 152.15 20.07, 168.2 0.46 M109.29 80.43 C125.87 61.6, 143.86 42.96, 178.83 0.43 M109.29 80.43 C137.71 48.55, 164.98 17.08, 178.83 0.43 M119.92 80.39 C145.59 51.13, 168.27 21.48, 189.46 0.4 M119.92 80.39 C138.63 59.15, 158.53 36.25, 189.46 0.4 M130.55 80.36 C151.77 54.79, 173.64 33.45, 200.09 0.36 M130.55 80.36 C154.62 53.17, 178.91 25.58, 200.09 0.36 M141.18 80.33 C167.96 52.63, 190.69 24.83, 210.72 0.33 M141.18 80.33 C163.33 55.53, 185.93 30.97, 210.72 0.33 M151.81 80.29 C171.74 58.52, 191.53 36.43, 221.35 0.29 M151.81 80.29 C176.81 50.89, 201.36 20.4, 221.35 0.29 M162.44 80.26 C178.06 60.35, 194.97 44.41, 231.98 0.26 M162.44 80.26 C179.29 61.61, 193.08 44.62, 231.98 0.26 M173.07 80.22 C188.09 62.17, 205.26 46.69, 242.61 0.22 M173.07 80.22 C188.12 61.74, 204.52 43.91, 242.61 0.22 M183.7 80.19 C200.88 64.45, 214.2 43.39, 253.24 0.19 M183.7 80.19 C198.87 63.79, 214.25 45.61, 253.24 0.19 M194.33 80.15 C215.4 51.26, 239.71 25.38, 261.25 3.17 M194.33 80.15 C207.93 65.32, 220.71 50.04, 261.25 3.17 M204.96 80.12 C220.39 60.94, 233.18 46.08, 266.63 9.18 M204.96 80.12 C222.5 62.74, 238.72 42.44, 266.63 9.18 M215.59 80.08 C227.33 63.86, 239.98 51.43, 269.39 18.2 M215.59 80.08 C236.43 55.26, 259.3 30.95, 269.39 18.2 M225.56 80.8 C241.5 63.52, 254.08 48.63, 269.52 30.24 M225.56 80.8 C236.23 68.68, 245.65 57.76, 269.52 30.24 M236.19 80.77 C249.88 68.55, 261.21 51.68, 269.65 42.28 M236.19 80.77 C245.65 70.4, 253.99 60.64, 269.65 42.28 M246.82 80.74 C255.54 72.48, 262.26 61.89, 269.13 55.08 M246.82 80.74 C254.29 72.43, 261.76 62.34, 269.13 55.08 M259.42 78.44 C260.72 75.87, 263.99 75.21, 268.61 67.87 M259.42 78.44 C260.95 76.31, 263.12 73.73, 268.61 67.87" stroke="#a5d8ff" stroke-width="1" fill="none"></path><path d="M20 0 C76.89 -0.77, 134.28 -1.77, 249.38 0 M20 0 C72.06 -2.08, 123.13 -2.22, 249.38 0 M249.38 0 C264.19 -0.69, 271.13 5.93, 269.38 20 M249.38 0 C260.78 -0.98, 268.94 7.31, 269.38 20 M269.38 20 C267.53 33.12, 269.13 47.04, 269.38 60 M269.38 20 C270.37 32.03, 270.02 43.43, 269.38 60 M269.38 60 C270.99 71.38, 262.95 81.1, 249.38 80 M269.38 60 C270.75 71.55, 261.51 79.11, 249.38 80 M249.38 80 C171.21 79.89, 94.59 78.58, 20 80 M249.38 80 C159.99 80.45, 70.88 79.39, 20 80 M20 80 C7.56 79.97, -1.37 71.64, 0 60 M20 80 C7.21 77.76, -1.83 72.72, 0 60 M0 60 C0.92 44.87, 0.53 28.86, 0 20 M0 60 C-0.55 50.2, -0.97 39.48, 0 20 M0 20 C1.94 7.49, 6.7 0.94, 20 0 M0 20 C-0.46 6.16, 6.16 1.82, 20 0" stroke="#1971c2" stroke-width="2" fill="none"></path></g><g transform="translate(540.0034684728428 177.56158724047327) rotate(0 109.07393646240234 17.5)"><text x="109.07393646240234" y="0" font-family="Virgil, Segoe UI Emoji" font-size="28px" fill="#1971c2" text-anchor="middle" style="white-space: pre;" direction="ltr" dominant-baseline="text-before-edge">NetworkSpanSet</text></g><g stroke-linecap="round"><g transform="translate(614.6651875876873 282.2955906290215) rotate(0 -0.23079894129170953 111.75967407226551)"><path d="M0.59 0.57 C0.73 37.87, 1 185.77, 0.73 222.89 M-0.55 -0.18 C-0.47 37.35, 0.66 186.66, 0.4 224.1" stroke="#2f9e44" stroke-width="2" fill="none"></path></g><g transform="translate(614.6651875876873 282.2955906290215) rotate(0 -0.23079894129170953 111.75967407226551)"><path d="M-9.89 195.93 C-6.14 206.13, -5.11 211.48, 0.4 224.1 M-9.89 195.93 C-7.16 202.82, -4.26 211.18, 0.4 224.1" stroke="#2f9e44" stroke-width="2" fill="none"></path></g><g transform="translate(614.6651875876873 282.2955906290215) rotate(0 -0.23079894129170953 111.75967407226551)"><path d="M10.63 195.9 C8.35 206.21, 3.37 211.57, 0.4 224.1 M10.63 195.9 C7.61 202.99, 4.75 211.36, 0.4 224.1" stroke="#2f9e44" stroke-width="2" fill="none"></path></g></g><mask></mask><g stroke-linecap="round" transform="translate(360.0128488692027 541.7716736267673) rotate(0 275.70683070591525 37.602321500000016)"><path d="M5 4.35 C5 4.35, 5 4.35, 5 4.35 M5 4.35 C5 4.35, 5 4.35, 5 4.35 M0.55 21.67 C6.56 12.8, 14.25 6.42, 18.91 0.54 M0.55 21.67 C5.12 17.49, 9.24 12.55, 18.91 0.54 M0.68 33.72 C10.3 20.27, 22.85 9.21, 29.54 0.51 M0.68 33.72 C9.43 22.82, 18.79 12.78, 29.54 0.51 M0.81 45.76 C13.39 30.17, 24.66 17.24, 40.18 0.47 M0.81 45.76 C8.69 36.65, 16.19 27.86, 40.18 0.47 M0.94 57.8 C16.58 41.14, 31.43 22.29, 50.81 0.44 M0.94 57.8 C14.15 42.92, 26.75 28.99, 50.81 0.44 M3.05 67.57 C17.86 50.2, 36.08 33.28, 61.44 0.4 M3.05 67.57 C26.16 41.86, 47.56 16.57, 61.44 0.4 M8.43 73.58 C29.8 49.57, 53.69 21.64, 72.07 0.37 M8.43 73.58 C32.2 45.09, 56.6 17.78, 72.07 0.37 M17.75 75.05 C33.48 54.09, 52.25 37.93, 82.7 0.34 M17.75 75.05 C33.76 57.74, 47.63 41.84, 82.7 0.34 M28.38 75.02 C44.05 57.14, 61.54 35.37, 93.33 0.3 M28.38 75.02 C42.36 59.05, 56.34 42, 93.33 0.3 M39.01 74.98 C53.5 56.64, 70.29 42.36, 103.96 0.27 M39.01 74.98 C56.82 54.98, 73.74 35.54, 103.96 0.27 M48.98 75.7 C64.57 58.75, 79.34 41.31, 114.59 0.23 M48.98 75.7 C66.42 55.56, 82.61 36.31, 114.59 0.23 M59.61 75.67 C83.23 47.19, 108.19 17.16, 125.22 0.2 M59.61 75.67 C80.37 50.86, 103.48 25.44, 125.22 0.2 M70.24 75.63 C90.27 52.91, 108.51 31.02, 135.85 0.16 M70.24 75.63 C87.35 55.48, 105.19 34.92, 135.85 0.16 M80.87 75.6 C99.71 52.9, 119.92 33.2, 146.48 0.13 M80.87 75.6 C101.22 53.42, 120.03 30.49, 146.48 0.13 M91.5 75.56 C116.22 46.97, 138.52 18.91, 157.11 0.09 M91.5 75.56 C115.23 46.44, 140.83 19.3, 157.11 0.09 M102.13 75.53 C123.42 46.89, 148.22 21.53, 167.74 0.06 M102.13 75.53 C125.05 48.36, 146.75 22.72, 167.74 0.06 M112.76 75.5 C128.52 61.5, 140.31 43.18, 178.37 0.02 M112.76 75.5 C138.03 46.95, 164.07 17.14, 178.37 0.02 M123.39 75.46 C144.55 51.17, 167.6 22.46, 188.34 0.75 M123.39 75.46 C139.57 56.08, 157.45 36.23, 188.34 0.75 M134.02 75.43 C158.92 47.18, 183.77 19, 198.97 0.71 M134.02 75.43 C152.89 54.64, 171.32 30.84, 198.97 0.71 M144.65 75.39 C163.17 57.62, 180.67 37.36, 209.6 0.68 M144.65 75.39 C159.38 59.14, 172.13 42.69, 209.6 0.68 M155.28 75.36 C179.9 47.13, 205.24 18.95, 220.23 0.64 M155.28 75.36 C180.17 48.1, 202.19 21.05, 220.23 0.64 M165.91 75.32 C185.88 53.44, 202.69 31.46, 230.86 0.61 M165.91 75.32 C188.3 50.5, 210.31 25.72, 230.86 0.61 M176.54 75.29 C193.51 56.81, 210.38 34.38, 241.49 0.57 M176.54 75.29 C190.29 59.53, 202.41 44.2, 241.49 0.57 M187.17 75.25 C203.53 58.53, 215.76 43.41, 252.12 0.54 M187.17 75.25 C208.53 50.89, 228.68 28.57, 252.12 0.54 M197.8 75.22 C213.56 57.02, 228.36 41.24, 262.75 0.5 M197.8 75.22 C219.4 49.76, 241.88 26.31, 262.75 0.5 M208.43 75.19 C223.24 54.86, 242.09 38.72, 273.38 0.47 M208.43 75.19 C223.66 55.44, 240.33 37.77, 273.38 0.47 M219.06 75.15 C237.28 53.75, 251.86 34.46, 284.01 0.43 M219.06 75.15 C232.99 59.67, 246.67 42.64, 284.01 0.43 M229.69 75.12 C254.14 46.54, 281.27 19.09, 294.64 0.4 M229.69 75.12 C253.42 47.18, 277.98 19, 294.64 0.4 M240.32 75.08 C255.05 57.32, 269.33 39.7, 305.27 0.37 M240.32 75.08 C254.49 59.75, 269.07 43.32, 305.27 0.37 M250.3 75.8 C277.25 43.76, 301.9 17.58, 315.9 0.33 M250.3 75.8 C271.55 51.48, 292.65 27.62, 315.9 0.33 M260.93 75.77 C275.61 57.93, 289.84 42.25, 326.53 0.3 M260.93 75.77 C278.71 56.84, 294.65 36.99, 326.53 0.3 M271.56 75.73 C290.76 50.23, 314.21 29.94, 337.16 0.26 M271.56 75.73 C290.19 54.82, 308.58 32.26, 337.16 0.26 M282.19 75.7 C298.4 55.1, 315.28 39.56, 347.79 0.23 M282.19 75.7 C302.93 50.08, 325.29 26.14, 347.79 0.23 M292.82 75.66 C311.05 50.58, 334.47 31.42, 358.42 0.19 M292.82 75.66 C309.63 55.77, 324.9 38.52, 358.42 0.19 M303.45 75.63 C317.71 56.3, 335.96 39.45, 369.05 0.16 M303.45 75.63 C316.07 59.46, 329.58 45.2, 369.05 0.16 M314.08 75.6 C342.36 45.83, 365.79 16.16, 379.68 0.12 M314.08 75.6 C335.8 50.15, 357.71 24.74, 379.68 0.12 M324.71 75.56 C346.81 50.13, 372.44 22.62, 389.66 0.84 M324.71 75.56 C346.27 50.03, 368.66 25.75, 389.66 0.84 M335.34 75.53 C359.29 48.45, 382.1 19.78, 400.29 0.81 M335.34 75.53 C355.12 54.54, 372.22 33.14, 400.29 0.81 M345.97 75.49 C362.39 56.63, 376.34 37.41, 410.92 0.78 M345.97 75.49 C367.11 52.36, 387 27.04, 410.92 0.78 M356.6 75.46 C373.45 55.27, 388.63 37.34, 421.55 0.74 M356.6 75.46 C382.48 47.86, 406.46 18.7, 421.55 0.74 M367.23 75.42 C386.75 50.4, 406.95 29.86, 432.18 0.71 M367.23 75.42 C384.84 54.93, 401.72 35.7, 432.18 0.71 M377.86 75.39 C391.32 58.5, 407.54 39.93, 442.81 0.67 M377.86 75.39 C396.49 53.57, 415.52 31.33, 442.81 0.67 M388.49 75.35 C411.29 51.59, 430.94 23.1, 453.44 0.64 M388.49 75.35 C403.62 56.66, 419.71 39.15, 453.44 0.64 M399.12 75.32 C422.22 49.48, 443.37 27.56, 464.07 0.6 M399.12 75.32 C414.6 56.3, 431.05 37.25, 464.07 0.6 M409.75 75.28 C424.53 59.06, 439.72 42.37, 474.7 0.57 M409.75 75.28 C434.15 48.49, 458.69 19.83, 474.7 0.57 M420.38 75.25 C443.22 50.48, 465.33 24.74, 485.33 0.53 M420.38 75.25 C437.18 55.21, 455.65 32.9, 485.33 0.53 M431.01 75.22 C451.88 50.83, 468.66 29.09, 495.96 0.5 M431.01 75.22 C455.91 47.93, 478.99 19.13, 495.96 0.5 M440.98 75.94 C458.43 56.53, 479.19 32.71, 506.59 0.46 M440.98 75.94 C463.83 48.78, 485.87 24.02, 506.59 0.46 M451.61 75.9 C472.47 50.15, 495.7 25.87, 517.22 0.43 M451.61 75.9 C468.92 58.76, 482.83 40.59, 517.22 0.43 M462.24 75.87 C486.18 47.33, 511.27 21.66, 527.85 0.4 M462.24 75.87 C478.25 57.36, 491.7 40.75, 527.85 0.4 M472.87 75.83 C492.93 51.79, 515.51 27.78, 537.82 1.12 M472.87 75.83 C494.77 51.28, 515.17 27.61, 537.82 1.12 M483.5 75.8 C497.47 60.02, 513.49 43.68, 545.83 4.1 M483.5 75.8 C499.46 58.7, 514.01 41.91, 545.83 4.1 M494.13 75.76 C514.69 53.62, 535.33 26.49, 550.55 10.86 M494.13 75.76 C508.49 61.17, 521.59 45, 550.55 10.86 M504.76 75.73 C515.41 63.38, 526.41 50.84, 551.34 22.14 M504.76 75.73 C518.89 59.08, 533.89 41.23, 551.34 22.14 M515.39 75.69 C528.87 58.21, 544.67 43.71, 551.47 34.19 M515.39 75.69 C523.26 66.24, 529.9 57.89, 551.47 34.19 M526.02 75.66 C531.65 69.37, 539.66 58.78, 551.61 46.23 M526.02 75.66 C534.47 66.23, 542.51 58, 551.61 46.23 M537.31 74.87 C544.35 69.03, 548.9 61.89, 551.09 59.02 M537.31 74.87 C542.09 69.67, 547.27 64.97, 551.09 59.02" stroke="#ffc9c9" stroke-width="1" fill="none"></path><path d="M18.8 0 C186.19 0.36, 353.35 0.14, 532.61 0 M18.8 0 C124.67 -1.4, 230.3 -1.3, 532.61 0 M532.61 0 C544.3 0.55, 552.36 4.57, 551.41 18.8 M532.61 0 C546.83 -2.12, 551.82 7.45, 551.41 18.8 M551.41 18.8 C551.46 28.78, 551.45 39.12, 551.41 56.4 M551.41 18.8 C552.5 31.82, 552.78 44.52, 551.41 56.4 M551.41 56.4 C551.14 70.03, 546.78 76.32, 532.61 75.2 M551.41 56.4 C549.81 68.23, 545.72 76.39, 532.61 75.2 M532.61 75.2 C347.75 76.54, 163.01 77.59, 18.8 75.2 M532.61 75.2 C390.48 77.21, 248.35 76.66, 18.8 75.2 M18.8 75.2 C6.06 73.45, 0.86 67.14, 0 56.4 M18.8 75.2 C6.63 76.4, -1.4 69.54, 0 56.4 M0 56.4 C0.09 42.49, 0.98 33.02, 0 18.8 M0 56.4 C0.35 49.12, -0.27 41.68, 0 18.8 M0 18.8 C1.67 7.49, 4.96 -1.82, 18.8 0 M0 18.8 C0.68 8.51, 7.78 1.61, 18.8 0" stroke="#e03131" stroke-width="2" fill="none"></path></g><g transform="translate(610.4116961766804 556.8739951267673) rotate(0 25.3079833984375 22.5)"><text x="25.3079833984375" y="0" font-family="Virgil, Segoe UI Emoji" font-size="36px" fill="#e03131" text-anchor="middle" style="white-space: pre;" direction="ltr" dominant-baseline="text-before-edge">c-p</text></g><g stroke-linecap="round" transform="translate(371.56418815491713 637.3854704949035) rotate(0 264.1554914202009 37.602321500000016)"><path d="M5 4.35 C5 4.35, 5 4.35, 5 4.35 M5 4.35 C5 4.35, 5 4.35, 5 4.35 M0.55 21.67 C9.95 11.72, 14.27 4.07, 18.91 0.54 M0.55 21.67 C6.05 17, 10.42 9.81, 18.91 0.54 M0.68 33.72 C8.84 22.05, 17.37 13.9, 29.54 0.51 M0.68 33.72 C10.04 23.45, 19.44 12.61, 29.54 0.51 M0.81 45.76 C8.04 35.13, 15.75 26.51, 40.18 0.47 M0.81 45.76 C14.31 29.69, 27.68 14.1, 40.18 0.47 M0.94 57.8 C15.95 41.73, 31.45 23.47, 50.81 0.44 M0.94 57.8 C17.41 39.33, 31.96 20.63, 50.81 0.44 M3.05 67.57 C21.45 44.78, 40.11 21.37, 61.44 0.4 M3.05 67.57 C18.6 48.81, 34.99 31.44, 61.44 0.4 M8.43 73.58 C23.71 54.52, 42.93 33.27, 72.07 0.37 M8.43 73.58 C31.88 46.42, 56.34 19.42, 72.07 0.37 M17.75 75.05 C30.55 60.49, 46.99 41.42, 82.7 0.34 M17.75 75.05 C35.69 54.27, 55.93 31.53, 82.7 0.34 M28.38 75.02 C50.68 47.41, 76.94 18.74, 93.33 0.3 M28.38 75.02 C45.05 53.9, 62.63 33.84, 93.33 0.3 M39.01 74.98 C61.83 49.47, 81.77 26.97, 103.96 0.27 M39.01 74.98 C57.3 55.11, 76.05 34.29, 103.96 0.27 M48.98 75.7 C62.24 59.67, 74.98 42.7, 114.59 0.23 M48.98 75.7 C69.27 51.46, 89.83 27.36, 114.59 0.23 M59.61 75.67 C75.83 59.09, 90.05 44.56, 125.22 0.2 M59.61 75.67 C81.92 48.25, 107.23 21.56, 125.22 0.2 M70.24 75.63 C91.81 51.45, 114.08 24.65, 135.85 0.16 M70.24 75.63 C85.26 57.02, 101.78 39.26, 135.85 0.16 M80.87 75.6 C97.99 56.45, 112.8 38.58, 146.48 0.13 M80.87 75.6 C94.83 59.55, 111.44 41.41, 146.48 0.13 M91.5 75.56 C112.56 52.37, 130.22 27.56, 157.11 0.09 M91.5 75.56 C109.01 54.17, 129.44 31.56, 157.11 0.09 M102.13 75.53 C117.34 56.66, 135.64 37.18, 167.74 0.06 M102.13 75.53 C118.34 56.69, 137.83 34.8, 167.74 0.06 M112.76 75.5 C130.67 51.68, 153.35 27.74, 178.37 0.02 M112.76 75.5 C135.64 49.78, 159.54 22.61, 178.37 0.02 M123.39 75.46 C142.66 51.14, 165.7 29.09, 188.34 0.75 M123.39 75.46 C138.46 57.48, 153.36 40.95, 188.34 0.75 M134.02 75.43 C154.06 51.72, 174.21 29.02, 198.97 0.71 M134.02 75.43 C147.75 61.08, 160.6 45.62, 198.97 0.71 M144.65 75.39 C155.9 61.96, 169.44 46.41, 209.6 0.68 M144.65 75.39 C165.91 50.36, 186.64 26.1, 209.6 0.68 M155.28 75.36 C175 51.5, 194.36 29.78, 220.23 0.64 M155.28 75.36 C173.1 53.27, 191.05 32.78, 220.23 0.64 M165.91 75.32 C184.35 54.53, 198.2 35.25, 230.86 0.61 M165.91 75.32 C188.63 47.69, 212.74 21.35, 230.86 0.61 M176.54 75.29 C193.22 57.81, 206.55 40.06, 241.49 0.57 M176.54 75.29 C196.87 50.6, 219.62 25.22, 241.49 0.57 M187.17 75.25 C209.67 48.35, 234.5 19.79, 252.12 0.54 M187.17 75.25 C200.31 60.26, 212.87 45.09, 252.12 0.54 M197.8 75.22 C216.86 52.93, 235 32.83, 262.75 0.5 M197.8 75.22 C218.91 50.53, 237.9 26.83, 262.75 0.5 M208.43 75.19 C230.89 49.12, 255.3 21.37, 273.38 0.47 M208.43 75.19 C226.83 53.39, 247.27 29.88, 273.38 0.47 M219.06 75.15 C235.64 54.92, 251.87 33.85, 284.01 0.43 M219.06 75.15 C241.66 50.32, 263.62 26.55, 284.01 0.43 M229.69 75.12 C247.18 57.35, 261.34 39.5, 294.64 0.4 M229.69 75.12 C252.66 49.43, 275.02 22.09, 294.64 0.4 M240.32 75.08 C263.03 50.54, 280.9 26.33, 305.27 0.37 M240.32 75.08 C257.53 52.55, 276.48 32.37, 305.27 0.37 M250.3 75.8 C276.19 46.39, 299.14 19.25, 315.9 0.33 M250.3 75.8 C268.58 57, 284.43 37.72, 315.9 0.33 M260.93 75.77 C276.51 54.83, 296.43 34.6, 326.53 0.3 M260.93 75.77 C275.02 59.49, 289.97 41.05, 326.53 0.3 M271.56 75.73 C286.87 57.69, 300.33 44.9, 337.16 0.26 M271.56 75.73 C296.86 47.22, 323.18 16.87, 337.16 0.26 M282.19 75.7 C297.31 53.92, 315.76 35.41, 347.79 0.23 M282.19 75.7 C295.56 60.76, 309.08 43.98, 347.79 0.23 M292.82 75.66 C306.61 58.66, 322.11 37.63, 358.42 0.19 M292.82 75.66 C310.33 56.79, 327.46 35.28, 358.42 0.19 M303.45 75.63 C324.26 52.34, 345.81 29.34, 369.05 0.16 M303.45 75.63 C318.76 58.43, 331.95 40.65, 369.05 0.16 M314.08 75.6 C330.89 58.02, 344.62 39.99, 379.03 0.88 M314.08 75.6 C334.12 52.57, 354.15 29.94, 379.03 0.88 M324.71 75.56 C349.62 47.72, 372.26 21.25, 389.66 0.84 M324.71 75.56 C342.94 55.21, 362.12 32.4, 389.66 0.84 M335.34 75.53 C357.68 46.8, 382.2 21.12, 400.29 0.81 M335.34 75.53 C354.85 53.9, 372.62 31.36, 400.29 0.81 M345.97 75.49 C362.91 56.37, 382.11 35.97, 410.92 0.78 M345.97 75.49 C367.03 52.12, 386.77 28.45, 410.92 0.78 M356.6 75.46 C376.12 54.84, 396.52 29.78, 421.55 0.74 M356.6 75.46 C375.7 53.1, 393.62 31.66, 421.55 0.74 M367.23 75.42 C390.74 47.7, 415.66 21.96, 432.18 0.71 M367.23 75.42 C385.43 55.55, 403.1 34.76, 432.18 0.71 M377.86 75.39 C399.88 49.21, 422 25.8, 442.81 0.67 M377.86 75.39 C397.82 52.18, 419.83 26.9, 442.81 0.67 M388.49 75.35 C405.48 52.67, 423.53 31.88, 453.44 0.64 M388.49 75.35 C403.83 56.45, 419.25 38.89, 453.44 0.64 M399.12 75.32 C415.81 56.6, 430.84 36.91, 464.07 0.6 M399.12 75.32 C416.4 53.54, 435.23 31.48, 464.07 0.6 M409.75 75.28 C435.23 48.89, 457.91 19.94, 474.7 0.57 M409.75 75.28 C429.82 52.57, 450.3 27.97, 474.7 0.57 M420.38 75.25 C433.63 61.35, 449.22 45.46, 485.33 0.53 M420.38 75.25 C437.87 54.48, 455.83 34.29, 485.33 0.53 M431.01 75.22 C448.65 55.77, 463.93 37.01, 495.96 0.5 M431.01 75.22 C452.16 51.51, 472.05 26.16, 495.96 0.5 M440.98 75.94 C460.75 51.35, 483.82 27.49, 506.59 0.46 M440.98 75.94 C455.21 60, 467.57 43.66, 506.59 0.46 M451.61 75.9 C471.98 52.27, 494.1 24.4, 516.56 1.19 M451.61 75.9 C472.32 51, 495 27.54, 516.56 1.19 M462.24 75.87 C477.31 56.94, 491.53 40.15, 523.91 4.92 M462.24 75.87 C477.28 57.37, 491.68 39.35, 523.91 4.92 M472.87 75.83 C483.87 61.76, 495.7 49.1, 527.98 12.44 M472.87 75.83 C489.04 58.36, 504.67 41.21, 527.98 12.44 M483.5 75.8 C501.25 55.01, 518.43 33.3, 528.77 23.72 M483.5 75.8 C499.84 55.63, 516.35 36.56, 528.77 23.72 M494.13 75.76 C505.19 65.05, 512.63 53.7, 528.9 35.76 M494.13 75.76 C500.55 68.54, 508.17 60.78, 528.9 35.76 M504.76 75.73 C513.6 66.59, 522.19 58.64, 528.38 48.56 M504.76 75.73 C513.96 65.65, 521.12 57.07, 528.38 48.56 M516.05 74.94 C518.99 69.32, 522.95 67.97, 528.51 60.6 M516.05 74.94 C520.64 69.5, 525.46 64.42, 528.51 60.6" stroke="#b2f2bb" stroke-width="1" fill="none"></path><path d="M18.8 0 C143.9 1.4, 270.59 0.57, 509.51 0 M18.8 0 C127.55 -0.15, 235.84 -0.48, 509.51 0 M509.51 0 C522.39 -0.59, 527.21 6.44, 528.31 18.8 M509.51 0 C521.27 -0.75, 527.48 4.87, 528.31 18.8 M528.31 18.8 C527.99 27.37, 526.95 38.44, 528.31 56.4 M528.31 18.8 C528.44 27.04, 527.8 36.46, 528.31 56.4 M528.31 56.4 C528.7 67.3, 522.12 76.61, 509.51 75.2 M528.31 56.4 C527.81 67.1, 522.33 73.87, 509.51 75.2 M509.51 75.2 C405.59 76.91, 300.83 75.95, 18.8 75.2 M509.51 75.2 C327.11 76.6, 144.38 75.98, 18.8 75.2 M18.8 75.2 C5.96 75, 0.84 68.1, 0 56.4 M18.8 75.2 C8.43 75.56, -1.7 67.59, 0 56.4 M0 56.4 C-0.31 48.91, 1.69 37.97, 0 18.8 M0 56.4 C-0.76 48.02, 0.15 39.99, 0 18.8 M0 18.8 C-0.06 7.06, 7.94 1.86, 18.8 0 M0 18.8 C-0.29 8.19, 7.13 -1.93, 18.8 0" stroke="#2f9e44" stroke-width="2" fill="none"></path></g><g transform="translate(628.6916796971883 657.4877919949035) rotate(0 7.0279998779296875 17.5)"><text x="7.0279998779296875" y="0" font-family="Virgil, Segoe UI Emoji" font-size="28px" fill="#2f9e44" text-anchor="middle" style="white-space: pre;" direction="ltr" dominant-baseline="text-before-edge">c</text></g><g stroke-linecap="round" transform="translate(398.34990244063135 732.9992673630397) rotate(0 237.36977713448658 37.602321500000016)"><path d="M5 4.35 C5 4.35, 5 4.35, 5 4.35 M5 4.35 C5 4.35, 5 4.35, 5 4.35 M0.55 21.67 C7.79 15.19, 16.46 3.47, 18.91 0.54 M0.55 21.67 C6.26 15.11, 10.19 9.13, 18.91 0.54 M0.68 33.72 C9.38 24.39, 16.48 12.77, 29.54 0.51 M0.68 33.72 C8.12 23.54, 17.95 14.45, 29.54 0.51 M0.81 45.76 C12.04 32.99, 22.47 20.07, 40.18 0.47 M0.81 45.76 C12.04 32.2, 24.05 18.83, 40.18 0.47 M0.94 57.8 C15.93 38.8, 34.14 16.73, 50.81 0.44 M0.94 57.8 C20.64 36.29, 39.47 14.21, 50.81 0.44 M3.05 67.57 C18.25 48.42, 35.59 32.67, 61.44 0.4 M3.05 67.57 C16.42 52.96, 30.5 36.38, 61.44 0.4 M9.08 72.82 C23.8 56.21, 39.96 39.96, 72.07 0.37 M9.08 72.82 C25.39 56.24, 40.42 37.68, 72.07 0.37 M17.75 75.05 C35.33 53.59, 57.19 32.93, 82.7 0.34 M17.75 75.05 C38.99 51.35, 59.57 25.88, 82.7 0.34 M28.38 75.02 C50.08 52.21, 70.87 27.24, 93.33 0.3 M28.38 75.02 C47.55 52.55, 67.99 28.58, 93.33 0.3 M39.01 74.98 C56.96 54.84, 73.97 34.49, 103.96 0.27 M39.01 74.98 C56.03 56.13, 73.04 37.29, 103.96 0.27 M48.98 75.7 C66.36 59.71, 80.74 39.71, 114.59 0.23 M48.98 75.7 C72.22 48.86, 96.55 21.13, 114.59 0.23 M59.61 75.67 C84.11 47.65, 108.81 16.65, 125.22 0.2 M59.61 75.67 C78.88 54.14, 96.63 34.57, 125.22 0.2 M70.24 75.63 C86.71 52.74, 105.66 34.32, 135.85 0.16 M70.24 75.63 C91.71 51.21, 112.71 27.66, 135.85 0.16 M80.87 75.6 C107.63 47.02, 131.26 17.9, 146.48 0.13 M80.87 75.6 C99.61 55.69, 118.62 33.06, 146.48 0.13 M91.5 75.56 C109.27 56.34, 125.78 39.79, 157.11 0.09 M91.5 75.56 C107.47 56.14, 123.57 38.59, 157.11 0.09 M102.13 75.53 C122.61 52.95, 144.57 25.51, 167.74 0.06 M102.13 75.53 C120.93 53.17, 140.82 29.73, 167.74 0.06 M112.76 75.5 C135.28 47.74, 162.89 22.27, 178.37 0.02 M112.76 75.5 C127.57 57.54, 141.26 41.34, 178.37 0.02 M123.39 75.46 C145.81 50.69, 171.64 20.39, 188.34 0.75 M123.39 75.46 C138.09 57.98, 154.01 39.62, 188.34 0.75 M134.02 75.43 C158.63 46.46, 186.92 15.49, 198.97 0.71 M134.02 75.43 C158.8 47.55, 183.53 19.68, 198.97 0.71 M144.65 75.39 C170.99 45.4, 198.62 16.23, 209.6 0.68 M144.65 75.39 C165.47 50.38, 188.06 25.15, 209.6 0.68 M155.28 75.36 C173.57 53.44, 194.66 33.77, 220.23 0.64 M155.28 75.36 C173.56 54.66, 191.79 33.46, 220.23 0.64 M165.91 75.32 C185.64 52.81, 202.1 32.92, 230.86 0.61 M165.91 75.32 C186.14 51.1, 205.84 28.38, 230.86 0.61 M176.54 75.29 C202.22 47.07, 225.97 18.65, 241.49 0.57 M176.54 75.29 C189.68 60.99, 202.54 45.74, 241.49 0.57 M187.17 75.25 C208.99 49.01, 232.36 24.09, 252.12 0.54 M187.17 75.25 C211.94 45.3, 237.46 17.85, 252.12 0.54 M197.8 75.22 C221.39 47.85, 245.18 21.55, 262.75 0.5 M197.8 75.22 C223.34 46.41, 249.36 16.54, 262.75 0.5 M208.43 75.19 C226.08 56.91, 239.79 38.02, 273.38 0.47 M208.43 75.19 C225.45 54.62, 242.69 35.07, 273.38 0.47 M219.06 75.15 C237.53 55.37, 254.27 33.82, 284.01 0.43 M219.06 75.15 C234.15 57.61, 249.42 39.31, 284.01 0.43 M229.69 75.12 C254.46 45.09, 282.04 15.32, 294.64 0.4 M229.69 75.12 C244.29 58.64, 260.66 41.78, 294.64 0.4 M239.67 75.84 C252.99 58.11, 267.82 42.83, 305.27 0.37 M239.67 75.84 C257.85 56.68, 276.72 34.44, 305.27 0.37 M250.3 75.8 C272.57 53.69, 291.17 30.73, 315.9 0.33 M250.3 75.8 C273.46 49.44, 296.94 22.53, 315.9 0.33 M260.93 75.77 C282.93 48.74, 307.86 20.24, 326.53 0.3 M260.93 75.77 C285.61 45.91, 311.41 16.73, 326.53 0.3 M271.56 75.73 C285.14 59.04, 299.59 42.58, 337.16 0.26 M271.56 75.73 C292.74 52.91, 312.57 29.53, 337.16 0.26 M282.19 75.7 C304.6 51.08, 324.21 24.84, 347.79 0.23 M282.19 75.7 C297.06 58.32, 313.88 39.78, 347.79 0.23 M292.82 75.66 C315.11 52.74, 336.04 26.5, 358.42 0.19 M292.82 75.66 C319.54 45.09, 345.84 14.98, 358.42 0.19 M303.45 75.63 C318.72 56.26, 335.28 36.42, 369.05 0.16 M303.45 75.63 C317.64 60.53, 332.74 43.53, 369.05 0.16 M314.08 75.6 C329.32 56.43, 349.21 37.43, 379.03 0.88 M314.08 75.6 C332.25 53.78, 349.68 33.68, 379.03 0.88 M324.71 75.56 C346.23 50.49, 364.1 29.3, 389.66 0.84 M324.71 75.56 C343.53 56.7, 361.49 35.2, 389.66 0.84 M335.34 75.53 C352.29 53.34, 370.57 36.98, 400.29 0.81 M335.34 75.53 C351.49 56.43, 369.04 35.74, 400.29 0.81 M345.97 75.49 C369.63 47.49, 392.63 22.57, 410.92 0.78 M345.97 75.49 C364.8 52.87, 384.11 32.28, 410.92 0.78 M356.6 75.46 C374.9 54.45, 391.03 32.76, 421.55 0.74 M356.6 75.46 C372.09 58.88, 385.63 41.65, 421.55 0.74 M367.23 75.42 C389.91 49.79, 409.4 27.86, 432.18 0.71 M367.23 75.42 C389.75 49.74, 412 23.76, 432.18 0.71 M377.86 75.39 C401.02 46.84, 424.99 20.26, 442.81 0.67 M377.86 75.39 C392.94 55.91, 410.29 37.22, 442.81 0.67 M388.49 75.35 C406.34 56.43, 420.42 40.93, 453.44 0.64 M388.49 75.35 C402.27 59.91, 417.38 44.21, 453.44 0.64 M399.12 75.32 C417.88 55.59, 435.83 34.56, 463.41 1.36 M399.12 75.32 C413.79 58.36, 428.95 40.59, 463.41 1.36 M409.75 75.28 C433.41 51.08, 454.7 24.41, 470.1 5.85 M409.75 75.28 C425.15 55.14, 441.72 37.32, 470.1 5.85 M420.38 75.25 C439.93 53.1, 455.3 31.8, 474.17 13.36 M420.38 75.25 C437.02 57.92, 450.5 40.32, 474.17 13.36 M430.35 75.97 C442.13 62.73, 453.96 48.52, 474.96 24.65 M430.35 75.97 C439.73 66.12, 448.99 54.46, 474.96 24.65 M440.98 75.94 C455.4 61.33, 467.99 47.37, 474.44 37.45 M440.98 75.94 C449.61 65.99, 458.3 56.72, 474.44 37.45 M451.61 75.9 C460.14 66.45, 469.82 56.77, 474.57 49.49 M451.61 75.9 C457.59 67.6, 463.95 61.12, 474.57 49.49 M464.21 73.6 C466.99 70.45, 472.76 66.01, 474.71 61.53 M464.21 73.6 C467.69 69.74, 470.42 66.14, 474.71 61.53" stroke="#b2f2bb" stroke-width="1" fill="none"></path><path d="M18.8 0 C134.2 -0.26, 247.89 -0.08, 455.94 0 M18.8 0 C113.63 1.03, 208.22 0.62, 455.94 0 M455.94 0 C470.17 -0.43, 474.25 5.54, 474.74 18.8 M455.94 0 C468.52 1.61, 476.3 7.85, 474.74 18.8 M474.74 18.8 C474.1 26.33, 472.84 33.49, 474.74 56.4 M474.74 18.8 C474.85 30.14, 474.72 41.7, 474.74 56.4 M474.74 56.4 C473.17 68.31, 467.36 76.67, 455.94 75.2 M474.74 56.4 C474.47 70.26, 470.71 76.52, 455.94 75.2 M455.94 75.2 C316.26 74, 176.87 73.33, 18.8 75.2 M455.94 75.2 C307.43 76, 158.2 75.38, 18.8 75.2 M18.8 75.2 C8.22 74.43, 0.08 67.37, 0 56.4 M18.8 75.2 C8.18 74.17, -1.29 70.94, 0 56.4 M0 56.4 C0.25 42.96, -1.75 29.28, 0 18.8 M0 56.4 C0.96 48.18, 0.46 40.48, 0 18.8 M0 18.8 C0.44 7.18, 6.54 -1.71, 18.8 0 M0 18.8 C-1.4 6.09, 8.41 0.53, 18.8 0" stroke="#2f9e44" stroke-width="2" fill="none"></path></g><g transform="translate(608.4336917211141 753.1015888630398) rotate(0 27.285987854003906 17.5)"><text x="27.285987854003906" y="0" font-family="Virgil, Segoe UI Emoji" font-size="28px" fill="#2f9e44" text-anchor="middle" style="white-space: pre;" direction="ltr" dominant-baseline="text-before-edge">c-nd</text></g><g stroke-linecap="round" transform="translate(432.3900810120598 1076.9297582183408) rotate(0 203.32959856305803 37.602321079799026)"><path d="M5 4.35 C5 4.35, 5 4.35, 5 4.35 M5 4.35 C5 4.35, 5 4.35, 5 4.35 M1.86 20.16 C4.13 16.14, 8.45 12.57, 18.91 0.54 M1.86 20.16 C5.94 15.61, 10.7 10.81, 18.91 0.54 M1.99 32.21 C9.91 20.05, 22.31 11.65, 29.54 0.51 M1.99 32.21 C10.57 22.68, 18.8 12.97, 29.54 0.51 M2.12 44.25 C18.54 25.64, 31.7 10.54, 40.18 0.47 M2.12 44.25 C9.99 33.65, 20.03 23.25, 40.18 0.47 M2.91 55.53 C18.03 41.41, 28.84 22.84, 50.81 0.44 M2.91 55.53 C15.72 40.39, 29.89 24.32, 50.81 0.44 M3.7 66.82 C24.59 40.89, 47.56 17.54, 61.44 0.4 M3.7 66.82 C14.73 52.54, 28.04 39.15, 61.44 0.4 M8.43 73.58 C31.66 48.24, 57.7 19.17, 72.07 0.37 M8.43 73.58 C33.02 44.98, 57.45 15.82, 72.07 0.37 M16.43 76.56 C29.8 60.63, 44.12 44.87, 82.7 0.34 M16.43 76.56 C39.03 51.66, 60.09 26.6, 82.7 0.34 M27.06 76.53 C43.5 55.13, 60.06 35.92, 93.33 0.3 M27.06 76.53 C53.29 47.61, 79.81 15.8, 93.33 0.3 M37.69 76.49 C60.13 50.41, 79.6 29.38, 103.96 0.27 M37.69 76.49 C63.45 47.79, 88.22 18.76, 103.96 0.27 M48.32 76.46 C64.56 55.98, 82.49 35.64, 114.59 0.23 M48.32 76.46 C73.91 45.45, 100.31 16.24, 114.59 0.23 M58.95 76.42 C77.94 52.32, 97.91 30.71, 125.22 0.2 M58.95 76.42 C85.63 46.79, 110.3 16.92, 125.22 0.2 M69.58 76.39 C85.81 53.69, 104.95 32.92, 135.85 0.16 M69.58 76.39 C91.2 50.61, 112.86 26.13, 135.85 0.16 M80.21 76.35 C99.38 55.17, 119.18 31.98, 146.48 0.13 M80.21 76.35 C97.78 55.96, 116.9 32.95, 146.48 0.13 M90.84 76.32 C109.55 52.96, 129.58 32.68, 157.11 0.09 M90.84 76.32 C112.94 51.7, 134.33 28.03, 157.11 0.09 M100.82 77.04 C115.72 57.1, 134.2 35.93, 167.74 0.06 M100.82 77.04 C125.29 49.83, 149.17 20.59, 167.74 0.06 M111.45 77.01 C136.29 47.31, 163.28 16.45, 177.71 0.78 M111.45 77.01 C133.73 50.89, 155.09 26.9, 177.71 0.78 M122.08 76.97 C140.91 54, 162.91 31.38, 188.34 0.75 M122.08 76.97 C139.13 58.67, 155.03 39.08, 188.34 0.75 M132.71 76.94 C149.51 57.49, 164 42.1, 198.97 0.71 M132.71 76.94 C149.68 58.27, 166.3 38.79, 198.97 0.71 M143.34 76.9 C166.61 50.29, 187.25 25.01, 209.6 0.68 M143.34 76.9 C168.42 47.61, 193.64 19.37, 209.6 0.68 M153.97 76.87 C180.72 45.59, 205.22 15.65, 220.23 0.64 M153.97 76.87 C170.53 56.54, 187.93 38.71, 220.23 0.64 M164.6 76.83 C189.26 46.97, 216.48 20.44, 230.86 0.61 M164.6 76.83 C182.2 55.6, 200.09 35.27, 230.86 0.61 M175.23 76.8 C198.18 49.48, 217.5 25.81, 241.49 0.57 M175.23 76.8 C192.88 57.74, 208.82 37.45, 241.49 0.57 M185.86 76.76 C207.19 52.33, 225.21 30.8, 252.12 0.54 M185.86 76.76 C201.5 58.23, 219.31 39.33, 252.12 0.54 M196.49 76.73 C213.92 53.38, 233.47 33.62, 262.75 0.5 M196.49 76.73 C211.18 60.82, 223.63 46.25, 262.75 0.5 M207.12 76.69 C223.81 54.6, 245.57 33.58, 273.38 0.47 M207.12 76.69 C229.84 49.51, 253.42 22.81, 273.38 0.47 M217.75 76.66 C242.9 51.15, 263.26 24.43, 284.01 0.43 M217.75 76.66 C232.61 59.03, 248.23 42.62, 284.01 0.43 M228.38 76.63 C249.26 49.47, 271.67 24.14, 294.64 0.4 M228.38 76.63 C253.62 47.9, 278.82 18.03, 294.64 0.4 M239.01 76.59 C252.75 62.46, 268.44 42.96, 305.27 0.37 M239.01 76.59 C258.46 53.1, 279.32 32.35, 305.27 0.37 M249.64 76.56 C274.66 47.11, 300.61 15.16, 315.9 0.33 M249.64 76.56 C268.31 53.83, 286.16 33.03, 315.9 0.33 M260.27 76.52 C275.59 60.96, 290.65 41.52, 326.53 0.3 M260.27 76.52 C281.98 52.62, 302.81 27.3, 326.53 0.3 M270.9 76.49 C295.15 48.56, 321.98 17.41, 337.16 0.26 M270.9 76.49 C284.35 62.33, 298.95 46.6, 337.16 0.26 M280.87 77.21 C301.26 54.67, 324.24 28.08, 347.79 0.23 M280.87 77.21 C297.29 55.96, 315.58 35.47, 347.79 0.23 M291.5 77.17 C306.92 60.58, 320.55 42.07, 358.42 0.19 M291.5 77.17 C316.71 49.53, 338.67 22.11, 358.42 0.19 M302.13 77.14 C319.68 54.55, 341.4 33.18, 368.4 0.91 M302.13 77.14 C318.53 57.02, 336.4 37.15, 368.4 0.91 M312.76 77.1 C334.72 49.45, 361.37 21.94, 379.03 0.88 M312.76 77.1 C339.29 48.64, 363.67 20.21, 379.03 0.88 M323.39 77.07 C342.28 51.95, 364.81 30.82, 389.66 0.84 M323.39 77.07 C343.49 55.55, 361.37 32.05, 389.66 0.84 M334.02 77.04 C350.21 58.46, 368.05 37.91, 397.01 4.58 M334.02 77.04 C347.08 61.73, 362.53 46.1, 397.01 4.58 M344.65 77 C360.61 60.82, 372.45 46.02, 405.01 7.57 M344.65 77 C360.37 59.92, 376.08 42.33, 405.01 7.57 M355.28 76.97 C375.46 55.65, 396.11 32.14, 409.74 14.33 M355.28 76.97 C375.87 52.08, 398.2 27.13, 409.74 14.33 M365.91 76.93 C379.3 62.57, 391.37 47.54, 412.49 23.35 M365.91 76.93 C382.84 57.79, 398.1 38.44, 412.49 23.35 M376.54 76.9 C383.68 69.13, 390.29 60.75, 411.97 36.14 M376.54 76.9 C389.87 61.28, 403.19 46.18, 411.97 36.14 M388.49 75.35 C397.82 66.56, 404 54.9, 412.1 48.18 M388.49 75.35 C395.18 66.37, 402.28 59.32, 412.1 48.18" stroke="#b2f2bb" stroke-width="1" fill="none"></path><path d="M18.8 0 C126.77 0.48, 232.39 0.69, 387.86 0 M18.8 0 C127.05 2.28, 234.72 1.69, 387.86 0 M387.86 0 C400.06 0.17, 408.54 4.85, 406.66 18.8 M387.86 0 C399.24 2.19, 406.24 5.68, 406.66 18.8 M406.66 18.8 C406.58 29.5, 406.09 40.28, 406.66 56.4 M406.66 18.8 C407.23 26.97, 407.56 37.26, 406.66 56.4 M406.66 56.4 C407.1 69.47, 398.48 75.93, 387.86 75.2 M406.66 56.4 C405.82 66.9, 402.25 73.46, 387.86 75.2 M387.86 75.2 C252.34 77.22, 115.98 76.48, 18.8 75.2 M387.86 75.2 C281.95 73.27, 174.4 73.37, 18.8 75.2 M18.8 75.2 C5.12 74.9, 1.51 69.5, 0 56.4 M18.8 75.2 C5.98 73.78, -1.56 69.36, 0 56.4 M0 56.4 C1.64 45.42, -1.46 35.82, 0 18.8 M0 56.4 C-0.72 42.61, -0.28 29.79, 0 18.8 M0 18.8 C-1.34 7.04, 7.89 1.84, 18.8 0 M0 18.8 C0.51 6.32, 6.38 0.76, 18.8 0" stroke="#2f9e44" stroke-width="2" fill="none"></path></g><g transform="translate(607.8596942235553 1097.0320792981397) rotate(0 27.8599853515625 17.5)"><text x="27.8599853515625" y="0" font-family="Virgil, Segoe UI Emoji" font-size="28px" fill="#2f9e44" text-anchor="middle" style="white-space: pre;" direction="ltr" dominant-baseline="text-before-edge">s-nd</text></g><g stroke-linecap="round" transform="translate(454.6556624155196 1178.2633767209634) rotate(0 181.06401715959828 37.602321500000016)"><path d="M5 4.35 C5 4.35, 5 4.35, 5 4.35 M5 4.35 C5 4.35, 5 4.35, 5 4.35 M0.55 21.67 C5.9 17.58, 9.15 11.24, 18.91 0.54 M0.55 21.67 C5.6 15.91, 9.38 12.21, 18.91 0.54 M0.68 33.72 C8.66 25.9, 15.63 17.16, 29.54 0.51 M0.68 33.72 C10.87 22.07, 19.78 11.05, 29.54 0.51 M0.81 45.76 C14.79 27.28, 29.77 11.59, 40.18 0.47 M0.81 45.76 C16.64 27.33, 31.35 9.53, 40.18 0.47 M0.94 57.8 C12.83 41.41, 26.33 30.26, 50.81 0.44 M0.94 57.8 C19.71 35.58, 39.63 15.05, 50.81 0.44 M3.05 67.57 C18.85 48.75, 34.43 31.32, 61.44 0.4 M3.05 67.57 C22.88 44.07, 40.95 22.56, 61.44 0.4 M8.43 73.58 C26 56.22, 40.36 35.81, 72.07 0.37 M8.43 73.58 C28.28 50.96, 46.53 29.58, 72.07 0.37 M17.75 75.05 C32.14 57.57, 50.77 39.29, 82.7 0.34 M17.75 75.05 C35.09 52.99, 53.81 32.83, 82.7 0.34 M28.38 75.02 C43.26 58.98, 54.11 45.99, 93.33 0.3 M28.38 75.02 C45.62 53.34, 65.69 32.26, 93.33 0.3 M39.01 74.98 C60.71 48.02, 84.63 21.36, 103.96 0.27 M39.01 74.98 C62.92 49.7, 84.11 23.68, 103.96 0.27 M48.98 75.7 C63.02 57.84, 78.66 42.96, 114.59 0.23 M48.98 75.7 C70.42 49.5, 92.73 24.06, 114.59 0.23 M59.61 75.67 C84.4 47.32, 109.39 16.81, 125.22 0.2 M59.61 75.67 C73.26 60.8, 87.87 43.26, 125.22 0.2 M70.24 75.63 C89.1 51.39, 110.9 32.8, 135.85 0.16 M70.24 75.63 C95.49 46.39, 121.17 15.79, 135.85 0.16 M80.87 75.6 C99.64 52.13, 116.04 32.75, 146.48 0.13 M80.87 75.6 C95.92 59.34, 110.67 41.32, 146.48 0.13 M91.5 75.56 C113.91 52.31, 134.17 26.28, 157.11 0.09 M91.5 75.56 C116.04 47.11, 142.12 16.97, 157.11 0.09 M102.13 75.53 C115.21 62.25, 130.88 46.36, 167.74 0.06 M102.13 75.53 C122.52 52.56, 144.11 27.67, 167.74 0.06 M112.76 75.5 C127.78 54.67, 145.81 35.05, 177.71 0.78 M112.76 75.5 C127.23 59.26, 140.79 42.25, 177.71 0.78 M123.39 75.46 C148.74 47.95, 168.25 21.2, 188.34 0.75 M123.39 75.46 C141.35 53.92, 161.27 32.83, 188.34 0.75 M134.02 75.43 C149.41 55.48, 167 36.62, 198.97 0.71 M134.02 75.43 C156.33 48.39, 181.23 21.32, 198.97 0.71 M144.65 75.39 C171.61 47.57, 194.69 20.24, 209.6 0.68 M144.65 75.39 C163.76 51.34, 184.83 29.5, 209.6 0.68 M155.28 75.36 C175.91 54.71, 192.04 30.32, 220.23 0.64 M155.28 75.36 C172.03 55.86, 189.72 35.5, 220.23 0.64 M165.91 75.32 C178.46 59.7, 196.22 43.57, 230.86 0.61 M165.91 75.32 C181.96 58.05, 195.93 41.39, 230.86 0.61 M176.54 75.29 C193.85 57.27, 210.77 38.77, 241.49 0.57 M176.54 75.29 C200.14 48.93, 223.87 21.76, 241.49 0.57 M187.17 75.25 C210.96 45.47, 238.09 15.72, 252.12 0.54 M187.17 75.25 C205.12 54.52, 222.66 33.78, 252.12 0.54 M197.8 75.22 C221.81 48.38, 242.36 21.14, 262.75 0.5 M197.8 75.22 C211.17 59.46, 224.58 43.65, 262.75 0.5 M208.43 75.19 C232.94 46.46, 257.4 18.77, 273.38 0.47 M208.43 75.19 C231.46 49.78, 252.42 23.39, 273.38 0.47 M219.06 75.15 C237.68 51.07, 257.16 30.88, 284.01 0.43 M219.06 75.15 C233.47 58.55, 249.57 40.92, 284.01 0.43 M229.04 75.87 C253.21 48.52, 277.48 21.84, 294.64 0.4 M229.04 75.87 C248.02 54.63, 267.39 33.05, 294.64 0.4 M239.67 75.84 C256.85 56.87, 273.55 35.02, 305.27 0.37 M239.67 75.84 C261.14 51.82, 281.07 27.73, 305.27 0.37 M250.3 75.8 C273.92 48.75, 295.94 23.52, 315.9 0.33 M250.3 75.8 C265.71 57.5, 282.33 37.87, 315.9 0.33 M260.93 75.77 C275.39 58.67, 286.87 44.16, 326.53 0.3 M260.93 75.77 C275.97 58.67, 290.31 40.51, 326.53 0.3 M271.56 75.73 C285.88 59.94, 300.8 40.12, 337.16 0.26 M271.56 75.73 C294.98 49.43, 317.99 21.34, 337.16 0.26 M282.19 75.7 C301.13 54.99, 322.26 29.94, 347.79 0.23 M282.19 75.7 C296.7 58.53, 311.81 42.16, 347.79 0.23 M292.82 75.66 C311.41 54.82, 327.41 33.27, 355.8 3.21 M292.82 75.66 C316.01 49.02, 341.67 21.03, 355.8 3.21 M303.45 75.63 C317.66 59.18, 333.78 42.43, 360.52 9.97 M303.45 75.63 C324.7 49.99, 347.22 26.5, 360.52 9.97 M314.08 75.6 C331.35 55.03, 345.67 37.85, 362.62 19.75 M314.08 75.6 C328.14 59.07, 343.51 41.52, 362.62 19.75 M324.71 75.56 C337.41 61.94, 347.88 48.93, 362.76 31.79 M324.71 75.56 C336.62 60.61, 347.99 47.85, 362.76 31.79 M335.34 75.53 C346.16 63.85, 353.9 51.8, 362.89 43.83 M335.34 75.53 C345.24 63.89, 355.13 53.07, 362.89 43.83 M346.62 74.74 C352.75 67.89, 358.24 61.43, 362.37 56.62 M346.62 74.74 C350.49 70.14, 355.58 65.6, 362.37 56.62" stroke="#b2f2bb" stroke-width="1" fill="none"></path><path d="M18.8 0 C144.1 -0.23, 272.36 -1.57, 343.33 0 M18.8 0 C140.73 1.57, 263.1 1.75, 343.33 0 M343.33 0 C357.86 -0.37, 360.97 6.48, 362.13 18.8 M343.33 0 C355.3 2.15, 362.4 7.18, 362.13 18.8 M362.13 18.8 C363.87 32.35, 364.15 46.45, 362.13 56.4 M362.13 18.8 C361.7 26.96, 362.82 34.34, 362.13 56.4 M362.13 56.4 C362.85 67.67, 356.01 75.48, 343.33 75.2 M362.13 56.4 C361.75 69.38, 355.48 75.79, 343.33 75.2 M343.33 75.2 C240.27 73.87, 137.88 72.65, 18.8 75.2 M343.33 75.2 C218.59 72.4, 94.69 72.89, 18.8 75.2 M18.8 75.2 C4.62 76.34, -0.71 69.44, 0 56.4 M18.8 75.2 C5.01 73, 0.31 67.86, 0 56.4 M0 56.4 C1.08 45.89, -2.06 34.11, 0 18.8 M0 56.4 C-0.38 46.96, 0.36 36.69, 0 18.8 M0 18.8 C0.25 4.29, 8.09 0.05, 18.8 0 M0 18.8 C1.31 5.03, 6.86 0, 18.8 0" stroke="#2f9e44" stroke-width="2" fill="none"></path></g><g transform="translate(628.1176821996296 1198.3656982209636) rotate(0 7.601997375488281 17.5)"><text x="7.601997375488281" y="0" font-family="Virgil, Segoe UI Emoji" font-size="28px" fill="#2f9e44" text-anchor="middle" style="white-space: pre;" direction="ltr" dominant-baseline="text-before-edge">s</text></g><g stroke-linecap="round" transform="translate(489.53293815491713 1278.4065489378718) rotate(0 146.1867414202007 34.50058850000005)"><path d="M4.59 3.99 C4.59 3.99, 4.59 3.99, 4.59 3.99 M4.59 3.99 C4.59 3.99, 4.59 3.99, 4.59 3.99 M0.79 20.56 C6.32 15.64, 9.15 8.25, 18.5 0.18 M0.79 20.56 C5.85 15.57, 8.92 11.05, 18.5 0.18 M0.92 32.6 C7.86 22.78, 18.48 12.69, 29.13 0.15 M0.92 32.6 C11.58 20.06, 22.31 7.22, 29.13 0.15 M1.05 44.64 C10.39 35.11, 15.8 25.28, 39.76 0.11 M1.05 44.64 C13.13 32.19, 24.89 17.74, 39.76 0.11 M1.84 55.93 C10.77 43.4, 23.4 33.18, 50.39 0.08 M1.84 55.93 C20.68 34.97, 39.21 13.76, 50.39 0.08 M4.6 64.95 C25.27 44.5, 42.23 19.96, 61.02 0.05 M4.6 64.95 C25.22 39.69, 46.98 15.02, 61.02 0.05 M11.95 68.69 C33.84 42.22, 56.38 16.34, 71.65 0.01 M11.95 68.69 C34.55 43.02, 58.6 14.4, 71.65 0.01 M22.58 68.66 C38.02 49.26, 57.61 31.18, 82.28 -0.02 M22.58 68.66 C41.75 46.8, 59.51 26.92, 82.28 -0.02 M33.21 68.62 C47.47 52.29, 60.66 35.39, 92.91 -0.06 M33.21 68.62 C46.6 53.6, 60.19 35.7, 92.91 -0.06 M43.84 68.59 C62.14 50.54, 76.85 28.47, 103.54 -0.09 M43.84 68.59 C61.84 47.87, 77.92 29.22, 103.54 -0.09 M54.47 68.55 C72.91 47.74, 92.53 24.66, 114.17 -0.13 M54.47 68.55 C68.45 51.77, 82.66 36.04, 114.17 -0.13 M65.1 68.52 C85.22 45.9, 107.35 21.6, 124.8 -0.16 M65.1 68.52 C83.68 45.36, 104.19 22.18, 124.8 -0.16 M75.73 68.48 C92.66 46.47, 112.57 26.73, 135.43 -0.2 M75.73 68.48 C92.61 48.95, 109.27 28.99, 135.43 -0.2 M86.36 68.45 C107.21 44.34, 127.68 22.48, 145.41 0.52 M86.36 68.45 C108.37 43.77, 128.64 17.57, 145.41 0.52 M96.34 69.17 C113.21 50.57, 132.32 30.64, 156.04 0.49 M96.34 69.17 C117.13 46.09, 136.77 23.06, 156.04 0.49 M106.97 69.13 C122.06 51.7, 141.31 31.45, 166.67 0.46 M106.97 69.13 C129.39 44.8, 149.85 20.12, 166.67 0.46 M117.6 69.1 C132.27 51.26, 147.68 37.46, 177.3 0.42 M117.6 69.1 C137.33 47.5, 157.04 24.44, 177.3 0.42 M128.23 69.06 C139.96 53.48, 154.72 37.5, 187.93 0.39 M128.23 69.06 C151.69 41.48, 173.29 15.61, 187.93 0.39 M138.86 69.03 C157.16 45.58, 175.19 26.12, 198.56 0.35 M138.86 69.03 C153.39 52.49, 168.72 33.81, 198.56 0.35 M149.49 69 C173.14 44.36, 195.4 18.37, 209.19 0.32 M149.49 69 C171.52 43.73, 191.61 20.18, 209.19 0.32 M160.12 68.96 C171.86 55.09, 185.29 38.39, 219.82 0.28 M160.12 68.96 C178.13 48.7, 196.94 26.74, 219.82 0.28 M170.75 68.93 C183.53 54.58, 196.56 38, 230.45 0.25 M170.75 68.93 C188.42 49.26, 207.46 28.11, 230.45 0.25 M181.38 68.89 C206.36 40.11, 229.3 13.67, 241.08 0.21 M181.38 68.89 C202.55 45.18, 223.04 21.16, 241.08 0.21 M192.01 68.86 C213.1 40.9, 237.26 14.79, 251.71 0.18 M192.01 68.86 C208.09 49.44, 224.48 32.18, 251.71 0.18 M202.64 68.82 C221.62 51.43, 234.88 29.38, 262.34 0.14 M202.64 68.82 C224.92 42.5, 247.45 15.08, 262.34 0.14 M213.27 68.79 C233.3 48.78, 250.45 25.69, 272.97 0.11 M213.27 68.79 C227.3 52.82, 240.32 36.16, 272.97 0.11 M223.9 68.75 C236.11 55.56, 245.81 40.03, 282.29 1.59 M223.9 68.75 C243.42 46.15, 262.03 25.16, 282.29 1.59 M234.53 68.72 C247.79 53.49, 261.91 38.33, 288.98 6.08 M234.53 68.72 C247.16 54.45, 258.79 42.45, 288.98 6.08 M245.16 68.69 C260.29 52.52, 272.18 37.51, 291.74 15.1 M245.16 68.69 C257.07 55.38, 267.77 42.2, 291.74 15.1 M255.79 68.65 C263.65 60.47, 272.46 48.23, 292.53 26.39 M255.79 68.65 C266.68 56.01, 277.77 43.21, 292.53 26.39 M265.76 69.37 C276.85 56.21, 288.4 46.02, 292.66 38.43 M265.76 69.37 C274.44 60.71, 281.82 50.86, 292.66 38.43 M277.05 68.58 C283.86 61.96, 288.72 56.35, 292.79 50.47 M277.05 68.58 C282.22 63.26, 285.01 58.07, 292.79 50.47" stroke="#ffc9c9" stroke-width="1" fill="none"></path><path d="M17.25 0 C81.23 0.36, 146.33 0.36, 275.12 0 M17.25 0 C94.28 -0.01, 171.89 -0.7, 275.12 0 M275.12 0 C285.19 -0.85, 292.48 5.23, 292.37 17.25 M275.12 0 C285.56 -2.01, 292.07 7.91, 292.37 17.25 M292.37 17.25 C291.33 29.26, 293.56 44.49, 292.37 51.75 M292.37 17.25 C292.96 26.55, 292.8 36.38, 292.37 51.75 M292.37 51.75 C293.03 63.6, 287.97 70.02, 275.12 69 M292.37 51.75 C290.66 61.26, 286.88 67.95, 275.12 69 M275.12 69 C206.14 69.71, 134.25 70.27, 17.25 69 M275.12 69 C193.93 70.15, 114.11 70.02, 17.25 69 M17.25 69 C5.95 69.18, -1.85 64.59, 0 51.75 M17.25 69 C6.29 71.12, -0.44 65.17, 0 51.75 M0 51.75 C0.48 40.2, -1.75 27.59, 0 17.25 M0 51.75 C-1.02 44.13, -0.27 35.63, 0 17.25 M0 17.25 C0.35 3.91, 5.79 0.77, 17.25 0 M0 17.25 C1.2 6.76, 4.33 2.24, 17.25 0" stroke="#e03131" stroke-width="2" fill="none"></path></g><g transform="translate(609.673697214278 1290.4071374378718) rotate(0 26.045982360839844 22.5)"><text x="26.045982360839844" y="0" font-family="Virgil, Segoe UI Emoji" font-size="36px" fill="#e03131" text-anchor="middle" style="white-space: pre;" direction="ltr" dominant-baseline="text-before-edge">s-p</text></g><g stroke-linecap="round" transform="translate(266.8023124573723 522.4022587052104) rotate(0 365.829598563058 155.09669712611617)"><path d="M32 0 C202.79 2.45, 375.45 1.62, 699.66 0 M699.66 0 C720.63 0.3, 732.46 11.23, 731.66 32 M731.66 32 C728.28 126.01, 728.55 221.45, 731.66 278.19 M731.66 278.19 C731.07 300.21, 722.05 308.82, 699.66 310.19 M699.66 310.19 C532.14 312.14, 364.41 311.6, 32 310.19 M32 310.19 C8.9 309.58, 1.93 301.23, 0 278.19 M0 278.19 C-3.27 199.7, -0.53 118.57, 0 32 M0 32 C-1.27 8.98, 11.66 -1.92, 32 0" stroke="#9c36b5" stroke-width="2.5" fill="none" stroke-dasharray="8 10"></path></g><g stroke-linecap="round" transform="translate(354.4138760036893 1054.9543565707231) rotate(0 281.3058035714285 158.5658264160154)"><path d="M32 0 C217.83 0.9, 403.31 1.15, 530.61 0 M530.61 0 C552.67 1.08, 562.43 10.24, 562.61 32 M562.61 32 C560.93 94.56, 563.02 153.95, 562.61 285.13 M562.61 285.13 C561.17 306.09, 550.88 317.94, 530.61 317.13 M530.61 317.13 C406.78 314.52, 282.39 315.95, 32 317.13 M32 317.13 C10.05 316.8, -0.58 307.6, 0 285.13 M0 285.13 C-0.69 194.51, -1.82 102.67, 0 32 M0 32 C-0.25 10.57, 11.52 -0.57, 32 0" stroke="#9c36b5" stroke-width="2.5" fill="none" stroke-dasharray="8 10"></path></g><g transform="translate(1021.7705305795819 671.2117243860139) rotate(0 79.07196044921875 17.5)"><text x="79.07196044921875" y="0" font-family="Virgil, Segoe UI Emoji" font-size="28px" fill="#1971c2" text-anchor="middle" style="white-space: pre;" direction="ltr" dominant-baseline="text-before-edge">Client Side </text></g><g stroke-linecap="round"><g transform="translate(1203.930172390408 737.152930091929) rotate(0 -0.3533935546876137 -50.82774571010043)"><path d="M-1.2 0.75 C-1.35 -16.13, -0.93 -84.05, -0.89 -100.93 M0.37 0.1 C0.04 -17.16, -1.57 -85.61, -1.94 -102.68" stroke="#1971c2" stroke-width="2" fill="none"></path></g><g transform="translate(1203.930172390408 737.152930091929) rotate(0 -0.3533935546876137 -50.82774571010043)"><path d="M8.96 -74.73 C6.84 -83.58, 3.5 -92.13, -1.94 -102.68 M8.96 -74.73 C4.73 -86.53, 1.14 -96.39, -1.94 -102.68" stroke="#1971c2" stroke-width="2" fill="none"></path></g><g transform="translate(1203.930172390408 737.152930091929) rotate(0 -0.3533935546876137 -50.82774571010043)"><path d="M-11.56 -74.26 C-7.49 -83.04, -4.64 -91.74, -1.94 -102.68 M-11.56 -74.26 C-7.72 -86.1, -3.25 -96.15, -1.94 -102.68" stroke="#1971c2" stroke-width="2" fill="none"></path></g></g><mask></mask><g transform="translate(942.8641922965878 1162.6178871929335) rotate(0 84.39196014404297 17.5)"><text x="84.39196014404297" y="0" font-family="Virgil, Segoe UI Emoji" font-size="28px" fill="#f08c00" text-anchor="middle" style="white-space: pre;" direction="ltr" dominant-baseline="text-before-edge">Server Side </text></g><g stroke-linecap="round" transform="translate(413.90051802377855 860.7349425434452) rotate(0 221.81916155133928 37.420009068080276)"><path d="M4.98 4.33 C4.98 4.33, 4.98 4.33, 4.98 4.33 M4.98 4.33 C4.98 4.33, 4.98 4.33, 4.98 4.33 M0.52 21.65 C5.81 15.25, 9.94 7.41, 18.89 0.52 M0.52 21.65 C4.98 15.69, 10.71 10.04, 18.89 0.52 M0.65 33.69 C13.27 19.82, 22.78 9.47, 29.52 0.49 M0.65 33.69 C10.29 21.71, 21.87 9.05, 29.52 0.49 M0.79 45.73 C7.6 36.88, 20.32 26.12, 40.15 0.45 M0.79 45.73 C12.99 30.87, 24.81 17.06, 40.15 0.45 M0.92 57.78 C14.54 43.56, 25.33 29.52, 50.78 0.42 M0.92 57.78 C14.74 41.59, 29.71 24.02, 50.78 0.42 M3.68 66.8 C16.17 53.8, 27.42 38.45, 61.41 0.38 M3.68 66.8 C22.67 45.73, 39.91 25.65, 61.41 0.38 M9.06 72.8 C29.21 51.6, 49.76 28.9, 72.04 0.35 M9.06 72.8 C29.24 51.07, 48.57 27.42, 72.04 0.35 M17.72 75.03 C39.79 50.55, 62.29 25.62, 82.67 0.31 M17.72 75.03 C35.56 56.08, 51.45 36.56, 82.67 0.31 M28.35 75 C47.58 52.26, 72.48 27.88, 93.3 0.28 M28.35 75 C48.34 51.41, 68.46 27.86, 93.3 0.28 M38.98 74.96 C54.79 57.98, 70.94 40.22, 103.93 0.25 M38.98 74.96 C59.51 53.48, 77.47 31.4, 103.93 0.25 M49.61 74.93 C67.87 54.77, 88.69 30.69, 114.56 0.21 M49.61 74.93 C67.36 55.46, 84.37 34.08, 114.56 0.21 M60.24 74.89 C77.18 56.25, 94.07 34.19, 125.19 0.18 M60.24 74.89 C75.41 57.04, 90.67 38.78, 125.19 0.18 M70.87 74.86 C93.66 51.82, 116.46 26.21, 135.82 0.14 M70.87 74.86 C86.19 58.53, 101 40.11, 135.82 0.14 M81.5 74.82 C96.94 59.43, 110.93 42.89, 146.45 0.11 M81.5 74.82 C99.39 52.34, 118.44 30.95, 146.45 0.11 M91.48 75.54 C111.4 53.54, 126.65 30.31, 157.08 0.07 M91.48 75.54 C112.3 51.23, 133.78 25.06, 157.08 0.07 M102.11 75.51 C125.04 49.87, 147.32 23.52, 167.06 0.79 M102.11 75.51 C120.94 51.61, 141.84 29.73, 167.06 0.79 M112.74 75.47 C129.99 55.98, 147.7 34.37, 177.69 0.76 M112.74 75.47 C134.68 49.81, 155.82 27.27, 177.69 0.76 M123.37 75.44 C140.84 53.42, 159.56 32.47, 188.32 0.72 M123.37 75.44 C146.81 50.45, 169.95 23.85, 188.32 0.72 M134 75.41 C154.55 50.32, 176.71 25.7, 198.95 0.69 M134 75.41 C156.31 50.91, 176 26.36, 198.95 0.69 M144.63 75.37 C162.35 56.4, 176.19 36.13, 209.58 0.66 M144.63 75.37 C164.29 49.82, 185.68 27.35, 209.58 0.66 M155.26 75.34 C180.34 46.5, 206.04 17.83, 220.21 0.62 M155.26 75.34 C170.34 57.98, 186.6 39.41, 220.21 0.62 M165.89 75.3 C180.63 60.17, 190.95 45.76, 230.84 0.59 M165.89 75.3 C185.12 51.46, 207.13 26.59, 230.84 0.59 M176.52 75.27 C194.37 55.01, 211.36 34.76, 241.47 0.55 M176.52 75.27 C196.29 51.86, 214.94 30.97, 241.47 0.55 M187.15 75.23 C214.39 44.62, 237.75 15.62, 252.1 0.52 M187.15 75.23 C206.56 52.86, 225.22 29.64, 252.1 0.52 M197.78 75.2 C219.37 50.84, 240.85 26.71, 262.73 0.48 M197.78 75.2 C222.09 46.17, 245.81 19.04, 262.73 0.48 M208.41 75.16 C228.77 52.98, 246.12 29.97, 273.36 0.45 M208.41 75.16 C222.14 59.41, 234.94 44.96, 273.36 0.45 M219.04 75.13 C241.62 46.24, 267.66 21.22, 283.99 0.41 M219.04 75.13 C235.85 56.06, 250.7 37.35, 283.99 0.41 M229.67 75.1 C247.99 51.5, 268.23 31.69, 294.62 0.38 M229.67 75.1 C245.93 56.99, 263 37.57, 294.62 0.38 M240.3 75.06 C264.17 49.23, 284.52 21.2, 305.25 0.34 M240.3 75.06 C262.02 50.18, 283.46 25.03, 305.25 0.34 M250.93 75.03 C276.7 47.82, 299.77 17.9, 315.88 0.31 M250.93 75.03 C277.77 44.9, 302.75 15.32, 315.88 0.31 M261.56 74.99 C280.07 52.29, 302.54 29.23, 326.51 0.28 M261.56 74.99 C285.26 48.8, 307.66 21.93, 326.51 0.28 M272.19 74.96 C297.2 44.68, 324.72 19.09, 337.14 0.24 M272.19 74.96 C293.05 49.85, 313.33 26.38, 337.14 0.24 M282.16 75.68 C309.26 48.12, 334.79 15.45, 347.77 0.21 M282.16 75.68 C300.63 54.13, 319.52 33.37, 347.77 0.21 M292.79 75.64 C308.52 58.47, 324.86 42.33, 357.74 0.93 M292.79 75.64 C308.74 57.66, 326.23 37.71, 357.74 0.93 M303.42 75.61 C319.14 58.9, 334.16 40.65, 368.37 0.89 M303.42 75.61 C327.08 46.48, 352.88 18.01, 368.37 0.89 M314.05 75.57 C332.29 54.84, 350.16 33.48, 379 0.86 M314.05 75.57 C332.33 54.97, 350.72 33, 379 0.86 M324.68 75.54 C349.93 47.33, 374.72 20.26, 389.63 0.82 M324.68 75.54 C348.11 49.7, 371.3 22.31, 389.63 0.82 M335.31 75.51 C353.09 51.48, 375.68 30.11, 400.26 0.79 M335.31 75.51 C356.61 52.09, 376.17 29.07, 400.26 0.79 M345.94 75.47 C360.53 55.92, 378.6 39.54, 410.89 0.75 M345.94 75.47 C361.79 56.66, 378.68 38.99, 410.89 0.75 M356.57 75.44 C371.28 60.02, 383.85 43.19, 421.52 0.72 M356.57 75.44 C373.58 55.43, 389.41 37.83, 421.52 0.72 M367.2 75.4 C382.19 57.75, 395.16 42.07, 431.5 1.44 M367.2 75.4 C385.05 54.23, 403.8 32.5, 431.5 1.44 M377.83 75.37 C394.02 55.09, 409.91 36.89, 438.85 5.18 M377.83 75.37 C394.41 55.53, 410.17 38.13, 438.85 5.18 M388.46 75.33 C407.54 51.75, 426.52 33.79, 442.92 12.69 M388.46 75.33 C402.67 58.93, 415.88 43.35, 442.92 12.69 M399.09 75.3 C411.46 59.05, 423.43 48.83, 443.7 23.98 M399.09 75.3 C413.98 57.58, 430.52 40.39, 443.7 23.98 M409.72 75.26 C422.63 62.49, 435.41 45.2, 443.84 36.02 M409.72 75.26 C421.7 60.74, 434.2 47.74, 443.84 36.02 M420.35 75.23 C423.31 68.48, 429.01 62.31, 443.97 48.06 M420.35 75.23 C426.82 68.24, 430.53 62.7, 443.97 48.06 M432.29 73.69 C434.99 69.04, 438.3 65.44, 443.45 60.86 M432.29 73.69 C434.91 69.04, 438.49 65.32, 443.45 60.86" stroke="#b2f2bb" stroke-width="1" fill="none"></path><path d="M18.71 0 C133.29 -0.19, 249.12 -2.01, 424.93 0 M18.71 0 C112.71 0.68, 205.99 0.95, 424.93 0 M424.93 0 C436.06 -1.78, 444.54 6.51, 443.64 18.71 M424.93 0 C438.07 -0.95, 441.62 4.07, 443.64 18.71 M443.64 18.71 C445.05 30.33, 444.03 42.66, 443.64 56.13 M443.64 18.71 C443.34 28.24, 443.63 36.48, 443.64 56.13 M443.64 56.13 C442.99 66.78, 435.84 73.31, 424.93 74.84 M443.64 56.13 C445 70.43, 435.55 74.72, 424.93 74.84 M424.93 74.84 C321.7 73.18, 220.3 74.92, 18.71 74.84 M424.93 74.84 C342.39 73.13, 260.47 72.87, 18.71 74.84 M18.71 74.84 C7.18 73.37, 1.96 69.18, 0 56.13 M18.71 74.84 C4.55 75.13, -2 70.31, 0 56.13 M0 56.13 C-0.16 43.08, 0.27 31.08, 0 18.71 M0 56.13 C-0.48 46.61, -0.13 38.46, 0 18.71 M0 18.71 C-1.98 6.43, 5.61 0.38, 18.71 0 M0 18.71 C0.02 4.61, 7.31 -1.41, 18.71 0" stroke="#2f9e44" stroke-width="2" fill="none"></path></g><g transform="translate(560.5677096654499 880.6549516115253) rotate(0 75.15196990966797 17.5)"><text x="75.15196990966797" y="0" font-family="Virgil, Segoe UI Emoji" font-size="28px" fill="#2f9e44" text-anchor="middle" style="white-space: pre;" direction="ltr" dominant-baseline="text-before-edge">C-Gateway</text></g><g stroke-linecap="round" transform="translate(432.39008101206 956.2334951383114) rotate(0 203.3295985630579 37.602321079799026)"><path d="M5 4.35 C5 4.35, 5 4.35, 5 4.35 M5 4.35 C5 4.35, 5 4.35, 5 4.35 M1.86 20.16 C5.72 15.77, 12.24 10, 18.91 0.54 M1.86 20.16 C7.68 13.35, 14.66 5.46, 18.91 0.54 M1.99 32.21 C10.15 22.97, 20.19 11.3, 29.54 0.51 M1.99 32.21 C11.47 21.29, 21.92 8.67, 29.54 0.51 M2.12 44.25 C15.68 28.9, 29.18 11.63, 40.18 0.47 M2.12 44.25 C10.45 35.02, 18.13 24.48, 40.18 0.47 M2.91 55.53 C16.84 41.96, 29.22 23.53, 50.81 0.44 M2.91 55.53 C17.26 40.43, 29.99 25.12, 50.81 0.44 M3.7 66.82 C23.12 46.77, 41.85 22.16, 61.44 0.4 M3.7 66.82 C22.73 43.06, 44.14 20.62, 61.44 0.4 M8.43 73.58 C31.21 46.42, 51.08 21.56, 72.07 0.37 M8.43 73.58 C29.36 48.95, 49.9 24.92, 72.07 0.37 M16.43 76.56 C33.24 53.03, 52.6 32.77, 82.7 0.34 M16.43 76.56 C38.88 49.97, 63.24 22.88, 82.7 0.34 M27.06 76.53 C39.72 60.7, 52.51 44.79, 93.33 0.3 M27.06 76.53 C45.87 54.34, 66.74 32.45, 93.33 0.3 M37.69 76.49 C59.97 52.55, 78.86 27.58, 103.96 0.27 M37.69 76.49 C60.11 50.81, 81.73 24.39, 103.96 0.27 M48.32 76.46 C65.13 57.81, 82.68 39.72, 114.59 0.23 M48.32 76.46 C63.37 59.87, 76.13 43.07, 114.59 0.23 M58.95 76.42 C82.44 46.88, 109.04 19.78, 125.22 0.2 M58.95 76.42 C75.87 57, 91.68 39.99, 125.22 0.2 M69.58 76.39 C90.66 51.29, 106.97 31.89, 135.85 0.16 M69.58 76.39 C89.58 52.96, 110.19 29.45, 135.85 0.16 M80.21 76.35 C104.84 50.08, 126.22 25.44, 146.48 0.13 M80.21 76.35 C102.75 51.37, 124.27 27.19, 146.48 0.13 M90.84 76.32 C105.98 58, 119.97 42.46, 157.11 0.09 M90.84 76.32 C107.87 57.43, 124.48 38.24, 157.11 0.09 M100.82 77.04 C123.46 54.87, 140.84 30.51, 167.74 0.06 M100.82 77.04 C121.56 54.67, 140.38 33.69, 167.74 0.06 M111.45 77.01 C136.53 48.65, 159.7 22.85, 177.71 0.78 M111.45 77.01 C133.42 54.06, 151.85 29.84, 177.71 0.78 M122.08 76.97 C137.03 60.28, 152.09 42.48, 188.34 0.75 M122.08 76.97 C141.59 53.4, 162.78 28.38, 188.34 0.75 M132.71 76.94 C152.46 52.59, 171.59 31.33, 198.97 0.71 M132.71 76.94 C145.77 61.04, 160.12 46.71, 198.97 0.71 M143.34 76.9 C170.28 47.78, 194.72 18.09, 209.6 0.68 M143.34 76.9 C159.84 58.51, 175.67 40.5, 209.6 0.68 M153.97 76.87 C167.13 61.93, 185.11 46.11, 220.23 0.64 M153.97 76.87 C171.47 59.08, 187.64 38.6, 220.23 0.64 M164.6 76.83 C185.35 52.45, 211.43 24.67, 230.86 0.61 M164.6 76.83 C180.64 58.13, 194.7 41.19, 230.86 0.61 M175.23 76.8 C192.04 56.6, 206.42 39.67, 241.49 0.57 M175.23 76.8 C189.11 59.8, 203.36 42.83, 241.49 0.57 M185.86 76.76 C209.79 50.81, 233.38 20.48, 252.12 0.54 M185.86 76.76 C204.28 55.05, 221.52 36.01, 252.12 0.54 M196.49 76.73 C213.91 56.6, 232.68 34.75, 262.75 0.5 M196.49 76.73 C214.06 55.63, 233.3 35.56, 262.75 0.5 M207.12 76.69 C219.48 60.26, 232.71 45.44, 273.38 0.47 M207.12 76.69 C222.55 59.63, 237.69 40.4, 273.38 0.47 M217.75 76.66 C240.14 49.94, 261.49 25.31, 284.01 0.43 M217.75 76.66 C233.7 59.47, 247.35 40.79, 284.01 0.43 M228.38 76.63 C254.03 50.55, 276.07 21.57, 294.64 0.4 M228.38 76.63 C245.44 55.95, 263.26 37.01, 294.64 0.4 M239.01 76.59 C254.82 59.42, 271.02 42.25, 305.27 0.37 M239.01 76.59 C257.78 54.31, 277.98 32.67, 305.27 0.37 M249.64 76.56 C277.33 48.14, 300.57 14.85, 315.9 0.33 M249.64 76.56 C263.76 61.59, 276.29 45.55, 315.9 0.33 M260.27 76.52 C276.33 55.95, 291.89 37.34, 326.53 0.3 M260.27 76.52 C281.08 53.63, 302.57 29.23, 326.53 0.3 M270.9 76.49 C297.27 48.41, 320.84 17.17, 337.16 0.26 M270.9 76.49 C292.23 51.94, 314.32 25.77, 337.16 0.26 M280.87 77.21 C304.49 51.68, 327.07 24.71, 347.79 0.23 M280.87 77.21 C304.5 48.08, 329.87 20.66, 347.79 0.23 M291.5 77.17 C311.15 53.64, 332.31 29.41, 358.42 0.19 M291.5 77.17 C306.92 59.57, 323.03 40.51, 358.42 0.19 M302.13 77.14 C321.21 54.04, 339.13 33.28, 368.4 0.91 M302.13 77.14 C326.81 49.03, 350.63 21.14, 368.4 0.91 M312.76 77.1 C330.38 57.53, 342.75 40.2, 379.03 0.88 M312.76 77.1 C335.09 50.2, 356.76 26.18, 379.03 0.88 M323.39 77.07 C346.68 53.6, 365.91 30, 389.66 0.84 M323.39 77.07 C351.26 45.84, 376.52 16.44, 389.66 0.84 M334.02 77.04 C354.97 53.72, 377.07 29.08, 397.01 4.58 M334.02 77.04 C358.12 49.44, 382.33 23.5, 397.01 4.58 M344.65 77 C365.53 54.02, 387.87 28.09, 405.01 7.57 M344.65 77 C358.49 60.83, 372.17 45.35, 405.01 7.57 M355.28 76.97 C372.82 56.59, 391.13 37.73, 409.74 14.33 M355.28 76.97 C373.34 56.68, 389.36 35.86, 409.74 14.33 M365.91 76.93 C379.51 59.9, 394.16 41.81, 412.49 23.35 M365.91 76.93 C384.47 57.11, 402.08 35.48, 412.49 23.35 M376.54 76.9 C389.53 62.73, 399.54 48.82, 411.97 36.14 M376.54 76.9 C384.91 66.14, 393.94 56.56, 411.97 36.14 M388.49 75.35 C393.89 69.75, 400.1 63.23, 412.1 48.18 M388.49 75.35 C396.73 67.58, 402.8 57.6, 412.1 48.18" stroke="#b2f2bb" stroke-width="1" fill="none"></path><path d="M18.8 0 C126.29 1.47, 234.28 1.69, 387.86 0 M18.8 0 C148.9 2.62, 278.93 2.36, 387.86 0 M387.86 0 C399.33 1.41, 407.07 8.21, 406.66 18.8 M387.86 0 C399.92 -1.95, 406.56 7.08, 406.66 18.8 M406.66 18.8 C406.92 27.25, 406.38 34.49, 406.66 56.4 M406.66 18.8 C407.63 30.19, 406.04 40.04, 406.66 56.4 M406.66 56.4 C408.04 70.79, 398.73 76.81, 387.86 75.2 M406.66 56.4 C407.94 68.08, 399.2 74.75, 387.86 75.2 M387.86 75.2 C276.14 73.24, 163.16 72.5, 18.8 75.2 M387.86 75.2 C269.65 77.48, 151.25 77.44, 18.8 75.2 M18.8 75.2 C7.72 74.34, 1.71 68.51, 0 56.4 M18.8 75.2 C4.81 73.59, 0.2 68.95, 0 56.4 M0 56.4 C0.32 43.36, -0.23 30.94, 0 18.8 M0 56.4 C-0.46 43.84, 0.61 32.38, 0 18.8 M0 18.8 C-1.09 7.48, 4.89 -1.4, 18.8 0 M0 18.8 C1.27 7.04, 5.07 0.82, 18.8 0" stroke="#2f9e44" stroke-width="2" fill="none"></path></g><g transform="translate(561.0717150975789 976.3358162181103) rotate(0 74.64796447753906 17.5)"><text x="74.64796447753906" y="0" font-family="Virgil, Segoe UI Emoji" font-size="28px" fill="#2f9e44" text-anchor="middle" style="white-space: pre;" direction="ltr" dominant-baseline="text-before-edge">S-Gateway</text></g><g stroke-linecap="round" transform="translate(179.41418117947035 843.4338735562797) rotate(0 456.90102713448647 102.01825823102683)"><path d="M32 0 C261.68 -2.68, 491.92 -1.81, 881.8 0 M881.8 0 C901.37 0.85, 913.57 9.7, 913.8 32 M913.8 32 C911.61 67.97, 913.9 103.67, 913.8 172.04 M913.8 172.04 C912.83 195.21, 901.46 202.14, 881.8 204.04 M881.8 204.04 C657.41 201.54, 432.89 201.41, 32 204.04 M32 204.04 C9.17 205.07, -0.72 193.43, 0 172.04 M0 172.04 C0.8 144.56, 1.88 114.03, 0 32 M0 32 C-0.64 11.12, 11.72 1.24, 32 0" stroke="#9c36b5" stroke-width="2.5" fill="none" stroke-dasharray="8 10"></path></g><g stroke-linecap="round"><g transform="translate(963.9378453814791 908.910209354271) rotate(0 92.61544363839278 -68.21990966796886)"><path d="M0.45 -1.13 C30.16 -2.04, 146.51 17.25, 177.34 -5.32 C208.17 -27.88, 184.19 -114.73, 185.4 -136.54 M-0.78 0.89 C28.86 -0.39, 145.45 15.59, 176.37 -7.1 C207.29 -29.8, 183.36 -113.98, 184.73 -135.28" stroke="#1971c2" stroke-width="2" fill="none"></path></g><g transform="translate(963.9378453814791 908.910209354271) rotate(0 92.61544363839278 -68.21990966796886)"><path d="M197.87 -108.31 C193.06 -114.25, 193.12 -119.82, 184.73 -135.28 M197.87 -108.31 C194.86 -117.01, 191.12 -123.16, 184.73 -135.28" stroke="#1971c2" stroke-width="2" fill="none"></path></g><g transform="translate(963.9378453814791 908.910209354271) rotate(0 92.61544363839278 -68.21990966796886)"><path d="M177.46 -106.17 C177.13 -112.66, 181.68 -118.69, 184.73 -135.28 M177.46 -106.17 C180.41 -115.55, 182.62 -122.31, 184.73 -135.28" stroke="#1971c2" stroke-width="2" fill="none"></path></g></g><mask></mask><g stroke-linecap="round"><g transform="translate(960.850164019872 996.5403014301637) rotate(0 106.54758998325894 86.30955287388406)"><path d="M0.88 -0.05 C33.39 1.75, 160.23 -17.34, 195.56 11.31 C230.89 39.96, 210.02 145.08, 212.84 171.84 M-0.12 -1.12 C32.26 0.75, 159.69 -16.69, 195.04 12.29 C230.38 41.27, 209.04 146.03, 211.94 172.74" stroke="#f08c00" stroke-width="2" fill="none"></path></g><g transform="translate(960.850164019872 996.5403014301637) rotate(0 106.54758998325894 86.30955287388406)"><path d="M202.89 144.14 C206.03 155.2, 207.43 163.21, 211.94 172.74 M202.89 144.14 C203.93 151.61, 207.56 157.79, 211.94 172.74" stroke="#f08c00" stroke-width="2" fill="none"></path></g><g transform="translate(960.850164019872 996.5403014301637) rotate(0 106.54758998325894 86.30955287388406)"><path d="M223.39 145.02 C219.51 155.93, 213.91 163.64, 211.94 172.74 M223.39 145.02 C219.62 152.15, 218.44 158.12, 211.94 172.74" stroke="#f08c00" stroke-width="2" fill="none"></path></g></g><mask></mask><g transform="translate(1199.3910379561164 841.8434957486627) rotate(0 159.31993103027344 17.5)"><text x="159.31993103027344" y="0" font-family="Virgil, Segoe UI Emoji" font-size="28px" fill="#1971c2" text-anchor="middle" style="white-space: pre;" direction="ltr" dominant-baseline="text-before-edge">Same agnet with c-side</text></g><g transform="translate(1208.7910645500062 1055.9117265138693) rotate(0 159.8939208984375 17.5)"><text x="159.8939208984375" y="0" font-family="Virgil, Segoe UI Emoji" font-size="28px" fill="#f08c00" text-anchor="middle" style="white-space: pre;" direction="ltr" dominant-baseline="text-before-edge">Same agent with s-side</text></g><g stroke-linecap="round"><g transform="translate(1557.4703618832832 905.1865427419291) rotate(0 -0.3533935546876137 -50.82774571010043)"><path d="M0.48 -1.09 C0.26 -17.91, -1.57 -85.37, -1.66 -101.99 M-0.73 0.95 C-0.55 -15.59, 0.51 -83.35, 0.55 -100.63" stroke="#1971c2" stroke-width="2" fill="none"></path></g><g transform="translate(1557.4703618832832 905.1865427419291) rotate(0 -0.3533935546876137 -50.82774571010043)"><path d="M10.53 -72.34 C6.28 -81.54, 4.84 -86.53, 0.55 -100.63 M10.53 -72.34 C7.27 -82.25, 2.42 -92.83, 0.55 -100.63" stroke="#1971c2" stroke-width="2" fill="none"></path></g><g transform="translate(1557.4703618832832 905.1865427419291) rotate(0 -0.3533935546876137 -50.82774571010043)"><path d="M-9.99 -72.54 C-8.71 -81.76, -4.6 -86.7, 0.55 -100.63 M-9.99 -72.54 C-5.66 -82.34, -2.92 -92.85, 0.55 -100.63" stroke="#1971c2" stroke-width="2" fill="none"></path></g></g><mask></mask><g stroke-linecap="round"><g transform="translate(1117.3675474252746 1142.9454263922275) rotate(0 -0.24178641183027594 54.99441964285711)"><path d="M0.62 -0.78 C0.34 17.47, -1.64 91.58, -1.64 109.94 M-0.52 1.43 C-0.45 19.84, 0.3 93.29, 0.47 111.45" stroke="#f08c00" stroke-width="2" fill="none"></path></g><g transform="translate(1117.3675474252746 1142.9454263922275) rotate(0 -0.24178641183027594 54.99441964285711)"><path d="M-10.06 83.36 C-8.05 89.92, -3.64 102.27, 0.47 111.45 M-10.06 83.36 C-7.95 90.53, -5.04 97.31, 0.47 111.45" stroke="#f08c00" stroke-width="2" fill="none"></path></g><g transform="translate(1117.3675474252746 1142.9454263922275) rotate(0 -0.24178641183027594 54.99441964285711)"><path d="M10.46 83.16 C6.23 89.89, 4.4 102.3, 0.47 111.45 M10.46 83.16 C7.46 90.19, 5.27 97.02, 0.47 111.45" stroke="#f08c00" stroke-width="2" fill="none"></path></g></g><mask></mask><g stroke-linecap="round"><g transform="translate(1561.8912988203635 1036.2787306612008) rotate(0 -0.24178641183027594 54.99441964285711)"><path d="M-0.71 -0.31 C-0.72 17.88, -0.37 91.59, -0.21 110.06 M1.13 -1.52 C0.99 16.8, -0.8 93.3, -1.02 111.63" stroke="#f08c00" stroke-width="2" fill="none"></path></g><g transform="translate(1561.8912988203635 1036.2787306612008) rotate(0 -0.24178641183027594 54.99441964285711)"><path d="M-10.76 83.26 C-8.25 91.92, -4.82 100.82, -1.02 111.63 M-10.76 83.26 C-7.92 93.2, -4.26 102.71, -1.02 111.63" stroke="#f08c00" stroke-width="2" fill="none"></path></g><g transform="translate(1561.8912988203635 1036.2787306612008) rotate(0 -0.24178641183027594 54.99441964285711)"><path d="M9.76 83.63 C6.37 92.07, 3.89 100.86, -1.02 111.63 M9.76 83.63 C5.55 93.53, 2.17 102.91, -1.02 111.63" stroke="#f08c00" stroke-width="2" fill="none"></path></g></g><mask></mask></svg>