<svg version="1.1" xmlns="http://www.w3.org/2000/svg" viewBox="0 0 1155.763671875 643.0933481852214" width="1155.763671875" height="643.0933481852214" filter="invert(93%) hue-rotate(180deg)">
  <!-- svg-source:excalidraw -->
  
  <defs>
    <style class="style-fonts">
      @font-face {
        font-family: "Virgil";
        src: url("https://file%2B.vscode-resource.vscode-cdn.net/c%3A/Users/talor/.vscode/extensions/pomdtr.excalidraw-editor-3.7.4/public//dist/excalidraw-assets/Virgil.woff2");
      }
      @font-face {
        font-family: "Cascadia";
        src: url("https://file%2B.vscode-resource.vscode-cdn.net/c%3A/Users/talor/.vscode/extensions/pomdtr.excalidraw-editor-3.7.4/public//dist/excalidraw-assets/Cascadia.woff2");
      }
      @font-face {
        font-family: "Assistant";
        src: url("https://file%2B.vscode-resource.vscode-cdn.net/c%3A/Users/talor/.vscode/extensions/pomdtr.excalidraw-editor-3.7.4/public//dist/excalidraw-assets/Assistant-Regular.woff2");
      }
    </style>
    
  </defs>
  <rect x="0" y="0" width="1155.763671875" height="643.0933481852214" fill="#ffffff"></rect><g stroke-linecap="round" transform="translate(31.368654523576993 166.24528031122117) rotate(0 48.58073425292969 40.99609375)"><path d="M4.8 5.5 C4.8 5.5, 4.8 5.5, 4.8 5.5 M4.8 5.5 C4.8 5.5, 4.8 5.5, 4.8 5.5 M1 22.07 C6.11 15.15, 14.5 8.18, 19.37 0.93 M1 22.07 C4.7 16.52, 9.95 11.84, 19.37 0.93 M1.13 34.11 C9.04 22.83, 19.46 12.97, 30 0.9 M1.13 34.11 C7.56 24.53, 14.94 17.65, 30 0.9 M0.61 46.9 C9.29 38.2, 17.21 28.49, 40.63 0.87 M0.61 46.9 C13.01 33.02, 26.76 17.71, 40.63 0.87 M0.74 58.94 C16.39 39.27, 36.42 19.93, 51.26 0.83 M0.74 58.94 C19.17 37.92, 39.36 14.57, 51.26 0.83 M2.19 69.48 C22.68 47.89, 41.33 26.5, 61.89 0.8 M2.19 69.48 C21.4 46.37, 40.54 24.8, 61.89 0.8 M5.6 77.74 C26.97 51.94, 50.02 29.72, 72.52 0.76 M5.6 77.74 C24.65 54.38, 43.09 33.01, 72.52 0.76 M13.6 80.73 C31.83 59, 49.45 42.75, 83.15 0.73 M13.6 80.73 C34.03 56.96, 52.17 35.77, 83.15 0.73 M22.92 82.2 C41.33 60.84, 64 39.14, 90.5 4.47 M22.92 82.2 C43.72 57.39, 67.3 32.94, 90.5 4.47 M33.55 82.17 C49.78 58.85, 69.86 38.77, 95.88 10.47 M33.55 82.17 C52.35 61.36, 70.49 40.92, 95.88 10.47 M44.18 82.13 C60.62 60.87, 82.43 38.89, 97.32 21 M44.18 82.13 C56.07 68.7, 67.26 54.99, 97.32 21 M54.81 82.1 C68.26 67.26, 82.2 47.4, 97.46 33.04 M54.81 82.1 C69.86 66.45, 83.87 48.82, 97.46 33.04 M64.79 82.82 C76.75 71.18, 89.13 56.97, 97.59 45.08 M64.79 82.82 C77.15 68.82, 89.87 52.75, 97.59 45.08 M75.42 82.78 C81.78 74.21, 93.51 65.52, 97.07 57.88 M75.42 82.78 C81.32 75.27, 88.04 69.77, 97.07 57.88 M88.67 79.73 C91.33 77.1, 92.73 75.12, 94.58 72.94 M88.67 79.73 C91.19 76.81, 93.51 74.37, 94.58 72.94" stroke="#ffc9c9" stroke-width="1" fill="none"></path><path d="M20.5 0 C31.72 -2.12, 48.03 -2.34, 76.66 0 M20.5 0 C39.87 -0.56, 59.35 0.77, 76.66 0 M76.66 0 C89.7 0.56, 95.35 7.17, 97.16 20.5 M76.66 0 C92.6 -0.88, 99.14 5.06, 97.16 20.5 M97.16 20.5 C97.46 34.23, 96.98 48.23, 97.16 61.49 M97.16 20.5 C97.34 31.58, 97.19 41.52, 97.16 61.49 M97.16 61.49 C97.42 74.33, 88.72 83.23, 76.66 81.99 M97.16 61.49 C99.42 74.11, 88.11 82.43, 76.66 81.99 M76.66 81.99 C62.77 80, 48.16 83.66, 20.5 81.99 M76.66 81.99 C59.49 81.47, 40.52 82.19, 20.5 81.99 M20.5 81.99 C8.03 80.39, 1.63 74.79, 0 61.49 M20.5 81.99 C7.3 82.39, -2.07 75.48, 0 61.49 M0 61.49 C-0.86 51.73, 0.89 40.71, 0 20.5 M0 61.49 C0.43 47.41, -0.44 31.15, 0 20.5 M0 20.5 C1.12 5.48, 7.73 1.66, 20.5 0 M0 20.5 C-2.08 4.7, 5.32 -0.65, 20.5 0" stroke="#e03131" stroke-width="2" fill="none"></path></g><g transform="translate(59.69140080043246 189.74137406122117) rotate(0 20.25798797607422 17.5)"><text x="20.25798797607422" y="0" font-family="Virgil, Segoe UI Emoji" font-size="28px" fill="#e03131" text-anchor="middle" style="white-space: pre;" direction="ltr" dominant-baseline="text-before-edge">s-p</text></g><g stroke-linecap="round" transform="translate(216.868654523577 166.24528031122117) rotate(0 48.58073425292969 40.99609375)"><path d="M4.8 5.5 C4.8 5.5, 4.8 5.5, 4.8 5.5 M4.8 5.5 C4.8 5.5, 4.8 5.5, 4.8 5.5 M1 22.07 C6.21 15.26, 11.25 7.49, 19.37 0.93 M1 22.07 C7.42 14.72, 11.66 9.88, 19.37 0.93 M1.13 34.11 C9.08 27.2, 13.97 18.5, 30 0.9 M1.13 34.11 C8.68 25.12, 17.9 15.26, 30 0.9 M0.61 46.9 C14.48 32.21, 29.89 16.69, 40.63 0.87 M0.61 46.9 C15.02 29.17, 30.05 12.77, 40.63 0.87 M0.74 58.94 C18.97 38.26, 37.18 16.74, 51.26 0.83 M0.74 58.94 C14.83 43.19, 28.08 27.52, 51.26 0.83 M2.19 69.48 C24.77 42.66, 47.61 16.08, 61.89 0.8 M2.19 69.48 C21 46.84, 41.62 23.54, 61.89 0.8 M5.6 77.74 C23.93 56, 44.19 36.38, 72.52 0.76 M5.6 77.74 C25.3 56.53, 44.78 32.67, 72.52 0.76 M13.6 80.73 C34.36 58.1, 57.75 34.48, 83.15 0.73 M13.6 80.73 C31.71 59.6, 49.49 39.86, 83.15 0.73 M22.92 82.2 C37.26 64.5, 49.1 51.45, 90.5 4.47 M22.92 82.2 C43.21 58.08, 62.74 35.11, 90.5 4.47 M33.55 82.17 C50.76 64.66, 64.76 43.75, 95.88 10.47 M33.55 82.17 C56.04 55.31, 81.58 26.46, 95.88 10.47 M44.18 82.13 C65.61 58.46, 83.48 37.15, 97.32 21 M44.18 82.13 C56.64 67.29, 70.67 54.09, 97.32 21 M54.81 82.1 C68.29 65, 82.26 50.05, 97.46 33.04 M54.81 82.1 C65.11 71.37, 73.46 60.67, 97.46 33.04 M64.79 82.82 C76.54 69.81, 84.81 59.19, 97.59 45.08 M64.79 82.82 C72.27 75.07, 79.38 67.1, 97.59 45.08 M75.42 82.78 C82.65 75.7, 87.86 69.3, 97.07 57.88 M75.42 82.78 C82.05 75.5, 86.43 69.48, 97.07 57.88 M88.67 79.73 C90.55 77.43, 93.3 74.19, 94.58 72.94 M88.67 79.73 C90.64 77.07, 92.32 75.12, 94.58 72.94" stroke="#a5d8ff" stroke-width="1" fill="none"></path><path d="M20.5 0 C37.14 0.81, 54.95 -1.56, 76.66 0 M20.5 0 C35.99 0.28, 51.9 0.48, 76.66 0 M76.66 0 C91.98 1.04, 97.69 5.64, 97.16 20.5 M76.66 0 C91.96 1.14, 95.69 7.4, 97.16 20.5 M97.16 20.5 C96.41 29.46, 96.24 40.27, 97.16 61.49 M97.16 20.5 C97.36 31.88, 98.21 42.24, 97.16 61.49 M97.16 61.49 C95.45 74.87, 91.69 81.79, 76.66 81.99 M97.16 61.49 C97.69 75.67, 90.94 83.8, 76.66 81.99 M76.66 81.99 C58.61 82.82, 37.77 82.75, 20.5 81.99 M76.66 81.99 C61.5 81.8, 45.18 82.58, 20.5 81.99 M20.5 81.99 C6.83 81.64, -0.66 73.33, 0 61.49 M20.5 81.99 C9.13 82.72, -1.29 76.97, 0 61.49 M0 61.49 C-1.62 48.26, -1.25 39, 0 20.5 M0 61.49 C0.26 47.71, -0.84 32.74, 0 20.5 M0 20.5 C0.5 8.09, 8.03 0.14, 20.5 0 M0 20.5 C1.8 5.46, 6.77 -0.05, 20.5 0" stroke="#1971c2" stroke-width="2" fill="none"></path></g><g transform="translate(228.95141056605746 189.74137406122117) rotate(0 36.49797821044922 17.5)"><text x="36.49797821044922" y="0" font-family="Virgil, Segoe UI Emoji" font-size="28px" fill="#1971c2" text-anchor="middle" style="white-space: pre;" direction="ltr" dominant-baseline="text-before-edge">s-app</text></g><g stroke-linecap="round" transform="translate(402.0352805001395 166.24528031122117) rotate(0 48.58073425292969 40.99609375)"><path d="M4.8 5.5 C4.8 5.5, 4.8 5.5, 4.8 5.5 M4.8 5.5 C4.8 5.5, 4.8 5.5, 4.8 5.5 M1 22.07 C5.16 14.63, 12.19 9.45, 19.37 0.93 M1 22.07 C8.49 13.58, 15.47 5.24, 19.37 0.93 M1.13 34.11 C12.82 21.55, 22.34 9.05, 30 0.9 M1.13 34.11 C7.61 27.48, 14.07 18.95, 30 0.9 M0.61 46.9 C14.55 32.19, 28.92 17.48, 40.63 0.87 M0.61 46.9 C12.29 34.81, 21.09 23.29, 40.63 0.87 M0.74 58.94 C20.17 37.64, 39.77 15.21, 51.26 0.83 M0.74 58.94 C12.21 44.4, 24.86 29.8, 51.26 0.83 M2.19 69.48 C23.72 41.11, 47.36 14.47, 61.89 0.8 M2.19 69.48 C15.17 55.08, 28.66 40.47, 61.89 0.8 M5.6 77.74 C22.13 56.84, 40.68 36.94, 72.52 0.76 M5.6 77.74 C22.46 58.73, 40.02 39.45, 72.52 0.76 M13.6 80.73 C38.98 49.13, 66.92 20.37, 83.15 0.73 M13.6 80.73 C36.15 55.68, 58.26 30, 83.15 0.73 M22.92 82.2 C39.1 64.84, 55.18 44.38, 90.5 4.47 M22.92 82.2 C48.28 55.25, 71.7 25.96, 90.5 4.47 M33.55 82.17 C50.45 62.46, 66.19 45.55, 95.88 10.47 M33.55 82.17 C55.47 56.34, 78.9 31.22, 95.88 10.47 M44.18 82.13 C53.38 69.57, 66 57.56, 97.32 21 M44.18 82.13 C57.35 67.54, 71.58 52.02, 97.32 21 M54.81 82.1 C72.56 64.55, 85.46 43.66, 97.46 33.04 M54.81 82.1 C70.42 64.41, 86.13 47.12, 97.46 33.04 M64.79 82.82 C77.87 69.87, 90.26 53.17, 97.59 45.08 M64.79 82.82 C76.02 71.77, 86.03 58.15, 97.59 45.08 M75.42 82.78 C78.81 76.76, 83.63 69.87, 97.07 57.88 M75.42 82.78 C82.74 75.44, 88.9 67.49, 97.07 57.88 M88.67 79.73 C90.62 78.62, 91.41 77.48, 94.58 72.94 M88.67 79.73 C90.55 77.81, 92.61 75.28, 94.58 72.94" stroke="#a5d8ff" stroke-width="1" fill="none"></path><path d="M20.5 0 C39.53 -0.49, 60.9 -0.87, 76.66 0 M20.5 0 C40.42 -0.48, 61.3 -0.6, 76.66 0 M76.66 0 C91.14 -1.45, 95.21 6.94, 97.16 20.5 M76.66 0 C88.12 0.88, 97.46 7.34, 97.16 20.5 M97.16 20.5 C96.72 31.96, 95.76 46.62, 97.16 61.49 M97.16 20.5 C95.92 35.87, 97.54 51.39, 97.16 61.49 M97.16 61.49 C98.08 76.86, 91.6 83.2, 76.66 81.99 M97.16 61.49 C96.38 75.58, 90.12 82.38, 76.66 81.99 M76.66 81.99 C59.35 83.41, 42.94 82.43, 20.5 81.99 M76.66 81.99 C62.56 83.25, 47.81 81.49, 20.5 81.99 M20.5 81.99 C7.13 80.57, -1.46 74.35, 0 61.49 M20.5 81.99 C6.4 83.52, -1.06 76.27, 0 61.49 M0 61.49 C0.47 49.79, 0.72 40.61, 0 20.5 M0 61.49 C0.41 47.53, 0.03 31.17, 0 20.5 M0 20.5 C0.14 5.5, 7.23 -1.93, 20.5 0 M0 20.5 C0.73 8.44, 5.26 -1.19, 20.5 0" stroke="#1971c2" stroke-width="2" fill="none"></path></g><g transform="translate(427.4740317208426 189.74137406122117) rotate(0 23.141983032226562 17.5)"><text x="23.141983032226562" y="0" font-family="Virgil, Segoe UI Emoji" font-size="28px" fill="#1971c2" text-anchor="middle" style="white-space: pre;" direction="ltr" dominant-baseline="text-before-edge">app</text></g><g stroke-linecap="round" transform="translate(575.618654523577 166.24528031122117) rotate(0 48.58073425292969 40.99609375)"><path d="M4.8 5.5 C4.8 5.5, 4.8 5.5, 4.8 5.5 M4.8 5.5 C4.8 5.5, 4.8 5.5, 4.8 5.5 M1 22.07 C5.97 16.29, 10.31 10.42, 19.37 0.93 M1 22.07 C8.07 14.2, 14.43 6.72, 19.37 0.93 M1.13 34.11 C10.15 22.88, 22.87 13.14, 30 0.9 M1.13 34.11 C9.19 23.97, 18.03 14.46, 30 0.9 M0.61 46.9 C14.14 31.18, 31.92 13.74, 40.63 0.87 M0.61 46.9 C16.6 29.27, 31.59 11.74, 40.63 0.87 M0.74 58.94 C13.61 41.64, 27.76 25.36, 51.26 0.83 M0.74 58.94 C13.32 43.38, 27.18 29.48, 51.26 0.83 M2.19 69.48 C19.12 49.46, 36.74 29.52, 61.89 0.8 M2.19 69.48 C25.29 42.85, 48.39 15.28, 61.89 0.8 M5.6 77.74 C22.68 59.2, 40.41 39.07, 72.52 0.76 M5.6 77.74 C28.28 50.92, 52.91 23.52, 72.52 0.76 M13.6 80.73 C28.56 65.1, 38.97 49.33, 83.15 0.73 M13.6 80.73 C32.22 58.53, 52.11 35.53, 83.15 0.73 M22.92 82.2 C36.96 66.12, 52.34 49.56, 90.5 4.47 M22.92 82.2 C35.83 67.38, 50.72 51.41, 90.5 4.47 M33.55 82.17 C50.94 63.03, 68.29 43.01, 95.88 10.47 M33.55 82.17 C49.16 63.84, 63.48 47.19, 95.88 10.47 M44.18 82.13 C53.36 69.99, 64.99 55.34, 97.32 21 M44.18 82.13 C61.81 61.42, 80.6 40.26, 97.32 21 M54.81 82.1 C65.51 69.79, 78.82 57.02, 97.46 33.04 M54.81 82.1 C69.65 67.03, 82.86 50.98, 97.46 33.04 M64.79 82.82 C72.92 72.44, 85.03 60.52, 97.59 45.08 M64.79 82.82 C74.48 70.69, 86.21 60.32, 97.59 45.08 M75.42 82.78 C80.99 75.68, 91.16 68.4, 97.07 57.88 M75.42 82.78 C81.72 74.24, 88.3 68.15, 97.07 57.88 M88.67 79.73 C89.86 76.58, 92.38 74.66, 94.58 72.94 M88.67 79.73 C90.33 77.88, 92.47 74.73, 94.58 72.94" stroke="#a5d8ff" stroke-width="1" fill="none"></path><path d="M20.5 0 C32.39 0.37, 44.68 1.66, 76.66 0 M20.5 0 C35.08 -0.19, 50.77 0.32, 76.66 0 M76.66 0 C90.07 -0.17, 98.74 6.46, 97.16 20.5 M76.66 0 C88.92 1.46, 97.53 5.45, 97.16 20.5 M97.16 20.5 C97.44 36.53, 96.23 50.28, 97.16 61.49 M97.16 20.5 C96.33 31.45, 96.26 42.63, 97.16 61.49 M97.16 61.49 C97.51 76.7, 90.6 81.67, 76.66 81.99 M97.16 61.49 C97.41 74.72, 89.55 81.03, 76.66 81.99 M76.66 81.99 C57.14 80.92, 35.12 81.7, 20.5 81.99 M76.66 81.99 C58.18 80.61, 38.56 81.79, 20.5 81.99 M20.5 81.99 C7.03 81.66, -0.02 76.27, 0 61.49 M20.5 81.99 C4.62 82.76, -0.74 76.65, 0 61.49 M0 61.49 C1.02 54.35, -1.75 45.6, 0 20.5 M0 61.49 C-0.79 47.39, -0.76 34.15, 0 20.5 M0 20.5 C0.72 7.13, 4.93 -1.28, 20.5 0 M0 20.5 C-1.25 8.79, 6.05 0.94, 20.5 0" stroke="#1971c2" stroke-width="2" fill="none"></path></g><g transform="translate(601.0574057442801 189.74137406122117) rotate(0 23.141983032226562 17.5)"><text x="23.141983032226562" y="0" font-family="Virgil, Segoe UI Emoji" font-size="28px" fill="#1971c2" text-anchor="middle" style="white-space: pre;" direction="ltr" dominant-baseline="text-before-edge">app</text></g><g stroke-linecap="round" transform="translate(766.7741110665457 166.24528031122117) rotate(0 48.58073425292969 40.99609375)"><path d="M4.8 5.5 C4.8 5.5, 4.8 5.5, 4.8 5.5 M4.8 5.5 C4.8 5.5, 4.8 5.5, 4.8 5.5 M1 22.07 C5.27 14.41, 13.03 11.46, 19.37 0.93 M1 22.07 C7.33 15.78, 12.63 9.28, 19.37 0.93 M1.13 34.11 C7.11 27.36, 14.67 18.65, 30 0.9 M1.13 34.11 C10.01 23.26, 19.91 12.6, 30 0.9 M0.61 46.9 C17.95 27.83, 31.3 11.27, 40.63 0.87 M0.61 46.9 C11.31 34.03, 21.72 22.73, 40.63 0.87 M0.74 58.94 C13.91 45.23, 25.62 30.53, 51.26 0.83 M0.74 58.94 C20.03 35.62, 39.63 15.11, 51.26 0.83 M2.19 69.48 C13.1 54.01, 27.5 41.52, 61.89 0.8 M2.19 69.48 C18.53 50.79, 35.63 31.14, 61.89 0.8 M5.6 77.74 C26.68 53.15, 52.25 27.29, 72.52 0.76 M5.6 77.74 C26.6 51.9, 48.81 27.98, 72.52 0.76 M13.6 80.73 C40.04 52.54, 66.85 21.41, 83.15 0.73 M13.6 80.73 C31.58 61.12, 49.56 39.77, 83.15 0.73 M22.92 82.2 C42.33 61.47, 59.39 38.16, 90.5 4.47 M22.92 82.2 C43.82 59.02, 63.83 35.14, 90.5 4.47 M33.55 82.17 C47.27 66.37, 65.58 48.67, 95.88 10.47 M33.55 82.17 C56.82 54.06, 82.38 25.45, 95.88 10.47 M44.18 82.13 C54.71 70.11, 67.54 55.32, 97.32 21 M44.18 82.13 C61.24 63.69, 77.95 43.2, 97.32 21 M54.81 82.1 C70.63 64.78, 84.55 50.61, 97.46 33.04 M54.81 82.1 C68.17 68.8, 79.02 53.97, 97.46 33.04 M64.79 82.82 C73.95 70.89, 83.62 60.59, 97.59 45.08 M64.79 82.82 C75.27 70.87, 86.66 59.95, 97.59 45.08 M75.42 82.78 C80.25 75.39, 87.19 68.51, 97.07 57.88 M75.42 82.78 C80.57 76.41, 85.77 71.27, 97.07 57.88 M88.67 79.73 C90.88 77.15, 92.56 75.07, 94.58 72.94 M88.67 79.73 C90.49 77.32, 92.93 75.07, 94.58 72.94" stroke="#a5d8ff" stroke-width="1" fill="none"></path><path d="M20.5 0 C41.38 0.03, 59.67 1.19, 76.66 0 M20.5 0 C35.47 0.22, 49.94 0.19, 76.66 0 M76.66 0 C90.5 0.44, 96.26 8, 97.16 20.5 M76.66 0 C91.22 2.07, 97.59 5.44, 97.16 20.5 M97.16 20.5 C98.72 34.32, 97.22 46.47, 97.16 61.49 M97.16 20.5 C97.65 33.75, 97.02 46.87, 97.16 61.49 M97.16 61.49 C96.47 73.35, 89.4 83.19, 76.66 81.99 M97.16 61.49 C99.32 75.88, 90.5 80.43, 76.66 81.99 M76.66 81.99 C66.24 82.49, 51.19 82.15, 20.5 81.99 M76.66 81.99 C62.45 82.28, 47.87 82.62, 20.5 81.99 M20.5 81.99 C4.97 80.41, -0.87 74.6, 0 61.49 M20.5 81.99 C7.76 83.23, -1.87 73.53, 0 61.49 M0 61.49 C0.99 44.4, 1.55 28.63, 0 20.5 M0 61.49 C-0.73 45.89, 0.52 32.16, 0 20.5 M0 20.5 C-0.11 8.73, 7.89 -0.18, 20.5 0 M0 20.5 C1.21 9.11, 8.48 -2.05, 20.5 0" stroke="#1971c2" stroke-width="2" fill="none"></path></g><g transform="translate(779.4308646065848 189.74137406122117) rotate(0 35.923980712890625 17.5)"><text x="35.923980712890625" y="0" font-family="Virgil, Segoe UI Emoji" font-size="28px" fill="#1971c2" text-anchor="middle" style="white-space: pre;" direction="ltr" dominant-baseline="text-before-edge">c-app</text></g><g stroke-linecap="round" transform="translate(973.7489238920665 166.24528031122117) rotate(0 48.58073425292969 40.99609375)"><path d="M4.8 5.5 C4.8 5.5, 4.8 5.5, 4.8 5.5 M4.8 5.5 C4.8 5.5, 4.8 5.5, 4.8 5.5 M1 22.07 C4.71 17.4, 8.94 9.23, 19.37 0.93 M1 22.07 C4.91 17.18, 10.07 11.59, 19.37 0.93 M1.13 34.11 C7.71 25.3, 15.45 18.28, 30 0.9 M1.13 34.11 C8.71 25.92, 16.59 16.3, 30 0.9 M0.61 46.9 C9.53 36.97, 22.4 23.53, 40.63 0.87 M0.61 46.9 C9.11 37.81, 17.78 28.68, 40.63 0.87 M0.74 58.94 C19.45 34.89, 38.5 12.07, 51.26 0.83 M0.74 58.94 C12.02 48.19, 20.41 36.18, 51.26 0.83 M2.19 69.48 C17.53 50.39, 32.94 33.25, 61.89 0.8 M2.19 69.48 C15.88 53.61, 28.66 37.99, 61.89 0.8 M5.6 77.74 C29.23 50.47, 49.9 26.51, 72.52 0.76 M5.6 77.74 C25.38 55.95, 43.98 36, 72.52 0.76 M13.6 80.73 C38.89 54.96, 61.89 28.14, 83.15 0.73 M13.6 80.73 C33.69 56.68, 53.82 35.39, 83.15 0.73 M22.92 82.2 C35.98 65.35, 51.58 52.02, 90.5 4.47 M22.92 82.2 C47.82 53.79, 73.38 24.52, 90.5 4.47 M33.55 82.17 C49.33 66.06, 64.11 46.84, 95.88 10.47 M33.55 82.17 C58.96 54.16, 82.7 25.37, 95.88 10.47 M44.18 82.13 C65.4 59.37, 86.12 35.01, 97.32 21 M44.18 82.13 C60.17 64.02, 75.56 44.27, 97.32 21 M54.81 82.1 C63.31 71.43, 75.7 60.51, 97.46 33.04 M54.81 82.1 C69.62 65.14, 85.84 46.41, 97.46 33.04 M64.79 82.82 C74.74 72.05, 84.78 61.76, 97.59 45.08 M64.79 82.82 C74.99 71.95, 83.27 61.71, 97.59 45.08 M75.42 82.78 C78.27 76.56, 84.68 71.88, 97.07 57.88 M75.42 82.78 C80.45 77.06, 87.06 69.01, 97.07 57.88 M88.67 79.73 C91.03 77.67, 92.5 76.64, 94.58 72.94 M88.67 79.73 C89.99 77.68, 92.01 75.59, 94.58 72.94" stroke="#ffc9c9" stroke-width="1" fill="none"></path><path d="M20.5 0 C37.18 0.68, 53.36 -0.99, 76.66 0 M20.5 0 C34.13 -0.11, 46.98 -0.29, 76.66 0 M76.66 0 C90.14 -1.36, 97.73 7.87, 97.16 20.5 M76.66 0 C92.04 1.11, 95.97 7.73, 97.16 20.5 M97.16 20.5 C96.63 34.45, 95.85 49.99, 97.16 61.49 M97.16 20.5 C96.87 35.52, 97.51 49.15, 97.16 61.49 M97.16 61.49 C99.09 73.5, 91.26 82.02, 76.66 81.99 M97.16 61.49 C95.94 73.27, 90.64 81.23, 76.66 81.99 M76.66 81.99 C59.45 79.88, 43.35 82.69, 20.5 81.99 M76.66 81.99 C57.06 83.29, 34.99 83.25, 20.5 81.99 M20.5 81.99 C7.09 82.94, -1.64 76.34, 0 61.49 M20.5 81.99 C5.33 81.19, 1.09 75.8, 0 61.49 M0 61.49 C-0.04 49.89, 1.49 38.7, 0 20.5 M0 61.49 C-0.95 52.2, -0.78 41.87, 0 20.5 M0 20.5 C0.93 6.56, 5.19 -0.77, 20.5 0 M0 20.5 C1.68 8.21, 5.37 -0.4, 20.5 0" stroke="#e03131" stroke-width="2" fill="none"></path></g><g transform="translate(1002.6456676664806 189.74137406122117) rotate(0 19.683990478515625 17.5)"><text x="19.683990478515625" y="0" font-family="Virgil, Segoe UI Emoji" font-size="28px" fill="#e03131" text-anchor="middle" style="white-space: pre;" direction="ltr" dominant-baseline="text-before-edge">c-p</text></g><g stroke-linecap="round" transform="translate(577.2679261707125 325.8743874686105) rotate(0 48.58073425292969 40.99609375)"><path d="M4.8 5.5 C4.8 5.5, 4.8 5.5, 4.8 5.5 M4.8 5.5 C4.8 5.5, 4.8 5.5, 4.8 5.5 M1 22.07 C7.12 15.02, 14.68 6.09, 19.37 0.93 M1 22.07 C8.61 13.39, 14.55 7.01, 19.37 0.93 M1.13 34.11 C11.45 26.18, 17.11 15.93, 30 0.9 M1.13 34.11 C9.74 23.81, 19.56 13.52, 30 0.9 M0.61 46.9 C14.99 27.19, 31.01 9.87, 40.63 0.87 M0.61 46.9 C12.1 33.88, 23.75 20.43, 40.63 0.87 M0.74 58.94 C20.06 37.24, 41.51 14.12, 51.26 0.83 M0.74 58.94 C17.46 38.65, 34.76 19.99, 51.26 0.83 M2.19 69.48 C19.53 49.42, 40.44 24.7, 61.89 0.8 M2.19 69.48 C17.88 51.02, 34.27 31.89, 61.89 0.8 M5.6 77.74 C29.94 50.05, 55.03 21.73, 72.52 0.76 M5.6 77.74 C22.41 58, 39.44 36.18, 72.52 0.76 M13.6 80.73 C32.17 59.1, 52.24 37.91, 83.15 0.73 M13.6 80.73 C28.24 63.45, 41.46 47.8, 83.15 0.73 M22.92 82.2 C40.16 62.23, 54.33 44.56, 90.5 4.47 M22.92 82.2 C44.07 57.72, 64.55 34.84, 90.5 4.47 M33.55 82.17 C54.62 59.71, 71.1 37.83, 95.88 10.47 M33.55 82.17 C49.59 64.35, 62.79 48.92, 95.88 10.47 M44.18 82.13 C59.34 64.91, 77.2 45.02, 97.32 21 M44.18 82.13 C61.53 62.54, 76.7 44.76, 97.32 21 M54.81 82.1 C68.66 68.43, 83.97 49.85, 97.46 33.04 M54.81 82.1 C63.74 69.63, 73.86 58.26, 97.46 33.04 M64.79 82.82 C77.67 66.09, 90.55 52.6, 97.59 45.08 M64.79 82.82 C76.26 68.43, 88.53 55.2, 97.59 45.08 M75.42 82.78 C80.62 75.86, 88.68 68.52, 97.07 57.88 M75.42 82.78 C83.03 73.57, 89.81 66.14, 97.07 57.88 M88.67 79.73 C89.88 77.74, 92.93 75.32, 94.58 72.94 M88.67 79.73 C91.24 77.04, 93.37 74.4, 94.58 72.94" stroke="#a5d8ff" stroke-width="1" fill="none"></path><path d="M20.5 0 C33.45 -1.66, 46.73 -0.86, 76.66 0 M20.5 0 C40.31 -0.3, 59.58 0.04, 76.66 0 M76.66 0 C90.78 -0.44, 96.79 6.38, 97.16 20.5 M76.66 0 C89.16 2.25, 95.66 8.21, 97.16 20.5 M97.16 20.5 C95.71 32.54, 98.51 40.97, 97.16 61.49 M97.16 20.5 C97.58 28.88, 98.04 37.58, 97.16 61.49 M97.16 61.49 C99.09 76.6, 91.38 81.11, 76.66 81.99 M97.16 61.49 C96.29 73.02, 89.7 79.73, 76.66 81.99 M76.66 81.99 C62.36 80.82, 46.46 81.82, 20.5 81.99 M76.66 81.99 C55.62 81.75, 35.77 81.27, 20.5 81.99 M20.5 81.99 C7.73 80.11, 0.65 73.77, 0 61.49 M20.5 81.99 C5.53 80.64, 0.99 76.15, 0 61.49 M0 61.49 C-1.51 51.77, -0.7 37.7, 0 20.5 M0 61.49 C0.67 49.8, 0.05 36.23, 0 20.5 M0 20.5 C0.95 8.09, 8.43 0.75, 20.5 0 M0 20.5 C2.09 6.41, 5.49 2.27, 20.5 0" stroke="#1971c2" stroke-width="2" fill="none"></path></g><g transform="translate(602.7066773914156 349.3704812186105) rotate(0 23.141983032226562 17.5)"><text x="23.141983032226562" y="0" font-family="Virgil, Segoe UI Emoji" font-size="28px" fill="#1971c2" text-anchor="middle" style="white-space: pre;" direction="ltr" dominant-baseline="text-before-edge">app</text></g><g stroke-linecap="round" transform="translate(766.7741110665457 325.8743874686105) rotate(0 48.58073425292969 40.99609375)"><path d="M4.8 5.5 C4.8 5.5, 4.8 5.5, 4.8 5.5 M4.8 5.5 C4.8 5.5, 4.8 5.5, 4.8 5.5 M1 22.07 C9.29 14.41, 14.62 7.99, 19.37 0.93 M1 22.07 C4.78 17.49, 7.74 14.06, 19.37 0.93 M1.13 34.11 C12.79 22.93, 22.97 8.06, 30 0.9 M1.13 34.11 C9.88 23.86, 16.82 14.56, 30 0.9 M0.61 46.9 C8.87 39.57, 16.87 29.21, 40.63 0.87 M0.61 46.9 C12.89 34.11, 23.42 19.97, 40.63 0.87 M0.74 58.94 C18.15 39.74, 36.25 19.15, 51.26 0.83 M0.74 58.94 C14.38 42.35, 28.69 26.46, 51.26 0.83 M2.19 69.48 C24.27 43.45, 48.07 16.35, 61.89 0.8 M2.19 69.48 C21.21 49.2, 37.91 27.53, 61.89 0.8 M5.6 77.74 C28.77 51.86, 53.89 22.85, 72.52 0.76 M5.6 77.74 C31.38 48.84, 56.6 19.33, 72.52 0.76 M13.6 80.73 C31.23 58.75, 54.75 36.3, 83.15 0.73 M13.6 80.73 C33.56 57.19, 53.99 34.51, 83.15 0.73 M22.92 82.2 C36.83 66.19, 49.89 51, 90.5 4.47 M22.92 82.2 C40.77 62.2, 57.48 42.9, 90.5 4.47 M33.55 82.17 C52.3 57.8, 74.94 39.01, 95.88 10.47 M33.55 82.17 C49.3 63.87, 64.24 45.72, 95.88 10.47 M44.18 82.13 C62.33 59.3, 82.46 41.56, 97.32 21 M44.18 82.13 C56.18 68.46, 67.43 55.09, 97.32 21 M54.81 82.1 C69.79 64.87, 89.95 42.79, 97.46 33.04 M54.81 82.1 C65.45 71.98, 74.21 60.39, 97.46 33.04 M64.79 82.82 C73.01 76.31, 81 66.87, 97.59 45.08 M64.79 82.82 C71.41 73.79, 78.65 65.9, 97.59 45.08 M75.42 82.78 C82.17 75.67, 89.37 69.3, 97.07 57.88 M75.42 82.78 C80.33 77.09, 84.7 71.16, 97.07 57.88 M88.67 79.73 C91.3 77.54, 92.42 75.94, 94.58 72.94 M88.67 79.73 C89.86 78.06, 92.16 75.6, 94.58 72.94" stroke="#a5d8ff" stroke-width="1" fill="none"></path><path d="M20.5 0 C33.5 -0.85, 44.75 0.48, 76.66 0 M20.5 0 C36.37 -0.29, 51.6 -0.29, 76.66 0 M76.66 0 C89.31 1.96, 95.85 8.03, 97.16 20.5 M76.66 0 C89.21 -0.85, 97.7 5.33, 97.16 20.5 M97.16 20.5 C95.57 36.6, 95.71 52.95, 97.16 61.49 M97.16 20.5 C98.47 33.47, 98.03 44.55, 97.16 61.49 M97.16 61.49 C96.4 73.29, 89.78 80.02, 76.66 81.99 M97.16 61.49 C96.53 73.12, 92.49 83.15, 76.66 81.99 M76.66 81.99 C65.84 80.3, 52.44 80.47, 20.5 81.99 M76.66 81.99 C61.57 80.65, 45.9 80.9, 20.5 81.99 M20.5 81.99 C5.7 80.82, 0.86 76.02, 0 61.49 M20.5 81.99 C6.19 83.14, -1.2 73.66, 0 61.49 M0 61.49 C0.1 47.89, -1.15 33.07, 0 20.5 M0 61.49 C0.32 47.36, 0.65 32.34, 0 20.5 M0 20.5 C1.82 6.47, 5.66 1.97, 20.5 0 M0 20.5 C0.05 4.95, 8.11 1.01, 20.5 0" stroke="#1971c2" stroke-width="2" fill="none"></path></g><g transform="translate(779.4308646065848 349.3704812186105) rotate(0 35.923980712890625 17.5)"><text x="35.923980712890625" y="0" font-family="Virgil, Segoe UI Emoji" font-size="28px" fill="#1971c2" text-anchor="middle" style="white-space: pre;" direction="ltr" dominant-baseline="text-before-edge">c-app</text></g><g stroke-linecap="round" transform="translate(973.7489238920665 325.8743874686105) rotate(0 48.58073425292969 40.99609375)"><path d="M4.8 5.5 C4.8 5.5, 4.8 5.5, 4.8 5.5 M4.8 5.5 C4.8 5.5, 4.8 5.5, 4.8 5.5 M1 22.07 C4.96 15.41, 13.52 8.54, 19.37 0.93 M1 22.07 C7.36 15.15, 12.5 9.84, 19.37 0.93 M1.13 34.11 C12.45 22.73, 23.89 9.41, 30 0.9 M1.13 34.11 C6.3 26.82, 12.62 20.4, 30 0.9 M0.61 46.9 C16.55 30.05, 31.74 11.84, 40.63 0.87 M0.61 46.9 C15.47 31.29, 29.56 14.35, 40.63 0.87 M0.74 58.94 C16.4 40.09, 34.95 20.69, 51.26 0.83 M0.74 58.94 C13.31 45.76, 23.75 31.06, 51.26 0.83 M2.19 69.48 C19.83 49.4, 36.07 30.79, 61.89 0.8 M2.19 69.48 C22.96 46.43, 43.17 23.87, 61.89 0.8 M5.6 77.74 C32.88 46.52, 55.77 17.43, 72.52 0.76 M5.6 77.74 C25.78 55.4, 45.93 31.19, 72.52 0.76 M13.6 80.73 C36.7 51.6, 62.49 23.71, 83.15 0.73 M13.6 80.73 C35.35 54.32, 58.05 28.74, 83.15 0.73 M22.92 82.2 C39.7 60.79, 59.8 42.28, 90.5 4.47 M22.92 82.2 C45.38 55.27, 68 30.11, 90.5 4.47 M33.55 82.17 C45.21 65.39, 61.15 50.82, 95.88 10.47 M33.55 82.17 C52.68 61.86, 70.25 40.33, 95.88 10.47 M44.18 82.13 C53.33 68.87, 65.71 56.28, 97.32 21 M44.18 82.13 C60.33 65.75, 73.88 46.94, 97.32 21 M54.81 82.1 C69.66 62.67, 86.34 45.54, 97.46 33.04 M54.81 82.1 C69.13 64.51, 85.12 47.61, 97.46 33.04 M64.79 82.82 C75.47 70.13, 88.23 53.17, 97.59 45.08 M64.79 82.82 C71.62 75.74, 78.16 67.6, 97.59 45.08 M75.42 82.78 C80.13 75.34, 88.28 68.08, 97.07 57.88 M75.42 82.78 C81.53 76.68, 87.15 70.31, 97.07 57.88 M88.67 79.73 C90.28 77.98, 91.99 74.72, 94.58 72.94 M88.67 79.73 C90.65 77.29, 93.01 74.61, 94.58 72.94" stroke="#ffc9c9" stroke-width="1" fill="none"></path><path d="M20.5 0 C33.81 -0.71, 48.22 0.39, 76.66 0 M20.5 0 C35.61 1.11, 51.08 0.72, 76.66 0 M76.66 0 C89.36 -0.74, 97.63 5.53, 97.16 20.5 M76.66 0 C92.33 1.73, 97 4.64, 97.16 20.5 M97.16 20.5 C96.78 34.96, 97.37 48.03, 97.16 61.49 M97.16 20.5 C97 34.82, 97.1 50.02, 97.16 61.49 M97.16 61.49 C96.61 73.39, 92.21 83, 76.66 81.99 M97.16 61.49 C95.21 75.64, 89.53 83.44, 76.66 81.99 M76.66 81.99 C63.55 81.36, 49.94 82.52, 20.5 81.99 M76.66 81.99 C64.52 81.01, 53.94 82.03, 20.5 81.99 M20.5 81.99 C6.27 82.99, -1.04 73.85, 0 61.49 M20.5 81.99 C8.47 81.42, -1.73 75.16, 0 61.49 M0 61.49 C1.46 46.66, -1.07 31.25, 0 20.5 M0 61.49 C0.58 46.44, -0.91 32.74, 0 20.5 M0 20.5 C0.04 5.2, 7.94 0.88, 20.5 0 M0 20.5 C-2.29 6.82, 8.07 -0.56, 20.5 0" stroke="#e03131" stroke-width="2" fill="none"></path></g><g transform="translate(1002.6456676664806 349.3704812186105) rotate(0 19.683990478515625 17.5)"><text x="19.683990478515625" y="0" font-family="Virgil, Segoe UI Emoji" font-size="28px" fill="#e03131" text-anchor="middle" style="white-space: pre;" direction="ltr" dominant-baseline="text-before-edge">c-p</text></g><g stroke-linecap="round" transform="translate(583.3878195626395 494.16299729120175) rotate(0 48.58073425292969 40.99609375000003)"><path d="M4.8 5.5 C4.8 5.5, 4.8 5.5, 4.8 5.5 M4.8 5.5 C4.8 5.5, 4.8 5.5, 4.8 5.5 M1 22.07 C7.72 13.65, 12.28 9.35, 19.37 0.93 M1 22.07 C6.72 15.93, 11.56 10.45, 19.37 0.93 M1.13 34.11 C8.65 28.9, 11.41 21.05, 30 0.9 M1.13 34.11 C8.93 24.8, 15.86 15.97, 30 0.9 M0.61 46.9 C12.94 32.67, 27.28 15.76, 40.63 0.87 M0.61 46.9 C9.54 36.93, 18.01 26.63, 40.63 0.87 M0.74 58.94 C16.47 40.09, 29.68 23.31, 51.26 0.83 M0.74 58.94 C18.37 41.56, 33.44 21.88, 51.26 0.83 M2.19 69.48 C16.36 57.28, 28.26 39.41, 61.89 0.8 M2.19 69.48 C16.61 51.87, 33.05 32.54, 61.89 0.8 M5.6 77.74 C26.72 55.27, 45.91 32.84, 72.52 0.76 M5.6 77.74 C29.25 49.07, 53.43 21.35, 72.52 0.76 M13.6 80.73 C26.73 65.29, 42.2 46.23, 83.15 0.73 M13.6 80.73 C32.54 58.26, 52.56 33.39, 83.15 0.73 M22.92 82.2 C41.18 61.63, 59.29 39.65, 90.5 4.47 M22.92 82.2 C39.26 63.71, 57.13 43.58, 90.5 4.47 M33.55 82.17 C58.03 56.46, 80.27 29.71, 95.88 10.47 M33.55 82.17 C55.74 56.39, 78.57 31.9, 95.88 10.47 M44.18 82.13 C56.89 63.71, 74.68 47.53, 97.32 21 M44.18 82.13 C58.42 66.02, 72.41 50.28, 97.32 21 M54.81 82.1 C67.81 64.48, 81.37 49.82, 97.46 33.04 M54.81 82.1 C64.42 72.72, 73.3 60.72, 97.46 33.04 M64.79 82.82 C72.68 74.11, 81.81 65.84, 97.59 45.08 M64.79 82.82 C78.86 66.75, 91.66 52.37, 97.59 45.08 M75.42 82.78 C82.81 72.76, 90.52 64.36, 97.07 57.88 M75.42 82.78 C82.98 74.13, 91.06 64.77, 97.07 57.88 M88.67 79.73 C90.25 77.51, 93.27 74.86, 94.58 72.94 M88.67 79.73 C90.73 77.85, 92.37 75.32, 94.58 72.94" stroke="#a5d8ff" stroke-width="1" fill="none"></path><path d="M20.5 0 C37.31 1.12, 56.62 -1.99, 76.66 0 M20.5 0 C34.52 -1.2, 49.55 0.65, 76.66 0 M76.66 0 C92.18 0.02, 98.21 8.51, 97.16 20.5 M76.66 0 C91.75 -1.45, 96.96 4.78, 97.16 20.5 M97.16 20.5 C95.32 35.2, 97.62 50.82, 97.16 61.49 M97.16 20.5 C96.62 30.55, 96.69 40.23, 97.16 61.49 M97.16 61.49 C97.06 76.45, 90.63 81.75, 76.66 81.99 M97.16 61.49 C96.06 73.78, 91.86 81.09, 76.66 81.99 M76.66 81.99 C64.91 80.8, 52.43 82.84, 20.5 81.99 M76.66 81.99 C56.23 81.6, 36.26 81.76, 20.5 81.99 M20.5 81.99 C6.64 80.04, -1.07 75.27, 0 61.49 M20.5 81.99 C7.71 83.63, 2.01 75.31, 0 61.49 M0 61.49 C1.16 49.9, 0.3 36.15, 0 20.5 M0 61.49 C-0.03 48.04, -1.27 33.31, 0 20.5 M0 20.5 C-0.56 6.75, 5.9 -1.07, 20.5 0 M0 20.5 C0.68 5.19, 8.14 -0.09, 20.5 0" stroke="#1971c2" stroke-width="2" fill="none"></path></g><g transform="translate(608.8265707833426 517.6590910412017) rotate(0 23.141983032226562 17.50000000000003)"><text x="23.141983032226562" y="0" font-family="Virgil, Segoe UI Emoji" font-size="28px" fill="#1971c2" text-anchor="middle" style="white-space: pre;" direction="ltr" dominant-baseline="text-before-edge">app</text></g><g stroke-linecap="round" transform="translate(839.8209860665457 494.16299729120163) rotate(0 48.58073425292969 40.99609374999997)"><path d="M4.8 5.5 C4.8 5.5, 4.8 5.5, 4.8 5.5 M4.8 5.5 C4.8 5.5, 4.8 5.5, 4.8 5.5 M1 22.07 C7.98 13.97, 16.37 3.86, 19.37 0.93 M1 22.07 C5.57 16.7, 8.78 13.01, 19.37 0.93 M1.13 34.11 C8.31 23.67, 16.45 14.49, 30 0.9 M1.13 34.11 C10.42 24.26, 18.45 12.32, 30 0.9 M0.61 46.9 C14.32 30.93, 27.44 17.04, 40.63 0.87 M0.61 46.9 C9.33 35, 19.2 25.25, 40.63 0.87 M0.74 58.94 C14.44 44.8, 23.89 30.72, 51.26 0.83 M0.74 58.94 C18.46 40.16, 33.19 20.02, 51.26 0.83 M2.19 69.48 C25.52 44.48, 44.99 19.57, 61.89 0.8 M2.19 69.48 C21.91 46.99, 41.61 25.77, 61.89 0.8 M5.6 77.74 C29.23 48.66, 54.44 20.37, 72.52 0.76 M5.6 77.74 C29.01 51.57, 50.85 24.39, 72.52 0.76 M13.6 80.73 C40.18 50.89, 61.75 22.67, 83.15 0.73 M13.6 80.73 C31.87 59.79, 49.48 39.16, 83.15 0.73 M22.92 82.2 C44.39 60.41, 63.05 37.23, 90.5 4.47 M22.92 82.2 C40.45 61.8, 57.87 42.5, 90.5 4.47 M33.55 82.17 C45.98 67.09, 61.33 52.56, 95.88 10.47 M33.55 82.17 C46.5 67.25, 60.8 49.41, 95.88 10.47 M44.18 82.13 C54.86 69.9, 66.3 55.39, 97.32 21 M44.18 82.13 C63.18 59.15, 83.53 36.9, 97.32 21 M54.81 82.1 C71.23 66.06, 82.74 46.79, 97.46 33.04 M54.81 82.1 C67.39 68.58, 80.11 54.24, 97.46 33.04 M64.79 82.82 C69.67 75.85, 77.65 67.69, 97.59 45.08 M64.79 82.82 C73.98 71.18, 84.24 60.51, 97.59 45.08 M75.42 82.78 C81.96 76.01, 87.05 70.03, 97.07 57.88 M75.42 82.78 C81.7 76.63, 87.36 68.82, 97.07 57.88 M88.67 79.73 C91.16 77.5, 92.34 74.54, 94.58 72.94 M88.67 79.73 C90.2 77.12, 92.84 75.58, 94.58 72.94" stroke="#ffc9c9" stroke-width="1" fill="none"></path><path d="M20.5 0 C39.3 1.11, 63.67 1.99, 76.66 0 M20.5 0 C38.02 -1.1, 54.23 -1.36, 76.66 0 M76.66 0 C92.21 0.23, 96.22 4.94, 97.16 20.5 M76.66 0 C88.66 0.48, 94.88 5.7, 97.16 20.5 M97.16 20.5 C96.54 29.45, 95.33 38.97, 97.16 61.49 M97.16 20.5 C96.74 34.84, 97.89 49.99, 97.16 61.49 M97.16 61.49 C95.51 76.76, 90.51 82.45, 76.66 81.99 M97.16 61.49 C95.73 75.38, 91.25 83.39, 76.66 81.99 M76.66 81.99 C62.56 82.18, 49.59 81.71, 20.5 81.99 M76.66 81.99 C65.67 82.73, 54.78 82.09, 20.5 81.99 M20.5 81.99 C7.44 80.9, 1.31 76.1, 0 61.49 M20.5 81.99 C9.08 82.08, 2.02 76.11, 0 61.49 M0 61.49 C0.98 43.45, -0.5 28.36, 0 20.5 M0 61.49 C0.49 48.65, 0.76 37.2, 0 20.5 M0 20.5 C-1.57 6.06, 6.55 1.99, 20.5 0 M0 20.5 C0.85 5.7, 5.24 0.58, 20.5 0" stroke="#e03131" stroke-width="2" fill="none"></path></g><g transform="translate(868.7177298409598 517.6590910412017) rotate(0 19.683990478515625 17.49999999999997)"><text x="19.683990478515625" y="0" font-family="Virgil, Segoe UI Emoji" font-size="28px" fill="#e03131" text-anchor="middle" style="white-space: pre;" direction="ltr" dominant-baseline="text-before-edge">c-p</text></g><g stroke-linecap="round"><g transform="translate(140.95982578822543 207.49097911972729) rotate(0 33.58073425292969 -0.25390625)"><path d="M0.01 1.04 C11.11 0.69, 56.6 -1.34, 67.71 -1.53 M-1.45 0.53 C9.46 0.25, 55.86 -0.07, 67.04 -0.54" stroke="#1e1e1e" stroke-width="2" fill="none"></path></g><g transform="translate(140.95982578822543 207.49097911972729) rotate(0 33.58073425292969 -0.25390625)"><path d="M39.08 10.33 C51.62 7.02, 59.06 1.05, 67.04 -0.54 M39.08 10.33 C48.58 5.86, 58.08 2.48, 67.04 -0.54" stroke="#1e1e1e" stroke-width="2" fill="none"></path></g><g transform="translate(140.95982578822543 207.49097911972729) rotate(0 33.58073425292969 -0.25390625)"><path d="M38.64 -10.18 C51.45 -5.53, 59.05 -3.52, 67.04 -0.54 M38.64 -10.18 C48.31 -7.84, 57.95 -4.38, 67.04 -0.54" stroke="#1e1e1e" stroke-width="2" fill="none"></path></g></g><mask></mask><g stroke-linecap="round"><g transform="translate(329.2931692940848 206.72791423802852) rotate(0 30.664047241210938 0.1627655029296875)"><path d="M0.11 0.78 C10.17 1.11, 50.16 1.54, 60.51 1.28 M-1.3 0.15 C9.14 0.21, 52.26 -0.3, 62.8 -0.34" stroke="#1e1e1e" stroke-width="2" fill="none"></path></g><g transform="translate(329.2931692940848 206.72791423802852) rotate(0 30.664047241210938 0.1627655029296875)"><path d="M34.69 10.15 C44.71 5.53, 53.66 5.17, 62.8 -0.34 M34.69 10.15 C40.9 7.53, 45.67 6.48, 62.8 -0.34" stroke="#1e1e1e" stroke-width="2" fill="none"></path></g><g transform="translate(329.2931692940848 206.72791423802852) rotate(0 30.664047241210938 0.1627655029296875)"><path d="M34.53 -10.37 C44.49 -8.67, 53.48 -2.71, 62.8 -0.34 M34.53 -10.37 C40.88 -8.73, 45.68 -5.52, 62.8 -0.34" stroke="#1e1e1e" stroke-width="2" fill="none"></path></g></g><mask></mask><g stroke-linecap="round"><g transform="translate(508.45982578822543 207.80624092478484) rotate(0 26.9140625 -0.25390625)"><path d="M-0.07 0.38 C8.92 0.16, 44.47 -1.45, 53.62 -1.51 M-1.56 -0.47 C7.28 -0.56, 43.2 -0.24, 52.57 -0.5" stroke="#1e1e1e" stroke-width="2" fill="none"></path></g><g transform="translate(508.45982578822543 207.80624092478484) rotate(0 26.9140625 -0.25390625)"><path d="M27.34 8.89 C34.89 5.99, 39.49 5.51, 52.57 -0.5 M27.34 8.89 C36.15 4.89, 43.82 3, 52.57 -0.5" stroke="#1e1e1e" stroke-width="2" fill="none"></path></g><g transform="translate(508.45982578822543 207.80624092478484) rotate(0 26.9140625 -0.25390625)"><path d="M27.21 -9.52 C34.77 -7.38, 39.41 -2.82, 52.57 -0.5 M27.21 -9.52 C36.04 -7.17, 43.76 -2.71, 52.57 -0.5" stroke="#1e1e1e" stroke-width="2" fill="none"></path></g></g><mask></mask><g stroke-linecap="round"><g transform="translate(686.7931387765067 207.97121500902057) rotate(0 32.46531168619788 -0.954864501953125)"><path d="M0.58 0.76 C11.39 0.73, 53.53 -0.45, 64.12 -0.72 M-0.57 0.12 C10.69 -0.17, 55.21 -1.76, 66.41 -2.22" stroke="#1e1e1e" stroke-width="2" fill="none"></path></g><g transform="translate(686.7931387765067 207.97121500902057) rotate(0 32.46531168619788 -0.954864501953125)"><path d="M38.62 9.1 C46.57 4.91, 53.9 2.23, 66.41 -2.22 M38.62 9.1 C49.38 4.07, 60.53 0.76, 66.41 -2.22" stroke="#1e1e1e" stroke-width="2" fill="none"></path></g><g transform="translate(686.7931387765067 207.97121500902057) rotate(0 32.46531168619788 -0.954864501953125)"><path d="M37.85 -11.41 C45.89 -10.71, 53.4 -8.5, 66.41 -2.22 M37.85 -11.41 C48.97 -8.49, 60.42 -3.86, 66.41 -2.22" stroke="#1e1e1e" stroke-width="2" fill="none"></path></g></g><mask></mask><g stroke-linecap="round"><g transform="translate(882.6178458077567 208.61682995575558) rotate(0 36.63179524739576 -1.5141746318237068)"><path d="M-0.93 0.25 C11.14 -0.33, 60.06 -2.26, 72.23 -3 M0.78 -0.66 C13.24 -1.07, 62.13 -0.98, 74.39 -1.45" stroke="#1e1e1e" stroke-width="2" fill="none"></path></g><g transform="translate(882.6178458077567 208.61682995575558) rotate(0 36.63179524739576 -1.5141746318237068)"><path d="M46.37 9.26 C54.6 4.75, 62.08 1.51, 74.39 -1.45 M46.37 9.26 C51.31 7.02, 57.06 5.26, 74.39 -1.45" stroke="#1e1e1e" stroke-width="2" fill="none"></path></g><g transform="translate(882.6178458077567 208.61682995575558) rotate(0 36.63179524739576 -1.5141746318237068)"><path d="M46.04 -11.26 C54.44 -10.02, 62.01 -7.51, 74.39 -1.45 M46.04 -11.26 C51.03 -9.35, 56.84 -6.96, 74.39 -1.45" stroke="#1e1e1e" stroke-width="2" fill="none"></path></g></g><mask></mask><g stroke-linecap="round"><g transform="translate(448.45982578822543 259.81580897739957) rotate(0 55.40797932942712 60.419776448083496)"><path d="M0.28 0.9 C0.47 19.23, -16.6 89.19, 1.99 109.11 C20.58 129.03, 93.66 118.6, 111.82 120.43 M-1.04 0.32 C-0.97 18.86, -17.12 89.98, 1.65 110.18 C20.42 130.38, 93.31 119.77, 111.58 121.53" stroke="#1e1e1e" stroke-width="2" fill="none"></path></g><g transform="translate(448.45982578822543 259.81580897739957) rotate(0 55.40797932942712 60.419776448083496)"><path d="M83.61 132.38 C95.52 130.24, 102.86 125.98, 111.58 121.53 M83.61 132.38 C91.03 129.01, 98.31 126.95, 111.58 121.53" stroke="#1e1e1e" stroke-width="2" fill="none"></path></g><g transform="translate(448.45982578822543 259.81580897739957) rotate(0 55.40797932942712 60.419776448083496)"><path d="M83.19 111.86 C95.1 117.3, 102.6 120.61, 111.58 121.53 M83.19 111.86 C90.75 113.95, 98.14 117.34, 111.58 121.53" stroke="#1e1e1e" stroke-width="2" fill="none"></path></g></g><mask></mask><g stroke-linecap="round"><g transform="translate(689.2757844470797 365.8299872380942) rotate(0 28.585032145182254 0.8436928932458727)"><path d="M-0.83 -0.53 C8.9 -0.21, 47.98 0.73, 57.61 1.25 M0.93 1.81 C10.61 2.36, 47.71 2.74, 56.9 2.56" stroke="#1e1e1e" stroke-width="2" fill="none"></path></g><g transform="translate(689.2757844470797 365.8299872380942) rotate(0 28.585032145182254 0.8436928932458727)"><path d="M30.03 12.38 C35.53 10.99, 42 7.55, 56.9 2.56 M30.03 12.38 C40.46 8.38, 51.21 4.53, 56.9 2.56" stroke="#1e1e1e" stroke-width="2" fill="none"></path></g><g transform="translate(689.2757844470797 365.8299872380942) rotate(0 28.585032145182254 0.8436928932458727)"><path d="M30.01 -7.18 C35.4 -3.97, 41.88 -2.81, 56.9 2.56 M30.01 -7.18 C40.61 -3.78, 51.37 -0.25, 56.9 2.56" stroke="#1e1e1e" stroke-width="2" fill="none"></path></g></g><mask></mask><g stroke-linecap="round"><g transform="translate(879.2844921293712 368.90431256216914) rotate(0 42.747426350911496 -1.3125496363742286)"><path d="M0.2 0.03 C14.49 -0.24, 71.56 -1.87, 85.69 -2.2 M-1.16 -1 C13 -1.59, 70.66 -3.61, 84.84 -4.1" stroke="#1e1e1e" stroke-width="2" fill="none"></path></g><g transform="translate(879.2844921293712 368.90431256216914) rotate(0 42.747426350911496 -1.3125496363742286)"><path d="M57.03 7.14 C65.28 4.13, 74.09 -0.33, 84.84 -4.1 M57.03 7.14 C67.01 3.96, 77.16 -1.54, 84.84 -4.1" stroke="#1e1e1e" stroke-width="2" fill="none"></path></g><g transform="translate(879.2844921293712 368.90431256216914) rotate(0 42.747426350911496 -1.3125496363742286)"><path d="M56.31 -13.37 C64.68 -10.37, 73.69 -8.82, 84.84 -4.1 M56.31 -13.37 C66.51 -9.25, 76.91 -7.45, 84.84 -4.1" stroke="#1e1e1e" stroke-width="2" fill="none"></path></g></g><mask></mask><g stroke-linecap="round"><g transform="translate(470.95982578822543 262.31580897739957) rotate(0 44.71789550781256 136.95078607389524)"><path d="M-0.01 -0.08 C-2.46 42.46, -32.08 208.35, -14.81 254.05 C2.47 299.75, 83.87 270.68, 103.65 274.13 M-1.48 -1.17 C-3.51 41.66, -29.83 209.4, -12.43 255.52 C4.97 301.65, 83.46 272.72, 102.91 275.56" stroke="#1e1e1e" stroke-width="2" fill="none"></path></g><g transform="translate(470.95982578822543 262.31580897739957) rotate(0 44.71789550781256 136.95078607389524)"><path d="M75.93 288.68 C83.67 283.85, 91.35 281.22, 102.91 275.56 M75.93 288.68 C85.21 284.19, 94.09 280.15, 102.91 275.56" stroke="#1e1e1e" stroke-width="2" fill="none"></path></g><g transform="translate(470.95982578822543 262.31580897739957) rotate(0 44.71789550781256 136.95078607389524)"><path d="M73.81 268.27 C81.96 269.3, 90.25 272.54, 102.91 275.56 M73.81 268.27 C83.81 270.27, 93.37 272.74, 102.91 275.56" stroke="#1e1e1e" stroke-width="2" fill="none"></path></g></g><mask></mask><g stroke-linecap="round"><g transform="translate(692.0623038155692 536.6500435739282) rotate(0 63.98435974121094 -1.109976230177324)"><path d="M0.09 0.22 C21.62 -0.4, 106.89 -2.88, 128.14 -3.2 M-1.32 -0.71 C20.16 -1.26, 105.96 -1.66, 127.28 -2.18" stroke="#1e1e1e" stroke-width="2" fill="none"></path></g><g transform="translate(692.0623038155692 536.6500435739282) rotate(0 63.98435974121094 -1.109976230177324)"><path d="M99.23 8.46 C105.53 6.45, 109.51 3.25, 127.28 -2.18 M99.23 8.46 C108.56 4.87, 119.07 0.48, 127.28 -2.18" stroke="#1e1e1e" stroke-width="2" fill="none"></path></g><g transform="translate(692.0623038155692 536.6500435739282) rotate(0 63.98435974121094 -1.109976230177324)"><path d="M98.96 -12.06 C105.41 -9.69, 109.45 -8.51, 127.28 -2.18 M98.96 -12.06 C108.45 -8.64, 119.06 -6.03, 127.28 -2.18" stroke="#1e1e1e" stroke-width="2" fill="none"></path></g></g><mask></mask><g stroke-linecap="round" transform="translate(10 10) rotate(0 567.8818359375 311.5466740926107)"><path d="M32 0 C366.32 3.65, 701.58 3.56, 1103.76 0 M1103.76 0 C1125.46 -0.78, 1136.55 10.44, 1135.76 32 M1135.76 32 C1137.96 227.97, 1137.23 425.57, 1135.76 591.09 M1135.76 591.09 C1134.22 611.67, 1126.35 622.2, 1103.76 623.09 M1103.76 623.09 C778.15 627.33, 452.83 626.7, 32 623.09 M32 623.09 C9.25 624.16, 1.88 614.37, 0 591.09 M0 591.09 C-0.52 371.77, -0.62 152.06, 0 32 M0 32 C-0.73 11.06, 12.34 -1.91, 32 0" stroke="#9c36b5" stroke-width="2.5" fill="none" stroke-dasharray="8 10"></path></g><g stroke-linecap="round" transform="translate(353.1212942940848 40.141339983258945) rotate(0 211.49740600585938 38.079429626464844)"><path d="M5.07 4.41 C5.07 4.41, 5.07 4.41, 5.07 4.41 M5.07 4.41 C5.07 4.41, 5.07 4.41, 5.07 4.41 M1.92 20.22 C5.84 14.43, 7.85 12.39, 18.98 0.6 M1.92 20.22 C7.32 14.19, 10.94 9, 18.98 0.6 M2.05 32.26 C10.63 21.05, 19.61 12.92, 29.61 0.56 M2.05 32.26 C10.99 22.83, 19.48 13.32, 29.61 0.56 M2.19 44.3 C12.85 30.18, 22.01 17.59, 40.24 0.53 M2.19 44.3 C14.9 28.95, 28.41 14.34, 40.24 0.53 M2.32 56.34 C16.4 38.34, 29.98 23.08, 50.87 0.49 M2.32 56.34 C19.51 36.9, 37.45 15.04, 50.87 0.49 M3.11 67.63 C23.71 43.43, 45.55 19.84, 61.5 0.46 M3.11 67.63 C26.58 42.17, 47.57 17.36, 61.5 0.46 M7.84 74.39 C24.57 56.22, 45 35.48, 72.13 0.43 M7.84 74.39 C24.82 55.34, 40.11 37.75, 72.13 0.43 M15.84 77.37 C41.37 50.42, 64.2 17.99, 82.76 0.39 M15.84 77.37 C39.37 48.93, 64.41 23.35, 82.76 0.39 M26.47 77.34 C43.28 56.66, 60.66 36.9, 93.39 0.36 M26.47 77.34 C46.04 54.11, 65.61 31.86, 93.39 0.36 M37.1 77.3 C61.83 46.86, 91.02 18.72, 104.02 0.32 M37.1 77.3 C58.16 52.85, 78.69 28.4, 104.02 0.32 M47.73 77.27 C68.55 53.72, 91.47 25.6, 114.65 0.29 M47.73 77.27 C63.48 57.43, 82.23 37.18, 114.65 0.29 M58.36 77.23 C71.77 59.02, 87.52 43.14, 125.28 0.25 M58.36 77.23 C79.04 52.19, 101.9 28.19, 125.28 0.25 M68.99 77.2 C86.16 58.67, 99.32 39.5, 135.91 0.22 M68.99 77.2 C84.93 58.16, 102.49 36.46, 135.91 0.22 M79.62 77.16 C101.11 51.36, 125.77 24.9, 146.54 0.18 M79.62 77.16 C101.14 52.55, 122.08 27.82, 146.54 0.18 M90.25 77.13 C106.74 58.75, 122.48 39.77, 157.17 0.15 M90.25 77.13 C107.32 57.39, 124.73 37.62, 157.17 0.15 M100.88 77.09 C116.89 62.47, 131.44 45.58, 167.8 0.11 M100.88 77.09 C120.03 56.34, 137.07 35.79, 167.8 0.11 M111.51 77.06 C128.94 56.61, 143.23 38.79, 178.43 0.08 M111.51 77.06 C135.97 49.28, 161.16 20.7, 178.43 0.08 M122.14 77.03 C149 47.44, 174.12 15.35, 189.06 0.05 M122.14 77.03 C134.9 62.06, 148.46 45.6, 189.06 0.05 M132.77 76.99 C150.98 59.87, 164.9 39.12, 199.69 0.01 M132.77 76.99 C157.12 49.88, 178.84 23.21, 199.69 0.01 M143.4 76.96 C159.56 60.36, 170.6 44.76, 209.66 0.73 M143.4 76.96 C169.12 49.19, 192.54 21.25, 209.66 0.73 M154.03 76.92 C174.26 54.34, 196.58 30.74, 220.29 0.7 M154.03 76.92 C174.11 52.48, 194.59 29.82, 220.29 0.7 M164.66 76.89 C181.16 59.96, 194.98 41.25, 230.92 0.66 M164.66 76.89 C187.41 52, 208.25 29.16, 230.92 0.66 M174.64 77.61 C186.74 61.4, 201.42 46.26, 241.55 0.63 M174.64 77.61 C189.18 60.7, 202.25 46.72, 241.55 0.63 M185.27 77.57 C202.18 60.74, 218.81 42.68, 252.18 0.59 M185.27 77.57 C211.64 47.45, 238.01 16.18, 252.18 0.59 M195.9 77.54 C217.54 53.34, 237.44 29.44, 262.81 0.56 M195.9 77.54 C219.14 50.94, 239.84 26.02, 262.81 0.56 M206.53 77.5 C227.47 54.68, 245.29 30.51, 273.44 0.52 M206.53 77.5 C221.13 58.86, 237.93 40.38, 273.44 0.52 M217.16 77.47 C242.24 47.67, 265.88 19.09, 284.07 0.49 M217.16 77.47 C234.18 56.98, 250.82 38.57, 284.07 0.49 M227.79 77.44 C242.42 60.12, 256.63 44.21, 294.7 0.46 M227.79 77.44 C247.18 56.37, 265.68 34.95, 294.7 0.46 M238.42 77.4 C260.11 49.25, 283.62 23.24, 305.33 0.42 M238.42 77.4 C256.61 57.6, 276.1 35.38, 305.33 0.42 M249.05 77.37 C269.79 56.1, 289.2 30.46, 315.96 0.39 M249.05 77.37 C266.76 56.56, 286.86 34.33, 315.96 0.39 M259.68 77.33 C278 55.93, 296.61 36.09, 326.59 0.35 M259.68 77.33 C282.55 51.48, 306.41 24.92, 326.59 0.35 M270.31 77.3 C283.59 61.04, 297.87 42.28, 337.23 0.32 M270.31 77.3 C292.44 50.05, 316.92 24.78, 337.23 0.32 M280.94 77.26 C300.62 54.17, 319.38 33.48, 347.86 0.28 M280.94 77.26 C303.15 50.43, 327.53 23.23, 347.86 0.28 M291.57 77.23 C313.66 48.59, 339.61 22.89, 358.49 0.25 M291.57 77.23 C315.39 51.64, 337.17 24.47, 358.49 0.25 M302.2 77.19 C316.58 60.86, 333.13 41.66, 369.12 0.21 M302.2 77.19 C318.73 59.36, 333.18 40.27, 369.12 0.21 M312.83 77.16 C326.13 60.54, 341.6 45.97, 379.75 0.18 M312.83 77.16 C331.34 55.51, 350.29 34.19, 379.75 0.18 M323.46 77.13 C346.46 53.37, 368.54 29.59, 390.38 0.14 M323.46 77.13 C345.45 53.52, 365.71 27.97, 390.38 0.14 M334.09 77.09 C346.69 59.98, 362.07 46.24, 400.35 0.87 M334.09 77.09 C352.26 54.16, 373.07 32.17, 400.35 0.87 M344.72 77.06 C368 48.8, 394.28 21.89, 410.32 1.59 M344.72 77.06 C365.88 51.94, 388.06 27.52, 410.32 1.59 M355.35 77.02 C375.9 52.16, 398.1 29, 418.33 4.57 M355.35 77.02 C375.98 52.22, 397.66 29.43, 418.33 4.57 M365.32 77.74 C387.28 50.72, 409.97 25.11, 423.05 11.33 M365.32 77.74 C385.78 54.51, 407.57 30.47, 423.05 11.33 M375.95 77.71 C385.65 65.74, 397.69 50.51, 425.16 21.1 M375.95 77.71 C387.27 64.98, 396.18 53.54, 425.16 21.1 M386.58 77.67 C398.06 64.03, 409.73 52.49, 425.29 33.15 M386.58 77.67 C400.75 62.48, 413.44 45.16, 425.29 33.15 M397.21 77.64 C406.21 66.98, 415.28 53.55, 424.77 45.94 M397.21 77.64 C407.66 65.92, 416.8 55.91, 424.77 45.94 M407.19 78.36 C412.07 71.27, 418.73 67.56, 424.9 57.98 M407.19 78.36 C410.1 74.48, 414.65 69.92, 424.9 57.98" stroke="#ffec99" stroke-width="1" fill="none"></path><path d="M19.04 0 C100.78 -1.72, 180.83 -1.56, 403.96 0 M19.04 0 C114.6 0.96, 209.72 1.56, 403.96 0 M403.96 0 C416.18 1.79, 422.26 7.12, 422.99 19.04 M403.96 0 C417.48 -1.23, 423.27 5.42, 422.99 19.04 M422.99 19.04 C424.25 33.03, 422.52 43.08, 422.99 57.12 M422.99 19.04 C423.11 31.09, 422.73 43.72, 422.99 57.12 M422.99 57.12 C421.91 69.15, 414.67 74.46, 403.96 76.16 M422.99 57.12 C422.09 70.72, 414.7 77.51, 403.96 76.16 M403.96 76.16 C325.58 75.44, 250.25 75.09, 19.04 76.16 M403.96 76.16 C281.76 74.29, 158.26 74.63, 19.04 76.16 M19.04 76.16 C6.58 77.18, -0.52 71.8, 0 57.12 M19.04 76.16 C5.47 78.14, 0.45 71.51, 0 57.12 M0 57.12 C-1.24 41.77, -1.77 29.32, 0 19.04 M0 57.12 C1.2 43.49, 0.29 28.04, 0 19.04 M0 19.04 C-0.14 5.72, 5.11 -0.76, 19.04 0 M0 19.04 C2.18 6.16, 4.88 -1.48, 19.04 0" stroke="#f08c00" stroke-width="2" fill="none"></path></g><g transform="translate(456.32875279017856 60.72076960972379) rotate(0 108.28994750976562 17.5)"><text x="108.28994750976562" y="0" font-family="Virgil, Segoe UI Emoji" font-size="28px" fill="#f08c00" text-anchor="middle" style="white-space: pre;" direction="ltr" dominant-baseline="text-before-edge">ProcessSpanSet</text></g></svg>