<svg version="1.1" xmlns="http://www.w3.org/2000/svg" viewBox="0 0 2945.1373578068888 1287.8134249289621" width="2945.1373578068888" height="1287.8134249289621" filter="invert(93%) hue-rotate(180deg)">
  <!-- svg-source:excalidraw -->
  
  <defs>
    <style class="style-fonts">
      @font-face {
        font-family: "Virgil";
        src: url("https://file%2B.vscode-resource.vscode-cdn.net/c%3A/Users/talor/.vscode/extensions/pomdtr.excalidraw-editor-3.7.4/public//dist/excalidraw-assets/Virgil.woff2");
      }
      @font-face {
        font-family: "Cascadia";
        src: url("https://file%2B.vscode-resource.vscode-cdn.net/c%3A/Users/talor/.vscode/extensions/pomdtr.excalidraw-editor-3.7.4/public//dist/excalidraw-assets/Cascadia.woff2");
      }
      @font-face {
        font-family: "Assistant";
        src: url("https://file%2B.vscode-resource.vscode-cdn.net/c%3A/Users/talor/.vscode/extensions/pomdtr.excalidraw-editor-3.7.4/public//dist/excalidraw-assets/Assistant-Regular.woff2");
      }
    </style>
    
  </defs>
  <rect x="0" y="0" width="2945.1373578068888" height="1287.8134249289621" fill="#ffffff"></rect><g stroke-linecap="round" transform="translate(206.04081059339842 110.02507034207042) rotate(0 486.3367809834417 32.57933829700994)"><path d="M6.07 2.63 C6.07 2.63, 6.07 2.63, 6.07 2.63 M6.07 2.63 C6.07 2.63, 6.07 2.63, 6.07 2.63 M0.96 20.71 C7.65 13.71, 13.28 4.89, 18.67 0.33 M0.96 20.71 C6.49 14.84, 10.84 7.98, 18.67 0.33 M1.09 32.75 C10.81 21.87, 21.51 12.23, 29.3 0.29 M1.09 32.75 C6.79 26.47, 14.67 19.64, 29.3 0.29 M0.57 45.54 C12.53 30.39, 27.88 16, 39.93 0.26 M0.57 45.54 C13.93 29.86, 28.14 13.05, 39.93 0.26 M1.35 56.83 C11.94 41.03, 24.78 29.88, 50.56 0.23 M1.35 56.83 C14.22 42.16, 27.98 25.98, 50.56 0.23 M6.74 62.83 C22.46 47.55, 34.84 30.34, 61.19 0.19 M6.74 62.83 C23.52 44.12, 38.43 24.98, 61.19 0.19 M15.4 65.06 C32.34 42.78, 49.96 24.87, 71.82 0.16 M15.4 65.06 C36.88 38.9, 59.2 14.61, 71.82 0.16 M26.03 65.03 C38.76 50.2, 49.86 39.27, 82.45 0.12 M26.03 65.03 C39.73 48.51, 55.23 30.68, 82.45 0.12 M36.66 64.99 C59.41 41.5, 78.11 15.81, 93.08 0.09 M36.66 64.99 C51.46 49.82, 64.6 33.17, 93.08 0.09 M47.29 64.96 C68.03 41, 89.8 14.36, 103.71 0.05 M47.29 64.96 C64.79 43.25, 84.78 22.25, 103.71 0.05 M57.26 65.68 C72.41 47.11, 90.69 28.91, 114.34 0.02 M57.26 65.68 C70.99 49.73, 86.51 32.93, 114.34 0.02 M67.89 65.64 C86.92 44.19, 105.61 22.22, 124.97 -0.02 M67.89 65.64 C82.5 48.55, 98.09 31.94, 124.97 -0.02 M78.52 65.61 C93.26 47.56, 108.36 28.41, 135.6 -0.05 M78.52 65.61 C90.03 52.02, 102.91 38.86, 135.6 -0.05 M89.15 65.57 C111.95 41.02, 135.89 12.89, 146.23 -0.09 M89.15 65.57 C100.67 51.02, 111.27 38.41, 146.23 -0.09 M99.78 65.54 C122.81 39.5, 142.62 17.22, 156.86 -0.12 M99.78 65.54 C112.43 51.99, 127.07 37.11, 156.86 -0.12 M110.41 65.51 C123.39 48.96, 135.06 37.48, 167.49 -0.15 M110.41 65.51 C129.88 42.74, 149.19 19.1, 167.49 -0.15 M121.04 65.47 C137.95 45.79, 154.3 26.22, 178.12 -0.19 M121.04 65.47 C135.78 47.18, 150.95 30.73, 178.12 -0.19 M131.67 65.44 C146.14 50.93, 159.34 33.43, 188.75 -0.22 M131.67 65.44 C146.23 49.16, 159.39 33.08, 188.75 -0.22 M142.3 65.4 C160 45.83, 173.46 29.2, 199.38 -0.26 M142.3 65.4 C164.35 38.93, 187.32 13.38, 199.38 -0.26 M152.93 65.37 C165.92 47.17, 180.91 33.31, 210.01 -0.29 M152.93 65.37 C172.82 40.9, 193.45 18.2, 210.01 -0.29 M163.56 65.33 C178.01 50.26, 191.36 32.67, 220.64 -0.33 M163.56 65.33 C179.62 45.64, 195.86 27.42, 220.64 -0.33 M174.19 65.3 C196.53 40.93, 218.66 15.53, 231.27 -0.36 M174.19 65.3 C189.1 47.87, 205.24 28.74, 231.27 -0.36 M184.82 65.26 C198.41 52.67, 206.51 38.85, 241.24 0.36 M184.82 65.26 C202.49 44.09, 221.84 23.23, 241.24 0.36 M195.45 65.23 C215.74 44.45, 233.81 20.51, 251.87 0.32 M195.45 65.23 C209.29 49.62, 222.81 33.51, 251.87 0.32 M206.08 65.19 C225.24 43.83, 243.67 22.02, 262.5 0.29 M206.08 65.19 C224.87 44.26, 244.48 22.44, 262.5 0.29 M216.71 65.16 C227.59 53.83, 241.19 38.4, 273.14 0.26 M216.71 65.16 C235.29 44.78, 252.57 23.71, 273.14 0.26 M227.34 65.13 C242.9 47.13, 255.59 33.22, 283.77 0.22 M227.34 65.13 C239.61 48.56, 253.49 32.55, 283.77 0.22 M237.97 65.09 C260.8 38.06, 279.53 13.7, 294.4 0.19 M237.97 65.09 C261.2 40.44, 282.64 14.63, 294.4 0.19 M248.6 65.06 C268.51 44.46, 285.99 22.15, 305.03 0.15 M248.6 65.06 C270.15 39.16, 292.45 14.07, 305.03 0.15 M259.23 65.02 C272.06 49.67, 287.12 36.11, 315.66 0.12 M259.23 65.02 C276.7 43.05, 296.54 21.37, 315.66 0.12 M269.86 64.99 C287.29 45.69, 303.46 27.15, 326.29 0.08 M269.86 64.99 C283.59 48.51, 298.26 31.52, 326.29 0.08 M279.84 65.71 C297.52 43.46, 319.09 21.91, 336.92 0.05 M279.84 65.71 C296.81 47.53, 311.91 28.42, 336.92 0.05 M290.47 65.67 C303.89 52.9, 315.02 35.9, 347.55 0.01 M290.47 65.67 C308.26 44.61, 326.18 25.27, 347.55 0.01 M301.1 65.64 C317.66 44.69, 336.9 23.52, 358.18 -0.02 M301.1 65.64 C320.13 42.7, 341.1 21.44, 358.18 -0.02 M311.73 65.6 C326.5 49.7, 341.41 31.82, 368.81 -0.06 M311.73 65.6 C332.81 41.39, 354.13 17.09, 368.81 -0.06 M322.36 65.57 C337.13 45.82, 354.83 24.35, 379.44 -0.09 M322.36 65.57 C338.43 46.94, 352.72 29.24, 379.44 -0.09 M332.99 65.54 C357.14 40.65, 378.63 11.01, 390.07 -0.12 M332.99 65.54 C344.92 51.39, 357.99 36.24, 390.07 -0.12 M343.62 65.5 C355.72 49.16, 369.92 34.89, 400.7 -0.16 M343.62 65.5 C356.67 50.58, 368.85 35.24, 400.7 -0.16 M354.25 65.47 C372.95 46.79, 388.76 25.17, 411.33 -0.19 M354.25 65.47 C366.33 50.97, 378.55 38.57, 411.33 -0.19 M364.88 65.43 C382.38 42.95, 401.16 24.9, 421.96 -0.23 M364.88 65.43 C387.87 39.68, 408.94 14.7, 421.96 -0.23 M375.51 65.4 C387.11 52.49, 401.09 38.26, 432.59 -0.26 M375.51 65.4 C392.62 46.42, 408.1 27.46, 432.59 -0.26 M386.14 65.36 C400.43 50.4, 414.88 30.46, 443.22 -0.3 M386.14 65.36 C406.79 42.16, 427.57 18.76, 443.22 -0.3 M396.77 65.33 C412.33 50.01, 422.99 35.92, 453.85 -0.33 M396.77 65.33 C416.02 42.7, 434.32 20.91, 453.85 -0.33 M407.4 65.29 C426.51 41.78, 446.39 21.78, 464.48 -0.37 M407.4 65.29 C426.49 42.82, 447.22 20.16, 464.48 -0.37 M418.03 65.26 C437.47 39.19, 458.64 15.99, 474.45 0.35 M418.03 65.26 C430.59 50.85, 443.08 36.55, 474.45 0.35 M428.66 65.23 C451.46 38.68, 473.85 12, 485.08 0.32 M428.66 65.23 C449.64 39.76, 469.9 16.98, 485.08 0.32 M439.29 65.19 C460.17 40.63, 484.93 15.1, 495.71 0.29 M439.29 65.19 C460.28 42.53, 479.51 18.75, 495.71 0.29 M449.92 65.16 C464.64 50.97, 480.3 32.04, 506.34 0.25 M449.92 65.16 C467.66 45.9, 485.1 26.47, 506.34 0.25 M460.55 65.12 C478.13 44.7, 493.84 26.49, 516.97 0.22 M460.55 65.12 C480.64 43.44, 498.98 20.03, 516.97 0.22 M471.18 65.09 C481.98 48.83, 496.21 35.98, 527.6 0.18 M471.18 65.09 C493.21 40, 515.09 15.14, 527.6 0.18 M481.81 65.05 C494.57 50.18, 508.93 32.4, 538.23 0.15 M481.81 65.05 C500.53 42.15, 519.06 20.46, 538.23 0.15 M492.44 65.02 C506.64 49.4, 518.43 33.06, 548.86 0.11 M492.44 65.02 C510.66 43.52, 529.52 21.06, 548.86 0.11 M503.07 64.98 C520 47.05, 538.06 26.47, 559.49 0.08 M503.07 64.98 C520.21 46.42, 535.92 27.68, 559.49 0.08 M513.04 65.7 C534.03 42.02, 555.39 16.46, 570.12 0.04 M513.04 65.7 C524.34 52.43, 536.32 39.28, 570.12 0.04 M523.67 65.67 C536.59 51.28, 548.2 38.9, 580.75 0.01 M523.67 65.67 C540.15 47.94, 554.22 29.9, 580.75 0.01 M534.3 65.63 C550.55 48.27, 564.52 28.98, 591.38 -0.02 M534.3 65.63 C554.95 43.02, 574.09 18.72, 591.38 -0.02 M544.93 65.6 C559.84 50.43, 574.07 33.26, 602.01 -0.06 M544.93 65.6 C563.63 42.58, 585.45 19.5, 602.01 -0.06 M555.56 65.57 C572.05 47.05, 586.65 26.67, 612.64 -0.09 M555.56 65.57 C571.46 46.97, 588.27 28.13, 612.64 -0.09 M566.19 65.53 C576.5 51.21, 590.05 39.53, 623.27 -0.13 M566.19 65.53 C587.01 40.8, 608.03 17.86, 623.27 -0.13 M576.82 65.5 C597.71 41.98, 620.37 15.27, 633.9 -0.16 M576.82 65.5 C597.63 42.36, 617.87 18.49, 633.9 -0.16 M587.46 65.46 C607.21 44.84, 627.33 21.41, 644.53 -0.2 M587.46 65.46 C604.6 43.91, 622.1 23.68, 644.53 -0.2 M598.09 65.43 C612.63 49.39, 622.51 35.39, 655.16 -0.23 M598.09 65.43 C618.95 42.27, 639 19.83, 655.16 -0.23 M608.72 65.39 C623.13 47.51, 639.95 28.74, 665.79 -0.27 M608.72 65.39 C628.04 43.04, 647.27 20.25, 665.79 -0.27 M619.35 65.36 C638.51 42.98, 657.63 18.99, 676.42 -0.3 M619.35 65.36 C633.02 49.52, 648.65 32.87, 676.42 -0.3 M629.98 65.32 C646.88 49.09, 659.98 28.81, 687.05 -0.34 M629.98 65.32 C640.17 52.36, 652.03 39.59, 687.05 -0.34 M640.61 65.29 C656.78 45.16, 672.07 28.29, 697.68 -0.37 M640.61 65.29 C654.84 50.5, 668.24 33.44, 697.68 -0.37 M651.24 65.26 C672.93 38.43, 694.25 15.13, 707.66 0.35 M651.24 65.26 C671.22 41.04, 694.42 16.4, 707.66 0.35 M661.87 65.22 C676.53 47.85, 691.38 30.35, 718.29 0.32 M661.87 65.22 C682.5 40.5, 703.96 15.74, 718.29 0.32 M672.5 65.19 C690.86 45.04, 707 26.36, 728.92 0.28 M672.5 65.19 C693.73 41.55, 712.97 18.8, 728.92 0.28 M683.13 65.15 C704.7 39.23, 727.08 13, 739.55 0.25 M683.13 65.15 C697.3 49.39, 710.82 32.57, 739.55 0.25 M693.76 65.12 C709.85 47.36, 721.97 33.53, 750.18 0.21 M693.76 65.12 C713.17 43.95, 732.8 20.86, 750.18 0.21 M704.39 65.08 C728.02 41.07, 748.9 14.75, 760.81 0.18 M704.39 65.08 C723.92 42.66, 745.14 19.08, 760.81 0.18 M715.02 65.05 C737.02 40.01, 754.04 15.85, 771.44 0.14 M715.02 65.05 C736.45 40.83, 755.78 17.36, 771.44 0.14 M725.65 65.01 C741.44 47.89, 757.31 29.64, 782.07 0.11 M725.65 65.01 C744.08 43.9, 762.99 22.89, 782.07 0.11 M736.28 64.98 C753.83 46.82, 768.44 25.48, 792.7 0.07 M736.28 64.98 C756.53 41.89, 776.64 18.07, 792.7 0.07 M746.25 65.7 C762.93 50.56, 776.68 33.39, 803.33 0.04 M746.25 65.7 C761.51 46.77, 778.48 29.69, 803.33 0.04 M756.88 65.67 C779.01 42.79, 798.06 17.72, 813.96 0.01 M756.88 65.67 C775.19 44.78, 791.65 25.87, 813.96 0.01 M767.51 65.63 C786.16 42.76, 803.15 23.03, 824.59 -0.03 M767.51 65.63 C784.11 44.61, 802.98 24.06, 824.59 -0.03 M778.14 65.6 C794.11 46.67, 810.56 29.28, 835.22 -0.06 M778.14 65.6 C792.94 48.35, 807.23 32.47, 835.22 -0.06 M788.77 65.56 C810.17 39.48, 832.08 18.91, 845.85 -0.1 M788.77 65.56 C809.67 40.86, 830.31 17.21, 845.85 -0.1 M799.4 65.53 C820.01 45.63, 836.02 24.43, 856.48 -0.13 M799.4 65.53 C819 44.56, 835.75 23.21, 856.48 -0.13 M810.03 65.49 C827.86 47.34, 844.3 26.23, 867.11 -0.17 M810.03 65.49 C828.42 42.62, 848.16 20.9, 867.11 -0.17 M820.66 65.46 C835.32 49.58, 846.42 35.58, 877.74 -0.2 M820.66 65.46 C836.91 46.08, 855.01 25.49, 877.74 -0.2 M831.29 65.42 C847.27 45.17, 868.02 26.63, 888.37 -0.24 M831.29 65.42 C845.97 51, 858.88 34.98, 888.37 -0.24 M841.92 65.39 C860.75 39.78, 882.34 18.31, 899 -0.27 M841.92 65.39 C856.25 49.85, 868.74 33.22, 899 -0.27 M852.55 65.35 C865.56 51.33, 881.47 32.62, 909.63 -0.3 M852.55 65.35 C874.75 41.28, 898.16 13.89, 909.63 -0.3 M863.18 65.32 C876.16 53.89, 884.49 38.9, 920.26 -0.34 M863.18 65.32 C879.37 47.45, 893.66 29.78, 920.26 -0.34 M873.81 65.29 C886.95 48.59, 898.12 37.49, 930.23 0.38 M873.81 65.29 C886.63 51.46, 899.2 36.69, 930.23 0.38 M884.44 65.25 C904.79 44.08, 922.09 19.93, 940.86 0.35 M884.44 65.25 C905.63 42.96, 924.27 19.78, 940.86 0.35 M895.07 65.22 C915.95 38.87, 935.77 18.33, 951.49 0.31 M895.07 65.22 C913.66 43.92, 931.89 22.23, 951.49 0.31 M905.7 65.18 C922.15 46.31, 938.64 26.61, 961.47 1.03 M905.7 65.18 C928.11 40.06, 948.05 16.9, 961.47 1.03 M916.33 65.15 C934.31 43.17, 954.53 21.87, 968.82 4.77 M916.33 65.15 C934.01 44.51, 952.89 24.47, 968.82 4.77 M926.96 65.11 C936.54 50.6, 950.24 37.23, 972.23 13.04 M926.96 65.11 C937.17 52.39, 948.01 40.7, 972.23 13.04 M937.59 65.08 C944.08 57.37, 950.76 46.91, 973.02 24.32 M937.59 65.08 C947.85 53.17, 958.52 40.71, 973.02 24.32 M948.22 65.04 C955.7 56.09, 965.98 46.1, 973.15 36.37 M948.22 65.04 C957.66 55.87, 964.66 45.85, 973.15 36.37 M958.2 65.76 C961.87 59.88, 967.18 56.16, 972.63 49.16 M958.2 65.76 C961.38 61.82, 965.92 56.11, 972.63 49.16" stroke="#ffc9c9" stroke-width="1" fill="none"></path><path d="M16.29 0 C375.88 4.01, 736.36 4.11, 956.38 0 M16.29 0 C267.97 1.35, 519.44 0.91, 956.38 0 M956.38 0 C966.63 -1.18, 974.67 4.84, 972.67 16.29 M956.38 0 C969.29 -0.6, 973.47 6.23, 972.67 16.29 M972.67 16.29 C972.31 24.03, 970.74 31.64, 972.67 48.87 M972.67 16.29 C972.34 27.66, 973.47 38.23, 972.67 48.87 M972.67 48.87 C973.2 61.5, 969.07 63.25, 956.38 65.16 M972.67 48.87 C974.95 61.51, 965.66 66.5, 956.38 65.16 M956.38 65.16 C598.37 62.44, 240.95 62.02, 16.29 65.16 M956.38 65.16 C602.43 66.06, 248.55 66.23, 16.29 65.16 M16.29 65.16 C3.91 63.66, 1.26 59.98, 0 48.87 M16.29 65.16 C6.63 63.61, -0.03 57.78, 0 48.87 M0 48.87 C1.87 38.27, -0.35 26.58, 0 16.29 M0 48.87 C1.03 38.94, -0.81 28.49, 0 16.29 M0 16.29 C0.14 6.83, 4.52 -0.85, 16.29 0 M0 16.29 C0.73 6.6, 3.35 1.51, 16.29 0" stroke="#e03131" stroke-width="2" fill="none"></path></g><g transform="translate(669.811643090512 123.10999768626482) rotate(0 22.565948486328125 19.4944109528156)"><text x="22.565948486328125" y="0" font-family="Virgil, Segoe UI Emoji" font-size="31.191057524504977px" fill="#e03131" text-anchor="middle" style="white-space: pre;" direction="ltr" dominant-baseline="text-before-edge">s-p</text></g><g stroke-linecap="round" transform="translate(242.33498617851546 184.76651966609427) rotate(0 438.6765504880741 32.86138435314149)"><path d="M6.11 2.66 C6.11 2.66, 6.11 2.66, 6.11 2.66 M6.11 2.66 C6.11 2.66, 6.11 2.66, 6.11 2.66 M6.9 13.95 C10.98 10.41, 15.64 5.37, 18.05 1.12 M6.9 13.95 C10.83 9.87, 13.52 5.9, 18.05 1.12 M6.38 26.74 C10.91 17.39, 17.91 10.43, 28.68 1.08 M6.38 26.74 C14.68 16.63, 23.23 6.95, 28.68 1.08 M5.86 39.54 C17.82 26.22, 27.63 12.58, 39.31 1.05 M5.86 39.54 C17.37 26.66, 29.69 11.87, 39.31 1.05 M1.4 56.86 C11.3 46.04, 23.62 32.99, 49.94 1.02 M1.4 56.86 C18.57 36.39, 36.26 16.4, 49.94 1.02 M6.12 63.62 C23.36 45.85, 41.92 25.96, 60.57 0.98 M6.12 63.62 C26.01 40.5, 45.93 18.27, 60.57 0.98 M12.82 68.12 C27.95 53.51, 40.88 37.86, 71.2 0.95 M12.82 68.12 C24.74 52.91, 38.1 38.12, 71.2 0.95 M21.48 70.35 C34.78 54.83, 50.84 36.57, 81.83 0.91 M21.48 70.35 C43.76 46.03, 63.62 21.31, 81.83 0.91 M32.11 70.31 C52.58 44.3, 72.71 22.47, 91.81 1.63 M32.11 70.31 C54.22 46.02, 75.04 21.96, 91.81 1.63 M42.74 70.28 C65.9 44.44, 88.61 17.35, 102.44 1.6 M42.74 70.28 C57.1 52.62, 72.48 35.06, 102.44 1.6 M53.37 70.24 C69.17 49.74, 88.05 28.96, 113.07 1.56 M53.37 70.24 C76.06 45.05, 97.29 18.22, 113.07 1.56 M64 70.21 C84.78 46.1, 106.36 21.07, 123.7 1.53 M64 70.21 C81.13 48.74, 99.92 28.31, 123.7 1.53 M74.63 70.17 C90.41 49.48, 109.64 29.86, 134.33 1.49 M74.63 70.17 C90.78 51.97, 106.02 33.97, 134.33 1.49 M85.26 70.14 C105.93 44.5, 132.72 17.61, 144.96 1.46 M85.26 70.14 C99.72 55.25, 113.01 40.6, 144.96 1.46 M95.89 70.1 C110.59 49.49, 126.14 30.85, 155.59 1.43 M95.89 70.1 C117.77 42.55, 141.38 16.24, 155.59 1.43 M106.52 70.07 C120 56.99, 132.22 42.16, 166.22 1.39 M106.52 70.07 C125.31 49.95, 142.98 27.7, 166.22 1.39 M117.15 70.03 C134.14 51.36, 150.71 29.43, 176.85 1.36 M117.15 70.03 C131.1 53.14, 144.98 37.8, 176.85 1.36 M127.78 70 C146.89 48.62, 167.84 25.13, 187.48 1.32 M127.78 70 C148.18 46.24, 168.58 24.02, 187.48 1.32 M138.41 69.97 C157.5 51.61, 173.07 30.74, 198.11 1.29 M138.41 69.97 C156.52 48.61, 176.34 26.56, 198.11 1.29 M149.04 69.93 C164.02 54.48, 175.91 36.96, 208.74 1.25 M149.04 69.93 C161.66 55.37, 175.12 40.88, 208.74 1.25 M159.67 69.9 C177.74 50.37, 197.96 27.74, 219.37 1.22 M159.67 69.9 C174.53 54.02, 188.54 37.79, 219.37 1.22 M170.3 69.86 C188.77 47.66, 209.89 23.87, 230 1.18 M170.3 69.86 C189.9 45.87, 212.09 23.3, 230 1.18 M180.27 70.58 C202.37 47.19, 221.34 21.3, 240.63 1.15 M180.27 70.58 C196.32 52.19, 211.84 34.38, 240.63 1.15 M190.9 70.55 C214.16 41.42, 238.77 14.54, 251.26 1.11 M190.9 70.55 C209.43 50.6, 227.37 30.07, 251.26 1.11 M201.53 70.51 C217.92 50.8, 231.91 32.18, 261.89 1.08 M201.53 70.51 C221.06 47.18, 242.68 22.95, 261.89 1.08 M212.16 70.48 C235.81 42.23, 258.81 16.43, 272.52 1.05 M212.16 70.48 C229.4 49.55, 248.16 30.48, 272.52 1.05 M222.79 70.44 C236.75 54.61, 253.4 34.22, 283.15 1.01 M222.79 70.44 C239.02 53.51, 253.44 37.28, 283.15 1.01 M233.42 70.41 C248.06 54.99, 257.13 44.04, 293.78 0.98 M233.42 70.41 C253.67 48.44, 272.64 25.33, 293.78 0.98 M244.05 70.38 C269.34 45.01, 289.95 16.39, 304.41 0.94 M244.05 70.38 C260.18 51.95, 276.78 32.19, 304.41 0.94 M254.68 70.34 C272.38 51.33, 289.25 27.86, 314.38 1.66 M254.68 70.34 C270.51 51.27, 286.43 33.9, 314.38 1.66 M265.31 70.31 C279.34 54.92, 294.92 35.01, 325.01 1.63 M265.31 70.31 C285.64 47.72, 304.67 24.24, 325.01 1.63 M275.94 70.27 C290.55 52.74, 306.76 36.48, 335.64 1.59 M275.94 70.27 C296.01 47.37, 317.14 23.23, 335.64 1.59 M286.57 70.24 C310.56 41.58, 333.09 14.77, 346.27 1.56 M286.57 70.24 C302.18 53.7, 315.96 35.12, 346.27 1.56 M297.2 70.2 C316.12 47.69, 334 27.08, 356.9 1.52 M297.2 70.2 C311.94 51.63, 327.09 33.77, 356.9 1.52 M307.83 70.17 C332.85 41.43, 355.17 16.22, 367.53 1.49 M307.83 70.17 C323.25 53.14, 340.04 33.36, 367.53 1.49 M318.46 70.13 C337.16 49.18, 357.59 28.23, 378.17 1.46 M318.46 70.13 C336.11 51.45, 352.19 33.84, 378.17 1.46 M329.09 70.1 C350.16 43.2, 376.54 16.62, 388.8 1.42 M329.09 70.1 C349.09 46.1, 369.85 22.01, 388.8 1.42 M339.72 70.07 C351.54 56.49, 367.34 41.29, 399.43 1.39 M339.72 70.07 C358.51 48.9, 376.16 27.73, 399.43 1.39 M350.35 70.03 C371.99 42.53, 398.64 16.89, 410.06 1.35 M350.35 70.03 C366.57 51.52, 383.58 32.1, 410.06 1.35 M360.98 70 C376.7 53.94, 388.05 38.5, 420.69 1.32 M360.98 70 C377.83 48.88, 395 29.31, 420.69 1.32 M371.61 69.96 C392.37 45.63, 413.89 22.43, 431.32 1.28 M371.61 69.96 C391.58 46.42, 412.78 23.66, 431.32 1.28 M382.24 69.93 C406.51 42.68, 430.5 17.11, 441.95 1.25 M382.24 69.93 C402.79 44.46, 424.16 20.83, 441.95 1.25 M392.87 69.89 C412.17 50.28, 430.05 29.2, 452.58 1.21 M392.87 69.89 C408.1 52.21, 421.84 35.68, 452.58 1.21 M403.5 69.86 C417.35 56.67, 427.51 40.03, 463.21 1.18 M403.5 69.86 C419.58 52.65, 434.21 32.63, 463.21 1.18 M413.48 70.58 C425.68 56.63, 438.88 41.32, 473.84 1.15 M413.48 70.58 C428.66 53.71, 442.2 37.34, 473.84 1.15 M424.11 70.54 C441.15 53.62, 456.88 35.48, 484.47 1.11 M424.11 70.54 C437.91 55.92, 448.8 40.83, 484.47 1.11 M434.74 70.51 C455.42 45.99, 476.44 25.75, 495.1 1.08 M434.74 70.51 C456.09 44.47, 477.81 20.06, 495.1 1.08 M445.37 70.47 C467.29 44.03, 489.05 19.49, 505.73 1.04 M445.37 70.47 C466.26 46.06, 487.56 21.95, 505.73 1.04 M456 70.44 C471.12 54, 484.78 38.69, 516.36 1.01 M456 70.44 C478.64 43.81, 502.89 16.67, 516.36 1.01 M466.63 70.41 C481.2 54.45, 492.23 40.17, 526.99 0.97 M466.63 70.41 C486.53 46.57, 507.33 23.19, 526.99 0.97 M477.26 70.37 C501.84 44.89, 525.87 16.64, 537.62 0.94 M477.26 70.37 C493.81 52.16, 511.35 32.73, 537.62 0.94 M487.89 70.34 C509.82 47.89, 531.57 22.46, 547.59 1.66 M487.89 70.34 C508.73 45.82, 530.43 22.21, 547.59 1.66 M498.52 70.3 C520.72 44.59, 543.68 19.54, 558.22 1.62 M498.52 70.3 C519.39 46.57, 537.84 23.14, 558.22 1.62 M509.15 70.27 C528.85 45.87, 550.75 20.92, 568.85 1.59 M509.15 70.27 C525.24 50.25, 543.64 31.48, 568.85 1.59 M519.78 70.23 C536.8 48.2, 555.5 30.79, 579.48 1.55 M519.78 70.23 C537.16 49.71, 553.99 30.58, 579.48 1.55 M530.41 70.2 C550.55 47.21, 569.06 27.89, 590.11 1.52 M530.41 70.2 C552.15 45.93, 574.3 21.15, 590.11 1.52 M541.04 70.16 C562.69 47.88, 583.78 20, 600.74 1.49 M541.04 70.16 C562.51 44.04, 584.97 19.07, 600.74 1.49 M551.67 70.13 C570.35 47.24, 590.52 26.53, 611.37 1.45 M551.67 70.13 C568.11 49.9, 586.17 29.16, 611.37 1.45 M562.3 70.1 C576.93 53.47, 589.78 38.39, 622 1.42 M562.3 70.1 C576.05 54.61, 588.03 39.49, 622 1.42 M572.93 70.06 C595.39 44.63, 614.39 20.66, 632.63 1.38 M572.93 70.06 C594.98 45.98, 615.59 21.77, 632.63 1.38 M583.56 70.03 C605.09 45.63, 628.03 18.98, 643.26 1.35 M583.56 70.03 C595.8 56.78, 608.18 42.31, 643.26 1.35 M594.19 69.99 C610.64 53.65, 623.26 37.92, 653.89 1.31 M594.19 69.99 C609.46 51.96, 625.43 32.32, 653.89 1.31 M604.82 69.96 C621.15 52.88, 638.21 34.32, 664.52 1.28 M604.82 69.96 C624.63 48.18, 643.9 25.07, 664.52 1.28 M615.45 69.92 C632.47 50.72, 650.45 28.21, 675.15 1.24 M615.45 69.92 C636.18 44.84, 657.88 20.91, 675.15 1.24 M626.08 69.89 C647.46 45.25, 670.56 15.73, 685.78 1.21 M626.08 69.89 C642.62 51.41, 659.5 32.18, 685.78 1.21 M636.71 69.85 C649.94 51.72, 663.62 36.57, 696.41 1.18 M636.71 69.85 C661.37 43.58, 684.39 16.69, 696.41 1.18 M646.68 70.57 C662.1 55.55, 675.96 36.81, 707.04 1.14 M646.68 70.57 C667.86 43.96, 689.9 18.76, 707.04 1.14 M657.31 70.54 C676.44 50.82, 694.25 30.22, 717.67 1.11 M657.31 70.54 C675.26 49.58, 694.08 30.01, 717.67 1.11 M667.94 70.51 C685.23 49.57, 701.11 33.88, 728.3 1.07 M667.94 70.51 C683.71 53.23, 697.2 36.19, 728.3 1.07 M678.57 70.47 C695.25 50.31, 712.76 31.1, 738.93 1.04 M678.57 70.47 C696.41 50.45, 715.3 30.29, 738.93 1.04 M689.2 70.44 C704.95 51.84, 717.71 35.53, 749.56 1 M689.2 70.44 C711.53 45.11, 732.86 21.53, 749.56 1 M699.83 70.4 C723.92 41.9, 747.8 15.7, 760.19 0.97 M699.83 70.4 C721.86 45.88, 743.09 20.81, 760.19 0.97 M710.46 70.37 C726.54 53.68, 740.96 39.64, 770.82 0.93 M710.46 70.37 C727.41 51.84, 745.07 32.16, 770.82 0.93 M721.09 70.33 C740.53 47.8, 761.55 25.67, 780.8 1.65 M721.09 70.33 C740.5 46.79, 761.33 24.29, 780.8 1.65 M731.73 70.3 C756.39 45, 779.45 17.89, 791.43 1.62 M731.73 70.3 C755.41 41.98, 778.58 15.84, 791.43 1.62 M742.36 70.26 C765.01 43.68, 786.29 15.17, 802.06 1.59 M742.36 70.26 C756.45 54.17, 769.48 39.62, 802.06 1.59 M752.99 70.23 C776.95 42.87, 800.82 18.03, 812.69 1.55 M752.99 70.23 C765.96 55.91, 779.61 40.95, 812.69 1.55 M763.62 70.19 C776.93 56.81, 790.73 38.56, 823.32 1.52 M763.62 70.19 C781.2 49.73, 799.08 29.41, 823.32 1.52 M774.25 70.16 C786.06 54.27, 800.1 39.49, 833.95 1.48 M774.25 70.16 C790.77 51.1, 805.4 34.12, 833.95 1.48 M784.88 70.13 C798.31 56.61, 809.61 42.44, 844.58 1.45 M784.88 70.13 C797.3 55.71, 810.63 42.49, 844.58 1.45 M795.51 70.09 C819.72 40.62, 844.9 16.68, 855.21 1.41 M795.51 70.09 C817.58 44.47, 840.13 20.67, 855.21 1.41 M806.14 70.06 C825.9 48.29, 845.47 23.65, 864.52 2.89 M806.14 70.06 C821.64 51.94, 838.02 34.37, 864.52 2.89 M816.77 70.02 C833.37 51.75, 850.37 30.69, 873.84 4.36 M816.77 70.02 C839.21 44.51, 860.56 17.95, 873.84 4.36 M827.4 69.99 C840.82 50.77, 856.07 36.69, 878.57 11.12 M827.4 69.99 C845.53 49.89, 863.59 28.21, 878.57 11.12 M838.03 69.95 C845.79 58, 855.93 49.76, 878.7 23.16 M838.03 69.95 C850.26 55.04, 863.98 41.11, 878.7 23.16 M848.66 69.92 C861.82 55.96, 870.1 42.85, 878.83 35.2 M848.66 69.92 C859.39 57.08, 872.37 43.4, 878.83 35.2 M861.91 66.87 C868.41 57.8, 877.8 52.02, 879.62 46.49 M861.91 66.87 C866.69 60.21, 873.75 54.37, 879.62 46.49" stroke="#a5d8ff" stroke-width="1" fill="none"></path><path d="M16.43 0 C327.51 -2.82, 638.9 -2.44, 860.92 0 M16.43 0 C346.71 0.34, 677.63 0.46, 860.92 0 M860.92 0 C873.65 -0.52, 878.05 6.18, 877.35 16.43 M860.92 0 C870.14 0.09, 877.35 5.05, 877.35 16.43 M877.35 16.43 C877.5 27.83, 875.06 36.61, 877.35 49.29 M877.35 16.43 C877.83 29.89, 878.48 40.63, 877.35 49.29 M877.35 49.29 C879.33 61.79, 870.5 66.89, 860.92 65.72 M877.35 49.29 C879.21 62.41, 869.97 65.94, 860.92 65.72 M860.92 65.72 C565.86 65.26, 269.82 65.96, 16.43 65.72 M860.92 65.72 C660.54 64.71, 461.01 65.06, 16.43 65.72 M16.43 65.72 C6.52 64.38, -0.02 58.55, 0 49.29 M16.43 65.72 C6.43 63.68, -1.91 62.07, 0 49.29 M0 49.29 C0.17 37.73, 1.49 29.66, 0 16.43 M0 49.29 C0.38 40.29, -0.14 29.46, 0 16.43 M0 16.43 C0.63 6.49, 3.67 1.31, 16.43 0 M0 16.43 C0.32 7.04, 5.25 1.37, 16.43 0" stroke="#1971c2" stroke-width="2" fill="none"></path></g><g transform="translate(640.3553934781139 198.1334930664201) rotate(0 40.65614318847656 19.4944109528156)"><text x="40.65614318847656" y="0" font-family="Virgil, Segoe UI Emoji" font-size="31.191057524504977px" fill="#1971c2" text-anchor="middle" style="white-space: pre;" direction="ltr" dominant-baseline="text-before-edge">s-app</text></g><g stroke-linecap="round" transform="translate(288.0410728601855 263.08366305134234) rotate(0 386.6529187638762 32.57933809487781)"><path d="M4.34 3.77 C4.34 3.77, 4.34 3.77, 4.34 3.77 M4.34 3.77 C4.34 3.77, 4.34 3.77, 4.34 3.77 M2.5 18.07 C8.42 10.73, 12.29 5.94, 17.59 0.72 M2.5 18.07 C6.99 13.7, 12.06 6.88, 17.59 0.72 M2.63 30.12 C9.32 26.22, 15.06 19.08, 28.22 0.68 M2.63 30.12 C9 23.23, 15.82 16.32, 28.22 0.68 M2.77 42.16 C13.64 29.73, 22.26 18.75, 38.85 0.65 M2.77 42.16 C14.96 27.03, 29.47 11.98, 38.85 0.65 M0.93 56.46 C20.02 37.31, 35.79 14.11, 49.48 0.61 M0.93 56.46 C16.72 38.7, 31.31 21.16, 49.48 0.61 M6.31 62.46 C27.98 36.68, 48.47 14.04, 59.45 1.33 M6.31 62.46 C17.62 47.79, 31.33 34.89, 59.45 1.33 M13.66 66.2 C30.41 45.83, 50.53 21.36, 70.08 1.3 M13.66 66.2 C30 46.81, 48.04 27.5, 70.08 1.3 M24.29 66.17 C45.12 44.22, 63.03 22.1, 80.71 1.26 M24.29 66.17 C44.42 43.06, 63.08 21.62, 80.71 1.26 M34.92 66.13 C48.02 51.24, 58.6 41.13, 91.34 1.23 M34.92 66.13 C49.61 49.21, 63.29 33.28, 91.34 1.23 M45.55 66.1 C60.61 49.67, 76.85 28.78, 101.97 1.19 M45.55 66.1 C59.78 50.54, 74.19 32.93, 101.97 1.19 M56.18 66.07 C72.32 50.11, 86.55 33.38, 112.61 1.16 M56.18 66.07 C79.03 40.24, 101.36 15.46, 112.61 1.16 M66.81 66.03 C85.71 45.63, 105.62 22.08, 123.24 1.13 M66.81 66.03 C80 50.06, 92.84 33.89, 123.24 1.13 M77.44 66 C90.23 52.59, 103.91 37.21, 133.87 1.09 M77.44 66 C94.07 48.22, 109.05 28.14, 133.87 1.09 M88.07 65.96 C105.17 42.33, 125.73 23.15, 144.5 1.06 M88.07 65.96 C105.33 44.49, 124.8 23.06, 144.5 1.06 M98.7 65.93 C113.55 53.57, 126.22 36.24, 155.13 1.02 M98.7 65.93 C112.84 48.15, 129.41 32.07, 155.13 1.02 M109.33 65.89 C129.9 41.79, 148.47 18.41, 165.76 0.99 M109.33 65.89 C131.39 40.61, 153.15 16.02, 165.76 0.99 M119.96 65.86 C139.22 41.02, 162.46 18.4, 176.39 0.95 M119.96 65.86 C135.66 48.68, 149.62 30.95, 176.39 0.95 M130.59 65.82 C152.27 39.86, 174.39 17.07, 187.02 0.92 M130.59 65.82 C145.89 46.47, 162.77 30.31, 187.02 0.92 M141.22 65.79 C161.1 42.43, 182.58 18.84, 197.65 0.88 M141.22 65.79 C158.83 44.3, 178.91 23.28, 197.65 0.88 M151.85 65.75 C168.98 43.39, 189.78 21.88, 208.28 0.85 M151.85 65.75 C170.96 44.25, 188.78 21.7, 208.28 0.85 M161.83 66.47 C181.68 42.02, 204.21 18.47, 218.91 0.82 M161.83 66.47 C181.47 44.43, 200.79 20.54, 218.91 0.82 M172.46 66.44 C191.58 46.31, 207.11 22.4, 229.54 0.78 M172.46 66.44 C186.47 49.17, 200.02 34.47, 229.54 0.78 M183.09 66.41 C202.26 45.17, 222.39 22.91, 240.17 0.75 M183.09 66.41 C200.06 47.19, 215.5 28.66, 240.17 0.75 M193.72 66.37 C207.25 50.23, 219.93 36.13, 250.8 0.71 M193.72 66.37 C213.67 43.54, 233.43 19.56, 250.8 0.71 M204.35 66.34 C218.74 51.75, 231.74 34.72, 261.43 0.68 M204.35 66.34 C225.17 44.41, 243.98 20.7, 261.43 0.68 M214.98 66.3 C229.84 48.96, 243.48 31.08, 271.4 1.4 M214.98 66.3 C225.4 52.48, 238.11 39.35, 271.4 1.4 M225.61 66.27 C245.5 40.74, 266.33 19.6, 282.03 1.36 M225.61 66.27 C239.46 47.69, 254.8 32.15, 282.03 1.36 M236.24 66.23 C248.99 52.49, 259.74 39.77, 292.66 1.33 M236.24 66.23 C258.31 41.25, 279.37 18.64, 292.66 1.33 M246.87 66.2 C267.81 41.01, 290.46 16.03, 303.29 1.29 M246.87 66.2 C268.26 42.64, 290.36 17.94, 303.29 1.29 M257.5 66.16 C278.54 42.11, 300.14 16.53, 313.92 1.26 M257.5 66.16 C269.96 51.73, 282.69 36.27, 313.92 1.26 M268.13 66.13 C290.69 40.46, 312.3 16.73, 324.55 1.22 M268.13 66.13 C286.39 46.11, 304.85 23.94, 324.55 1.22 M278.76 66.1 C296.94 45.37, 313.18 24.21, 335.18 1.19 M278.76 66.1 C301.79 40.28, 322.59 15.57, 335.18 1.19 M289.39 66.06 C300.49 50.98, 315.2 39.5, 345.81 1.16 M289.39 66.06 C312.05 40.56, 334.34 15.77, 345.81 1.16 M300.02 66.03 C310.52 54.48, 324.18 39.37, 356.44 1.12 M300.02 66.03 C315.54 48.98, 329.87 34.09, 356.44 1.12 M310.65 65.99 C322.32 52.84, 333.71 37.24, 367.07 1.09 M310.65 65.99 C330.92 42.14, 350.66 18.6, 367.07 1.09 M321.28 65.96 C337.95 43.63, 356.21 27.04, 377.7 1.05 M321.28 65.96 C337.41 47.41, 351.5 28.1, 377.7 1.05 M331.91 65.92 C345.88 50.85, 357.42 33.64, 388.33 1.02 M331.91 65.92 C345.85 49.71, 360.57 32.7, 388.33 1.02 M342.54 65.89 C363.34 41.58, 383.05 17.74, 398.96 0.98 M342.54 65.89 C360.95 45.28, 377.58 25.61, 398.96 0.98 M353.17 65.85 C366.35 49.86, 383.26 33.16, 409.59 0.95 M353.17 65.85 C373.14 41.87, 395.66 18.01, 409.59 0.95 M363.8 65.82 C382.42 42.59, 402.79 21.05, 420.22 0.91 M363.8 65.82 C376.55 52.74, 388.36 39.17, 420.22 0.91 M373.77 66.54 C391.61 44.89, 409.36 25.46, 430.85 0.88 M373.77 66.54 C389.95 48.52, 403.9 30.85, 430.85 0.88 M384.4 66.51 C399.11 51.45, 412.99 32.87, 441.48 0.85 M384.4 66.51 C399.91 48.07, 415.76 31.95, 441.48 0.85 M395.03 66.47 C415.84 40.58, 438.21 16.18, 452.11 0.81 M395.03 66.47 C406.75 52.65, 419.97 39.26, 452.11 0.81 M405.66 66.44 C427.78 42.93, 449.97 17.04, 462.74 0.78 M405.66 66.44 C427.7 40.06, 450.98 14.24, 462.74 0.78 M416.29 66.4 C436.18 43.72, 456.65 20.84, 473.37 0.74 M416.29 66.4 C430.79 49.35, 445.18 32.96, 473.37 0.74 M426.93 66.37 C443.08 43.98, 464.24 25.58, 483.35 1.46 M426.93 66.37 C444.67 47.79, 461.68 28.19, 483.35 1.46 M437.56 66.33 C451.72 50.88, 463.17 33.78, 493.98 1.43 M437.56 66.33 C450.76 53.48, 461.27 38.91, 493.98 1.43 M448.19 66.3 C463.22 50.75, 478.03 34.22, 504.61 1.39 M448.19 66.3 C466.97 43.71, 486.9 21.56, 504.61 1.39 M458.82 66.26 C477.15 45.45, 491.98 25.73, 515.24 1.36 M458.82 66.26 C473.28 48.83, 489.61 31.73, 515.24 1.36 M469.45 66.23 C483.09 50.18, 497.2 35.47, 525.87 1.32 M469.45 66.23 C484.64 49.13, 498.53 33.53, 525.87 1.32 M480.08 66.19 C499.56 40.87, 521.08 17.95, 536.5 1.29 M480.08 66.19 C501.78 40.31, 523.34 16.6, 536.5 1.29 M490.71 66.16 C512.74 41.67, 532.45 16.5, 547.13 1.26 M490.71 66.16 C504.6 51.28, 517.41 35.04, 547.13 1.26 M501.34 66.13 C520.62 44.55, 539.54 24.64, 557.76 1.22 M501.34 66.13 C517.89 47.79, 533.2 29.84, 557.76 1.22 M511.97 66.09 C528.97 46.66, 546.51 25.45, 568.39 1.19 M511.97 66.09 C525.77 49.55, 540.8 32.88, 568.39 1.19 M522.6 66.06 C535.61 49.57, 547.93 34.45, 579.02 1.15 M522.6 66.06 C535.21 51.41, 546.57 38.98, 579.02 1.15 M533.23 66.02 C545.59 51.28, 554.35 38.71, 589.65 1.12 M533.23 66.02 C552.42 44.87, 570.57 23.44, 589.65 1.12 M543.86 65.99 C566.84 42.26, 589.4 15.54, 600.28 1.08 M543.86 65.99 C559.33 47.37, 573.97 29.97, 600.28 1.08 M554.49 65.95 C565.61 53.71, 575.97 37.72, 610.91 1.05 M554.49 65.95 C569.54 48.99, 585.68 31.59, 610.91 1.05 M565.12 65.92 C577.63 49.92, 593.62 34.7, 621.54 1.01 M565.12 65.92 C580.51 49.43, 594.19 33.18, 621.54 1.01 M575.75 65.88 C590.49 48.78, 603.99 36, 632.17 0.98 M575.75 65.88 C596.02 44.08, 614.87 20.76, 632.17 0.98 M585.72 66.6 C603.21 43.31, 623.04 20.25, 642.8 0.94 M585.72 66.6 C607.27 40.42, 629.51 17.18, 642.8 0.94 M596.35 66.57 C615.28 45.73, 635.89 21.28, 653.43 0.91 M596.35 66.57 C618.41 41.96, 639.82 16.37, 653.43 0.91 M606.98 66.54 C626.41 44.65, 644.53 22.43, 664.06 0.88 M606.98 66.54 C627.42 42.87, 647.06 18.95, 664.06 0.88 M617.61 66.5 C638.66 45.48, 658.31 21.16, 674.69 0.84 M617.61 66.5 C635.1 46.38, 650.57 26.84, 674.69 0.84 M628.24 66.47 C649.86 41.27, 672.31 17.08, 685.32 0.81 M628.24 66.47 C647.45 42.98, 668.42 19.68, 685.32 0.81 M638.87 66.43 C653.09 50.99, 663.14 40.8, 695.29 1.53 M638.87 66.43 C656.49 44.65, 676.13 23.92, 695.29 1.53 M649.5 66.4 C669.93 46.39, 689.11 21.22, 705.92 1.49 M649.5 66.4 C662.1 51.77, 674.46 38.79, 705.92 1.49 M660.13 66.36 C676.44 47.25, 692.21 27.43, 716.55 1.46 M660.13 66.36 C673.22 50.46, 687.31 34.71, 716.55 1.46 M670.76 66.33 C680.85 52.78, 692.59 41.8, 727.18 1.42 M670.76 66.33 C684.72 50.03, 698.43 34.12, 727.18 1.42 M681.39 66.29 C697.29 47.69, 711.28 29.36, 737.81 1.39 M681.39 66.29 C699.3 44.15, 719.29 23.21, 737.81 1.39 M692.02 66.26 C707.57 50.81, 719.58 35.98, 748.44 1.35 M692.02 66.26 C705.4 51.05, 717.85 36.63, 748.44 1.35 M702.65 66.23 C715.53 54.51, 725.67 39.98, 759.07 1.32 M702.65 66.23 C722.39 41.4, 742.52 19.64, 759.07 1.32 M713.28 66.19 C726.18 48.92, 740.17 33.5, 767.73 3.55 M713.28 66.19 C734.23 42.71, 754.78 17.89, 767.73 3.55 M723.91 66.16 C738.79 50.97, 753.37 32.23, 773.12 9.55 M723.91 66.16 C737.59 49.89, 749.89 36.09, 773.12 9.55 M734.54 66.12 C749.37 50.02, 762.22 34.99, 773.25 21.59 M734.54 66.12 C745.31 54.89, 754.92 43.83, 773.25 21.59 M745.17 66.09 C752.88 55.66, 765.09 47.18, 773.38 33.63 M745.17 66.09 C753.41 56.63, 760.57 48.8, 773.38 33.63 M755.8 66.05 C759.3 60.15, 766.52 54.17, 773.52 45.68 M755.8 66.05 C761.24 58.57, 768.17 51.3, 773.52 45.68" stroke="#a5d8ff" stroke-width="1" fill="none"></path><path d="M16.29 0 C232.17 -0.93, 446.45 -1.34, 757.02 0 M16.29 0 C195.31 0.76, 373.75 1.01, 757.02 0 M757.02 0 C766.37 0.08, 773.3 5.06, 773.31 16.29 M757.02 0 C768.37 -2.23, 774.14 5.97, 773.31 16.29 M773.31 16.29 C774.64 28.76, 774.72 39.1, 773.31 48.87 M773.31 16.29 C774.59 29.71, 772.91 42.18, 773.31 48.87 M773.31 48.87 C774.92 61.61, 766.22 65.35, 757.02 65.16 M773.31 48.87 C774.46 61.84, 767.83 66.92, 757.02 65.16 M757.02 65.16 C570.53 67.08, 384.89 65.71, 16.29 65.16 M757.02 65.16 C590.68 65.26, 423.92 65.19, 16.29 65.16 M16.29 65.16 C6.26 63.38, -1.66 61.31, 0 48.87 M16.29 65.16 C6.03 64.43, -0.05 59.81, 0 48.87 M0 48.87 C-0.32 38.58, -1.45 32.22, 0 16.29 M0 48.87 C0.47 37.32, -0.76 25.4, 0 16.29 M0 16.29 C0.27 6.79, 5.23 1.19, 16.29 0 M0 16.29 C1.59 6.81, 3.91 2.17, 16.29 0" stroke="#1971c2" stroke-width="2" fill="none"></path></g><g transform="translate(634.6772374736702 276.1685901934046) rotate(0 40.016754150390625 19.4944109528156)"><text x="40.016754150390625" y="0" font-family="Virgil, Segoe UI Emoji" font-size="31.191057524504977px" fill="#1971c2" text-anchor="middle" style="white-space: pre;" direction="ltr" dominant-baseline="text-before-edge">c-app</text></g><g stroke-linecap="round" transform="translate(443.4032705108093 339.6597546871732) rotate(0 238.87743379019867 32.57933813781756)"><path d="M4.34 3.77 C4.34 3.77, 4.34 3.77, 4.34 3.77 M4.34 3.77 C4.34 3.77, 4.34 3.77, 4.34 3.77 M-0.12 21.09 C5.65 17.2, 6.55 9.61, 18.25 -0.04 M-0.12 21.09 C5.57 16.62, 9.58 9.92, 18.25 -0.04 M0.67 32.38 C11.96 21.54, 23.37 7.27, 28.88 -0.07 M0.67 32.38 C8.79 22.29, 17.52 13.18, 28.88 -0.07 M0.8 44.42 C12.01 32.6, 23.57 19.52, 38.85 0.65 M0.8 44.42 C15.35 27.87, 27.9 12.51, 38.85 0.65 M0.93 56.46 C11.27 43.38, 21.66 33.87, 49.48 0.61 M0.93 56.46 C17.59 36.08, 36.08 14.66, 49.48 0.61 M6.31 62.46 C25.23 41, 47.97 17.97, 60.11 0.58 M6.31 62.46 C27.36 39.29, 46.34 15.77, 60.11 0.58 M14.32 65.45 C26.8 52.46, 39.3 37.01, 70.74 0.54 M14.32 65.45 C35.39 41.25, 56.2 18.68, 70.74 0.54 M24.95 65.41 C34.13 52.34, 46.35 36.98, 81.37 0.51 M24.95 65.41 C36.03 51.41, 49.55 37.29, 81.37 0.51 M35.58 65.38 C56.85 39.44, 80.4 14.15, 92 0.47 M35.58 65.38 C56.4 42.89, 74.67 20.59, 92 0.47 M46.21 65.34 C64.69 45.89, 79.36 25.83, 102.63 0.44 M46.21 65.34 C65.97 43.65, 85.02 22.35, 102.63 0.44 M56.84 65.31 C68.34 52.12, 82.01 35.96, 113.26 0.41 M56.84 65.31 C73.79 47.11, 89.14 27.26, 113.26 0.41 M67.47 65.28 C86.96 40.25, 106.28 17.53, 123.89 0.37 M67.47 65.28 C85.3 46.09, 102 27.03, 123.89 0.37 M78.1 65.24 C98.62 42.32, 114.53 21.4, 134.52 0.34 M78.1 65.24 C99.11 40.42, 122.44 15.62, 134.52 0.34 M88.73 65.21 C109.84 42.16, 130.66 13.35, 145.15 0.3 M88.73 65.21 C101.58 52.43, 111.61 37.84, 145.15 0.3 M99.36 65.17 C113.49 49.41, 131.03 31.66, 155.78 0.27 M99.36 65.17 C118.7 41.64, 138.49 20.79, 155.78 0.27 M109.99 65.14 C120.56 52.11, 132.51 39.83, 166.41 0.23 M109.99 65.14 C123.04 50.64, 137.03 33.71, 166.41 0.23 M120.62 65.1 C133.78 48.67, 145.72 36.15, 177.04 0.2 M120.62 65.1 C136.15 46.68, 153.45 26.38, 177.04 0.2 M130.59 65.82 C147.17 46.12, 169.85 23.79, 187.67 0.16 M130.59 65.82 C150.88 43.25, 170.9 19.47, 187.67 0.16 M141.22 65.79 C163.39 41.93, 186.74 16.23, 198.3 0.13 M141.22 65.79 C156.53 48.62, 172.05 30.85, 198.3 0.13 M151.85 65.75 C169.54 44.38, 184.83 28.44, 208.93 0.09 M151.85 65.75 C172.26 42.58, 193.2 19.67, 208.93 0.09 M162.48 65.72 C184.11 42.26, 201.78 19.64, 219.56 0.06 M162.48 65.72 C182.49 42.22, 200.48 20.3, 219.56 0.06 M173.11 65.69 C189.95 43.77, 211.49 22.09, 229.54 0.78 M173.11 65.69 C186.77 51.02, 199.72 36.04, 229.54 0.78 M183.75 65.65 C200.31 45.22, 218.15 22.71, 240.17 0.75 M183.75 65.65 C198.87 47.58, 214.91 30.8, 240.17 0.75 M194.38 65.62 C213.38 43.9, 229.73 23.95, 250.8 0.71 M194.38 65.62 C207.12 51.61, 218.42 37.58, 250.8 0.71 M205.01 65.58 C224.66 44.37, 240.81 23.55, 261.43 0.68 M205.01 65.58 C219.74 47.63, 234.38 29.94, 261.43 0.68 M215.64 65.55 C234.85 43.76, 255.32 20.22, 272.06 0.64 M215.64 65.55 C234.66 42.99, 255.53 21.31, 272.06 0.64 M226.27 65.51 C243.33 42.46, 266.2 19.98, 282.69 0.61 M226.27 65.51 C239.13 49.95, 252.73 35.69, 282.69 0.61 M236.9 65.48 C250.06 49.96, 267.74 33.01, 293.32 0.57 M236.9 65.48 C252.44 47.91, 267.97 30.17, 293.32 0.57 M247.53 65.44 C263.22 50.94, 276.65 34.48, 303.95 0.54 M247.53 65.44 C265.27 45.71, 281.95 25.72, 303.95 0.54 M258.16 65.41 C273.85 47.38, 287.29 32.67, 314.58 0.5 M258.16 65.41 C273.96 47.1, 290.6 28.82, 314.58 0.5 M268.79 65.38 C285.36 48.22, 297.86 32.27, 325.21 0.47 M268.79 65.38 C285.89 44.53, 303.11 24.99, 325.21 0.47 M279.42 65.34 C293.55 47.09, 309.61 28.26, 335.84 0.44 M279.42 65.34 C294.19 49.06, 310.47 31.73, 335.84 0.44 M290.05 65.31 C302.71 50.63, 317.1 33.72, 346.47 0.4 M290.05 65.31 C310.46 44.11, 328.74 20.98, 346.47 0.4 M300.68 65.27 C313.07 50.65, 330.04 31.28, 357.1 0.37 M300.68 65.27 C319.4 43.76, 336.87 24.53, 357.1 0.37 M311.31 65.24 C332.93 38.11, 355.58 14.55, 367.73 0.33 M311.31 65.24 C330.03 42.49, 351.81 19.38, 367.73 0.33 M321.94 65.2 C344.07 37.13, 364.34 12.29, 378.36 0.3 M321.94 65.2 C344.5 39.05, 365.74 13.81, 378.36 0.3 M331.91 65.92 C345.25 50.45, 357.32 37.34, 388.99 0.26 M331.91 65.92 C351.72 42.14, 372.02 19.4, 388.99 0.26 M342.54 65.89 C353.02 52.06, 365.23 36.06, 399.62 0.23 M342.54 65.89 C365.44 41.05, 387.94 14.82, 399.62 0.23 M353.17 65.85 C376.36 41.84, 399.79 15.33, 410.25 0.19 M353.17 65.85 C366.61 49.87, 381.15 31.36, 410.25 0.19 M363.8 65.82 C376.84 52.23, 389.26 36.69, 420.88 0.16 M363.8 65.82 C381.19 44.98, 399.87 22.96, 420.88 0.16 M374.43 65.79 C395.67 39.26, 417.62 15.82, 430.85 0.88 M374.43 65.79 C397.1 40.51, 418.02 14.2, 430.85 0.88 M385.06 65.75 C395.58 53.08, 410.37 38.55, 441.48 0.85 M385.06 65.75 C402.83 44.63, 421.61 23.02, 441.48 0.85 M395.69 65.72 C408.88 51.59, 423.13 37.72, 452.11 0.81 M395.69 65.72 C408.54 51.97, 420.18 39.62, 452.11 0.81 M406.32 65.68 C419.08 49.87, 433.3 35, 462.74 0.78 M406.32 65.68 C419.04 51.09, 431.85 36.96, 462.74 0.78 M416.95 65.65 C432.91 45.87, 450.16 29.83, 472.06 2.25 M416.95 65.65 C437.04 42.73, 459.19 18.51, 472.06 2.25 M427.58 65.61 C440.54 53.02, 451.84 37.94, 476.79 9.01 M427.58 65.61 C446.98 42.38, 465.78 19.33, 476.79 9.01 M438.21 65.58 C448.42 54.2, 455.16 44.82, 477.57 20.3 M438.21 65.58 C449.18 53.95, 459.66 41.05, 477.57 20.3 M448.84 65.54 C458.03 54.98, 467.59 44.91, 477.71 32.34 M448.84 65.54 C457.05 54.8, 465.84 44.38, 477.71 32.34 M459.47 65.51 C466.01 58.1, 474.01 49.88, 477.84 44.38 M459.47 65.51 C464.5 59.86, 470.24 52.21, 477.84 44.38" stroke="#ffc9c9" stroke-width="1" fill="none"></path><path d="M16.29 0 C194.07 -1.6, 372.71 -2.69, 461.47 0 M16.29 0 C151.64 -0.07, 286.96 0.52, 461.47 0 M461.47 0 C473.16 -1.97, 476.82 7.08, 477.75 16.29 M461.47 0 C473.85 1.99, 478.36 7.46, 477.75 16.29 M477.75 16.29 C478.99 27.66, 478.61 43.4, 477.75 48.87 M477.75 16.29 C477.99 30.05, 477.46 42.74, 477.75 48.87 M477.75 48.87 C476.78 60.34, 473.11 63.9, 461.47 65.16 M477.75 48.87 C479.95 59.24, 470.57 63.43, 461.47 65.16 M461.47 65.16 C299.31 66.29, 137.64 66.71, 16.29 65.16 M461.47 65.16 C367.53 66.73, 273.33 66.91, 16.29 65.16 M16.29 65.16 C4.58 66.55, 1.79 59.64, 0 48.87 M16.29 65.16 C3.25 63.75, 0.16 61.34, 0 48.87 M0 48.87 C1.15 38.76, 1.45 32.55, 0 16.29 M0 48.87 C0.73 37.48, -0.63 25.84, 0 16.29 M0 16.29 C1.64 6.91, 7.34 -0.34, 16.29 0 M0 16.29 C0.07 4.58, 4.22 2.21, 16.29 0" stroke="#e03131" stroke-width="2" fill="none"></path></g><g transform="translate(660.3541448527667 352.7446818721751) rotate(0 21.926559448242188 19.4944109528156)"><text x="21.926559448242188" y="0" font-family="Virgil, Segoe UI Emoji" font-size="31.191057524504977px" fill="#e03131" text-anchor="middle" style="white-space: pre;" direction="ltr" dominant-baseline="text-before-edge">c-p</text></g><g stroke-linecap="round" transform="translate(479.69744609592453 414.401204011197) rotate(0 202.58325820508526 32.8613841469778)"><path d="M4.37 3.8 C4.37 3.8, 4.37 3.8, 4.37 3.8 M4.37 3.8 C4.37 3.8, 4.37 3.8, 4.37 3.8 M-0.09 21.13 C5.39 12.49, 14.04 8.67, 18.28 -0.01 M-0.09 21.13 C7.8 12.14, 14.47 4.86, 18.28 -0.01 M0.7 32.41 C11.13 18.7, 22.65 6.83, 28.91 -0.04 M0.7 32.41 C9.09 22.19, 16.36 13.1, 28.91 -0.04 M0.84 44.45 C16.13 28.52, 30.21 13.85, 39.54 -0.08 M0.84 44.45 C10.31 33.7, 21.4 21.29, 39.54 -0.08 M0.97 56.49 C14.9 43.39, 27.32 25.81, 49.52 0.65 M0.97 56.49 C17.74 37.62, 32.46 18.99, 49.52 0.65 M6.35 62.5 C25.99 40.94, 41.47 20.8, 60.15 0.61 M6.35 62.5 C22.04 44.62, 37.9 25.91, 60.15 0.61 M14.36 65.48 C37.25 39.5, 58.64 16.7, 70.78 0.58 M14.36 65.48 C27.14 49.42, 42.94 31.41, 70.78 0.58 M24.99 65.45 C41.41 45.72, 62 23.38, 81.41 0.54 M24.99 65.45 C42.17 45.72, 58.84 26.41, 81.41 0.54 M35.62 65.41 C52.59 45.11, 67.06 29.88, 92.04 0.51 M35.62 65.41 C50.08 48.63, 64.31 33.3, 92.04 0.51 M46.25 65.38 C63.91 44.7, 81.38 27.9, 102.67 0.47 M46.25 65.38 C64.7 42.32, 85.42 19.3, 102.67 0.47 M56.22 66.1 C79.01 39.56, 101.99 14.75, 113.3 0.44 M56.22 66.1 C77.18 42.8, 96.67 19.53, 113.3 0.44 M66.85 66.06 C79.41 51.73, 90.82 40.61, 123.93 0.4 M66.85 66.06 C82.36 48.06, 98.58 30.59, 123.93 0.4 M77.48 66.03 C96.01 47.72, 108.82 27.3, 134.56 0.37 M77.48 66.03 C94.25 47.79, 109.46 28, 134.56 0.37 M88.11 65.99 C109.5 38.41, 135.99 15.41, 145.19 0.33 M88.11 65.99 C111.02 40.04, 133.02 13.36, 145.19 0.33 M98.74 65.96 C120.45 41.84, 140.79 16.92, 155.82 0.3 M98.74 65.96 C109.77 51.71, 122.62 37.38, 155.82 0.3 M109.37 65.93 C126.01 44.33, 143.46 23.18, 166.45 0.27 M109.37 65.93 C131.07 41.18, 154.09 15.72, 166.45 0.27 M120 65.89 C134.1 50.59, 148.78 31.98, 177.08 0.23 M120 65.89 C142.81 40.76, 164.7 13.47, 177.08 0.23 M130.63 65.86 C153.34 39.11, 174.68 13.8, 187.71 0.2 M130.63 65.86 C153.51 40.24, 173.63 15.71, 187.71 0.2 M141.26 65.82 C160.34 41.43, 179.24 18.3, 198.34 0.16 M141.26 65.82 C160.08 45.06, 178.71 23.83, 198.34 0.16 M151.89 65.79 C164.8 52.44, 174.1 38.88, 208.97 0.13 M151.89 65.79 C168.57 46.98, 184.98 28.18, 208.97 0.13 M162.52 65.75 C180.31 45.65, 197.3 27.83, 219.6 0.09 M162.52 65.75 C175.29 53.4, 187.1 38.16, 219.6 0.09 M173.15 65.72 C189.88 43.4, 208.88 24.18, 230.23 0.06 M173.15 65.72 C189.9 46.62, 207.61 26.37, 230.23 0.06 M183.78 65.68 C202.4 43.87, 221.7 21.92, 240.2 0.78 M183.78 65.68 C198.63 49.03, 213.08 32.14, 240.2 0.78 M194.41 65.65 C204.73 50.78, 219.36 38.08, 250.83 0.74 M194.41 65.65 C214.2 43.36, 234.05 22.55, 250.83 0.74 M205.04 65.61 C220.37 48.36, 236.96 28.79, 261.46 0.71 M205.04 65.61 C219.26 51.16, 231.35 35.04, 261.46 0.71 M215.67 65.58 C237.94 38.95, 257.14 14.98, 272.09 0.68 M215.67 65.58 C228.24 51.67, 239.54 35.64, 272.09 0.68 M226.3 65.55 C237.16 52.63, 251.82 36.83, 282.72 0.64 M226.3 65.55 C241.33 47.47, 258.29 28.35, 282.72 0.64 M236.93 65.51 C257.69 39.34, 279.37 14.1, 293.35 0.61 M236.93 65.51 C255.9 43.1, 275.37 21.98, 293.35 0.61 M246.91 66.23 C268.98 38.5, 290.6 14.93, 303.98 0.57 M246.91 66.23 C261.94 49.5, 277.07 31.97, 303.98 0.57 M257.54 66.2 C271.94 48.26, 287.4 31.58, 314.61 0.54 M257.54 66.2 C275.19 44.53, 293.48 24.86, 314.61 0.54 M268.17 66.16 C283.88 50.31, 299.78 30.69, 325.24 0.5 M268.17 66.16 C285.02 47.03, 302.94 26.97, 325.24 0.5 M278.8 66.13 C294.27 46.41, 310.04 27.59, 335.87 0.47 M278.8 66.13 C299.87 39.66, 322.52 14.75, 335.87 0.47 M289.43 66.09 C307.57 44.44, 323.55 27.36, 346.5 0.43 M289.43 66.09 C309.69 42.05, 331.74 17.97, 346.5 0.43 M300.06 66.06 C322.43 40.62, 343.7 16.22, 357.13 0.4 M300.06 66.06 C312.99 50.98, 324.23 37.53, 357.13 0.4 M310.69 66.02 C324.44 52.53, 335.29 35.38, 367.76 0.36 M310.69 66.02 C328.17 47.1, 345.21 26.8, 367.76 0.36 M321.32 65.99 C335.18 51.67, 345.83 40.04, 378.39 0.33 M321.32 65.99 C335.01 49.56, 348.83 34.05, 378.39 0.33 M331.95 65.96 C348.65 49.55, 362.95 30.88, 389.02 0.3 M331.95 65.96 C345.41 49.68, 361.49 31.95, 389.02 0.3 M342.58 65.92 C364.02 44.18, 380.47 23.07, 397.69 2.53 M342.58 65.92 C365.4 40.21, 385.84 15.3, 397.69 2.53 M353.21 65.89 C370.15 46, 389.13 22.05, 403.07 8.53 M353.21 65.89 C371.66 43.99, 391.74 23.13, 403.07 8.53 M363.84 65.85 C379.11 49.76, 394.11 30.35, 405.17 18.31 M363.84 65.85 C379.56 48.94, 394.48 32.1, 405.17 18.31 M374.47 65.82 C382.56 58.67, 388.38 52.34, 405.3 30.35 M374.47 65.82 C384.71 54.28, 396.32 40.3, 405.3 30.35 M385.1 65.78 C393.44 57.93, 399.82 47.22, 405.44 42.39 M385.1 65.78 C389.74 59.36, 394.96 53.44, 405.44 42.39 M396.38 64.99 C397.71 62.19, 400.69 60.61, 403.6 56.69 M396.38 64.99 C397.97 62.3, 399.73 59.99, 403.6 56.69" stroke="#b2f2bb" stroke-width="1" fill="none"></path><path d="M16.43 0 C141.1 1.72, 265.45 1.98, 388.74 0 M16.43 0 C92.24 -1.14, 167.25 -0.03, 388.74 0 M388.74 0 C401.02 1.73, 405.69 7.24, 405.17 16.43 M388.74 0 C401.79 -2.2, 407.44 7.25, 405.17 16.43 M405.17 16.43 C407.24 22.37, 405.55 32.62, 405.17 49.29 M405.17 16.43 C404.67 29.62, 405.55 41.56, 405.17 49.29 M405.17 49.29 C407.08 59.82, 398.17 64.22, 388.74 65.72 M405.17 49.29 C406.61 60.53, 400.89 64.18, 388.74 65.72 M388.74 65.72 C276.42 65.65, 167.25 66.98, 16.43 65.72 M388.74 65.72 C288.63 66.23, 189.6 65.77, 16.43 65.72 M16.43 65.72 C3.58 64.5, 0.14 61.65, 0 49.29 M16.43 65.72 C4.44 64.75, 0.73 61.41, 0 49.29 M0 49.29 C1.14 42.21, 0.97 36.91, 0 16.43 M0 49.29 C1.04 38.19, 1.17 25.45, 0 16.43 M0 16.43 C0.06 4.74, 4.43 1.92, 16.43 0 M0 16.43 C-1.14 7.54, 4.99 1.42, 16.43 0" stroke="#2f9e44" stroke-width="2" fill="none"></path></g><g transform="translate(674.4520147258154 427.76817720535917) rotate(0 7.8286895751953125 19.4944109528156)"><text x="7.8286895751953125" y="0" font-family="Virgil, Segoe UI Emoji" font-size="31.191057524504977px" fill="#2f9e44" text-anchor="middle" style="white-space: pre;" direction="ltr" dominant-baseline="text-before-edge">c</text></g><g stroke-linecap="round" transform="translate(525.403532777591 492.7183473964451) rotate(0 156.8771715234161 32.57933813781756)"><path d="M4.34 3.77 C4.34 3.77, 4.34 3.77, 4.34 3.77 M4.34 3.77 C4.34 3.77, 4.34 3.77, 4.34 3.77 M-0.12 21.09 C5.66 16.99, 6.88 13.04, 18.25 -0.04 M-0.12 21.09 C4.58 17.01, 7.59 11.84, 18.25 -0.04 M0.67 32.38 C6.29 24.64, 13.73 18.87, 28.22 0.68 M0.67 32.38 C8.03 24.65, 14.65 18.13, 28.22 0.68 M0.8 44.42 C11.74 29.39, 24.8 14.79, 38.85 0.65 M0.8 44.42 C15.23 27.25, 31.47 10.75, 38.85 0.65 M0.93 56.46 C20.38 35.05, 37.52 14.16, 49.48 0.61 M0.93 56.46 C13.52 44.15, 25.09 30.64, 49.48 0.61 M6.31 62.46 C22.74 41.93, 38.79 23.78, 60.11 0.58 M6.31 62.46 C25.37 41.61, 42.96 22.11, 60.11 0.58 M14.32 65.45 C27.01 50.84, 42.66 31.07, 70.74 0.54 M14.32 65.45 C34.56 41.98, 53.85 18.14, 70.74 0.54 M24.95 65.41 C42.33 47.14, 59.23 26.86, 81.37 0.51 M24.95 65.41 C37.88 50.39, 51.42 35.03, 81.37 0.51 M35.58 65.38 C47.18 50.4, 59.4 36.74, 92 0.47 M35.58 65.38 C49.43 48.64, 62.93 33.57, 92 0.47 M46.21 65.34 C58.68 52.27, 71.58 36.01, 102.63 0.44 M46.21 65.34 C62.93 46.9, 78.35 28.69, 102.63 0.44 M56.84 65.31 C74.37 45.37, 88.62 28.26, 113.26 0.41 M56.84 65.31 C70.43 48.02, 85.15 32.35, 113.26 0.41 M67.47 65.28 C81.71 50.02, 96.37 32.21, 123.89 0.37 M67.47 65.28 C83.78 44.31, 101.42 26.55, 123.89 0.37 M78.1 65.24 C96.67 46.15, 115.67 25.27, 134.52 0.34 M78.1 65.24 C100.5 40.23, 119.91 15.6, 134.52 0.34 M88.73 65.21 C102.01 49.6, 111.25 36.86, 145.15 0.3 M88.73 65.21 C106.67 46.88, 123.27 27.79, 145.15 0.3 M99.36 65.17 C115.72 44.35, 137.39 21.37, 155.78 0.27 M99.36 65.17 C116.66 45.47, 134.29 25.44, 155.78 0.27 M109.99 65.14 C126.26 48.16, 137.97 31.79, 166.41 0.23 M109.99 65.14 C127.94 43.03, 147.97 21.87, 166.41 0.23 M119.96 65.86 C141.81 42.8, 159.75 20.38, 177.04 0.2 M119.96 65.86 C141.33 44.03, 161.28 20.23, 177.04 0.2 M130.59 65.82 C146.89 47.96, 160.74 33.72, 187.67 0.16 M130.59 65.82 C145.98 49.91, 160.18 32.43, 187.67 0.16 M141.22 65.79 C156.04 48.97, 170.08 34.31, 198.3 0.13 M141.22 65.79 C161.01 41.31, 183.57 18.05, 198.3 0.13 M151.85 65.75 C170.68 45.78, 190.33 23.95, 208.93 0.09 M151.85 65.75 C172.1 41.33, 192.88 18.45, 208.93 0.09 M162.48 65.72 C175.37 46.22, 191.19 31.55, 218.91 0.82 M162.48 65.72 C183.97 41.68, 205.74 15.88, 218.91 0.82 M173.11 65.69 C187.38 50.2, 201.2 33.33, 229.54 0.78 M173.11 65.69 C191.1 44.39, 208.41 23.65, 229.54 0.78 M183.75 65.65 C198.34 48.67, 215.52 30.88, 240.17 0.75 M183.75 65.65 C204.26 41.11, 225.56 15.59, 240.17 0.75 M194.38 65.62 C208.27 48.23, 221.93 35.01, 250.8 0.71 M194.38 65.62 C209.75 46.67, 225.67 27.6, 250.8 0.71 M205.01 65.58 C223.59 41.88, 242.74 21.25, 261.43 0.68 M205.01 65.58 C224.63 44.02, 243.18 23.68, 261.43 0.68 M215.64 65.55 C225.94 54.48, 238.25 40.47, 272.06 0.64 M215.64 65.55 C235.35 44.17, 254.99 19.81, 272.06 0.64 M226.27 65.51 C246.1 42.88, 268.41 17.62, 282.69 0.61 M226.27 65.51 C246 44.49, 265.32 21, 282.69 0.61 M236.9 65.48 C252.93 47.11, 268.77 29.99, 293.32 0.57 M236.9 65.48 C254.33 46.43, 270.76 27.14, 293.32 0.57 M247.53 65.44 C259.21 51.09, 270.5 36.77, 303.29 1.29 M247.53 65.44 C266.37 42.94, 286.71 21.3, 303.29 1.29 M258.16 65.41 C271.91 50.65, 285.56 33.63, 309.98 5.79 M258.16 65.41 C271.02 49.9, 284.36 35.34, 309.98 5.79 M268.79 65.38 C285.71 44.02, 304.96 24.94, 313.4 14.06 M268.79 65.38 C284.02 47.41, 299.18 28.67, 313.4 14.06 M279.42 65.34 C288.85 57.47, 296.57 46.87, 313.53 26.1 M279.42 65.34 C287.39 56.78, 294.24 47.71, 313.53 26.1 M290.05 65.31 C296.19 59.11, 298.83 53.03, 313.66 38.14 M290.05 65.31 C296.45 59.55, 300.48 52.55, 313.66 38.14 M301.33 64.52 C303.32 60.21, 309.94 57.8, 313.8 50.18 M301.33 64.52 C303.17 61.31, 306.69 59.04, 313.8 50.18" stroke="#b2f2bb" stroke-width="1" fill="none"></path><path d="M16.29 0 C99.06 0.09, 185.16 0.18, 297.46 0 M16.29 0 C73.39 -1.12, 129.68 -1.1, 297.46 0 M297.46 0 C310.15 -1.91, 315.73 6.97, 313.75 16.29 M297.46 0 C306.74 1.34, 315.62 7.6, 313.75 16.29 M313.75 16.29 C315.62 23.32, 315.32 29.46, 313.75 48.87 M313.75 16.29 C314.84 26.85, 313.12 37.09, 313.75 48.87 M313.75 48.87 C315.01 59.98, 309.37 63.82, 297.46 65.16 M313.75 48.87 C313.73 57.78, 309.28 63.12, 297.46 65.16 M297.46 65.16 C235.97 65.69, 175.51 65.07, 16.29 65.16 M297.46 65.16 C192.86 64.59, 89.77 65.6, 16.29 65.16 M16.29 65.16 C4.52 64.31, 0.63 60.75, 0 48.87 M16.29 65.16 C3.35 66.66, 0.32 61.29, 0 48.87 M0 48.87 C1.01 38.1, 1.69 31.62, 0 16.29 M0 48.87 C-0.28 36.32, -0.84 25.48, 0 16.29 M0 16.29 C-0.99 7.23, 5.01 1.24, 16.29 0 M0 16.29 C-2.08 5.98, 5.33 1.53, 16.29 0" stroke="#2f9e44" stroke-width="2" fill="none"></path></g><g transform="translate(673.8126256877258 505.80327458144706) rotate(0 8.46807861328125 19.4944109528156)"><text x="8.46807861328125" y="0" font-family="Virgil, Segoe UI Emoji" font-size="31.191057524504977px" fill="#2f9e44" text-anchor="middle" style="white-space: pre;" direction="ltr" dominant-baseline="text-before-edge">s</text></g><g stroke-linecap="round" transform="translate(555.621841496637 565.0438459583196) rotate(0 126.6588628043728 29.89194001479933)"><path d="M3.98 3.46 C3.98 3.46, 3.98 3.46, 3.98 3.46 M3.98 3.46 C3.98 3.46, 3.98 3.46, 3.98 3.46 M0.18 20.03 C4.44 13.75, 12.23 8.07, 17.23 0.4 M0.18 20.03 C5.5 13.52, 11.73 5.89, 17.23 0.4 M0.96 31.31 C6.17 21.9, 13.48 17.11, 27.86 0.37 M0.96 31.31 C8.07 23.62, 15.89 14.27, 27.86 0.37 M1.1 43.35 C12.47 32.97, 20.48 20.79, 38.49 0.34 M1.1 43.35 C12.92 30.68, 22.68 17.46, 38.49 0.34 M2.54 53.89 C16.11 35.47, 30.45 21.34, 48.47 1.06 M2.54 53.89 C20.03 32.45, 38.3 12.81, 48.47 1.06 M9.24 58.38 C20.56 45.12, 30.26 35.8, 59.1 1.02 M9.24 58.38 C21.29 43.85, 35.09 27.97, 59.1 1.02 M18.55 59.85 C39.31 38.64, 55.98 15.28, 69.73 0.99 M18.55 59.85 C31.99 46.14, 43.83 30.99, 69.73 0.99 M29.18 59.82 C47.88 38.23, 67.64 13.91, 80.36 0.95 M29.18 59.82 C44.98 40.09, 63.27 21.04, 80.36 0.95 M39.81 59.79 C53.28 43.11, 69.91 26.81, 90.99 0.92 M39.81 59.79 C52.03 45.57, 66.07 30.47, 90.99 0.92 M50.44 59.75 C67.47 40.63, 84.1 21.03, 101.62 0.88 M50.44 59.75 C63.53 44.43, 77.59 29.59, 101.62 0.88 M61.07 59.72 C74.2 43.52, 87.71 26.18, 112.25 0.85 M61.07 59.72 C71.35 47.5, 83.03 35.71, 112.25 0.85 M71.7 59.68 C92.15 37.85, 113.75 12.41, 122.88 0.81 M71.7 59.68 C82.05 46.55, 91.47 35.31, 122.88 0.81 M82.33 59.65 C103.13 36.23, 120.71 16.53, 133.51 0.78 M82.33 59.65 C93.58 47.59, 106.88 34.26, 133.51 0.78 M92.31 60.37 C104.08 45.16, 114.58 35.05, 144.14 0.75 M92.31 60.37 C110.01 39.71, 127.51 18.14, 144.14 0.75 M102.94 60.33 C118.3 42.44, 133.05 24.71, 154.77 0.71 M102.94 60.33 C116.27 43.66, 130.01 28.87, 154.77 0.71 M113.57 60.3 C126.77 47.2, 138.71 31.13, 165.4 0.68 M113.57 60.3 C126.83 45.55, 138.66 31, 165.4 0.68 M124.2 60.26 C140.37 42.45, 152.32 27.56, 176.03 0.64 M124.2 60.26 C144.18 36.23, 165.05 13.1, 176.03 0.64 M134.83 60.23 C146.54 43.58, 160.23 31.21, 186.66 0.61 M134.83 60.23 C152.83 37.94, 171.56 17.42, 186.66 0.61 M145.46 60.2 C158.7 46.54, 170.81 30.36, 197.29 0.57 M145.46 60.2 C160.06 42.26, 174.8 25.76, 197.29 0.57 M156.09 60.16 C176.48 38.09, 196.64 14.96, 207.92 0.54 M156.09 60.16 C169.6 44.38, 184.32 26.88, 207.92 0.54 M166.72 60.13 C179.34 48.63, 186.49 35.9, 218.55 0.5 M166.72 60.13 C182.9 40.65, 200.76 21.51, 218.55 0.5 M177.35 60.09 C195.79 41.43, 212.03 19.59, 228.52 1.22 M177.35 60.09 C189.87 45.93, 202.12 31.29, 228.52 1.22 M187.98 60.06 C205.49 40.62, 222.25 20.74, 239.15 1.19 M187.98 60.06 C204.96 41.11, 222.81 21.31, 239.15 1.19 M198.61 60.02 C208.06 50.39, 220.2 36.64, 247.81 3.42 M198.61 60.02 C214.88 42.24, 229.88 23.79, 247.81 3.42 M209.24 59.99 C221.31 45.92, 230.66 35.85, 252.54 10.18 M209.24 59.99 C218.43 47.15, 229.12 34.82, 252.54 10.18 M219.87 59.95 C233.57 43.42, 243.26 29.46, 252.67 22.22 M219.87 59.95 C233.63 45.74, 245.86 30.53, 252.67 22.22 M230.5 59.92 C238.9 52.75, 244.59 44, 252.81 34.26 M230.5 59.92 C238.82 49.52, 247.59 39.99, 252.81 34.26 M241.79 59.13 C244.22 56.01, 248.24 54.59, 252.94 46.3 M241.79 59.13 C244.7 54.59, 249.29 50.29, 252.94 46.3" stroke="#ffc9c9" stroke-width="1" fill="none"></path><path d="M14.95 0 C88.36 -1.62, 166.61 0.33, 238.37 0 M14.95 0 C102.11 -2.52, 188.56 -1.03, 238.37 0 M238.37 0 C246.96 1.17, 254.94 6.87, 253.32 14.95 M238.37 0 C246.43 0.22, 254.47 7.1, 253.32 14.95 M253.32 14.95 C254.16 24.63, 252.29 34.67, 253.32 44.84 M253.32 14.95 C253.72 23.41, 253.61 30.95, 253.32 44.84 M253.32 44.84 C253.29 53.11, 249.16 58.01, 238.37 59.78 M253.32 44.84 C251.41 56.62, 248.93 59.05, 238.37 59.78 M238.37 59.78 C172.99 60.51, 105.13 57.33, 14.95 59.78 M238.37 59.78 C184.64 60.77, 131.96 61.57, 14.95 59.78 M14.95 59.78 C3.17 61.09, 0.27 56.16, 0 44.84 M14.95 59.78 C4.75 61.15, 1.59 56.19, 0 44.84 M0 44.84 C1.19 39.76, -0.62 30.93, 0 14.95 M0 44.84 C-0.34 37.87, -0.05 29.73, 0 14.95 M0 14.95 C-1.81 5.46, 4.9 1.33, 14.95 0 M0 14.95 C0.75 5.97, 5.49 -1.05, 14.95 0" stroke="#e03131" stroke-width="2" fill="none"></path></g><g transform="translate(659.7147558146808 575.4413750203033) rotate(0 22.565948486328125 19.4944109528156)"><text x="22.565948486328125" y="0" font-family="Virgil, Segoe UI Emoji" font-size="31.191057524504977px" fill="#e03131" text-anchor="middle" style="white-space: pre;" direction="ltr" dominant-baseline="text-before-edge">s-p</text></g><g stroke-linecap="round" transform="translate(1516.1317989271793 860.5936590254404) rotate(0 238.87743379019867 32.57933813781754)"><path d="M4.34 3.77 C4.34 3.77, 4.34 3.77, 4.34 3.77 M4.34 3.77 C4.34 3.77, 4.34 3.77, 4.34 3.77 M-0.12 21.09 C6.87 12.98, 11.14 5.4, 18.25 -0.04 M-0.12 21.09 C5.94 13.83, 12.05 7.02, 18.25 -0.04 M0.67 32.38 C12.91 18.68, 22.33 8.05, 28.88 -0.07 M0.67 32.38 C10.33 21.84, 18.92 10.03, 28.88 -0.07 M0.8 44.42 C10.32 34.13, 22.26 23.13, 38.85 0.65 M0.8 44.42 C16.21 28.01, 29.96 10.99, 38.85 0.65 M0.93 56.46 C14.92 41.52, 24.3 25.47, 49.48 0.61 M0.93 56.46 C11.78 44.28, 24.59 29.62, 49.48 0.61 M6.31 62.46 C18.65 49.4, 29.71 33.61, 60.11 0.58 M6.31 62.46 C21.92 42.03, 38.61 24.04, 60.11 0.58 M14.32 65.45 C34.83 41.56, 57.48 16.89, 70.74 0.54 M14.32 65.45 C32.36 45.4, 51.92 22.44, 70.74 0.54 M24.95 65.41 C38.37 48.1, 50.92 33.65, 81.37 0.51 M24.95 65.41 C43.41 42.67, 64.13 20.54, 81.37 0.51 M35.58 65.38 C49.79 46.38, 67.45 31.49, 92 0.47 M35.58 65.38 C48.27 48.17, 62.81 32.93, 92 0.47 M46.21 65.34 C61.03 51.88, 71.23 34.14, 102.63 0.44 M46.21 65.34 C59.55 49.7, 74.22 31.68, 102.63 0.44 M56.84 65.31 C75.12 43.72, 92.91 25, 113.26 0.41 M56.84 65.31 C76.11 44.23, 93.94 24.11, 113.26 0.41 M67.47 65.28 C83.81 46.57, 103.48 27.19, 123.89 0.37 M67.47 65.28 C82.53 48.53, 98.06 30.04, 123.89 0.37 M78.1 65.24 C96.72 44.78, 116.89 19.31, 134.52 0.34 M78.1 65.24 C95.4 44.67, 112.16 24.51, 134.52 0.34 M88.73 65.21 C108.25 41.21, 131.84 14.41, 145.15 0.3 M88.73 65.21 C110.41 40.85, 131.05 17.09, 145.15 0.3 M99.36 65.17 C117.04 45.63, 130.9 29.05, 155.78 0.27 M99.36 65.17 C114.16 48.59, 128.67 32.22, 155.78 0.27 M109.99 65.14 C133.11 40.2, 154.85 15.91, 166.41 0.23 M109.99 65.14 C123.35 51.43, 135.58 36.59, 166.41 0.23 M120.62 65.1 C140.34 45.12, 157.18 20.06, 177.04 0.2 M120.62 65.1 C133.77 49.65, 146.97 34.87, 177.04 0.2 M130.59 65.82 C147.68 45.69, 164.54 25.95, 187.67 0.16 M130.59 65.82 C151.57 41.09, 175.19 15.9, 187.67 0.16 M141.22 65.79 C159.25 42.58, 179.96 24.24, 198.3 0.13 M141.22 65.79 C153.76 50.97, 166.14 38.88, 198.3 0.13 M151.85 65.75 C167.01 49.76, 182.55 31.57, 208.93 0.09 M151.85 65.75 C174.65 40.01, 195.78 13.77, 208.93 0.09 M162.48 65.72 C176.66 51.67, 186.58 38.06, 219.56 0.06 M162.48 65.72 C183.32 41.85, 202.86 19.21, 219.56 0.06 M173.11 65.69 C188.37 46.65, 208.71 27.04, 229.54 0.78 M173.11 65.69 C194.67 41.16, 215.83 15.93, 229.54 0.78 M183.75 65.65 C202.86 41.79, 223.11 18.81, 240.17 0.75 M183.75 65.65 C202.99 42.29, 223.75 19.12, 240.17 0.75 M194.38 65.62 C216.52 42.07, 239.75 12.93, 250.8 0.71 M194.38 65.62 C211.51 46.72, 228.98 25.97, 250.8 0.71 M205.01 65.58 C218.79 49.73, 231.41 37.49, 261.43 0.68 M205.01 65.58 C223.31 43.66, 241.8 23.27, 261.43 0.68 M215.64 65.55 C227.99 51.16, 239.9 38.44, 272.06 0.64 M215.64 65.55 C235.65 42.28, 253.74 20.54, 272.06 0.64 M226.27 65.51 C243.52 43.44, 263.51 23.63, 282.69 0.61 M226.27 65.51 C239.49 48.88, 253.17 34.27, 282.69 0.61 M236.9 65.48 C255.88 42.76, 275.7 20.45, 293.32 0.57 M236.9 65.48 C249.87 51.47, 262.75 36.21, 293.32 0.57 M247.53 65.44 C263.47 46.88, 276.13 32.91, 303.95 0.54 M247.53 65.44 C264.21 45.51, 281.95 25.13, 303.95 0.54 M258.16 65.41 C273.8 47.02, 293.28 27.71, 314.58 0.5 M258.16 65.41 C278.8 42.22, 298.08 18.71, 314.58 0.5 M268.79 65.38 C286.49 48.18, 301.23 30.12, 325.21 0.47 M268.79 65.38 C284.23 46.6, 301.05 27.77, 325.21 0.47 M279.42 65.34 C299.1 43.28, 316.79 25.36, 335.84 0.44 M279.42 65.34 C295.92 44.51, 313.67 25.93, 335.84 0.44 M290.05 65.31 C306.76 45.72, 328.18 25.68, 346.47 0.4 M290.05 65.31 C302.95 48.52, 317.51 32.49, 346.47 0.4 M300.68 65.27 C317.43 46.58, 334.95 24.82, 357.1 0.37 M300.68 65.27 C316.59 46, 332.94 28.25, 357.1 0.37 M311.31 65.24 C329.96 43.99, 349.76 19.96, 367.73 0.33 M311.31 65.24 C326.41 47.75, 340.32 31.16, 367.73 0.33 M321.94 65.2 C344.27 38.94, 366.67 14.66, 378.36 0.3 M321.94 65.2 C336.86 47.19, 352.82 30.14, 378.36 0.3 M331.91 65.92 C348.3 48.69, 363.85 32.75, 388.99 0.26 M331.91 65.92 C352.89 42.6, 371.88 20.21, 388.99 0.26 M342.54 65.89 C361.74 47.72, 377.97 27.18, 399.62 0.23 M342.54 65.89 C358.34 47.75, 375.77 28.75, 399.62 0.23 M353.17 65.85 C372.24 42.14, 392.59 18.91, 410.25 0.19 M353.17 65.85 C369.36 48.4, 384.55 30.43, 410.25 0.19 M363.8 65.82 C385.73 43.7, 403.07 18.87, 420.88 0.16 M363.8 65.82 C382.06 45.83, 401.24 24.56, 420.88 0.16 M374.43 65.79 C386.21 51.94, 396.73 35.74, 430.85 0.88 M374.43 65.79 C394.59 40.97, 415.97 18.36, 430.85 0.88 M385.06 65.75 C403.48 44.29, 424.72 20.21, 441.48 0.85 M385.06 65.75 C398.04 49.73, 412.43 34.63, 441.48 0.85 M395.69 65.72 C415.23 46.16, 431.39 24.21, 452.11 0.81 M395.69 65.72 C414.37 43.92, 432.36 24.58, 452.11 0.81 M406.32 65.68 C421.35 49.57, 433.87 33.74, 462.74 0.78 M406.32 65.68 C419.42 50.82, 432.87 36.77, 462.74 0.78 M416.95 65.65 C438.98 39.81, 461.54 14.98, 472.06 2.25 M416.95 65.65 C438 40.72, 461.26 14.76, 472.06 2.25 M427.58 65.61 C440.19 51.19, 451.48 40.14, 476.79 9.01 M427.58 65.61 C445.43 45.45, 463.47 26.11, 476.79 9.01 M438.21 65.58 C448.45 53.74, 454.04 46.09, 477.57 20.3 M438.21 65.58 C452.32 49.32, 466.54 33.02, 477.57 20.3 M448.84 65.54 C458.49 53.13, 467.48 43.47, 477.71 32.34 M448.84 65.54 C454.91 57.73, 461.99 49.57, 477.71 32.34 M459.47 65.51 C464.38 59.54, 470.13 55.39, 477.84 44.38 M459.47 65.51 C462.7 61.72, 468.05 56.31, 477.84 44.38" stroke="#ffc9c9" stroke-width="1" fill="none"></path><path d="M16.29 0 C146.9 1.3, 278.69 2.59, 461.47 0 M16.29 0 C109.92 0.2, 203.68 0.49, 461.47 0 M461.47 0 C473.9 1.92, 478.87 3.78, 477.75 16.29 M461.47 0 C471.73 -0.21, 479.75 5.02, 477.75 16.29 M477.75 16.29 C477.32 25.91, 476.49 40.78, 477.75 48.87 M477.75 16.29 C477.75 24.97, 477.65 32.37, 477.75 48.87 M477.75 48.87 C476.08 61.25, 472.84 63.51, 461.47 65.16 M477.75 48.87 C479.95 59.57, 472.85 66.2, 461.47 65.16 M461.47 65.16 C312.3 65.12, 163.21 64.86, 16.29 65.16 M461.47 65.16 C350.75 65.84, 240.99 66.04, 16.29 65.16 M16.29 65.16 C6.87 66.25, -0.36 61.34, 0 48.87 M16.29 65.16 C3.65 64.62, -1.22 59.81, 0 48.87 M0 48.87 C0.7 37.21, 1.59 25.13, 0 16.29 M0 48.87 C-0.18 40.48, -1.23 29.83, 0 16.29 M0 16.29 C0.77 4.62, 3.69 1.45, 16.29 0 M0 16.29 C1.03 7.6, 6.62 -1.29, 16.29 0" stroke="#e03131" stroke-width="2" fill="none"></path></g><g transform="translate(1733.0826732691366 873.6785862104423) rotate(0 21.926559448242188 19.49441095281561)"><text x="21.926559448242188" y="0" font-family="Virgil, Segoe UI Emoji" font-size="31.191057524504977px" fill="#e03131" text-anchor="middle" style="white-space: pre;" direction="ltr" dominant-baseline="text-before-edge">c-p</text></g><g stroke-linecap="round" transform="translate(1552.4259745122945 935.3351083494642) rotate(0 202.58325820508526 32.86138414697779)"><path d="M4.37 3.8 C4.37 3.8, 4.37 3.8, 4.37 3.8 M4.37 3.8 C4.37 3.8, 4.37 3.8, 4.37 3.8 M-0.09 21.13 C4.81 15.51, 7.1 11.34, 18.28 -0.01 M-0.09 21.13 C4.87 16.33, 9.38 12.2, 18.28 -0.01 M0.7 32.41 C7.43 24.92, 12.68 18.45, 28.91 -0.04 M0.7 32.41 C10.09 21.07, 19.78 10.35, 28.91 -0.04 M0.84 44.45 C16.03 28.7, 29.21 14.22, 39.54 -0.08 M0.84 44.45 C14.26 28.86, 29.31 13.26, 39.54 -0.08 M0.97 56.49 C14.47 39.99, 29.27 22.38, 49.52 0.65 M0.97 56.49 C18.47 36.11, 38.37 14.44, 49.52 0.65 M6.35 62.5 C24.17 42.79, 43.65 20.4, 60.15 0.61 M6.35 62.5 C18.3 49.63, 29.23 37.03, 60.15 0.61 M14.36 65.48 C36.14 39.69, 55.25 14.79, 70.78 0.58 M14.36 65.48 C35.45 41.42, 57.62 15.84, 70.78 0.58 M24.99 65.45 C37.95 54.02, 47.82 36.93, 81.41 0.54 M24.99 65.45 C42.34 45.33, 59.66 24.28, 81.41 0.54 M35.62 65.41 C47.91 49.43, 64.37 31.47, 92.04 0.51 M35.62 65.41 C46.75 53.15, 57.95 39.77, 92.04 0.51 M46.25 65.38 C67.87 40.85, 91.57 13.65, 102.67 0.47 M46.25 65.38 C68.05 39.99, 89.57 16.17, 102.67 0.47 M56.22 66.1 C68.03 51.5, 80.59 40.79, 113.3 0.44 M56.22 66.1 C73.64 45.88, 90.89 24.68, 113.3 0.44 M66.85 66.06 C86.34 42.72, 106.38 17.93, 123.93 0.4 M66.85 66.06 C89.67 41.16, 111.59 14.73, 123.93 0.4 M77.48 66.03 C99.38 40.54, 122.59 15.33, 134.56 0.37 M77.48 66.03 C94.49 48.97, 109.58 29.46, 134.56 0.37 M88.11 65.99 C109.7 41.34, 128.43 20.43, 145.19 0.33 M88.11 65.99 C101.35 50.19, 114.98 35.6, 145.19 0.33 M98.74 65.96 C110.72 51.45, 123.34 37.31, 155.82 0.3 M98.74 65.96 C115.61 46.57, 130.61 29.01, 155.82 0.3 M109.37 65.93 C124.14 44.75, 140.59 27.98, 166.45 0.27 M109.37 65.93 C127.54 44.72, 144.73 25.22, 166.45 0.27 M120 65.89 C140.54 42.93, 161.87 18, 177.08 0.23 M120 65.89 C132.99 51.73, 145.89 36, 177.08 0.23 M130.63 65.86 C146.15 51.38, 156.34 32.08, 187.71 0.2 M130.63 65.86 C150.2 42.31, 168.97 19.93, 187.71 0.2 M141.26 65.82 C151.24 49.84, 166.9 38.08, 198.34 0.16 M141.26 65.82 C152.74 51.74, 165.85 37.17, 198.34 0.16 M151.89 65.79 C173.84 42.48, 193.63 19.68, 208.97 0.13 M151.89 65.79 C169.4 45.41, 189.09 25.54, 208.97 0.13 M162.52 65.75 C182.42 42.81, 200.8 23.08, 219.6 0.09 M162.52 65.75 C176.92 49.12, 192.08 32.07, 219.6 0.09 M173.15 65.72 C194.39 44.41, 213.74 20.22, 230.23 0.06 M173.15 65.72 C195.92 39.51, 216.76 14, 230.23 0.06 M183.78 65.68 C198.21 52.83, 211.52 35.15, 240.2 0.78 M183.78 65.68 C204.06 44.04, 221.39 21.12, 240.2 0.78 M194.41 65.65 C216.49 39.8, 236.91 14.07, 250.83 0.74 M194.41 65.65 C214.18 42.09, 235.98 19.52, 250.83 0.74 M205.04 65.61 C218.93 49.57, 233.32 33.94, 261.46 0.71 M205.04 65.61 C215.98 52.14, 228.43 38.03, 261.46 0.71 M215.67 65.58 C229.46 49.67, 243.12 36.39, 272.09 0.68 M215.67 65.58 C227.47 53.85, 237.97 39.72, 272.09 0.68 M226.3 65.55 C236.65 51.92, 251.21 37.53, 282.72 0.64 M226.3 65.55 C238.45 52.11, 250.1 38.22, 282.72 0.64 M236.93 65.51 C251.98 46.62, 269.75 28.37, 293.35 0.61 M236.93 65.51 C254.85 43.41, 273.22 22.85, 293.35 0.61 M246.91 66.23 C259.18 54.46, 269.55 38.15, 303.98 0.57 M246.91 66.23 C267.8 41.92, 288.25 18.39, 303.98 0.57 M257.54 66.2 C277.98 44.65, 297.12 22.19, 314.61 0.54 M257.54 66.2 C276.65 43.34, 296.97 22.74, 314.61 0.54 M268.17 66.16 C289.14 42.16, 312.87 16.16, 325.24 0.5 M268.17 66.16 C285.01 46.05, 303.06 27.53, 325.24 0.5 M278.8 66.13 C292.11 51.81, 306.36 33.56, 335.87 0.47 M278.8 66.13 C293.14 48.59, 305.99 32.22, 335.87 0.47 M289.43 66.09 C307.35 44.88, 325.99 19.61, 346.5 0.43 M289.43 66.09 C301.64 53.75, 313.12 39.1, 346.5 0.43 M300.06 66.06 C322.52 41.73, 346.04 14.81, 357.13 0.4 M300.06 66.06 C315.34 48.28, 330.05 30.55, 357.13 0.4 M310.69 66.02 C333.16 41.34, 356.1 15.46, 367.76 0.36 M310.69 66.02 C324.52 50.76, 337.17 36.22, 367.76 0.36 M321.32 65.99 C337.04 47.41, 354 28.12, 378.39 0.33 M321.32 65.99 C333.9 49.89, 347.33 35.57, 378.39 0.33 M331.95 65.96 C348.54 46.45, 362.72 30.16, 389.02 0.3 M331.95 65.96 C345.64 49.76, 358.87 35.59, 389.02 0.3 M342.58 65.92 C362.36 41.57, 384.43 17.76, 397.69 2.53 M342.58 65.92 C363.58 42.21, 384.26 17.33, 397.69 2.53 M353.21 65.89 C364.27 52.8, 376.96 40.83, 403.07 8.53 M353.21 65.89 C368.93 47.68, 383.93 30.67, 403.07 8.53 M363.84 65.85 C379.54 46.89, 392.28 30.17, 405.17 18.31 M363.84 65.85 C378.09 48.7, 395.02 30.8, 405.17 18.31 M374.47 65.82 C386.35 54.73, 396 41.43, 405.3 30.35 M374.47 65.82 C382.5 56.47, 388.78 47.49, 405.3 30.35 M385.1 65.78 C390.74 56.55, 399.31 48.66, 405.44 42.39 M385.1 65.78 C389.51 60.57, 393.64 56.57, 405.44 42.39 M396.38 64.99 C399.04 62.51, 401.55 60.26, 403.6 56.69 M396.38 64.99 C397.57 62.66, 399.48 61.6, 403.6 56.69" stroke="#b2f2bb" stroke-width="1" fill="none"></path><path d="M16.43 0 C96.8 -0.91, 178.98 -1.87, 388.74 0 M16.43 0 C94.42 1.34, 171.78 0.24, 388.74 0 M388.74 0 C399.18 -0.18, 406.9 5.12, 405.17 16.43 M388.74 0 C400.74 -1.72, 407.17 5.26, 405.17 16.43 M405.17 16.43 C403.77 22.15, 403.6 31.24, 405.17 49.29 M405.17 16.43 C404.37 30.02, 405.47 41.27, 405.17 49.29 M405.17 49.29 C407.08 60.11, 400.15 66.63, 388.74 65.72 M405.17 49.29 C405.96 58.11, 398.98 65.05, 388.74 65.72 M388.74 65.72 C252.5 67.49, 117.79 65.47, 16.43 65.72 M388.74 65.72 C260.21 68.03, 130.7 68.19, 16.43 65.72 M16.43 65.72 C3.93 65.26, -1.06 60.32, 0 49.29 M16.43 65.72 C6.98 64.23, 0.65 60.81, 0 49.29 M0 49.29 C-0.67 40.69, 0.47 28.97, 0 16.43 M0 49.29 C0.7 36.85, -0.56 25.95, 0 16.43 M0 16.43 C0.89 7.37, 6.51 -1.13, 16.43 0 M0 16.43 C0.84 4.9, 7.12 1.01, 16.43 0" stroke="#2f9e44" stroke-width="2" fill="none"></path></g><g transform="translate(1747.1805431421853 948.7020815436264) rotate(0 7.8286895751953125 19.49441095281561)"><text x="7.8286895751953125" y="0" font-family="Virgil, Segoe UI Emoji" font-size="31.191057524504977px" fill="#2f9e44" text-anchor="middle" style="white-space: pre;" direction="ltr" dominant-baseline="text-before-edge">c</text></g><g stroke-linecap="round" transform="translate(1598.1320611939645 1013.6522517347124) rotate(0 156.8771715234161 32.57933813781756)"><path d="M4.34 3.77 C4.34 3.77, 4.34 3.77, 4.34 3.77 M4.34 3.77 C4.34 3.77, 4.34 3.77, 4.34 3.77 M-0.12 21.09 C3.65 16.08, 8.45 11.24, 18.25 -0.04 M-0.12 21.09 C4.6 14.89, 10.92 8.14, 18.25 -0.04 M0.67 32.38 C9.06 21.91, 14.94 14.03, 28.22 0.68 M0.67 32.38 C8.01 25.36, 14.98 17.84, 28.22 0.68 M0.8 44.42 C13.98 30.12, 25.75 15.08, 38.85 0.65 M0.8 44.42 C13.69 28.07, 26.18 12.92, 38.85 0.65 M0.93 56.46 C16.4 42.37, 27.07 23.97, 49.48 0.61 M0.93 56.46 C19.31 35.37, 36.45 14.15, 49.48 0.61 M6.31 62.46 C20.84 42.12, 39.87 25.24, 60.11 0.58 M6.31 62.46 C20.01 47.08, 33.65 31.92, 60.11 0.58 M14.32 65.45 C30.51 50.23, 41.22 32.53, 70.74 0.54 M14.32 65.45 C33.92 41.58, 54.86 19.04, 70.74 0.54 M24.95 65.41 C47.2 40.28, 70.83 15.22, 81.37 0.51 M24.95 65.41 C44.01 43.79, 65.03 20.45, 81.37 0.51 M35.58 65.38 C50.99 45.1, 69.96 23.76, 92 0.47 M35.58 65.38 C58.94 38.85, 79.81 14.18, 92 0.47 M46.21 65.34 C66.66 43.69, 82.19 22.09, 102.63 0.44 M46.21 65.34 C57.11 52.23, 69.39 38.39, 102.63 0.44 M56.84 65.31 C69.84 50.64, 84.45 34.67, 113.26 0.41 M56.84 65.31 C77.55 43.35, 97.8 19.44, 113.26 0.41 M67.47 65.28 C88.51 43.04, 106.27 22.63, 123.89 0.37 M67.47 65.28 C89.87 40.88, 109.8 15.67, 123.89 0.37 M78.1 65.24 C92.39 46.24, 107.18 32.01, 134.52 0.34 M78.1 65.24 C99.08 42.1, 118.78 18.96, 134.52 0.34 M88.73 65.21 C100.29 51.18, 113.08 35.37, 145.15 0.3 M88.73 65.21 C103.16 47.33, 118.97 29.77, 145.15 0.3 M99.36 65.17 C116.76 45.63, 134.81 26.66, 155.78 0.27 M99.36 65.17 C112.96 49.94, 126.75 33.19, 155.78 0.27 M109.99 65.14 C122.6 51.53, 133.38 38.58, 166.41 0.23 M109.99 65.14 C122.98 50.38, 133.3 36.68, 166.41 0.23 M119.96 65.86 C139.1 43.3, 159.88 19.43, 177.04 0.2 M119.96 65.86 C142.13 40.31, 164.33 14.92, 177.04 0.2 M130.59 65.82 C152.65 43.3, 174.28 19.63, 187.67 0.16 M130.59 65.82 C143.54 50.89, 158.77 34.01, 187.67 0.16 M141.22 65.79 C151.47 53.09, 166.76 36.24, 198.3 0.13 M141.22 65.79 C162.18 42.7, 182.13 19.3, 198.3 0.13 M151.85 65.75 C170.18 43.32, 187.28 21.5, 208.93 0.09 M151.85 65.75 C169.31 44.61, 187.29 24.97, 208.93 0.09 M162.48 65.72 C175.04 49.14, 189.9 33.77, 218.91 0.82 M162.48 65.72 C177.89 49.16, 193.36 31.42, 218.91 0.82 M173.11 65.69 C196.95 39.13, 219.11 14.86, 229.54 0.78 M173.11 65.69 C187.55 48.77, 202.17 32.83, 229.54 0.78 M183.75 65.65 C205.82 40.83, 227.94 17.92, 240.17 0.75 M183.75 65.65 C207 41.04, 227.13 15.71, 240.17 0.75 M194.38 65.62 C211.09 47.98, 224.49 29.85, 250.8 0.71 M194.38 65.62 C208.81 48.18, 225.3 30.04, 250.8 0.71 M205.01 65.58 C220.56 46.58, 238.96 23.31, 261.43 0.68 M205.01 65.58 C224.17 43.62, 243.89 21.28, 261.43 0.68 M215.64 65.55 C228.29 47.28, 243.74 31.1, 272.06 0.64 M215.64 65.55 C237.51 40.85, 260.26 13.74, 272.06 0.64 M226.27 65.51 C241.46 45.93, 260.44 26.51, 282.69 0.61 M226.27 65.51 C243.39 45.58, 260.83 24.87, 282.69 0.61 M236.9 65.48 C255 46.86, 270.72 24.58, 293.32 0.57 M236.9 65.48 C249.21 49.85, 263.52 36.06, 293.32 0.57 M247.53 65.44 C270.22 39.31, 292.19 16.61, 303.29 1.29 M247.53 65.44 C261.88 50.43, 275.82 34.25, 303.29 1.29 M258.16 65.41 C277.69 42.62, 296.41 20.87, 309.98 5.79 M258.16 65.41 C270.2 51.58, 282.13 37.55, 309.98 5.79 M268.79 65.38 C284.35 48.75, 299.24 28.87, 313.4 14.06 M268.79 65.38 C278.74 53.16, 290.97 39.75, 313.4 14.06 M279.42 65.34 C291.43 50.08, 307.66 35.47, 313.53 26.1 M279.42 65.34 C287.68 57.69, 295.61 47.95, 313.53 26.1 M290.05 65.31 C297.21 54.51, 306.58 45.56, 313.66 38.14 M290.05 65.31 C299.99 54.53, 308.41 44.55, 313.66 38.14 M301.33 64.52 C305.3 59.72, 311.76 54.61, 313.8 50.18 M301.33 64.52 C305.64 59.85, 308.58 56.37, 313.8 50.18" stroke="#b2f2bb" stroke-width="1" fill="none"></path><path d="M16.29 0 C104.71 -0.13, 195.45 2.47, 297.46 0 M16.29 0 C127.51 1.71, 239.78 1.64, 297.46 0 M297.46 0 C309.23 -1.5, 315.5 5.24, 313.75 16.29 M297.46 0 C306.45 -1.17, 316.03 4.02, 313.75 16.29 M313.75 16.29 C315.33 23.95, 314.57 29.41, 313.75 48.87 M313.75 16.29 C314.8 28.47, 314.07 41.24, 313.75 48.87 M313.75 48.87 C314.44 57.87, 307.71 64.57, 297.46 65.16 M313.75 48.87 C315.23 58.58, 309.19 63.96, 297.46 65.16 M297.46 65.16 C192.92 63.39, 88.29 64.3, 16.29 65.16 M297.46 65.16 C197.2 66.71, 97.72 66.92, 16.29 65.16 M16.29 65.16 C6.73 63.86, 0.56 60.22, 0 48.87 M16.29 65.16 C5.7 66.75, 0.07 59.22, 0 48.87 M0 48.87 C1.21 34.5, -2 24.73, 0 16.29 M0 48.87 C0.73 41.36, 0.8 31.4, 0 16.29 M0 16.29 C0.73 4.93, 6.86 0.88, 16.29 0 M0 16.29 C-0.41 7.1, 6.15 -1.95, 16.29 0" stroke="#2f9e44" stroke-width="2" fill="none"></path></g><g transform="translate(1746.5411541040994 1026.7371789197143) rotate(0 8.46807861328125 19.494410952815606)"><text x="8.46807861328125" y="0" font-family="Virgil, Segoe UI Emoji" font-size="31.191057524504977px" fill="#2f9e44" text-anchor="middle" style="white-space: pre;" direction="ltr" dominant-baseline="text-before-edge">s</text></g><g stroke-linecap="round" transform="translate(1628.350369913007 1085.977750296587) rotate(0 126.6588628043728 29.891940014799346)"><path d="M3.98 3.46 C3.98 3.46, 3.98 3.46, 3.98 3.46 M3.98 3.46 C3.98 3.46, 3.98 3.46, 3.98 3.46 M0.18 20.03 C6.12 15.06, 13.49 5.4, 17.23 0.4 M0.18 20.03 C6.04 12.91, 12.41 6.4, 17.23 0.4 M0.96 31.31 C5.84 24.32, 12.1 19.11, 27.86 0.37 M0.96 31.31 C10.68 20.4, 21.12 9.24, 27.86 0.37 M1.1 43.35 C13.4 31.86, 25.59 17.01, 38.49 0.34 M1.1 43.35 C9.63 33.55, 17.45 25.16, 38.49 0.34 M2.54 53.89 C20.81 36.24, 36.77 17.15, 48.47 1.06 M2.54 53.89 C18.01 37.67, 31.92 18.7, 48.47 1.06 M9.24 58.38 C20.47 45.92, 32.23 31.43, 59.1 1.02 M9.24 58.38 C22.44 41.2, 36.32 26.45, 59.1 1.02 M18.55 59.85 C36.62 40.81, 52.06 20.58, 69.73 0.99 M18.55 59.85 C33.17 43.69, 44.84 28.54, 69.73 0.99 M29.18 59.82 C43.48 43.25, 55.38 26.64, 80.36 0.95 M29.18 59.82 C46.19 40.88, 62.52 19.05, 80.36 0.95 M39.81 59.79 C56.36 41.37, 70.86 28.31, 90.99 0.92 M39.81 59.79 C50.74 48.3, 60.3 36.69, 90.99 0.92 M50.44 59.75 C64.12 42.2, 81.43 23.34, 101.62 0.88 M50.44 59.75 C68.13 39.43, 87.63 18.09, 101.62 0.88 M61.07 59.72 C79.44 38.62, 95.4 19.96, 112.25 0.85 M61.07 59.72 C80.08 37.31, 98.65 16.59, 112.25 0.85 M71.7 59.68 C87.05 43.73, 99.19 29.29, 122.88 0.81 M71.7 59.68 C89.45 40.09, 107.09 18.96, 122.88 0.81 M82.33 59.65 C95.18 46.88, 103.37 34.45, 133.51 0.78 M82.33 59.65 C97.59 41.02, 114.61 22.37, 133.51 0.78 M92.31 60.37 C109.63 39.58, 129.64 18.28, 144.14 0.75 M92.31 60.37 C107.23 43.01, 122.35 26.25, 144.14 0.75 M102.94 60.33 C118.85 39.28, 138.33 20.04, 154.77 0.71 M102.94 60.33 C120 38.97, 139.35 19.13, 154.77 0.71 M113.57 60.3 C127.83 41.33, 145.68 25.31, 165.4 0.68 M113.57 60.3 C126 46.93, 137.15 33.88, 165.4 0.68 M124.2 60.26 C143.54 39.53, 159.91 19.4, 176.03 0.64 M124.2 60.26 C143.45 37.88, 160.04 18.36, 176.03 0.64 M134.83 60.23 C150.1 39.64, 167.2 19.03, 186.66 0.61 M134.83 60.23 C150.79 41.73, 169.1 20.22, 186.66 0.61 M145.46 60.2 C166.35 37.82, 185.94 15.44, 197.29 0.57 M145.46 60.2 C164.83 38.15, 184.47 15.73, 197.29 0.57 M156.09 60.16 C169.62 47.21, 184.42 31.13, 207.92 0.54 M156.09 60.16 C169.68 43.6, 185.04 26.1, 207.92 0.54 M166.72 60.13 C180.45 45.62, 193.32 28.37, 218.55 0.5 M166.72 60.13 C186.89 37.83, 205.75 15.78, 218.55 0.5 M177.35 60.09 C190.17 42.24, 203.98 26.13, 228.52 1.22 M177.35 60.09 C192.27 44.84, 204.55 28.83, 228.52 1.22 M187.98 60.06 C204.44 40.3, 217.99 26.65, 239.15 1.19 M187.98 60.06 C205.49 39.11, 222.85 20.45, 239.15 1.19 M198.61 60.02 C211.33 46.64, 226.12 29.07, 247.81 3.42 M198.61 60.02 C216.18 39.95, 234.11 18.21, 247.81 3.42 M209.24 59.99 C226.08 40.72, 241.9 22.76, 252.54 10.18 M209.24 59.99 C224.19 42.91, 240.39 23.92, 252.54 10.18 M219.87 59.95 C230.82 48.43, 237.5 38.03, 252.67 22.22 M219.87 59.95 C232.79 46.12, 245.29 30.03, 252.67 22.22 M230.5 59.92 C237.76 52.27, 244.21 43.42, 252.81 34.26 M230.5 59.92 C237.13 52.39, 244.07 45.36, 252.81 34.26 M241.79 59.13 C244.83 52.93, 250.88 47.74, 252.94 46.3 M241.79 59.13 C244.96 55.91, 246.14 53.76, 252.94 46.3" stroke="#ffc9c9" stroke-width="1" fill="none"></path><path d="M14.95 0 C63.24 -0.56, 106.8 -1.96, 238.37 0 M14.95 0 C80.33 -0.3, 145.69 0.26, 238.37 0 M238.37 0 C246.7 -1.02, 255.3 3.76, 253.32 14.95 M238.37 0 C246.66 -1.61, 253.84 7.06, 253.32 14.95 M253.32 14.95 C254.99 24.83, 251.83 35.58, 253.32 44.84 M253.32 14.95 C253.73 22.79, 253.08 32.19, 253.32 44.84 M253.32 44.84 C254.6 53.8, 249.09 58.74, 238.37 59.78 M253.32 44.84 C255.03 55.28, 246.24 60.85, 238.37 59.78 M238.37 59.78 C169.62 60.86, 100.39 59.83, 14.95 59.78 M238.37 59.78 C177.1 59.3, 114.94 60.07, 14.95 59.78 M14.95 59.78 C5.22 61.17, 0.06 54.36, 0 44.84 M14.95 59.78 C6.88 60.58, 0.2 56.33, 0 44.84 M0 44.84 C-0.53 36.99, 1.74 33.52, 0 14.95 M0 44.84 C0.21 32.8, 0.56 21.7, 0 14.95 M0 14.95 C-0.36 6.43, 5.61 -1.69, 14.95 0 M0 14.95 C-2.16 3.26, 4.94 0.41, 14.95 0" stroke="#e03131" stroke-width="2" fill="none"></path></g><g transform="translate(1732.4432842310507 1096.3752793585707) rotate(0 22.565948486328125 19.494410952815613)"><text x="22.565948486328125" y="0" font-family="Virgil, Segoe UI Emoji" font-size="31.191057524504977px" fill="#e03131" text-anchor="middle" style="white-space: pre;" direction="ltr" dominant-baseline="text-before-edge">s-p</text></g><g stroke-linecap="round" transform="translate(10 10) rotate(0 1116.942562848274 633.9067124644811)"><path d="M32 0 C830.55 -7.64, 1628.73 -6.33, 2201.89 0 M2201.89 0 C2222.17 -1.01, 2234.55 11.97, 2233.89 32 M2233.89 32 C2236.2 451, 2236.71 871.52, 2233.89 1235.81 M2233.89 1235.81 C2233.07 1258.06, 2221.86 1267.97, 2201.89 1267.81 M2201.89 1267.81 C1415.36 1267.29, 628.97 1268.16, 32 1267.81 M32 1267.81 C12.38 1268.98, 1.27 1258.67, 0 1235.81 M0 1235.81 C4.87 947.82, 4.33 659.2, 0 32 M0 32 C0.31 11.84, 10.35 1.78, 32 0" stroke="#9c36b5" stroke-width="2.5" fill="none" stroke-dasharray="8 10"></path></g><g stroke-linecap="round"><g transform="translate(195.84400314216873 29.7800617498807) rotate(0 0 342.223933017165)"><path d="M0.53 0.61 C0.91 114.69, 1.4 570.13, 1.17 684.02" stroke="#f08c00" stroke-width="2.5" fill="none" stroke-dasharray="8 10"></path></g></g><mask></mask><g stroke-linecap="round"><g transform="translate(1188.3506998969897 30.310584494142176) rotate(0 0 342.223933017165)"><path d="M0.17 -1.17 C0.23 112.93, -0.72 570.22, -0.56 684.65" stroke="#f08c00" stroke-width="2.5" fill="none" stroke-dasharray="8 10"></path></g></g><mask></mask><g stroke-linecap="round"><g transform="translate(1510.5649267742392 580.3233056645727) rotate(0 0 342.223933017165)"><path d="M0.36 -0.23 C0.25 113.91, -0.71 571.1, -0.91 685.03" stroke="#f08c00" stroke-width="2.5" fill="none" stroke-dasharray="8 10"></path></g></g><mask></mask><g stroke-linecap="round"><g transform="translate(1999.9591799205082 580.128276934861) rotate(0 0 342.223933017165)"><path d="M0.52 0.31 C0.18 114.52, -0.93 570.81, -0.94 684.94" stroke="#f08c00" stroke-width="2.5" fill="none" stroke-dasharray="8 10"></path></g></g><mask></mask><g stroke-linecap="round"><g transform="translate(1214.863075440322 613.6723251071049) rotate(0 133.08401007336306 0)"><path d="M0.01 0.16 C44.35 0.11, 221.94 -1.11, 266.38 -1.07 M-1.45 -0.8 C42.73 -0.67, 220.94 0.06, 265.54 -0.09" stroke="#f08c00" stroke-width="4" fill="none"></path></g><g transform="translate(1214.863075440322 613.6723251071049) rotate(0 133.08401007336306 0)"><path d="M28.15 -10.24 C19.17 -6.5, 7.95 -2.62, 0.01 0.16 M28.15 -10.24 C19.65 -6.02, 9.55 -2.45, 0.01 0.16" stroke="#f08c00" stroke-width="4" fill="none"></path></g><g transform="translate(1214.863075440322 613.6723251071049) rotate(0 133.08401007336306 0)"><path d="M28.25 10.28 C19.37 7.33, 8.12 4.52, 0.01 0.16 M28.25 10.28 C19.67 7.6, 9.53 4.28, 0.01 0.16" stroke="#f08c00" stroke-width="4" fill="none"></path></g><g transform="translate(1214.863075440322 613.6723251071049) rotate(0 133.08401007336306 0)"><path d="M237.34 10.14 C246.87 7.16, 254.02 4.3, 265.54 -0.09 M237.34 10.14 C247.73 7.55, 256.56 4.18, 265.54 -0.09" stroke="#f08c00" stroke-width="4" fill="none"></path></g><g transform="translate(1214.863075440322 613.6723251071049) rotate(0 133.08401007336306 0)"><path d="M237.36 -10.38 C246.75 -6.67, 253.89 -2.84, 265.54 -0.09 M237.36 -10.38 C247.8 -6.08, 256.62 -2.54, 265.54 -0.09" stroke="#f08c00" stroke-width="4" fill="none"></path></g></g><mask></mask><g transform="translate(1038.1949761804299 537.5975509992174) rotate(0 324.7657470703125 19.4944109528156)"><text x="0" y="0" font-family="Virgil, Segoe UI Emoji" font-size="31.191057524504973px" fill="#f08c00" text-anchor="start" style="white-space: pre;" direction="ltr" dominant-baseline="text-before-edge">not time coverage and not same trace_id</text></g><g stroke-linecap="round" transform="translate(1318.352041223854 794.1761302257678) rotate(0 437.5336438580098 202.63429434652448)"><path d="M32 0 C291.8 -2.07, 553.13 -2.48, 843.07 0 M843.07 0 C865.81 -0.51, 876.8 11.45, 875.07 32 M875.07 32 C876.29 150.95, 875.15 268.55, 875.07 373.27 M875.07 373.27 C875.77 394.32, 863.37 407.02, 843.07 405.27 M843.07 405.27 C585.7 404.7, 327.77 405.17, 32 405.27 M32 405.27 C11.47 405.03, -1.97 395.3, 0 373.27 M0 373.27 C0.67 301.41, 1.5 232.36, 0 32 M0 32 C-0.33 10.83, 10.32 1.72, 32 0" stroke="#f08c00" stroke-width="4.5" fill="none" stroke-dasharray="8 12"></path></g><g stroke-linecap="round"><g transform="translate(2228.1776750491863 927.9264836146907) rotate(0 184.4487199343721 -0.4068756103515625)"><path d="M-0.95 -0.93 C60.19 -1.11, 306.3 -0.71, 367.85 -0.81 M0.75 1.2 C62.17 1.2, 308.92 1.03, 370.01 0.74" stroke="#f08c00" stroke-width="4" fill="none"></path></g><g transform="translate(2228.1776750491863 927.9264836146907) rotate(0 184.4487199343721 -0.4068756103515625)"><path d="M341.85 11.06 C350.98 5.62, 363.25 2.55, 370.01 0.74 M341.85 11.06 C348.61 9.26, 355.44 6.97, 370.01 0.74" stroke="#f08c00" stroke-width="4" fill="none"></path></g><g transform="translate(2228.1776750491863 927.9264836146907) rotate(0 184.4487199343721 -0.4068756103515625)"><path d="M341.8 -9.46 C351 -7.1, 363.29 -2.37, 370.01 0.74 M341.8 -9.46 C348.65 -6.28, 355.49 -3.59, 370.01 0.74" stroke="#f08c00" stroke-width="4" fill="none"></path></g></g><mask></mask><g stroke-linecap="round" transform="translate(2645.97033251609 868.647002877303) rotate(0 144.58351264539942 77.76710304482341)"><path d="M7.86 8.16 C7.86 8.16, 7.86 8.16, 7.86 8.16 M7.86 8.16 C7.86 8.16, 7.86 8.16, 7.86 8.16 M0.91 40.54 C8.28 33.1, 18.08 20.32, 36.34 -0.21 M0.91 40.54 C13.37 26.33, 24.93 11.29, 36.34 -0.21 M1.18 64.62 C20.39 43.24, 40.17 21.18, 57.6 -0.28 M1.18 64.62 C17.99 45.82, 36.31 25.27, 57.6 -0.28 M1.44 88.71 C25.38 58.11, 51.78 30.35, 78.2 0.41 M1.44 88.71 C22.69 64.41, 44.17 41.5, 78.2 0.41 M1.05 113.54 C41.02 70.94, 76.58 25.9, 99.46 0.34 M1.05 113.54 C25.3 84.59, 49.75 55.9, 99.46 0.34 M2.63 136.11 C36.96 97.36, 72.89 57.52, 120.72 0.27 M2.63 136.11 C31.79 104.23, 59.33 69.63, 120.72 0.27 M11.43 150.39 C50.93 104.67, 89.06 60.34, 141.98 0.2 M11.43 150.39 C40.49 114.58, 70.71 78.92, 141.98 0.2 M28.1 155.6 C70.99 103.81, 115.08 54.14, 163.24 0.13 M28.1 155.6 C64.37 112.13, 101.61 68.98, 163.24 0.13 M49.36 155.53 C93.13 102.86, 140.33 50.25, 184.5 0.06 M49.36 155.53 C90.84 109.58, 130.75 63.47, 184.5 0.06 M70.62 155.46 C120.64 97.19, 172.89 37.72, 205.76 -0.01 M70.62 155.46 C123.29 94.37, 174.64 34.66, 205.76 -0.01 M91.88 155.39 C119.49 121.41, 151.49 85.55, 227.02 -0.08 M91.88 155.39 C141.48 99.64, 190.59 41.65, 227.02 -0.08 M113.14 155.32 C148 113.42, 183.27 71.96, 248.28 -0.15 M113.14 155.32 C154.56 107.23, 196.3 60.45, 248.28 -0.15 M134.4 155.25 C168.4 117.47, 200.42 76.68, 268.23 1.29 M134.4 155.25 C175 107.09, 215.94 61.26, 268.23 1.29 M155 155.94 C186.22 121.41, 212.77 89.07, 282.28 9.53 M155 155.94 C204.05 101.45, 250.76 47.67, 282.28 9.53 M176.26 155.87 C219.32 103.18, 265.9 55.79, 289.1 26.06 M176.26 155.87 C203.48 126.4, 230.99 96.3, 289.1 26.06 M197.52 155.8 C218.72 132.7, 235.59 111.43, 289.37 50.14 M197.52 155.8 C217.35 132.19, 236.57 109.97, 289.37 50.14 M218.78 155.73 C242.65 128.64, 268.68 96.05, 288.98 74.98 M218.78 155.73 C234.59 136.19, 252.81 116.45, 288.98 74.98 M240.04 155.66 C251.21 144.07, 261.93 129, 289.25 99.06 M240.04 155.66 C255.35 139.51, 269.97 122.63, 289.25 99.06 M261.96 154.84 C273.5 145.41, 283.12 131.28, 288.86 123.9 M261.96 154.84 C268.93 145.84, 276.88 137.72, 288.86 123.9 M12.86 151.35 C12.86 151.35, 12.86 151.35, 12.86 151.35 M12.86 151.35 C12.86 151.35, 12.86 151.35, 12.86 151.35 M41.47 155.02 C29.02 143.02, 12.17 129.44, 0.72 119.59 M41.47 155.02 C27.16 142.51, 12.82 129.37, 0.72 119.59 M65.55 154.75 C44.51 136.29, 23.99 119.85, 0.65 98.33 M65.55 154.75 C40.71 133.54, 17.09 112.86, 0.65 98.33 M90.39 155.14 C58.05 127.68, 27.42 98.47, 1.33 77.73 M90.39 155.14 C65.87 135.55, 43.43 115.42, 1.33 77.73 M114.47 154.88 C87.59 132.33, 63.48 109.05, 1.26 56.47 M114.47 154.88 C85.2 129.65, 57.69 105.83, 1.26 56.47 M139.31 155.27 C85.99 112.61, 35.36 65.33, 1.2 35.21 M139.31 155.27 C97.15 119.11, 56.15 83.29, 1.2 35.21 M163.39 155 C118.76 112.82, 73.7 73.62, 3.39 15.91 M163.39 155 C124.84 121.04, 86.7 88.09, 3.39 15.91 M188.23 155.39 C151.85 126.11, 116.51 94.35, 14.64 4.5 M188.23 155.39 C152.6 122.92, 114.43 90.25, 14.64 4.5 M212.31 155.12 C152.91 102.39, 93.55 52.76, 33.44 -0.36 M212.31 155.12 C165.52 116.09, 119.45 76.51, 33.44 -0.36 M236.39 154.86 C193.27 116.98, 152.8 81.74, 58.28 0.03 M236.39 154.86 C178.07 103.02, 118.53 51.96, 58.28 0.03 M260.47 154.59 C199.95 101.93, 138.33 49.2, 82.36 -0.24 M260.47 154.59 C205.46 106.21, 149.33 57.85, 82.36 -0.24 M278.51 149.08 C211.86 90.26, 148.76 35.14, 107.2 0.15 M278.51 149.08 C236.5 115.69, 196.92 79.86, 107.2 0.15 M287.5 135.69 C229.73 84, 168.13 31.54, 131.28 -0.12 M287.5 135.69 C247.99 102.09, 208.28 67.8, 131.28 -0.12 M289.7 116.4 C244.51 77.36, 198.71 39.17, 155.36 -0.38 M289.7 116.4 C253.04 82.06, 213.83 49.25, 155.36 -0.38 M289.63 95.14 C264.12 69.46, 235.73 48.26, 180.2 0.01 M289.63 95.14 C266.92 74.55, 243.22 55.31, 180.2 0.01 M289.56 73.88 C258.04 49.06, 227.89 20.89, 204.28 -0.26 M289.56 73.88 C264.85 52.26, 239.54 28.67, 204.28 -0.26 M289.49 52.62 C279.22 42.07, 266.78 32.55, 229.11 0.13 M289.49 52.62 C266.78 32.81, 244.99 13.97, 229.11 0.13 M289.42 31.35 C279.47 24.27, 273.71 16.56, 253.2 -0.14 M289.42 31.35 C280.21 22.13, 269.49 14.61, 253.2 -0.14" stroke="#ffec99" stroke-width="2" fill="none"></path><path d="M32 0 C118.69 0.65, 203.86 -0.28, 257.17 0 M32 0 C102.29 -1.53, 172.7 -0.71, 257.17 0 M257.17 0 C278.67 1.85, 289.31 11.52, 289.17 32 M257.17 0 C276.97 -1.17, 289.45 9.22, 289.17 32 M289.17 32 C289.53 51.21, 289.76 72.1, 289.17 123.53 M289.17 32 C290.41 58.35, 289.43 84.31, 289.17 123.53 M289.17 123.53 C290.17 144.29, 277.33 153.98, 257.17 155.53 M289.17 123.53 C290.28 143.78, 278.38 154.63, 257.17 155.53 M257.17 155.53 C170.11 154.77, 79.67 152.55, 32 155.53 M257.17 155.53 C188.26 154.05, 120.64 154.07, 32 155.53 M32 155.53 C12.48 154.78, 0.71 145.97, 0 123.53 M32 155.53 C8.87 154.84, -0.43 143.01, 0 123.53 M0 123.53 C2.04 89.8, 2.2 57.92, 0 32 M0 123.53 C-0.03 97.98, -0.35 73.19, 0 32 M0 32 C1.99 9.5, 12.36 -0.47, 32 0 M0 32 C-0.54 11.66, 8.96 -2.05, 32 0" stroke="#e03131" stroke-width="4" fill="none"></path></g><g transform="translate(2755.3559386673496 926.9196949693107) rotate(0 35.197906494140625 19.49441095281561)"><text x="35.197906494140625" y="0" font-family="Virgil, Segoe UI Emoji" font-size="31.191057524504977px" fill="#e03131" text-anchor="middle" style="white-space: pre;" direction="ltr" dominant-baseline="text-before-edge">Drop</text></g></svg>