<svg version="1.1" xmlns="http://www.w3.org/2000/svg" viewBox="0 0 1704.2632620675229 1446.394292317872" width="1704.2632620675229" height="1446.394292317872" filter="invert(93%) hue-rotate(180deg)">
  <!-- svg-source:excalidraw -->
  
  <defs>
    <style class="style-fonts">
      @font-face {
        font-family: "Virgil";
        src: url("https://file%2B.vscode-resource.vscode-cdn.net/c%3A/Users/talor/.vscode/extensions/pomdtr.excalidraw-editor-3.7.4/public//dist/excalidraw-assets/Virgil.woff2");
      }
      @font-face {
        font-family: "Cascadia";
        src: url("https://file%2B.vscode-resource.vscode-cdn.net/c%3A/Users/talor/.vscode/extensions/pomdtr.excalidraw-editor-3.7.4/public//dist/excalidraw-assets/Cascadia.woff2");
      }
      @font-face {
        font-family: "Assistant";
        src: url("https://file%2B.vscode-resource.vscode-cdn.net/c%3A/Users/talor/.vscode/extensions/pomdtr.excalidraw-editor-3.7.4/public//dist/excalidraw-assets/Assistant-Regular.woff2");
      }
    </style>
    
  </defs>
  <rect x="0" y="0" width="1704.2632620675229" height="1446.394292317872" fill="#ffffff"></rect><g stroke-linecap="round" transform="translate(134.6037292480467 127.62546748988274) rotate(0 169.54376134229017 195.9135866715947)"><path d="M7.86 8.16 C7.86 8.16, 7.86 8.16, 7.86 8.16 M7.86 8.16 C7.86 8.16, 7.86 8.16, 7.86 8.16 M1.43 27.75 C7.53 22.65, 11.12 16.82, 24.4 1.33 M1.43 27.75 C9.4 17.85, 19.22 7.71, 24.4 1.33 M0.91 40.54 C10.04 33.28, 17.51 23.67, 36.34 -0.21 M0.91 40.54 C11.98 29.61, 20.88 16.91, 36.34 -0.21 M1.04 52.58 C17.99 33.26, 37.27 12.88, 46.97 -0.25 M1.04 52.58 C11.62 40.35, 22.64 26.6, 46.97 -0.25 M1.18 64.62 C17.16 48.37, 33.5 28.1, 57.6 -0.28 M1.18 64.62 C20.4 41.52, 41.18 17.72, 57.6 -0.28 M1.31 76.67 C14.93 58.87, 28.78 46.87, 67.57 0.44 M1.31 76.67 C23.77 52.26, 45.58 26.62, 67.57 0.44 M0.79 89.46 C16.38 71.39, 34.92 48.6, 78.2 0.41 M0.79 89.46 C25.35 61.82, 49.15 32.7, 78.2 0.41 M0.92 101.5 C27.16 70.47, 52.38 41.59, 88.83 0.37 M0.92 101.5 C29.14 68.45, 57.98 34.38, 88.83 0.37 M1.05 113.54 C25.22 84.95, 48.92 59.09, 99.46 0.34 M1.05 113.54 C32.71 76.26, 64.53 40.87, 99.46 0.34 M1.19 125.58 C25.84 100.02, 48.03 70.83, 110.09 0.3 M1.19 125.58 C33.49 90.87, 64.65 53.77, 110.09 0.3 M0.66 138.38 C25.06 107.98, 49.03 78.27, 120.72 0.27 M0.66 138.38 C27.88 106.67, 54.37 75.62, 120.72 0.27 M0.8 150.42 C33.2 116.16, 64.12 80.67, 131.35 0.23 M0.8 150.42 C50.3 93.14, 100.74 34.43, 131.35 0.23 M0.93 162.46 C51.27 106.65, 95.54 50.74, 141.98 0.2 M0.93 162.46 C40.5 117.23, 79.27 70.68, 141.98 0.2 M1.06 174.5 C54.79 111.93, 108.49 47.34, 152.61 0.16 M1.06 174.5 C49.27 118.64, 97.75 62.34, 152.61 0.16 M1.2 186.54 C53.65 126.03, 109.81 63.62, 163.24 0.13 M1.2 186.54 C62.92 113.9, 126.54 41.83, 163.24 0.13 M0.67 199.34 C41.88 153.15, 84.99 101.64, 173.87 0.09 M0.67 199.34 C57.04 135.08, 113.48 69.84, 173.87 0.09 M0.81 211.38 C45.86 162.14, 86.38 114.25, 184.5 0.06 M0.81 211.38 C51.3 152.11, 102.65 94.71, 184.5 0.06 M0.94 223.42 C68.55 141.5, 139.28 63.66, 195.13 0.03 M0.94 223.42 C76.19 137.29, 150.47 52.46, 195.13 0.03 M1.07 235.46 C79.73 145, 156.23 55.88, 205.76 -0.01 M1.07 235.46 C65.29 158.82, 131.42 83.86, 205.76 -0.01 M0.55 248.26 C82.07 157.23, 160.97 63.67, 216.39 -0.04 M0.55 248.26 C45.4 199.3, 87.97 148.78, 216.39 -0.04 M0.68 260.3 C56.28 195.1, 111.72 129.18, 227.02 -0.08 M0.68 260.3 C72.6 178.09, 143.42 96.5, 227.02 -0.08 M0.82 272.34 C92.4 165.95, 185.32 58.65, 237.65 -0.11 M0.82 272.34 C53.78 210.41, 106.04 149.94, 237.65 -0.11 M0.95 284.38 C53.84 224.32, 104.86 162.86, 248.28 -0.15 M0.95 284.38 C75.04 200.42, 147.24 116.2, 248.28 -0.15 M0.43 297.17 C84.62 197.12, 171.26 100.2, 258.91 -0.18 M0.43 297.17 C57.48 230.08, 114.86 164.28, 258.91 -0.18 M0.56 309.22 C97.7 195.97, 195.12 82.49, 269.54 -0.22 M0.56 309.22 C88.56 208.26, 177.61 105.35, 269.54 -0.22 M0.69 321.26 C87.8 220.33, 173.7 120.2, 280.17 -0.25 M0.69 321.26 C89.1 221.49, 176.05 120.95, 280.17 -0.25 M0.83 333.3 C92.43 228.04, 186.38 120.73, 290.8 -0.28 M0.83 333.3 C95.06 224.25, 190.6 114.1, 290.8 -0.28 M0.96 345.34 C85.54 247.34, 170.03 151.19, 300.78 0.44 M0.96 345.34 C102.91 227.28, 205.35 109.74, 300.78 0.44 M0.44 358.13 C63.23 286.56, 124.57 214.37, 310.75 1.16 M0.44 358.13 C71.18 276.83, 140.94 195.61, 310.75 1.16 M1.23 369.42 C128.56 223.23, 253.41 77.53, 320.73 1.88 M1.23 369.42 C93.75 262.34, 186.71 155.31, 320.73 1.88 M3.98 378.44 C86.55 282.2, 168.65 188.94, 328.08 5.61 M3.98 378.44 C132.34 230.75, 260.6 82.96, 328.08 5.61 M9.36 384.44 C83.91 297.64, 160.18 210.46, 333.46 11.62 M9.36 384.44 C99.01 282.25, 187.64 180.79, 333.46 11.62 M16.06 388.94 C91.76 304.46, 167.37 216.83, 337.53 19.13 M16.06 388.94 C95.67 298.72, 174.45 208.32, 337.53 19.13 M24.72 391.17 C145.59 253.9, 265.04 116.74, 338.97 29.66 M24.72 391.17 C129.9 269.66, 236.58 147.67, 338.97 29.66 M34.69 391.89 C98.36 317.43, 163.44 241.25, 339.11 41.7 M34.69 391.89 C99.98 316.98, 164.49 241.73, 339.11 41.7 M45.32 391.85 C117.83 306.22, 191.36 222.34, 339.24 53.74 M45.32 391.85 C125.02 300.12, 205.05 208.95, 339.24 53.74 M55.95 391.82 C166.17 266.6, 274.33 141.12, 339.37 65.78 M55.95 391.82 C164.78 267.69, 272.32 144.24, 339.37 65.78 M66.58 391.78 C135.37 309.9, 205.39 230.07, 339.51 77.83 M66.58 391.78 C172.96 272.02, 278.61 149.57, 339.51 77.83 M77.22 391.75 C140.87 317.04, 205.47 242.48, 339.64 89.87 M77.22 391.75 C144.68 314.71, 209.69 239.15, 339.64 89.87 M87.85 391.72 C151.45 321.79, 211.68 251.94, 339.12 102.66 M87.85 391.72 C172.71 292.47, 258.88 193.52, 339.12 102.66 M98.48 391.68 C153.8 328.19, 208.66 265.37, 339.25 114.7 M98.48 391.68 C190.39 287.71, 279.63 184.85, 339.25 114.7 M109.11 391.65 C167.51 323.38, 228.51 256.96, 339.38 126.74 M109.11 391.65 C182.91 307.73, 257.74 223.21, 339.38 126.74 M119.74 391.61 C176.51 328.35, 232.74 262.8, 339.52 138.78 M119.74 391.61 C191.61 309.22, 264.06 226.14, 339.52 138.78 M130.37 391.58 C209.78 303.21, 288.36 214.63, 339.65 150.83 M130.37 391.58 C179.3 334.57, 231 275.77, 339.65 150.83 M141 391.54 C216.29 305.01, 293.87 216.72, 339.13 163.62 M141 391.54 C204.48 316.68, 268.52 243.58, 339.13 163.62 M151.63 391.51 C201.34 334.97, 253.95 275.37, 339.26 175.66 M151.63 391.51 C220.19 311.94, 289.89 232.58, 339.26 175.66 M161.6 392.23 C230.44 313.17, 300.54 234.4, 339.39 187.7 M161.6 392.23 C201.9 348.06, 239.41 305.07, 339.39 187.7 M172.23 392.19 C214.87 344.63, 258.31 297.36, 339.52 199.74 M172.23 392.19 C218.56 338.73, 266.61 283.06, 339.52 199.74 M182.86 392.16 C234.75 332.62, 288.41 271.21, 339.66 211.78 M182.86 392.16 C226.18 341.54, 270.46 291.9, 339.66 211.78 M193.49 392.13 C225.32 352.16, 258.09 314.06, 339.14 224.58 M193.49 392.13 C239.7 339.28, 286.59 284.52, 339.14 224.58 M204.12 392.09 C236.69 354.48, 268.87 319.18, 339.27 236.62 M204.12 392.09 C235.54 356.36, 267.33 318.92, 339.27 236.62 M214.75 392.06 C254.03 345.34, 297.17 296.94, 339.4 248.66 M214.75 392.06 C256.49 346.81, 296.2 299.19, 339.4 248.66 M225.38 392.02 C272.92 340.6, 317.39 286.96, 339.53 260.7 M225.38 392.02 C252.56 360.29, 279.69 330.84, 339.53 260.7 M236.01 391.99 C268.26 353.34, 305.36 317.08, 339.67 272.74 M236.01 391.99 C266.57 356.08, 298.1 321.81, 339.67 272.74 M246.64 391.95 C271.11 367.11, 292.99 339.75, 339.14 285.54 M246.64 391.95 C269.29 365.99, 293.42 338.51, 339.14 285.54 M257.27 391.92 C285.27 357.7, 315.17 324.05, 339.28 297.58 M257.27 391.92 C287.33 357.36, 315.7 321.39, 339.28 297.58 M267.9 391.88 C291.86 362.72, 318.67 333.72, 339.41 309.62 M267.9 391.88 C291.26 365.47, 315.09 337.5, 339.41 309.62 M278.53 391.85 C303.71 362.93, 326.29 336.32, 339.54 321.66 M278.53 391.85 C302.45 365.11, 327.18 336.71, 339.54 321.66 M289.16 391.81 C307.6 372.86, 323.87 352.67, 339.68 333.7 M289.16 391.81 C303.5 373.49, 319.32 357.33, 339.68 333.7 M299.79 391.78 C307.37 382.72, 319.24 370.82, 339.15 346.5 M299.79 391.78 C314.23 374.97, 328.54 358.16, 339.15 346.5 M310.42 391.75 C315.39 385.75, 322.57 377.57, 339.29 358.54 M310.42 391.75 C317.03 382.4, 324.89 374.03, 339.29 358.54 M323.68 388.69 C327.48 382.97, 332.23 378.17, 337.45 372.84 M323.68 388.69 C326.89 384.54, 329.71 382.21, 337.45 372.84" stroke="#ffc9c9" stroke-width="1" fill="none"></path><path d="M32 0 C132.49 -1.23, 228.51 -1.12, 307.09 0 M32 0 C93.77 1.84, 156.81 0.78, 307.09 0 M307.09 0 C330.3 0.73, 337.2 10.87, 339.09 32 M307.09 0 C327.15 0.39, 337 11.51, 339.09 32 M339.09 32 C339.06 146.49, 338.41 261.71, 339.09 359.83 M339.09 32 C339.47 158.43, 340.17 285.19, 339.09 359.83 M339.09 359.83 C337.88 382.82, 329.57 390.65, 307.09 391.83 M339.09 359.83 C336.91 378.89, 330.1 390.79, 307.09 391.83 M307.09 391.83 C238.29 391.51, 171.27 392.09, 32 391.83 M307.09 391.83 C245 394.13, 181.77 392.86, 32 391.83 M32 391.83 C11.8 392.17, -1.89 381.1, 0 359.83 M32 391.83 C10.85 390.91, -1.64 379.51, 0 359.83 M0 359.83 C1.24 238.35, -0.93 116.49, 0 32 M0 359.83 C-1.92 252.93, -1.18 146.62, 0 32 M0 32 C-0.99 10.68, 12.05 -1.97, 32 0 M0 32 C1.9 12.65, 10.9 0.53, 32 0" stroke="#e03131" stroke-width="2" fill="none"></path></g><g stroke-linecap="round"><g transform="translate(137.12048651189974 180.17910174052713) rotate(0 166.9325312837227 -0.5079359609313343)"><path d="M-0.73 0.54 C54.67 0.29, 276.99 -1.83, 332.9 -1.95 M1.09 -0.22 C56.81 -0.31, 279.56 -0.59, 335.1 -0.91" stroke="#e03131" stroke-width="2" fill="none"></path></g></g><mask></mask><g stroke-linecap="round"><g transform="translate(137.20568633894072 225.75824737676294) rotate(0 166.93253128372274 -0.5079359609313343)"><path d="M0.38 -0.29 C56.01 -0.37, 278.23 -0.82, 333.7 -0.89 M-0.88 -1.49 C54.58 -1.32, 277.17 0.94, 332.66 0.72" stroke="#e03131" stroke-width="2" fill="none"></path></g></g><mask></mask><g stroke-linecap="round"><g transform="translate(137.291220229052 276.94688101917023) rotate(0 166.93253128372274 -0.5079359609313201)"><path d="M-1.04 0.49 C54.64 0.08, 277.26 -1.1, 333.27 -1.38 M0.62 -0.29 C56.76 -0.02, 279.97 -0.09, 335.67 -0.03" stroke="#e03131" stroke-width="2" fill="none"></path></g></g><mask></mask><g stroke-linecap="round"><g transform="translate(136.95947620305793 324.83894643364476) rotate(0 166.9325312837227 -0.5079359609313201)"><path d="M0.67 0.06 C56.2 -0.11, 278.08 -0.18, 333.63 -0.22 M-0.43 -0.96 C54.88 -1.53, 276.94 -1.73, 332.55 -1.92" stroke="#e03131" stroke-width="2" fill="none"></path></g></g><mask></mask><g stroke-linecap="round"><g transform="translate(137.67556194024178 372.089964497362) rotate(0 166.93253128372274 -0.5079359609313201)"><path d="M-0.18 -0.57 C55.57 -0.56, 278.44 -0.4, 334.14 -0.34 M-1.74 1.74 C53.92 1.45, 277.49 -1.45, 333.33 -2.11" stroke="#e03131" stroke-width="2" fill="none"></path></g></g><mask></mask><g stroke-linecap="round"><g transform="translate(137.09251673999051 418.24218796519546) rotate(0 166.93253128372274 -0.5079359609313201)"><path d="M-0.68 0.26 C55.27 0.21, 279.1 -0.55, 334.81 -0.76 M1.17 -0.65 C57.12 -1.04, 279.11 -2.91, 334.35 -2.75" stroke="#e03131" stroke-width="2" fill="none"></path></g></g><mask></mask><g stroke-linecap="round"><g transform="translate(136.51788786894883 470.8043819216509) rotate(0 166.93253128372268 -0.5079359609313201)"><path d="M1.2 0.29 C57.04 0.09, 279.09 -1.33, 334.53 -1.7 M0.37 -0.61 C56.15 -0.62, 278.48 -0.44, 333.93 -0.53" stroke="#e03131" stroke-width="2" fill="none"></path></g></g><mask></mask><g transform="translate(167.16767665318065 140.7835722784797) rotate(0 49.90998077392578 17.5)"><text x="0" y="0" font-family="Virgil, Segoe UI Emoji" font-size="28px" fill="#1971c2" text-anchor="start" style="white-space: pre;" direction="ltr" dominant-baseline="text-before-edge">data_1</text></g><g transform="translate(167.16767665318065 188.66284909907125) rotate(0 56.08397674560547 17.5)"><text x="0" y="0" font-family="Virgil, Segoe UI Emoji" font-size="28px" fill="#1971c2" text-anchor="start" style="white-space: pre;" direction="ltr" dominant-baseline="text-before-edge">data_2</text></g><g transform="translate(167.16767665318065 236.5421259196628) rotate(0 55.64997863769531 17.5)"><text x="0" y="0" font-family="Virgil, Segoe UI Emoji" font-size="28px" fill="#1971c2" text-anchor="start" style="white-space: pre;" direction="ltr" dominant-baseline="text-before-edge">data_3</text></g><g transform="translate(167.16767665318065 284.42140274025434) rotate(0 55.07598114013672 17.5)"><text x="0" y="0" font-family="Virgil, Segoe UI Emoji" font-size="28px" fill="#1971c2" text-anchor="start" style="white-space: pre;" direction="ltr" dominant-baseline="text-before-edge">data_4</text></g><g transform="translate(167.16767665318065 332.3006795608459) rotate(0 54.767982482910156 17.5)"><text x="0" y="0" font-family="Virgil, Segoe UI Emoji" font-size="28px" fill="#1971c2" text-anchor="start" style="white-space: pre;" direction="ltr" dominant-baseline="text-before-edge">data_5</text></g><g transform="translate(167.16767665318065 380.1799563814374) rotate(0 55.07598114013672 17.5)"><text x="0" y="0" font-family="Virgil, Segoe UI Emoji" font-size="28px" fill="#1971c2" text-anchor="start" style="white-space: pre;" direction="ltr" dominant-baseline="text-before-edge">data_6</text></g><g transform="translate(167.16767665318065 428.05923320202896) rotate(0 53.647979736328125 17.5)"><text x="0" y="0" font-family="Virgil, Segoe UI Emoji" font-size="28px" fill="#1971c2" text-anchor="start" style="white-space: pre;" direction="ltr" dominant-baseline="text-before-edge">data_7</text></g><g transform="translate(167.16767665318065 475.9385100226205) rotate(0 56.82598114013672 17.49999999999997)"><text x="0" y="0" font-family="Virgil, Segoe UI Emoji" font-size="28px" fill="#1971c2" text-anchor="start" style="white-space: pre;" direction="ltr" dominant-baseline="text-before-edge">data_8</text></g><g stroke-linecap="round"><g transform="translate(1166.0209576985296 966.5599867331633) rotate(0 198.53338362980878 -202.70452412032142)"><path d="M0.16 -0.6 C66.61 -30.54, 353.02 -112.43, 397.94 -179.9 C442.86 -247.37, 291.21 -367.81, 269.68 -405.43 M-1.22 1.7 C65.21 -28.55, 352.33 -113.97, 397.45 -181.61 C442.57 -249.24, 290.87 -366.95, 269.47 -404.12" stroke="#2f9e44" stroke-width="2" fill="none"></path></g><g transform="translate(1166.0209576985296 966.5599867331633) rotate(0 198.53338362980878 -202.70452412032142)"><path d="M295.82 -389.78 C288.61 -391.69, 284.7 -394.76, 269.47 -404.12 M295.82 -389.78 C287.26 -394.56, 280.68 -397.67, 269.47 -404.12" stroke="#2f9e44" stroke-width="2" fill="none"></path></g><g transform="translate(1166.0209576985296 966.5599867331633) rotate(0 198.53338362980878 -202.70452412032142)"><path d="M280.44 -376.2 C276.9 -381.34, 276.64 -387.63, 269.47 -404.12 M280.44 -376.2 C276.45 -385.01, 274.46 -392.17, 269.47 -404.12" stroke="#2f9e44" stroke-width="2" fill="none"></path></g></g><mask></mask><g stroke-linecap="round" transform="translate(909.9788820800779 165.89717412607706) rotate(0 105.74215697656257 66.82942199707031)"><path d="M7.86 8.16 C7.86 8.16, 7.86 8.16, 7.86 8.16 M7.86 8.16 C7.86 8.16, 7.86 8.16, 7.86 8.16 M1.43 27.75 C8.75 17.55, 15.58 9.54, 24.4 1.33 M1.43 27.75 C8.27 19.36, 16.24 11.51, 24.4 1.33 M0.91 40.54 C13.02 24.51, 27.57 8.32, 36.34 -0.21 M0.91 40.54 C13.06 26.29, 25.98 11.38, 36.34 -0.21 M1.04 52.58 C12.92 40.48, 23.61 28.23, 46.97 -0.25 M1.04 52.58 C14.35 36.95, 27.48 21.33, 46.97 -0.25 M1.18 64.62 C21.82 40.75, 41.37 21.33, 57.6 -0.28 M1.18 64.62 C21.79 41.88, 41.24 16.97, 57.6 -0.28 M1.31 76.67 C28.99 44.63, 52.68 16.89, 67.57 0.44 M1.31 76.67 C21.89 53.43, 43.74 28.65, 67.57 0.44 M1.44 88.71 C29.1 55.11, 58.29 24.39, 78.2 0.41 M1.44 88.71 C20.78 65.82, 40.85 43.74, 78.2 0.41 M0.92 101.5 C19.34 79.48, 36.93 61.25, 88.83 0.37 M0.92 101.5 C22.17 75.71, 42.97 51.6, 88.83 0.37 M1.71 112.79 C34.24 74.51, 65.37 36.73, 99.46 0.34 M1.71 112.79 C31.27 79.39, 59.66 45.21, 99.46 0.34 M5.12 121.06 C29.97 90.48, 56.04 61.69, 110.09 0.3 M5.12 121.06 C34.59 85.99, 63.19 54.3, 110.09 0.3 M10.51 127.06 C51.63 80.44, 91.66 33.98, 120.72 0.27 M10.51 127.06 C32.94 100.9, 56.69 75.22, 120.72 0.27 M17.86 130.8 C52.99 88.05, 88.49 50.84, 131.35 0.23 M17.86 130.8 C60.23 82.14, 103.2 34.04, 131.35 0.23 M25.86 133.78 C67.48 84.27, 110.01 36.97, 141.98 0.2 M25.86 133.78 C60.6 94.58, 94.77 55.35, 141.98 0.2 M36.49 133.75 C60.07 104.68, 82.63 78.31, 152.61 0.16 M36.49 133.75 C60.53 107.3, 84.97 81.76, 152.61 0.16 M47.12 133.71 C86.18 88.05, 123.25 43.98, 163.24 0.13 M47.12 133.71 C88.01 85.34, 129.86 38.79, 163.24 0.13 M57.75 133.68 C100.37 81.76, 146.03 34.06, 173.87 0.09 M57.75 133.68 C100.98 83.69, 145.73 31.98, 173.87 0.09 M68.38 133.64 C108.32 86.83, 152.12 38.18, 183.85 0.81 M68.38 133.64 C111.51 84.21, 153.77 33.65, 183.85 0.81 M79.01 133.61 C106.15 101.44, 132.91 70.44, 192.51 3.04 M79.01 133.61 C107.22 101.4, 135.1 68.92, 192.51 3.04 M88.99 134.33 C120.34 97.74, 153.68 59.73, 200.52 6.03 M88.99 134.33 C133.25 84.09, 177.05 32.66, 200.52 6.03 M99.62 134.29 C128.1 101.65, 158.84 63.15, 205.9 12.03 M99.62 134.29 C130.95 98.72, 160.25 63.89, 205.9 12.03 M110.25 134.26 C137.73 104.81, 164.26 71.98, 209.97 19.54 M110.25 134.26 C140.87 99.67, 170.42 64.42, 209.97 19.54 M120.88 134.23 C154.06 97.31, 188.86 58.96, 212.07 29.32 M120.88 134.23 C149.9 100.03, 177.59 66.77, 212.07 29.32 M131.51 134.19 C158.09 101.59, 184.7 71.17, 211.54 42.12 M131.51 134.19 C161.26 98.04, 193.1 63.75, 211.54 42.12 M142.14 134.16 C166.74 105.79, 195.31 73.75, 211.68 54.16 M142.14 134.16 C162.24 110.55, 182.61 88.74, 211.68 54.16 M152.77 134.12 C169.65 113.71, 187.11 96.16, 211.81 66.2 M152.77 134.12 C175.95 107.68, 200.84 81.25, 211.81 66.2 M163.4 134.09 C174.65 120.21, 187 106.53, 211.94 78.24 M163.4 134.09 C177.17 118.1, 190.13 103.18, 211.94 78.24 M174.03 134.05 C189.65 116.3, 203.64 98.77, 212.08 90.28 M174.03 134.05 C186.57 120.76, 198.51 105.96, 212.08 90.28 M185.97 132.51 C194.01 125.7, 199.05 119.3, 212.21 102.32 M185.97 132.51 C194.13 122.24, 202.68 113.54, 212.21 102.32 M199.88 128.7 C200.88 125.84, 203.14 122.99, 207.75 119.64 M199.88 128.7 C201.85 126.13, 205.16 122.27, 207.75 119.64" stroke="#b2f2bb" stroke-width="1" fill="none"></path><path d="M32 0 C62.36 0.81, 96.59 -1.12, 179.48 0 M32 0 C72.67 -0.86, 114.38 -1.19, 179.48 0 M179.48 0 C200.04 0.69, 211.82 12.07, 211.48 32 M179.48 0 C201.78 1.24, 209.54 9.32, 211.48 32 M211.48 32 C213.07 55.1, 210.35 80.57, 211.48 101.66 M211.48 32 C210.79 58.69, 211.92 86.65, 211.48 101.66 M211.48 101.66 C210.36 124.11, 200.73 131.93, 179.48 133.66 M211.48 101.66 C212.16 122.94, 202.64 133.91, 179.48 133.66 M179.48 133.66 C139.22 134.14, 102.69 132.1, 32 133.66 M179.48 133.66 C125.3 135.64, 72.81 134.01, 32 133.66 M32 133.66 C10.18 134.09, -1.99 122.83, 0 101.66 M32 133.66 C9.07 133.44, -1.49 125, 0 101.66 M0 101.66 C0.45 77.89, -2.03 58.53, 0 32 M0 101.66 C0.22 76.24, 0.51 49.29, 0 32 M0 32 C-0.76 11.89, 8.99 0.68, 32 0 M0 32 C-2.27 9.93, 8.5 -1.87, 32 0" stroke="#f08c00" stroke-width="2" fill="none"></path></g><g transform="translate(926.5270769594724 215.22659612314737) rotate(0 89.19396209716797 17.5)"><text x="89.19396209716797" y="0" font-family="Virgil, Segoe UI Emoji" font-size="28px" fill="#f08c00" text-anchor="middle" style="white-space: pre;" direction="ltr" dominant-baseline="text-before-edge">req_tcp_seq</text></g><g stroke-linecap="round" transform="translate(1158.6376647949219 166.15109563486612) rotate(0 114.49221825585937 66.57550048828125)"><path d="M7.86 8.16 C7.86 8.16, 7.86 8.16, 7.86 8.16 M7.86 8.16 C7.86 8.16, 7.86 8.16, 7.86 8.16 M1.43 27.75 C8.02 18.61, 16.1 8.69, 24.4 1.33 M1.43 27.75 C9.6 19.02, 16.43 9.69, 24.4 1.33 M0.91 40.54 C11.71 30.88, 19.03 18.27, 36.34 -0.21 M0.91 40.54 C10.18 29.05, 21.09 18.96, 36.34 -0.21 M1.04 52.58 C13.32 39.88, 20.45 29.85, 46.97 -0.25 M1.04 52.58 C13.33 39.93, 23.46 27.93, 46.97 -0.25 M1.18 64.62 C14.64 48.87, 27.6 31.44, 57.6 -0.28 M1.18 64.62 C16.53 47.2, 31.56 30.19, 57.6 -0.28 M1.31 76.67 C21.34 52.83, 40.07 32.7, 67.57 0.44 M1.31 76.67 C25.73 48.21, 50.03 20.2, 67.57 0.44 M1.44 88.71 C17.82 68.78, 37.09 48, 78.2 0.41 M1.44 88.71 C25.7 62.17, 49.57 34.73, 78.2 0.41 M0.92 101.5 C29.18 71.53, 56.75 41.37, 88.83 0.37 M0.92 101.5 C33.97 64.11, 67.11 24.47, 88.83 0.37 M2.37 112.03 C25.91 86.86, 46.17 60.07, 99.46 0.34 M2.37 112.03 C38.99 68.58, 75.55 25.02, 99.46 0.34 M5.12 121.06 C42.86 78.41, 80.91 34.62, 110.09 0.3 M5.12 121.06 C27.67 91.91, 53.45 65, 110.09 0.3 M10.51 127.06 C51.96 77.91, 97.12 27.78, 120.72 0.27 M10.51 127.06 C42.75 89.75, 74.94 52, 120.72 0.27 M17.86 130.8 C48.14 93.53, 80.54 58.6, 131.35 0.23 M17.86 130.8 C43.11 102.05, 66.94 73.82, 131.35 0.23 M26.52 133.03 C68.49 83.51, 110.74 35.93, 141.98 0.2 M26.52 133.03 C55.88 96.83, 88.6 61.01, 141.98 0.2 M36.49 133.75 C65.38 97.33, 97.91 62.52, 152.61 0.16 M36.49 133.75 C76.3 86.76, 116.1 41.21, 152.61 0.16 M47.12 133.71 C71.82 104.96, 98.88 74.98, 163.24 0.13 M47.12 133.71 C84.78 88.87, 123.65 44.64, 163.24 0.13 M57.75 133.68 C102.51 81.46, 148.04 26.32, 173.87 0.09 M57.75 133.68 C95.45 91.14, 131.82 49.63, 173.87 0.09 M68.38 133.64 C97.51 102.49, 125.38 68.95, 184.5 0.06 M68.38 133.64 C106.73 88, 146.37 41.73, 184.5 0.06 M79.01 133.61 C117.75 92.1, 155.18 45.84, 195.13 0.03 M79.01 133.61 C120.98 83.07, 165.84 32.76, 195.13 0.03 M89.64 133.57 C131.12 88.02, 174.03 38.2, 205.11 0.75 M89.64 133.57 C128.97 85.36, 169.72 39.78, 205.11 0.75 M100.27 133.54 C126.62 104.98, 151.45 74.76, 213.11 3.73 M100.27 133.54 C131.44 99.71, 163.26 62.96, 213.11 3.73 M110.9 133.51 C148.57 88.69, 187.9 44.57, 219.81 8.22 M110.9 133.51 C137.11 101.67, 165.64 70.7, 219.81 8.22 M121.53 133.47 C139.56 108.72, 162.74 85.91, 225.19 14.23 M121.53 133.47 C149.47 103.06, 176.49 71.23, 225.19 14.23 M132.16 133.44 C152.62 110.45, 170.64 86.2, 228.6 22.49 M132.16 133.44 C163.84 95.63, 197.55 58.78, 228.6 22.49 M142.79 133.4 C166.31 104.8, 193.35 71.49, 229.39 33.78 M142.79 133.4 C170.1 101.09, 200.29 67.77, 229.39 33.78 M153.42 133.37 C182.51 99.19, 210.12 67.75, 229.52 45.82 M153.42 133.37 C177.54 105.41, 201.55 76.5, 229.52 45.82 M164.05 133.33 C185.59 112.72, 203.85 89.82, 229 58.62 M164.05 133.33 C188.54 105.77, 212.78 76.53, 229 58.62 M174.68 133.3 C191.77 113.45, 208.07 91.98, 229.14 70.66 M174.68 133.3 C191.73 112.08, 210.3 92.76, 229.14 70.66 M184.66 134.02 C199 117.16, 209.67 103.36, 229.27 82.7 M184.66 134.02 C202.28 114.34, 218.19 92.66, 229.27 82.7 M195.29 133.98 C206.85 121.37, 220.34 107.31, 229.4 94.74 M195.29 133.98 C204.66 122.84, 216.61 109.88, 229.4 94.74 M207.88 131.69 C215.49 122.35, 221.76 112.01, 228.88 107.54 M207.88 131.69 C214.48 124.75, 221.15 116.21, 228.88 107.54" stroke="#b2f2bb" stroke-width="1" fill="none"></path><path d="M32 0 C92.62 2.05, 151.54 -0.08, 196.98 0 M32 0 C72.77 -0.44, 110.9 0.21, 196.98 0 M196.98 0 C218.54 -1.14, 230.09 9.96, 228.98 32 M196.98 0 C219.21 1.89, 231.26 9.28, 228.98 32 M228.98 32 C228.9 58.96, 228.98 82.91, 228.98 101.15 M228.98 32 C228.2 53.64, 228.26 77.97, 228.98 101.15 M228.98 101.15 C228.78 122.8, 220.27 133.75, 196.98 133.15 M228.98 101.15 C230.32 124.18, 218.37 134.25, 196.98 133.15 M196.98 133.15 C143.51 131.77, 92.43 132.78, 32 133.15 M196.98 133.15 C160.72 133.31, 123.21 131.62, 32 133.15 M32 133.15 C10.16 135.13, 0.8 122.95, 0 101.15 M32 133.15 C12.46 131.36, 0.67 123.21, 0 101.15 M0 101.15 C0.49 76.76, 2.23 52.92, 0 32 M0 101.15 C-0.48 85.71, 0.29 71.41, 0 32 M0 32 C0.1 11.57, 10.97 -0.48, 32 0 M0 32 C-1.61 9.04, 8.8 -0.93, 32 0" stroke="#f08c00" stroke-width="2" fill="none"></path></g><g transform="translate(1177.0759279726562 215.22659612314737) rotate(0 96.053955078125 17.5)"><text x="96.053955078125" y="0" font-family="Virgil, Segoe UI Emoji" font-size="28px" fill="#f08c00" text-anchor="middle" style="white-space: pre;" direction="ltr" dominant-baseline="text-before-edge">resp_tcp_seq</text></g><g stroke-linecap="round" transform="translate(703.9762272949215 326.1238030405424) rotate(0 150.15628051757812 74.075516)"><path d="M7.86 8.16 C7.86 8.16, 7.86 8.16, 7.86 8.16 M7.86 8.16 C7.86 8.16, 7.86 8.16, 7.86 8.16 M1.43 27.75 C7.7 22.36, 13.61 12.77, 24.4 1.33 M1.43 27.75 C10.32 16.55, 20.25 8.01, 24.4 1.33 M0.91 40.54 C14.7 23.84, 28.99 7.04, 36.34 -0.21 M0.91 40.54 C10.78 28.87, 19.16 18.26, 36.34 -0.21 M1.04 52.58 C17.27 34.51, 29.4 20.19, 46.97 -0.25 M1.04 52.58 C13.77 37.71, 26.26 24.14, 46.97 -0.25 M1.18 64.62 C20.17 41.06, 41.34 15.86, 57.6 -0.28 M1.18 64.62 C17.06 46.37, 33.84 26.9, 57.6 -0.28 M1.31 76.67 C12.88 60.58, 27.99 46.95, 67.57 0.44 M1.31 76.67 C20.17 55.8, 38.95 33.49, 67.57 0.44 M1.44 88.71 C28.46 59.11, 55.2 26.33, 78.2 0.41 M1.44 88.71 C22.73 65.46, 44.45 39.99, 78.2 0.41 M0.92 101.5 C24.17 73.46, 51.06 44.1, 88.83 0.37 M0.92 101.5 C31.96 64.95, 63.59 27.96, 88.83 0.37 M1.05 113.54 C37.83 70.83, 71.66 33.66, 99.46 0.34 M1.05 113.54 C27.03 85.26, 51.86 56.08, 99.46 0.34 M1.19 125.58 C38.81 82.66, 78.85 39.82, 110.09 0.3 M1.19 125.58 C29.92 90.15, 60.33 55.69, 110.09 0.3 M4.6 133.85 C42.48 91.91, 78.89 46.43, 120.72 0.27 M4.6 133.85 C47.06 85.6, 89.86 37.35, 120.72 0.27 M9.33 140.61 C36.84 111.19, 59.31 82.61, 131.35 0.23 M9.33 140.61 C36 110.75, 60.63 82.03, 131.35 0.23 M16.02 145.1 C50.19 104.2, 86.43 65.56, 141.98 0.2 M16.02 145.1 C50.83 105.3, 83.9 66.31, 141.98 0.2 M24.03 148.09 C63.75 99.89, 107.67 53.06, 152.61 0.16 M24.03 148.09 C69.23 97.04, 114.03 45.98, 152.61 0.16 M34 148.81 C66.32 110.76, 99.65 71.46, 163.24 0.13 M34 148.81 C80.14 97.34, 126.27 43.98, 163.24 0.13 M44.63 148.77 C91.52 92.46, 140.89 36.92, 173.87 0.09 M44.63 148.77 C82.42 105.29, 120.84 60.83, 173.87 0.09 M55.26 148.74 C103.6 93.15, 150.6 41.1, 184.5 0.06 M55.26 148.74 C94.69 105.37, 131.67 61.9, 184.5 0.06 M65.89 148.7 C103.91 105.9, 141.74 63.09, 195.13 0.03 M65.89 148.7 C103.35 105.44, 141.94 62.18, 195.13 0.03 M76.52 148.67 C113.13 105.31, 147.13 63.58, 205.76 -0.01 M76.52 148.67 C114.9 103.53, 153.96 57.88, 205.76 -0.01 M87.15 148.63 C115.58 112.51, 147.46 79.67, 216.39 -0.04 M87.15 148.63 C136.86 94.36, 183.81 39.7, 216.39 -0.04 M97.78 148.6 C146.42 91.31, 197.45 31.97, 227.02 -0.08 M97.78 148.6 C140.11 101.64, 181.27 53.69, 227.02 -0.08 M108.41 148.57 C160.52 87.38, 208.91 30.68, 237.65 -0.11 M108.41 148.57 C157.2 90.55, 207.34 33.3, 237.65 -0.11 M119.04 148.53 C153.16 112.96, 182.1 75.82, 248.28 -0.15 M119.04 148.53 C165.04 92.68, 213.05 38.07, 248.28 -0.15 M129.67 148.5 C180.31 88.38, 233.41 33.01, 258.91 -0.18 M129.67 148.5 C155.45 116.55, 183.2 85.66, 258.91 -0.18 M140.3 148.46 C175.78 104.78, 212.88 64.68, 268.89 0.54 M140.3 148.46 C192.48 88.62, 242.64 30.58, 268.89 0.54 M150.93 148.43 C189.62 107.24, 222.95 63.48, 278.21 2.01 M150.93 148.43 C194.4 101.63, 235.74 52.38, 278.21 2.01 M161.56 148.39 C204.03 99.47, 248.34 47.95, 286.87 4.24 M161.56 148.39 C198.55 105.29, 234.75 62.35, 286.87 4.24 M171.54 149.11 C217.71 97.02, 261.7 44.22, 292.91 9.49 M171.54 149.11 C199.64 114.72, 230.49 79.35, 292.91 9.49 M182.17 149.08 C223.95 103.57, 262.22 55.35, 297.63 16.25 M182.17 149.08 C209.65 119.16, 235.97 87.32, 297.63 16.25 M192.8 149.04 C232.01 102.82, 276.64 51.76, 299.73 26.03 M192.8 149.04 C223.04 113.79, 255.2 78.1, 299.73 26.03 M203.43 149.01 C236.58 110.32, 270.74 69.24, 300.52 37.31 M203.43 149.01 C232.1 114.54, 263.66 78.63, 300.52 37.31 M214.06 148.98 C237.68 118.01, 263.68 90.14, 300.66 49.35 M214.06 148.98 C246.82 110.32, 279.65 73.41, 300.66 49.35 M224.69 148.94 C254.29 115.04, 285.01 79.43, 300.79 61.39 M224.69 148.94 C250.62 118.32, 278.34 85.76, 300.79 61.39 M235.32 148.91 C254.9 126.93, 273.13 107.73, 300.92 73.44 M235.32 148.91 C252.59 127.12, 270.13 107.41, 300.92 73.44 M245.95 148.87 C265.76 127.12, 289.2 101.87, 301.05 85.48 M245.95 148.87 C261.7 130.4, 279.41 111.07, 301.05 85.48 M256.58 148.84 C273.02 129.51, 292.54 112.34, 300.53 98.27 M256.58 148.84 C271.18 132.22, 286.41 114.18, 300.53 98.27 M267.21 148.8 C272.82 142.5, 280.41 135.03, 300.66 110.31 M267.21 148.8 C281.14 133.1, 294.14 118.46, 300.66 110.31 M279.15 147.26 C283.88 141.01, 290.67 134.13, 300.14 123.11 M279.15 147.26 C286.92 138.3, 294 130.82, 300.14 123.11" stroke="#b2f2bb" stroke-width="1" fill="none"></path><path d="M32 0 C84.55 -0.41, 135.38 -1.33, 268.31 0 M32 0 C126.65 0.64, 219.21 0.8, 268.31 0 M268.31 0 C289.23 -1.64, 300.92 11.5, 300.31 32 M268.31 0 C288.14 -2, 300.33 12.34, 300.31 32 M300.31 32 C301.97 53.24, 300.49 73.67, 300.31 116.15 M300.31 32 C301.15 63.63, 300.93 94.41, 300.31 116.15 M300.31 116.15 C299.21 137.39, 288.17 147.91, 268.31 148.15 M300.31 116.15 C302.37 139.08, 290.63 148.8, 268.31 148.15 M268.31 148.15 C180.75 151.23, 93.82 148.5, 32 148.15 M268.31 148.15 C191.83 149.44, 114.8 148.94, 32 148.15 M32 148.15 C11.2 149.16, 0.9 136.62, 0 116.15 M32 148.15 C9.51 148.95, 1.5 137.54, 0 116.15 M0 116.15 C-1.68 85.19, 0.03 59.49, 0 32 M0 116.15 C0.18 83.02, -1.4 52.32, 0 32 M0 32 C1.85 9.73, 10.78 0.82, 32 0 M0 32 C2.05 11.07, 10.75 0.27, 32 0" stroke="#f08c00" stroke-width="2" fill="none"></path></g><g transform="translate(736.5185551757809 382.6993190405424) rotate(0 117.61395263671875 17.5)"><text x="117.61395263671875" y="0" font-family="Virgil, Segoe UI Emoji" font-size="28px" fill="#f08c00" text-anchor="middle" style="white-space: pre;" direction="ltr" dominant-baseline="text-before-edge">syscall_trace_id</text></g><g stroke-linecap="round" transform="translate(1076.7886662480466 326.12380354640175) rotate(0 149.24484252929688 74.07551574707031)"><path d="M7.86 8.16 C7.86 8.16, 7.86 8.16, 7.86 8.16 M7.86 8.16 C7.86 8.16, 7.86 8.16, 7.86 8.16 M1.43 27.75 C8.23 19.43, 17.25 10.98, 24.4 1.33 M1.43 27.75 C6.68 22, 12.38 15.99, 24.4 1.33 M0.91 40.54 C9.9 27.86, 22.49 17.35, 36.34 -0.21 M0.91 40.54 C9.84 29.23, 19.48 19.68, 36.34 -0.21 M1.04 52.58 C14 36.78, 26.68 21.82, 46.97 -0.25 M1.04 52.58 C13.6 38.8, 25.07 23.52, 46.97 -0.25 M1.18 64.62 C23.63 40.65, 46.48 15, 57.6 -0.28 M1.18 64.62 C14.65 48.62, 28.75 33.88, 57.6 -0.28 M1.31 76.67 C22.19 51.43, 41.54 28.04, 67.57 0.44 M1.31 76.67 C20 56.21, 38.2 35.03, 67.57 0.44 M1.44 88.71 C17.15 70.16, 33.76 52.94, 78.2 0.41 M1.44 88.71 C30.28 58.65, 56.91 26.05, 78.2 0.41 M0.92 101.5 C30.97 71.93, 57.53 38.72, 88.83 0.37 M0.92 101.5 C32.55 63.24, 65.52 26.1, 88.83 0.37 M1.05 113.54 C40.72 69.4, 78.45 22.63, 99.46 0.34 M1.05 113.54 C26.95 83.76, 51.64 55.95, 99.46 0.34 M1.19 125.58 C32.24 88.34, 64.78 51.32, 110.09 0.3 M1.19 125.58 C24.73 98.43, 48.3 71.61, 110.09 0.3 M4.6 133.85 C35.41 98.92, 67.22 65.63, 120.72 0.27 M4.6 133.85 C31.54 99.94, 60.32 67.31, 120.72 0.27 M9.33 140.61 C36.75 108.29, 66.07 76.32, 131.35 0.23 M9.33 140.61 C54.31 86.99, 100.92 32.91, 131.35 0.23 M16.02 145.1 C59.31 95.91, 103.8 42.91, 141.98 0.2 M16.02 145.1 C44.1 112.2, 73.76 78.87, 141.98 0.2 M24.03 148.09 C71.04 93.02, 118.86 40.1, 152.61 0.16 M24.03 148.09 C71.6 93.73, 117.62 38.59, 152.61 0.16 M34 148.81 C64.09 111.38, 96.47 73.83, 163.24 0.13 M34 148.81 C75.72 99.27, 117.48 51.76, 163.24 0.13 M44.63 148.77 C87.28 100.36, 133.07 47.42, 173.87 0.09 M44.63 148.77 C90.7 93.07, 138.4 38.87, 173.87 0.09 M55.26 148.74 C98.1 99.63, 142.69 49.12, 184.5 0.06 M55.26 148.74 C88.85 109.32, 122.17 68.1, 184.5 0.06 M65.89 148.7 C106.2 101.24, 145.11 55.89, 195.13 0.03 M65.89 148.7 C106.48 105.66, 145.58 59.5, 195.13 0.03 M76.52 148.67 C114.61 103.97, 149.05 62.99, 205.76 -0.01 M76.52 148.67 C103.24 116.63, 130.33 85.61, 205.76 -0.01 M87.15 148.63 C134.05 95.27, 177.81 44.31, 216.39 -0.04 M87.15 148.63 C114.1 115.56, 141.86 83.48, 216.39 -0.04 M97.78 148.6 C144.54 94.86, 190.62 37.8, 227.02 -0.08 M97.78 148.6 C142.09 99.47, 186.14 47.53, 227.02 -0.08 M108.41 148.57 C144.3 107.29, 184.64 62.55, 237.65 -0.11 M108.41 148.57 C140.27 110.46, 173.26 73.52, 237.65 -0.11 M119.04 148.53 C159.27 104.6, 195.87 59.89, 248.28 -0.15 M119.04 148.53 C144.95 116.24, 173.6 83.13, 248.28 -0.15 M129.67 148.5 C166.63 102.96, 204.46 61.51, 258.91 -0.18 M129.67 148.5 C165.33 108.11, 201.6 65.71, 258.91 -0.18 M140.3 148.46 C169.81 117.21, 198.83 84.84, 268.89 0.54 M140.3 148.46 C170.35 109.5, 203.98 73.75, 268.89 0.54 M150.93 148.43 C178.09 115.07, 206.8 85.25, 278.21 2.01 M150.93 148.43 C186.35 106.09, 222.88 64.37, 278.21 2.01 M161.56 148.39 C200.34 101.01, 240.33 58.49, 286.21 5 M161.56 148.39 C194.61 109.98, 225.27 73.41, 286.21 5 M171.54 149.11 C209.45 104.6, 247.02 59.45, 292.25 10.25 M171.54 149.11 C213.2 98.66, 256.97 49.32, 292.25 10.25 M182.17 149.08 C203.71 120.25, 228.6 94.5, 296.32 17.76 M182.17 149.08 C212.86 114.6, 242.84 79.55, 296.32 17.76 M192.8 149.04 C229.99 105.22, 265.05 61.58, 298.42 27.54 M192.8 149.04 C225.54 109.34, 261.08 71.4, 298.42 27.54 M203.43 149.01 C233.59 110.79, 267.27 76.46, 298.55 39.58 M203.43 149.01 C232.98 113.82, 264.39 79.54, 298.55 39.58 M214.06 148.98 C249 109.8, 282.57 71.89, 298.69 51.62 M214.06 148.98 C241.09 118.51, 267.11 89.44, 298.69 51.62 M224.69 148.94 C254.6 117.29, 281.16 83.78, 298.82 63.66 M224.69 148.94 C246.67 123.54, 269.1 98.77, 298.82 63.66 M235.32 148.91 C252.51 128.65, 270.25 107.13, 298.3 76.45 M235.32 148.91 C257.61 124.74, 278.26 99.26, 298.3 76.45 M245.95 148.87 C262.04 130.34, 276.08 113.93, 298.43 88.49 M245.95 148.87 C260.26 133.05, 273.55 118.07, 298.43 88.49 M256.58 148.84 C273.6 130.04, 287.68 110.72, 298.56 100.54 M256.58 148.84 C265.21 138.5, 273.79 127.47, 298.56 100.54 M267.21 148.8 C274.6 139.59, 281.8 132.74, 298.7 112.58 M267.21 148.8 C277.6 137.48, 286.73 126.05, 298.7 112.58 M279.15 147.26 C286.69 140.95, 295.58 131.99, 297.52 126.13 M279.15 147.26 C286.37 139.25, 293.88 132.06, 297.52 126.13" stroke="#b2f2bb" stroke-width="1" fill="none"></path><path d="M32 0 C90.62 -0.48, 150.61 -0.36, 266.49 0 M32 0 C91.93 -0.06, 150.83 -0.27, 266.49 0 M266.49 0 C289.19 -1.98, 296.69 11.59, 298.49 32 M266.49 0 C289.96 -1.07, 298.62 11.61, 298.49 32 M298.49 32 C298.88 64.71, 296.75 99.06, 298.49 116.15 M298.49 32 C297.38 63.01, 298.12 93.08, 298.49 116.15 M298.49 116.15 C296.78 135.56, 288.28 147.37, 266.49 148.15 M298.49 116.15 C298.55 136.86, 289.8 147.29, 266.49 148.15 M266.49 148.15 C192.91 149.56, 120.79 147.66, 32 148.15 M266.49 148.15 C198 150.77, 128.4 149.39, 32 148.15 M32 148.15 C10.49 147.49, -0.03 136.3, 0 116.15 M32 148.15 C9.85 146.33, -0.43 137.89, 0 116.15 M0 116.15 C1.01 97.38, -0.36 83, 0 32 M0 116.15 C0.16 98.24, -0.36 79.91, 0 32 M0 32 C-1.66 11.45, 10.67 1.22, 32 0 M0 32 C2.08 12.87, 9.74 0.48, 32 0" stroke="#f08c00" stroke-width="2" fill="none"></path></g><g transform="translate(1131.5615544316404 382.69931929347206) rotate(0 94.47195434570312 17.5)"><text x="94.47195434570312" y="0" font-family="Virgil, Segoe UI Emoji" font-size="28px" fill="#f08c00" text-anchor="middle" style="white-space: pre;" direction="ltr" dominant-baseline="text-before-edge">x_request_id</text></g><g stroke-linecap="round" transform="translate(703.9762272949215 166.15109562095012) rotate(0 79.66146850000007 66.57550050219729)"><path d="M7.86 8.16 C7.86 8.16, 7.86 8.16, 7.86 8.16 M7.86 8.16 C7.86 8.16, 7.86 8.16, 7.86 8.16 M2.75 26.24 C8.27 20.15, 14.23 16.58, 21.12 5.11 M2.75 26.24 C6.31 20.28, 10.86 15.51, 21.12 5.11 M2.88 38.28 C9.9 29.89, 18.83 21.36, 34.37 2.05 M2.88 38.28 C13.93 24.93, 25.88 10.73, 34.37 2.05 M2.36 51.07 C16.07 35.31, 31.06 16.24, 45 2.02 M2.36 51.07 C11.35 39.55, 21.96 28.13, 45 2.02 M2.49 63.11 C21.8 39.89, 41.98 18.77, 55.63 1.98 M2.49 63.11 C22.35 41.16, 40.83 17.7, 55.63 1.98 M2.62 75.16 C16.9 56.58, 33.41 37.29, 66.26 1.95 M2.62 75.16 C22.7 50.35, 43.27 27.21, 66.26 1.95 M2.76 87.2 C26.89 60.28, 53.71 29.15, 76.89 1.91 M2.76 87.2 C29.3 54.94, 56.88 23.89, 76.89 1.91 M2.89 99.24 C30.52 67.49, 59.8 34.59, 86.86 2.63 M2.89 99.24 C24.84 73.83, 46.03 46.57, 86.86 2.63 M3.02 111.28 C32.87 76.37, 60.98 43.44, 97.49 2.6 M3.02 111.28 C32.85 80.02, 61.41 45.98, 97.49 2.6 M5.12 121.06 C35.86 85.09, 62.75 52.78, 108.12 2.57 M5.12 121.06 C26.42 95.46, 47.82 70.99, 108.12 2.57 M10.51 127.06 C49.76 82.41, 86.12 39.99, 118.76 2.53 M10.51 127.06 C32.93 99.23, 56.2 72.32, 118.76 2.53 M17.2 131.55 C57.85 84.98, 97.64 35.17, 129.39 2.5 M17.2 131.55 C55.72 89.02, 93.99 43.72, 129.39 2.5 M25.86 133.78 C57.01 97.95, 92.55 58.74, 138.7 3.97 M25.86 133.78 C53.69 100.49, 82.56 68.28, 138.7 3.97 M36.49 133.75 C71.07 96.21, 102.03 57.97, 146.71 6.96 M36.49 133.75 C58.46 106.27, 83 77.9, 146.71 6.96 M47.12 133.71 C77.59 95.7, 109.07 61.56, 154.06 10.7 M47.12 133.71 C76.66 100.41, 106.69 65.18, 154.06 10.7 M57.75 133.68 C80.92 109.2, 103.83 83.87, 158.13 18.21 M57.75 133.68 C81.02 103.06, 107.59 75.45, 158.13 18.21 M68.38 133.64 C87.57 109.51, 108.34 88.81, 159.57 28.74 M68.38 133.64 C93.82 103.12, 120.13 73.15, 159.57 28.74 M78.36 134.36 C104.89 101.51, 132.57 73.14, 163.64 36.25 M78.36 134.36 C101.25 107.94, 121.8 83.01, 163.64 36.25 M88.99 134.33 C112.55 107.26, 135.35 79.1, 163.78 48.29 M88.99 134.33 C114.6 103.21, 141.86 72.86, 163.78 48.29 M99.62 134.29 C111.49 117.41, 126.37 103.17, 163.91 60.33 M99.62 134.29 C116.9 115.18, 133.59 95.41, 163.91 60.33 M110.25 134.26 C128.96 111.96, 145.67 89.42, 163.39 73.13 M110.25 134.26 C126.5 114.02, 145.08 95.59, 163.39 73.13 M120.88 134.23 C133.63 116.07, 149.89 101.79, 163.52 85.17 M120.88 134.23 C133.83 118.23, 148.14 103.61, 163.52 85.17 M130.19 135.7 C145.11 119.8, 158.4 105.21, 163.65 97.21 M130.19 135.7 C141.13 123.4, 151.64 112.16, 163.65 97.21 M143.45 132.65 C150.61 127.36, 153.79 120.73, 157.88 116.04 M143.45 132.65 C147.47 127.27, 152.16 122.91, 157.88 116.04" stroke="#b2f2bb" stroke-width="1" fill="none"></path><path d="M32 0 C64.84 1.37, 96.64 1.8, 127.32 0 M32 0 C62.91 -0.15, 93.18 1.07, 127.32 0 M127.32 0 C149.13 0.57, 160.93 9, 159.32 32 M127.32 0 C148.65 2.22, 158.22 9.86, 159.32 32 M159.32 32 C161.51 50.9, 160.74 69.96, 159.32 101.15 M159.32 32 C159.72 51.61, 158.74 71.82, 159.32 101.15 M159.32 101.15 C159.42 121.51, 147.49 132.49, 127.32 133.15 M159.32 101.15 C158.74 122.89, 150.01 134.58, 127.32 133.15 M127.32 133.15 C88.51 135.02, 52.64 133.91, 32 133.15 M127.32 133.15 C100.52 132.7, 72.07 134.38, 32 133.15 M32 133.15 C12.46 133.31, -0.68 122.77, 0 101.15 M32 133.15 C8.55 132.63, 1.73 124.77, 0 101.15 M0 101.15 C-0.48 80.09, -2.07 55.66, 0 32 M0 101.15 C-0.12 82.58, 0.32 65.07, 0 32 M0 32 C-1.05 9.17, 9.84 0.37, 32 0 M0 32 C-1.18 12.15, 8.37 -0.29, 32 0" stroke="#f08c00" stroke-width="2" fill="none"></path></g><g transform="translate(723.087723260742 215.22659612314737) rotate(0 60.549972534179744 17.5)"><text x="60.54997253417969" y="0" font-family="Virgil, Segoe UI Emoji" font-size="28px" fill="#f08c00" text-anchor="middle" style="white-space: pre;" direction="ltr" dominant-baseline="text-before-edge">trace_id</text></g><g stroke-linecap="round" transform="translate(680.9319152832029 127.62546708799096) rotate(0 367.65625 195.91358700000012)"><path d="M32 0 C297.26 1.39, 562.78 1.07, 703.31 0 M32 0 C204.24 -1.33, 376.81 -0.92, 703.31 0 M703.31 0 C725.56 -0.49, 735.28 9.28, 735.31 32 M703.31 0 C724.86 -1.8, 733.14 10.98, 735.31 32 M735.31 32 C736.18 113.98, 737.88 193.37, 735.31 359.83 M735.31 32 C733.52 109.36, 733.75 187.71, 735.31 359.83 M735.31 359.83 C736.36 380.77, 723.86 391.84, 703.31 391.83 M735.31 359.83 C736.38 383.23, 724 392.37, 703.31 391.83 M703.31 391.83 C441.36 391.72, 180.84 391.87, 32 391.83 M703.31 391.83 C562.13 389.63, 421.55 390.02, 32 391.83 M32 391.83 C10.05 393.5, -0.25 382.4, 0 359.83 M32 391.83 C10.41 391.14, 2.07 380.64, 0 359.83 M0 359.83 C0.8 275.85, -0.17 193.92, 0 32 M0 359.83 C0.58 236.63, 0.03 113.86, 0 32 M0 32 C-0.73 12.44, 11.33 -1.97, 32 0 M0 32 C-0.36 11.32, 10.85 -2.02, 32 0" stroke="#1971c2" stroke-width="2" fill="none"></path></g><g stroke-linecap="round"><g transform="translate(1127.442169189453 573.3957855762724) rotate(0 -445.4166259765625 41.065848214285666)"><path d="M0.1 0.81 C-15.16 16.03, 45.07 79.04, -90.55 92.25 C-226.17 105.46, -680.07 97.1, -813.61 80.07 C-947.16 63.03, -878.84 5.16, -891.81 -9.97 M-1.31 0.19 C-16.8 15.47, 44.01 80.45, -91.4 93.42 C-226.81 106.39, -680.33 95.6, -813.77 78.02 C-947.22 60.44, -879.44 2.63, -892.08 -12.07" stroke="#e03131" stroke-width="2" fill="none"></path></g><g transform="translate(1127.442169189453 573.3957855762724) rotate(0 -445.4166259765625 41.065848214285666)"><path d="M-885.28 17.15 C-886.75 6.27, -891.9 -3.27, -892.08 -12.07 M-885.28 17.15 C-887.91 7.22, -889.89 -3.62, -892.08 -12.07" stroke="#e03131" stroke-width="2" fill="none"></path></g><g transform="translate(1127.442169189453 573.3957855762724) rotate(0 -445.4166259765625 41.065848214285666)"><path d="M-905.65 14.69 C-899.32 4.73, -896.67 -3.87, -892.08 -12.07 M-905.65 14.69 C-901.25 5.46, -896.17 -4.53, -892.08 -12.07" stroke="#e03131" stroke-width="2" fill="none"></path></g></g><mask></mask><g transform="translate(381.35590907505554 57.48068547861623) rotate(0 329.7978515625 17.5)"><text x="0" y="0" font-family="Virgil, Segoe UI Emoji" font-size="28px" fill="#e03131" text-anchor="start" style="white-space: pre;" direction="ltr" dominant-baseline="text-before-edge">continue iterations, till no new data been found</text></g><g transform="translate(1261.3390677315845 856.3316917418128) rotate(0 53.73197937011719 17.5)"><text x="0" y="0" font-family="Virgil, Segoe UI Emoji" font-size="28px" fill="#2f9e44" text-anchor="start" style="white-space: pre;" direction="ltr" dominant-baseline="text-before-edge">extract</text></g><g transform="translate(197.10188947405123 672.6145433987219) rotate(0 557.1157836914062 35)"><text x="0" y="0" font-family="Virgil, Segoe UI Emoji" font-size="28px" fill="#0c8599" text-anchor="start" style="white-space: pre;" direction="ltr" dominant-baseline="text-before-edge">build query conditions like:</text><text x="0" y="35" font-family="Virgil, Segoe UI Emoji" font-size="28px" fill="#0c8599" text-anchor="start" style="white-space: pre;" direction="ltr" dominant-baseline="text-before-edge">(tcp_seq = x or y) or (syscall_trace_id = x or y ) or (x_request_id = x or y)</text></g><g stroke-linecap="round"><g transform="translate(157.39580426897317 560.2597359562649) rotate(0 -0.4836382184709578 216.53645106724332)"><path d="M-0.6 -0.91 C-1.01 71.17, -1.81 360.12, -1.8 432.59 M1.28 1.22 C1.2 73.47, 0.87 362.08, 0.48 433.87" stroke="#e03131" stroke-width="2" fill="none"></path></g><g transform="translate(157.39580426897317 560.2597359562649) rotate(0 -0.4836382184709578 216.53645106724332)"><path d="M-9.7 405.65 C-7.62 414.26, -3.32 426.3, 0.48 433.87 M-9.7 405.65 C-6.24 416.86, -3.28 425.65, 0.48 433.87" stroke="#e03131" stroke-width="2" fill="none"></path></g><g transform="translate(157.39580426897317 560.2597359562649) rotate(0 -0.4836382184709578 216.53645106724332)"><path d="M10.82 405.71 C5.67 414.2, 2.75 426.21, 0.48 433.87 M10.82 405.71 C6.7 416.92, 2.07 425.69, 0.48 433.87" stroke="#e03131" stroke-width="2" fill="none"></path></g></g><mask></mask><g stroke-linecap="round" transform="translate(10 1083.8089302922024) rotate(0 164.04388427734372 48.446786063058084)"><path d="M3.35 9.53 C3.35 9.53, 3.35 9.53, 3.35 9.53 M3.35 9.53 C3.35 9.53, 3.35 9.53, 3.35 9.53 M0.85 24.59 C4.53 17.09, 11.29 12.65, 21.19 1.2 M0.85 24.59 C7.2 15.85, 15.21 8.94, 21.19 1.2 M0.33 37.39 C10.95 28.83, 16.99 17.98, 32.48 0.41 M0.33 37.39 C7.28 28.07, 16.02 19.92, 32.48 0.41 M0.46 49.43 C16.87 30.86, 35.73 9.01, 43.11 0.37 M0.46 49.43 C12.06 37.9, 21.36 25.5, 43.11 0.37 M0.6 61.47 C16.87 43.55, 34.03 24.65, 53.74 0.34 M0.6 61.47 C13.7 47.64, 26.09 33.32, 53.74 0.34 M0.73 73.51 C20.82 51.46, 39.69 25.17, 64.37 0.3 M0.73 73.51 C16.41 54.02, 31.6 35.2, 64.37 0.3 M2.18 84.04 C28.44 52.87, 54.91 21.73, 75 0.27 M2.18 84.04 C19.61 62.99, 38.35 41.29, 75 0.27 M6.9 90.8 C25.27 71.18, 42.69 52.6, 85.63 0.23 M6.9 90.8 C29.49 62.68, 52.81 36.18, 85.63 0.23 M13.6 95.29 C40.56 64.94, 69.95 29.94, 96.26 0.2 M13.6 95.29 C32.58 73.74, 53.27 52.62, 96.26 0.2 M22.26 97.52 C53.58 64.34, 85.98 25.82, 106.89 0.17 M22.26 97.52 C55.78 60.98, 87.69 24.6, 106.89 0.17 M32.89 97.49 C61 69.47, 88.39 38.01, 117.52 0.13 M32.89 97.49 C54.62 72.38, 76.69 48.12, 117.52 0.13 M43.52 97.45 C67.63 69.06, 90.76 43, 128.15 0.1 M43.52 97.45 C67.74 71.32, 90.04 45.4, 128.15 0.1 M54.15 97.42 C70.87 78.26, 89.83 57.88, 138.78 0.06 M54.15 97.42 C74.44 74.29, 93.75 52.71, 138.78 0.06 M64.78 97.39 C83.15 76.09, 99.76 54.16, 149.41 0.03 M64.78 97.39 C86.72 72.37, 108.29 47.57, 149.41 0.03 M75.41 97.35 C91.23 76.95, 111.3 58.46, 160.04 -0.01 M75.41 97.35 C95.92 76.71, 113.91 54.44, 160.04 -0.01 M86.04 97.32 C112.91 68.77, 136.55 40.37, 170.67 -0.04 M86.04 97.32 C118.83 62.04, 150.54 25.39, 170.67 -0.04 M96.67 97.28 C119.2 72.15, 145.9 44.45, 180.64 0.68 M96.67 97.28 C124 66.75, 150.8 35.67, 180.64 0.68 M107.3 97.25 C134.63 66.92, 162.07 34.16, 191.27 0.64 M107.3 97.25 C140.3 58.67, 174.84 21.7, 191.27 0.64 M117.93 97.21 C144.65 67.53, 169.4 37.1, 201.9 0.61 M117.93 97.21 C148.67 63.56, 178.12 29.02, 201.9 0.61 M128.56 97.18 C160.87 60.71, 191.7 23.72, 212.53 0.58 M128.56 97.18 C148.59 72.62, 169.94 49.38, 212.53 0.58 M139.19 97.14 C167.57 67.71, 193.89 34.07, 223.16 0.54 M139.19 97.14 C172.03 59.14, 205.86 20.89, 223.16 0.54 M149.16 97.86 C170.34 74.24, 191.33 46.2, 233.79 0.51 M149.16 97.86 C181.5 61.95, 211.87 23.99, 233.79 0.51 M159.79 97.83 C181.79 72.59, 203.01 48.03, 244.42 0.47 M159.79 97.83 C180.47 72.76, 201.16 49.27, 244.42 0.47 M170.42 97.8 C186.38 75.3, 206.72 57.77, 255.05 0.44 M170.42 97.8 C202.79 60.49, 234.54 23.19, 255.05 0.44 M181.05 97.76 C203.28 74.57, 220.66 51.74, 265.68 0.4 M181.05 97.76 C213.98 59.66, 244.54 24.35, 265.68 0.4 M191.68 97.73 C210.11 78.99, 226.87 59.69, 276.31 0.37 M191.68 97.73 C222.49 60.39, 254.45 24.46, 276.31 0.37 M202.31 97.69 C224.82 71.6, 249.53 46.89, 286.94 0.33 M202.31 97.69 C233.2 63.54, 263.6 27.21, 286.94 0.33 M212.94 97.66 C234.66 75.69, 254.54 50.28, 297.57 0.3 M212.94 97.66 C235.76 72.59, 257.67 46.24, 297.57 0.3 M223.57 97.62 C251.06 65.84, 281.55 30.25, 307.55 1.02 M223.57 97.62 C242.59 76.87, 260.98 54.9, 307.55 1.02 M234.2 97.59 C260.25 70.24, 280.66 42.23, 316.87 2.49 M234.2 97.59 C250.47 78.23, 267.57 57.03, 316.87 2.49 M244.83 97.55 C269.75 66.56, 295.82 39.27, 322.9 7.74 M244.83 97.55 C272.05 66.74, 300.31 33.55, 322.9 7.74 M255.46 97.52 C279.12 70.42, 300.32 46.76, 326.97 15.26 M255.46 97.52 C269.74 81.4, 284.42 65.42, 326.97 15.26 M266.09 97.48 C283.84 75.35, 301.88 54.07, 327.76 26.54 M266.09 97.48 C286.11 74.37, 306.65 50.15, 327.76 26.54 M276.72 97.45 C287.84 83.87, 303.56 68.48, 327.9 38.58 M276.72 97.45 C293.12 78.69, 306.96 61.66, 327.9 38.58 M287.35 97.42 C304.27 77.32, 321.31 61.43, 328.03 50.62 M287.35 97.42 C300.06 82.52, 313.32 68.35, 328.03 50.62 M297.98 97.38 C304.62 91.58, 310.61 82.06, 328.16 62.66 M297.98 97.38 C307.82 84.61, 318.77 72.42, 328.16 62.66 M309.27 96.59 C316.18 89.97, 323.35 82.34, 328.3 74.71 M309.27 96.59 C314.94 90.94, 320.34 83.92, 328.3 74.71" stroke="#ffc9c9" stroke-width="1" fill="none"></path><path d="M24.22 0 C104.45 -0.84, 180.79 -1.89, 303.86 0 M24.22 0 C100.29 1.29, 176.27 0.94, 303.86 0 M303.86 0 C318.27 0.88, 328.2 9.63, 328.09 24.22 M303.86 0 C318.38 1.65, 328.95 10.17, 328.09 24.22 M328.09 24.22 C326.09 38.84, 329.52 53.6, 328.09 72.67 M328.09 24.22 C328.48 37.31, 328.52 50.45, 328.09 72.67 M328.09 72.67 C326.69 88.46, 318.47 95.69, 303.86 96.89 M328.09 72.67 C327.34 89.85, 320.58 96.33, 303.86 96.89 M303.86 96.89 C214.26 98.81, 123.57 98.7, 24.22 96.89 M303.86 96.89 C228.79 97.85, 155.15 98.15, 24.22 96.89 M24.22 96.89 C9.27 98.78, -0.68 89.91, 0 72.67 M24.22 96.89 C6.58 99.19, 1.82 87.05, 0 72.67 M0 72.67 C-1.96 56, -2.28 43.81, 0 24.22 M0 72.67 C-0.66 55.5, 1.13 39.02, 0 24.22 M0 24.22 C1.82 8.22, 7.75 -0.6, 24.22 0 M0 24.22 C1.27 8.97, 8.43 0.59, 24.22 0" stroke="#e03131" stroke-width="2" fill="none"></path></g><g transform="translate(124.13390350341791 1114.7557163552606) rotate(0 49.90998077392578 17.5)"><text x="49.90998077392578" y="0" font-family="Virgil, Segoe UI Emoji" font-size="28px" fill="#1971c2" text-anchor="middle" style="white-space: pre;" direction="ltr" dominant-baseline="text-before-edge">data_1</text></g><g stroke-linecap="round" transform="translate(719.7581699916293 900.1127720193231) rotate(0 164.0438842773437 48.446786063058084)"><path d="M3.35 9.53 C3.35 9.53, 3.35 9.53, 3.35 9.53 M3.35 9.53 C3.35 9.53, 3.35 9.53, 3.35 9.53 M0.85 24.59 C5.27 20.73, 9.95 12.59, 21.19 1.2 M0.85 24.59 C6.28 19.46, 9.75 13.22, 21.19 1.2 M0.33 37.39 C12.89 25.28, 23.18 10.86, 32.48 0.41 M0.33 37.39 C9.44 26.94, 17.89 16.07, 32.48 0.41 M0.46 49.43 C8.54 39.71, 17.61 28.48, 43.11 0.37 M0.46 49.43 C11.67 37.31, 20.95 24.13, 43.11 0.37 M0.6 61.47 C13.24 46.56, 27.39 31.25, 53.74 0.34 M0.6 61.47 C13.66 45.13, 28.17 29.04, 53.74 0.34 M0.73 73.51 C20.53 50.86, 35.17 31.91, 64.37 0.3 M0.73 73.51 C18.04 55.53, 32.75 35.73, 64.37 0.3 M2.18 84.04 C15.91 66.42, 31.02 49.64, 75 0.27 M2.18 84.04 C24.96 57.44, 48.69 29.68, 75 0.27 M6.9 90.8 C27.69 68.1, 47.76 41.93, 85.63 0.23 M6.9 90.8 C28.13 68.01, 47.65 43.27, 85.63 0.23 M13.6 95.29 C32.66 72.08, 52.74 51.75, 96.26 0.2 M13.6 95.29 C40.57 63.78, 68.12 32.81, 96.26 0.2 M22.26 97.52 C43.7 76.79, 62.33 52.42, 106.89 0.17 M22.26 97.52 C54.11 59.97, 87.2 21.86, 106.89 0.17 M32.89 97.49 C58.78 67.15, 84.15 39.49, 117.52 0.13 M32.89 97.49 C53.48 73.02, 74.3 49.88, 117.52 0.13 M43.52 97.45 C61.59 77.8, 82.53 55.29, 128.15 0.1 M43.52 97.45 C61.51 75.17, 80.05 54.34, 128.15 0.1 M54.15 97.42 C83.8 63.86, 109.68 33.13, 138.78 0.06 M54.15 97.42 C74.38 72.28, 96.92 49.68, 138.78 0.06 M64.78 97.39 C88.12 66.6, 114.22 36.12, 149.41 0.03 M64.78 97.39 C86.67 72.08, 109 46.9, 149.41 0.03 M75.41 97.35 C104.85 63.7, 133.3 29.2, 160.04 -0.01 M75.41 97.35 C106.71 64.13, 137.04 29.4, 160.04 -0.01 M86.04 97.32 C108.06 70.54, 130.63 42.56, 170.67 -0.04 M86.04 97.32 C107.25 71.5, 131.52 44.62, 170.67 -0.04 M96.67 97.28 C126.59 62.06, 157.91 23.01, 180.64 0.68 M96.67 97.28 C113.54 77.86, 131.05 58.68, 180.64 0.68 M107.3 97.25 C138.11 62.64, 170.82 24.42, 191.27 0.64 M107.3 97.25 C134.44 67.89, 160.34 36.3, 191.27 0.64 M117.93 97.21 C143.45 65.99, 168.58 38.41, 201.9 0.61 M117.93 97.21 C142.72 67.6, 166.91 37.87, 201.9 0.61 M128.56 97.18 C162.59 57.03, 196.21 19.71, 212.53 0.58 M128.56 97.18 C155.81 65.64, 180.79 36.44, 212.53 0.58 M139.19 97.14 C156.51 76.44, 177.16 50.71, 223.16 0.54 M139.19 97.14 C166.46 63.55, 195.34 31.4, 223.16 0.54 M149.16 97.86 C179.62 60.69, 210.77 27.5, 233.79 0.51 M149.16 97.86 C176.82 67.29, 204.7 35.41, 233.79 0.51 M159.79 97.83 C188.35 64.4, 213.98 35.15, 244.42 0.47 M159.79 97.83 C186.33 67.59, 212.34 35.74, 244.42 0.47 M170.42 97.8 C189.57 77.01, 208.03 56.88, 255.05 0.44 M170.42 97.8 C190.08 74.8, 210.24 51.96, 255.05 0.44 M181.05 97.76 C209.8 62.99, 239.45 28.47, 265.68 0.4 M181.05 97.76 C216.35 58.55, 248.93 19.54, 265.68 0.4 M191.68 97.73 C221.63 61.11, 257.28 23.99, 276.31 0.37 M191.68 97.73 C214.8 72.86, 236.73 46.64, 276.31 0.37 M202.31 97.69 C235.01 62.41, 263.18 26.96, 286.94 0.33 M202.31 97.69 C221.38 74.57, 241.64 52.49, 286.94 0.33 M212.94 97.66 C244.26 61.24, 278.96 25.22, 297.57 0.3 M212.94 97.66 C237.31 70.03, 261.1 42.06, 297.57 0.3 M223.57 97.62 C243.86 73.65, 263.37 51.49, 307.55 1.02 M223.57 97.62 C244.42 71.83, 266.77 46.74, 307.55 1.02 M234.2 97.59 C266.38 60.85, 296.25 21.82, 316.87 2.49 M234.2 97.59 C256.47 71.79, 281.24 43.67, 316.87 2.49 M244.83 97.55 C264.9 72.17, 288.08 48.24, 322.9 7.74 M244.83 97.55 C262.71 79.52, 279.22 60.33, 322.9 7.74 M255.46 97.52 C279.05 68.76, 304.13 42.39, 326.97 15.26 M255.46 97.52 C277.77 73.9, 298.54 48.14, 326.97 15.26 M266.09 97.48 C277.87 80.81, 291.26 67.55, 327.76 26.54 M266.09 97.48 C279.93 82.14, 292.3 67.68, 327.76 26.54 M276.72 97.45 C295.5 75.47, 313.58 56.1, 327.9 38.58 M276.72 97.45 C291.86 80.01, 306.02 61.98, 327.9 38.58 M287.35 97.42 C299.26 85.55, 307.76 72.93, 328.03 50.62 M287.35 97.42 C297.93 86.46, 306.2 74.17, 328.03 50.62 M297.98 97.38 C310.33 83.42, 320.94 70.73, 328.16 62.66 M297.98 97.38 C305.66 87.72, 314.59 77.16, 328.16 62.66 M309.27 96.59 C311.49 92.39, 317.7 88.42, 328.3 74.71 M309.27 96.59 C315.66 90.23, 320.16 84.39, 328.3 74.71" stroke="#ffc9c9" stroke-width="1" fill="none"></path><path d="M24.22 0 C132.56 -0.26, 242.92 -2.73, 303.86 0 M24.22 0 C106.44 -2.69, 187.98 -2.24, 303.86 0 M303.86 0 C321.01 1.49, 326.39 6.82, 328.09 24.22 M303.86 0 C317.72 1.69, 330.36 9.05, 328.09 24.22 M328.09 24.22 C326.94 38.7, 328.05 54.95, 328.09 72.67 M328.09 24.22 C328.38 42.79, 328.82 61.09, 328.09 72.67 M328.09 72.67 C329.63 90.58, 320.5 98.33, 303.86 96.89 M328.09 72.67 C328.2 88.78, 322.01 94.81, 303.86 96.89 M303.86 96.89 C232.59 98.46, 157.71 97.19, 24.22 96.89 M303.86 96.89 C243.68 95.36, 184.07 95.18, 24.22 96.89 M24.22 96.89 C7.41 95.91, 0 88.61, 0 72.67 M24.22 96.89 C6.16 96.62, -0.82 86.97, 0 72.67 M0 72.67 C0.69 61.63, 0.86 52.28, 0 24.22 M0 72.67 C-0.79 57.78, -1.22 43.97, 0 24.22 M0 24.22 C0.72 8.85, 6.92 -0.43, 24.22 0 M0 24.22 C1.28 9.44, 5.83 -1.57, 24.22 0" stroke="#e03131" stroke-width="2" fill="none"></path></g><g transform="translate(827.7180775233674 931.0595580823812) rotate(0 56.08397674560547 17.5)"><text x="56.08397674560547" y="0" font-family="Virgil, Segoe UI Emoji" font-size="28px" fill="#1971c2" text-anchor="middle" style="white-space: pre;" direction="ltr" dominant-baseline="text-before-edge">data_2</text></g><g stroke-linecap="round" transform="translate(719.7581699916293 1079.3985299015774) rotate(0 164.0438842773437 48.446786063058084)"><path d="M3.35 9.53 C3.35 9.53, 3.35 9.53, 3.35 9.53 M3.35 9.53 C3.35 9.53, 3.35 9.53, 3.35 9.53 M0.85 24.59 C7.96 16.58, 15.97 8.79, 21.19 1.2 M0.85 24.59 C6.32 19.93, 10.52 13.62, 21.19 1.2 M0.33 37.39 C12.08 23.13, 25.8 7.26, 32.48 0.41 M0.33 37.39 C10.32 25.7, 19.99 15.34, 32.48 0.41 M0.46 49.43 C10.51 36.48, 20.66 26.45, 43.11 0.37 M0.46 49.43 C9.58 39.52, 20.12 28.18, 43.11 0.37 M0.6 61.47 C12.77 46.24, 24.77 33.46, 53.74 0.34 M0.6 61.47 C19.06 40.6, 35.57 21.13, 53.74 0.34 M0.73 73.51 C14.71 53.71, 33.86 38.33, 64.37 0.3 M0.73 73.51 C18.62 50.51, 38.12 27.85, 64.37 0.3 M2.18 84.04 C20.29 62.35, 39.64 41.11, 75 0.27 M2.18 84.04 C27.64 54.96, 52.65 25.3, 75 0.27 M6.9 90.8 C36.56 60.53, 65.12 28, 85.63 0.23 M6.9 90.8 C27.7 66.09, 48.91 40.69, 85.63 0.23 M13.6 95.29 C33.4 70.2, 58.79 43.07, 96.26 0.2 M13.6 95.29 C43.76 60.31, 74.85 23.04, 96.26 0.2 M22.26 97.52 C39.49 77.99, 57.68 59, 106.89 0.17 M22.26 97.52 C54.14 61.67, 86.59 24.05, 106.89 0.17 M32.89 97.49 C61.11 68.73, 86.94 35.43, 117.52 0.13 M32.89 97.49 C58.84 66.41, 84.51 37.54, 117.52 0.13 M43.52 97.45 C69.01 67.63, 92.46 36.86, 128.15 0.1 M43.52 97.45 C77.45 57.42, 111.29 19.16, 128.15 0.1 M54.15 97.42 C82.2 64.8, 106.08 36.39, 138.78 0.06 M54.15 97.42 C72.53 75.58, 92.55 51.56, 138.78 0.06 M64.78 97.39 C91.36 63.31, 120.44 31.98, 149.41 0.03 M64.78 97.39 C95.28 60.9, 126.11 26.75, 149.41 0.03 M75.41 97.35 C103.11 67.14, 131.45 34.92, 160.04 -0.01 M75.41 97.35 C103.2 64.82, 129.47 34.71, 160.04 -0.01 M86.04 97.32 C112.66 67.46, 137.59 34.93, 170.67 -0.04 M86.04 97.32 C105.1 76.26, 123.68 55.44, 170.67 -0.04 M96.67 97.28 C116.11 73.6, 136.47 50.86, 180.64 0.68 M96.67 97.28 C125.95 63.05, 155.21 29.19, 180.64 0.68 M107.3 97.25 C143.33 58.16, 174.65 19.08, 191.27 0.64 M107.3 97.25 C137.77 61, 171.44 24.21, 191.27 0.64 M117.93 97.21 C141.71 73.02, 162.74 46.84, 201.9 0.61 M117.93 97.21 C149.6 61.86, 179.1 26.4, 201.9 0.61 M128.56 97.18 C147.22 74.15, 168.17 52.51, 212.53 0.58 M128.56 97.18 C160.38 60.92, 193.46 24.81, 212.53 0.58 M139.19 97.14 C163.6 70.49, 186.77 42.63, 223.16 0.54 M139.19 97.14 C158.91 73.72, 178.48 51.35, 223.16 0.54 M149.16 97.86 C169.78 71.21, 192.85 45.92, 233.79 0.51 M149.16 97.86 C181.78 60.07, 213.61 21.12, 233.79 0.51 M159.79 97.83 C182.08 72.11, 208.52 42.46, 244.42 0.47 M159.79 97.83 C182.03 71.09, 206.06 44.81, 244.42 0.47 M170.42 97.8 C190.06 78.82, 207.73 58.09, 255.05 0.44 M170.42 97.8 C198.32 64.17, 227.25 32.14, 255.05 0.44 M181.05 97.76 C208.13 70.17, 232.1 38.87, 265.68 0.4 M181.05 97.76 C197.73 76.2, 215.78 56.51, 265.68 0.4 M191.68 97.73 C211.2 76.15, 227.89 56.48, 276.31 0.37 M191.68 97.73 C222.14 61.97, 252.94 27.26, 276.31 0.37 M202.31 97.69 C227.49 68.98, 250.53 39.02, 286.94 0.33 M202.31 97.69 C224.98 72.14, 246.04 46.49, 286.94 0.33 M212.94 97.66 C234.88 74.85, 252.21 49.36, 297.57 0.3 M212.94 97.66 C246.03 59.67, 278.09 22.55, 297.57 0.3 M223.57 97.62 C245.46 70.43, 270.04 41.58, 307.55 1.02 M223.57 97.62 C240.96 75.59, 260.87 54.28, 307.55 1.02 M234.2 97.59 C260.02 70.01, 281.98 43.42, 316.87 2.49 M234.2 97.59 C260.14 68.65, 286.65 37.64, 316.87 2.49 M244.83 97.55 C276.47 62.76, 306.63 25.48, 322.9 7.74 M244.83 97.55 C274.62 61.25, 305.95 25.55, 322.9 7.74 M255.46 97.52 C272.97 79.24, 290.51 60.95, 326.97 15.26 M255.46 97.52 C272.14 76.52, 289.7 57.13, 326.97 15.26 M266.09 97.48 C278.05 83.61, 291.06 65.96, 327.76 26.54 M266.09 97.48 C282.4 80.11, 298.1 62.44, 327.76 26.54 M276.72 97.45 C293.51 77.52, 310 59.48, 327.9 38.58 M276.72 97.45 C289.58 82.56, 303.95 67.02, 327.9 38.58 M287.35 97.42 C298.98 86.1, 309.33 74.67, 328.03 50.62 M287.35 97.42 C302.27 80.94, 316.52 63.31, 328.03 50.62 M297.98 97.38 C309.47 86.38, 318.89 73.94, 328.16 62.66 M297.98 97.38 C305.45 88.51, 311.85 79.96, 328.16 62.66 M309.27 96.59 C313.49 91.99, 319.47 85.94, 328.3 74.71 M309.27 96.59 C315.11 90.1, 320.77 84.41, 328.3 74.71" stroke="#ffc9c9" stroke-width="1" fill="none"></path><path d="M24.22 0 C105.31 -2.69, 184.93 -0.78, 303.86 0 M24.22 0 C134.59 -1.3, 246.14 -1.13, 303.86 0 M303.86 0 C320.35 0.88, 329.43 7.61, 328.09 24.22 M303.86 0 C320.36 -0.47, 329.05 6.2, 328.09 24.22 M328.09 24.22 C326.11 38.59, 328.27 55.75, 328.09 72.67 M328.09 24.22 C328.87 34.87, 328.24 46.82, 328.09 72.67 M328.09 72.67 C329.29 89.05, 318.68 95.01, 303.86 96.89 M328.09 72.67 C327.27 87.94, 318.39 95, 303.86 96.89 M303.86 96.89 C207.07 99.07, 111.39 97.38, 24.22 96.89 M303.86 96.89 C223.08 97.37, 141.98 97.6, 24.22 96.89 M24.22 96.89 C6.2 95, 0.35 87.89, 0 72.67 M24.22 96.89 C6.5 95.95, 1.54 89.58, 0 72.67 M0 72.67 C1.86 62.46, -0.01 50.61, 0 24.22 M0 72.67 C0.98 58.55, 0.34 44.41, 0 24.22 M0 24.22 C1.52 6.6, 7.33 0.54, 24.22 0 M0 24.22 C2.3 8.45, 10.26 -0.35, 24.22 0" stroke="#e03131" stroke-width="2" fill="none"></path></g><g transform="translate(828.1520756312775 1110.3453159646356) rotate(0 55.64997863769531 17.5)"><text x="55.64997863769531" y="0" font-family="Virgil, Segoe UI Emoji" font-size="28px" fill="#1971c2" text-anchor="middle" style="white-space: pre;" direction="ltr" dominant-baseline="text-before-edge">data_3</text></g><g stroke-linecap="round" transform="translate(719.7581699916293 1264.6366542040323) rotate(0 164.04388427734375 48.446786063058084)"><path d="M3.35 9.53 C3.35 9.53, 3.35 9.53, 3.35 9.53 M3.35 9.53 C3.35 9.53, 3.35 9.53, 3.35 9.53 M0.85 24.59 C4.41 20.43, 12.14 13.01, 21.19 1.2 M0.85 24.59 C8.34 15.12, 15.81 5.97, 21.19 1.2 M0.33 37.39 C9.15 26.65, 18.51 18.87, 32.48 0.41 M0.33 37.39 C10.72 25, 20.7 14.92, 32.48 0.41 M0.46 49.43 C11.41 40.12, 20.34 27.15, 43.11 0.37 M0.46 49.43 C14.46 32.75, 27.83 16.81, 43.11 0.37 M0.6 61.47 C19.65 41.88, 36.69 20.38, 53.74 0.34 M0.6 61.47 C19.82 39.75, 36.96 18.66, 53.74 0.34 M0.73 73.51 C21.97 50.63, 43.75 26.33, 64.37 0.3 M0.73 73.51 C15.6 57.64, 28.7 41.98, 64.37 0.3 M2.18 84.04 C24.92 60.26, 43.13 34.88, 75 0.27 M2.18 84.04 C21.62 59.95, 43.26 36.82, 75 0.27 M6.9 90.8 C36.69 54.43, 65.58 22.15, 85.63 0.23 M6.9 90.8 C31.28 61.49, 57.49 31.81, 85.63 0.23 M13.6 95.29 C32.86 68.68, 56.39 43.94, 96.26 0.2 M13.6 95.29 C38.17 67.9, 60.65 40.45, 96.26 0.2 M22.26 97.52 C53.27 60.07, 87.06 26.78, 106.89 0.17 M22.26 97.52 C45.86 68.96, 71.93 40.05, 106.89 0.17 M32.89 97.49 C57.94 71.27, 80.89 43.43, 117.52 0.13 M32.89 97.49 C55.5 69.01, 80.65 41.14, 117.52 0.13 M43.52 97.45 C75.75 59.91, 105.22 24.84, 128.15 0.1 M43.52 97.45 C67.01 70.88, 90.71 43.79, 128.15 0.1 M54.15 97.42 C79.07 68.25, 104.84 38.77, 138.78 0.06 M54.15 97.42 C70.45 77.76, 87.19 59.63, 138.78 0.06 M64.78 97.39 C83 74.63, 101.29 54.33, 149.41 0.03 M64.78 97.39 C96.96 62.67, 128.5 25.05, 149.41 0.03 M75.41 97.35 C105.73 64.03, 133.94 32.36, 160.04 -0.01 M75.41 97.35 C102.75 64.9, 129.98 33.97, 160.04 -0.01 M86.04 97.32 C111.2 68.62, 137.87 38.94, 170.67 -0.04 M86.04 97.32 C103.97 78.21, 122.03 57.1, 170.67 -0.04 M96.67 97.28 C123.44 66.93, 149.1 36.26, 180.64 0.68 M96.67 97.28 C125.13 63.55, 154.7 28.88, 180.64 0.68 M107.3 97.25 C136.02 63.26, 166.11 30.12, 191.27 0.64 M107.3 97.25 C138.93 59.95, 169.4 24.54, 191.27 0.64 M117.93 97.21 C153.19 60.85, 184.41 21.19, 201.9 0.61 M117.93 97.21 C146.83 64.72, 176.12 29.98, 201.9 0.61 M128.56 97.18 C147.83 77.15, 165.26 57.92, 212.53 0.58 M128.56 97.18 C156.78 64.02, 186.69 29.76, 212.53 0.58 M139.19 97.14 C166.7 67.06, 190.38 35.58, 223.16 0.54 M139.19 97.14 C171.08 59.41, 204.86 20.72, 223.16 0.54 M149.16 97.86 C170.76 71.57, 194.23 45.77, 233.79 0.51 M149.16 97.86 C183.14 58.61, 218.13 19.82, 233.79 0.51 M159.79 97.83 C193.9 57.2, 226.84 18.92, 244.42 0.47 M159.79 97.83 C185.98 66.55, 212.14 36.01, 244.42 0.47 M170.42 97.8 C193.1 70.11, 213.13 47.42, 255.05 0.44 M170.42 97.8 C193.42 70.22, 217.33 43.1, 255.05 0.44 M181.05 97.76 C212.18 62.09, 241.74 25.66, 265.68 0.4 M181.05 97.76 C211.28 63.41, 242.33 28.16, 265.68 0.4 M191.68 97.73 C215.81 68.95, 240.9 42.01, 276.31 0.37 M191.68 97.73 C220.56 66.36, 247.23 35.69, 276.31 0.37 M202.31 97.69 C231.6 64.63, 258.46 33.97, 286.94 0.33 M202.31 97.69 C229.72 65.45, 257.85 32.43, 286.94 0.33 M212.94 97.66 C241.34 67.64, 269.52 34, 297.57 0.3 M212.94 97.66 C242.18 62.82, 273.18 26.73, 297.57 0.3 M223.57 97.62 C257.13 60.2, 286.63 23.93, 307.55 1.02 M223.57 97.62 C245.77 72.66, 267.87 46.6, 307.55 1.02 M234.2 97.59 C262.03 64.16, 292.19 31.15, 316.87 2.49 M234.2 97.59 C268.08 60.4, 301.17 21.71, 316.87 2.49 M244.83 97.55 C261.67 79.86, 277.99 61.85, 322.9 7.74 M244.83 97.55 C269.49 69.48, 292.82 41.78, 322.9 7.74 M255.46 97.52 C272.44 79.21, 287.68 58.03, 326.97 15.26 M255.46 97.52 C278.93 69.19, 302.68 42.4, 326.97 15.26 M266.09 97.48 C282.81 79.7, 298.33 60.53, 327.76 26.54 M266.09 97.48 C282.66 78.27, 300.24 58.07, 327.76 26.54 M276.72 97.45 C288.22 84.11, 302.16 70.56, 327.9 38.58 M276.72 97.45 C289.4 82.16, 300.97 68.63, 327.9 38.58 M287.35 97.42 C295.93 88.53, 306.48 75.01, 328.03 50.62 M287.35 97.42 C300.69 82.18, 311.89 69.41, 328.03 50.62 M297.98 97.38 C307.35 87.19, 314.49 79.25, 328.16 62.66 M297.98 97.38 C307.27 86.49, 316.33 76.46, 328.16 62.66 M309.27 96.59 C315.71 87.81, 322.47 82.07, 328.3 74.71 M309.27 96.59 C315.98 87.79, 323.51 80.39, 328.3 74.71" stroke="#ffc9c9" stroke-width="1" fill="none"></path><path d="M24.22 0 C134.58 1.32, 243.35 1.4, 303.86 0 M24.22 0 C126.17 0.89, 230.06 1.88, 303.86 0 M303.86 0 C319.57 -0.39, 327.97 7.89, 328.09 24.22 M303.86 0 C320.46 2.15, 328.4 8.76, 328.09 24.22 M328.09 24.22 C327.71 40.59, 330.45 56.2, 328.09 72.67 M328.09 24.22 C327.54 42.54, 329.01 63.06, 328.09 72.67 M328.09 72.67 C329.91 89.18, 318.17 95.54, 303.86 96.89 M328.09 72.67 C327.45 87.99, 319.56 95.25, 303.86 96.89 M303.86 96.89 C213.51 98.32, 123.11 97.2, 24.22 96.89 M303.86 96.89 C192.34 94.85, 82.18 95.92, 24.22 96.89 M24.22 96.89 C8.23 96.39, 1.65 89.47, 0 72.67 M24.22 96.89 C8.91 96.4, 0.01 89.96, 0 72.67 M0 72.67 C0.19 63.59, -1.35 53.44, 0 24.22 M0 72.67 C0.07 58.22, -0.16 43.77, 0 24.22 M0 24.22 C1.34 6.55, 6.62 -1.14, 24.22 0 M0 24.22 C-1.81 9.97, 8.55 1.07, 24.22 0" stroke="#e03131" stroke-width="2" fill="none"></path></g><g transform="translate(828.7260731288363 1295.5834402670903) rotate(0 55.07598114013672 17.5)"><text x="55.07598114013672" y="0" font-family="Virgil, Segoe UI Emoji" font-size="28px" fill="#1971c2" text-anchor="middle" style="white-space: pre;" direction="ltr" dominant-baseline="text-before-edge">data_4</text></g><g stroke-linecap="round"><g transform="translate(295.4910278320312 1044.7835309478942) rotate(0 178.68307931082586 -38.820669991629416)"><path d="M-0.15 0.97 C59.55 -12.18, 298.67 -65.6, 358.28 -78.71 M-1.69 0.44 C57.93 -12.62, 298.06 -64.93, 357.82 -77.74" stroke="#e03131" stroke-width="2" fill="none"></path></g><g transform="translate(295.4910278320312 1044.7835309478942) rotate(0 178.68307931082586 -38.820669991629416)"><path d="M25.14 -15.16 C19.13 -8.78, 8.06 -5.18, -0.15 0.97 M25.14 -15.16 C17.06 -10.15, 10.6 -6.46, -0.15 0.97" stroke="#e03131" stroke-width="2" fill="none"></path></g><g transform="translate(295.4910278320312 1044.7835309478942) rotate(0 178.68307931082586 -38.820669991629416)"><path d="M29.59 4.87 C22.2 5.18, 9.78 2.72, -0.15 0.97 M29.59 4.87 C20.16 3.99, 12.38 1.76, -0.15 0.97" stroke="#e03131" stroke-width="2" fill="none"></path></g><g transform="translate(295.4910278320312 1044.7835309478942) rotate(0 178.68307931082586 -38.820669991629416)"><path d="M332.43 -61.75 C341.71 -65.03, 345.99 -71.15, 357.82 -77.74 M332.43 -61.75 C339.27 -66.56, 347.79 -72.36, 357.82 -77.74" stroke="#e03131" stroke-width="2" fill="none"></path></g><g transform="translate(295.4910278320312 1044.7835309478942) rotate(0 178.68307931082586 -38.820669991629416)"><path d="M328.09 -81.81 C338.72 -79.01, 344.31 -79.06, 357.82 -77.74 M328.09 -81.81 C336.25 -80.72, 346.06 -80.59, 357.82 -77.74" stroke="#e03131" stroke-width="2" fill="none"></path></g></g><mask></mask><g stroke-linecap="round"><g transform="translate(383.1026349748883 1132.1533080823808) rotate(0 129.87350463867188 -2.5111607142856656)"><path d="M0.56 -1.17 C43.9 -1.97, 217.28 -5.18, 260.42 -5.94 M-0.61 0.83 C42.61 0.25, 216.64 -3.95, 259.82 -4.89" stroke="#e03131" stroke-width="2" fill="none"></path></g><g transform="translate(383.1026349748883 1132.1533080823808) rotate(0 129.87350463867188 -2.5111607142856656)"><path d="M28.56 -11.95 C17.27 -7.15, 8.46 -5.27, 0.56 -1.17 M28.56 -11.95 C21.05 -8.61, 16.1 -6.7, 0.56 -1.17" stroke="#e03131" stroke-width="2" fill="none"></path></g><g transform="translate(383.1026349748883 1132.1533080823808) rotate(0 129.87350463867188 -2.5111607142856656)"><path d="M28.93 8.57 C17.72 6.61, 8.78 1.72, 0.56 -1.17 M28.93 8.57 C21.47 7.01, 16.43 4.01, 0.56 -1.17" stroke="#e03131" stroke-width="2" fill="none"></path></g><g transform="translate(383.1026349748883 1132.1533080823808) rotate(0 129.87350463867188 -2.5111607142856656)"><path d="M231.88 6.02 C239.24 3.41, 248.87 -1.86, 259.82 -4.89 M231.88 6.02 C237.88 3.63, 246.3 0.36, 259.82 -4.89" stroke="#e03131" stroke-width="2" fill="none"></path></g><g transform="translate(383.1026349748883 1132.1533080823808) rotate(0 129.87350463867188 -2.5111607142856656)"><path d="M231.4 -14.5 C238.73 -10.35, 248.51 -8.85, 259.82 -4.89 M231.4 -14.5 C237.38 -11.99, 245.92 -10.36, 259.82 -4.89" stroke="#e03131" stroke-width="2" fill="none"></path></g></g><mask></mask><g stroke-linecap="round"><g transform="translate(312.8645542689732 1221.439022368095) rotate(0 165.58779035295754 35.348536904618754)"><path d="M-0.85 0.11 C54.67 11.71, 276.86 58.5, 332.18 70.39 M0.91 -0.88 C56.44 10.83, 276.86 60.04, 331.76 71.76" stroke="#e03131" stroke-width="2" fill="none"></path></g><g transform="translate(312.8645542689732 1221.439022368095) rotate(0 165.58779035295754 35.348536904618754)"><path d="M28.85 -4.12 C22.48 -1.73, 15.21 -2.62, -0.85 0.11 M28.85 -4.12 C17.32 -2.48, 6.83 -0.74, -0.85 0.11" stroke="#e03131" stroke-width="2" fill="none"></path></g><g transform="translate(312.8645542689732 1221.439022368095) rotate(0 165.58779035295754 35.348536904618754)"><path d="M24.62 15.96 C19.06 13.94, 12.73 8.6, -0.85 0.11 M24.62 15.96 C14.57 10.38, 5.6 4.93, -0.85 0.11" stroke="#e03131" stroke-width="2" fill="none"></path></g><g transform="translate(312.8645542689732 1221.439022368095) rotate(0 165.58779035295754 35.348536904618754)"><path d="M302.02 75.76 C308.76 76.75, 314.64 74.03, 331.76 71.76 M302.02 75.76 C311.75 73.99, 322.54 72.79, 331.76 71.76" stroke="#e03131" stroke-width="2" fill="none"></path></g><g transform="translate(312.8645542689732 1221.439022368095) rotate(0 165.58779035295754 35.348536904618754)"><path d="M306.41 55.71 C312.3 61.11, 317.22 62.83, 331.76 71.76 M306.41 55.71 C314.61 61.16, 323.83 67.13, 331.76 71.76" stroke="#e03131" stroke-width="2" fill="none"></path></g></g><mask></mask><g transform="translate(382.61897495814725 1065.9516784437092) rotate(0 126.9939193725586 17.5)"><text x="0" y="0" font-family="Virgil, Segoe UI Emoji" font-size="28px" fill="#e03131" text-anchor="start" style="white-space: pre;" direction="ltr" dominant-baseline="text-before-edge">find relation_ships</text></g><g stroke-linecap="round" transform="translate(663.5713849748886 1237.3802716705504) rotate(0 227.13915143694197 83.79834856305808)"><path d="M32 0 C124.49 0.31, 214.99 -0.96, 422.28 0 M422.28 0 C442.93 -0.52, 454.46 10.19, 454.28 32 M454.28 32 C453.75 53.64, 454.9 76.22, 454.28 135.6 M454.28 135.6 C453.56 155.04, 443.49 166.54, 422.28 167.6 M422.28 167.6 C323.57 169.09, 225.69 169.55, 32 167.6 M32 167.6 C8.68 165.63, -1.95 157.75, 0 135.6 M0 135.6 C-0.64 103.27, 2.43 69.9, 0 32 M0 32 C0.16 9.42, 9.95 -1.3, 32 0" stroke="#e03131" stroke-width="2.5" fill="none" stroke-dasharray="1.5 8"></path></g><g stroke-linecap="round" transform="translate(670.4910278320312 864.296165225238) rotate(0 225.11160714285717 166.0714285714286)"><path d="M32 0 C159.98 2.7, 288.03 1.39, 418.22 0 M418.22 0 C438.98 0.29, 450.39 12.4, 450.22 32 M450.22 32 C451.85 139.83, 450.44 246.32, 450.22 300.14 M450.22 300.14 C451.85 321.36, 437.95 330.59, 418.22 332.14 M418.22 332.14 C297.18 334.5, 174.08 333.6, 32 332.14 M32 332.14 C11.67 333.14, -0.35 320.29, 0 300.14 M0 300.14 C0.46 245.27, -0.07 188.39, 0 32 M0 32 C1.66 11.22, 10.4 -0.22, 32 0" stroke="#1971c2" stroke-width="2.5" fill="none" stroke-dasharray="1.5 8"></path></g><g stroke-linecap="round"><g transform="translate(1190.7291521344864 1297.1644687966666) rotate(0 153.6829485212055 33.9248072296466)"><path d="M0 0 C51.23 11.31, 256.14 56.54, 307.37 67.85 M0 0 C51.23 11.31, 256.14 56.54, 307.37 67.85" stroke="#ff8787" stroke-width="2" fill="none"></path></g><g transform="translate(1190.7291521344864 1297.1644687966666) rotate(0 153.6829485212055 33.9248072296466)"><path d="M277.63 71.79 C289.23 70.25, 300.83 68.72, 307.37 67.85 M277.63 71.79 C287.39 70.5, 297.16 69.2, 307.37 67.85" stroke="#ff8787" stroke-width="2" fill="none"></path></g><g transform="translate(1190.7291521344864 1297.1644687966666) rotate(0 153.6829485212055 33.9248072296466)"><path d="M282.05 51.75 C291.93 58.03, 301.8 64.31, 307.37 67.85 M282.05 51.75 C290.36 57.04, 298.68 62.33, 307.37 67.85" stroke="#ff8787" stroke-width="2" fill="none"></path></g></g><mask></mask><g stroke-linecap="round" transform="translate(1519.0400477818084 1326.4054530321578) rotate(0 87.61160714285722 54.99441964285711)"><path d="M6.66 7.12 C6.66 7.12, 6.66 7.12, 6.66 7.12 M6.66 7.12 C6.66 7.12, 6.66 7.12, 6.66 7.12 M1.02 37.99 C9.11 26.05, 12.85 18.56, 33.83 0.26 M1.02 37.99 C12.07 27.88, 20.53 13.46, 33.83 0.26 M0.64 62.83 C16.63 45.65, 36.1 31.53, 54.43 0.94 M0.64 62.83 C17.64 46.57, 31.34 26.29, 54.43 0.94 M0.9 86.91 C25.16 58.13, 50.78 20.45, 75.69 0.87 M0.9 86.91 C19.09 63.24, 40.69 40.97, 75.69 0.87 M7.73 103.44 C35.1 77.56, 56.93 45.65, 96.95 0.8 M7.73 103.44 C43.7 61.61, 79.32 21.49, 96.95 0.8 M23.74 109.41 C58.86 67.26, 90.48 33.08, 118.21 0.73 M23.74 109.41 C44.33 87.49, 61.88 63.04, 118.21 0.73 M43.69 110.85 C82.74 72.23, 118.8 24.72, 139.47 0.67 M43.69 110.85 C66.67 82.84, 91.33 54.19, 139.47 0.67 M64.95 110.78 C100.79 66.44, 138.35 25.15, 158.76 2.86 M64.95 110.78 C93.39 74.17, 127.48 37.8, 158.76 2.86 M86.21 110.72 C114.26 77.37, 140.53 52.13, 172.15 11.85 M86.21 110.72 C120.81 74.71, 154.39 38.3, 172.15 11.85 M107.47 110.65 C130.2 85.94, 153.33 52.83, 175.7 32.16 M107.47 110.65 C124.47 90.97, 139.04 73.16, 175.7 32.16 M128.73 110.58 C141.88 94.66, 153.68 80.44, 175.97 56.24 M128.73 110.58 C138.32 99.37, 148.74 85.15, 175.97 56.24 M151.3 109 C158.32 100.62, 166.69 90.39, 176.23 80.32 M151.3 109 C158.18 102.48, 164.34 95.79, 176.23 80.32 M10.95 106.3 C10.95 106.3, 10.95 106.3, 10.95 106.3 M10.95 106.3 C10.95 106.3, 10.95 106.3, 10.95 106.3 M38.8 109.31 C31.01 104.39, 22.51 92.87, 1.07 76.51 M38.8 109.31 C25.12 98.07, 16.72 87.75, 1.07 76.51 M62.88 109.05 C36.45 91.02, 13.82 73.29, 1 55.25 M62.88 109.05 C44.74 92.99, 28.55 77.78, 1 55.25 M87.72 109.44 C63.3 90.18, 32.33 63.99, 0.93 33.99 M87.72 109.44 C53.33 82.87, 20.51 54.11, 0.93 33.99 M111.8 109.17 C78.26 80.53, 39.92 48.51, 3.12 14.7 M111.8 109.17 C74.71 76.25, 40.55 43.92, 3.12 14.7 M136.64 109.56 C113.31 86.27, 78.13 62.7, 13.62 2.62 M136.64 109.56 C109.83 86.31, 81.79 58.08, 13.62 2.62 M158.45 107.33 C125.29 76.75, 87.18 47.77, 33.93 -0.92 M158.45 107.33 C130.24 84.11, 102.37 61.29, 33.93 -0.92 M171.97 97.88 C137.95 69.75, 107.92 47.89, 58.76 -0.53 M171.97 97.88 C128.44 61.54, 88.85 26, 58.76 -0.53 M175.68 79.9 C157.14 57.91, 136.68 40.94, 82.85 -0.8 M175.68 79.9 C156.92 60.28, 139.58 45.6, 82.85 -0.8 M174.85 57.98 C152.78 43.26, 130.88 22.83, 107.68 -0.41 M174.85 57.98 C158.27 42.94, 142.31 27.9, 107.68 -0.41 M174.78 36.72 C157.16 25.03, 147.8 10.29, 131.76 -0.68 M174.78 36.72 C166.18 28.3, 154.08 20.51, 131.76 -0.68 M172.45 13.49 C168.35 7.45, 163.67 6.67, 160.37 2.99 M172.45 13.49 C170.76 12.29, 167.85 7.85, 160.37 2.99" stroke="#ffec99" stroke-width="2" fill="none"></path><path d="M27.5 0 C67.4 3.46, 117.22 2.63, 147.73 0 M27.5 0 C65.86 -2.82, 101.58 -2.71, 147.73 0 M147.73 0 C169.45 3.61, 177.37 6.78, 175.22 27.5 M147.73 0 C163.39 -4.07, 176.28 6.67, 175.22 27.5 M175.22 27.5 C177.92 45.83, 176.6 64.42, 175.22 82.49 M175.22 27.5 C174.77 40, 176.22 56.13, 175.22 82.49 M175.22 82.49 C175.08 97.39, 169.52 113.05, 147.73 109.99 M175.22 82.49 C175.53 98.62, 170.18 111.43, 147.73 109.99 M147.73 109.99 C105.79 106.18, 66 112.75, 27.5 109.99 M147.73 109.99 C119.48 112.14, 95.07 110.64, 27.5 109.99 M27.5 109.99 C8.34 113.26, -3.74 98.89, 0 82.49 M27.5 109.99 C6.4 114.48, -1.17 96.47, 0 82.49 M0 82.49 C3.89 63.34, 4.5 41.15, 0 27.5 M0 82.49 C0.73 65.37, 1.86 46.6, 0 27.5 M0 27.5 C1.07 7.23, 13.12 -0.89, 27.5 0 M0 27.5 C-2.12 5.88, 11.55 -3.14, 27.5 0" stroke="#ff8787" stroke-width="4" fill="none"></path></g><g transform="translate(1575.0536706107007 1363.8998726750149) rotate(0 31.597984313964844 17.5)"><text x="31.597984313964844" y="0" font-family="Virgil, Segoe UI Emoji" font-size="28px" fill="#ff8787" text-anchor="middle" style="white-space: pre;" direction="ltr" dominant-baseline="text-before-edge">Drop</text></g><g transform="translate(1223.5787963867185 1347.6295566872916) rotate(0 80.86396026611328 17.5)"><text x="0" y="0" font-family="Virgil, Segoe UI Emoji" font-size="28px" fill="#ff8787" text-anchor="start" style="white-space: pre;" direction="ltr" dominant-baseline="text-before-edge">no relations</text></g><g transform="translate(1300.9596906389506 936.9152273764657) rotate(0 103.58594512939453 17.5)"><text x="0" y="0" font-family="Virgil, Segoe UI Emoji" font-size="28px" fill="#2f9e44" text-anchor="start" style="white-space: pre;" direction="ltr" dominant-baseline="text-before-edge">found relations</text></g><g stroke-linecap="round"><g transform="translate(228.3407592773437 85.32798469999597) rotate(0 467.50366210937494 -32.9706028529576)"><path d="M0 0 C18.65 -11.9, -24.8 -61.71, 111.9 -71.43 C248.61 -81.15, 683.05 -71.15, 820.24 -58.33 C957.42 -45.51, 915.88 -5.15, 935.01 5.49 M0 0 C18.65 -11.9, -24.8 -61.71, 111.9 -71.43 C248.61 -81.15, 683.05 -71.15, 820.24 -58.33 C957.42 -45.51, 915.88 -5.15, 935.01 5.49" stroke="#e03131" stroke-width="2" fill="none"></path></g><g transform="translate(228.3407592773437 85.32798469999597) rotate(0 467.50366210937494 -32.9706028529576)"><path d="M914 -15.93 C918.33 -11.52, 922.66 -7.1, 935.01 5.49 M914 -15.93 C919.94 -9.87, 925.88 -3.82, 935.01 5.49" stroke="#e03131" stroke-width="2" fill="none"></path></g><g transform="translate(228.3407592773437 85.32798469999597) rotate(0 467.50366210937494 -32.9706028529576)"><path d="M932.68 -24.42 C933.16 -18.26, 933.64 -12.1, 935.01 5.49 M932.68 -24.42 C933.34 -15.96, 934 -7.51, 935.01 5.49" stroke="#e03131" stroke-width="2" fill="none"></path></g></g><mask></mask></svg>