<svg version="1.1" xmlns="http://www.w3.org/2000/svg" viewBox="0 0 1733.9900425376484 826.2724828063497" width="1733.9900425376484" height="826.2724828063497" filter="invert(93%) hue-rotate(180deg)">
  <!-- svg-source:excalidraw -->
  
  <defs>
    <style class="style-fonts">
      @font-face {
        font-family: "Virgil";
        src: url("https://file%2B.vscode-resource.vscode-cdn.net/c%3A/Users/talor/.vscode/extensions/pomdtr.excalidraw-editor-3.7.4/public//dist/excalidraw-assets/Virgil.woff2");
      }
      @font-face {
        font-family: "Cascadia";
        src: url("https://file%2B.vscode-resource.vscode-cdn.net/c%3A/Users/talor/.vscode/extensions/pomdtr.excalidraw-editor-3.7.4/public//dist/excalidraw-assets/Cascadia.woff2");
      }
      @font-face {
        font-family: "Assistant";
        src: url("https://file%2B.vscode-resource.vscode-cdn.net/c%3A/Users/talor/.vscode/extensions/pomdtr.excalidraw-editor-3.7.4/public//dist/excalidraw-assets/Assistant-Regular.woff2");
      }
    </style>
    
  </defs>
  <rect x="0" y="0" width="1733.9900425376484" height="826.2724828063497" fill="#ffffff"></rect><g stroke-linecap="round" transform="translate(556.8972678367638 10) rotate(0 202.5832582050857 32.86138414697779)"><path d="M4.37 3.8 C4.37 3.8, 4.37 3.8, 4.37 3.8 M4.37 3.8 C4.37 3.8, 4.37 3.8, 4.37 3.8 M-0.09 21.13 C7.15 13.41, 11.45 4.98, 18.28 -0.01 M-0.09 21.13 C4.23 17.02, 6.88 11.84, 18.28 -0.01 M0.7 32.41 C13.56 18.63, 23.63 6.91, 28.91 -0.04 M0.7 32.41 C7.81 23.76, 15.87 15.38, 28.91 -0.04 M0.84 44.45 C12.65 31.35, 23.88 16.03, 39.54 -0.08 M0.84 44.45 C10.48 34.07, 18.73 24.42, 39.54 -0.08 M0.97 56.49 C11.81 43.76, 21.64 31.87, 49.52 0.65 M0.97 56.49 C13.86 40.9, 27.94 24.9, 49.52 0.65 M6.35 62.5 C17.73 48.13, 31.08 34.51, 60.15 0.61 M6.35 62.5 C19.32 46.41, 32.4 31.95, 60.15 0.61 M14.36 65.48 C38.89 39.66, 60.08 14.61, 70.78 0.58 M14.36 65.48 C28.95 50.05, 41.53 34.18, 70.78 0.58 M24.99 65.45 C39.07 51.49, 52.04 35.91, 81.41 0.54 M24.99 65.45 C45.38 41.92, 66.51 16.46, 81.41 0.54 M35.62 65.41 C55.97 39.83, 77.87 17.4, 92.04 0.51 M35.62 65.41 C53.92 44.14, 73.04 23.5, 92.04 0.51 M46.25 65.38 C67.44 42.67, 85.94 18.61, 102.67 0.47 M46.25 65.38 C59.94 49.59, 73.36 33.32, 102.67 0.47 M56.22 66.1 C74.82 47.17, 88.27 26.76, 113.3 0.44 M56.22 66.1 C76.73 44.21, 96.55 21.66, 113.3 0.44 M66.85 66.06 C86.3 41.22, 109.94 17.31, 123.93 0.4 M66.85 66.06 C85.84 42.83, 106.57 19.4, 123.93 0.4 M77.48 66.03 C96.82 41.36, 119.77 16.42, 134.56 0.37 M77.48 66.03 C100.35 39.32, 122.16 14.32, 134.56 0.37 M88.11 65.99 C108.8 41.55, 133.19 16.33, 145.19 0.33 M88.11 65.99 C108.7 42.46, 130.23 18.71, 145.19 0.33 M98.74 65.96 C116.94 46.02, 130.64 28.02, 155.82 0.3 M98.74 65.96 C110.27 50.74, 123.29 35.82, 155.82 0.3 M109.37 65.93 C127.81 45.07, 148.83 19.76, 166.45 0.27 M109.37 65.93 C132.17 41.18, 153.45 14.1, 166.45 0.27 M120 65.89 C140.28 42.89, 163.22 18.04, 177.08 0.23 M120 65.89 C134.05 48.84, 148.12 34.8, 177.08 0.23 M130.63 65.86 C143.13 51.57, 153.8 37.52, 187.71 0.2 M130.63 65.86 C146.93 47.25, 162.89 27.57, 187.71 0.2 M141.26 65.82 C156.69 47.63, 168.68 30.72, 198.34 0.16 M141.26 65.82 C157.72 47.01, 174.01 27.38, 198.34 0.16 M151.89 65.79 C175.02 41.39, 195.17 14.38, 208.97 0.13 M151.89 65.79 C174.49 38.42, 196.69 14.06, 208.97 0.13 M162.52 65.75 C183.75 38.52, 207.53 12.24, 219.6 0.09 M162.52 65.75 C181.29 44.18, 198.95 23.61, 219.6 0.09 M173.15 65.72 C185.26 51.92, 197.55 37.01, 230.23 0.06 M173.15 65.72 C185.37 51.7, 196.42 38.55, 230.23 0.06 M183.78 65.68 C202.94 41.73, 224.54 15.95, 240.2 0.78 M183.78 65.68 C199.31 49.72, 214.23 31.14, 240.2 0.78 M194.41 65.65 C204.78 53.32, 218.54 39.91, 250.83 0.74 M194.41 65.65 C209.05 49.5, 223.33 31.67, 250.83 0.74 M205.04 65.61 C223.37 41.74, 243.12 21.12, 261.46 0.71 M205.04 65.61 C216.93 52.46, 228.95 38.91, 261.46 0.71 M215.67 65.58 C235.32 46.76, 253.12 25.64, 272.09 0.68 M215.67 65.58 C230.43 49.78, 243 33.81, 272.09 0.68 M226.3 65.55 C238.47 49.2, 253.1 33.57, 282.72 0.64 M226.3 65.55 C239.28 51.3, 250.54 37.61, 282.72 0.64 M236.93 65.51 C250.5 50.64, 264.04 32.97, 293.35 0.61 M236.93 65.51 C254.78 42.9, 275.46 21.88, 293.35 0.61 M246.91 66.23 C257.43 52.68, 271.76 39.47, 303.98 0.57 M246.91 66.23 C261.33 49.83, 277.89 31.67, 303.98 0.57 M257.54 66.2 C268.11 52.8, 281.51 37.99, 314.61 0.54 M257.54 66.2 C272.37 48.04, 285.59 31.43, 314.61 0.54 M268.17 66.16 C279.46 49.92, 292.37 36.98, 325.24 0.5 M268.17 66.16 C286.13 44.94, 304.48 22.4, 325.24 0.5 M278.8 66.13 C299.11 43.04, 320.1 20.75, 335.87 0.47 M278.8 66.13 C299.57 40.85, 321.53 17.82, 335.87 0.47 M289.43 66.09 C309.66 39.58, 334.44 12.55, 346.5 0.43 M289.43 66.09 C307.85 47.15, 324.56 27.74, 346.5 0.43 M300.06 66.06 C318.03 43.21, 336.65 22.26, 357.13 0.4 M300.06 66.06 C312.49 52.53, 324.35 37.88, 357.13 0.4 M310.69 66.02 C327.14 49.67, 342.84 30.87, 367.76 0.36 M310.69 66.02 C326.61 47.74, 344.56 28.44, 367.76 0.36 M321.32 65.99 C337.63 44.84, 355.73 23.76, 378.39 0.33 M321.32 65.99 C343.43 41.56, 365.94 16.05, 378.39 0.33 M331.95 65.96 C345.47 48.52, 362.48 32.3, 389.02 0.3 M331.95 65.96 C349.13 46.1, 364.74 26.9, 389.02 0.3 M342.58 65.92 C364.54 43.73, 384.2 18.71, 397.69 2.53 M342.58 65.92 C355.1 52.18, 365.81 38.05, 397.69 2.53 M353.21 65.89 C367.27 50.78, 377 38.3, 403.07 8.53 M353.21 65.89 C369.62 46.17, 387.33 25.91, 403.07 8.53 M363.84 65.85 C379.23 51.62, 392.64 33.81, 405.17 18.31 M363.84 65.85 C377.93 50.13, 389.97 34.05, 405.17 18.31 M374.47 65.82 C385.55 52.08, 396.97 37.28, 405.3 30.35 M374.47 65.82 C385.54 52.9, 395.82 41.91, 405.3 30.35 M385.1 65.78 C391.44 57.76, 397.89 52.36, 405.44 42.39 M385.1 65.78 C389.88 59.76, 396.67 51.9, 405.44 42.39 M396.38 64.99 C397.96 63.54, 399.92 61.01, 403.6 56.69 M396.38 64.99 C398.1 63.16, 399.92 61.22, 403.6 56.69" stroke="#a5d8ff" stroke-width="1" fill="none"></path><path d="M16.43 0 C164.22 -1.4, 313.54 -2.01, 388.74 0 M16.43 0 C152.83 -2.04, 289.51 -1.48, 388.74 0 M388.74 0 C398.32 -1.79, 405.43 3.82, 405.17 16.43 M388.74 0 C401.3 -0.45, 403.09 6.05, 405.17 16.43 M405.17 16.43 C404.83 26.76, 404.35 35.13, 405.17 49.29 M405.17 16.43 C405.58 28.8, 405.3 40.91, 405.17 49.29 M405.17 49.29 C405.46 61.4, 400.65 66.38, 388.74 65.72 M405.17 49.29 C405.58 59.65, 399.33 65.22, 388.74 65.72 M388.74 65.72 C295.38 65.82, 200.02 65.34, 16.43 65.72 M388.74 65.72 C252.63 66.98, 116.4 67.74, 16.43 65.72 M16.43 65.72 C4.41 64.86, -1.56 60.89, 0 49.29 M16.43 65.72 C3.56 67.32, -1.1 59.72, 0 49.29 M0 49.29 C-0.73 37.71, 0.08 28.75, 0 16.43 M0 49.29 C-0.74 36.92, 0.16 25.6, 0 16.43 M0 16.43 C-0.93 3.49, 3.75 1.81, 16.43 0 M0 16.43 C0.03 7.12, 5.66 -2.21, 16.43 0" stroke="#1971c2" stroke-width="2" fill="none"></path></g><g transform="translate(718.8243828533734 23.36697319416217) rotate(0 40.65614318847656 19.49441095281561)"><text x="40.65614318847656" y="0" font-family="Virgil, Segoe UI Emoji" font-size="31.191057524504977px" fill="#1971c2" text-anchor="middle" style="white-space: pre;" direction="ltr" dominant-baseline="text-before-edge">s-app</text></g><g stroke-linecap="round" transform="translate(583.1089989657814 86.59752705631308) rotate(0 176.16847792263457 32.57933777374771)"><path d="M4.34 3.77 C4.34 3.77, 4.34 3.77, 4.34 3.77 M4.34 3.77 C4.34 3.77, 4.34 3.77, 4.34 3.77 M-0.12 21.09 C3.2 14.52, 8.78 10.74, 18.25 -0.04 M-0.12 21.09 C4.3 14.74, 11.4 8.62, 18.25 -0.04 M0.67 32.38 C8.87 23.57, 14.45 13.42, 28.22 0.68 M0.67 32.38 C12.41 19.38, 22.48 7.78, 28.22 0.68 M0.8 44.42 C11.33 30.43, 24.06 13.93, 38.85 0.65 M0.8 44.42 C9.63 34.05, 17.03 24.56, 38.85 0.65 M0.93 56.46 C14.63 39.82, 30.26 23.5, 49.48 0.61 M0.93 56.46 C13.88 41.5, 26.58 26.1, 49.48 0.61 M6.31 62.46 C18.69 48.65, 32.65 32.9, 60.11 0.58 M6.31 62.46 C23.02 43.52, 40.38 24.39, 60.11 0.58 M14.32 65.45 C26.86 51.49, 37.78 37.2, 70.74 0.54 M14.32 65.45 C29.5 47.15, 45.29 27.71, 70.74 0.54 M24.95 65.41 C40.99 47.57, 57.46 28.5, 81.37 0.51 M24.95 65.41 C44.36 42, 65.17 19.21, 81.37 0.51 M35.58 65.38 C54.02 45.05, 71.87 26.8, 92 0.47 M35.58 65.38 C50.23 49.91, 64.2 33.17, 92 0.47 M46.21 65.34 C58.18 49.76, 71.98 33.33, 102.63 0.44 M46.21 65.34 C60.2 48.21, 75.14 31.63, 102.63 0.44 M56.84 65.31 C67.56 49.09, 83.32 34.88, 113.26 0.41 M56.84 65.31 C75.12 45.16, 92.73 24.45, 113.26 0.41 M67.47 65.28 C84.5 47.5, 101.56 29.95, 123.89 0.37 M67.47 65.28 C88 42.02, 109.48 17.52, 123.89 0.37 M78.1 65.24 C95.6 44.66, 113.86 28.94, 134.52 0.34 M78.1 65.24 C94.25 46.8, 112.43 26.13, 134.52 0.34 M88.73 65.21 C112.32 40.66, 133.71 14.13, 145.15 0.3 M88.73 65.21 C105.94 46.38, 122.76 25.19, 145.15 0.3 M99.36 65.17 C119.82 39.92, 141.35 16.64, 155.78 0.27 M99.36 65.17 C120.95 40.09, 142.85 16.43, 155.78 0.27 M109.99 65.14 C123.05 49.1, 136.03 37, 166.41 0.23 M109.99 65.14 C126.7 43.87, 144.84 24.63, 166.41 0.23 M119.96 65.86 C136.85 47.98, 150.28 28.04, 177.04 0.2 M119.96 65.86 C142.3 41.88, 162.66 16.61, 177.04 0.2 M130.59 65.82 C146.25 46.17, 161.51 30.92, 187.67 0.16 M130.59 65.82 C149.2 43.39, 168.03 22.37, 187.67 0.16 M141.22 65.79 C154.64 47.02, 170.95 31.07, 198.3 0.13 M141.22 65.79 C158.43 45.12, 176.23 26.19, 198.3 0.13 M151.85 65.75 C174.15 38.06, 197.89 14.95, 208.93 0.09 M151.85 65.75 C170.42 45.17, 191.02 22, 208.93 0.09 M162.48 65.72 C182.47 41.92, 203.54 18.53, 218.91 0.82 M162.48 65.72 C184.2 40.45, 204.37 16.33, 218.91 0.82 M173.11 65.69 C193.87 41.43, 215.76 14.42, 229.54 0.78 M173.11 65.69 C193.76 41.66, 215.91 17.34, 229.54 0.78 M183.75 65.65 C200.64 44.2, 217.49 25.6, 240.17 0.75 M183.75 65.65 C196.73 49.77, 208.66 34.42, 240.17 0.75 M194.38 65.62 C208.38 51, 220.03 37.21, 250.8 0.71 M194.38 65.62 C213.07 43.26, 231.36 23.64, 250.8 0.71 M205.01 65.58 C222.35 46.33, 239.94 23.64, 261.43 0.68 M205.01 65.58 C222.47 45.99, 240.33 25.3, 261.43 0.68 M215.64 65.55 C232.48 48.25, 245.13 28.82, 272.06 0.64 M215.64 65.55 C235.48 41.76, 256.52 17.8, 272.06 0.64 M226.27 65.51 C236.98 52.78, 249 36.95, 282.69 0.61 M226.27 65.51 C238.92 50.14, 252.85 33.89, 282.69 0.61 M236.9 65.48 C248.99 49.45, 262.22 38.58, 293.32 0.57 M236.9 65.48 C254.42 47.46, 269.41 27.95, 293.32 0.57 M247.53 65.44 C262.1 50.63, 272.31 35.11, 303.95 0.54 M247.53 65.44 C266.03 44.99, 281.75 25.62, 303.95 0.54 M258.16 65.41 C278.16 42.53, 297.74 20.43, 314.58 0.5 M258.16 65.41 C278.63 40.34, 300.55 16.42, 314.58 0.5 M268.79 65.38 C289.18 42.21, 313.29 15.04, 325.21 0.47 M268.79 65.38 C287.3 42.49, 307.65 21.32, 325.21 0.47 M279.42 65.34 C297.44 46.52, 315.78 24.69, 335.84 0.44 M279.42 65.34 C300.13 43.25, 320.8 20.36, 335.84 0.44 M290.05 65.31 C312.2 39.84, 333.55 14.85, 345.15 1.91 M290.05 65.31 C302.52 51.33, 314.97 36.64, 345.15 1.91 M300.68 65.27 C315.34 47.63, 331.21 28.27, 350.54 7.91 M300.68 65.27 C311.02 52.42, 321.58 41.43, 350.54 7.91 M310.65 65.99 C323.42 52.87, 334.38 37.58, 351.98 18.45 M310.65 65.99 C321.49 54.67, 330.42 42.7, 351.98 18.45 M321.28 65.96 C331.1 52.1, 344.34 39.88, 352.11 30.49 M321.28 65.96 C333.72 52.55, 344.1 39.43, 352.11 30.49 M331.91 65.92 C337.8 60.72, 341.04 57.44, 352.25 42.53 M331.91 65.92 C336.56 59.64, 343.28 53.07, 352.25 42.53 M344.51 63.62 C347.03 60.92, 348.58 57.31, 351.73 55.32 M344.51 63.62 C346.78 60.37, 349.58 57.68, 351.73 55.32" stroke="#a5d8ff" stroke-width="1" fill="none"></path><path d="M16.29 0 C133.66 -0.74, 250.13 1, 336.05 0 M16.29 0 C134.42 1.73, 252.73 0.95, 336.05 0 M336.05 0 C347.17 -1.66, 353.74 5.04, 352.34 16.29 M336.05 0 C344.83 0.58, 351.38 6.05, 352.34 16.29 M352.34 16.29 C351.36 29.29, 353.84 38.37, 352.34 48.87 M352.34 16.29 C352.71 25.21, 352.64 35.51, 352.34 48.87 M352.34 48.87 C353.3 60.38, 347.27 64.64, 336.05 65.16 M352.34 48.87 C351.97 59.22, 345.84 63.16, 336.05 65.16 M336.05 65.16 C251.45 67.27, 167.49 68.01, 16.29 65.16 M336.05 65.16 C217.9 64.32, 98.52 63.56, 16.29 65.16 M16.29 65.16 C3.87 65.8, -1.67 61.12, 0 48.87 M16.29 65.16 C4.33 64.63, 0.59 61.04, 0 48.87 M0 48.87 C0.36 36.92, 1.28 25.2, 0 16.29 M0 48.87 C0.62 37.42, -0.33 25.11, 0 16.29 M0 16.29 C-1.72 7.24, 5.45 1.43, 16.29 0 M0 16.29 C0.19 3.22, 6.14 -0.81, 16.29 0" stroke="#1971c2" stroke-width="2" fill="none"></path></g><g transform="translate(733.4989505822634 99.6824538772452) rotate(0 25.778526306152344 19.494410952815613)"><text x="25.778526306152344" y="0" font-family="Virgil, Segoe UI Emoji" font-size="31.191057524504977px" fill="#1971c2" text-anchor="middle" style="white-space: pre;" direction="ltr" dominant-baseline="text-before-edge">app</text></g><g stroke-linecap="round" transform="translate(605.2884015015482 161.39860385534212) rotate(0 156.87717152341634 32.57933813781756)"><path d="M4.34 3.77 C4.34 3.77, 4.34 3.77, 4.34 3.77 M4.34 3.77 C4.34 3.77, 4.34 3.77, 4.34 3.77 M-0.12 21.09 C4.06 16.53, 11.17 9.22, 18.25 -0.04 M-0.12 21.09 C7.34 13.72, 12.58 7.33, 18.25 -0.04 M0.67 32.38 C6.06 23.1, 15.53 16.94, 28.22 0.68 M0.67 32.38 C7.87 24.29, 15.14 15.53, 28.22 0.68 M0.8 44.42 C13.71 26.34, 27.95 13.41, 38.85 0.65 M0.8 44.42 C7.88 35.16, 16.76 26.08, 38.85 0.65 M0.93 56.46 C14.91 41.35, 28.53 23, 49.48 0.61 M0.93 56.46 C15.68 38.52, 30.89 20.65, 49.48 0.61 M6.31 62.46 C22.8 43.76, 41.2 23.26, 60.11 0.58 M6.31 62.46 C18.12 49.68, 27.35 38.29, 60.11 0.58 M14.32 65.45 C28.85 47.73, 45.45 30.83, 70.74 0.54 M14.32 65.45 C33.23 42.5, 53.05 20.99, 70.74 0.54 M24.95 65.41 C45.86 42.04, 65.02 18.45, 81.37 0.51 M24.95 65.41 C47.81 39.81, 69.09 15.12, 81.37 0.51 M35.58 65.38 C47.98 53.44, 58.31 38.48, 92 0.47 M35.58 65.38 C51.86 46.56, 66.73 28.29, 92 0.47 M46.21 65.34 C64.14 43.23, 82.99 21.94, 102.63 0.44 M46.21 65.34 C62.2 47.02, 77.25 30.38, 102.63 0.44 M56.84 65.31 C75.02 45.98, 91.17 28.73, 113.26 0.41 M56.84 65.31 C78.15 41.06, 98.4 15.31, 113.26 0.41 M67.47 65.28 C85.18 47.77, 101.95 25.18, 123.89 0.37 M67.47 65.28 C88.45 41.43, 107.82 17.88, 123.89 0.37 M78.1 65.24 C94.84 50.3, 107.71 32.73, 134.52 0.34 M78.1 65.24 C93.57 47.88, 108 31.07, 134.52 0.34 M88.73 65.21 C109.09 41.52, 127.27 18.69, 145.15 0.3 M88.73 65.21 C108.7 40.74, 129.82 19.27, 145.15 0.3 M99.36 65.17 C112.83 50.21, 130.67 30.44, 155.78 0.27 M99.36 65.17 C115.49 47.84, 129.86 29.12, 155.78 0.27 M109.99 65.14 C131.28 42.7, 149.48 21.42, 166.41 0.23 M109.99 65.14 C131.64 41.37, 151.55 17.21, 166.41 0.23 M119.96 65.86 C138.5 41.06, 161.5 19.47, 177.04 0.2 M119.96 65.86 C130.14 52.75, 142.34 39.73, 177.04 0.2 M130.59 65.82 C144.27 51.3, 159.18 34.54, 187.67 0.16 M130.59 65.82 C150.26 43.62, 170.3 20.72, 187.67 0.16 M141.22 65.79 C153.96 51.65, 166.83 37.59, 198.3 0.13 M141.22 65.79 C158.62 46.95, 175.53 28.7, 198.3 0.13 M151.85 65.75 C172.61 45.18, 190.29 22.79, 208.93 0.09 M151.85 65.75 C164.73 51.63, 175.87 37.8, 208.93 0.09 M162.48 65.72 C177.79 47.8, 194.07 33.16, 218.91 0.82 M162.48 65.72 C174.26 51.13, 188.81 36.02, 218.91 0.82 M173.11 65.69 C193.29 40.51, 218.19 16.65, 229.54 0.78 M173.11 65.69 C190.67 46.7, 206.69 26.4, 229.54 0.78 M183.75 65.65 C200.05 45.88, 216.15 27.93, 240.17 0.75 M183.75 65.65 C204.77 39.72, 227.06 14.29, 240.17 0.75 M194.38 65.62 C211.93 45.74, 232.01 24.29, 250.8 0.71 M194.38 65.62 C214.38 43.98, 234.02 19.65, 250.8 0.71 M205.01 65.58 C218.13 48.14, 234.59 31.37, 261.43 0.68 M205.01 65.58 C226.14 41.46, 246.57 18.1, 261.43 0.68 M215.64 65.55 C235.52 40.06, 259.58 17.1, 272.06 0.64 M215.64 65.55 C235.74 42.68, 255.45 17.86, 272.06 0.64 M226.27 65.51 C241.64 45.07, 258.54 27.9, 282.69 0.61 M226.27 65.51 C241.07 47.96, 255.69 31.17, 282.69 0.61 M236.9 65.48 C255.29 47.15, 271.8 23.77, 293.32 0.57 M236.9 65.48 C249.59 49.05, 263.75 32.48, 293.32 0.57 M247.53 65.44 C261.18 46.86, 277 29.2, 303.29 1.29 M247.53 65.44 C267.36 41.51, 289.83 16.24, 303.29 1.29 M258.16 65.41 C275.71 45.53, 296.54 24.41, 309.98 5.79 M258.16 65.41 C269.45 53.05, 282.44 38.56, 309.98 5.79 M268.79 65.38 C281.91 50.57, 294.28 35.63, 313.4 14.06 M268.79 65.38 C284.45 48.59, 298.65 31.97, 313.4 14.06 M279.42 65.34 C291.46 52.34, 301.91 39.43, 313.53 26.1 M279.42 65.34 C288.22 56.75, 296.09 45.83, 313.53 26.1 M290.05 65.31 C297.28 55.97, 303.06 50.59, 313.66 38.14 M290.05 65.31 C298.22 56.46, 306 46.39, 313.66 38.14 M301.33 64.52 C303.17 60.27, 306.54 56.99, 313.8 50.18 M301.33 64.52 C304.85 60.86, 308.72 56.54, 313.8 50.18" stroke="#a5d8ff" stroke-width="1" fill="none"></path><path d="M16.29 0 C103.04 2.17, 188.81 0.25, 297.46 0 M16.29 0 C80.32 -1.14, 145.49 -1.09, 297.46 0 M297.46 0 C309.73 -0.39, 311.95 5.93, 313.75 16.29 M297.46 0 C307.37 0.62, 314.82 4.94, 313.75 16.29 M313.75 16.29 C315.18 28.58, 313.33 42.82, 313.75 48.87 M313.75 16.29 C313.97 26.41, 314.3 35.71, 313.75 48.87 M313.75 48.87 C314.11 59.21, 308.01 64.72, 297.46 65.16 M313.75 48.87 C312.69 57.73, 307.52 67.15, 297.46 65.16 M297.46 65.16 C193.52 67.21, 88.63 66.52, 16.29 65.16 M297.46 65.16 C228.94 66.23, 160.63 66.81, 16.29 65.16 M16.29 65.16 C3.76 66.55, -0.95 59.27, 0 48.87 M16.29 65.16 C6.02 66.47, 2.14 59.11, 0 48.87 M0 48.87 C1.15 42.48, 0.94 31.37, 0 16.29 M0 48.87 C-0.62 39.93, -1.02 33.87, 0 16.29 M0 16.29 C0.02 6.86, 5.59 -1.92, 16.29 0 M0 16.29 C0.71 4.62, 4.34 0.3, 16.29 0" stroke="#1971c2" stroke-width="2" fill="none"></path></g><g transform="translate(722.1488188745736 174.48353104034408) rotate(0 40.016754150390625 19.494410952815613)"><text x="40.016754150390625" y="0" font-family="Virgil, Segoe UI Emoji" font-size="31.191057524504977px" fill="#1971c2" text-anchor="middle" style="white-space: pre;" direction="ltr" dominant-baseline="text-before-edge">c-app</text></g><g stroke-linecap="round" transform="translate(145.02685823544812 498.41767533462325) rotate(0 202.5832582050857 32.8613841469778)"><path d="M4.37 3.8 C4.37 3.8, 4.37 3.8, 4.37 3.8 M4.37 3.8 C4.37 3.8, 4.37 3.8, 4.37 3.8 M-0.09 21.13 C3.63 17.27, 11.18 10.94, 18.28 -0.01 M-0.09 21.13 C7.04 12.71, 14.55 3.88, 18.28 -0.01 M0.7 32.41 C7.89 23.85, 13.94 19.64, 28.91 -0.04 M0.7 32.41 C8.4 22.84, 16.8 13.87, 28.91 -0.04 M0.84 44.45 C15.92 24.83, 31.69 10.07, 39.54 -0.08 M0.84 44.45 C14.86 29.32, 29.59 12.49, 39.54 -0.08 M0.97 56.49 C11.87 44.69, 20.66 33.4, 49.52 0.65 M0.97 56.49 C11.61 44.51, 22.51 31.38, 49.52 0.65 M6.35 62.5 C25.41 41.69, 41.08 19.81, 60.15 0.61 M6.35 62.5 C20.47 46.54, 33.29 32.45, 60.15 0.61 M14.36 65.48 C26.4 53.04, 38.47 39.89, 70.78 0.58 M14.36 65.48 C32.9 43.85, 52.19 20.51, 70.78 0.58 M24.99 65.45 C36.07 50.99, 48.5 36.77, 81.41 0.54 M24.99 65.45 C36.85 52.22, 48.49 37.38, 81.41 0.54 M35.62 65.41 C48.17 50, 57.78 36.71, 92.04 0.51 M35.62 65.41 C57.22 40.65, 78.69 15.72, 92.04 0.51 M46.25 65.38 C62.06 45.31, 80.87 24.93, 102.67 0.47 M46.25 65.38 C61.46 47.32, 77.49 29.29, 102.67 0.47 M56.22 66.1 C71.45 46.81, 91.95 25.82, 113.3 0.44 M56.22 66.1 C77.3 41.57, 99.28 17.22, 113.3 0.44 M66.85 66.06 C89.42 41.76, 108.23 17.74, 123.93 0.4 M66.85 66.06 C88.72 40.58, 110.16 14.21, 123.93 0.4 M77.48 66.03 C92.51 46.65, 109 27.26, 134.56 0.37 M77.48 66.03 C96.68 42.72, 116.52 20.52, 134.56 0.37 M88.11 65.99 C102.01 50.07, 119.61 31.78, 145.19 0.33 M88.11 65.99 C110.82 41.57, 131.2 15.4, 145.19 0.33 M98.74 65.96 C120.3 42.78, 140.88 16.26, 155.82 0.3 M98.74 65.96 C110.98 50.55, 125.08 36.09, 155.82 0.3 M109.37 65.93 C122.5 50.05, 135.37 33.91, 166.45 0.27 M109.37 65.93 C122.05 49.34, 135.5 34.06, 166.45 0.27 M120 65.89 C133.89 50.37, 148.93 30.82, 177.08 0.23 M120 65.89 C132.32 52.15, 144.25 39.21, 177.08 0.23 M130.63 65.86 C150.74 42.09, 172.38 17.46, 187.71 0.2 M130.63 65.86 C141.85 52.73, 154.12 37.94, 187.71 0.2 M141.26 65.82 C159.26 45.47, 175.65 26.29, 198.34 0.16 M141.26 65.82 C157.49 44.97, 175.21 25.07, 198.34 0.16 M151.89 65.79 C169.11 42.55, 188.27 21.19, 208.97 0.13 M151.89 65.79 C168.31 47.85, 185.44 27.5, 208.97 0.13 M162.52 65.75 C182.66 43.19, 203.26 17.81, 219.6 0.09 M162.52 65.75 C184.47 39.26, 207.85 13.74, 219.6 0.09 M173.15 65.72 C187 49.48, 201.36 31.84, 230.23 0.06 M173.15 65.72 C192.13 44.56, 208.86 23.74, 230.23 0.06 M183.78 65.68 C198.89 44.89, 218.28 26.83, 240.2 0.78 M183.78 65.68 C198.4 49.25, 212.33 33.09, 240.2 0.78 M194.41 65.65 C208.3 49.09, 221.43 35.68, 250.83 0.74 M194.41 65.65 C213.79 44.55, 230.84 22.93, 250.83 0.74 M205.04 65.61 C225.18 42.91, 243.37 21.31, 261.46 0.71 M205.04 65.61 C220.49 47.77, 236.54 30.54, 261.46 0.71 M215.67 65.58 C227.48 49.86, 240.77 38.41, 272.09 0.68 M215.67 65.58 C238.42 40.56, 260.88 13.36, 272.09 0.68 M226.3 65.55 C238.9 47.01, 253.99 33.34, 282.72 0.64 M226.3 65.55 C243.26 44.81, 261.57 23.11, 282.72 0.64 M236.93 65.51 C257.78 42.08, 274.35 18.21, 293.35 0.61 M236.93 65.51 C255.32 42.04, 274.88 19.98, 293.35 0.61 M246.91 66.23 C258.74 53.5, 268.17 37.51, 303.98 0.57 M246.91 66.23 C264.29 46.01, 283.01 25.94, 303.98 0.57 M257.54 66.2 C271.81 52.52, 281.84 36.97, 314.61 0.54 M257.54 66.2 C271.99 48.4, 286.32 32.08, 314.61 0.54 M268.17 66.16 C285.8 46.78, 302.01 24.81, 325.24 0.5 M268.17 66.16 C281.23 50.26, 296.39 34.64, 325.24 0.5 M278.8 66.13 C292.75 49.1, 303.25 37.45, 335.87 0.47 M278.8 66.13 C300.17 41.02, 321.92 14.62, 335.87 0.47 M289.43 66.09 C305.25 50.94, 315.54 34.05, 346.5 0.43 M289.43 66.09 C308.4 45.02, 326.98 22.53, 346.5 0.43 M300.06 66.06 C321.4 40.48, 341 17.13, 357.13 0.4 M300.06 66.06 C312.64 50.19, 326.22 35, 357.13 0.4 M310.69 66.02 C325.71 49.23, 342.36 31.91, 367.76 0.36 M310.69 66.02 C325.81 46.74, 341.91 27.94, 367.76 0.36 M321.32 65.99 C333.32 49.65, 346.37 37.48, 378.39 0.33 M321.32 65.99 C336.28 48.81, 350.8 32.06, 378.39 0.33 M331.95 65.96 C341.32 53.7, 353 38.55, 389.02 0.3 M331.95 65.96 C345.49 49.85, 360.14 33.91, 389.02 0.3 M342.58 65.92 C358.79 47.75, 377.18 24.91, 397.69 2.53 M342.58 65.92 C363.06 40.9, 385.11 15.79, 397.69 2.53 M353.21 65.89 C366.69 53.55, 379.47 38.92, 403.07 8.53 M353.21 65.89 C365.25 51.41, 375.88 37.68, 403.07 8.53 M363.84 65.85 C374.19 54.97, 383.49 44.15, 405.17 18.31 M363.84 65.85 C375.72 51.03, 388.48 37.9, 405.17 18.31 M374.47 65.82 C382.8 55.5, 393.44 40.93, 405.3 30.35 M374.47 65.82 C384.36 54.86, 394.37 43.44, 405.3 30.35 M385.1 65.78 C390.64 58.11, 399.14 51.74, 405.44 42.39 M385.1 65.78 C391.31 58.3, 397.08 52.13, 405.44 42.39 M396.38 64.99 C398.33 62.45, 400.32 61.27, 403.6 56.69 M396.38 64.99 C397.89 62.89, 399.79 61.57, 403.6 56.69" stroke="#a5d8ff" stroke-width="1" fill="none"></path><path d="M16.43 0 C142.19 1.62, 270.04 1.32, 388.74 0 M16.43 0 C109.79 -0.22, 201.83 -0.64, 388.74 0 M388.74 0 C400.69 1.99, 403.7 4.22, 405.17 16.43 M388.74 0 C401.55 -2.08, 403.26 4.44, 405.17 16.43 M405.17 16.43 C406.92 26.06, 403.32 34.91, 405.17 49.29 M405.17 16.43 C405.63 23.77, 405.32 30.05, 405.17 49.29 M405.17 49.29 C404.54 60.13, 398.87 66.62, 388.74 65.72 M405.17 49.29 C404.3 59.53, 401.48 64.17, 388.74 65.72 M388.74 65.72 C245.98 64.88, 102.08 64.83, 16.43 65.72 M388.74 65.72 C301.64 63.98, 213.85 64.29, 16.43 65.72 M16.43 65.72 C7.24 66.3, 1.98 61.07, 0 49.29 M16.43 65.72 C6.86 65.08, 1.78 61.49, 0 49.29 M0 49.29 C-0.43 39.03, 1.66 30.18, 0 16.43 M0 49.29 C0.71 35.86, 0.06 24.37, 0 16.43 M0 16.43 C-0.36 4, 6.79 -1.2, 16.43 0 M0 16.43 C-1.28 4.73, 4.03 1.18, 16.43 0" stroke="#1971c2" stroke-width="2" fill="none"></path></g><g transform="translate(306.95397325205727 511.78464852878545) rotate(0 40.65614318847656 19.494410952815628)"><text x="40.65614318847656" y="0" font-family="Virgil, Segoe UI Emoji" font-size="31.191057524504977px" fill="#1971c2" text-anchor="middle" style="white-space: pre;" direction="ltr" dominant-baseline="text-before-edge">s-app</text></g><g stroke-linecap="round" transform="translate(171.23858936446527 575.0152023909361) rotate(0 176.16847792263457 32.57933777374768)"><path d="M4.34 3.77 C4.34 3.77, 4.34 3.77, 4.34 3.77 M4.34 3.77 C4.34 3.77, 4.34 3.77, 4.34 3.77 M-0.12 21.09 C8.92 11.23, 13.75 3.68, 18.25 -0.04 M-0.12 21.09 C4.38 15.44, 10.8 9.48, 18.25 -0.04 M0.67 32.38 C5.99 25.06, 12.71 17.77, 28.22 0.68 M0.67 32.38 C10.13 22.29, 18.33 12.83, 28.22 0.68 M0.8 44.42 C10.55 32.94, 17.03 24.08, 38.85 0.65 M0.8 44.42 C14.18 27.86, 28.75 11.39, 38.85 0.65 M0.93 56.46 C15.23 38.86, 33.99 21.26, 49.48 0.61 M0.93 56.46 C17.27 37.26, 33.33 19.33, 49.48 0.61 M6.31 62.46 C20.72 46.11, 37.02 29.97, 60.11 0.58 M6.31 62.46 C19.26 44.87, 34.53 29.65, 60.11 0.58 M14.32 65.45 C35.04 41.33, 54.99 17.41, 70.74 0.54 M14.32 65.45 C33.95 42.95, 55.19 19.15, 70.74 0.54 M24.95 65.41 C41.74 45.86, 60.62 24.01, 81.37 0.51 M24.95 65.41 C45.61 40.87, 67.77 17.11, 81.37 0.51 M35.58 65.38 C50.17 52.04, 60.43 37.68, 92 0.47 M35.58 65.38 C52.18 46.68, 67.79 26.69, 92 0.47 M46.21 65.34 C60.04 48.22, 76.27 31.32, 102.63 0.44 M46.21 65.34 C63.72 46.22, 80.07 24.39, 102.63 0.44 M56.84 65.31 C76.54 45.56, 94.31 23.34, 113.26 0.41 M56.84 65.31 C74.66 44.73, 91.93 25.03, 113.26 0.41 M67.47 65.28 C85.61 46.58, 100.9 27.41, 123.89 0.37 M67.47 65.28 C85.59 46.03, 103.95 24.51, 123.89 0.37 M78.1 65.24 C97.41 46.47, 116.36 24.4, 134.52 0.34 M78.1 65.24 C93.47 46.06, 109.11 27.49, 134.52 0.34 M88.73 65.21 C111.02 39.85, 131.14 18.25, 145.15 0.3 M88.73 65.21 C111.99 39.78, 132.81 14.88, 145.15 0.3 M99.36 65.17 C117.2 45.23, 135.62 20.12, 155.78 0.27 M99.36 65.17 C114.01 48.31, 130.38 30.07, 155.78 0.27 M109.99 65.14 C127.06 46.26, 145.35 22.76, 166.41 0.23 M109.99 65.14 C121.72 52.92, 133.31 38.6, 166.41 0.23 M119.96 65.86 C138.55 41.44, 160.26 19.57, 177.04 0.2 M119.96 65.86 C134.54 49.7, 147.11 32.66, 177.04 0.2 M130.59 65.82 C147.96 44.83, 169.25 21.55, 187.67 0.16 M130.59 65.82 C152.29 42.09, 173.61 16.95, 187.67 0.16 M141.22 65.79 C156.45 48.37, 172.4 28.67, 198.3 0.13 M141.22 65.79 C154.04 53.33, 165.86 37.58, 198.3 0.13 M151.85 65.75 C166.84 47.65, 182.99 31.73, 208.93 0.09 M151.85 65.75 C174.04 41.26, 195.98 15.11, 208.93 0.09 M162.48 65.72 C185.29 40.76, 204.77 15.98, 218.91 0.82 M162.48 65.72 C176.68 48.81, 191.29 31.72, 218.91 0.82 M173.11 65.69 C192.62 44.66, 210.86 24.68, 229.54 0.78 M173.11 65.69 C188.98 48.79, 204.85 29.32, 229.54 0.78 M183.75 65.65 C198.79 47.05, 214.03 28.9, 240.17 0.75 M183.75 65.65 C199.44 46.85, 216.8 28.81, 240.17 0.75 M194.38 65.62 C208.12 51.25, 220.13 36.67, 250.8 0.71 M194.38 65.62 C213.66 44.74, 230.75 23.73, 250.8 0.71 M205.01 65.58 C218.12 49.49, 233.67 34.17, 261.43 0.68 M205.01 65.58 C220.93 46.25, 239.58 25.61, 261.43 0.68 M215.64 65.55 C230.74 47.77, 243.19 33.64, 272.06 0.64 M215.64 65.55 C237.93 40.68, 260.28 13.06, 272.06 0.64 M226.27 65.51 C239.12 52.54, 251.02 35.82, 282.69 0.61 M226.27 65.51 C246.48 44.43, 264.6 22.38, 282.69 0.61 M236.9 65.48 C253.04 48.94, 268 30.28, 293.32 0.57 M236.9 65.48 C247.88 53.58, 261.04 39.86, 293.32 0.57 M247.53 65.44 C268.34 42.13, 287.41 18.33, 303.95 0.54 M247.53 65.44 C264.26 45.44, 282.99 25.44, 303.95 0.54 M258.16 65.41 C280.23 39.34, 303.57 13.32, 314.58 0.5 M258.16 65.41 C270.17 52.26, 282.42 38.88, 314.58 0.5 M268.79 65.38 C288.83 42.43, 312.42 16.72, 325.21 0.47 M268.79 65.38 C287.58 41.4, 309.24 19.23, 325.21 0.47 M279.42 65.34 C293.11 51.6, 303.47 37.1, 335.84 0.44 M279.42 65.34 C298.17 43.45, 318.48 23.42, 335.84 0.44 M290.05 65.31 C310.48 41.54, 328.54 20.4, 345.15 1.91 M290.05 65.31 C308.11 45.63, 325.79 26.31, 345.15 1.91 M300.68 65.27 C310.11 55, 323.03 40.5, 350.54 7.91 M300.68 65.27 C313.67 50.42, 326.71 34.58, 350.54 7.91 M310.65 65.99 C323.92 51.75, 338.15 33, 351.98 18.45 M310.65 65.99 C320.15 54.81, 330 42.87, 351.98 18.45 M321.28 65.96 C327.74 57.22, 337.23 49.43, 352.11 30.49 M321.28 65.96 C331.34 53.7, 343.21 39.82, 352.11 30.49 M331.91 65.92 C338.21 56.38, 346.59 47.85, 352.25 42.53 M331.91 65.92 C337.92 59.98, 343.34 52.11, 352.25 42.53 M344.51 63.62 C348.34 60.54, 350.42 56.09, 351.73 55.32 M344.51 63.62 C346.29 60.98, 348.26 59.2, 351.73 55.32" stroke="#a5d8ff" stroke-width="1" fill="none"></path><path d="M16.29 0 C119.07 0.58, 223.7 0.91, 336.05 0 M16.29 0 C138.37 0.42, 259.23 -0.72, 336.05 0 M336.05 0 C348.53 -1.81, 350.68 4.53, 352.34 16.29 M336.05 0 C346.63 0.72, 351.93 7.32, 352.34 16.29 M352.34 16.29 C350.08 28.15, 351.57 36.74, 352.34 48.87 M352.34 16.29 C351.98 28.21, 351.88 40.68, 352.34 48.87 M352.34 48.87 C351.58 59.1, 348.47 63.81, 336.05 65.16 M352.34 48.87 C354.27 60.72, 345.09 65.52, 336.05 65.16 M336.05 65.16 C214.35 67.45, 93.61 67.22, 16.29 65.16 M336.05 65.16 C257.63 65.33, 178.66 65.42, 16.29 65.16 M16.29 65.16 C6.63 64.6, 1.54 60.81, 0 48.87 M16.29 65.16 C4.54 67.13, 0.34 59.56, 0 48.87 M0 48.87 C1.28 42.97, 0.67 36.58, 0 16.29 M0 48.87 C-0.26 41.44, 0.58 34.89, 0 16.29 M0 16.29 C-1.11 4.78, 4.17 1.03, 16.29 0 M0 16.29 C-0.04 3.59, 5.47 1.19, 16.29 0" stroke="#1971c2" stroke-width="2" fill="none"></path></g><g transform="translate(321.62854098094726 588.1001292118682) rotate(0 25.778526306152344 19.4944109528156)"><text x="25.778526306152344" y="0" font-family="Virgil, Segoe UI Emoji" font-size="31.191057524504977px" fill="#1971c2" text-anchor="middle" style="white-space: pre;" direction="ltr" dominant-baseline="text-before-edge">app</text></g><g stroke-linecap="round" transform="translate(193.41799190023198 649.8162791899651) rotate(0 156.87717152341634 32.57933813781756)"><path d="M4.34 3.77 C4.34 3.77, 4.34 3.77, 4.34 3.77 M4.34 3.77 C4.34 3.77, 4.34 3.77, 4.34 3.77 M-0.12 21.09 C4.02 16.09, 7.35 9.63, 18.25 -0.04 M-0.12 21.09 C5.36 14.44, 13.02 6.13, 18.25 -0.04 M0.67 32.38 C8 23.06, 16.45 17.46, 28.22 0.68 M0.67 32.38 C6.87 24.02, 15.62 16.38, 28.22 0.68 M0.8 44.42 C11.23 35.53, 18.39 22.96, 38.85 0.65 M0.8 44.42 C12.57 30.39, 24.48 17.47, 38.85 0.65 M0.93 56.46 C17.18 39.67, 30.8 20.32, 49.48 0.61 M0.93 56.46 C12.5 42.17, 23.5 28.8, 49.48 0.61 M6.31 62.46 C22.77 42.4, 42.9 20.25, 60.11 0.58 M6.31 62.46 C17.55 50.12, 28.55 37.84, 60.11 0.58 M14.32 65.45 C30.11 47.49, 42.34 30.02, 70.74 0.54 M14.32 65.45 C31.37 45.25, 48.71 25.5, 70.74 0.54 M24.95 65.41 C46.93 40.67, 65.84 16.97, 81.37 0.51 M24.95 65.41 C39.49 46.58, 55.16 30.51, 81.37 0.51 M35.58 65.38 C54.04 44.24, 72.25 22.97, 92 0.47 M35.58 65.38 C54.48 44.42, 72.88 22.39, 92 0.47 M46.21 65.34 C60.51 48.98, 74.56 32.46, 102.63 0.44 M46.21 65.34 C68.69 41.47, 89.98 16.96, 102.63 0.44 M56.84 65.31 C78.15 42.72, 99.63 17.62, 113.26 0.41 M56.84 65.31 C74.03 44.67, 91.4 25.72, 113.26 0.41 M67.47 65.28 C84.37 44.26, 99.32 26.43, 123.89 0.37 M67.47 65.28 C87.22 41.78, 107.2 20.05, 123.89 0.37 M78.1 65.24 C99.34 40.38, 122.3 13.4, 134.52 0.34 M78.1 65.24 C92.01 51.2, 104.5 37.1, 134.52 0.34 M88.73 65.21 C103.58 47.79, 114.72 35.52, 145.15 0.3 M88.73 65.21 C105.01 47.12, 119.44 28.64, 145.15 0.3 M99.36 65.17 C120.55 40.62, 144.09 15.59, 155.78 0.27 M99.36 65.17 C121.13 39.35, 143.03 13.85, 155.78 0.27 M109.99 65.14 C130.29 38.43, 153.41 14.13, 166.41 0.23 M109.99 65.14 C132.81 39.97, 153.47 13.71, 166.41 0.23 M119.96 65.86 C132.8 51.06, 147.4 35.88, 177.04 0.2 M119.96 65.86 C138.38 45.35, 156.06 24.83, 177.04 0.2 M130.59 65.82 C151.36 43.54, 168.63 21.45, 187.67 0.16 M130.59 65.82 C153.01 39.72, 175.92 13.56, 187.67 0.16 M141.22 65.79 C157.14 44.97, 174.78 26.01, 198.3 0.13 M141.22 65.79 C163.42 39.25, 186.57 13.94, 198.3 0.13 M151.85 65.75 C167.23 51.7, 177.51 34.94, 208.93 0.09 M151.85 65.75 C172.42 42.58, 191.7 20.51, 208.93 0.09 M162.48 65.72 C175.42 50.03, 190.18 33.34, 218.91 0.82 M162.48 65.72 C178.87 47.01, 194.44 29.72, 218.91 0.82 M173.11 65.69 C190.69 43.33, 208.96 23.72, 229.54 0.78 M173.11 65.69 C193.83 41.78, 216.11 16.92, 229.54 0.78 M183.75 65.65 C201.32 44.68, 219.79 24.19, 240.17 0.75 M183.75 65.65 C199.33 46.81, 216.7 27.59, 240.17 0.75 M194.38 65.62 C215.28 40.46, 235.33 19.54, 250.8 0.71 M194.38 65.62 C213.74 43.13, 233.32 20.52, 250.8 0.71 M205.01 65.58 C220.46 49.11, 236.84 27.77, 261.43 0.68 M205.01 65.58 C225.23 41.67, 247.8 17.77, 261.43 0.68 M215.64 65.55 C229.02 51.9, 237.81 38.06, 272.06 0.64 M215.64 65.55 C236.68 40.49, 259.94 16.66, 272.06 0.64 M226.27 65.51 C247.17 41.01, 266.04 20.45, 282.69 0.61 M226.27 65.51 C247.35 39.8, 268.04 16.82, 282.69 0.61 M236.9 65.48 C251.14 45.62, 267.95 26.07, 293.32 0.57 M236.9 65.48 C258.72 39.52, 279.16 15.42, 293.32 0.57 M247.53 65.44 C262.91 49.02, 278.76 30.12, 303.29 1.29 M247.53 65.44 C267.56 41.76, 286.85 19.96, 303.29 1.29 M258.16 65.41 C271.95 46.53, 288.67 29.51, 309.98 5.79 M258.16 65.41 C273.89 46.86, 288.55 29.2, 309.98 5.79 M268.79 65.38 C284.57 49.69, 300.37 29.29, 313.4 14.06 M268.79 65.38 C278.96 51.23, 292.01 39.44, 313.4 14.06 M279.42 65.34 C290 52.23, 297.83 41.28, 313.53 26.1 M279.42 65.34 C287.39 55.26, 294.6 47.33, 313.53 26.1 M290.05 65.31 C295.76 58.75, 299 54.25, 313.66 38.14 M290.05 65.31 C295.56 57.68, 302.18 49.37, 313.66 38.14 M301.33 64.52 C305.49 59.17, 310.57 52.87, 313.8 50.18 M301.33 64.52 C305.96 60.13, 310.42 54.66, 313.8 50.18" stroke="#a5d8ff" stroke-width="1" fill="none"></path><path d="M16.29 0 C113.2 -2.68, 207.84 -0.6, 297.46 0 M16.29 0 C129.27 0.66, 240.37 1, 297.46 0 M297.46 0 C308.08 0.63, 313.4 7.08, 313.75 16.29 M297.46 0 C308.53 -2.25, 313.25 3.19, 313.75 16.29 M313.75 16.29 C315.03 28.72, 314.25 41.08, 313.75 48.87 M313.75 16.29 C313.24 25.57, 314.4 34.8, 313.75 48.87 M313.75 48.87 C315.43 60.59, 306.75 65.47, 297.46 65.16 M313.75 48.87 C315.54 58.28, 310.02 63.65, 297.46 65.16 M297.46 65.16 C199.54 64.97, 103.2 67.14, 16.29 65.16 M297.46 65.16 C205.44 65.83, 113.09 66.46, 16.29 65.16 M16.29 65.16 C4.66 66.87, 0.3 59.58, 0 48.87 M16.29 65.16 C3.5 67.39, -2.23 61.56, 0 48.87 M0 48.87 C-2.06 37.72, -0.07 25.24, 0 16.29 M0 48.87 C-0.77 41.17, -0.84 34.63, 0 16.29 M0 16.29 C-0.03 3.83, 5.46 1.04, 16.29 0 M0 16.29 C-1.74 6.41, 3.85 1.62, 16.29 0" stroke="#1971c2" stroke-width="2" fill="none"></path></g><g transform="translate(310.27840927325747 662.9012063749672) rotate(0 40.016754150390625 19.4944109528156)"><text x="40.016754150390625" y="0" font-family="Virgil, Segoe UI Emoji" font-size="31.191057524504977px" fill="#1971c2" text-anchor="middle" style="white-space: pre;" direction="ltr" dominant-baseline="text-before-edge">c-app</text></g><g stroke-linecap="round" transform="translate(102.67685049790248 380.91934781260966) rotate(0 238.87743379019867 32.57933813781753)"><path d="M4.34 3.77 C4.34 3.77, 4.34 3.77, 4.34 3.77 M4.34 3.77 C4.34 3.77, 4.34 3.77, 4.34 3.77 M2.5 18.07 C7.05 10.04, 13.74 4.4, 17.59 0.72 M2.5 18.07 C8.12 10.48, 15.23 4.58, 17.59 0.72 M2.63 30.12 C8.57 23.39, 18.63 13.84, 28.22 0.68 M2.63 30.12 C8.37 23.48, 14.97 16.52, 28.22 0.68 M2.77 42.16 C13.48 29.95, 23.63 19.14, 38.85 0.65 M2.77 42.16 C14.3 29.15, 25.39 16.48, 38.85 0.65 M0.93 56.46 C13.04 44.87, 23.58 32.62, 49.48 0.61 M0.93 56.46 C10.09 45.16, 21.49 33.47, 49.48 0.61 M6.31 62.46 C25.91 41.65, 45.63 18.59, 59.45 1.33 M6.31 62.46 C24.25 42.11, 43.43 20.47, 59.45 1.33 M13.66 66.2 C27.21 51.3, 45.55 33.08, 70.08 1.3 M13.66 66.2 C34.93 42.79, 55.16 18.21, 70.08 1.3 M24.29 66.17 C42.36 45.62, 59.51 25.02, 80.71 1.26 M24.29 66.17 C44.95 41.97, 64.19 19.86, 80.71 1.26 M34.92 66.13 C50.72 49.21, 60.44 35.86, 91.34 1.23 M34.92 66.13 C46.85 52.02, 59.9 35.8, 91.34 1.23 M45.55 66.1 C67.33 44.59, 86.24 23.82, 101.97 1.19 M45.55 66.1 C64.16 43.81, 83.79 22.26, 101.97 1.19 M56.18 66.07 C75.35 47.79, 91.17 26.69, 112.61 1.16 M56.18 66.07 C77.02 42.26, 96.5 18.06, 112.61 1.16 M66.81 66.03 C83.73 49.11, 99.09 29.74, 123.24 1.13 M66.81 66.03 C86.62 40.89, 109.01 17.5, 123.24 1.13 M77.44 66 C92.96 47.97, 108.78 34.16, 133.87 1.09 M77.44 66 C89.19 51.68, 101.47 38.7, 133.87 1.09 M88.07 65.96 C103 52.35, 113.02 36.58, 144.5 1.06 M88.07 65.96 C104.68 47.07, 121.44 26.91, 144.5 1.06 M98.7 65.93 C113.48 48.51, 131.53 28.49, 155.13 1.02 M98.7 65.93 C115.49 46.03, 132.25 27, 155.13 1.02 M109.33 65.89 C130.33 41.33, 150.17 18.52, 165.76 0.99 M109.33 65.89 C122.54 51.85, 135.15 36.61, 165.76 0.99 M119.96 65.86 C133.43 53.52, 142 38.43, 176.39 0.95 M119.96 65.86 C141.62 42.05, 161.13 18.55, 176.39 0.95 M130.59 65.82 C145.64 45.76, 164.64 27.31, 187.02 0.92 M130.59 65.82 C143.18 51.21, 156.58 35.82, 187.02 0.92 M141.22 65.79 C154.07 51.27, 164.68 40.7, 197.65 0.88 M141.22 65.79 C158.52 44.71, 175.8 24.06, 197.65 0.88 M151.85 65.75 C167.05 47.39, 184.04 26.35, 208.28 0.85 M151.85 65.75 C164.87 51.24, 177.51 35.04, 208.28 0.85 M161.83 66.47 C182.12 45.16, 198.71 23.1, 218.91 0.82 M161.83 66.47 C173.26 52.8, 185.95 38.29, 218.91 0.82 M172.46 66.44 C191.67 46.17, 211.7 22.9, 229.54 0.78 M172.46 66.44 C194.1 42, 213.09 18.05, 229.54 0.78 M183.09 66.41 C204.53 39.03, 226.21 13.31, 240.17 0.75 M183.09 66.41 C197.79 48.89, 213.88 31.15, 240.17 0.75 M193.72 66.37 C212.96 43.5, 236.09 16.93, 250.8 0.71 M193.72 66.37 C215.36 40.7, 238.5 12.71, 250.8 0.71 M204.35 66.34 C215.75 52.27, 229.3 33.48, 260.77 1.43 M204.35 66.34 C222.31 45.06, 240.19 25.2, 260.77 1.43 M214.98 66.3 C230.76 49.61, 244.22 33.8, 271.4 1.4 M214.98 66.3 C230.9 49.47, 246.01 31.01, 271.4 1.4 M225.61 66.27 C240.86 48.25, 257.91 27.77, 282.03 1.36 M225.61 66.27 C240.24 49.31, 255.29 31.29, 282.03 1.36 M236.24 66.23 C255.72 45.84, 270.49 25.88, 292.66 1.33 M236.24 66.23 C246.82 54.12, 258.91 41.07, 292.66 1.33 M246.87 66.2 C258.88 51.13, 270.21 37.23, 303.29 1.29 M246.87 66.2 C262.88 46.48, 280.68 28.13, 303.29 1.29 M257.5 66.16 C273.88 46.69, 293.18 26.47, 313.92 1.26 M257.5 66.16 C277.73 42.62, 297.88 18.71, 313.92 1.26 M268.13 66.13 C282.42 49.65, 298.67 30, 324.55 1.22 M268.13 66.13 C285.22 48.18, 301.26 27.87, 324.55 1.22 M278.76 66.1 C295.12 49.63, 311.35 29.12, 335.18 1.19 M278.76 66.1 C300.71 40.25, 323.71 15.84, 335.18 1.19 M289.39 66.06 C308.08 43.61, 329.48 22.47, 345.81 1.16 M289.39 66.06 C306.2 45.84, 325.63 24.89, 345.81 1.16 M300.02 66.03 C314.02 46.63, 331.88 29.82, 356.44 1.12 M300.02 66.03 C319.28 44.73, 335.91 25.52, 356.44 1.12 M310.65 65.99 C326.53 50.38, 341.5 34.34, 367.07 1.09 M310.65 65.99 C321.46 53.36, 332.63 38.87, 367.07 1.09 M321.28 65.96 C338.09 50.25, 352.71 32.68, 377.7 1.05 M321.28 65.96 C333.11 51.87, 343.39 38.99, 377.7 1.05 M331.91 65.92 C350.9 42.42, 370.88 21.71, 388.33 1.02 M331.91 65.92 C351.16 42.73, 371.95 20.04, 388.33 1.02 M342.54 65.89 C358.29 48.76, 370.32 33.49, 398.96 0.98 M342.54 65.89 C360.99 44.9, 379.11 24.59, 398.96 0.98 M352.51 66.61 C367.54 49.29, 379.91 34.24, 409.59 0.95 M352.51 66.61 C372.57 43.61, 390.29 21.85, 409.59 0.95 M363.14 66.57 C377.37 51.15, 390.59 35.08, 420.22 0.91 M363.14 66.57 C382.91 44.56, 402.94 20.97, 420.22 0.91 M373.77 66.54 C392.52 47.18, 410.3 25.08, 430.85 0.88 M373.77 66.54 C391.46 47.44, 406.51 28.75, 430.85 0.88 M384.4 66.51 C398.2 52.27, 410.8 39.71, 441.48 0.85 M384.4 66.51 C407.3 42.53, 428.69 15.16, 441.48 0.85 M395.03 66.47 C408.56 53.76, 419.3 41.32, 451.46 1.57 M395.03 66.47 C412.16 45.59, 429.4 26.37, 451.46 1.57 M405.66 66.44 C423.09 46.81, 440.81 26.51, 462.09 1.53 M405.66 66.44 C426.38 42, 448.38 16.4, 462.09 1.53 M416.29 66.4 C430.45 47.61, 446.77 30.81, 472.06 2.25 M416.29 66.4 C431.16 48.68, 445.17 31.82, 472.06 2.25 M426.93 66.37 C445.7 44.2, 460.25 25.73, 476.79 9.01 M426.93 66.37 C440.55 51.81, 452.73 37.47, 476.79 9.01 M437.56 66.33 C448.16 54.35, 454.31 43.68, 482.82 14.26 M437.56 66.33 C455.95 45.58, 472.33 25.17, 482.82 14.26 M448.19 66.3 C456.82 55.77, 463.19 47.57, 482.96 26.3 M448.19 66.3 C461.21 50.93, 475.02 36.09, 482.96 26.3 M458.82 66.26 C468.41 56.66, 475.26 46.94, 483.09 38.34 M458.82 66.26 C464.98 58.86, 473.71 50.68, 483.09 38.34" stroke="#ffc9c9" stroke-width="1" fill="none"></path><path d="M16.29 0 C141.45 0.01, 265.51 -0.36, 461.47 0 M16.29 0 C134.22 1.64, 252.25 1.68, 461.47 0 M461.47 0 C470.89 1.6, 478.14 4.62, 477.75 16.29 M461.47 0 C470.58 2.27, 477.6 5.68, 477.75 16.29 M477.75 16.29 C478.57 25.7, 476.95 36.33, 477.75 48.87 M477.75 16.29 C478.07 24.73, 476.99 31.49, 477.75 48.87 M477.75 48.87 C478.67 58.89, 470.84 67, 461.47 65.16 M477.75 48.87 C478.62 60.38, 472.97 63.68, 461.47 65.16 M461.47 65.16 C287 66.49, 112.69 65.66, 16.29 65.16 M461.47 65.16 C325.73 65.91, 190.97 66.03, 16.29 65.16 M16.29 65.16 C4.12 67.05, 0.08 58.49, 0 48.87 M16.29 65.16 C5.08 64.74, 1.4 61.1, 0 48.87 M0 48.87 C1.24 38.28, 0.28 28.44, 0 16.29 M0 48.87 C0.4 41.99, 0.54 34.82, 0 16.29 M0 16.29 C1.51 3.74, 4.3 -0.93, 16.29 0 M0 16.29 C0.24 6.58, 4 0.28, 16.29 0" stroke="#e03131" stroke-width="2" fill="none"></path></g><g transform="translate(318.9883358017735 394.00427499761156) rotate(0 22.565948486328125 19.4944109528156)"><text x="22.565948486328125" y="0" font-family="Virgil, Segoe UI Emoji" font-size="31.191057524504977px" fill="#e03131" text-anchor="middle" style="white-space: pre;" direction="ltr" dominant-baseline="text-before-edge">s-p</text></g><g stroke-linecap="round" transform="translate(225.38068556429357 762.4049384674008) rotate(0 118.31706378226659 24.5)"><path d="M3.26 2.83 C3.26 2.83, 3.26 2.83, 3.26 2.83 M3.26 2.83 C3.26 2.83, 3.26 2.83, 3.26 2.83 M0.11 18.65 C6.1 13.2, 9.73 6.81, 16.52 -0.22 M0.11 18.65 C6.89 11.3, 12.52 3.67, 16.52 -0.22 M0.9 29.94 C10.92 18.81, 19.34 7.46, 27.15 -0.25 M0.9 29.94 C7.68 21.14, 14.69 13.38, 27.15 -0.25 M1.04 41.98 C13.8 29.54, 24.79 15.64, 37.78 -0.29 M1.04 41.98 C15.36 24.53, 30.23 9.01, 37.78 -0.29 M6.42 47.98 C21.35 30.61, 39.53 12.79, 47.75 0.43 M6.42 47.98 C19.26 34.23, 31.58 21.51, 47.75 0.43 M16.39 48.7 C27.36 35.25, 37.19 23.42, 58.38 0.4 M16.39 48.7 C28.68 35.32, 39.32 23.06, 58.38 0.4 M27.02 48.66 C42.23 33.84, 52.75 16.97, 69.01 0.36 M27.02 48.66 C37.74 37.52, 46.52 26.44, 69.01 0.36 M37.65 48.63 C51.87 33.1, 69.06 15.66, 79.64 0.33 M37.65 48.63 C52.61 32.25, 68.22 14.39, 79.64 0.33 M47.63 49.35 C63.91 33.11, 78.81 14.61, 90.27 0.29 M47.63 49.35 C63.63 30.69, 81.08 11.86, 90.27 0.29 M58.26 49.32 C67.35 36.41, 80.39 24.81, 100.9 0.26 M58.26 49.32 C74.54 32.14, 90.4 12.65, 100.9 0.26 M68.89 49.28 C87.13 29.59, 101.12 10.08, 111.53 0.23 M68.89 49.28 C84.02 33.17, 98.19 15.3, 111.53 0.23 M79.52 49.25 C95.36 27.81, 113.66 10.86, 122.16 0.19 M79.52 49.25 C89.69 37.15, 101.08 25.68, 122.16 0.19 M90.15 49.21 C107.11 30.11, 125.37 9.14, 132.79 0.16 M90.15 49.21 C102.05 34.45, 114.87 20.34, 132.79 0.16 M100.78 49.18 C108.99 39.95, 118.08 27.52, 143.42 0.12 M100.78 49.18 C115.76 30.85, 131.8 14.36, 143.42 0.12 M111.41 49.14 C122.26 33.16, 135.45 18.58, 154.05 0.09 M111.41 49.14 C129.06 29.28, 146.19 10.54, 154.05 0.09 M122.04 49.11 C134.94 36.09, 144.73 23.11, 164.68 0.05 M122.04 49.11 C135.14 34.88, 146.88 20.31, 164.68 0.05 M132.67 49.07 C143.94 34.3, 156.18 20.56, 175.31 0.02 M132.67 49.07 C149.92 30.07, 167.88 10.4, 175.31 0.02 M143.3 49.04 C157.19 35.15, 164.94 20.42, 185.94 -0.02 M143.3 49.04 C153.44 37.92, 163.52 26.91, 185.94 -0.02 M153.93 49.01 C162.74 36.79, 174.28 23.86, 196.57 -0.05 M153.93 49.01 C169.29 31.67, 184.51 13.81, 196.57 -0.05 M164.56 48.97 C179.87 32.1, 192.56 17.24, 207.2 -0.09 M164.56 48.97 C180.73 30.24, 197.73 10.33, 207.2 -0.09 M175.19 48.94 C184.69 35.35, 195.37 24.84, 217.83 -0.12 M175.19 48.94 C190.31 29.3, 207.37 10.67, 217.83 -0.12 M185.82 48.9 C195.67 36.92, 206.4 23.89, 227.8 0.6 M185.82 48.9 C193.42 38.02, 201.75 30.12, 227.8 0.6 M196.45 48.87 C203.55 38.34, 211.02 27.79, 234.5 5.09 M196.45 48.87 C205.25 37.37, 215.17 27.77, 234.5 5.09 M207.08 48.83 C214.22 40.94, 222.12 33.93, 236.6 14.87 M207.08 48.83 C216.76 37.37, 226.4 26.47, 236.6 14.87 M217.71 48.8 C226.32 42.47, 233.39 32.95, 236.73 26.91 M217.71 48.8 C224.94 41.05, 232.41 32.15, 236.73 26.91 M228.99 48.01 C230.75 46.24, 232.45 42.66, 236.87 38.95 M228.99 48.01 C230.28 46.73, 232.5 44.52, 236.87 38.95" stroke="#ffc9c9" stroke-width="1" fill="none"></path><path d="M12.25 0 C90.07 -0.02, 165.17 0.04, 224.38 0 M12.25 0 C68.48 1.38, 126.74 0.71, 224.38 0 M224.38 0 C231.18 0.65, 235.35 3.13, 236.63 12.25 M224.38 0 C231.03 -0.46, 237.61 3.36, 236.63 12.25 M236.63 12.25 C237.08 21.64, 235.6 32.63, 236.63 36.75 M236.63 12.25 C235.61 20.93, 237.13 27.68, 236.63 36.75 M236.63 36.75 C237.84 46.01, 232.58 49.64, 224.38 49 M236.63 36.75 C236.47 44.67, 232.79 50.69, 224.38 49 M224.38 49 C147.72 50.17, 71.39 49.59, 12.25 49 M224.38 49 C181.95 50.64, 139.04 49.93, 12.25 49 M12.25 49 C2.63 47.19, -0.62 46.76, 0 36.75 M12.25 49 C3.32 48.91, -0.1 46.53, 0 36.75 M0 36.75 C1.73 29.04, 1.17 24.58, 0 12.25 M0 36.75 C0.58 30.47, 0.74 25.47, 0 12.25 M0 12.25 C-1.63 2.84, 5.99 0.85, 12.25 0 M0 12.25 C-1.63 5.96, 2.6 -1.97, 12.25 0" stroke="#e03131" stroke-width="2" fill="none"></path></g><g transform="translate(321.7711898983182 767.4105275145852) rotate(0 21.926559448242188 19.4944109528156)"><text x="21.926559448242188" y="0" font-family="Virgil, Segoe UI Emoji" font-size="31.191057524504977px" fill="#e03131" text-anchor="middle" style="white-space: pre;" direction="ltr" dominant-baseline="text-before-edge">c-p</text></g><g stroke-linecap="round" transform="translate(917.5831088886755 503.2852196735721) rotate(0 202.5832582050857 32.8613841469778)"><path d="M4.37 3.8 C4.37 3.8, 4.37 3.8, 4.37 3.8 M4.37 3.8 C4.37 3.8, 4.37 3.8, 4.37 3.8 M2.54 18.11 C6.96 9.36, 15.05 4.64, 17.63 0.75 M2.54 18.11 C5.59 15.29, 9.4 10.52, 17.63 0.75 M2.67 30.15 C10.87 20.67, 21.76 7.04, 28.26 0.71 M2.67 30.15 C8.94 24.62, 13.7 18.39, 28.26 0.71 M2.8 42.19 C13.48 30.76, 22.74 17.36, 38.89 0.68 M2.8 42.19 C14.92 27.1, 28.85 11.09, 38.89 0.68 M2.94 54.23 C17.58 36.66, 31.87 22.1, 49.52 0.65 M2.94 54.23 C17.88 37, 32.33 17.95, 49.52 0.65 M7.01 61.74 C23.27 40.18, 41.96 23.11, 60.15 0.61 M7.01 61.74 C26.93 39.55, 46.19 17.28, 60.15 0.61 M13.7 66.24 C34.6 39.11, 59.57 14.56, 70.78 0.58 M13.7 66.24 C24.56 52.2, 37.75 39.28, 70.78 0.58 M24.33 66.2 C43.92 44.57, 67.63 20.88, 80.75 1.3 M24.33 66.2 C39.82 49.56, 54.28 33.06, 80.75 1.3 M34.96 66.17 C47.44 52.53, 59.58 42.07, 91.38 1.26 M34.96 66.17 C51.32 47.78, 69.72 27.72, 91.38 1.26 M45.59 66.13 C61.57 48.63, 79.47 29.28, 102.01 1.23 M45.59 66.13 C60.73 50.25, 73.64 32.51, 102.01 1.23 M56.22 66.1 C79.39 39.83, 100.08 15.27, 112.64 1.19 M56.22 66.1 C73.39 47.6, 87.86 29.71, 112.64 1.19 M66.85 66.06 C81.33 50.43, 96.49 33.99, 123.27 1.16 M66.85 66.06 C79 52.5, 89.6 40.21, 123.27 1.16 M77.48 66.03 C90.06 50.38, 102.58 38.55, 133.9 1.12 M77.48 66.03 C96 44.85, 115.15 23.85, 133.9 1.12 M87.46 66.75 C102.72 49.13, 120.39 25.89, 144.53 1.09 M87.46 66.75 C104.85 45.3, 124.05 24.23, 144.53 1.09 M98.09 66.71 C115.65 49.43, 130.96 27.18, 155.16 1.05 M98.09 66.71 C111.39 52.55, 122.21 37.24, 155.16 1.05 M108.72 66.68 C124.15 48.99, 135.35 36.27, 165.79 1.02 M108.72 66.68 C125.29 49.13, 140.94 31.61, 165.79 1.02 M119.35 66.65 C132.65 52.72, 144.32 36.41, 176.42 0.99 M119.35 66.65 C131.96 51.25, 146.57 35.5, 176.42 0.99 M129.98 66.61 C151.4 41.7, 172.75 15.12, 187.05 0.95 M129.98 66.61 C147.3 46.24, 164.87 25.58, 187.05 0.95 M140.61 66.58 C160.6 47.29, 177.05 26.37, 197.68 0.92 M140.61 66.58 C155.93 48.65, 172.4 29.88, 197.68 0.92 M151.24 66.54 C169.33 45.77, 188.07 24.53, 208.31 0.88 M151.24 66.54 C168.22 46.86, 183.67 27.48, 208.31 0.88 M161.87 66.51 C180.81 43.87, 202.9 20.26, 218.94 0.85 M161.87 66.51 C182.71 43.76, 203.46 19.62, 218.94 0.85 M172.5 66.47 C184.94 52.26, 202.28 34.92, 229.57 0.81 M172.5 66.47 C188.8 47.36, 206.04 27.93, 229.57 0.81 M183.13 66.44 C201.67 43.7, 223.82 20.02, 240.2 0.78 M183.13 66.44 C198.29 48.36, 213.64 30.83, 240.2 0.78 M193.76 66.4 C216.17 40.78, 234.14 17.84, 250.83 0.74 M193.76 66.4 C217.15 41.3, 239.89 14.46, 250.83 0.74 M204.39 66.37 C217.01 51.17, 231.75 35.7, 261.46 0.71 M204.39 66.37 C224.18 42.95, 245.83 18.5, 261.46 0.71 M215.02 66.34 C229.11 48.83, 245.25 29.48, 271.44 1.43 M215.02 66.34 C231.02 48.29, 245.84 31.36, 271.44 1.43 M225.65 66.3 C244.34 42.64, 266.6 20.65, 282.07 1.4 M225.65 66.3 C244.13 45.32, 263.64 23.57, 282.07 1.4 M236.28 66.27 C250.18 48.67, 267.2 29.35, 292.7 1.36 M236.28 66.27 C248.99 50.51, 261.9 35.18, 292.7 1.36 M246.91 66.23 C267.61 41.85, 289.76 19.18, 303.33 1.33 M246.91 66.23 C260.04 49.98, 273.62 36.13, 303.33 1.33 M257.54 66.2 C276.47 41.86, 299.29 19.27, 313.96 1.29 M257.54 66.2 C277.48 42.21, 297.97 18.72, 313.96 1.29 M268.17 66.16 C290.11 42.83, 309.76 17.75, 324.59 1.26 M268.17 66.16 C287.02 46.13, 302.98 25.86, 324.59 1.26 M278.14 66.88 C293.01 49.91, 309.44 31.16, 335.22 1.22 M278.14 66.88 C288.81 53.52, 302.12 40.92, 335.22 1.22 M288.77 66.85 C309.5 44.03, 326.53 23.69, 345.85 1.19 M288.77 66.85 C307.41 46.94, 325.38 25.35, 345.85 1.19 M299.4 66.81 C313.45 49.71, 324.6 37.1, 356.48 1.15 M299.4 66.81 C312.02 51.42, 325.3 35.3, 356.48 1.15 M310.03 66.78 C328.57 46.16, 342.11 28.75, 367.11 1.12 M310.03 66.78 C333.51 40.79, 355.32 16.06, 367.11 1.12 M320.66 66.74 C332.94 53.75, 346.05 38.74, 377.74 1.09 M320.66 66.74 C333.96 53.88, 345.22 39.73, 377.74 1.09 M331.29 66.71 C349.58 42.5, 370.71 20.25, 388.37 1.05 M331.29 66.71 C343.47 51.61, 356.27 36.09, 388.37 1.05 M341.92 66.68 C356.36 46.38, 376.28 28.79, 396.37 4.03 M341.92 66.68 C355.45 50.23, 369.6 36.4, 396.37 4.03 M352.55 66.64 C370.51 47.34, 383.29 32.23, 404.38 7.02 M352.55 66.64 C366.76 51.07, 381.93 33.63, 404.38 7.02 M363.18 66.61 C373.98 51.18, 387.32 37.91, 409.11 13.78 M363.18 66.61 C377.78 50.04, 390.24 35.52, 409.11 13.78 M373.81 66.57 C386.29 49.67, 400.93 36.9, 409.24 25.82 M373.81 66.57 C386.4 53.44, 398.99 38.24, 409.24 25.82 M384.44 66.54 C389.73 59.42, 395.81 50.46, 409.37 37.86 M384.44 66.54 C392.76 58.67, 399.42 49.48, 409.37 37.86 M396.38 64.99 C399.59 61.96, 401.49 59.67, 406.23 53.67 M396.38 64.99 C398.38 63.21, 401.06 60.03, 406.23 53.67" stroke="#a5d8ff" stroke-width="1" fill="none"></path><path d="M16.43 0 C159.79 1.47, 303.23 1.62, 388.74 0 M16.43 0 C108.39 -1.23, 199.45 -0.33, 388.74 0 M388.74 0 C401.35 -0.62, 405.35 7.31, 405.17 16.43 M388.74 0 C399.61 0.95, 403.4 6.72, 405.17 16.43 M405.17 16.43 C404.27 28.63, 405.8 38.58, 405.17 49.29 M405.17 16.43 C405.05 26.04, 405.91 36.11, 405.17 49.29 M405.17 49.29 C405.75 61.22, 400.29 65.94, 388.74 65.72 M405.17 49.29 C405.01 59.41, 398.83 65.75, 388.74 65.72 M388.74 65.72 C252.03 65.85, 116.41 65.65, 16.43 65.72 M388.74 65.72 C278.95 63.52, 168.83 62.96, 16.43 65.72 M16.43 65.72 C6.52 66.58, 0.95 59.79, 0 49.29 M16.43 65.72 C7.01 63.75, 0.61 61.32, 0 49.29 M0 49.29 C-1.58 41.26, -1.95 31.16, 0 16.43 M0 49.29 C-0.64 40.59, 0.77 31.16, 0 16.43 M0 16.43 C1.42 5.35, 6.42 -1.93, 16.43 0 M0 16.43 C-0.69 6.01, 6.39 -0.32, 16.43 0" stroke="#1971c2" stroke-width="2" fill="none"></path></g><g transform="translate(1079.510223905285 516.6521928677344) rotate(0 40.65614318847656 19.494410952815628)"><text x="40.65614318847656" y="0" font-family="Virgil, Segoe UI Emoji" font-size="31.191057524504977px" fill="#1971c2" text-anchor="middle" style="white-space: pre;" direction="ltr" dominant-baseline="text-before-edge">s-app</text></g><g stroke-linecap="round" transform="translate(943.794840017694 579.8827467298852) rotate(0 176.16847792263457 32.57933777374768)"><path d="M4.34 3.77 C4.34 3.77, 4.34 3.77, 4.34 3.77 M4.34 3.77 C4.34 3.77, 4.34 3.77, 4.34 3.77 M-0.12 21.09 C1.96 16.94, 5.77 11.96, 18.25 -0.04 M-0.12 21.09 C7.67 13.07, 14.97 4.09, 18.25 -0.04 M0.67 32.38 C9.74 21.49, 21.08 9.67, 28.22 0.68 M0.67 32.38 C10.47 20.27, 21.02 9.21, 28.22 0.68 M0.8 44.42 C15.31 30.98, 27.06 13.27, 38.85 0.65 M0.8 44.42 C12.04 32.26, 23.73 19.24, 38.85 0.65 M0.93 56.46 C11.94 44.6, 23.02 31.14, 49.48 0.61 M0.93 56.46 C18.65 36.44, 36.44 17.26, 49.48 0.61 M6.31 62.46 C18.47 49.59, 29.76 37.94, 60.11 0.58 M6.31 62.46 C25.01 42.15, 41.81 20.02, 60.11 0.58 M14.32 65.45 C24.18 52.06, 37.83 36.07, 70.74 0.54 M14.32 65.45 C27.15 49.93, 39.39 35.45, 70.74 0.54 M24.95 65.41 C45.86 39.25, 68.77 15.15, 81.37 0.51 M24.95 65.41 C42.06 43.65, 60.85 23.15, 81.37 0.51 M35.58 65.38 C49.66 48.14, 62.35 29.91, 92 0.47 M35.58 65.38 C56.43 40.33, 76.97 15.76, 92 0.47 M46.21 65.34 C65.51 41.76, 85.69 19.81, 102.63 0.44 M46.21 65.34 C66.89 43.79, 85.71 22.09, 102.63 0.44 M56.84 65.31 C70.48 49.14, 84.04 34.89, 113.26 0.41 M56.84 65.31 C73.67 44.62, 91.73 26.27, 113.26 0.41 M67.47 65.28 C83.5 44.86, 102.36 24.63, 123.89 0.37 M67.47 65.28 C79.24 50, 92.12 36.1, 123.89 0.37 M78.1 65.24 C90.66 52.74, 100.13 38.06, 134.52 0.34 M78.1 65.24 C94.26 46.72, 109.76 26.25, 134.52 0.34 M88.73 65.21 C111.49 42.32, 133.18 14.62, 145.15 0.3 M88.73 65.21 C103.07 48.05, 117.5 31.62, 145.15 0.3 M99.36 65.17 C119.54 41.01, 144.46 17.73, 155.78 0.27 M99.36 65.17 C120.15 41.24, 141.75 18.13, 155.78 0.27 M109.99 65.14 C121.29 52.12, 131.26 40.1, 166.41 0.23 M109.99 65.14 C126.46 44.97, 144.96 24.56, 166.41 0.23 M119.96 65.86 C136.64 46, 157.67 23.29, 177.04 0.2 M119.96 65.86 C140.46 41.97, 159.4 19.23, 177.04 0.2 M130.59 65.82 C148.19 47.67, 165.34 27.3, 187.67 0.16 M130.59 65.82 C147.02 46.66, 163.09 29.2, 187.67 0.16 M141.22 65.79 C163.33 40.18, 186.86 13.17, 198.3 0.13 M141.22 65.79 C162.01 41.23, 183.32 17.71, 198.3 0.13 M151.85 65.75 C173.06 42.41, 193.17 18.16, 208.93 0.09 M151.85 65.75 C167.07 50.61, 179.97 33.35, 208.93 0.09 M162.48 65.72 C179.27 46.31, 194.04 29.16, 218.91 0.82 M162.48 65.72 C180.24 43.78, 198.82 21.64, 218.91 0.82 M173.11 65.69 C193.19 39.92, 215.25 16.17, 229.54 0.78 M173.11 65.69 C192.07 45.23, 209.08 22.96, 229.54 0.78 M183.75 65.65 C201.26 45.81, 220.95 23.82, 240.17 0.75 M183.75 65.65 C202.3 44.68, 220.01 25.3, 240.17 0.75 M194.38 65.62 C209.71 49.11, 221.71 36.54, 250.8 0.71 M194.38 65.62 C215.73 39.58, 239.22 13.57, 250.8 0.71 M205.01 65.58 C223.3 45.43, 241.42 24.33, 261.43 0.68 M205.01 65.58 C224.08 44, 243.97 19.83, 261.43 0.68 M215.64 65.55 C235.24 42.41, 254.74 21.51, 272.06 0.64 M215.64 65.55 C227.99 52.02, 239.42 37.3, 272.06 0.64 M226.27 65.51 C243.55 45.23, 260.99 25.8, 282.69 0.61 M226.27 65.51 C248.25 38.76, 270.07 12.51, 282.69 0.61 M236.9 65.48 C252 48.37, 270.43 28.28, 293.32 0.57 M236.9 65.48 C252.8 47.52, 266.15 30.98, 293.32 0.57 M247.53 65.44 C259.35 49.44, 274.69 33.85, 303.95 0.54 M247.53 65.44 C260.95 50.28, 272.85 34.92, 303.95 0.54 M258.16 65.41 C274.96 48.69, 290.24 28.86, 314.58 0.5 M258.16 65.41 C276.97 44.73, 293.35 24.82, 314.58 0.5 M268.79 65.38 C286.66 43.91, 303.42 26.66, 325.21 0.47 M268.79 65.38 C286.14 45.44, 303.04 25.72, 325.21 0.47 M279.42 65.34 C294.43 45.93, 312.8 24.23, 335.84 0.44 M279.42 65.34 C294.6 46.31, 309.66 30.29, 335.84 0.44 M290.05 65.31 C301.77 51.77, 311.91 40.32, 345.15 1.91 M290.05 65.31 C306.25 46.33, 325.31 26.19, 345.15 1.91 M300.68 65.27 C311.95 51.35, 325.94 35.54, 350.54 7.91 M300.68 65.27 C316.82 46.94, 333.73 30.03, 350.54 7.91 M310.65 65.99 C322.84 53.85, 330 44.52, 351.98 18.45 M310.65 65.99 C320.07 53.01, 330.35 41.59, 351.98 18.45 M321.28 65.96 C329.42 53.83, 339.67 44.86, 352.11 30.49 M321.28 65.96 C333.33 52.34, 344.35 38.35, 352.11 30.49 M331.91 65.92 C335.31 60.29, 343.04 53.48, 352.25 42.53 M331.91 65.92 C338.34 59.06, 344.71 50.75, 352.25 42.53 M344.51 63.62 C345.59 61.68, 348.5 59.77, 351.73 55.32 M344.51 63.62 C346.14 61.27, 347.63 60.18, 351.73 55.32" stroke="#a5d8ff" stroke-width="1" fill="none"></path><path d="M16.29 0 C103.83 -0.17, 193.41 1.36, 336.05 0 M16.29 0 C93.13 -2.15, 168.87 -1.29, 336.05 0 M336.05 0 C346.84 0.83, 350.8 6.51, 352.34 16.29 M336.05 0 C347.46 1.8, 354.06 4.1, 352.34 16.29 M352.34 16.29 C352.22 30.12, 350.78 40.14, 352.34 48.87 M352.34 16.29 C352.79 26.67, 352.79 36.18, 352.34 48.87 M352.34 48.87 C352.2 59, 346.16 65.18, 336.05 65.16 M352.34 48.87 C353.84 60.93, 346.88 63.97, 336.05 65.16 M336.05 65.16 C235.96 65.93, 134.65 65.4, 16.29 65.16 M336.05 65.16 C240.1 63.43, 143.76 62.97, 16.29 65.16 M16.29 65.16 C6.77 63.44, 0.53 60.67, 0 48.87 M16.29 65.16 C4.44 65.76, -0.34 58.01, 0 48.87 M0 48.87 C0.05 39.69, -1.65 27.12, 0 16.29 M0 48.87 C0.39 36.63, 0.15 23.56, 0 16.29 M0 16.29 C-0.6 5.89, 6.22 -0.28, 16.29 0 M0 16.29 C2.25 5.54, 3.41 -1.46, 16.29 0" stroke="#1971c2" stroke-width="2" fill="none"></path></g><g transform="translate(1094.184791634176 592.9676735508173) rotate(0 25.778526306152344 19.4944109528156)"><text x="25.778526306152344" y="0" font-family="Virgil, Segoe UI Emoji" font-size="31.191057524504977px" fill="#1971c2" text-anchor="middle" style="white-space: pre;" direction="ltr" dominant-baseline="text-before-edge">app</text></g><g stroke-linecap="round" transform="translate(965.9742425534598 654.6838235289142) rotate(0 156.87717152341634 32.57933813781756)"><path d="M4.34 3.77 C4.34 3.77, 4.34 3.77, 4.34 3.77 M4.34 3.77 C4.34 3.77, 4.34 3.77, 4.34 3.77 M-0.12 21.09 C7.45 15.16, 11.17 9.59, 18.25 -0.04 M-0.12 21.09 C6.32 14.58, 10.77 7.17, 18.25 -0.04 M0.67 32.38 C12.3 20.93, 22.64 8.46, 28.22 0.68 M0.67 32.38 C8.01 23.61, 14.44 16.71, 28.22 0.68 M0.8 44.42 C14.83 28.79, 27 12.23, 38.85 0.65 M0.8 44.42 C13.28 29.6, 27.33 13.71, 38.85 0.65 M0.93 56.46 C17.8 36.11, 30.9 19.88, 49.48 0.61 M0.93 56.46 C9.67 45.49, 20.92 33.95, 49.48 0.61 M6.31 62.46 C23.01 44.51, 39.23 26.29, 60.11 0.58 M6.31 62.46 C25.86 40.41, 46.56 15.54, 60.11 0.58 M14.32 65.45 C31.67 46.07, 51.37 24.13, 70.74 0.54 M14.32 65.45 C26.85 53.4, 38.37 38.71, 70.74 0.54 M24.95 65.41 C42.32 46.63, 59.99 24.38, 81.37 0.51 M24.95 65.41 C40.64 47.88, 57.71 28.98, 81.37 0.51 M35.58 65.38 C54.7 47.39, 70.91 26.59, 92 0.47 M35.58 65.38 C51.61 48.66, 66.42 30.88, 92 0.47 M46.21 65.34 C64.49 43.72, 79.28 27.31, 102.63 0.44 M46.21 65.34 C63.86 43.99, 82.49 22.48, 102.63 0.44 M56.84 65.31 C73.49 44.1, 91.52 25.85, 113.26 0.41 M56.84 65.31 C68.46 52.5, 79.93 37.19, 113.26 0.41 M67.47 65.28 C85.63 42.7, 106.7 18.97, 123.89 0.37 M67.47 65.28 C79.96 50.34, 94.17 35.67, 123.89 0.37 M78.1 65.24 C99.26 42.37, 121.22 17.48, 134.52 0.34 M78.1 65.24 C100.63 40.87, 120 17.51, 134.52 0.34 M88.73 65.21 C110.31 40.93, 132.63 13.73, 145.15 0.3 M88.73 65.21 C105.01 47.24, 118.62 29.37, 145.15 0.3 M99.36 65.17 C117.86 42.78, 133.65 22.83, 155.78 0.27 M99.36 65.17 C115.05 45.09, 133.26 25.99, 155.78 0.27 M109.99 65.14 C129.31 44.78, 149.2 20.66, 166.41 0.23 M109.99 65.14 C131.06 41.04, 150.92 16.1, 166.41 0.23 M119.96 65.86 C139.17 45.79, 157.28 24.81, 177.04 0.2 M119.96 65.86 C133.15 50.5, 145.39 36.22, 177.04 0.2 M130.59 65.82 C150.27 43.06, 169.3 20.1, 187.67 0.16 M130.59 65.82 C144.39 50.32, 157.35 35.68, 187.67 0.16 M141.22 65.79 C161 44.7, 178.9 23.26, 198.3 0.13 M141.22 65.79 C154.03 50.85, 166.97 36.66, 198.3 0.13 M151.85 65.75 C171.6 40.01, 192.18 19.25, 208.93 0.09 M151.85 65.75 C174.06 41.67, 195.52 16.17, 208.93 0.09 M162.48 65.72 C177.66 50.85, 190.15 31.46, 218.91 0.82 M162.48 65.72 C177.73 50.89, 191.09 33.94, 218.91 0.82 M173.11 65.69 C184.93 52.38, 195.86 40.41, 229.54 0.78 M173.11 65.69 C193.3 43.7, 212.77 20.89, 229.54 0.78 M183.75 65.65 C203.55 42.25, 224.18 21.26, 240.17 0.75 M183.75 65.65 C198.02 46.89, 213.86 30.81, 240.17 0.75 M194.38 65.62 C208.38 52.56, 218.71 35.69, 250.8 0.71 M194.38 65.62 C210.08 48.02, 225.77 29.95, 250.8 0.71 M205.01 65.58 C221.96 48.32, 236.42 27.5, 261.43 0.68 M205.01 65.58 C226.72 40.86, 247.53 16.83, 261.43 0.68 M215.64 65.55 C230.1 47.64, 247.02 29.74, 272.06 0.64 M215.64 65.55 C232.81 46.22, 250.84 26.64, 272.06 0.64 M226.27 65.51 C242.69 49.19, 257.22 30.92, 282.69 0.61 M226.27 65.51 C240.66 49.78, 253.89 33.28, 282.69 0.61 M236.9 65.48 C256.08 41.6, 275.9 20.52, 293.32 0.57 M236.9 65.48 C248.28 53.07, 260.15 38.87, 293.32 0.57 M247.53 65.44 C260.83 48.14, 278.77 32.48, 303.29 1.29 M247.53 65.44 C263 48.02, 279.31 30.63, 303.29 1.29 M258.16 65.41 C277.13 42.63, 296.8 23.24, 309.98 5.79 M258.16 65.41 C274.41 47.01, 289.57 29.08, 309.98 5.79 M268.79 65.38 C279.18 51.64, 289.28 40.96, 313.4 14.06 M268.79 65.38 C281.62 51.55, 293.43 35.79, 313.4 14.06 M279.42 65.34 C289.43 55.37, 301.25 42.26, 313.53 26.1 M279.42 65.34 C285.64 57.13, 293.09 48.96, 313.53 26.1 M290.05 65.31 C297.12 59.46, 301.36 48.72, 313.66 38.14 M290.05 65.31 C297.61 54.9, 307.41 45.26, 313.66 38.14 M301.33 64.52 C305.7 58.47, 308.48 55, 313.8 50.18 M301.33 64.52 C303.93 60.12, 307.93 57.75, 313.8 50.18" stroke="#a5d8ff" stroke-width="1" fill="none"></path><path d="M16.29 0 C91.12 -1.51, 169.16 -0.43, 297.46 0 M16.29 0 C91.84 -1.65, 166.86 -1.55, 297.46 0 M297.46 0 C308.81 1.57, 315.25 4.28, 313.75 16.29 M297.46 0 C310.11 0.43, 314.74 5.23, 313.75 16.29 M313.75 16.29 C313.56 29.53, 314.55 41.4, 313.75 48.87 M313.75 16.29 C313.79 27.29, 313.48 39.03, 313.75 48.87 M313.75 48.87 C315.06 60.78, 308.3 64.13, 297.46 65.16 M313.75 48.87 C314.05 59.41, 308.24 65.05, 297.46 65.16 M297.46 65.16 C196.1 65.53, 93.31 66.45, 16.29 65.16 M297.46 65.16 C201.57 64.01, 104.86 65.03, 16.29 65.16 M16.29 65.16 C4.57 65.68, -0.3 58.24, 0 48.87 M16.29 65.16 C5.9 63.02, -1.43 59.43, 0 48.87 M0 48.87 C1.79 39.01, 1.81 26.65, 0 16.29 M0 48.87 C-0.46 39.53, 0.24 29.6, 0 16.29 M0 16.29 C1.96 5.53, 3.67 -1.27, 16.29 0 M0 16.29 C-0.94 6.57, 3.35 1.99, 16.29 0" stroke="#1971c2" stroke-width="2" fill="none"></path></g><g transform="translate(1082.8346599264853 667.7687507139162) rotate(0 40.016754150390625 19.4944109528156)"><text x="40.016754150390625" y="0" font-family="Virgil, Segoe UI Emoji" font-size="31.191057524504977px" fill="#1971c2" text-anchor="middle" style="white-space: pre;" direction="ltr" dominant-baseline="text-before-edge">c-app</text></g><g stroke-linecap="round" transform="translate(875.2331011511308 385.7868921515585) rotate(0 238.8774337901989 32.57933813781753)"><path d="M4.34 3.77 C4.34 3.77, 4.34 3.77, 4.34 3.77 M4.34 3.77 C4.34 3.77, 4.34 3.77, 4.34 3.77 M-0.12 21.09 C6.17 15.93, 10.56 8.92, 18.25 -0.04 M-0.12 21.09 C6.07 14.44, 11.78 9.41, 18.25 -0.04 M0.67 32.38 C8.84 22.69, 18.94 11.94, 28.88 -0.07 M0.67 32.38 C8.15 24.5, 13.46 16.76, 28.88 -0.07 M0.8 44.42 C14.25 31.27, 26.31 15.31, 38.85 0.65 M0.8 44.42 C15.51 28.17, 29.4 11.77, 38.85 0.65 M0.93 56.46 C9.48 46.91, 20.1 31.96, 49.48 0.61 M0.93 56.46 C17.78 37.4, 35.29 17.66, 49.48 0.61 M6.31 62.46 C27.06 38.69, 44.06 15.55, 60.11 0.58 M6.31 62.46 C27.2 39.19, 46.72 15.2, 60.11 0.58 M14.32 65.45 C34.38 40.18, 56.62 16.83, 70.74 0.54 M14.32 65.45 C35.89 40.12, 58.81 14.98, 70.74 0.54 M24.95 65.41 C43.73 42.2, 64.73 19.92, 81.37 0.51 M24.95 65.41 C45.97 39.64, 66.83 16.47, 81.37 0.51 M35.58 65.38 C54.8 40.6, 74.79 20.18, 92 0.47 M35.58 65.38 C53.22 44.49, 71.86 24.79, 92 0.47 M46.21 65.34 C59.78 51.1, 73.41 34.89, 102.63 0.44 M46.21 65.34 C64.59 44.01, 83.83 23.31, 102.63 0.44 M56.84 65.31 C66.37 53.35, 80.19 38.91, 113.26 0.41 M56.84 65.31 C78.65 40.5, 100.52 15.91, 113.26 0.41 M67.47 65.28 C82.97 45.11, 101.15 24.86, 123.89 0.37 M67.47 65.28 C84.89 44.73, 101.32 26.07, 123.89 0.37 M78.1 65.24 C99.24 40.31, 116.23 20.92, 134.52 0.34 M78.1 65.24 C92.97 49.77, 105.16 33.9, 134.52 0.34 M88.73 65.21 C108.97 40.57, 130.87 19.47, 145.15 0.3 M88.73 65.21 C104.22 49.37, 119.9 32.07, 145.15 0.3 M99.36 65.17 C111.91 51.38, 126.22 34.89, 155.78 0.27 M99.36 65.17 C114.22 47.12, 129.77 31.06, 155.78 0.27 M109.99 65.14 C131.42 41.85, 151.96 18.55, 166.41 0.23 M109.99 65.14 C129.33 44.98, 146.95 23.38, 166.41 0.23 M120.62 65.1 C139.03 41.09, 159.64 18.64, 177.04 0.2 M120.62 65.1 C135.08 49.72, 148.14 34, 177.04 0.2 M130.59 65.82 C147.65 44.77, 168.42 25.8, 187.67 0.16 M130.59 65.82 C145.2 49.14, 159.47 32.13, 187.67 0.16 M141.22 65.79 C157.71 46.75, 176.21 25.3, 198.3 0.13 M141.22 65.79 C155.19 49.36, 169.01 33.28, 198.3 0.13 M151.85 65.75 C165.62 50.43, 175.38 38.13, 208.93 0.09 M151.85 65.75 C174.12 39.44, 197.33 14.25, 208.93 0.09 M162.48 65.72 C184.09 38.67, 205.55 16.14, 219.56 0.06 M162.48 65.72 C182.93 41.7, 204.41 16.77, 219.56 0.06 M173.11 65.69 C190.13 45.64, 203.59 28.98, 229.54 0.78 M173.11 65.69 C190.75 46.58, 207.36 26.41, 229.54 0.78 M183.75 65.65 C198.13 48.96, 215.43 28.76, 240.17 0.75 M183.75 65.65 C196.25 50.38, 210.64 35.78, 240.17 0.75 M194.38 65.62 C214.67 42.89, 235.03 18.61, 250.8 0.71 M194.38 65.62 C213.63 44.02, 232.39 21.43, 250.8 0.71 M205.01 65.58 C227.95 41.52, 245.99 18.23, 261.43 0.68 M205.01 65.58 C217.69 50.46, 231.52 35.19, 261.43 0.68 M215.64 65.55 C235.27 43.16, 252.69 20.78, 272.06 0.64 M215.64 65.55 C231.97 46.33, 249 26.86, 272.06 0.64 M226.27 65.51 C243.29 42.58, 260.97 22.68, 282.69 0.61 M226.27 65.51 C243.06 48.28, 258.04 29.5, 282.69 0.61 M236.9 65.48 C249.98 46.16, 266.14 29.97, 293.32 0.57 M236.9 65.48 C256.43 43.41, 276.13 19.59, 293.32 0.57 M247.53 65.44 C262.92 46.18, 277.59 27.19, 303.95 0.54 M247.53 65.44 C265.16 45.81, 281.38 25.6, 303.95 0.54 M258.16 65.41 C271.76 47.69, 286.68 33.39, 314.58 0.5 M258.16 65.41 C274.48 45.75, 292.74 26.82, 314.58 0.5 M268.79 65.38 C280.51 50.43, 292.65 37.75, 325.21 0.47 M268.79 65.38 C288.63 43.19, 307.11 21, 325.21 0.47 M279.42 65.34 C298.77 40.02, 323.91 13.87, 335.84 0.44 M279.42 65.34 C297.46 44.01, 316.36 24.15, 335.84 0.44 M290.05 65.31 C314.04 41.99, 336.17 13.38, 346.47 0.4 M290.05 65.31 C303.01 50.67, 315.38 35.35, 346.47 0.4 M300.68 65.27 C312.92 52.71, 328.15 35.09, 357.1 0.37 M300.68 65.27 C314.16 48.29, 329.13 32.4, 357.1 0.37 M311.31 65.24 C327.8 42.58, 347.29 23.89, 367.73 0.33 M311.31 65.24 C329.5 43.84, 349.14 24.14, 367.73 0.33 M321.94 65.2 C337.82 45.78, 353 25.43, 378.36 0.3 M321.94 65.2 C337.22 48.86, 351.78 30.77, 378.36 0.3 M331.91 65.92 C345.67 51.32, 356.38 34.82, 388.99 0.26 M331.91 65.92 C353.22 42.25, 374.62 16.48, 388.99 0.26 M342.54 65.89 C362.36 40.24, 387.21 14.5, 399.62 0.23 M342.54 65.89 C355.63 49.79, 368.66 35.81, 399.62 0.23 M353.17 65.85 C371.38 44.63, 389.22 21.31, 410.25 0.19 M353.17 65.85 C366.98 49.98, 381.46 33.49, 410.25 0.19 M363.8 65.82 C377.87 48.88, 390.3 31.85, 420.88 0.16 M363.8 65.82 C384.42 42.56, 404.55 20.23, 420.88 0.16 M374.43 65.79 C395.1 38.78, 417.84 14.66, 430.85 0.88 M374.43 65.79 C386.37 53.32, 398.44 40.52, 430.85 0.88 M385.06 65.75 C403.29 48.59, 418.91 27.76, 441.48 0.85 M385.06 65.75 C400.91 47.68, 416.37 30.43, 441.48 0.85 M395.69 65.72 C417.8 41.43, 441.02 15.67, 452.11 0.81 M395.69 65.72 C408.36 50.51, 421.75 35.39, 452.11 0.81 M406.32 65.68 C424.24 42.42, 443.58 20.86, 462.74 0.78 M406.32 65.68 C419.57 50.37, 434.95 33.94, 462.74 0.78 M416.95 65.65 C440.26 42.61, 457.73 18.29, 472.06 2.25 M416.95 65.65 C433.82 46.41, 451.53 24.49, 472.06 2.25 M427.58 65.61 C436.72 54.61, 450.09 41.86, 476.79 9.01 M427.58 65.61 C442.61 47.82, 458.29 28.51, 476.79 9.01 M438.21 65.58 C451.23 49.65, 460.64 38.06, 477.57 20.3 M438.21 65.58 C453.17 47.91, 466.35 32.83, 477.57 20.3 M448.84 65.54 C459.49 51.64, 470.2 40.18, 477.71 32.34 M448.84 65.54 C457.83 53.42, 468.79 43.3, 477.71 32.34 M459.47 65.51 C467.57 57.29, 471.52 49.64, 477.84 44.38 M459.47 65.51 C464.39 58.81, 469.58 53.19, 477.84 44.38" stroke="#ffc9c9" stroke-width="1" fill="none"></path><path d="M16.29 0 C154.96 -1.72, 295.15 -1.85, 461.47 0 M16.29 0 C168.4 -0.8, 320.65 -1.47, 461.47 0 M461.47 0 C473.87 0.38, 478.61 5.26, 477.75 16.29 M461.47 0 C474.08 -1.86, 476.9 5.51, 477.75 16.29 M477.75 16.29 C478.9 28.25, 478.15 38.88, 477.75 48.87 M477.75 16.29 C478.29 25.41, 477.62 32.96, 477.75 48.87 M477.75 48.87 C478.01 59.45, 472.25 65.06, 461.47 65.16 M477.75 48.87 C479.15 57.5, 472.85 65.19, 461.47 65.16 M461.47 65.16 C331.94 66.77, 201.35 66.96, 16.29 65.16 M461.47 65.16 C365.92 66.31, 270.73 65.82, 16.29 65.16 M16.29 65.16 C5.84 63.3, -1.25 59.47, 0 48.87 M16.29 65.16 C6.88 62.91, -1 61.42, 0 48.87 M0 48.87 C-0.37 36.85, -2.18 22.33, 0 16.29 M0 48.87 C0.85 38.39, -1.01 27.19, 0 16.29 M0 16.29 C-0.82 6.42, 3.62 1.73, 16.29 0 M0 16.29 C0.32 6.22, 5.08 -0.35, 16.29 0" stroke="#e03131" stroke-width="2" fill="none"></path></g><g transform="translate(1091.5445864550013 398.8718193365604) rotate(0 22.565948486328125 19.4944109528156)"><text x="22.565948486328125" y="0" font-family="Virgil, Segoe UI Emoji" font-size="31.191057524504977px" fill="#e03131" text-anchor="middle" style="white-space: pre;" direction="ltr" dominant-baseline="text-before-edge">s-p</text></g><g stroke-linecap="round" transform="translate(997.9369362175214 767.2724828063497) rotate(0 118.31706378226659 24.5)"><path d="M3.26 2.83 C3.26 2.83, 3.26 2.83, 3.26 2.83 M3.26 2.83 C3.26 2.83, 3.26 2.83, 3.26 2.83 M0.11 18.65 C6.63 10.3, 11.49 4.99, 16.52 -0.22 M0.11 18.65 C4.18 14.67, 7.79 8.97, 16.52 -0.22 M0.9 29.94 C8.75 18.87, 20.35 10.3, 27.15 -0.25 M0.9 29.94 C9.17 19.87, 16.89 12.27, 27.15 -0.25 M1.04 41.98 C14.55 28.06, 25.74 14.83, 37.78 -0.29 M1.04 41.98 C12.54 26.53, 26.09 12.32, 37.78 -0.29 M6.42 47.98 C23.77 30.1, 40.23 11.28, 47.75 0.43 M6.42 47.98 C21.95 30.61, 37.47 13.54, 47.75 0.43 M16.39 48.7 C28.95 36.26, 36.17 24.99, 58.38 0.4 M16.39 48.7 C29.05 35.58, 40.29 21.64, 58.38 0.4 M27.02 48.66 C42.15 35.09, 52.45 18.47, 69.01 0.36 M27.02 48.66 C39.41 35.14, 50.21 20.12, 69.01 0.36 M37.65 48.63 C49.25 38.95, 57.81 25.45, 79.64 0.33 M37.65 48.63 C47.37 38.57, 55.54 27.72, 79.64 0.33 M47.63 49.35 C57.61 39.28, 65.76 27.53, 90.27 0.29 M47.63 49.35 C57.12 36.22, 69.37 24.99, 90.27 0.29 M58.26 49.32 C72.66 32.55, 86.24 16.45, 100.9 0.26 M58.26 49.32 C68.16 37.18, 79.72 22.58, 100.9 0.26 M68.89 49.28 C86.11 31.03, 98.29 13.89, 111.53 0.23 M68.89 49.28 C77.99 38.81, 86.69 26.99, 111.53 0.23 M79.52 49.25 C90.06 38.12, 101.21 26.83, 122.16 0.19 M79.52 49.25 C88.97 39.46, 97.46 29.31, 122.16 0.19 M90.15 49.21 C98.1 37.17, 108.56 30.49, 132.79 0.16 M90.15 49.21 C104.04 33.89, 116.43 18.88, 132.79 0.16 M100.78 49.18 C110.64 35.06, 120.48 24.37, 143.42 0.12 M100.78 49.18 C116.01 29.71, 132.65 10.97, 143.42 0.12 M111.41 49.14 C123.53 35.37, 137.05 19.58, 154.05 0.09 M111.41 49.14 C120.2 40.1, 127.3 30.06, 154.05 0.09 M122.04 49.11 C134.98 32.78, 145.81 20.37, 164.68 0.05 M122.04 49.11 C139.08 30.48, 155.54 10.93, 164.68 0.05 M132.67 49.07 C143.22 34.19, 156.18 23.44, 175.31 0.02 M132.67 49.07 C146.07 33.2, 159.41 17.8, 175.31 0.02 M143.3 49.04 C154.88 36.14, 167.83 20.22, 185.94 -0.02 M143.3 49.04 C158.2 32.2, 172.85 14.56, 185.94 -0.02 M153.93 49.01 C170.02 30.87, 188 10.93, 196.57 -0.05 M153.93 49.01 C163.63 36.22, 175.93 25.01, 196.57 -0.05 M164.56 48.97 C176.12 36.97, 184.97 25.95, 207.2 -0.09 M164.56 48.97 C177.11 34.66, 187.47 21.11, 207.2 -0.09 M175.19 48.94 C186.23 38.28, 193.62 25.88, 217.83 -0.12 M175.19 48.94 C190.58 31.28, 206.46 14.48, 217.83 -0.12 M185.82 48.9 C196.11 37.79, 205.28 27.29, 227.8 0.6 M185.82 48.9 C200.37 32.33, 216.11 14.49, 227.8 0.6 M196.45 48.87 C208.57 32.85, 225.55 15.81, 234.5 5.09 M196.45 48.87 C209.95 33.52, 221.61 18.37, 234.5 5.09 M207.08 48.83 C217.88 37.37, 228.02 26.02, 236.6 14.87 M207.08 48.83 C219.54 34.86, 230.18 22.93, 236.6 14.87 M217.71 48.8 C222.22 42.21, 228.79 35.06, 236.73 26.91 M217.71 48.8 C222.81 43, 227.88 37.86, 236.73 26.91 M228.99 48.01 C231.53 46.11, 234.28 42.04, 236.87 38.95 M228.99 48.01 C232.13 45.04, 234.72 40.9, 236.87 38.95" stroke="#ffc9c9" stroke-width="1" fill="none"></path><path d="M12.25 0 C78.57 -1.29, 144.38 0.49, 224.38 0 M12.25 0 C93.2 1.24, 173.16 1, 224.38 0 M224.38 0 C234.08 -1.62, 235.89 4.16, 236.63 12.25 M224.38 0 C233.67 1.22, 237.3 5.2, 236.63 12.25 M236.63 12.25 C235.93 19.58, 236.68 29.72, 236.63 36.75 M236.63 12.25 C236.76 20.75, 236.6 29.47, 236.63 36.75 M236.63 36.75 C237.85 42.98, 233.01 49.02, 224.38 49 M236.63 36.75 C236.45 42.83, 233.75 49.99, 224.38 49 M224.38 49 C149.12 50.71, 77.71 49.49, 12.25 49 M224.38 49 C155.39 46.79, 85.49 47.49, 12.25 49 M12.25 49 C5.34 47.04, -0.87 46.39, 0 36.75 M12.25 49 C6.34 50.71, 1.64 44.77, 0 36.75 M0 36.75 C0.7 29.03, -0.04 21.69, 0 12.25 M0 36.75 C-0.2 29.78, -0.69 22.68, 0 12.25 M0 12.25 C0.28 4.77, 3.78 -0.31, 12.25 0 M0 12.25 C-0.41 1.87, 6.33 2.21, 12.25 0" stroke="#e03131" stroke-width="2" fill="none"></path></g><g transform="translate(1094.327440551546 772.278071853534) rotate(0 21.926559448242188 19.4944109528156)"><text x="21.926559448242188" y="0" font-family="Virgil, Segoe UI Emoji" font-size="31.191057524504977px" fill="#e03131" text-anchor="middle" style="white-space: pre;" direction="ltr" dominant-baseline="text-before-edge">c-p</text></g><g mask="url(#mask-NGya1MKFAcpxiOr1nDsOt)" stroke-linecap="round"><g transform="translate(593.4111378062228 529.6257032095707) rotate(0 56.27970120329201 -59.98456392605817)"><path d="M0.38 0.64 C17.2 -2.57, 83.44 -3.39, 99.9 -19.38 C116.37 -35.37, 112.02 -78.76, 99.18 -95.31 C86.34 -111.86, 35.43 -114.67, 22.86 -118.68 M-0.88 -0.06 C16.43 -3.65, 85.21 -5.74, 102.3 -21.36 C119.4 -36.99, 114.91 -77.28, 101.69 -93.83 C88.47 -110.37, 36.15 -116.47, 22.98 -120.61" stroke="#e03131" stroke-width="2" fill="none"></path></g><g transform="translate(593.4111378062228 529.6257032095707) rotate(0 56.27970120329201 -59.98456392605817)"><path d="M52.72 -124.55 C47.4 -124.6, 40.4 -123.99, 22.98 -120.61 M52.72 -124.55 C43.57 -122.55, 32.67 -121.72, 22.98 -120.61" stroke="#e03131" stroke-width="2" fill="none"></path></g><g transform="translate(593.4111378062228 529.6257032095707) rotate(0 56.27970120329201 -59.98456392605817)"><path d="M48.29 -104.51 C43.95 -108.88, 37.89 -112.56, 22.98 -120.61 M48.29 -104.51 C40.63 -109.09, 31.17 -114.8, 22.98 -120.61" stroke="#e03131" stroke-width="2" fill="none"></path></g></g><mask id="mask-NGya1MKFAcpxiOr1nDsOt"><rect x="0" y="0" fill="#fff" width="793.9066665606879" height="749.4801592990641"></rect><rect x="644.8982627068185" y="452.31913089256375" fill="#000" width="118.02290344238281" height="38.98882190563122" opacity="1"></rect></mask><g transform="translate(644.8982627068185 452.31913089256375) rotate(0 4.792576302696034 17.32200839094878)"><text x="59.011451721191406" y="0" font-family="Virgil, Segoe UI Emoji" font-size="31.191057524504977px" fill="#e03131" text-anchor="middle" style="white-space: pre;" direction="ltr" dominant-baseline="text-before-edge">span_id</text></g><g mask="url(#mask-kxaB0KnElCaL3lUpJhlFk)" stroke-linecap="round"><g transform="translate(168.289908626449 808.2018823166554) rotate(0 -49.35060801225609 -60.197973797815166)"><path d="M-0.28 0.97 C-15.39 -3.74, -76.72 -13.34, -91.55 -29.17 C-106.37 -45, -100.69 -79.03, -89.23 -94.03 C-77.77 -109.03, -33.71 -114.81, -22.78 -119.17 M1.77 0.44 C-12.9 -4.56, -74.19 -15.4, -89.39 -30.98 C-104.58 -46.57, -100.55 -78.03, -89.4 -93.09 C-78.26 -108.16, -33.76 -116.89, -22.51 -121.37" stroke="#e03131" stroke-width="2" fill="none"></path></g><g transform="translate(168.289908626449 808.2018823166554) rotate(0 -49.35060801225609 -60.197973797815166)"><path d="M-46.52 -103.38 C-39.36 -109.12, -34.6 -109.54, -22.51 -121.37 M-46.52 -103.38 C-41.47 -108.11, -35.47 -111.31, -22.51 -121.37" stroke="#e03131" stroke-width="2" fill="none"></path></g><g transform="translate(168.289908626449 808.2018823166554) rotate(0 -49.35060801225609 -60.197973797815166)"><path d="M-52.46 -123.02 C-44.11 -124.33, -38.01 -120.33, -22.51 -121.37 M-52.46 -123.02 C-45.98 -123.08, -38.56 -121.59, -22.51 -121.37" stroke="#e03131" stroke-width="2" fill="none"></path></g></g><mask id="mask-kxaB0KnElCaL3lUpJhlFk"><rect x="0" y="0" fill="#fff" width="358.7884662760654" height="1028.0563384061488"></rect><rect x="10" y="726.5859032995969" fill="#000" width="118.02290344238281" height="38.98882190563122" opacity="1"></rect></mask><g transform="translate(10 726.5859032995972) rotate(0 108.93930061419292 21.41800521924324)"><text x="59.011451721191406" y="0" font-family="Virgil, Segoe UI Emoji" font-size="31.191057524504977px" fill="#e03131" text-anchor="middle" style="white-space: pre;" direction="ltr" dominant-baseline="text-before-edge">span_id</text></g><g mask="url(#mask-ejF3tsEazRkIHJHDH6n7c)" stroke-linecap="round"><g transform="translate(1324.8470460914762 784.519642066489) rotate(0 134.51606123086958 -179.5705592881913)"><path d="M-0.26 0.29 C38.82 -20, 192.85 -76.63, 234.63 -121.91 C276.41 -167.19, 278.08 -231.78, 250.43 -271.37 C222.79 -310.96, 98.81 -344.65, 68.76 -359.43 M1.81 -0.6 C41.23 -20.69, 195.55 -75.61, 236.81 -120.53 C278.08 -165.45, 277.44 -230.53, 249.4 -270.12 C221.36 -309.72, 98.65 -343.15, 68.57 -358.09" stroke="#e03131" stroke-width="2" fill="none"></path></g><g transform="translate(1324.8470460914762 784.519642066489) rotate(0 134.51606123086958 -179.5705592881913)"><path d="M98.57 -357.54 C89.55 -359.47, 79.07 -358.81, 68.57 -358.09 M98.57 -357.54 C90.39 -357.75, 82.06 -358.3, 68.57 -358.09" stroke="#e03131" stroke-width="2" fill="none"></path></g><g transform="translate(1324.8470460914762 784.519642066489) rotate(0 134.51606123086958 -179.5705592881913)"><path d="M91.19 -338.39 C84.54 -346.37, 76.4 -351.78, 68.57 -358.09 M91.19 -338.39 C85.27 -344.15, 79.07 -350.22, 68.57 -358.09" stroke="#e03131" stroke-width="2" fill="none"></path></g></g><mask id="mask-ejF3tsEazRkIHJHDH6n7c"><rect x="0" y="0" fill="#fff" width="1675.7922143751514" height="1244.3990330125246"></rect><rect x="1461.9629429282736" y="570.6665492070064" fill="#000" width="262.027099609375" height="38.98882190563122" opacity="1"></rect></mask><g transform="translate(1461.9629429282736 570.6665492070065) rotate(0 -2.5998356059276375 34.28253357129125)"><text x="131.0135498046875" y="0" font-family="Virgil, Segoe UI Emoji" font-size="31.191057524504977px" fill="#e03131" text-anchor="middle" style="white-space: pre;" direction="ltr" dominant-baseline="text-before-edge">syscall_trace_id</text></g><g mask="url(#mask-rSNWl2aJfZAmDvD32TbGx)" stroke-linecap="round"><g transform="translate(969.4321762464253 133.27553912036035) rotate(0 55.774570097147716 -59.79741559087324)"><path d="M0.59 -0.55 C16.96 -3.85, 82.62 -3.58, 99.31 -19.42 C115.99 -35.26, 113.29 -78.97, 100.7 -95.59 C88.11 -112.22, 36.58 -115.28, 23.77 -119.17 M-0.56 1.77 C16.06 -1.94, 84.58 -5.42, 101.4 -21.42 C118.22 -37.43, 113.19 -77.6, 100.35 -94.26 C87.51 -110.92, 37.3 -117.4, 24.36 -121.37" stroke="#1971c2" stroke-width="2" fill="none"></path></g><g transform="translate(969.4321762464253 133.27553912036035) rotate(0 55.774570097147716 -59.79741559087324)"><path d="M54.12 -125.15 C41.54 -125.5, 31.18 -120.72, 24.36 -121.37 M54.12 -125.15 C45.73 -123.06, 36.45 -123.03, 24.36 -121.37" stroke="#1971c2" stroke-width="2" fill="none"></path></g><g transform="translate(969.4321762464253 133.27553912036035) rotate(0 55.774570097147716 -59.79741559087324)"><path d="M49.59 -105.14 C38.73 -113.35, 30.14 -116.42, 24.36 -121.37 M49.59 -105.14 C42.46 -109.13, 34.55 -115.15, 24.36 -121.37" stroke="#1971c2" stroke-width="2" fill="none"></path></g></g><mask id="mask-rSNWl2aJfZAmDvD32TbGx"><rect x="0" y="0" fill="#fff" width="1169.9277050008905" height="353.12999520985375"></rect><rect x="1021.3962366472465" y="56.05401858175716" fill="#000" width="118.02290344238281" height="38.98882190563122" opacity="1"></rect></mask><g transform="translate(1021.3962366472465 56.05401858175716) rotate(0 3.810509696326335 17.424104947729944)"><text x="59.011451721191406" y="0" font-family="Virgil, Segoe UI Emoji" font-size="31.191057524504977px" fill="#1971c2" text-anchor="middle" style="white-space: pre;" direction="ltr" dominant-baseline="text-before-edge">span_id</text></g><g mask="url(#mask-hXy_Q9ZxvZYc4Bf9WZABR)" stroke-linecap="round"><g transform="translate(566.8655407133631 226.45598410090054) rotate(0 -50.43905201319217 -59.979660737170164)"><path d="M0.11 -0.47 C-14.82 -5.42, -75.24 -14.98, -90.51 -30.48 C-105.78 -45.99, -102.82 -78.66, -91.5 -93.5 C-80.19 -108.33, -34.01 -115.15, -22.62 -119.48 M-1.29 -1.77 C-16.3 -6.5, -76.81 -14.24, -91.46 -29.33 C-106.12 -44.41, -100.74 -77.47, -89.21 -92.28 C-77.67 -107.09, -33.61 -113.75, -22.27 -118.19" stroke="#1971c2" stroke-width="2" fill="none"></path></g><g transform="translate(566.8655407133631 226.45598410090054) rotate(0 -50.43905201319217 -59.979660737170164)"><path d="M-46.73 -100.82 C-41.93 -104.74, -36.87 -110.52, -22.27 -118.19 M-46.73 -100.82 C-40.11 -105.51, -33.76 -110.49, -22.27 -118.19" stroke="#1971c2" stroke-width="2" fill="none"></path></g><g transform="translate(566.8655407133631 226.45598410090054) rotate(0 -50.43905201319217 -59.979660737170164)"><path d="M-52.17 -120.6 C-46.29 -120.11, -40.01 -121.45, -22.27 -118.19 M-52.17 -120.6 C-43.98 -119.71, -36.08 -119.07, -22.27 -118.19" stroke="#1971c2" stroke-width="2" fill="none"></path></g></g><mask id="mask-hXy_Q9ZxvZYc4Bf9WZABR"><rect x="0" y="0" fill="#fff" width="757.3640983629795" height="446.31044019039393"></rect><rect x="406.8754386693877" y="144.94964530128777" fill="#000" width="118.02290344238281" height="38.98882190563122" opacity="1"></rect></mask><g transform="translate(406.8754386693877 144.94964530128777) rotate(0 109.55105003078347 21.526678062442613)"><text x="59.011451721191406" y="0" font-family="Virgil, Segoe UI Emoji" font-size="31.191057524504977px" fill="#1971c2" text-anchor="middle" style="white-space: pre;" direction="ltr" dominant-baseline="text-before-edge">span_id</text></g></svg>