<svg version="1.1" xmlns="http://www.w3.org/2000/svg" viewBox="0 0 1374.4604997871638 932.9056786324256" width="1374.4604997871638" height="932.9056786324256" filter="invert(93%) hue-rotate(180deg)">
  <!-- svg-source:excalidraw -->
  
  <defs>
    <style class="style-fonts">
      @font-face {
        font-family: "Virgil";
        src: url("https://file%2B.vscode-resource.vscode-cdn.net/c%3A/Users/talor/.vscode/extensions/pomdtr.excalidraw-editor-3.7.4/public//dist/excalidraw-assets/Virgil.woff2");
      }
      @font-face {
        font-family: "Cascadia";
        src: url("https://file%2B.vscode-resource.vscode-cdn.net/c%3A/Users/talor/.vscode/extensions/pomdtr.excalidraw-editor-3.7.4/public//dist/excalidraw-assets/Cascadia.woff2");
      }
      @font-face {
        font-family: "Assistant";
        src: url("https://file%2B.vscode-resource.vscode-cdn.net/c%3A/Users/talor/.vscode/extensions/pomdtr.excalidraw-editor-3.7.4/public//dist/excalidraw-assets/Assistant-Regular.woff2");
      }
    </style>
    
  </defs>
  <rect x="0" y="0" width="1374.4604997871638" height="932.9056786324256" fill="#ffffff"></rect><g stroke-linecap="round" transform="translate(353.92301926078653 10) rotate(0 238.87743379019867 32.57933813781754)"><path d="M4.34 3.77 C4.34 3.77, 4.34 3.77, 4.34 3.77 M4.34 3.77 C4.34 3.77, 4.34 3.77, 4.34 3.77 M2.5 18.07 C7.49 13.52, 11.46 9.95, 17.59 0.72 M2.5 18.07 C8.36 11.39, 12.11 6.96, 17.59 0.72 M2.63 30.12 C9.24 22.93, 16.2 14.65, 28.22 0.68 M2.63 30.12 C13.11 19.81, 21.07 7.18, 28.22 0.68 M2.77 42.16 C14.81 28.45, 22.64 16.53, 38.85 0.65 M2.77 42.16 C13.59 30.58, 22.91 18.16, 38.85 0.65 M0.93 56.46 C15.04 43.95, 27.07 25.46, 49.48 0.61 M0.93 56.46 C17.2 38.7, 34.08 20.69, 49.48 0.61 M6.31 62.46 C25.85 39.5, 46.63 15.43, 59.45 1.33 M6.31 62.46 C18.15 47.73, 30.47 34.48, 59.45 1.33 M13.66 66.2 C33.71 40.35, 56.54 15.78, 70.08 1.3 M13.66 66.2 C27.81 51.19, 42.55 32.98, 70.08 1.3 M24.29 66.17 C47.34 41.23, 67.28 15.24, 80.71 1.26 M24.29 66.17 C40.83 46.66, 57.92 26.06, 80.71 1.26 M34.92 66.13 C45.49 52.27, 57.78 37.57, 91.34 1.23 M34.92 66.13 C49.39 49.27, 63.8 32.97, 91.34 1.23 M45.55 66.1 C60.36 50.93, 73.96 33.97, 101.97 1.19 M45.55 66.1 C61.82 47.29, 79.61 27.08, 101.97 1.19 M56.18 66.07 C73.83 46.19, 88.9 26.87, 112.61 1.16 M56.18 66.07 C74.37 43.41, 94.01 20.44, 112.61 1.16 M66.81 66.03 C80.18 49.86, 96.88 32.9, 123.24 1.13 M66.81 66.03 C80.91 49.97, 96.61 33.56, 123.24 1.13 M77.44 66 C94.1 47.98, 108.51 30.42, 133.87 1.09 M77.44 66 C92.39 48.01, 108.32 31.73, 133.87 1.09 M88.07 65.96 C100.95 53.56, 111.89 40.77, 144.5 1.06 M88.07 65.96 C106.27 43.16, 125.68 21.46, 144.5 1.06 M98.7 65.93 C111.29 51.45, 124.86 35.39, 155.13 1.02 M98.7 65.93 C111.06 51, 125.71 34.93, 155.13 1.02 M109.33 65.89 C129.95 40.74, 150.85 18.73, 165.76 0.99 M109.33 65.89 C125.58 46.1, 143.01 26.83, 165.76 0.99 M119.96 65.86 C139.1 42.09, 161.97 16.69, 176.39 0.95 M119.96 65.86 C133.26 49.16, 148.76 32.51, 176.39 0.95 M130.59 65.82 C150.69 42.58, 170.59 21.12, 187.02 0.92 M130.59 65.82 C143.78 50.64, 155.43 36.29, 187.02 0.92 M141.22 65.79 C153.59 48.5, 169.85 33.71, 197.65 0.88 M141.22 65.79 C163.26 41.9, 182.77 17.77, 197.65 0.88 M151.85 65.75 C163.84 50.54, 175.92 35.82, 208.28 0.85 M151.85 65.75 C163.77 50.08, 178.21 35.25, 208.28 0.85 M161.83 66.47 C180.25 42.39, 204.36 20.82, 218.91 0.82 M161.83 66.47 C174.29 51.89, 187.23 37.67, 218.91 0.82 M172.46 66.44 C188.3 49.21, 199.95 36.42, 229.54 0.78 M172.46 66.44 C190.7 44.44, 211.92 21.49, 229.54 0.78 M183.09 66.41 C197.66 50.06, 210.69 35.25, 240.17 0.75 M183.09 66.41 C199.51 46.97, 215.56 29.01, 240.17 0.75 M193.72 66.37 C209.82 45.61, 227.9 28.68, 250.8 0.71 M193.72 66.37 C215.12 40.66, 237.07 16.79, 250.8 0.71 M204.35 66.34 C221 48.05, 235.65 31.63, 260.77 1.43 M204.35 66.34 C216.52 51.47, 230.27 35.5, 260.77 1.43 M214.98 66.3 C227.81 50.98, 241.45 36.08, 271.4 1.4 M214.98 66.3 C231.24 47.39, 248.3 27.16, 271.4 1.4 M225.61 66.27 C240.61 48.99, 256.79 30.16, 282.03 1.36 M225.61 66.27 C247.89 41.45, 268.52 17.14, 282.03 1.36 M236.24 66.23 C255.94 41.12, 279.88 19.36, 292.66 1.33 M236.24 66.23 C252.48 47.14, 269.77 28.16, 292.66 1.33 M246.87 66.2 C268.99 42.94, 287.77 15.9, 303.29 1.29 M246.87 66.2 C258.57 52.01, 271.8 36.24, 303.29 1.29 M257.5 66.16 C276.96 43.37, 299.72 16.19, 313.92 1.26 M257.5 66.16 C271.56 51.7, 283.77 34.4, 313.92 1.26 M268.13 66.13 C287.23 44.26, 305.92 22.5, 324.55 1.22 M268.13 66.13 C287.94 42.94, 305.86 22.79, 324.55 1.22 M278.76 66.1 C300.15 44.52, 319.04 20.74, 335.18 1.19 M278.76 66.1 C292.03 50.71, 305.38 34.45, 335.18 1.19 M289.39 66.06 C311.7 42.65, 329.46 21.02, 345.81 1.16 M289.39 66.06 C303.1 51.87, 315.45 36.18, 345.81 1.16 M300.02 66.03 C311.09 50.48, 323.56 37.03, 356.44 1.12 M300.02 66.03 C318.21 44.98, 335.31 23.9, 356.44 1.12 M310.65 65.99 C329.85 44.32, 346.57 23.42, 367.07 1.09 M310.65 65.99 C328.89 45.78, 345.45 27.34, 367.07 1.09 M321.28 65.96 C337.71 45.69, 356.17 28.9, 377.7 1.05 M321.28 65.96 C339.72 44.54, 356.71 23.98, 377.7 1.05 M331.91 65.92 C354.3 40.44, 372.98 17.7, 388.33 1.02 M331.91 65.92 C350.32 44.69, 368.74 23.84, 388.33 1.02 M342.54 65.89 C360.25 44.82, 376.82 27.08, 398.96 0.98 M342.54 65.89 C354.12 52.73, 366.82 38.05, 398.96 0.98 M352.51 66.61 C365.75 47.7, 383.56 29.61, 409.59 0.95 M352.51 66.61 C371.15 46.79, 387.72 26.33, 409.59 0.95 M363.14 66.57 C384.95 42.69, 402.56 19.5, 420.22 0.91 M363.14 66.57 C383.92 42.54, 403.09 20.35, 420.22 0.91 M373.77 66.54 C392.17 46.88, 409.53 27.61, 430.85 0.88 M373.77 66.54 C389.92 48.33, 404.56 30.87, 430.85 0.88 M384.4 66.51 C394.86 54.63, 406.48 39.18, 441.48 0.85 M384.4 66.51 C396.92 50.66, 411.2 33.43, 441.48 0.85 M395.03 66.47 C414.93 45.68, 434.75 23.23, 451.46 1.57 M395.03 66.47 C409.59 48.15, 425.68 31.7, 451.46 1.57 M405.66 66.44 C416.22 53.03, 427.85 39.54, 462.09 1.53 M405.66 66.44 C427.47 41.92, 448.98 15.67, 462.09 1.53 M416.29 66.4 C439.67 41.32, 458.55 17.28, 472.06 2.25 M416.29 66.4 C434.59 44.97, 452.63 25.48, 472.06 2.25 M426.93 66.37 C441.44 48.2, 458.01 30.07, 476.79 9.01 M426.93 66.37 C439.36 53.31, 450.67 40.02, 476.79 9.01 M437.56 66.33 C447.09 54.49, 455.63 43.71, 482.82 14.26 M437.56 66.33 C454.31 48.02, 468.43 30.59, 482.82 14.26 M448.19 66.3 C458.36 54.8, 466.44 42.87, 482.96 26.3 M448.19 66.3 C462.16 50.71, 475.5 35.25, 482.96 26.3 M458.82 66.26 C465.58 58.63, 474.39 45.63, 483.09 38.34 M458.82 66.26 C468.55 55.77, 479.08 44.37, 483.09 38.34" stroke="#ffc9c9" stroke-width="1" fill="none"></path><path d="M16.29 0 C121.97 1.95, 225.2 1.2, 461.47 0 M16.29 0 C161.64 -0.62, 306.51 -0.46, 461.47 0 M461.47 0 C471.26 1.9, 476.66 7.12, 477.75 16.29 M461.47 0 C471.36 0.48, 477.83 6.59, 477.75 16.29 M477.75 16.29 C476.9 23.06, 476.5 33.25, 477.75 48.87 M477.75 16.29 C476.9 29.15, 477.82 42.01, 477.75 48.87 M477.75 48.87 C476.11 59.25, 473.57 64.37, 461.47 65.16 M477.75 48.87 C479.86 58.56, 473.71 66.4, 461.47 65.16 M461.47 65.16 C285.97 65.09, 111.71 64.72, 16.29 65.16 M461.47 65.16 C368.88 67.59, 276.57 67.6, 16.29 65.16 M16.29 65.16 C6.38 66.14, -1.12 61.07, 0 48.87 M16.29 65.16 C3.21 63.01, -0.97 58.65, 0 48.87 M0 48.87 C-0.49 41.12, 2.19 33.21, 0 16.29 M0 48.87 C-0.19 37.92, -0.06 26.64, 0 16.29 M0 16.29 C-1.02 4.22, 5.97 1.91, 16.29 0 M0 16.29 C-2.29 4.33, 5.91 -0.49, 16.29 0" stroke="#e03131" stroke-width="2" fill="none"></path></g><g transform="translate(570.234504564658 23.08492718500193) rotate(0 22.565948486328125 19.49441095281561)"><text x="22.565948486328125" y="0" font-family="Virgil, Segoe UI Emoji" font-size="31.191057524504977px" fill="#e03131" text-anchor="middle" style="white-space: pre;" direction="ltr" dominant-baseline="text-before-edge">s-p</text></g><g stroke-linecap="round" transform="translate(473.4067978933417 90.66516551725829) rotate(0 126.6588628043728 29.891940014799346)"><path d="M3.98 3.46 C3.98 3.46, 3.98 3.46, 3.98 3.46 M3.98 3.46 C3.98 3.46, 3.98 3.46, 3.98 3.46 M0.18 20.03 C2.85 13.49, 10.08 9.66, 17.23 0.4 M0.18 20.03 C4.84 14.86, 9 10.98, 17.23 0.4 M0.96 31.31 C10.99 19.98, 16.21 11.49, 27.86 0.37 M0.96 31.31 C7.22 22.44, 14.27 14.97, 27.86 0.37 M1.1 43.35 C10.26 32.14, 17.52 22.96, 38.49 0.34 M1.1 43.35 C13.44 30.61, 22.65 17.89, 38.49 0.34 M2.54 53.89 C14.26 42.95, 25.9 31.01, 48.47 1.06 M2.54 53.89 C12.17 42.82, 21.31 31.93, 48.47 1.06 M9.24 58.38 C26.82 36.08, 47.71 18.43, 59.1 1.02 M9.24 58.38 C26.73 38.04, 44.76 18.21, 59.1 1.02 M18.55 59.85 C38.5 40.77, 52.55 20.62, 69.73 0.99 M18.55 59.85 C32.48 43.01, 46.15 25.99, 69.73 0.99 M29.18 59.82 C48.16 38.35, 64.7 16.23, 80.36 0.95 M29.18 59.82 C45.03 41.53, 60.29 24.27, 80.36 0.95 M39.81 59.79 C58.17 38.15, 77.8 16.74, 90.99 0.92 M39.81 59.79 C56.1 41.64, 71.45 23.42, 90.99 0.92 M50.44 59.75 C64.04 45.59, 75.14 30.71, 101.62 0.88 M50.44 59.75 C68.54 38.22, 86.8 17.18, 101.62 0.88 M61.07 59.72 C80.89 35.99, 99.63 14.12, 112.25 0.85 M61.07 59.72 C79.55 39.63, 97.65 17.85, 112.25 0.85 M71.7 59.68 C90.75 41.23, 109.24 18.23, 122.88 0.81 M71.7 59.68 C89.6 38.82, 107.72 17.26, 122.88 0.81 M82.33 59.65 C93.75 46.6, 108.27 28.49, 133.51 0.78 M82.33 59.65 C97.12 43.38, 111.46 27.81, 133.51 0.78 M92.31 60.37 C107.01 41.74, 123.47 21.29, 144.14 0.75 M92.31 60.37 C104.23 47.05, 115.29 33.76, 144.14 0.75 M102.94 60.33 C123.98 39.38, 142.49 15.64, 154.77 0.71 M102.94 60.33 C121.76 38.41, 141.9 15.65, 154.77 0.71 M113.57 60.3 C127.42 44.15, 141.95 27.78, 165.4 0.68 M113.57 60.3 C129.96 42, 145.74 21.71, 165.4 0.68 M124.2 60.26 C140.77 41.75, 157.54 21.8, 176.03 0.64 M124.2 60.26 C141.53 40.6, 159.48 18.75, 176.03 0.64 M134.83 60.23 C150.52 39.08, 168.33 19.78, 186.66 0.61 M134.83 60.23 C151.34 41.34, 169.14 21.13, 186.66 0.61 M145.46 60.2 C157.89 44.03, 170.17 30.38, 197.29 0.57 M145.46 60.2 C161.6 40.86, 177.98 21.56, 197.29 0.57 M156.09 60.16 C175.47 38.31, 196.28 16.32, 207.92 0.54 M156.09 60.16 C174.33 40.23, 193.86 17.4, 207.92 0.54 M166.72 60.13 C184.43 40.48, 202.87 17.53, 218.55 0.5 M166.72 60.13 C177.85 45.89, 191.16 32.95, 218.55 0.5 M177.35 60.09 C196.34 41.86, 212.93 18.42, 228.52 1.22 M177.35 60.09 C196.84 37.3, 217.19 13.14, 228.52 1.22 M187.98 60.06 C203.6 40.23, 222.34 20.78, 239.15 1.19 M187.98 60.06 C200.18 45.91, 214 32.04, 239.15 1.19 M198.61 60.02 C216.03 39.7, 236.58 16.78, 247.81 3.42 M198.61 60.02 C211.4 44.74, 225.3 27.53, 247.81 3.42 M209.24 59.99 C225.65 42.51, 239.44 23.05, 252.54 10.18 M209.24 59.99 C223.13 43.88, 237.42 27.54, 252.54 10.18 M219.87 59.95 C233.76 44.03, 245.66 31.06, 252.67 22.22 M219.87 59.95 C231.42 47.23, 242.29 34.11, 252.67 22.22 M230.5 59.92 C235.36 52.96, 241.01 50.53, 252.81 34.26 M230.5 59.92 C236.3 53.68, 243.75 45.44, 252.81 34.26 M241.79 59.13 C246.26 55.1, 250.51 52.2, 252.94 46.3 M241.79 59.13 C246.6 53.55, 249.86 48.63, 252.94 46.3" stroke="#ffc9c9" stroke-width="1" fill="none"></path><path d="M14.95 0 C78.75 -0.77, 144.03 -2.13, 238.37 0 M14.95 0 C102.87 -1.45, 191.55 -1.2, 238.37 0 M238.37 0 C247.3 1.53, 252.76 3.88, 253.32 14.95 M238.37 0 C246.83 -1.73, 254.24 7.21, 253.32 14.95 M253.32 14.95 C253.28 24.11, 253.13 31.41, 253.32 44.84 M253.32 14.95 C254.42 22.69, 254.1 31.99, 253.32 44.84 M253.32 44.84 C255.19 56.22, 247.39 59.12, 238.37 59.78 M253.32 44.84 C255.59 56.18, 249.74 57.66, 238.37 59.78 M238.37 59.78 C150.63 59.39, 61.31 60.1, 14.95 59.78 M238.37 59.78 C159.52 60.27, 81.97 60.67, 14.95 59.78 M14.95 59.78 C3.63 57.89, -1.83 54, 0 44.84 M14.95 59.78 C4.78 61.95, -0.6 56, 0 44.84 M0 44.84 C0.96 38, 1.35 31.6, 0 14.95 M0 44.84 C-1.07 37.2, 0.13 30.31, 0 14.95 M0 14.95 C1.05 6.7, 5.75 -1.83, 14.95 0 M0 14.95 C1.57 4.83, 5.9 1.84, 14.95 0" stroke="#e03131" stroke-width="2" fill="none"></path></g><g transform="translate(578.1391012494732 101.06269457924202) rotate(0 21.926559448242188 19.494410952815613)"><text x="21.926559448242188" y="0" font-family="Virgil, Segoe UI Emoji" font-size="31.191057524504977px" fill="#e03131" text-anchor="middle" style="white-space: pre;" direction="ltr" dominant-baseline="text-before-edge">c-p</text></g><g stroke-linecap="round" transform="translate(330.5838772589432 403.4553726229959) rotate(0 238.87743379019867 32.57933813781753)"><path d="M4.34 3.77 C4.34 3.77, 4.34 3.77, 4.34 3.77 M4.34 3.77 C4.34 3.77, 4.34 3.77, 4.34 3.77 M-0.12 21.09 C5.48 16.57, 9.55 8.69, 18.25 -0.04 M-0.12 21.09 C5.5 13.29, 13.12 6.2, 18.25 -0.04 M0.67 32.38 C12.03 20.91, 23.33 7.38, 28.88 -0.07 M0.67 32.38 C8.27 25.13, 16.03 15.26, 28.88 -0.07 M0.8 44.42 C10.36 36.14, 17.36 24.88, 38.85 0.65 M0.8 44.42 C12.98 30.37, 24.89 17.28, 38.85 0.65 M0.93 56.46 C11.94 43.24, 23.61 31.72, 49.48 0.61 M0.93 56.46 C17.03 38.08, 31.98 20.05, 49.48 0.61 M6.31 62.46 C28.06 38.74, 45.52 17.37, 60.11 0.58 M6.31 62.46 C21.96 44.31, 37.55 27.26, 60.11 0.58 M14.32 65.45 C28.89 46.81, 44.48 31.91, 70.74 0.54 M14.32 65.45 C32.53 44.35, 49.63 23.77, 70.74 0.54 M24.95 65.41 C41.87 44.49, 61.26 23.06, 81.37 0.51 M24.95 65.41 C46.04 40.24, 69.44 15, 81.37 0.51 M35.58 65.38 C50.68 48.53, 66.17 31.08, 92 0.47 M35.58 65.38 C54.98 43.26, 73.7 21.88, 92 0.47 M46.21 65.34 C64.27 45.59, 80.55 25.65, 102.63 0.44 M46.21 65.34 C66.57 43.51, 83.8 21.19, 102.63 0.44 M56.84 65.31 C71.11 47.09, 88.33 30.22, 113.26 0.41 M56.84 65.31 C68 52.08, 80.7 39.35, 113.26 0.41 M67.47 65.28 C90.15 39.41, 107.96 17.38, 123.89 0.37 M67.47 65.28 C85.28 45, 103.19 23.61, 123.89 0.37 M78.1 65.24 C96.07 45.99, 109.97 29.4, 134.52 0.34 M78.1 65.24 C97.07 44.07, 116.81 20.46, 134.52 0.34 M88.73 65.21 C107.5 44.72, 124.73 22.98, 145.15 0.3 M88.73 65.21 C104.41 47.63, 120.28 28.55, 145.15 0.3 M99.36 65.17 C112.33 51.42, 121.55 37.09, 155.78 0.27 M99.36 65.17 C115.96 45.87, 132.2 28.7, 155.78 0.27 M109.99 65.14 C129.93 43.68, 149.7 23.11, 166.41 0.23 M109.99 65.14 C122.93 49.58, 137.75 33.69, 166.41 0.23 M120.62 65.1 C129.81 51.96, 144.27 38.39, 177.04 0.2 M120.62 65.1 C131.52 52.01, 144.43 37.86, 177.04 0.2 M130.59 65.82 C144.58 47.44, 159.98 29.16, 187.67 0.16 M130.59 65.82 C153.3 40.61, 177 13.65, 187.67 0.16 M141.22 65.79 C165.38 38.78, 185.15 14.49, 198.3 0.13 M141.22 65.79 C164.89 41.34, 185.75 14.68, 198.3 0.13 M151.85 65.75 C163.65 49.95, 177.85 33.49, 208.93 0.09 M151.85 65.75 C174.03 40.43, 196.1 16.98, 208.93 0.09 M162.48 65.72 C181.94 42.26, 202.83 16.84, 219.56 0.06 M162.48 65.72 C180.59 43.58, 198.25 22.99, 219.56 0.06 M173.11 65.69 C188.5 49.8, 199.03 33.58, 229.54 0.78 M173.11 65.69 C185.42 51.38, 197.7 38.91, 229.54 0.78 M183.75 65.65 C199.54 46.75, 214.18 29.01, 240.17 0.75 M183.75 65.65 C197.59 50.31, 209.19 35.65, 240.17 0.75 M194.38 65.62 C209.73 47.64, 226.16 27.14, 250.8 0.71 M194.38 65.62 C216.09 41.24, 239.06 15.71, 250.8 0.71 M205.01 65.58 C223.23 44.42, 237.75 25.16, 261.43 0.68 M205.01 65.58 C223.23 43.41, 240.86 22.9, 261.43 0.68 M215.64 65.55 C229.52 46.4, 244.76 31.76, 272.06 0.64 M215.64 65.55 C234.89 42.19, 254.2 18.49, 272.06 0.64 M226.27 65.51 C240.89 50.05, 250.26 34.56, 282.69 0.61 M226.27 65.51 C248.84 40.06, 271.27 14.83, 282.69 0.61 M236.9 65.48 C257.79 43.5, 277.03 20.77, 293.32 0.57 M236.9 65.48 C250.02 49.01, 263.85 33.84, 293.32 0.57 M247.53 65.44 C261.77 48.14, 276.86 33.23, 303.95 0.54 M247.53 65.44 C268.18 43.26, 286.76 19.48, 303.95 0.54 M258.16 65.41 C277.23 42.55, 298.4 19.69, 314.58 0.5 M258.16 65.41 C275.08 46.18, 293.1 25.68, 314.58 0.5 M268.79 65.38 C287.32 41.72, 306.25 18.4, 325.21 0.47 M268.79 65.38 C286.72 45.37, 305.53 23.16, 325.21 0.47 M279.42 65.34 C295.53 45.8, 314.07 26.17, 335.84 0.44 M279.42 65.34 C298.32 42.63, 317.11 21.51, 335.84 0.44 M290.05 65.31 C310.16 42.16, 331.28 19.92, 346.47 0.4 M290.05 65.31 C311.42 40.69, 333.73 15.51, 346.47 0.4 M300.68 65.27 C319.58 41.45, 339.51 19.85, 357.1 0.37 M300.68 65.27 C315.42 50.44, 327.41 33.58, 357.1 0.37 M311.31 65.24 C327.1 48.26, 342.86 31.79, 367.73 0.33 M311.31 65.24 C331.95 40.24, 353.77 15.73, 367.73 0.33 M321.94 65.2 C334.16 48.43, 350.92 31.52, 378.36 0.3 M321.94 65.2 C333.27 51.06, 345.3 38.71, 378.36 0.3 M331.91 65.92 C350.92 43.47, 367.68 22.68, 388.99 0.26 M331.91 65.92 C350.06 46.24, 368.09 24.4, 388.99 0.26 M342.54 65.89 C360.02 46.21, 374.36 26.36, 399.62 0.23 M342.54 65.89 C365.67 40.26, 388.93 14.34, 399.62 0.23 M353.17 65.85 C371.37 45.17, 392.79 23.64, 410.25 0.19 M353.17 65.85 C372.96 42.96, 392.13 19.7, 410.25 0.19 M363.8 65.82 C382.53 44.48, 398.79 24.82, 420.88 0.16 M363.8 65.82 C375.77 52.24, 389.02 35.46, 420.88 0.16 M374.43 65.79 C394.38 45.22, 413.37 22, 430.85 0.88 M374.43 65.79 C388.9 48.48, 404.55 32.64, 430.85 0.88 M385.06 65.75 C403.29 43.65, 420.82 25.76, 441.48 0.85 M385.06 65.75 C399.99 46.08, 417.93 27.53, 441.48 0.85 M395.69 65.72 C408.6 53.91, 419.1 37.71, 452.11 0.81 M395.69 65.72 C414.58 43.98, 431.72 23.61, 452.11 0.81 M406.32 65.68 C421.45 47.62, 440.53 29.42, 462.74 0.78 M406.32 65.68 C420.21 49.2, 434.16 33.59, 462.74 0.78 M416.95 65.65 C437.81 38.72, 459.78 17.54, 472.06 2.25 M416.95 65.65 C431.05 49.64, 445.91 31.54, 472.06 2.25 M427.58 65.61 C443.18 49.46, 457.24 32.55, 476.79 9.01 M427.58 65.61 C442.98 48.38, 457.83 30.7, 476.79 9.01 M438.21 65.58 C452.36 52.19, 462.77 35.61, 477.57 20.3 M438.21 65.58 C448.88 52.24, 460.36 38.63, 477.57 20.3 M448.84 65.54 C459.35 56.16, 466.16 44.08, 477.71 32.34 M448.84 65.54 C461 51.96, 470.44 39.26, 477.71 32.34 M459.47 65.51 C463.41 60.24, 469.2 54.09, 477.84 44.38 M459.47 65.51 C462.88 61.3, 467.21 55.04, 477.84 44.38" stroke="#ffc9c9" stroke-width="1" fill="none"></path><path d="M16.29 0 C184.36 0.65, 352.73 -0.73, 461.47 0 M16.29 0 C107.29 0.9, 197.72 0.93, 461.47 0 M461.47 0 C472.25 -0.36, 478.3 4.21, 477.75 16.29 M461.47 0 C472.41 2.05, 479.55 6.03, 477.75 16.29 M477.75 16.29 C477.25 24.22, 478.95 31.86, 477.75 48.87 M477.75 16.29 C477.74 25.09, 478.14 32.48, 477.75 48.87 M477.75 48.87 C477.82 59.7, 473.71 64.36, 461.47 65.16 M477.75 48.87 C479.67 58.98, 472.46 64.16, 461.47 65.16 M461.47 65.16 C290.27 63.49, 118.67 64.13, 16.29 65.16 M461.47 65.16 C334.76 65.85, 206.82 66.35, 16.29 65.16 M16.29 65.16 C4.93 65.21, 1.77 60.6, 0 48.87 M16.29 65.16 C6.6 65.19, 1.67 58.9, 0 48.87 M0 48.87 C-0.71 34.82, 1.27 26.61, 0 16.29 M0 48.87 C0.21 40.37, 0.37 32.98, 0 16.29 M0 16.29 C-0.39 4.99, 4.92 -0.17, 16.29 0 M0 16.29 C-0.83 5.76, 4.26 -0.09, 16.29 0" stroke="#e03131" stroke-width="2" fill="none"></path></g><g transform="translate(546.8953625628146 416.5402998079978) rotate(0 22.565948486328125 19.4944109528156)"><text x="22.565948486328125" y="0" font-family="Virgil, Segoe UI Emoji" font-size="31.191057524504977px" fill="#e03131" text-anchor="middle" style="white-space: pre;" direction="ltr" dominant-baseline="text-before-edge">s-p</text></g><g stroke-linecap="round" transform="translate(450.06765589149654 484.1205381402541) rotate(0 126.6588628043728 29.89194001479933)"><path d="M3.98 3.46 C3.98 3.46, 3.98 3.46, 3.98 3.46 M3.98 3.46 C3.98 3.46, 3.98 3.46, 3.98 3.46 M0.18 20.03 C7.59 11.85, 12.74 3.67, 17.23 0.4 M0.18 20.03 C5.11 15.12, 7.59 10.68, 17.23 0.4 M0.96 31.31 C8.73 19.93, 17.83 11.46, 27.86 0.37 M0.96 31.31 C10.35 19.98, 21.25 8.18, 27.86 0.37 M1.1 43.35 C13.54 30.44, 23.76 15.68, 38.49 0.34 M1.1 43.35 C10.91 31.61, 22.99 19.27, 38.49 0.34 M2.54 53.89 C15.13 39.16, 28.57 25.95, 48.47 1.06 M2.54 53.89 C15.42 39.72, 26.67 26.84, 48.47 1.06 M9.24 58.38 C20.96 43.53, 31.56 30.73, 59.1 1.02 M9.24 58.38 C20.02 44.74, 31.29 32.38, 59.1 1.02 M18.55 59.85 C30.48 47.19, 43.3 34.49, 69.73 0.99 M18.55 59.85 C33.21 42.43, 48.52 25.99, 69.73 0.99 M29.18 59.82 C45.28 42.64, 59.07 24.71, 80.36 0.95 M29.18 59.82 C44.65 40.78, 62.17 22.65, 80.36 0.95 M39.81 59.79 C55.17 44.04, 68.81 26.5, 90.99 0.92 M39.81 59.79 C54.14 42.77, 68.35 26.99, 90.99 0.92 M50.44 59.75 C63.74 43.65, 75.26 32.13, 101.62 0.88 M50.44 59.75 C65 44.26, 78.79 26.82, 101.62 0.88 M61.07 59.72 C72.44 44.83, 88.01 28.18, 112.25 0.85 M61.07 59.72 C77.67 40.46, 93.45 22.43, 112.25 0.85 M71.7 59.68 C84.61 46.21, 97.61 31.93, 122.88 0.81 M71.7 59.68 C91.16 37.51, 110.01 15.64, 122.88 0.81 M82.33 59.65 C96.71 42.94, 108.85 27.61, 133.51 0.78 M82.33 59.65 C101.38 37.93, 119.09 16.64, 133.51 0.78 M92.31 60.37 C109.42 41.34, 126.19 21.04, 144.14 0.75 M92.31 60.37 C110.77 37.68, 130.44 16.58, 144.14 0.75 M102.94 60.33 C117.77 43.78, 132.58 28.03, 154.77 0.71 M102.94 60.33 C114.38 46.73, 126.36 34.17, 154.77 0.71 M113.57 60.3 C129.63 40.48, 148.41 17.73, 165.4 0.68 M113.57 60.3 C131.12 39.42, 149.89 16.35, 165.4 0.68 M124.2 60.26 C136 44.15, 153.28 26.23, 176.03 0.64 M124.2 60.26 C143.8 37.79, 164.23 13.56, 176.03 0.64 M134.83 60.23 C152.23 41.91, 163.42 25.24, 186.66 0.61 M134.83 60.23 C152.13 40.77, 168.24 22.54, 186.66 0.61 M145.46 60.2 C160.04 44.27, 169.84 33.34, 197.29 0.57 M145.46 60.2 C165.18 37.76, 185.42 13.34, 197.29 0.57 M156.09 60.16 C173.55 41.64, 186.15 25.28, 207.92 0.54 M156.09 60.16 C167.6 47.71, 178.78 33.44, 207.92 0.54 M166.72 60.13 C185.76 40.02, 205.39 17.99, 218.55 0.5 M166.72 60.13 C180.59 44.31, 195.23 28.98, 218.55 0.5 M177.35 60.09 C191.21 43.82, 207.64 26.35, 228.52 1.22 M177.35 60.09 C189.33 44.74, 202.01 30.56, 228.52 1.22 M187.98 60.06 C198.33 45.86, 213.05 34.84, 239.15 1.19 M187.98 60.06 C202.92 43.27, 218.35 25.92, 239.15 1.19 M198.61 60.02 C216.36 42.1, 231.02 23.15, 247.81 3.42 M198.61 60.02 C217.8 37.18, 238.14 15.11, 247.81 3.42 M209.24 59.99 C221.09 49.42, 230.94 35.34, 252.54 10.18 M209.24 59.99 C219.28 48.93, 229.01 36.61, 252.54 10.18 M219.87 59.95 C228.89 52.6, 237.02 41.75, 252.67 22.22 M219.87 59.95 C229.87 47.41, 241.18 36.96, 252.67 22.22 M230.5 59.92 C238.14 51.55, 242.83 47.37, 252.81 34.26 M230.5 59.92 C236.92 53.06, 243.16 46.45, 252.81 34.26 M241.79 59.13 C244.71 53.91, 251.55 49.34, 252.94 46.3 M241.79 59.13 C243.7 55.94, 246.83 53.62, 252.94 46.3" stroke="#ffc9c9" stroke-width="1" fill="none"></path><path d="M14.95 0 C96 1.85, 179.38 2.84, 238.37 0 M14.95 0 C66 1.13, 117.35 0.76, 238.37 0 M238.37 0 C248.41 1.79, 254.88 5.5, 253.32 14.95 M238.37 0 C247.57 0.76, 251.35 4.28, 253.32 14.95 M253.32 14.95 C252.5 22.47, 252.52 30.7, 253.32 44.84 M253.32 14.95 C253.48 25.74, 254.14 36.16, 253.32 44.84 M253.32 44.84 C254.98 54.15, 248.46 58.92, 238.37 59.78 M253.32 44.84 C255.26 54.39, 246.42 59.85, 238.37 59.78 M238.37 59.78 C167.44 60.55, 97.74 62.98, 14.95 59.78 M238.37 59.78 C182.02 60.85, 126.87 61.2, 14.95 59.78 M14.95 59.78 C6 59.81, 1.45 54.08, 0 44.84 M14.95 59.78 C6.63 61.31, 0.89 54.24, 0 44.84 M0 44.84 C-1.3 39.32, -1.03 33.31, 0 14.95 M0 44.84 C-0.33 37.07, -0.39 29.66, 0 14.95 M0 14.95 C-0.72 5.27, 3.96 -0.08, 14.95 0 M0 14.95 C-0.93 4.09, 3.15 -0.11, 14.95 0" stroke="#e03131" stroke-width="2" fill="none"></path></g><g transform="translate(554.7999592476281 494.51806720223783) rotate(0 21.926559448242188 19.4944109528156)"><text x="21.926559448242188" y="0" font-family="Virgil, Segoe UI Emoji" font-size="31.191057524504977px" fill="#e03131" text-anchor="middle" style="white-space: pre;" direction="ltr" dominant-baseline="text-before-edge">c-p</text></g><g stroke-linecap="round" transform="translate(338.5607020126663 714.5533305247599) rotate(0 512.9498988872488 33.59012435286934)"><path d="M6.87 2 C6.87 2, 6.87 2, 6.87 2 M6.87 2 C6.87 2, 6.87 2, 6.87 2 M7.01 14.04 C11.98 9.12, 15.53 6.22, 18.16 1.21 M7.01 14.04 C10.98 10.28, 14.63 5.25, 18.16 1.21 M6.48 26.84 C10.85 19.69, 16.74 13.74, 28.79 1.18 M6.48 26.84 C11.97 20.61, 18.56 13.4, 28.79 1.18 M5.96 39.63 C17.81 26.59, 30 11.33, 39.42 1.14 M5.96 39.63 C18.64 23.73, 32 9.61, 39.42 1.14 M4.13 53.94 C19.26 34.78, 34.32 17.35, 50.05 1.11 M4.13 53.94 C19.38 34.86, 35.79 17.07, 50.05 1.11 M5.57 64.47 C19.42 44.89, 36.97 28.4, 60.68 1.07 M5.57 64.47 C26.48 40.62, 47.13 15.92, 60.68 1.07 M12.27 68.96 C34.8 40.36, 58.14 13.38, 71.31 1.04 M12.27 68.96 C27.67 52.48, 42.2 35.42, 71.31 1.04 M20.93 71.19 C39.84 46.4, 63.37 22.1, 81.94 1 M20.93 71.19 C36.5 55.02, 49.4 37.26, 81.94 1 M31.56 71.16 C46.41 54.15, 64.05 33.48, 92.57 0.97 M31.56 71.16 C54.65 46.06, 76.03 20.38, 92.57 0.97 M42.19 71.12 C57.78 55.96, 70.54 39.1, 103.2 0.94 M42.19 71.12 C60.86 50.8, 78.34 29.06, 103.2 0.94 M52.82 71.09 C64.81 56.29, 79.71 40.38, 113.83 0.9 M52.82 71.09 C71.06 48.51, 90.91 27.43, 113.83 0.9 M63.45 71.05 C86.26 48.28, 103.86 25.03, 124.46 0.87 M63.45 71.05 C75.9 57.11, 89.97 40.29, 124.46 0.87 M74.08 71.02 C98.69 44.72, 121.7 18.05, 135.09 0.83 M74.08 71.02 C91.74 50.52, 109.88 29.9, 135.09 0.83 M84.71 70.99 C103.13 47.48, 124.91 26.05, 145.07 1.55 M84.71 70.99 C98.53 54.56, 114.11 37, 145.07 1.55 M95.34 70.95 C112.53 52.19, 127.92 36.83, 155.7 1.52 M95.34 70.95 C115.36 46.42, 136.99 23.01, 155.7 1.52 M105.97 70.92 C121.52 53.19, 135.7 34.81, 166.33 1.48 M105.97 70.92 C125.61 47.94, 145.56 24.98, 166.33 1.48 M116.6 70.88 C137.27 46.77, 161.17 22.94, 176.96 1.45 M116.6 70.88 C131.57 53.07, 147.66 36.21, 176.96 1.45 M127.23 70.85 C151.33 43.9, 172.34 20.49, 187.59 1.41 M127.23 70.85 C142.86 53.53, 158.56 34.74, 187.59 1.41 M137.86 70.81 C153.81 53.26, 172.09 34.11, 198.22 1.38 M137.86 70.81 C156.57 51.71, 173.44 29.66, 198.22 1.38 M148.49 70.78 C164.48 52.22, 180.99 31.66, 208.85 1.35 M148.49 70.78 C167.37 49.52, 183.99 28.79, 208.85 1.35 M159.12 70.74 C178.16 46.58, 199.96 21.59, 219.48 1.31 M159.12 70.74 C177.07 50.77, 192.41 32.73, 219.48 1.31 M169.75 70.71 C186.79 47.95, 208.02 29.21, 230.11 1.28 M169.75 70.71 C190.79 47.46, 212.11 23.76, 230.11 1.28 M180.38 70.68 C201.13 43.67, 225.69 16.7, 240.74 1.24 M180.38 70.68 C199.45 50.34, 216.37 27.99, 240.74 1.24 M191.01 70.64 C205.89 55.65, 217.42 38.32, 251.37 1.21 M191.01 70.64 C213.07 43.95, 234.48 19.31, 251.37 1.21 M201.64 70.61 C224.17 45.91, 241.96 24.55, 262 1.17 M201.64 70.61 C223.14 44.16, 246.13 20.17, 262 1.17 M211.61 71.33 C230.62 49.86, 248.8 26.99, 272.63 1.14 M211.61 71.33 C236 45.25, 259.77 17.44, 272.63 1.14 M222.24 71.29 C239.29 50.77, 259.23 30.46, 283.26 1.1 M222.24 71.29 C246.88 43.02, 269.97 16.06, 283.26 1.1 M232.87 71.26 C245.09 54.42, 260.24 38.7, 293.89 1.07 M232.87 71.26 C250.59 50.79, 269.95 28.14, 293.89 1.07 M243.5 71.22 C258.41 54.5, 272.27 34.54, 304.52 1.03 M243.5 71.22 C255.37 56.97, 269.2 43.19, 304.52 1.03 M254.13 71.19 C265.87 56.39, 281.21 40.44, 315.15 1 M254.13 71.19 C267.71 55.02, 280.77 40.52, 315.15 1 M264.76 71.15 C283.37 51.59, 297.55 30.63, 325.78 0.97 M264.76 71.15 C284.53 49.55, 303.77 27.01, 325.78 0.97 M275.39 71.12 C294.62 49.03, 313.97 27.38, 336.41 0.93 M275.39 71.12 C299.8 44.42, 322.42 15.88, 336.41 0.93 M286.02 71.08 C301.22 56.39, 313.3 38.08, 347.04 0.9 M286.02 71.08 C298.12 55.68, 312.15 41.28, 347.04 0.9 M296.65 71.05 C308.8 55.21, 322.32 41.17, 357.67 0.86 M296.65 71.05 C308.99 55.61, 322.92 40.81, 357.67 0.86 M307.28 71.02 C321.24 54.78, 335.28 37.96, 368.3 0.83 M307.28 71.02 C331.15 42.46, 357.05 15.19, 368.3 0.83 M317.91 70.98 C336.47 51.44, 353.13 26.97, 378.27 1.55 M317.91 70.98 C333.62 54.61, 348.42 37.21, 378.27 1.55 M328.54 70.95 C349.46 48.78, 368.79 23.08, 388.9 1.51 M328.54 70.95 C349.77 45.87, 371.09 21.74, 388.9 1.51 M339.17 70.91 C353.73 53.95, 371.26 33.92, 399.53 1.48 M339.17 70.91 C353.62 54.16, 367.35 38.2, 399.53 1.48 M349.8 70.88 C367.41 50.48, 385.99 27.91, 410.16 1.44 M349.8 70.88 C362.62 55.14, 376.7 39.58, 410.16 1.44 M360.43 70.84 C385.5 44.9, 406.3 19.6, 420.79 1.41 M360.43 70.84 C373.76 55.74, 389.74 38.19, 420.79 1.41 M371.06 70.81 C389.51 52.6, 404.67 31.5, 431.42 1.38 M371.06 70.81 C388.51 51.14, 405.66 30.63, 431.42 1.38 M381.69 70.77 C399.11 53.42, 412.17 32.83, 442.05 1.34 M381.69 70.77 C399.66 49.43, 417.57 28.94, 442.05 1.34 M392.32 70.74 C414.73 45.28, 438.35 14.54, 452.68 1.31 M392.32 70.74 C410.69 48.42, 430.23 27.28, 452.68 1.31 M402.95 70.71 C423.31 47.86, 444.54 21.89, 463.31 1.27 M402.95 70.71 C415.26 56.97, 428.02 41.65, 463.31 1.27 M413.58 70.67 C427.01 54.62, 438.34 38.6, 473.94 1.24 M413.58 70.67 C426.16 55.29, 440.42 40.25, 473.94 1.24 M424.21 70.64 C449.17 44.9, 471.17 15.82, 484.57 1.2 M424.21 70.64 C444.65 47.99, 463.6 24.74, 484.57 1.2 M434.85 70.6 C459.2 43.27, 480.27 16.7, 495.2 1.17 M434.85 70.6 C457.05 45.4, 479.49 19.32, 495.2 1.17 M444.82 71.32 C462.91 49.79, 483.33 25.92, 505.83 1.13 M444.82 71.32 C466.25 46.83, 488.1 22.61, 505.83 1.13 M455.45 71.29 C470.9 50.47, 487.3 32.84, 516.46 1.1 M455.45 71.29 C471.16 52.17, 488.28 31.8, 516.46 1.1 M466.08 71.25 C478.98 53.52, 497.86 34.84, 527.09 1.07 M466.08 71.25 C489.44 43.32, 512.71 17.12, 527.09 1.07 M476.71 71.22 C496.06 50.31, 515.82 25.36, 537.72 1.03 M476.71 71.22 C497.68 46.09, 518.72 22.58, 537.72 1.03 M487.34 71.18 C502.05 51.58, 518.67 32.66, 548.35 1 M487.34 71.18 C500.28 57.44, 512.7 43.47, 548.35 1 M497.97 71.15 C518.75 45, 541.63 21.13, 558.98 0.96 M497.97 71.15 C515.81 48.38, 534.93 26.92, 558.98 0.96 M508.6 71.12 C530.58 45.38, 557.15 18.47, 569.61 0.93 M508.6 71.12 C523.22 54.03, 537.08 38.8, 569.61 0.93 M519.23 71.08 C536.02 54.23, 548.36 37.06, 580.24 0.89 M519.23 71.08 C542.44 45.21, 564.89 18.68, 580.24 0.89 M529.86 71.05 C543.42 53.45, 556.75 40.36, 590.87 0.86 M529.86 71.05 C554.01 43.88, 578.66 14.23, 590.87 0.86 M540.49 71.01 C556.95 51.91, 573.03 31.52, 601.5 0.82 M540.49 71.01 C557.26 50.9, 574.91 30.4, 601.5 0.82 M551.12 70.98 C572.22 47.66, 592.39 20.64, 611.48 1.54 M551.12 70.98 C563.82 56.78, 576.07 43.07, 611.48 1.54 M561.75 70.94 C583.96 45.85, 604.54 25.41, 622.11 1.51 M561.75 70.94 C578.44 51.73, 594.03 32.17, 622.11 1.51 M572.38 70.91 C590.69 47.52, 612.87 26.41, 632.74 1.48 M572.38 70.91 C591.05 50.09, 607.66 29.57, 632.74 1.48 M583.01 70.87 C601.18 48.23, 623.12 22.5, 643.37 1.44 M583.01 70.87 C601.64 49.19, 621.03 27.16, 643.37 1.44 M593.64 70.84 C606.93 53.56, 623.19 39.32, 654 1.41 M593.64 70.84 C611.46 50, 630.79 28.18, 654 1.41 M604.27 70.8 C615.5 55.02, 630.26 39.33, 664.63 1.37 M604.27 70.8 C618 55.52, 631.56 39.27, 664.63 1.37 M614.9 70.77 C638.18 46.24, 657.78 18.65, 675.26 1.34 M614.9 70.77 C638.39 42.5, 663.9 15.12, 675.26 1.34 M625.53 70.74 C644.39 52.14, 663.39 29.73, 685.89 1.3 M625.53 70.74 C638.4 57.04, 651.31 42.92, 685.89 1.3 M636.16 70.7 C658.96 45.96, 678.13 24.04, 696.52 1.27 M636.16 70.7 C654.23 49.71, 673.25 27.47, 696.52 1.27 M646.79 70.67 C671.05 45.55, 692.52 17.49, 707.15 1.23 M646.79 70.67 C663.65 49.84, 681.83 27.69, 707.15 1.23 M657.42 70.63 C671.31 55.65, 685.42 41.73, 717.78 1.2 M657.42 70.63 C676.13 47.45, 697.01 26.24, 717.78 1.2 M668.05 70.6 C681.09 56.32, 695.06 40.86, 728.41 1.16 M668.05 70.6 C686.54 48.82, 706.49 26.23, 728.41 1.16 M678.02 71.32 C697.01 50.13, 714.95 28.57, 739.04 1.13 M678.02 71.32 C697.17 50.64, 714.34 30.03, 739.04 1.13 M688.66 71.28 C704.4 57.22, 716.13 40.25, 749.67 1.1 M688.66 71.28 C707.5 48.59, 728.6 26.31, 749.67 1.1 M699.29 71.25 C713.25 55.42, 724.46 40.71, 760.3 1.06 M699.29 71.25 C710.81 57.66, 725.12 41.7, 760.3 1.06 M709.92 71.21 C731.97 44.85, 758.52 15.36, 770.93 1.03 M709.92 71.21 C730.93 47.84, 750.77 24.93, 770.93 1.03 M720.55 71.18 C732.17 57.59, 745.76 40.67, 781.56 0.99 M720.55 71.18 C736.95 52.41, 751.49 33.76, 781.56 0.99 M731.18 71.15 C756.15 42.49, 777.36 16.53, 792.19 0.96 M731.18 71.15 C744.52 55.98, 757.37 40.5, 792.19 0.96 M741.81 71.11 C753.63 58.58, 765.88 42.88, 802.82 0.92 M741.81 71.11 C762.41 46.51, 782.99 22.72, 802.82 0.92 M752.44 71.08 C767.2 56.28, 778.96 40.38, 813.45 0.89 M752.44 71.08 C765.48 54.25, 780.38 37.96, 813.45 0.89 M763.07 71.04 C775.1 57.01, 787.6 43.18, 824.08 0.85 M763.07 71.04 C783.57 47.59, 803.68 24.01, 824.08 0.85 M773.7 71.01 C800.13 43.74, 821.64 15.41, 834.05 1.57 M773.7 71.01 C789.84 52.87, 804.09 34.88, 834.05 1.57 M784.33 70.97 C799.86 53.63, 815.39 35.57, 844.68 1.54 M784.33 70.97 C800.34 51.97, 818.06 31.95, 844.68 1.54 M794.96 70.94 C817.35 43.19, 839.86 19.49, 855.31 1.51 M794.96 70.94 C815.52 46.81, 837.22 21.52, 855.31 1.51 M805.59 70.9 C826.68 48.22, 843.63 27.32, 865.94 1.47 M805.59 70.9 C830.05 43.85, 851.69 17.06, 865.94 1.47 M816.22 70.87 C832.47 50.84, 846.3 35.43, 876.57 1.44 M816.22 70.87 C830.01 54.43, 843.48 39.34, 876.57 1.44 M826.85 70.84 C849.11 44.55, 873.12 18.01, 887.2 1.4 M826.85 70.84 C849.43 44.07, 871.69 18.93, 887.2 1.4 M837.48 70.8 C861.78 44.37, 881.45 16.75, 897.83 1.37 M837.48 70.8 C859.12 46.45, 879.26 22.82, 897.83 1.37 M848.11 70.77 C865.09 49.76, 883.17 29.11, 908.46 1.33 M848.11 70.77 C871.85 44.59, 895.13 17.25, 908.46 1.33 M858.74 70.73 C875.01 50.99, 890.12 34.36, 919.09 1.3 M858.74 70.73 C873.08 54.54, 887.01 38.35, 919.09 1.3 M869.37 70.7 C890.85 45.52, 915.58 16.73, 929.72 1.26 M869.37 70.7 C884.05 54.26, 899.31 36.33, 929.72 1.26 M880 70.66 C898.03 53.86, 910.48 34.87, 940.35 1.23 M880 70.66 C903.9 43, 925.3 17.92, 940.35 1.23 M890.63 70.63 C907.74 50.29, 923.04 34.13, 950.98 1.19 M890.63 70.63 C904.99 54.08, 918.9 37.85, 950.98 1.19 M901.26 70.59 C922.3 44.31, 945.25 21.16, 961.61 1.16 M901.26 70.59 C919.11 48.27, 939.79 26.6, 961.61 1.16 M911.23 71.31 C923.12 58.6, 936.64 40.66, 972.24 1.13 M911.23 71.31 C928.11 50.44, 946.06 30.46, 972.24 1.13 M921.86 71.28 C942.78 49.18, 961.78 24.54, 982.87 1.09 M921.86 71.28 C942.24 46.2, 964.69 21.47, 982.87 1.09 M932.49 71.24 C953.88 48.15, 974.69 21.93, 993.5 1.06 M932.49 71.24 C954.42 44.47, 977.01 19.03, 993.5 1.06 M943.12 71.21 C964.11 43.55, 987.73 17.8, 1004.13 1.02 M943.12 71.21 C956.5 53.61, 970.82 36.62, 1004.13 1.02 M953.75 71.18 C967.3 55.84, 985.29 36.73, 1012.8 3.25 M953.75 71.18 C974.82 46.01, 996.45 21.5, 1012.8 3.25 M964.38 71.14 C981.71 50.21, 1001.87 29.13, 1022.11 4.73 M964.38 71.14 C981.31 52.45, 999.43 32.04, 1022.11 4.73 M975.01 71.11 C986.47 57.21, 998.82 41.47, 1026.84 11.48 M975.01 71.11 C993.38 49.46, 1010.95 29.83, 1026.84 11.48 M985.64 71.07 C1003.05 50.99, 1018.51 34.56, 1026.97 23.53 M985.64 71.07 C998.2 56.97, 1009.27 43.87, 1026.97 23.53 M996.27 71.04 C1008.83 56.09, 1021.86 41.55, 1027.76 34.81 M996.27 71.04 C1006.69 58.51, 1015.72 48.03, 1027.76 34.81 M1009.53 67.98 C1013 63.83, 1019.43 55.91, 1027.9 46.85 M1009.53 67.98 C1016.63 61.46, 1021.25 52.53, 1027.9 46.85" stroke="#ffc9c9" stroke-width="1" fill="none"></path><path d="M16.8 0 C242.25 2.06, 467.87 2.54, 1009.1 0 M16.8 0 C393.57 3.26, 770.66 3.39, 1009.1 0 M1009.1 0 C1019.62 -0.45, 1024.08 7.56, 1025.9 16.8 M1009.1 0 C1018.46 -1.47, 1025.67 5.88, 1025.9 16.8 M1025.9 16.8 C1025.13 30.27, 1025.09 41.47, 1025.9 50.39 M1025.9 16.8 C1025.99 30.33, 1025.97 42.88, 1025.9 50.39 M1025.9 50.39 C1024.09 61.46, 1020.58 69.13, 1009.1 67.18 M1025.9 50.39 C1026.57 63.27, 1019.64 66.97, 1009.1 67.18 M1009.1 67.18 C692.93 70.68, 378.6 70.9, 16.8 67.18 M1009.1 67.18 C798.66 64.73, 589.3 64.53, 16.8 67.18 M16.8 67.18 C7.23 66.39, -0.13 60.88, 0 50.39 M16.8 67.18 C4.96 65.81, 1.54 62.68, 0 50.39 M0 50.39 C0.25 37.89, -0.13 29.93, 0 16.8 M0 50.39 C-1.12 40.19, 0.48 30.71, 0 16.8 M0 16.8 C-1.72 5.14, 4.2 0.69, 16.8 0 M0 16.8 C1.93 4.6, 4.86 0.75, 16.8 0" stroke="#e03131" stroke-width="2" fill="none"></path></g><g transform="translate(828.9446524135874 728.6490439248136) rotate(0 22.565948486328125 19.4944109528156)"><text x="22.565948486328125" y="0" font-family="Virgil, Segoe UI Emoji" font-size="31.191057524504977px" fill="#e03131" text-anchor="middle" style="white-space: pre;" direction="ltr" dominant-baseline="text-before-edge">s-p</text></g><g stroke-linecap="round" transform="translate(367.99939443608855 797.2400681906616) rotate(0 126.6588628043728 29.89194001479933)"><path d="M3.98 3.46 C3.98 3.46, 3.98 3.46, 3.98 3.46 M3.98 3.46 C3.98 3.46, 3.98 3.46, 3.98 3.46 M0.18 20.03 C5.24 14.68, 6.43 10.37, 17.23 0.4 M0.18 20.03 C5.92 12.07, 13.65 4.79, 17.23 0.4 M0.96 31.31 C6.65 24.28, 14.7 15.94, 27.86 0.37 M0.96 31.31 C11.69 19.88, 21.9 7.77, 27.86 0.37 M1.1 43.35 C15.8 30.21, 28.09 13.35, 38.49 0.34 M1.1 43.35 C10.99 31.85, 19.96 21.1, 38.49 0.34 M2.54 53.89 C12.79 45.3, 21.79 32.88, 48.47 1.06 M2.54 53.89 C11.26 44.41, 19.75 32.11, 48.47 1.06 M9.24 58.38 C21.9 44.25, 32.34 32.03, 59.1 1.02 M9.24 58.38 C28.09 37.53, 45.4 17.58, 59.1 1.02 M18.55 59.85 C29.41 46.24, 42.69 34.57, 69.73 0.99 M18.55 59.85 C37.5 38.57, 55.36 15.84, 69.73 0.99 M29.18 59.82 C39.84 45.07, 53.21 33.62, 80.36 0.95 M29.18 59.82 C45.7 42.13, 62.34 22.02, 80.36 0.95 M39.81 59.79 C57.73 39.63, 72.47 21.77, 90.99 0.92 M39.81 59.79 C55.88 40.56, 72.96 22.33, 90.99 0.92 M50.44 59.75 C70.49 37.84, 89.53 15.63, 101.62 0.88 M50.44 59.75 C67.24 39.44, 84.99 18.45, 101.62 0.88 M61.07 59.72 C78.85 41.06, 95.79 18.65, 112.25 0.85 M61.07 59.72 C75.81 42.39, 89.06 27.37, 112.25 0.85 M71.7 59.68 C88.73 38.46, 107.13 16.06, 122.88 0.81 M71.7 59.68 C91.98 37.35, 110.39 15.74, 122.88 0.81 M82.33 59.65 C96.95 43.36, 111.92 25.1, 133.51 0.78 M82.33 59.65 C97.64 42.18, 113.23 23.95, 133.51 0.78 M92.31 60.37 C104.34 45.63, 118.94 28.26, 144.14 0.75 M92.31 60.37 C108.26 40.45, 126.21 22.66, 144.14 0.75 M102.94 60.33 C116.44 44.02, 129.91 28.45, 154.77 0.71 M102.94 60.33 C113.15 48.89, 124.75 35.5, 154.77 0.71 M113.57 60.3 C132.57 40.88, 147.89 19.09, 165.4 0.68 M113.57 60.3 C127.71 43.94, 139.82 28.62, 165.4 0.68 M124.2 60.26 C139.43 40.67, 158.46 21.74, 176.03 0.64 M124.2 60.26 C139.94 42.2, 154.29 25.12, 176.03 0.64 M134.83 60.23 C147.01 46.06, 160.77 30.66, 186.66 0.61 M134.83 60.23 C154.51 37.73, 174.07 13.96, 186.66 0.61 M145.46 60.2 C163.06 38.69, 180.79 19.96, 197.29 0.57 M145.46 60.2 C165.69 37.88, 186.77 13.18, 197.29 0.57 M156.09 60.16 C174.06 40.26, 193.05 20.85, 207.92 0.54 M156.09 60.16 C173.15 41.88, 189.61 22.22, 207.92 0.54 M166.72 60.13 C181.92 42.67, 195.86 26.56, 218.55 0.5 M166.72 60.13 C177.96 48.02, 187.92 34.59, 218.55 0.5 M177.35 60.09 C188.81 45.34, 199.21 34.14, 228.52 1.22 M177.35 60.09 C195.52 40.28, 213.51 18.39, 228.52 1.22 M187.98 60.06 C201.21 43.64, 216.74 30.69, 239.15 1.19 M187.98 60.06 C206.86 38.1, 227.92 16.31, 239.15 1.19 M198.61 60.02 C218.25 40.55, 235.78 19.15, 247.81 3.42 M198.61 60.02 C210.11 47.03, 219.51 36.03, 247.81 3.42 M209.24 59.99 C220.63 49.82, 229.9 36.93, 252.54 10.18 M209.24 59.99 C219.15 48.22, 229.55 36.58, 252.54 10.18 M219.87 59.95 C231.82 46.95, 238.85 37.35, 252.67 22.22 M219.87 59.95 C231.13 46.41, 242.58 32.83, 252.67 22.22 M230.5 59.92 C239.19 49.76, 246.08 44.37, 252.81 34.26 M230.5 59.92 C235.19 54.82, 241.18 47.06, 252.81 34.26 M241.79 59.13 C245.1 55.5, 249.29 50.79, 252.94 46.3 M241.79 59.13 C245.59 54.47, 250.31 49.22, 252.94 46.3" stroke="#ffc9c9" stroke-width="1" fill="none"></path><path d="M14.95 0 C78.3 0.64, 137.57 -0.99, 238.37 0 M14.95 0 C91.07 -1.63, 167 -0.59, 238.37 0 M238.37 0 C246.74 -1.28, 253.11 5.23, 253.32 14.95 M238.37 0 C249.36 0.77, 254.01 3.97, 253.32 14.95 M253.32 14.95 C254.84 28.4, 254.14 38.17, 253.32 44.84 M253.32 14.95 C252.35 25.83, 253.39 37.82, 253.32 44.84 M253.32 44.84 C253.9 56.27, 247.76 59.6, 238.37 59.78 M253.32 44.84 C253.73 53.13, 250.54 58.25, 238.37 59.78 M238.37 59.78 C178.35 60.51, 120.33 58.08, 14.95 59.78 M238.37 59.78 C176.41 58.14, 112.99 58.17, 14.95 59.78 M14.95 59.78 C4.43 58.59, 1.34 55.76, 0 44.84 M14.95 59.78 C5.38 59.23, -1.39 54.99, 0 44.84 M0 44.84 C-0.18 40.48, 1.45 30.77, 0 14.95 M0 44.84 C-1.1 37.04, -0.94 30.05, 0 14.95 M0 14.95 C1.68 4.11, 4.34 0.65, 14.95 0 M0 14.95 C2.14 2.78, 6.67 -1.61, 14.95 0" stroke="#e03131" stroke-width="2" fill="none"></path></g><g transform="translate(472.7316977922201 807.6375972526454) rotate(0 21.926559448242188 19.4944109528156)"><text x="21.926559448242188" y="0" font-family="Virgil, Segoe UI Emoji" font-size="31.191057524504977px" fill="#e03131" text-anchor="middle" style="white-space: pre;" direction="ltr" dominant-baseline="text-before-edge">c-p</text></g><g stroke-linecap="round" transform="translate(743.0511752246148 797.2400683074653) rotate(0 126.6588628043728 29.89194001479933)"><path d="M3.98 3.46 C3.98 3.46, 3.98 3.46, 3.98 3.46 M3.98 3.46 C3.98 3.46, 3.98 3.46, 3.98 3.46 M0.18 20.03 C2.6 15, 7.47 12.05, 17.23 0.4 M0.18 20.03 C5.46 11.98, 12.76 6.22, 17.23 0.4 M0.96 31.31 C10.12 21.78, 21.11 10.29, 27.86 0.37 M0.96 31.31 C9.98 21.97, 17.89 10.73, 27.86 0.37 M1.1 43.35 C16.3 28.82, 30.66 12.23, 38.49 0.34 M1.1 43.35 C12.47 31.45, 22.08 19.97, 38.49 0.34 M2.54 53.89 C16.25 38.44, 30.89 18.08, 48.47 1.06 M2.54 53.89 C17.55 35.69, 32.98 17.73, 48.47 1.06 M9.24 58.38 C21.59 46.69, 30.31 33.25, 59.1 1.02 M9.24 58.38 C25.83 38.66, 43.82 20.19, 59.1 1.02 M18.55 59.85 C30.53 47.23, 41.13 35.48, 69.73 0.99 M18.55 59.85 C30.23 44.1, 44.25 29.66, 69.73 0.99 M29.18 59.82 C42.2 41.34, 57.73 26.79, 80.36 0.95 M29.18 59.82 C41.05 45.8, 52.58 33.54, 80.36 0.95 M39.81 59.79 C52.16 45.15, 64.28 33.52, 90.99 0.92 M39.81 59.79 C58.94 39.02, 75.89 17.88, 90.99 0.92 M50.44 59.75 C68.03 38.8, 88.95 14.72, 101.62 0.88 M50.44 59.75 C66.93 41.65, 82.07 23.94, 101.62 0.88 M61.07 59.72 C77.72 41.4, 95.5 19.85, 112.25 0.85 M61.07 59.72 C79.43 36.71, 100.47 14.84, 112.25 0.85 M71.7 59.68 C89.8 36.73, 108.8 18.64, 122.88 0.81 M71.7 59.68 C83.04 46.64, 92.24 35.88, 122.88 0.81 M82.33 59.65 C95.3 43.17, 109.83 30.29, 133.51 0.78 M82.33 59.65 C96.14 43.21, 109.54 27.51, 133.51 0.78 M92.31 60.37 C106.94 43.47, 123.83 24.7, 144.14 0.75 M92.31 60.37 C104.17 46.96, 114.11 34.22, 144.14 0.75 M102.94 60.33 C115.43 42.76, 133 24.76, 154.77 0.71 M102.94 60.33 C123.03 37.63, 141.82 14.59, 154.77 0.71 M113.57 60.3 C128.43 42.55, 145.45 22.49, 165.4 0.68 M113.57 60.3 C127.98 43.36, 143.17 27.87, 165.4 0.68 M124.2 60.26 C136.47 43.67, 149.82 31.02, 176.03 0.64 M124.2 60.26 C140.09 43.37, 154.1 25.57, 176.03 0.64 M134.83 60.23 C146.69 44.95, 157.72 33.72, 186.66 0.61 M134.83 60.23 C146.39 46.68, 158.62 30.87, 186.66 0.61 M145.46 60.2 C165.85 36.34, 184.75 13.96, 197.29 0.57 M145.46 60.2 C155.49 46.79, 165.92 35.08, 197.29 0.57 M156.09 60.16 C173.9 36.97, 196.88 15.38, 207.92 0.54 M156.09 60.16 C174.36 38.2, 193.75 17.48, 207.92 0.54 M166.72 60.13 C186.01 36.73, 208.59 12.53, 218.55 0.5 M166.72 60.13 C183.73 41.42, 200.75 21.6, 218.55 0.5 M177.35 60.09 C186.92 47.04, 201.12 31.96, 228.52 1.22 M177.35 60.09 C189.83 47.37, 200.79 33.53, 228.52 1.22 M187.98 60.06 C200.27 44.01, 212.59 31.67, 239.15 1.19 M187.98 60.06 C202.24 41.71, 218.69 25, 239.15 1.19 M198.61 60.02 C213.56 40.74, 231.12 25.32, 247.81 3.42 M198.61 60.02 C211.24 46.8, 222.24 31.83, 247.81 3.42 M209.24 59.99 C223.74 41.88, 240.64 24.5, 252.54 10.18 M209.24 59.99 C223.7 44.32, 237.88 26.49, 252.54 10.18 M219.87 59.95 C231.04 48.97, 242.43 36.32, 252.67 22.22 M219.87 59.95 C230.41 47.62, 241.94 34.24, 252.67 22.22 M230.5 59.92 C235.55 54.99, 242.9 45.8, 252.81 34.26 M230.5 59.92 C238.7 50.78, 244.93 42.11, 252.81 34.26 M241.79 59.13 C243.83 56.05, 247.95 53.11, 252.94 46.3 M241.79 59.13 C243.77 56.12, 247.25 54, 252.94 46.3" stroke="#ffc9c9" stroke-width="1" fill="none"></path><path d="M14.95 0 C100.5 1.09, 183.51 1.41, 238.37 0 M14.95 0 C62.31 -1.42, 108.55 -0.98, 238.37 0 M238.37 0 C248.04 -0.5, 254.49 2.98, 253.32 14.95 M238.37 0 C246.59 -1.92, 253.7 5.65, 253.32 14.95 M253.32 14.95 C254.76 25.63, 253.14 38.79, 253.32 44.84 M253.32 14.95 C253.19 25.9, 253.03 35.31, 253.32 44.84 M253.32 44.84 C255 54.03, 249.4 59.91, 238.37 59.78 M253.32 44.84 C253.83 56.79, 248.69 60.29, 238.37 59.78 M238.37 59.78 C177.02 59.27, 117.28 59.16, 14.95 59.78 M238.37 59.78 C173.96 59.97, 108.06 58.45, 14.95 59.78 M14.95 59.78 C4.53 61.7, 0.53 54.71, 0 44.84 M14.95 59.78 C5.99 59.39, -0.48 54.86, 0 44.84 M0 44.84 C0.04 33.42, 0.61 26.26, 0 14.95 M0 44.84 C-0.23 34.41, -0.87 23.85, 0 14.95 M0 14.95 C0.08 3.04, 6.83 -1.88, 14.95 0 M0 14.95 C-1.81 6.44, 5.19 1.17, 14.95 0" stroke="#e03131" stroke-width="2" fill="none"></path></g><g transform="translate(847.7834785807463 807.637597369449) rotate(0 21.926559448242188 19.4944109528156)"><text x="21.926559448242188" y="0" font-family="Virgil, Segoe UI Emoji" font-size="31.191057524504977px" fill="#e03131" text-anchor="middle" style="white-space: pre;" direction="ltr" dominant-baseline="text-before-edge">c-p</text></g><g stroke-linecap="round" transform="translate(1087.4516495496591 799.8938684630199) rotate(0 126.6588628043728 29.89194001479933)"><path d="M3.98 3.46 C3.98 3.46, 3.98 3.46, 3.98 3.46 M3.98 3.46 C3.98 3.46, 3.98 3.46, 3.98 3.46 M2.8 17.01 C6.7 14.44, 11.74 9.62, 16.58 1.16 M2.8 17.01 C6.8 13.46, 9.85 8.25, 16.58 1.16 M2.93 29.05 C7.49 20.51, 15.93 14.17, 27.21 1.13 M2.93 29.05 C9.07 22.82, 13.87 15.19, 27.21 1.13 M3.07 41.09 C15.53 27.59, 27.85 12.97, 37.84 1.09 M3.07 41.09 C13.01 28.06, 24.51 17.34, 37.84 1.09 M3.2 53.13 C19.1 33.95, 34.95 15.5, 48.47 1.06 M3.2 53.13 C16.53 36.8, 32.42 18.63, 48.47 1.06 M7.92 59.89 C24.41 43.72, 35.5 26.76, 59.1 1.02 M7.92 59.89 C20.73 45.56, 33.09 31, 59.1 1.02 M15.93 62.87 C36.51 40.57, 55.42 18.89, 69.73 0.99 M15.93 62.87 C27.67 50.26, 38.86 36.81, 69.73 0.99 M26.56 62.84 C47.2 41.13, 63.02 20.24, 79.7 1.71 M26.56 62.84 C42.82 45.22, 58.05 26.82, 79.7 1.71 M36.53 63.56 C51.06 44.81, 67.79 28.41, 90.33 1.67 M36.53 63.56 C49.18 48.79, 61.04 36.54, 90.33 1.67 M47.16 63.52 C60.47 49.12, 74.75 31.65, 100.96 1.64 M47.16 63.52 C67.45 39.93, 88.26 17.36, 100.96 1.64 M57.79 63.49 C74.69 46.36, 89.83 30.88, 111.59 1.6 M57.79 63.49 C71.51 49.18, 84.03 32.93, 111.59 1.6 M68.42 63.46 C82.89 46.55, 98.82 26.39, 122.22 1.57 M68.42 63.46 C84.78 46.13, 99.29 27.89, 122.22 1.57 M79.05 63.42 C97.28 41.17, 115.33 21.3, 132.85 1.53 M79.05 63.42 C96.56 43.64, 113.93 22.41, 132.85 1.53 M89.68 63.39 C108.42 40.08, 130.56 17.29, 143.48 1.5 M89.68 63.39 C101.84 49.87, 113.4 38.5, 143.48 1.5 M100.31 63.35 C117.55 42.07, 137.44 21.63, 154.11 1.47 M100.31 63.35 C115.01 46.18, 129.77 28.68, 154.11 1.47 M110.94 63.32 C127.37 47.1, 141.32 29.37, 164.74 1.43 M110.94 63.32 C129.53 42.92, 148.14 21.16, 164.74 1.43 M121.58 63.28 C132.45 48.98, 143.48 36.89, 175.37 1.4 M121.58 63.28 C133.17 50.29, 145.26 35.36, 175.37 1.4 M132.21 63.25 C149.09 39.96, 170.94 20.49, 186 1.36 M132.21 63.25 C147.03 45.71, 161.32 29.73, 186 1.36 M142.84 63.21 C162.41 40.16, 187.06 15.42, 196.63 1.33 M142.84 63.21 C161.92 43.23, 179.64 22.82, 196.63 1.33 M153.47 63.18 C173.36 42.96, 192.06 22.48, 207.26 1.29 M153.47 63.18 C167.68 47.51, 180.77 31.7, 207.26 1.29 M164.1 63.15 C180.31 44.68, 196.38 26.21, 217.89 1.26 M164.1 63.15 C177.79 47.71, 189.76 32.86, 217.89 1.26 M174.73 63.11 C187.9 47.05, 201.25 32.43, 228.52 1.22 M174.73 63.11 C187.69 48.73, 200.66 34.19, 228.52 1.22 M185.36 63.08 C205.26 42.61, 222.21 21.44, 239.15 1.19 M185.36 63.08 C197.4 51.03, 207.8 37.77, 239.15 1.19 M195.99 63.04 C211.86 42.64, 231.01 24.37, 247.16 4.17 M195.99 63.04 C212 45.44, 228.7 26.86, 247.16 4.17 M205.96 63.76 C217.32 49.39, 230.26 35.69, 253.2 9.42 M205.96 63.76 C216.19 52.61, 226.16 41.12, 253.2 9.42 M216.59 63.73 C231.38 46.91, 241.89 33.98, 253.33 21.46 M216.59 63.73 C227.35 51.29, 236.59 40.88, 253.33 21.46 M227.22 63.69 C234.85 52.54, 244.15 40.28, 253.46 33.5 M227.22 63.69 C233.64 56.96, 237.77 51.05, 253.46 33.5 M239.82 61.39 C244.89 58.31, 244.19 54.51, 254.25 44.79 M239.82 61.39 C245.9 56.02, 251.21 48.26, 254.25 44.79" stroke="#ffc9c9" stroke-width="1" fill="none"></path><path d="M14.95 0 C89.33 1.05, 163.47 1.32, 238.37 0 M14.95 0 C94.37 1.61, 175.48 2.07, 238.37 0 M238.37 0 C247.32 -0.34, 254.91 4.59, 253.32 14.95 M238.37 0 C248.3 1.94, 254.32 6.74, 253.32 14.95 M253.32 14.95 C252.17 23.47, 254.9 31.9, 253.32 44.84 M253.32 14.95 C254.2 25.65, 253.55 35.79, 253.32 44.84 M253.32 44.84 C254.64 53.33, 248.2 60.82, 238.37 59.78 M253.32 44.84 C255.16 55.85, 248.15 59.46, 238.37 59.78 M238.37 59.78 C179.25 60.28, 118.96 63.31, 14.95 59.78 M238.37 59.78 C165.25 60.45, 92.44 60.84, 14.95 59.78 M14.95 59.78 C6.2 61.36, 0.22 53.09, 0 44.84 M14.95 59.78 C5.9 60.74, 1.11 56.53, 0 44.84 M0 44.84 C-1.29 37.36, 0.08 28.64, 0 14.95 M0 44.84 C0.91 33.19, 0.79 20.74, 0 14.95 M0 14.95 C-1.25 3.29, 6.31 1.03, 14.95 0 M0 14.95 C0.94 2.91, 5.2 -0.36, 14.95 0" stroke="#e03131" stroke-width="2" fill="none"></path></g><g transform="translate(1192.1839529057888 810.2913975250036) rotate(0 21.926559448242188 19.4944109528156)"><text x="21.926559448242188" y="0" font-family="Virgil, Segoe UI Emoji" font-size="31.191057524504977px" fill="#e03131" text-anchor="middle" style="white-space: pre;" direction="ltr" dominant-baseline="text-before-edge">c-p</text></g><g mask="url(#mask-wBkKWCKZE-DRvKH7971aU)" stroke-linecap="round"><g transform="translate(765.6368187019107 539.7978996272365) rotate(0 148.4685402357727 -56.707562314981345)"><path d="M0.62 0.92 C45.8 -2.89, 226.9 -5.63, 271.01 -23.41 C315.11 -41.19, 297.65 -91.41, 265.25 -105.76 C232.84 -120.12, 108.15 -108.96, 76.59 -109.53 M-0.52 0.36 C44.48 -3.22, 225.65 -3.97, 269.83 -22 C314.02 -40.02, 296.71 -93.38, 264.57 -107.79 C232.44 -122.2, 108.15 -108.3, 77.03 -108.45" stroke="#e03131" stroke-width="2" fill="none"></path></g><g transform="translate(765.6368187019107 539.7978996272365) rotate(0 148.4685402357727 -56.707562314981345)"><path d="M104.65 -120.17 C98.11 -117.33, 88.15 -112.92, 77.03 -108.45 M104.65 -120.17 C94.73 -115.84, 85.41 -111.07, 77.03 -108.45" stroke="#e03131" stroke-width="2" fill="none"></path></g><g transform="translate(765.6368187019107 539.7978996272365) rotate(0 148.4685402357727 -56.707562314981345)"><path d="M105.72 -99.67 C98.96 -102.79, 88.69 -104.33, 77.03 -108.45 M105.72 -99.67 C95.36 -102.52, 85.67 -104.92, 77.03 -108.45" stroke="#e03131" stroke-width="2" fill="none"></path></g></g><mask id="mask-wBkKWCKZE-DRvKH7971aU"><rect x="0" y="0" fill="#fff" width="1137.0695214130485" height="749.2959498980465"></rect><rect x="933.9748184271157" y="435.84843696839187" fill="#000" width="257.2550048828125" height="77.97764381126244" opacity="1"></rect></mask><g transform="translate(933.9748184271157 435.84843696839187) rotate(0 -19.869459489432302 47.24190034386325)"><text x="128.62750244140625" y="0" font-family="Virgil, Segoe UI Emoji" font-size="31.191057524504977px" fill="#e03131" text-anchor="middle" style="white-space: pre;" direction="ltr" dominant-baseline="text-before-edge">x_request_id / </text><text x="128.62750244140625" y="38.98882190563122" font-family="Virgil, Segoe UI Emoji" font-size="31.191057524504977px" fill="#e03131" text-anchor="middle" style="white-space: pre;" direction="ltr" dominant-baseline="text-before-edge">trace_id</text></g><g mask="url(#mask-UqtCpywx04z3m2J62WCRR)" stroke-linecap="round"><g transform="translate(293.2385300108199 856.5363462540394) rotate(0 -75.86331918245423 -60.08646163572581)"><path d="M-0.56 1.07 C-23.43 -3.91, -114.51 -13.22, -137.31 -28.85 C-160.1 -44.49, -154.22 -77.69, -137.31 -92.73 C-120.41 -107.77, -53.05 -114.39, -35.89 -119.09 M1.34 0.59 C-21.63 -4.2, -114.74 -14.6, -137.95 -30.5 C-161.15 -46.39, -154.84 -79.65, -137.89 -94.78 C-120.93 -109.9, -53.27 -116.86, -36.22 -121.25" stroke="#e03131" stroke-width="2" fill="none"></path></g><g transform="translate(293.2385300108199 856.5363462540394) rotate(0 -75.86331918245423 -60.08646163572581)"><path d="M-62.11 -106.09 C-52.86 -109.45, -45.53 -114.26, -36.22 -121.25 M-62.11 -106.09 C-52.64 -112.41, -43.06 -116.1, -36.22 -121.25" stroke="#e03131" stroke-width="2" fill="none"></path></g><g transform="translate(293.2385300108199 856.5363462540394) rotate(0 -75.86331918245423 -60.08646163572581)"><path d="M-65.8 -126.28 C-55.28 -123.69, -46.87 -122.58, -36.22 -121.25 M-65.8 -126.28 C-55.23 -125.61, -44.37 -122.3, -36.22 -121.25" stroke="#e03131" stroke-width="2" fill="none"></path></g></g><mask id="mask-UqtCpywx04z3m2J62WCRR"><rect x="0" y="0" fill="#fff" width="531.1299981522125" height="1076.3908023435329"></rect><rect x="10" y="776.5643377618203" fill="#000" width="262.027099609375" height="38.98882190563122" opacity="1"></rect></mask><g transform="translate(10 776.5643377618203) rotate(0 207.37521082836565 19.88554685649325)"><text x="131.0135498046875" y="0" font-family="Virgil, Segoe UI Emoji" font-size="31.191057524504977px" fill="#e03131" text-anchor="middle" style="white-space: pre;" direction="ltr" dominant-baseline="text-before-edge">syscall_trace_id</text></g><g stroke-linecap="round"><g transform="translate(722.18571276498 828.7818989439999) rotate(0 -37.83811014799994 0.28207245014732507)"><path d="M0.41 1.13 C-11.94 1.37, -62.31 1.12, -74.87 1.04 M-0.83 0.68 C-13.2 0.59, -62.98 -1.05, -75.39 -0.84" stroke="#e03131" stroke-width="2" fill="none"></path></g><g transform="translate(722.18571276498 828.7818989439999) rotate(0 -37.83811014799994 0.28207245014732507)"><path d="M-47.09 -10.78 C-51.92 -6.99, -59.69 -4.76, -75.39 -0.84 M-47.09 -10.78 C-56.54 -7.1, -63.8 -5.03, -75.39 -0.84" stroke="#e03131" stroke-width="2" fill="none"></path></g><g transform="translate(722.18571276498 828.7818989439999) rotate(0 -37.83811014799994 0.28207245014732507)"><path d="M-47.32 9.74 C-52.02 8.69, -59.74 6.07, -75.39 -0.84 M-47.32 9.74 C-56.78 7.18, -63.98 3, -75.39 -0.84" stroke="#e03131" stroke-width="2" fill="none"></path></g></g><mask></mask><g stroke-linecap="round"><g transform="translate(1064.4209272699627 824.449807621152) rotate(0 -24.119891468280002 0.28207245014732507)"><path d="M-0.22 0.12 C-8.3 0.15, -40.86 0.66, -48.78 0.72 M0.67 -0.29 C-7.22 -0.21, -39.74 -0.39, -47.83 -0.17" stroke="#e03131" stroke-width="2" fill="none"></path></g><g transform="translate(1064.4209272699627 824.449807621152) rotate(0 -24.119891468280002 0.28207245014732507)"><path d="M-25.23 -8.61 C-30.45 -7.6, -35.87 -3.69, -47.83 -0.17 M-25.23 -8.61 C-32.03 -5.68, -37.78 -3.65, -47.83 -0.17" stroke="#e03131" stroke-width="2" fill="none"></path></g><g transform="translate(1064.4209272699627 824.449807621152) rotate(0 -24.119891468280002 0.28207245014732507)"><path d="M-25.09 7.88 C-30.42 4.9, -35.87 4.81, -47.83 -0.17 M-25.09 7.88 C-31.94 6.14, -37.73 3.47, -47.83 -0.17" stroke="#e03131" stroke-width="2" fill="none"></path></g></g><mask></mask><g transform="translate(552.9274357238064 883.3392798050642) rotate(0 131.0135498046875 19.4944109528156)"><text x="0" y="0" font-family="Virgil, Segoe UI Emoji" font-size="31.191057524504977px" fill="#e03131" text-anchor="start" style="white-space: pre;" direction="ltr" dominant-baseline="text-before-edge">syscall_trace_id</text></g><g transform="translate(964.1871642875685 883.9168567267944) rotate(0 131.0135498046875 19.4944109528156)"><text x="0" y="0" font-family="Virgil, Segoe UI Emoji" font-size="31.191057524504977px" fill="#e03131" text-anchor="start" style="white-space: pre;" direction="ltr" dominant-baseline="text-before-edge">syscall_trace_id</text></g></svg>